<svg xmlns="http://www.w3.org/2000/svg" xmlns:xlink="http://www.w3.org/1999/xlink" width="248.349" height="185.074" viewBox="0 0 248.349 185.074"><defs><clipPath id="a"><rect width="248.349" height="185.074" fill="none"/></clipPath></defs><rect width="248.349" height="0.124" transform="translate(0 162.642)" fill="#d1e3ff"/><rect width="28.696" height="0.124" transform="translate(25.652 168.597)" fill="#d1e3ff"/><rect width="13.075" height="0.124" transform="translate(103.981 165.899)" fill="#d1e3ff"/><rect width="25.469" height="0.124" transform="translate(121.829 165.837)" fill="#d1e3ff"/><rect width="6.204" height="0.124" transform="translate(189.577 167.328)" fill="#d1e3ff"/><rect width="24.747" height="0.124" transform="translate(143.412 167.328)" fill="#d1e3ff"/><rect width="4.917" height="0.124" transform="translate(59.157 168.597)" fill="#d1e3ff"/><rect width="21.484" height="0.124" transform="translate(199.838 167.328)" fill="#d1e3ff"/><g clip-path="url(#a)"><path d="M136.954,140.489H41.042a2.838,2.838,0,0,1-2.835-2.835V2.835A2.839,2.839,0,0,1,41.042,0h95.912a2.839,2.839,0,0,1,2.835,2.835V137.654a2.838,2.838,0,0,1-2.835,2.835M41.042.124a2.714,2.714,0,0,0-2.711,2.711V137.654a2.714,2.714,0,0,0,2.711,2.711h95.912a2.714,2.714,0,0,0,2.71-2.711V2.835a2.714,2.714,0,0,0-2.71-2.711Z" transform="translate(-19.23)" fill="#d1e3ff"/><path d="M353.251,140.489H257.34a2.838,2.838,0,0,1-2.835-2.835V2.835A2.839,2.839,0,0,1,257.34,0h95.912a2.839,2.839,0,0,1,2.835,2.835V137.654a2.838,2.838,0,0,1-2.835,2.835M257.34.124a2.714,2.714,0,0,0-2.71,2.711V137.654a2.714,2.714,0,0,0,2.71,2.711h95.912a2.714,2.714,0,0,0,2.711-2.711V2.835A2.714,2.714,0,0,0,353.251.124Z" transform="translate(-128.093)" fill="#d1e3ff"/><path d="M75.509,73.745c-2.166-4.679-.447-8.011,4.847-8.011,3.319,0,7.436,1.311,11.444,3.446.452-1.217,1.728-1.947,3.78-1.947,3.611,0,8.588,2.254,12.493,5.434a7.193,7.193,0,0,1,4.069-1.213,22.117,22.117,0,0,1,11.28,3.257,2.217,2.217,0,0,1,1.6-.606,8.293,8.293,0,0,1,6.026,2.918c.083.106.157.209.231.311H74.457a4.217,4.217,0,0,1,1.052-3.59" transform="translate(-37.454 -33.084)" fill="#f3f8ff"/><path d="M202.855,29.736a4.86,4.86,0,0,1,.527-.028,2.505,2.505,0,0,1,2.805-2.994,10.989,10.989,0,0,1,5.075,1.64c-.522-3.547,1.15-5.852,4.937-5.852,3.054,0,6.922,1.5,10.741,3.945.335-1.391,1.46-2.225,3.351-2.225,3.321,0,8.042,2.577,11.826,6.213,0,0,0,0,0,0a5.432,5.432,0,0,1,3.661-1.392c3.163-.164,7.09,1.317,10.572,3.729a1.711,1.711,0,0,1,1.437-.693c1.729-.089,4.113,1.242,5.5,3.022H200.071c-1.484-2.7-.3-5.06,2.784-5.365" transform="translate(-100.375 -11.325)" fill="#f3f8ff"/><path d="M374.77,16.244c-1.39-3-.287-5.14,3.11-5.14a16.675,16.675,0,0,1,7.344,2.211c.291-.781,1.109-1.249,2.425-1.249,2.317,0,5.511,1.446,8.016,3.486a4.62,4.62,0,0,1,2.611-.778,14.186,14.186,0,0,1,7.238,2.091,1.423,1.423,0,0,1,1.028-.389,5.323,5.323,0,0,1,3.867,1.872c.053.069.1.134.149.2H373.044c-1.185-1.064.125-2.25,1.726-2.3" transform="translate(-187.524 -5.589)" fill="#f3f8ff"/><rect width="16.917" height="54.079" transform="translate(44.279 108.562)" fill="#e3eeff"/><rect width="27.743" height="72.901" transform="translate(55.667 89.741)" fill="#f3f8ff"/><rect width="14.398" height="72.901" transform="translate(83.41 89.741)" fill="#e3eeff"/><rect width="24.01" height="7.246" transform="translate(59.4 82.495)" fill="#f3f8ff"/><rect width="24.01" height="1.627" transform="translate(59.4 88.114)" fill="#e3eeff"/><rect width="10.665" height="7.246" transform="translate(83.409 82.495)" fill="#e3eeff"/><rect width="20.277" height="7.246" transform="translate(63.133 75.249)" fill="#f3f8ff"/><rect width="20.277" height="1.627" transform="translate(63.133 80.868)" fill="#e3eeff"/><rect width="6.932" height="7.246" transform="translate(83.409 75.249)" fill="#e3eeff"/><rect width="1.346" height="10.126" transform="translate(76.065 65.123)" fill="#e3eeff"/><rect width="20.259" height="60.225" transform="translate(93.212 102.417)" fill="#f3f8ff"/><rect width="10.514" height="60.225" transform="translate(113.47 102.417)" fill="#e3eeff"/><path d="M239.034,240.839,254.4,254.008v29.848H239.034Z" transform="translate(-120.307 -121.215)" fill="#f3f8ff"/><rect width="7.973" height="29.849" transform="translate(134.091 132.793)" fill="#e3eeff"/><path d="M262.371,254.008H254.4l-15.363-13.169h7.973Z" transform="translate(-120.307 -121.215)" fill="#e3eeff"/><path d="M430.975,321.944a7.286,7.286,0,0,1,4.324-5.429,9.135,9.135,0,0,0-1.27,5.429Z" transform="translate(-216.911 -159.303)" fill="#e3eeff"/><path d="M138.145,321.944a7.286,7.286,0,0,0-4.324-5.429,9.133,9.133,0,0,1,1.269,5.429Z" transform="translate(-67.352 -159.303)" fill="#e3eeff"/><path d="M68.17,319.133s-.244-6.358-2.9-8.2c1.09,2.6.852,8.2.852,8.2Z" transform="translate(-32.85 -156.492)" fill="#e3eeff"/><path d="M69.1,322.674s.244-3.651,2.9-4.709c-1.09,1.491-.852,4.709-.852,4.709Z" transform="translate(-34.779 -160.033)" fill="#e3eeff"/><path d="M141.953,319.133s-.265-6.019-5.086-8.2c2.155,3.088,2.031,8.2,2.031,8.2Z" transform="translate(-68.886 -156.492)" fill="#e3eeff"/><path d="M373.452,297.738H361.275a.5.5,0,0,1-.5-.5V285.064a.5.5,0,0,1,.5-.5h12.178a.5.5,0,0,1,.5.5v12.178a.5.5,0,0,1-.5.5m-11.681-.993h11.184V285.56H361.771Z" transform="translate(-181.581 -143.223)" fill="#d1e3ff"/><path d="M373.452,273.221H361.275a.5.5,0,0,1-.5-.5V260.548a.5.5,0,0,1,.5-.5h12.178a.5.5,0,0,1,.5.5v12.177a.5.5,0,0,1-.5.5m-11.681-.993h11.184V261.044H361.771Z" transform="translate(-181.581 -130.884)" fill="#d1e3ff"/><path d="M373.453,297.738a.5.5,0,0,1-.351-.146l-12.178-12.178a.5.5,0,0,1,.7-.7L373.8,296.89a.5.5,0,0,1-.351.848" transform="translate(-181.581 -143.224)" fill="#d1e3ff"/><path d="M373.453,273.221a.5.5,0,0,1-.351-.146L360.924,260.9a.5.5,0,1,1,.7-.7L373.8,272.373a.5.5,0,0,1-.351.848" transform="translate(-181.581 -130.884)" fill="#d1e3ff"/><path d="M373.452,248.705H361.275a.5.5,0,0,1-.5-.5V236.032a.5.5,0,0,1,.5-.5h12.178a.5.5,0,0,1,.5.5v12.177a.5.5,0,0,1-.5.5m-11.681-.993h11.184V236.528H361.771Z" transform="translate(-181.581 -118.545)" fill="#d1e3ff"/><path d="M373.452,224.189H361.275a.5.5,0,0,1-.5-.5V211.515a.5.5,0,0,1,.5-.5h12.178a.5.5,0,0,1,.5.5v12.178a.5.5,0,0,1-.5.5m-11.681-.993h11.184V212.011H361.771Z" transform="translate(-181.581 -106.206)" fill="#d1e3ff"/><path d="M373.453,248.706a.5.5,0,0,1-.351-.146l-12.178-12.177a.5.5,0,1,1,.7-.7L373.8,247.858a.5.5,0,0,1-.351.848" transform="translate(-181.581 -118.546)" fill="#d1e3ff"/><path d="M373.453,224.189a.5.5,0,0,1-.351-.146l-12.178-12.178a.5.5,0,1,1,.7-.7L373.8,223.341a.5.5,0,0,1-.351.848" transform="translate(-181.581 -106.206)" fill="#d1e3ff"/><path d="M373.452,199.672H361.275a.5.5,0,0,1-.5-.5V187a.5.5,0,0,1,.5-.5h12.178a.5.5,0,0,1,.5.5v12.177a.5.5,0,0,1-.5.5m-11.681-.993h11.184V187.5H361.771Z" transform="translate(-181.581 -93.867)" fill="#d1e3ff"/><path d="M373.452,175.156H361.275a.5.5,0,0,1-.5-.5V162.483a.5.5,0,0,1,.5-.5h12.178a.5.5,0,0,1,.5.5V174.66a.5.5,0,0,1-.5.5m-11.681-.993h11.184V162.979H361.771Z" transform="translate(-181.581 -81.528)" fill="#d1e3ff"/><path d="M373.453,199.672a.5.5,0,0,1-.351-.146L360.924,187.35a.5.5,0,1,1,.7-.7L373.8,198.824a.5.5,0,0,1-.351.848" transform="translate(-181.581 -93.867)" fill="#d1e3ff"/><path d="M348.936,93.254H336.76a.5.5,0,0,1-.5-.5V80.581a.5.5,0,0,1,.5-.5h12.177a.5.5,0,0,1,.5.5V92.758a.5.5,0,0,1-.5.5m-11.68-.993H348.44V81.077H337.256Z" transform="translate(-169.242 -40.306)" fill="#d1e3ff"/><path d="M373.452,80.915H361.275a.5.5,0,1,1,0-.993h11.681V56.065a.5.5,0,0,1,.993,0V80.419a.5.5,0,0,1-.5.5" transform="translate(-181.581 -27.968)" fill="#d1e3ff"/><path d="M361.274,80.915a.5.5,0,0,1-.444-.719l12.178-24.354a.5.5,0,1,1,.889.444L361.719,80.64a.5.5,0,0,1-.445.275" transform="translate(-181.58 -27.967)" fill="#d1e3ff"/><path d="M324.42,93.254H312.243a.5.5,0,0,1-.5-.5V80.581a.5.5,0,0,1,.5-.5H324.42a.5.5,0,0,1,.5.5V92.758a.5.5,0,0,1-.5.5m-11.681-.993h11.184V81.077H312.739Z" transform="translate(-156.903 -40.306)" fill="#d1e3ff"/><path d="M336.76,93.254a.5.5,0,0,1-.351-.848l12.177-12.177a.5.5,0,0,1,.7.7L337.111,93.109a.5.5,0,0,1-.351.146" transform="translate(-169.242 -40.306)" fill="#d1e3ff"/><path d="M397.969,93.254H385.792a.5.5,0,0,1-.5-.5V80.581a.5.5,0,0,1,.5-.5h12.178a.5.5,0,0,1,.5.5V92.758a.5.5,0,0,1-.5.5m-11.681-.993h11.184V81.077H386.288Z" transform="translate(-193.92 -40.306)" fill="#d1e3ff"/><path d="M385.792,93.254a.5.5,0,0,1-.351-.848l12.177-12.177a.5.5,0,0,1,.7.7L386.143,93.109a.5.5,0,0,1-.351.146" transform="translate(-193.92 -40.306)" fill="#d1e3ff"/><path d="M238.694,80.916a.5.5,0,0,1-.351-.848L250.52,67.891a.5.5,0,0,1,.253-.136l60.886-12.177a.5.5,0,0,1,.449.136l24.354,24.354a.5.5,0,0,1-.7.7L311.593,56.6,251.116,68.7,239.045,80.77a.5.5,0,0,1-.351.146" transform="translate(-119.885 -27.968)" fill="#d1e3ff"/><path d="M312.243,93.254a.5.5,0,0,1-.351-.848l12.178-12.177a.5.5,0,0,1,.7.7L312.594,93.109a.5.5,0,0,1-.351.146" transform="translate(-156.902 -40.306)" fill="#d1e3ff"/><path d="M299.9,93.254H287.726a.5.5,0,0,1-.5-.5V80.581a.5.5,0,0,1,.5-.5H299.9a.5.5,0,0,1,.5.5V92.758a.5.5,0,0,1-.5.5m-11.681-.993h11.184V81.077H288.222Z" transform="translate(-144.563 -40.306)" fill="#d1e3ff"/><path d="M275.387,93.254H263.211a.5.5,0,0,1-.5-.5V80.581a.5.5,0,0,1,.5-.5h12.177a.5.5,0,0,1,.5.5V92.758a.5.5,0,0,1-.5.5m-11.68-.993h11.184V81.077H263.707Z" transform="translate(-132.225 -40.306)" fill="#d1e3ff"/><path d="M287.726,93.254a.5.5,0,0,1-.351-.848l12.178-12.177a.5.5,0,0,1,.7.7L288.077,93.109a.5.5,0,0,1-.351.146" transform="translate(-144.563 -40.306)" fill="#d1e3ff"/><path d="M263.211,93.254a.5.5,0,0,1-.351-.848l12.177-12.177a.5.5,0,0,1,.7.7L263.562,93.109a.5.5,0,0,1-.351.146" transform="translate(-132.225 -40.306)" fill="#d1e3ff"/><path d="M250.871,93.254H238.694a.5.5,0,0,1,0-.993h11.681V80.581a.5.5,0,1,1,.993,0V92.758a.5.5,0,0,1-.5.5" transform="translate(-119.885 -40.306)" fill="#d1e3ff"/><path d="M373.453,175.156a.5.5,0,0,1-.351-.146l-12.178-12.178a.5.5,0,1,1,.7-.7L373.8,174.308a.5.5,0,0,1-.351.848" transform="translate(-181.581 -81.528)" fill="#d1e3ff"/><path d="M373.452,150.64H361.275a.5.5,0,0,1-.5-.5V137.966a.5.5,0,0,1,.5-.5h12.178a.5.5,0,0,1,.5.5v12.178a.5.5,0,0,1-.5.5m-11.681-.993h11.184V138.463H361.771Z" transform="translate(-181.581 -69.189)" fill="#d1e3ff"/><path d="M373.452,126.123H361.275a.5.5,0,0,1-.5-.5V113.45a.5.5,0,0,1,.5-.5h12.178a.5.5,0,0,1,.5.5v12.177a.5.5,0,0,1-.5.5m-11.681-.993h11.184V113.946H361.771Z" transform="translate(-181.581 -56.85)" fill="#d1e3ff"/><path d="M373.453,150.64a.5.5,0,0,1-.351-.146l-12.178-12.177a.5.5,0,0,1,.7-.7L373.8,149.792a.5.5,0,0,1-.351.848" transform="translate(-181.581 -69.189)" fill="#d1e3ff"/><path d="M373.453,126.124a.5.5,0,0,1-.351-.146L360.924,113.8a.5.5,0,0,1,.7-.7L373.8,125.276a.5.5,0,0,1-.351.848" transform="translate(-181.581 -56.85)" fill="#d1e3ff"/><path d="M336.614,105.6H239.2l12.178,4.149h85.24Z" transform="translate(-120.389 -53.149)" fill="#d1e3ff"/><path d="M336.111,109.742h-85.24a.5.5,0,0,1-.16-.026l-12.178-4.149a.5.5,0,0,1,.16-.967h97.417a.5.5,0,0,1,.5.5v4.149a.5.5,0,0,1-.5.5m-85.157-.993h84.661v-3.156H241.692Z" transform="translate(-119.885 -52.645)" fill="#d1e3ff"/><rect width="9.015" height="19.16" transform="translate(170.679 54.526)" fill="#d1e3ff"/><rect width="4.194" height="19.16" transform="translate(166.485 54.526)" fill="#f3f8ff"/><rect width="17.753" height="8.624" transform="translate(181.036 154.018)" fill="#d1e3ff"/><rect width="8.26" height="8.624" transform="translate(172.777 154.018)" fill="#f3f8ff"/><path d="M410.308,128.6a.5.5,0,0,1-.5-.5V109.274a.5.5,0,0,1,.993,0V128.1a.5.5,0,0,1-.5.5" transform="translate(-206.259 -54.748)" fill="#d1e3ff"/><path d="M409.15,149.963a1.639,1.639,0,1,1,1.639-1.639,1.641,1.641,0,0,1-1.639,1.639m0-2.285a.646.646,0,1,0,.646.646.646.646,0,0,0-.646-.646" transform="translate(-205.101 -73.827)" fill="#d1e3ff"/><path d="M266.292,138.483a.5.5,0,0,1-.5-.5V109.273a.5.5,0,0,1,.993,0v28.714a.5.5,0,0,1-.5.5" transform="translate(-133.775 -54.747)" fill="#d1e3ff"/><path d="M266.23,170.553a.5.5,0,0,1-.489-.409,14.735,14.735,0,0,0-4.191-2.566,15.048,15.048,0,0,0-4.156,2.566.5.5,0,0,1-.985-.088c0-1.116,4.508-3.471,5.159-3.471s5.159,2.355,5.159,3.471a.5.5,0,0,1-.5.5" transform="translate(-129.051 -83.843)" fill="#d1e3ff"/><path d="M257.237,209.746l7.286-7.286L262.97,199.5h0c.135-.3.258-.6.375-.9h0l3.192-1v-10.3l-3.194-1h0c-.116-.3-.238-.6-.373-.9l1.552-2.964-7.286-7.286-2.964,1.552h0c-.3-.135-.6-.257-.9-.373l-1-3.194h-10.3l-1,3.194c-.3.114-.6.238-.9.373h0l-2.964-1.552-7.286,7.286,1.553,2.965c-.135.3-.258.6-.374.9l-3.194,1v10.3l3.194,1c.116.3.238.6.373.9h0l-1.552,2.963,7.286,7.286,2.963-1.552c.3.134.6.256.9.372h0l1,3.194h10.3l1-3.2c.3-.116.6-.239.9-.373Zm-4.593-11.882a7.668,7.668,0,1,1,0-10.844,7.669,7.669,0,0,1,0,10.844" transform="translate(-114.704 -87.135)" fill="#d1e3ff"/><path d="M248.72,355.587c0,3.106-43.117,5.624-96.3,5.624s-96.3-2.518-96.3-5.624,43.116-5.624,96.3-5.624,96.3,2.518,96.3,5.624" transform="translate(-28.241 -176.137)" fill="#f0f6ff"/><path d="M164.832,108.193h-6.2a1.617,1.617,0,0,0-1.4.808l-3.1,5.369a1.616,1.616,0,0,0,0,1.616l3.1,5.369a1.616,1.616,0,0,0,1.4.808h6.2a1.616,1.616,0,0,0,1.4-.808l3.1-5.369a1.616,1.616,0,0,0,0-1.616l-3.1-5.369a1.617,1.617,0,0,0-1.4-.808" transform="translate(-77.466 -54.454)" fill="#9fc6ff"/><path d="M95.64,60.507l-.351-.351,3-3,.351.351Zm5.132-5.132-.351-.351,6.229-6.23.351.351Z" transform="translate(-47.959 -24.558)" fill="#9fc6ff"/><path d="M169.091,90.789V68.309l-6.969-2.179v0c-.251-.667-.522-1.319-.812-1.967h0l3.385-6.465L148.8,41.8l-6.469,3.387h0c-.647-.29-1.3-.565-1.966-.816L138.185,37.4H115.7l-2.178,6.967h0c-.667.251-1.319.527-1.966.817L105.091,41.8,89.2,57.7l3.387,6.469c-.295.647-.565,1.3-.816,1.964v0L84.8,68.309v22.48l6.969,2.179c.25.665.525,1.321.815,1.966L89.2,101.4l15.9,15.9,6.467-3.386h0c.648.29,1.3.566,1.967.817h0L115.7,121.7h22.48l2.178-6.966c.667-.251,1.319-.526,1.966-.817h0L148.8,117.3l15.9-15.9-3.388-6.47c.289-.645.563-1.3.814-1.964ZM143.674,79.546a16.73,16.73,0,1,1-16.73-16.73,16.731,16.731,0,0,1,16.73,16.73" transform="translate(-42.68 -18.825)" fill="#9fc6ff"/><path d="M138.475,121.714h-20.29a.125.125,0,0,1-.119-.087l-1.96-6.269a.124.124,0,0,1,.237-.074l1.933,6.182h20.107l2.04-6.527a.125.125,0,0,1,.074-.079l.679-.256c.575-.216,1.189-.471,1.877-.78l.662-.3a.124.124,0,1,1,.1.226l-.662.3c-.693.31-1.311.568-1.89.785l-.623.235-2.05,6.555a.124.124,0,0,1-.118.087m11.429-4.735a.122.122,0,0,1-.087-.036.124.124,0,0,1,0-.175L164.1,102.486l-3.172-6.059a.125.125,0,0,1,0-.108l.295-.66c.3-.674.555-1.287.777-1.875l.256-.68a.125.125,0,0,1,.079-.075l6.532-2.041V70.88l-6.441-2.013a.124.124,0,0,1,.074-.237l6.528,2.041a.124.124,0,0,1,.087.118v20.29a.125.125,0,0,1-.087.119l-6.561,2.05-.235.623c-.223.592-.478,1.21-.782,1.889l-.27.6,3.187,6.086a.125.125,0,0,1-.022.146l-14.347,14.347a.124.124,0,0,1-.088.036m-43.15,0a.124.124,0,0,1-.088-.036L92.32,102.6a.124.124,0,0,1-.022-.146l3.214-6.139a.126.126,0,0,1,.168-.052.124.124,0,0,1,.053.167l-3.172,6.058,14.283,14.282a.124.124,0,0,1-.088.212m8.432-2.231a.121.121,0,0,1-.045-.008c-.5-.2-1.041-.421-1.639-.689a.124.124,0,0,1,.1-.226c.6.267,1.128.491,1.628.684a.124.124,0,0,1-.045.24m13.143-15.466a18.369,18.369,0,0,1-18.345-18.351.124.124,0,0,1,.248,0,18.1,18.1,0,1,0,18.1-18.1.124.124,0,1,1,0-.248,18.348,18.348,0,0,1,0,36.695M94.547,93.951a.124.124,0,0,1-.116-.08l-.235-.623L87.636,91.2a.125.125,0,0,1-.087-.119V70.789a.124.124,0,0,1,.087-.118l6.272-1.961a.124.124,0,1,1,.074.237L87.8,70.88V90.987l6.53,2.041a.125.125,0,0,1,.079.075l.257.68a.124.124,0,0,1-.116.168m.008-25.811a.126.126,0,0,1-.044-.008.124.124,0,0,1-.072-.16c.24-.637.493-1.245.772-1.858a.124.124,0,1,1,.226.1c-.277.608-.527,1.211-.765,1.843a.124.124,0,0,1-.116.08M161.2,65.3a.126.126,0,0,1-.058-.014.124.124,0,0,1-.052-.168l3-5.738-2.4-2.4a.124.124,0,0,1,.175-.176l2.462,2.462a.125.125,0,0,1,.022.146l-3.047,5.819a.124.124,0,0,1-.11.067m-68.8-5.819a.124.124,0,0,1-.087-.212l14.347-14.347a.124.124,0,0,1,.146-.022l6.086,3.187.605-.271c.584-.262,1.121-.488,1.639-.689a.124.124,0,1,1,.09.231c-.515.2-1.047.423-1.627.684l-.66.3a.125.125,0,0,1-.108,0l-6.058-3.172L92.5,59.447a.124.124,0,0,1-.088.037m67.312-4.531a.124.124,0,0,1-.088-.036l-9.752-9.752-6.058,3.172a.122.122,0,0,1-.108,0l-.66-.3c-.68-.3-1.294-.56-1.876-.779l-.679-.256a.124.124,0,0,1-.075-.079l-2.04-6.528H118.276l-1.757,5.62a.124.124,0,1,1-.237-.075l1.784-5.707a.125.125,0,0,1,.119-.087h20.29a.124.124,0,0,1,.118.087l2.05,6.557.623.235c.587.221,1.2.478,1.889.785l.6.271,6.086-3.187a.126.126,0,0,1,.146.022l9.816,9.816a.125.125,0,0,1,0,.176.124.124,0,0,1-.088.036" transform="translate(-44.064 -20.21)" fill="#fff"/><path d="M308.9,130.435c1.554,1.978,3.006,3.972,4.426,6.025s2.773,4.148,4.053,6.335c.322.542.63,1.107.943,1.661a6.624,6.624,0,0,1,.776,2.726,14.328,14.328,0,0,1-.415,4.309,30.619,30.619,0,0,1-2.791,7.257l-2.556-.985a56.874,56.874,0,0,0,1.094-6.946,11.831,11.831,0,0,0-.1-3.033,1.846,1.846,0,0,0-.3-.771c-.33-.493-.648-.986-.992-1.477-1.345-1.97-2.769-3.928-4.207-5.88l-4.316-5.85Z" transform="translate(-153.264 -65.648)" fill="#ff8b7b"/><path d="M320.572,184.54l-1.32,2.364,4.61.683a4.247,4.247,0,0,0-.665-3.36Z" transform="translate(-160.68 -92.722)" fill="#ff8b7b"/><path d="M317.851,192.76l3.837.386,1.469-2.846-4.611-.683Z" transform="translate(-159.975 -95.434)" fill="#ff8b7b"/><path d="M253.34,160.24l1.368-7.3a3.26,3.26,0,0,1,3.792-2.6l11.506,2.158a15.207,15.207,0,0,0-23.208-8.166L194.586,113.43a15.209,15.209,0,0,0-27.163-10.581l11.506,2.158a3.259,3.259,0,0,1,2.593,3.8l-1.368,7.3a3.259,3.259,0,0,1-3.792,2.6l-11.506-2.158a15.2,15.2,0,0,0,23.327,8.08l52.109,30.844a15.207,15.207,0,0,0,27.148,10.729l-11.506-2.158a3.26,3.26,0,0,1-2.593-3.8" transform="translate(-82.972 -48.807)" fill="#407bff"/><path d="M266.313,172.03l-42.336-25.06a1.618,1.618,0,0,1-.568-2.216l1.727-2.917a1.617,1.617,0,0,1,2.216-.568l42.336,25.06a1.618,1.618,0,0,1,.568,2.216l-1.727,2.918a1.618,1.618,0,0,1-2.216.568" transform="translate(-112.329 -70.987)" fill="#5592ff"/><path d="M277.028,98.771c-.045.291-.236.5-.426.472s-.307-.29-.262-.58.237-.5.427-.472.307.29.261.58" transform="translate(-139.077 -49.418)" fill="#0f264c"/><path d="M275.511,100.381a10.539,10.539,0,0,1-1.779,2.269,1.7,1.7,0,0,0,1.349.478Z" transform="translate(-137.77 -50.522)" fill="#ff5652"/><path d="M278.843,95.614a.173.173,0,0,1-.122-.05,1.375,1.375,0,0,0-1.178-.413.17.17,0,0,1-.206-.132.172.172,0,0,1,.132-.205,1.717,1.717,0,0,1,1.5.5.173.173,0,0,1-.122.3" transform="translate(-139.583 -47.709)" fill="#0f264c"/><path d="M288.944,105.811c-.524,2.669-1.045,7.56.822,9.342,0,0-.73,2.707-5.69,2.707-5.454,0-2.606-2.707-2.606-2.707,2.976-.711,2.9-2.919,2.381-4.993Z" transform="translate(-141.291 -53.255)" fill="#ff8b7b"/><path d="M292.307,125.434a.854.854,0,0,1-.133-.289c-.417-1.581-2.173-2.821-4.448-2.881-2.4-.064-5.1.225-6.706,1.549-.7.58.079,1.431.079,1.431Z" transform="translate(-141.29 -61.532)" fill="#77b3fc"/><path d="M338.956,328.5l-.038,0c-.1-.01-.226-.069-.293-.286a.4.4,0,0,1,.043-.335c.277-.471,1.474-.72,1.524-.73a.09.09,0,0,1,.088.034.086.086,0,0,1,0,.094c-.188.323-.867,1.226-1.328,1.226m1.067-1.137a2.348,2.348,0,0,0-1.207.6.231.231,0,0,0-.026.2c.048.155.124.164.148.166.248.033.774-.505,1.086-.963" transform="translate(-170.421 -164.654)" fill="#407bff"/><path d="M339.463,326.765a1.561,1.561,0,0,1-1.112-.306.283.283,0,0,1,.027-.355.473.473,0,0,1,.335-.189c.546-.063,1.363.6,1.4.629a.087.087,0,0,1,.03.083.088.088,0,0,1-.059.067,2.253,2.253,0,0,1-.62.072m-.667-.682a.5.5,0,0,0-.062,0,.3.3,0,0,0-.218.121c-.068.09-.038.133-.024.152.142.2.9.283,1.365.209a2.289,2.289,0,0,0-1.061-.485" transform="translate(-170.268 -164.032)" fill="#407bff"/><path d="M265.536,353.27c-.468,0-.92-.065-1.072-.275a.326.326,0,0,1,.007-.378.429.429,0,0,1,.274-.2c.61-.168,1.883.562,1.937.593a.087.087,0,0,1-.026.16,6.429,6.429,0,0,1-1.12.1m-.579-.708a.647.647,0,0,0-.167.02.26.26,0,0,0-.169.121c-.062.108-.039.16-.017.191.169.236,1.093.241,1.771.146a3.9,3.9,0,0,0-1.418-.477" transform="translate(-133.078 -177.359)" fill="#407bff"/><path d="M267.6,352.285a.087.087,0,0,1-.035-.007c-.441-.2-1.313-.987-1.246-1.4.015-.1.084-.218.321-.241a.636.636,0,0,1,.48.148,2.463,2.463,0,0,1,.566,1.405.086.086,0,0,1-.086.095m-.891-1.479-.052,0c-.155.016-.165.077-.168.1-.04.248.553.868,1,1.138a2.021,2.021,0,0,0-.482-1.124.456.456,0,0,0-.3-.113" transform="translate(-134.035 -176.475)" fill="#407bff"/><path d="M272.911,345.222h-3.649l-.363-8.45h3.649Z" transform="translate(-135.337 -169.498)" fill="#ff8b7b"/><path d="M338.336,316.645l-2.959,2.135-6.985-5.38,2.959-2.135Z" transform="translate(-165.281 -156.66)" fill="#ff8b7b"/><path d="M339.009,323.239l2.839-2.957a.318.318,0,0,1,.395-.052l2.839,1.727a.537.537,0,0,1,.1.835c-1.009,1.015-1.551,1.458-2.8,2.759-.768.8-2.858,3.612-3.919,4.717-1.037,1.081-2.292.2-1.956-.347a14.612,14.612,0,0,0,2.255-6.1.881.881,0,0,1,.248-.583" transform="translate(-169.336 -161.149)" fill="#14365b"/><path d="M260.749,352.934h3.984a.318.318,0,0,1,.311.249l.721,3.243a.531.531,0,0,1-.525.649c-1.437-.024-3.514-.109-5.321-.109-2.112,0-3.937.116-6.414.116-1.5,0-1.914-1.514-1.287-1.652,2.855-.624,5.186-.691,7.652-2.212a1.689,1.689,0,0,1,.879-.284" transform="translate(-126.8 -177.633)" fill="#14365b"/><path d="M302.276,133.091c.511.919,1.057,1.808,1.6,2.637.934,1.435,1.838,2.677,2.488,3.532.581.77.954,1.222.954,1.222l7.351-5.012s-4.45-8.7-7.912-9.258c-3.547-.561-6.79,2.757-4.48,6.879" transform="translate(-151.746 -63.492)" fill="#19437f"/><path d="M306.282,142.35c.934,1.435,1.838,2.677,2.489,3.532a14.065,14.065,0,0,0-1.754-6.576,5.222,5.222,0,0,0-.735,3.045" transform="translate(-154.153 -70.113)" fill="#133a68"/><path d="M267.313,137.4c0,1.242.03,2.608.1,4.113.179,4.093.626,9.194,1.481,15.532h19.515c.134-3-1.749-17.613,1.142-31.729a51.108,51.108,0,0,0-6.537-.825,72.154,72.154,0,0,0-8.295,0,37.216,37.216,0,0,0-5.613,1.013s-1.8,2.031-1.793,11.9" transform="translate(-134.539 -62.596)" fill="#19437f"/><path d="M267.313,147.882c0,1.242.03,2.608.1,4.113,2.29-2.235,2.444-6.8,2.444-6.8Z" transform="translate(-134.539 -73.077)" fill="#133a68"/><path d="M247.743,136.341a17.3,17.3,0,0,1-1.239,1.807c-.41.534-.826,1.045-1.249,1.546-.839,1.007-1.735,1.95-2.652,2.878a36.89,36.89,0,0,1-6.18,5.049,21.094,21.094,0,0,1-1.866,1.033l-.25.117-.125.059c-.036.018-.083.039-.155.067a5.73,5.73,0,0,1-.754.261l-.366.093-.346.06a5.645,5.645,0,0,1-.669.073,12.954,12.954,0,0,1-4.411-.621,28.949,28.949,0,0,1-7.125-3.333l1.177-2.475a52.022,52.022,0,0,0,6.886,1.569,9.861,9.861,0,0,0,2.962.043,2.491,2.491,0,0,0,.249-.063l.109-.031.08-.038c.065-.019.079-.05.115-.065l.3-.17c.441-.256.885-.551,1.326-.87a37.778,37.778,0,0,0,5.09-4.611c.811-.848,1.588-1.735,2.348-2.622.377-.445.745-.9,1.09-1.343s.7-.915.9-1.232Z" transform="translate(-110.905 -67.201)" fill="#ff8b7b"/><path d="M219.678,150.921l-2.427-2.888-1.646,4.214a5.882,5.882,0,0,0,3.718.419Z" transform="translate(-108.515 -74.505)" fill="#ff8b7b"/><path d="M211.077,146.777l-.673,3.365,2.583,1.473,1.646-4.214Z" transform="translate(-105.897 -73.873)" fill="#ff8b7b"/><path d="M265.765,130.707c-.435,3.461-8.323,10.8-8.323,10.8l-7.1-5.632a40.745,40.745,0,0,1,6.219-7.218c5.143-4.46,9.728-2.107,9.206,2.047" transform="translate(-125.997 -63.543)" fill="#19437f"/><path d="M268.959,153.275c7.088,0,8.71-8.016,9.079-11.456a43.174,43.174,0,0,0-6.1-16.386.443.443,0,0,1,.293-.67l1.556-.287a.45.45,0,0,1,.46.2,41.928,41.928,0,0,1,6.119,15.6h1.267c1.3-2.832,4.17-9.282,3.933-15.327a.441.441,0,0,1,.481-.461l1.669.16a.443.443,0,0,1,.4.418c.244,5.829-3.049,13.909-4.316,16.474.436,9.512,5.722,11.153,5.722,11.153a35.761,35.761,0,0,1-.313,7.077c-11.2,1.82-16.781.709-19.973-.612a26.476,26.476,0,0,0-.285-5.886" transform="translate(-135.368 -62.645)" fill="#0053cc"/><path d="M268.9,336.777l.186,4.356h3.651l-.187-4.356Z" transform="translate(-135.338 -169.501)" fill="#ea7063"/><path d="M331.357,311.266,328.4,313.4l3.6,2.772,2.96-2.136Z" transform="translate(-165.283 -156.661)" fill="#ea7063"/><path d="M286.545,95.036c-.778,3.537-1.055,5.647-3.146,7.2a4.811,4.811,0,0,1-7.59-3.691c-.264-3.329,1.053-8.553,4.771-9.427a4.939,4.939,0,0,1,5.965,5.921" transform="translate(-138.799 -44.781)" fill="#ff8b7b"/><path d="M291.266,85.848c3.1.084,1.824,1.718.272,2.616a2.1,2.1,0,0,1,.867,2.909c-1.4,3.116-4.081,6.537-6.821,6.349-3.4-.232-4.374-3.94-4.252-7.594a6.342,6.342,0,0,1-2.379-4.662c-.559-4.041,1.995-6.26,12.312.383" transform="translate(-140.362 -41.08)" fill="#14365b"/><path d="M285.556,76.168a8.277,8.277,0,0,1,5.973,10.069l-16.042-4.1a8.278,8.278,0,0,1,10.069-5.973" transform="translate(-138.653 -38.205)" fill="#9fc6ff"/><path d="M295.072,85.578a.726.726,0,0,1-.7-.9,6.623,6.623,0,0,0-.946-5.312,8.054,8.054,0,0,0-4.784-3.354A.725.725,0,0,1,289,74.6a9.5,9.5,0,0,1,5.638,3.965,8.057,8.057,0,0,1,1.138,6.465.725.725,0,0,1-.7.546" transform="translate(-144.998 -37.536)" fill="#77b3fc"/><path d="M270.362,87.361l18.869,4.817a.766.766,0,1,0,.379-1.484l-18.87-4.817a.766.766,0,0,0-.379,1.484" transform="translate(-135.784 -43.21)" fill="#77b3fc"/><path d="M284.674,98.936a4.094,4.094,0,0,1-1.107,2.384c-.824.849-1.636.276-1.74-.8-.094-.965.221-2.568,1.209-3.018s1.738.351,1.638,1.43" transform="translate(-141.836 -49.012)" fill="#ff8b7b"/><path d="M284.409,190.156s-.422,25.968,2.843,36.15c5.169,16.127,20.774,29.19,20.774,29.19l5.58-4.028s-12.989-11.035-15.373-24.619c-2.142-12.2-1.231-26.726-1.231-36.694Z" transform="translate(-143.135 -95.706)" fill="#0053cc"/><path d="M288.059,197.534c.69,4.679-1.748,17.707-2.593,21.974-.884-7.977-1.048-17.439-1.063-22.605,1.788-1.211,3.338-1.524,3.656.631" transform="translate(-143.141 -98.624)" fill="#004daa"/><path d="M327.191,314.687c-.023.016,2.292,1.366,2.292,1.366l6.1-4.4-2.032-1.554Z" transform="translate(-164.676 -156.074)" fill="#77b3fc"/><path d="M264.5,190.156s-5.5,23.3-5.883,34.423c-.434,12.48,3.921,41.915,3.921,41.915h6.181s.761-29.664,1.036-41.031c.3-12.392,7.573-35.307,7.573-35.307Z" transform="translate(-130.145 -95.706)" fill="#0053cc"/><path d="M264.142,338.89c-.029,0,.349,2.566.349,2.566h7.52l.2-2.29Z" transform="translate(-132.943 -170.564)" fill="#77b3fc"/></g></svg>