<svg xmlns="http://www.w3.org/2000/svg" width="16.738" height="16.365" viewBox="0 0 16.738 16.365"><path d="M17.74,16.793l-6.765-6.577,4.288-4.424a.766.766,0,0,0,.188.017,1.047,1.047,0,0,0,.769-.325l.871-.905a1.075,1.075,0,0,0-1.537-1.5l-.871.905a1.078,1.078,0,0,0-.273.991L10.138,9.379,8.891,8.167a2.7,2.7,0,0,0-.717-2.75L6.021,3.366A2.744,2.744,0,0,0,3.373,2.7L5.782,5.023a1.372,1.372,0,0,1,.034,1.93,1.387,1.387,0,0,1-.974.41,1.33,1.33,0,0,1-.957-.393L1.477,4.665a2.7,2.7,0,0,0,.735,2.614L4.364,9.362a2.719,2.719,0,0,0,1.9.769A2.86,2.86,0,0,0,7.1,9.994l.769.752-5.4,5.586a1.268,1.268,0,0,0,.017,1.794,1.259,1.259,0,0,0,1.794-.034l5.415-5.586,6.286,6.1a1.262,1.262,0,1,0,1.759-1.811Z" transform="translate(-1.39 -2.597)" fill="#fff"/></svg>