<?xml version="1.0" encoding="utf-8"?>
<!-- Generator: Adobe Illustrator 23.1.0, SVG Export Plug-In . SVG Version: 6.00 Build 0)  -->
<svg version="1.1" id="Layer_1" xmlns="http://www.w3.org/2000/svg" xmlns:xlink="http://www.w3.org/1999/xlink" x="0px" y="0px"
	 viewBox="0 0 100 52" style="enable-background:new 0 0 100 52;" xml:space="preserve">
<style type="text/css">
	.st0{fill:#FFFFFF;}
	.st1{fill:#F08C1A;}
</style>
<g>
	<title>AllBrand_Logo_SVG</title>
	<path class="st0" d="M27.8,30.3l1.9-10.9c0.2-0.9-0.6-1.8-1.5-1.8H20v0c1.5-1.4,1.2-3.8-0.5-4.8c-0.6-0.3-1.2-0.6-1.8-0.9l0.1-0.3
		h3.8c0.8,0,1.4-0.5,1.5-1.3c0.2-1-0.6-1.8-1.5-1.8h-2.8c0.2-0.7,0.4-1.4,0.6-2.2h2.4c0.7,0,1.4-0.5,1.5-1.2
		c0.2-0.9-0.5-1.8-1.5-1.8h-5.3c0.1-0.1,0.1-0.2,0.2-0.4c0.4-0.7,0-1.5-0.7-1.8c-0.5-0.2-1.1,0.1-1.4,0.6c-1,1.7-2,3.1-3.1,4.2
		c-0.4,0.4-0.4,0.9-0.2,1.4l0.6,1.2c-0.7,0-1.2,0.5-1.3,1.1l-0.1,0.4c-0.1,0.8,0.5,1.6,1.3,1.6h3.1c-0.9,1.6-2.5,2.9-5.1,3.5
		c-1.3,0.3-2,1.8-1.4,3c0.6,1.1,1.9,1.4,2.9,0.8c0.3-0.2,0.6-0.4,0.9-0.6l-2,11.8c-0.1,0.8,0.5,1.6,1.3,1.6c0.7,0,1.2-0.5,1.3-1.1
		l0-0.1H25c-0.1,0.6,0.4,1.2,1,1.2C26.9,31.8,27.7,31.2,27.8,30.3 M26.7,20.7l-0.3,2H14.3l0.3-2H26.7z M12.8,8.5
		c0.6-0.7,1.3-1.4,1.9-2.2h2.1c-0.2,0.8-0.4,1.5-0.6,2.2H12.8z M16.2,14.5c1.2,1.1,2.1,2.1,2.9,3.1h-5.8
		C14.5,16.7,15.5,15.6,16.2,14.5 M25.5,27.6H13.4l0.3-1.9h12.1L25.5,27.6z"/>
	<path class="st0" d="M24.7,16h6.2c0.8,0,1.4-0.5,1.5-1.3L34,5.2c0.2-0.9-0.6-1.8-1.5-1.8h-6.2c-0.8,0-1.4,0.5-1.5,1.3l-1.6,9.5
		C23,15.1,23.7,16,24.7,16 M27.1,6.4h4L30,13h-4L27.1,6.4z"/>
	<path class="st0" d="M45.8,6.2h5.3l-0.2,1.1H46c-0.7,0-1.4,0.5-1.5,1.3l-1.8,10c-0.1,0.8,0.5,1.6,1.3,1.6c0.6,0,1.2-0.5,1.3-1.1
		l0.4-2.4h3.5l-0.3,1.6c-0.2,0.8,0.5,1.6,1.3,1.6c0.7,0,1.2-0.5,1.3-1.1l0.4-2.1h3.5L55.4,17c-0.1,0.5-0.3,0.7-0.7,0.7
		c-0.7-0.1-1.3,0.5-1.2,1.2l0,0.1c0,0.6,0.5,1.1,1.1,1.1h0.4c1.7,0,2.7-0.8,3-2.5l1.6-8.5c0.2-1-0.6-1.8-1.5-1.8h-4.3l0.2-1.1h5.8
		c0.7,0,1.3-0.5,1.4-1.2c0.2-0.9-0.5-1.7-1.4-1.7h-0.6c0-0.4-0.1-1.3-0.3-2c-0.1-0.7-0.8-1.1-1.4-1c-0.7,0.1-1.2,0.8-1,1.5
		c0.1,0.6,0.3,1.2,0.3,1.5h-2.4L54.4,3c0.2-0.8-0.5-1.6-1.3-1.6c-0.7,0-1.2,0.5-1.3,1.1l-0.2,0.9h-5.8c-0.7,0-1.3,0.5-1.4,1.2
		C44.2,5.4,44.9,6.2,45.8,6.2 M49.6,14.5h-3.5l0.2-1.2h3.5L49.6,14.5z M50.2,11h-3.5l0.2-1.2h3.5L50.2,11z M53.2,9.8h3.5L56.5,11H53
		L53.2,9.8z M52.6,13.2h3.5l-0.2,1.2h-3.5L52.6,13.2z"/>
	<path class="st0" d="M50.5,28.7c-0.4,0-0.8,0-1.2,0c-0.9-0.1-1.6,0.6-1.6,1.5c0,0.8,0.7,1.5,1.5,1.5h1.7c1.7,0,2.7-1.1,3.1-3.1
		l0.7-3.9h1.8c0.7,0,1.3-0.5,1.5-1.2c0.2-0.9-0.5-1.7-1.5-1.7h-1.3c0.1-0.6-0.4-1.2-1-1.2h-0.3c-0.7,0-1.3,0.5-1.5,1.2H41.8
		c-0.7,0-1.3,0.5-1.5,1.2c-0.2,0.9,0.5,1.7,1.5,1.7H44l-0.3,0.3c-0.6,0.6-0.7,1.5-0.2,2.3c0.3,0.4,0.5,0.8,0.7,1.2
		c0.5,1.1,2,1.4,2.9,0.5c0.6-0.6,0.6-1.5,0.2-2.2c-0.5-0.8-1.2-1.5-2-2h6.7l-0.6,3.1C51.2,28.4,50.9,28.7,50.5,28.7"/>
	<path class="st0" d="M41.3,12.3c0.9,0,1.6-0.6,1.7-1.5c0.1-1-0.7-1.8-1.7-1.8h-0.3c0,0,0,0,0,0L42,3c0.1-0.8-0.3-1.5-1.1-1.7
		c-0.8-0.2-1.6,0.3-1.7,1.1L38,9c0,0,0,0,0,0h-1.8c-0.7,0-1.4,0.4-1.6,1.1c-0.4,1.1,0.4,2.3,1.6,2.3h1.2c0,0,0,0,0,0l-7.3,38.1
		c-0.1,0.7,0.4,1.3,1.1,1.3c0.9,0,1.7-0.6,1.9-1.5l7.2-37.8c0,0,0,0,0,0H41.3z"/>
	<path class="st1" d="M65.9,26.9c1.6-2.3,2.9-5.2,4.1-8.3l-1.3,7.2h-1.4c-0.5,0-0.9,0.3-1,0.8c-0.1,0.6,0.4,1.2,1,1.2h1l-0.5,2.9
		c-0.1,0.5,0.3,1,0.8,1c0.4,0,0.8-0.3,0.8-0.7l0.6-3.2h1.4c0.5,0,0.9-0.3,1-0.8c0.1-0.6-0.4-1.2-1-1.2h-1.1l1.3-7.2
		c0.1,2.5,0.5,4.9,1.2,7.1c0.4,1.1,1.8,1.3,2.4,0.4c0.4-0.5,0.3-1.2-0.1-1.7c-1.4-1.6-2-3.5-2.2-6.1h2.2c0.5,0,0.9-0.3,1-0.8
		c0.1-0.6-0.4-1.2-1-1.2h-3.1l0.4-2.2c0.1-0.5-0.3-1-0.8-1c-0.4,0-0.8,0.3-0.8,0.7l-0.4,2.5h-3.3c-0.5,0-0.9,0.3-1,0.8
		c-0.1,0.6,0.4,1.2,1,1.2h1.6c-1.2,3-2.2,5.4-4.6,6.8c-0.5,0.3-0.8,1-0.6,1.6C63.9,27.6,65.3,27.7,65.9,26.9"/>
	<path class="st1" d="M66.9,14.5c0.2-0.4,0-0.8-0.3-1c-0.4-0.3-1-0.1-1.2,0.4c-1.3,2.7-3.4,5.9-5.7,7.6c-0.5,0.4-0.6,1.1-0.2,1.6
		c0.4,0.4,1.1,0.5,1.6,0.1c0.6-0.5,0.9-0.8,1.4-1.4l-1.6,9c-0.1,0.5,0.3,1,0.8,1c0.4,0,0.8-0.3,0.8-0.7l2.2-12.5
		C65.6,17.2,66.3,15.8,66.9,14.5"/>
	<path class="st1" d="M88.3,21h-8.2c-0.5,0-1,0.4-1.1,0.9l-1.7,8.8c-0.1,0.5,0.3,1,0.8,1c0.4,0,0.8-0.3,0.8-0.7l0.5-2.5h6.9
		l-0.1,0.7c-0.1,0.4-0.3,0.6-0.7,0.6l-0.5,0c-0.6,0-1.1,0.4-1,1c0,0.5,0.5,0.9,1,0.9h0.8c1.2,0,2-0.7,2.2-2l1.3-7.3
		C89.5,21.6,89,21,88.3,21 M86.8,26.7h-6.9l0.2-1.1H87L86.8,26.7z M87.3,23.9h-6.9l0.2-1.1h6.9L87.3,23.9z"/>
	<path class="st1" d="M91.9,14.6h-5.4c0-0.2,0-0.4,0-0.6c0-0.6-0.6-1-1.2-0.9c-0.5,0.1-0.9,0.6-0.8,1.2c0,0.1,0,0.2,0.1,0.3h-5.7
		c-0.5,0-0.9,0.3-1,0.8c-0.1,0.6,0.4,1.2,1,1.2h2.6c-0.8,0.7-1.5,1.2-2,1.6c-0.1,0-0.1,0.1-0.2,0.1c-0.4,0.2-0.6,0.5-0.6,0.9l0,0
		c0,0.5,0.5,1,1,0.9c3.9-0.2,7.2-0.4,9.8-0.6c0.1,0.2,0.2,0.4,0.3,0.5c0.3,0.5,1,0.6,1.5,0.3c0.4-0.3,0.5-0.9,0.2-1.4
		c-0.5-0.7-1.1-1.5-1.9-2.4h2.4c0.5,0,0.9-0.3,1-0.8C93,15.2,92.5,14.6,91.9,14.6 M88.1,17.8c0.1,0.1,0.1,0.2,0.2,0.3
		c-2,0.1-4.3,0.3-7,0.4c0.7-0.5,1.5-1.1,2.4-1.9h4.6C87.9,16.9,87.8,17.4,88.1,17.8"/>
	<path class="st0" d="M43.7,35.9h-3.8c-0.3,0-0.5,0.2-0.6,0.5l0,0c-0.1,0.4,0.2,0.8,0.6,0.8h2.7l-4.5,5.2C38,42.5,38,42.6,38,42.7
		c-0.1,0.5,0.3,0.9,0.7,0.9h4.2c0.3,0,0.5-0.2,0.6-0.4c0.1-0.4-0.2-0.8-0.6-0.8h-3l4.4-5.1c0.1-0.1,0.2-0.2,0.2-0.4
		C44.7,36.4,44.3,35.9,43.7,35.9"/>
	<path class="st0" d="M51.5,37.8c0-1-0.7-1.9-2.4-1.9h-1.7c-0.4,0-0.7,0.3-0.8,0.7l-1.3,6.1c-0.1,0.5,0.3,1,0.8,1h2.2
		c1.8,0,2.9-1.1,2.9-2.5c0-0.9-0.6-1.4-1-1.6C50.9,39.3,51.5,38.7,51.5,37.8 M48,42.5h-1.2l0.5-2.4h1c0.9,0,1.3,0.3,1.3,1.1
		C49.6,42,48.9,42.5,48,42.5 M48.6,39h-1.1l0.4-1.9h0.9c0.6,0,1.1,0.2,1.1,0.8C49.9,38.6,49.5,39,48.6,39"/>
	<path class="st0" d="M56.9,35.8c-2.9,0-4,3-4,4.8c0,1.8,0.9,3.1,2.9,3.1c2.9,0,4-2.7,4-4.9C59.8,37.2,58.9,35.8,56.9,35.8
		 M55.9,42.5c-0.9,0-1.5-0.6-1.5-1.8c0-1.5,0.7-3.7,2.3-3.7c1,0,1.5,0.7,1.5,1.8C58.2,40.3,57.6,42.5,55.9,42.5"/>
	<path class="st0" d="M61.4,41.8c-0.3,0-0.6,0.2-0.7,0.6l-0.1,0.4c-0.1,0.4,0.2,0.9,0.7,0.9c0.3,0,0.6-0.2,0.7-0.6l0.1-0.4
		C62.1,42.3,61.8,41.8,61.4,41.8"/>
	<path class="st0" d="M67.6,35.8c-2.8,0-4,2.9-4,4.9c0,1.8,0.9,3,2.8,3c1.4,0,2.3-0.5,2.8-1.3c0.3-0.5,0-1.1-0.6-1.1
		c-0.2,0-0.5,0.1-0.6,0.3c-0.3,0.5-0.7,0.8-1.5,0.8c-1,0-1.4-0.7-1.4-2c0-1.5,0.7-3.6,2.2-3.6c0.8,0,1.1,0.4,1.2,0.8
		c0.1,0.3,0.4,0.5,0.7,0.5h0.1c0.5,0,0.8-0.4,0.7-0.9C69.8,36.5,69.1,35.8,67.6,35.8"/>
	<path class="st0" d="M75.4,35.8c-2.9,0-4,3-4,4.8c0,1.8,0.9,3.1,2.9,3.1c2.9,0,4-2.7,4-4.9C78.3,37.2,77.4,35.8,75.4,35.8
		 M74.4,42.5c-0.9,0-1.5-0.6-1.5-1.8c0-1.5,0.7-3.7,2.3-3.7c1,0,1.5,0.7,1.5,1.8C76.7,40.3,76.1,42.5,74.4,42.5"/>
	<path class="st0" d="M87.1,35.9c-0.5,0-0.9,0.3-1.1,0.7c-0.9,1.8-2.1,4.1-2.4,5h0c0-0.9-0.1-2.8-0.2-4.5c0-0.7-0.6-1.2-1.2-1.2H82
		c-0.6,0-1.1,0.4-1.2,1l-1.3,5.9c-0.1,0.4,0.2,0.8,0.7,0.8c0.3,0,0.6-0.2,0.7-0.5c0,0,1-4.4,1.1-5.3c0,0,0.2,3.1,0.3,5.2
		c0,0.4,0.3,0.7,0.7,0.7h0.4c0.3,0,0.5-0.1,0.6-0.4c1-2.1,1.8-3.6,2.6-5.2l-0.9,4.8c-0.1,0.4,0.2,0.8,0.7,0.8h0.1
		c0.3,0,0.6-0.2,0.7-0.5l1.2-5.7C88.4,36.6,87.8,35.9,87.1,35.9"/>
</g>
</svg>
