<svg xmlns="http://www.w3.org/2000/svg" xmlns:xlink="http://www.w3.org/1999/xlink" width="27" height="27" viewBox="0 0 27 27">
  <defs>
    <clipPath id="clip-path">
      <rect id="Rectangle_1744" data-name="Rectangle 1744" width="27" height="27" transform="translate(1558.69 2249.689)" fill="none" stroke="#707070" stroke-width="1"/>
    </clipPath>
    <linearGradient id="linear-gradient" x1="0.5" x2="0.5" y2="1" gradientUnits="objectBoundingBox">
      <stop offset="0" stop-color="#ff840c"/>
      <stop offset="1" stop-color="#ffcd00"/>
    </linearGradient>
    <linearGradient id="linear-gradient-2" y1="0.5" x2="1" y2="0.5" gradientUnits="objectBoundingBox">
      <stop offset="0" stop-color="#fff" stop-opacity="0.2"/>
      <stop offset="0.087" stop-color="#fff" stop-opacity="0.361"/>
      <stop offset="0.193" stop-color="#fff" stop-opacity="0.529"/>
      <stop offset="0.304" stop-color="#fff" stop-opacity="0.675"/>
      <stop offset="0.42" stop-color="#fff" stop-opacity="0.792"/>
      <stop offset="0.542" stop-color="#fff" stop-opacity="0.886"/>
      <stop offset="0.671" stop-color="#fff" stop-opacity="0.949"/>
      <stop offset="0.815" stop-color="#fff" stop-opacity="0.988"/>
      <stop offset="1" stop-color="#fff"/>
    </linearGradient>
  </defs>
  <g id="withdraw" transform="translate(-1558.69 -2249.689)" clip-path="url(#clip-path)">
    <g id="Group_2709" data-name="Group 2709">
      <g id="Rectangle_1742" data-name="Rectangle 1742" transform="translate(1559.69 2252.689)" fill="#fff" stroke="#ff850b" stroke-width="2">
        <rect width="25" height="7" rx="2" stroke="none"/>
        <rect x="1" y="1" width="23" height="5" rx="1" fill="none"/>
      </g>
      <g id="Group_2708" data-name="Group 2708" transform="translate(1563.596 2255.522)">
        <g id="Rectangle_1743" data-name="Rectangle 1743" transform="translate(0.094 0.167)" stroke="#fff" stroke-width="1" fill="url(#linear-gradient)">
          <path d="M0,0H17a0,0,0,0,1,0,0V16a2,2,0,0,1-2,2H2a2,2,0,0,1-2-2V0A0,0,0,0,1,0,0Z" stroke="none"/>
          <path d="M0-.5H17a.5.5,0,0,1,.5.5V16A2.5,2.5,0,0,1,15,18.5H2A2.5,2.5,0,0,1-.5,16V0A.5.5,0,0,1,0-.5Z" fill="none"/>
        </g>
        <path id="Path_9336" data-name="Path 9336" d="M8.121,7.686V5.8H4.5A4.5,4.5,0,0,1,0,1.305V.435a.435.435,0,0,1,.87,0A3.049,3.049,0,0,0,3.916,3.48H8.121V1.595a.435.435,0,0,1,.735-.315l3.191,3.045a.435.435,0,0,1,0,.63L8.856,8A.435.435,0,0,1,8.121,7.686Z" transform="translate(12.887 2.968) rotate(90)" fill="url(#linear-gradient-2)"/>
      </g>
    </g>
  </g>
</svg>
