<?xml version="1.0" encoding="utf-8"?>
<!-- Generator: Adobe Illustrator 23.1.0, SVG Export Plug-In . SVG Version: 6.00 Build 0)  -->
<svg version="1.1" id="Layer_1" xmlns="http://www.w3.org/2000/svg" xmlns:xlink="http://www.w3.org/1999/xlink" x="0px" y="0px"
	 viewBox="0 0 598.9 241" style="enable-background:new 0 0 598.9 241;" xml:space="preserve">
<style type="text/css">
	.st0{fill:#FFFFFF;}
</style>
<g>
	<path class="st0" d="M101,55.9c3.3-11.1,7.4-19.8,11.8-26.5c19.5-2.5,35.7-3,35.7-3c-9.1-4.2-17.7-7.2-25.7-9.3
		C132.5,7.8,141,5.9,141,5.9c-15.8,0-29.4,3-40.7,7.4c-17.1-1.4-27.8,1.1-27.8,1.1c1.6,3.8,3.4,7.4,5.2,10.7
		C63.9,34.6,57,43.9,57,43.9c7-3.9,16.3-7,26.3-9.4C92.3,48.2,101,55.9,101,55.9z"/>
	<path class="st0" d="M178.4,51.6c-7.6,13.3-17.9,22.8-17.9,22.8c12.1-4.1,22.8-5.4,31.9-5.3c12.5,17.4,20.1,32.3,20.1,32.3
		s1.5-10.7-2.8-30.1c8.8,2.2,13.8,5.1,13.8,5.1c-5.6-12-13.1-21.1-21.1-28c-7.1-15.5-15.9-23-15.9-23c0,3.9-0.6,7.7-1.7,11.4
		c-17.7-8.8-33.3-9.4-33.3-9.4C161.3,33.9,170.4,42.5,178.4,51.6z"/>
	<path class="st0" d="M217,135c-0.3-17.7-4.5-29.6-4.5-29.6c-3.8,11.9-8.8,23.5-14.1,33.9c-17,1.8-33.9,1.1-33.9,1.1
		c8.2,8.8,15.5,15.7,21.6,21c-8.2,13.4-14.6,22-14.6,22s13-2.6,27-12c7.1,5.2,11,7,11,7c3.1-8,5-15.7,6.1-23
		c11.3-14.9,14.9-32,14.9-32S227,130.3,217,135z"/>
	<path class="st0" d="M196,194.7L196,194.7l-2.2,1.2c-3.7,1.9-12.1,5.8-24.3,8.6v-19.1c-6.7,9.3-13.6,16.5-20.1,22
		c-8.1,0.5-17.1,0.3-26.9-1c0,0,5.8,6.8,13.8,10.6c-9.3,5.7-15.8,7.4-15.8,7.4c49-1,76-30,76-30L196,194.7L196,194.7z"/>
	<path class="st0" d="M119.5,205.4c0,0-10-5-23-12.5c0-8.8,1.1-19.1,4-30.5c0,0-9.6,10.2-24.1,18.3c-9.5-6.1-18.8-12.8-25.9-19.3
		c0,0,2.4,11.7,11.4,25.8c-7,2.3-14.6,3.7-22.4,3.2c0,0,8.3,9.6,36.8,14.5c6.4,6.3,14.4,12.4,24.2,17.5c0,0-2.1-5.8-3.2-15.7
		C109.9,206.9,119.5,205.4,119.5,205.4z"/>
	<path class="st0" d="M118.6,86.1c-11.9-17-17.1-27.7-17.1-27.7c-4.2,12.6-6.3,25-7.1,36.6c-17.7,7.1-30.9,13.4-30.9,13.4
		c9.8,4.8,20.4,8.9,31,12.4c1.7,22.3,7,37.6,7,37.6c4.8-8.3,11.7-19,19.2-29.8c22.9,6,40.8,8.8,40.8,8.8
		c-10.2-10.4-18.9-20.3-26.3-29.4c12.6-17.5,23.3-31.6,23.3-31.6C146.5,77.7,132.3,81.5,118.6,86.1z"/>
	<path class="st0" d="M38.2,132.4c10.7-13.5,22.3-23,22.3-23c-11.3,0-20.2,0.7-27,1.7c-2-12.4-2-20.7-2-20.7
		c-5.7,8.3-9.5,16.3-11.8,23.9c-9.3,3.3-10.2,7.1-10.2,7.1c2.3,3.8,4.6,7.2,6.9,10.3c-1.4,19.4,5.1,32.7,5.1,32.7
		c1.4-6.4,4.1-12.7,7.6-18.7c10.8,9.8,19.4,12.7,19.4,12.7C44,149.7,40.7,140.8,38.2,132.4z"/>
	<path class="st0" d="M31.5,87.4c0,0,0.3-11.3,3.8-25.4c5.1-4.9,11.1-10.2,18.2-15.6l-14.1,2.2c2.7-7,6.3-14.1,11.1-20.2
		c0,0-36,26-39,65c0,0,3-7.2,11.7-18.1C24.6,78.3,27.1,82.5,31.5,87.4z"/>
	<path class="st0" d="M278.8,211.7c-1.2-0.8-2.6-1.6-4.3-2.2s-3.6-1.1-5.7-1.6c-1.7-0.4-2.9-0.7-3.6-1c-0.7-0.2-1.4-0.5-2.2-0.9
		s-1.3-0.9-1.7-1.4s-0.6-1.2-0.6-1.9c0-1.2,0.6-2.2,1.8-3.1s2.8-1.3,4.7-1.3c2.1,0,3.6,0.4,4.6,1.2c0.9,0.8,1.8,1.9,2.4,3.3
		c0.5,1,1,1.7,1.5,2.1c0.4,0.4,1.1,0.6,2,0.6s1.7-0.4,2.4-1.1s1-1.5,1-2.4c0-1-0.3-2-0.8-3s-1.3-2-2.4-3c-1.1-0.9-2.5-1.7-4.2-2.3
		s-3.6-0.9-5.9-0.9c-2.9,0-5.3,0.4-7.5,1.3c-2.1,0.9-3.7,2.1-4.8,3.7s-1.7,3.4-1.7,5.5s0.5,3.9,1.6,5.4c1.1,1.4,2.5,2.6,4.3,3.4
		s4,1.6,6.7,2.2c2,0.5,3.6,0.9,4.8,1.3s2.2,1,2.9,1.8c0.8,0.8,1.1,1.8,1.1,3c0,1.6-0.7,2.9-2.1,3.9s-3.2,1.6-5.4,1.6
		c-1.6,0-2.9-0.3-3.9-0.8s-1.8-1.2-2.3-2c-0.6-0.8-1.1-1.8-1.5-3c-0.4-1-0.9-1.8-1.4-2.3c-0.6-0.5-1.2-0.8-2-0.8c-1,0-1.8,0.3-2.4,1
		s-1,1.4-1,2.3c0,1.6,0.5,3.2,1.6,4.9s2.4,3,4.1,4c2.4,1.4,5.4,2.1,9.1,2.1c3.1,0,5.7-0.5,7.9-1.5s3.9-2.4,5.1-4.2s1.7-3.8,1.7-6.1
		c0-1.9-0.3-3.5-1-4.8C280.9,213.6,280,212.6,278.8,211.7z"/>
	<path class="st0" d="M310.7,207.2c-1.2-1.3-2.7-2.2-4.4-2.9c-1.7-0.7-3.6-1-5.7-1s-4,0.3-5.7,1s-3.2,1.6-4.4,2.9
		c-1.2,1.2-2.1,2.7-2.8,4.5c-0.6,1.7-1,3.7-1,5.8s0.3,4,1,5.7s1.6,3.2,2.8,4.5c1.2,1.3,2.7,2.2,4.4,2.9s3.6,1,5.7,1s4-0.3,5.7-1
		s3.1-1.6,4.4-2.9s2.2-2.8,2.8-4.5c0.6-1.7,1-3.6,1-5.7c0-2.1-0.3-4-1-5.7S311.9,208.5,310.7,207.2z M305.6,224
		c-1.2,1.6-2.9,2.4-5,2.4c-1.4,0-2.6-0.4-3.6-1.1c-1-0.7-1.8-1.8-2.4-3.1c-0.6-1.4-0.8-2.9-0.8-4.7s0.3-3.4,0.8-4.8s1.4-2.4,2.4-3.1
		c1-0.7,2.2-1.1,3.6-1.1c2.1,0,3.8,0.8,5,2.4s1.9,3.8,1.9,6.6C307.5,220.2,306.9,222.4,305.6,224z"/>
	<path class="st0" d="M341.8,219.9c-0.7,0-1.3,0.2-1.8,0.7c-0.5,0.4-0.9,1-1.4,1.8c-0.8,1.3-1.6,2.3-2.6,2.9s-2.2,1-3.6,1
		c-1,0-2-0.2-2.8-0.6s-1.6-1-2.2-1.8s-1.1-1.7-1.4-2.8s-0.5-2.3-0.5-3.6c0-2.8,0.6-5,1.9-6.6s2.9-2.4,5-2.4c1.4,0,2.6,0.3,3.5,1
		c0.9,0.6,1.8,1.6,2.7,2.9c0.5,0.7,0.9,1.1,1.3,1.4s0.9,0.4,1.4,0.4c0.9,0,1.6-0.3,2.2-0.9c0.6-0.6,0.9-1.3,0.9-2.1
		s-0.3-1.7-0.8-2.6c-0.6-0.9-1.3-1.8-2.4-2.7s-2.3-1.5-3.8-2s-3.1-0.8-4.9-0.8c-2.9,0-5.4,0.6-7.5,1.8s-3.7,2.9-4.8,5.1
		c-1.1,2.2-1.7,4.7-1.7,7.5c0,4.2,1.2,7.5,3.6,10s5.7,3.7,10,3.7c2,0,3.8-0.3,5.4-0.8s2.9-1.3,4-2.1c1.1-0.9,1.8-1.8,2.4-2.8
		c0.5-1,0.8-1.9,0.8-2.8c0-0.7-0.3-1.4-0.8-2.1S342.7,219.9,341.8,219.9z"/>
	<path class="st0" d="M372.7,219.9c-0.7,0-1.3,0.2-1.8,0.7c-0.5,0.4-0.9,1-1.4,1.8c-0.8,1.3-1.6,2.3-2.6,2.9s-2.2,1-3.6,1
		c-1,0-2-0.2-2.8-0.6s-1.6-1-2.2-1.8s-1.1-1.7-1.4-2.8s-0.5-2.3-0.5-3.6c0-2.8,0.6-5,1.9-6.6s2.9-2.4,5-2.4c1.4,0,2.6,0.3,3.5,1
		c0.9,0.6,1.8,1.6,2.7,2.9c0.5,0.7,0.9,1.1,1.3,1.4s0.9,0.4,1.4,0.4c0.9,0,1.6-0.3,2.2-0.9c0.6-0.6,0.9-1.3,0.9-2.1
		s-0.3-1.7-0.8-2.6c-0.6-0.9-1.3-1.8-2.4-2.7s-2.3-1.5-3.8-2s-3.1-0.8-4.9-0.8c-2.9,0-5.4,0.6-7.5,1.8s-3.7,2.9-4.8,5.1
		c-1.1,2.2-1.7,4.7-1.7,7.5c0,4.2,1.2,7.5,3.6,10s5.7,3.7,10,3.7c2,0,3.8-0.3,5.4-0.8s2.9-1.3,4-2.1c1.1-0.9,1.8-1.8,2.4-2.8
		c0.5-1,0.8-1.9,0.8-2.8c0-0.7-0.3-1.4-0.8-2.1S373.6,219.9,372.7,219.9z"/>
	<path class="st0" d="M405.3,218.3c1-0.5,1.5-1.6,1.5-3.4c0-1.9-0.5-3.7-1.4-5.5s-2.4-3.3-4.4-4.4c-1.9-1.1-4.3-1.7-7-1.7
		c-2.1,0-4,0.3-5.7,1s-3.1,1.6-4.3,2.9s-2.1,2.8-2.7,4.5s-0.9,3.7-0.9,5.7c0,4.4,1.2,7.8,3.7,10.3s5.9,3.8,10.4,3.8
		c1.9,0,3.7-0.3,5.2-0.8s2.7-1.1,3.7-1.9s1.7-1.6,2.2-2.4c0.5-0.8,0.7-1.6,0.7-2.2c0-0.7-0.2-1.3-0.7-1.7c-0.4-0.4-1-0.6-1.7-0.6
		s-1.2,0.2-1.5,0.5c-0.9,0.8-1.6,1.5-2.1,1.9c-0.5,0.5-1.1,0.9-1.8,1.3c-0.6,0.4-1.3,0.7-2,0.9s-1.4,0.3-2.3,0.3
		c-1.2,0-2.4-0.3-3.4-0.9c-1-0.6-1.8-1.5-2.5-2.7c-0.6-1.2-0.9-2.6-1-4.2h13.6C402.9,219.1,404.3,218.9,405.3,218.3z M387.5,215.2
		c0.2-2.3,0.9-4.1,2-5.3s2.5-1.8,4.3-1.8s3.3,0.6,4.4,1.8s1.7,2.9,1.9,5.3H387.5z"/>
	<path class="st0" d="M429.6,204.4c-1.4-0.7-2.8-1.1-4.2-1.1c-1.5,0-2.6,0.4-3.5,1.1c-0.9,0.7-1.7,1.8-2.6,3.2
		c-0.1-1.4-0.3-2.5-0.8-3.2s-1.3-1.1-2.5-1.1c-2.3,0-3.4,1.6-3.4,4.7v19.3c0,1.4,0.3,2.4,1,3.1c0.6,0.7,1.5,1.1,2.5,1.1
		s1.9-0.4,2.5-1.1s1-1.8,1-3.2v-5.8c0-2.1,0.1-3.8,0.2-5.3c0.1-1.4,0.4-2.7,0.7-3.7s0.9-1.8,1.5-2.4c0.6-0.5,1.5-0.8,2.5-0.8
		c0.7,0,1.6,0.2,2.6,0.5s1.6,0.5,1.8,0.5c0.7,0,1.3-0.3,1.9-0.8s0.9-1.2,0.9-2.1C431.6,206.1,430.9,205.1,429.6,204.4z"/>
	<path class="st0" d="M489.1,193c-1,0-1.7,0.3-2.2,0.8s-0.9,1.1-1.1,1.7c-0.2,0.6-0.4,1.5-0.7,2.7l-4.9,21.7l-5.5-20.3
		c-0.5-1.7-0.8-2.9-1.1-3.6c-0.3-0.7-0.8-1.4-1.5-2s-1.7-0.9-3-0.9s-2.2,0.3-3,0.9c-0.7,0.6-1.3,1.3-1.6,2.1c-0.3,0.8-0.7,2-1.1,3.6
		l-5.5,20.3l-4.9-21.7c-0.4-1.7-0.8-3-1.2-3.8c-0.5-0.9-1.4-1.3-2.8-1.3c-1,0-1.8,0.3-2.5,1s-1,1.5-1,2.4c0,0.8,0.2,1.9,0.6,3.3
		l6.2,25.1c0.2,0.7,0.4,1.6,0.6,2.4c0.2,0.9,0.5,1.6,0.9,2.3c0.4,0.6,0.9,1.1,1.5,1.5c0.6,0.3,1.4,0.5,2.3,0.5
		c1.2,0,2.1-0.3,2.8-0.9c0.7-0.6,1.2-1.2,1.5-2s0.7-2,1.1-3.6l6.1-22.3l6,22.3c0.5,1.7,0.9,3,1.1,3.7c0.3,0.7,0.8,1.4,1.4,1.9
		c0.7,0.6,1.6,0.9,2.8,0.9c1.2,0,2.2-0.3,2.8-0.9c0.7-0.6,1.1-1.3,1.4-2.1s0.6-2,1.1-3.7l6.2-25.1c0.4-1.5,0.6-2.6,0.6-3.3
		c0-1-0.3-1.8-1-2.5S490.1,193,489.1,193z"/>
	<path class="st0" d="M519.4,207.2c-1.2-1.3-2.7-2.2-4.4-2.9s-3.6-1-5.7-1s-4,0.3-5.7,1s-3.2,1.6-4.4,2.9s-2.1,2.7-2.8,4.5
		s-1,3.7-1,5.8s0.3,4,1,5.7s1.6,3.2,2.8,4.5s2.7,2.2,4.4,2.9s3.6,1,5.7,1s4-0.3,5.7-1s3.1-1.6,4.4-2.9s2.1-2.8,2.8-4.5s1-3.6,1-5.7
		c0-2.1-0.3-4-1-5.7S520.6,208.5,519.4,207.2z M514.3,224c-1.2,1.6-2.9,2.4-5,2.4c-1.4,0-2.6-0.4-3.6-1.1s-1.8-1.8-2.4-3.1
		s-0.8-2.9-0.8-4.7s0.3-3.4,0.8-4.8s1.4-2.4,2.4-3.1s2.2-1.1,3.6-1.1c2.1,0,3.8,0.8,5,2.4s1.9,3.8,1.9,6.6
		C516.2,220.2,515.5,222.4,514.3,224z"/>
	<path class="st0" d="M545.5,204.4c-1.4-0.7-2.8-1.1-4.2-1.1s-2.6,0.4-3.5,1.1s-1.7,1.8-2.6,3.2c-0.1-1.4-0.3-2.5-0.8-3.2
		s-1.3-1.1-2.5-1.1c-2.3,0-3.4,1.6-3.4,4.7v19.3c0,1.4,0.3,2.4,1,3.1s1.5,1.1,2.5,1.1s1.9-0.4,2.5-1.1s1-1.8,1-3.2v-5.8
		c0-2.1,0.1-3.8,0.2-5.3s0.4-2.7,0.7-3.7s0.9-1.8,1.5-2.4s1.5-0.8,2.5-0.8c0.7,0,1.6,0.2,2.6,0.5s1.6,0.5,1.8,0.5
		c0.7,0,1.3-0.3,1.9-0.8s0.9-1.2,0.9-2.1C547.6,206.1,546.9,205.1,545.5,204.4z"/>
	<path class="st0" d="M554.8,193c-1,0-1.9,0.4-2.5,1.1s-0.9,1.8-0.9,3.1v30.1c0,1.4,0.3,2.4,1,3.1s1.5,1.1,2.5,1.1s1.9-0.4,2.5-1.1
		s1-1.8,1-3.2v-30.1c0-1.4-0.3-2.5-1-3.2S555.8,193,554.8,193z"/>
	<path class="st0" d="M587.7,193c-1,0-1.9,0.4-2.4,1.1s-0.9,1.8-0.9,3.2v10.2c-1.3-1.4-2.6-2.5-4-3.2s-3.1-1-5.1-1
		c-3.5,0-6.2,1.2-8.4,3.6s-3.2,5.8-3.2,10.1c0,2,0.3,4,0.8,5.7s1.3,3.3,2.3,4.6s2.3,2.3,3.7,3s2.9,1.1,4.6,1.1
		c1.3,0,2.4-0.2,3.5-0.5s2-0.9,2.9-1.5s1.8-1.5,2.8-2.6v0.7c0,1.3,0.3,2.2,0.9,2.9s1.4,1,2.3,1c1,0,1.8-0.3,2.4-1s0.9-1.7,0.9-3V197
		c0-1.3-0.3-2.3-0.9-3S588.8,193,587.7,193z M583.2,222.3c-0.6,1.3-1.4,2.3-2.4,2.9s-2.1,1-3.3,1s-2.3-0.3-3.3-1s-1.8-1.7-2.4-3
		s-0.9-2.9-0.9-4.8c0-1.8,0.3-3.3,0.8-4.7s1.3-2.4,2.3-3.1s2.1-1.1,3.4-1.1c1.2,0,2.3,0.4,3.4,1.1s1.8,1.7,2.4,3s0.9,2.9,0.9,4.8
		C584.1,219.3,583.8,221,583.2,222.3z"/>
	<path class="st0" d="M395.7,35.2h-59.5V14.5c0-3.2-2.6-5.9-5.9-5.9H310c-3.2,0-5.9,2.6-5.9,5.9v20.7h-38.9
		c-6.8,0-12.3,5.5-12.3,12.3v70.4c0,6.8,5.5,12.3,12.3,12.3h38.9v32.5c0,3.2,2.6,5.9,5.9,5.9h20.3c3.2,0,5.9-2.6,5.9-5.9v-32.5h55.6
		c8.9,0,16.2-7.2,16.2-16.2V47.5C407.9,40.7,402.4,35.2,395.7,35.2z M304.1,95.5c0,3.2-2.6,5.9-5.9,5.9h-27.4
		c-3.2,0-5.9-2.6-5.9-5.9V53.6c0-3.2,2.6-5.9,5.9-5.9h27.4c3.2,0,5.9,2.6,5.9,5.9V95.5z M375.3,95.5c0,3.2-2.6,5.9-5.9,5.9H342
		c-3.2,0-5.9-2.6-5.9-5.9V53.6c0-3.2,2.6-5.9,5.9-5.9h27.4c3.2,0,5.9,2.6,5.9,5.9V95.5z"/>
	<path class="st0" d="M438.1,134h4.2c1.6,0,2.8-1.3,2.6-2.9l-2.9-27.9c-0.2-1.6-1.6-2.9-3.2-2.9h-4.2c-1.6,0-2.8,1.3-2.6,2.9
		l2.9,27.9C435,132.7,436.5,134,438.1,134z"/>
	<path class="st0" d="M493.1,100.2h-4.2c-1.6,0-3.1,1.3-3.3,2.9l-3.1,22.4c-0.2,1.6,0.9,2.9,2.5,2.9h4.2c1.6,0,3.1-1.3,3.3-2.9
		l3.1-22.4C495.8,101.5,494.7,100.2,493.1,100.2z"/>
	<path class="st0" d="M491,133.3l-14.5,1.9V93.5h15.9c1.6,0,2.9-1.3,2.9-2.9v-6.8c0-1.6-1.3-2.9-2.9-2.9h-15.9v-17h10.7
		c1,0,1.8-0.8,1.8-1.8v-5.2h9.5c1.3,0,2.2-1.3,1.8-2.5L490,23c-2.4-7.1-9-11.9-16.5-11.9h-19.9c-4.2,0-8,2.5-9.6,6.4l-14.6,35.6
		c-0.6,1.5,0.5,3.2,2.1,3.2h6.9V62c0,1,0.8,1.8,1.8,1.8h9.9V81h-15.9c-1.6,0-2.9,1.3-2.9,2.9v6.8c0,1.6,1.3,2.9,2.9,2.9h15.9v45.2
		l-14.5,1.9c-2.4,0.3-4.3,2.5-4.3,4.9v19.7c0,2.4,1.9,4.1,4.3,3.7l55.3-7.2c2.4-0.3,4.3-2.5,4.3-4.9v-19.7
		C495.3,134.7,493.4,133,491,133.3z M442.4,52.2l10.4-25.3c0.9-2.1,2.9-3.4,5.1-3.4h1.8c2.4,0,4.5,1.5,5.2,3.8l8.4,24.9H442.4z"/>
	<path class="st0" d="M508.2,169H533c3.2,0,5.9-2.6,5.9-5.9v-18.4c0-3.2-2.6-5.9-5.9-5.9h-17.3V89.5h58.8c7.1,0,12.9-5.8,12.9-12.9
		V23.3c0-7.1-5.8-12.9-12.9-12.9h-59.2c-7.1,0-12.9,5.8-12.9,12.9v46.4v6.8v68.1V161v2C502.3,166.3,505,169,508.2,169z M515.7,26.9
		c0-1.5,1.3-2.8,2.8-2.8h34.4c1.5,0,2.8,1.3,2.8,2.8V41c0,1.5-1.3,2.8-2.8,2.8h-34.4c-1.5,0-2.8-1.3-2.8-2.8V26.9z M515.7,59.2
		c0-1.5,1.3-2.8,2.8-2.8h34.4c1.5,0,2.8,1.3,2.8,2.8v14.1c0,1.5-1.3,2.8-2.8,2.8h-34.4c-1.5,0-2.8-1.3-2.8-2.8V59.2z"/>
	<path class="st0" d="M591.2,167.1l-18.9-35l18.5-38.3c0.6-1.1,0.2-1.9-0.8-1.9h-10.7c-1.1,0-2.4,0.9-3,1.9L564,116.7l-9.2-17.1
		c-0.6-1.2-2.1-2.1-3.3-2.1h-28.6c-1.2,0-1.6,0.9-0.9,2.1l36.4,67.5c0.6,1.2,2.1,2.1,3.3,2.1h28.6
		C591.4,169.2,591.8,168.3,591.2,167.1z"/>
</g>
</svg>
