<?xml version="1.0" encoding="utf-8"?>
<!-- Generator: Adobe Illustrator 24.3.0, SVG Export Plug-In . SVG Version: 6.00 Build 0)  -->
<svg version="1.1" id="Layer_1" xmlns="http://www.w3.org/2000/svg" xmlns:xlink="http://www.w3.org/1999/xlink" x="0px" y="0px"
	 viewBox="0 0 112.8 52" style="enable-background:new 0 0 112.8 52;" xml:space="preserve">
<style type="text/css">
	.st0{fill:#F18F1D;}
	.st1{fill:#FFFFFF;}
</style>
<g transform="translate(0.007)">
	<path class="st0" d="M9.2,39c-1.1,0-2.3-0.2-3.3-0.6c-1.1-0.4-2.1-0.9-2.9-1.6c-0.9-0.7-1.6-1.5-2.1-2.5C0.3,33.4,0,32.3,0,31
		c0-1.3,0.3-2.6,1-3.8c0.6-1.1,1.6-2,2.9-2.5c-0.8-0.6-1.4-1.3-1.8-2c-0.4-0.7-0.6-1.6-0.6-2.7c0-1,0.2-2,0.6-2.9
		c0.4-0.8,1-1.6,1.7-2.2c0.7-0.6,1.5-1.1,2.4-1.4c0.9-0.3,1.9-0.5,2.9-0.5c1,0,1.9,0.2,2.9,0.5c0.9,0.3,1.7,0.8,2.5,1.4
		c0.7,0.6,1.3,1.3,1.7,2.2c0.4,0.9,0.6,1.9,0.6,2.9c0,1.1-0.2,2-0.6,2.7c-0.5,0.8-1.1,1.5-1.8,2.1c1.3,0.6,2.3,1.4,2.9,2.5
		c0.6,1.1,1,2.4,1,3.8c0,1.2-0.3,2.3-0.8,3.3c-0.5,1-1.2,1.8-2.1,2.5c-0.9,0.7-1.8,1.2-2.9,1.6C11.4,38.8,10.3,39,9.2,39z M9.1,27.7
		c-0.8,0-1.5,0.3-2,0.8s-0.8,1.2-0.8,2s0.3,1.5,0.8,2c0.5,0.6,1.2,0.8,2,0.8c0.4,0,0.7-0.1,1-0.2c0.3-0.2,0.6-0.4,0.8-0.6
		c0.2-0.3,0.4-0.6,0.6-0.9c0.1-0.3,0.2-0.7,0.2-1.1c0-0.7-0.3-1.5-0.8-2C10.5,28,9.8,27.6,9.1,27.7z M9.2,18.2
		c-0.6,0-1.3,0.2-1.7,0.7c-0.4,0.4-0.7,1-0.7,1.6c0,0.7,0.2,1.2,0.6,1.6c0.4,0.4,1,0.7,1.6,0.6c0.6,0,1.3-0.2,1.7-0.7
		c0.4-0.4,0.7-1,0.7-1.7c0-0.6-0.2-1.2-0.7-1.6C10.3,18.4,9.7,18.2,9.2,18.2z"/>
	<path class="st0" d="M28.7,39c-1.1,0-2.3-0.2-3.3-0.6c-1.1-0.4-2.1-0.9-2.9-1.6c-0.9-0.7-1.6-1.5-2.1-2.5c-0.5-1-0.8-2.1-0.8-3.3
		c0-1.3,0.3-2.6,1-3.8c0.6-1.1,1.6-2,2.9-2.5c-0.8-0.6-1.4-1.3-1.8-2C21.2,22,21,21.1,21,20.1c0-2,0.8-3.8,2.3-5.1
		c0.7-0.6,1.5-1.1,2.4-1.4c0.9-0.3,1.9-0.5,2.9-0.5c1,0,1.9,0.2,2.9,0.5c0.9,0.3,1.7,0.8,2.5,1.4c1.5,1.3,2.4,3.1,2.3,5.1
		c0,1.1-0.2,2-0.6,2.7c-0.5,0.8-1.1,1.5-1.8,2.1c1.3,0.6,2.3,1.4,2.9,2.5c0.6,1.1,1,2.4,1,3.8c0,1.1-0.3,2.3-0.8,3.3
		c-0.5,1-1.2,1.8-2.1,2.5C34,37.6,33,38.1,32,38.4C30.9,38.8,29.8,39,28.7,39z M28.6,27.7c-0.8,0-1.5,0.3-2,0.8s-0.8,1.2-0.8,2
		c0,0.8,0.3,1.5,0.8,2c0.5,0.6,1.2,0.8,2,0.8c0.4,0,0.7-0.1,1-0.2c0.3-0.2,0.6-0.4,0.8-0.6c0.2-0.3,0.4-0.6,0.6-0.9
		c0.1-0.3,0.2-0.7,0.2-1.1c0-0.7-0.3-1.5-0.8-2C30.1,28,29.4,27.6,28.6,27.7z M28.7,18.2c-0.6,0-1.2,0.2-1.7,0.7
		c-0.4,0.4-0.7,1-0.7,1.6c0,0.7,0.2,1.2,0.6,1.6c0.4,0.4,1,0.7,1.6,0.6c0.6,0,1.3-0.2,1.7-0.7c0.4-0.4,0.7-1,0.7-1.7
		c0-0.6-0.2-1.2-0.7-1.6C29.8,18.4,29.3,18.2,28.7,18.2z"/>
	<path class="st0" d="M54.7,21.3c0.9,0.4,1.7,1.1,2.3,1.9c0.6,0.8,1.1,1.8,1.4,2.8c0.3,1.1,0.5,2.2,0.5,3.3c0,1.3-0.2,2.7-0.8,3.9
		c-0.5,1.2-1.2,2.2-2.1,3.1c-0.9,0.9-2,1.6-3.1,2c-1.2,0.5-2.6,0.7-3.9,0.7c-1.4,0-2.7-0.2-4-0.7c-1.2-0.4-2.3-1.1-3.2-2
		c-0.9-0.9-1.6-1.9-2.1-3.1c-0.5-1.2-0.8-2.6-0.8-4.1c0-1.2,0.2-2.4,0.7-3.6c0.4-1.1,1-2.2,1.7-3.2l6.4-9.3h7.5l-9.3,14.9
		c-0.1,0.1-0.1,0.2-0.1,0.3c0,0.1-0.1,0.2-0.1,0.3c-0.1,0.2-0.1,0.5-0.2,0.7c0,0.2-0.1,0.4-0.1,0.6c0,1,0.3,1.8,1,2.5
		c0.6,0.7,1.5,1.1,2.5,1.1c0.5,0,0.9-0.1,1.4-0.3c0.4-0.2,0.8-0.4,1.1-0.7c0.3-0.3,0.6-0.7,0.8-1.1c0.2-0.4,0.3-0.9,0.3-1.4
		c0-1-0.4-1.8-1.1-2.5c-0.7-0.6-1.6-1-2.5-1c-0.4,0-0.7,0.1-1.1,0.2l3.9-5.9C52.7,20.6,53.8,20.9,54.7,21.3z"/>
	<path class="st0" d="M69.4,39c-1.1,0-2.3-0.2-3.3-0.6c-1.1-0.4-2.1-0.9-2.9-1.6c-0.9-0.7-1.6-1.5-2.1-2.5c-0.5-1-0.8-2.2-0.8-3.3
		c0-1.3,0.3-2.6,1-3.8c0.7-1.1,1.6-2,2.9-2.5c-0.8-0.6-1.4-1.3-1.8-2c-0.4-0.7-0.6-1.6-0.6-2.7c0-1,0.2-2,0.6-2.9
		c0.4-0.8,1-1.6,1.7-2.2c0.7-0.6,1.5-1.1,2.4-1.4c0.9-0.3,1.9-0.5,2.9-0.5c1,0,1.9,0.2,2.9,0.5c0.9,0.3,1.7,0.8,2.5,1.4
		c1.5,1.3,2.4,3.1,2.3,5.1c0,1.1-0.2,2-0.6,2.7c-0.5,0.8-1.1,1.5-1.8,2.1c1.3,0.6,2.3,1.4,2.9,2.5c0.6,1.1,1,2.4,1,3.8
		c0,1.1-0.3,2.3-0.8,3.3c-0.5,1-1.2,1.8-2.1,2.5c-0.9,0.7-1.9,1.2-2.9,1.6C71.7,38.8,70.6,39,69.4,39z M69.4,27.7
		c-0.8,0-1.5,0.3-2,0.8s-0.8,1.2-0.8,2s0.3,1.5,0.8,2c0.5,0.6,1.2,0.8,2,0.8c0.4,0,0.7-0.1,1-0.2c0.3-0.2,0.6-0.4,0.9-0.6
		c0.2-0.3,0.4-0.6,0.6-0.9c0.1-0.3,0.2-0.7,0.2-1.1c0-0.7-0.3-1.5-0.8-2C70.8,27.9,70.1,27.6,69.4,27.7z M69.4,18.2
		c-0.6,0-1.3,0.2-1.7,0.7c-0.4,0.4-0.7,1-0.7,1.6c0,0.7,0.2,1.2,0.6,1.6c0.4,0.4,1,0.7,1.6,0.6c0.6,0,1.2-0.2,1.7-0.7
		c0.4-0.4,0.7-1,0.7-1.7c0-0.6-0.2-1.2-0.7-1.6C70.6,18.4,70,18.2,69.4,18.2z"/>
	<path class="st1" d="M85.5,20.7l-0.8,3.9h0.5v11.7h-3.3v-8.3h-1.2l1.4-7.3H85.5z M92.7,20.7v1.8h3.6v1.3h-0.9L96.3,36h-2.4
		l-0.1-1.4h-1.1v1.7h-3.5v-1.7h-1.1L88.1,36h-2.4l0.9-12.2h-0.9v-1.3h3.6v-1.8H92.7z M88.3,33.4h1v-9.6H89L88.3,33.4z M92.7,33.4h1
		L93,23.8h-0.3L92.7,33.4z"/>
	<path class="st1" d="M106.9,20.8v1.1h5.8v1.2H104l-1.4,2.2h5.2c0.1,0,0.2-0.1,0.3-0.2c0.1-0.1,0-0.2,0-0.3l-0.8-1.1h4.1l0.8,1.1
		c0.4,0.5,0.3,1.2-0.2,1.5c-0.2,0.2-0.4,0.2-0.7,0.2H97.6l2.3-3.4h-2.7v-1.2h5.8v-1.1H106.9z M107.6,35c0.3,0,0.5-0.2,0.5-0.5v-0.9
		h-6.1v2.6H98v-8.9h13.9v7.3c0,0.9-0.7,1.6-1.6,1.6h-4.1V35H107.6z M101.9,28.6v1.3h6.1v-1.3H101.9z M101.9,32.4h6.1v-1.3h-6.1V32.4
		z"/>
</g>
</svg>
