<svg xmlns="http://www.w3.org/2000/svg" viewBox="0 0 200 200"><path d="M17.9 2h164.2c8.8 0 15.9 6.9 15.9 15.5v165.1c0 8.5-7.1 15.5-15.9 15.5H17.9C9.1 198 2 191.1 2 182.5v-165C2 8.9 9.1 2 17.9 2z" fill="#15866d"/><path fill="#151515" d="M46 97h104v10H46z"/><path d="M53.6 35v-3.3H73V35c-4.4 7.5-11.2 13.8-20.4 18.9-.6-1.1-1.3-2.2-2.1-3.4 3.4-1.8 6.2-3.5 8.3-5.1l-6.3-6.3 2.3-2.3c2.4 2.2 4.7 4.3 6.7 6.3 2.7-2.4 5-5.1 6.9-8.2l-14.8.1zm-2.1 36.8h16.4c-1.2-1.1-2.9-2.7-5.1-4.7l2.3-2.3c2 1.6 4 3.4 6 5.2l-2 1.9h11.7l-1.7-1.7c2.1-1.9 3.9-3.7 5.6-5.6l3 2.4c-1.5 1.5-3.2 3.1-5.1 4.8h16.7v3.3H51.5v-3.3zM59 51h32.2v15h-3.7v-1.8H62.8V66H59V51zm28.5 3.2H62.8V61h24.8l-.1-6.8zM66.7 43.6h16.6v3.2H66.7v-3.2zM79.1 29c.7 2 1.6 3.9 2.5 5.6 3.6-2 6.7-3.8 9.4-5.7l2.4 3.1c-3.1 1.8-6.4 3.7-9.9 5.6.9 1.3 1.8 2.5 2.9 3.6 3.4-1.9 6.6-3.8 9.5-5.8l2.4 3.1c-2.7 1.7-5.7 3.4-9.1 5.2 3.1 2.4 6.8 4.1 10.9 4.9-.9 1.3-1.8 2.6-2.7 4C87 49 79.8 41.6 75.6 30.4l3.5-1.4zM101 68.2c6.4-2 13.3-4.3 20.8-7.1.3 1.4.5 2.7.7 3.7-6.5 2.2-13.1 4.6-20 7.1l-1.5-3.7zm41.9-15.1l2.8 3.2c-2.8 1.8-6.2 4-10.3 6.4 3.8 3 8.6 5.1 14.3 6.4-1 1.4-1.9 2.7-2.7 4-8.9-2.7-15.4-7.3-19.5-13.8V70c0 3.9-2 5.9-6.1 5.9-1.9 0-4.2 0-6.8-.1-.2-1.2-.4-2.6-.7-4.2 2.3.3 4.4.4 6.3.4 2.3 0 3.5-1 3.5-3.1V51.4h-22v-3.3h36.4v-5.2h-30.3v-3.1h30.3v-5.2h-31.2v-3.3h34.9v16.8h7.6v3.3h-21.9v1.1c1.3 2.9 3.1 5.5 5.2 7.7 3.7-2.4 7.1-4.8 10.2-7.1zm-35.1-.4c3.1 1.9 6.3 3.9 9.5 6.2l-2.4 3.2c-3-2.2-6.1-4.4-9.4-6.5l2.3-2.9zm-54.4 89.1c2.3 1.6 5.2 3.8 8.6 6.6-1.2 1.4-2.2 2.4-2.9 3.2-3.4-3.1-6.2-5.5-8.2-7l2.5-2.8zm4.4 14.1c1.3.6 2.6 1.1 3.9 1.6-1.8 5.7-3.7 12-5.6 18.8l-4.2-1.5c2-5.6 4-11.9 5.9-18.9zm-2.6-26.8c3.2 2.4 6 4.8 8.4 7.1-1.1 1.1-2.1 2.1-2.9 3-1.8-1.9-4.4-4.3-8-7.4l2.5-2.7zm7.8 40.8h16.4V156H66.7v-3.7h12.7v-11.8H65.3v-3.7h15.6c-1.5-2.4-3.1-4.6-4.7-6.6l3.2-2.1c2.2 2.5 3.9 4.8 5.2 6.7l-3.1 2H98v3.7H83.5v11.8h12.7v3.7H83.5v13.9h15.8v3.7H63v-3.7zm46.2 6.2h-3.6v-23.8h-4.3v-3.5h4.3v-17.6h39.3v17.6h4.5v3.5h-4.5v17.1c0 4.3-2 6.4-6 6.4h-4.4c-.2-1.3-.4-2.6-.7-3.8 1.7.1 3.1.2 4.2.2 2.2.1 3.3-1.1 3.3-3.7v-16.2h-8.4v21h-3.5v-21h-8.3v22.9h-3.5v-22.9h-8.3v23.8h-.1zm0-27.3h8.3v-14.2h-8.3v14.2zm11.9 0h8.3v-14.2h-8.3v14.2zm20.2-14.2h-8.4v14.2h8.4v-14.2z"/></svg>