<?xml version="1.0" encoding="utf-8"?>
<!-- Generator: Adobe Illustrator 24.3.0, SVG Export Plug-In . SVG Version: 6.00 Build 0)  -->
<svg version="1.1" id="Layer_1" xmlns="http://www.w3.org/2000/svg" xmlns:xlink="http://www.w3.org/1999/xlink" x="0px" y="0px"
	 viewBox="0 0 86.6 52" style="enable-background:new 0 0 86.6 52;" xml:space="preserve">
<style type="text/css">
	.st0{fill:url(#SVGID_1_);}
	.st1{fill:url(#SVGID_2_);}
	.st2{fill:#F6E51D;}
	.st3{fill:url(#SVGID_3_);}
	.st4{fill:url(#SVGID_4_);}
	.st5{fill:url(#SVGID_5_);}
	.st6{fill:#FFFFFF;}
</style>
<g transform="translate(-7.972 -86)">
	<g transform="translate(7.972 89.29)">
		<g transform="translate(0 0)">
			<path d="M16.3,18.2l-4.6,0.7c-0.4-1.8-1.4-2.7-3-2.6c-2.6-0.1-3.9,2.3-4,7.1c1.2-1.6,3-2.5,5-2.4c4.3,0.3,6.7,2.6,7.1,7.1
				c-0.3,4.9-3,7.4-8.1,7.6c-6,0.2-8.9-3.6-8.8-11.5c0.2-7.6,3.1-11.5,8.7-11.7C12.8,12.6,15.3,14.4,16.3,18.2z M12.2,28.4
				c-0.1-2.3-1.3-3.5-3.6-3.6C6.3,24.8,5.1,26,5,28.2c0.1,2.5,1.4,3.8,3.8,3.9C10.8,31.9,12,30.7,12.2,28.4z"/>
			<path d="M23.3,23.8c-2.4-0.5-4.2-2.7-4.1-5.2c0.4-3.9,3-5.9,7.9-6.1c4.8,0.2,7.5,2.2,7.9,6c0.1,2.7-1.5,4.4-4.6,5.2v0.1
				c3.3,0.6,5,2.4,5.2,5.4c-0.1,4.3-3.1,6.5-9,6.5c-5.2-0.1-7.9-2.2-8.1-6.2C18.7,26.6,20.3,24.7,23.3,23.8z M30.6,29.3
				c0.1-1.8-1.2-3-3.7-3.6c-2.3,0.6-3.4,1.8-3.4,3.6c0.1,1.9,1.3,2.9,3.5,3C29.3,32.3,30.5,31.2,30.6,29.3L30.6,29.3z M30,18.9
				c-0.1-1.7-1-2.6-2.9-2.6c-1.9,0.1-2.8,0.9-2.9,2.6c-0.1,1.5,0.9,2.5,2.9,3C29.1,21.4,30.1,20.3,30,18.9L30,18.9z"/>
		</g>
		<g transform="translate(0 0)">
			
				<linearGradient id="SVGID_1_" gradientUnits="userSpaceOnUse" x1="-605.3851" y1="393.8643" x2="-605.3851" y2="392.9979" gradientTransform="matrix(19.4358 0 0 -26.6898 11774.5361 10524.7188)">
				<stop  offset="0" style="stop-color:#075951"/>
				<stop  offset="0.746" style="stop-color:#0DA929"/>
			</linearGradient>
			<path class="st0" d="M16.3,18.2l-4.6,0.7c-0.4-1.8-1.4-2.7-3-2.6c-2.6-0.1-3.9,2.3-4,7.1c1.2-1.6,3-2.5,5-2.4
				c4.3,0.3,6.7,2.6,7.1,7.1c-0.3,4.9-3,7.4-8.1,7.6c-6,0.2-8.9-3.6-8.8-11.5c0.2-7.6,3.1-11.5,8.7-11.7
				C12.8,12.6,15.3,14.4,16.3,18.2z M12.2,28.4c-0.1-2.3-1.3-3.5-3.6-3.6C6.3,24.8,5.1,26,5,28.2c0.1,2.5,1.4,3.8,3.8,3.9
				C10.8,31.9,12,30.7,12.2,28.4z"/>
			
				<linearGradient id="SVGID_2_" gradientUnits="userSpaceOnUse" x1="-605.9333" y1="393.8583" x2="-605.9333" y2="392.9918" gradientTransform="matrix(19.677 0 0 -26.68 11950.0264 10520.7061)">
				<stop  offset="0" style="stop-color:#075951"/>
				<stop  offset="0.746" style="stop-color:#0DA929"/>
			</linearGradient>
			<path class="st1" d="M23.3,23.8c-2.4-0.5-4.2-2.7-4.1-5.2c0.4-3.9,3-5.9,7.9-6.1c4.8,0.2,7.5,2.2,7.9,6c0.1,2.7-1.5,4.4-4.6,5.2
				v0.1c3.3,0.6,5,2.4,5.2,5.4c-0.1,4.3-3.1,6.5-9,6.5c-5.2-0.1-7.9-2.2-8.1-6.2C18.7,26.6,20.3,24.7,23.3,23.8z M30.6,29.3
				c0.1-1.8-1.2-3-3.7-3.6c-2.3,0.6-3.4,1.8-3.4,3.6c0.1,1.9,1.3,2.9,3.5,3C29.3,32.3,30.5,31.2,30.6,29.3L30.6,29.3z M30,18.9
				c-0.1-1.7-1-2.6-2.9-2.6c-1.9,0.1-2.8,0.9-2.9,2.6c-0.1,1.5,0.9,2.5,2.9,3C29.1,21.4,30.1,20.3,30,18.9L30,18.9z"/>
		</g>
	</g>
	<g transform="translate(7.972 87.151)">
		<path class="st2" d="M16.3,18.5l-4.6,0.7c-0.4-1.8-1.4-2.7-3-2.6c-2.6-0.1-3.9,2.3-4,7.1c1.2-1.6,3-2.5,5-2.4
			c4.3,0.3,6.7,2.6,7.1,7.1c-0.3,4.9-3,7.4-8.1,7.6c-6,0.2-8.9-3.6-8.8-11.5C0.2,17,3.1,13.1,8.7,12.9
			C12.8,12.8,15.3,14.7,16.3,18.5z M12.2,28.6c-0.1-2.3-1.3-3.5-3.6-3.6c-2.3,0.1-3.5,1.2-3.6,3.4c0.1,2.5,1.4,3.8,3.8,3.9
			C10.8,32.2,12,30.9,12.2,28.6z"/>
		<path class="st2" d="M23.3,24.1c-2.4-0.5-4.2-2.7-4.1-5.2c0.4-3.9,3-5.9,7.9-6.1c4.8,0.2,7.5,2.2,7.9,6c0.1,2.7-1.5,4.4-4.6,5.2
			v0.1c3.3,0.6,5,2.4,5.2,5.4c-0.1,4.3-3.1,6.5-9,6.5c-5.2-0.1-7.9-2.2-8.1-6.2C18.7,26.9,20.3,25,23.3,24.1z M30.6,29.6
			c0.1-1.8-1.2-3-3.7-3.6c-2.3,0.6-3.4,1.8-3.4,3.6c0.1,1.9,1.3,2.9,3.5,3C29.3,32.5,30.5,31.5,30.6,29.6L30.6,29.6z M30,19.1
			c-0.1-1.7-1-2.6-2.9-2.6c-1.9,0.1-2.8,0.9-2.9,2.6c-0.1,1.5,0.9,2.5,2.9,3C29.1,21.6,30.1,20.6,30,19.1L30,19.1z"/>
	</g>
	<g transform="translate(51.943 88.138)">
		<g transform="translate(0 0)">
			<path class="st2" d="M-1,34.4v2h-4.9V12.7H-1v10.1c1.1-1.8,2.8-2.6,5.2-2.6c4.1,0.2,6.3,2.8,6.4,7.9c0,5.8-2.3,8.7-6.9,8.7
				C1.8,36.9,0,36-1,34.4z M-1,28v1.3c0.1,2.5,1.1,3.8,3.2,3.9c2.3,0.1,3.4-1.6,3.4-5c-0.1-2.7-1.2-4.1-3.3-4.3
				C0.2,24-0.9,25.4-1,28z"/>
			<path class="st2" d="M29.5,29v1.2H17.3c0.2,2.1,1.5,3.3,4,3.5c1.8-0.1,2.9-0.7,3.4-2l5.2,0.6c-1.3,3.1-4.1,4.6-8.5,4.6
				c-5.7-0.2-8.7-2.8-9-7.8c0.2-5.5,3-8.4,8.4-8.6C26.5,20.5,29.5,23.3,29.5,29z M17.2,27.1h7.7c-0.2-2.1-1.5-3.2-3.8-3.4
				C18.7,23.8,17.4,24.9,17.2,27.1z"/>
			<path class="st2" d="M33.6,31.9v-7.7h-2.5v-3.6h2.5V15l4.8-0.9v6.4h3.8v3.6h-3.8v6.6c0,1.7,0.6,2.5,1.9,2.4c0.5,0,1-0.1,1.4-0.4
				l1,3.1c-1.2,0.7-2.6,1-4,0.9C35.2,36.9,33.6,35.2,33.6,31.9z"/>
		</g>
		<g transform="translate(0 0)">
			
				<linearGradient id="SVGID_3_" gradientUnits="userSpaceOnUse" x1="-648.8729" y1="395.5809" x2="-648.8729" y2="394.7144" gradientTransform="matrix(18.978 0 0 -27.8379 12316.6582 11024.8711)">
				<stop  offset="0" style="stop-color:#075951"/>
				<stop  offset="0.746" style="stop-color:#0DA929"/>
			</linearGradient>
			<path class="st3" d="M-1,34.4v2h-4.9V12.7H-1v10.1c1.1-1.8,2.8-2.6,5.2-2.6c4.1,0.2,6.3,2.8,6.4,7.9c0,5.8-2.3,8.7-6.9,8.7
				C1.8,36.9,0,36-1,34.4z M-1,28v1.3c0.1,2.5,1.1,3.8,3.2,3.9c2.3,0.1,3.4-1.6,3.4-5c-0.1-2.7-1.2-4.1-3.3-4.3
				C0.2,24-0.9,25.4-1,28z"/>
			
				<linearGradient id="SVGID_4_" gradientUnits="userSpaceOnUse" x1="-650.9519" y1="389.7097" x2="-650.9519" y2="388.4508" gradientTransform="matrix(20.15 0 0 -18.8551 13137.7764 7361.1294)">
				<stop  offset="0" style="stop-color:#075951"/>
				<stop  offset="0.746" style="stop-color:#0DA929"/>
			</linearGradient>
			<path class="st4" d="M29.5,29v1.2H17.3c0.2,2.1,1.5,3.3,4,3.5c1.8-0.1,2.9-0.7,3.4-2l5.2,0.6c-1.3,3.1-4.1,4.6-8.5,4.6
				c-5.7-0.2-8.7-2.8-9-7.8c0.2-5.5,3-8.4,8.4-8.6C26.5,20.5,29.5,23.3,29.5,29z M17.2,27.1h7.7c-0.2-2.1-1.5-3.2-3.8-3.4
				C18.7,23.8,17.4,24.9,17.2,27.1z"/>
			
				<linearGradient id="SVGID_5_" gradientUnits="userSpaceOnUse" x1="-635.2077" y1="394.813" x2="-635.2077" y2="393.892" gradientTransform="matrix(13.34 0 0 -26.1991 8510.5596 10356.4404)">
				<stop  offset="0" style="stop-color:#075951"/>
				<stop  offset="0.746" style="stop-color:#0DA929"/>
			</linearGradient>
			<path class="st5" d="M33.6,31.9v-7.7h-2.5v-3.6h2.5V15l4.8-0.9v6.4h3.8v3.6h-3.8v6.6c0,1.7,0.6,2.5,1.9,2.4c0.5,0,1-0.1,1.4-0.4
				l1,3.1c-1.2,0.7-2.6,1-4,0.9C35.2,36.9,33.6,35.2,33.6,31.9z"/>
		</g>
	</g>
	<g transform="translate(51.943 86)">
		<path class="st6" d="M-1,34.7v2h-4.9V13H-1v10.1c1.1-1.8,2.8-2.6,5.2-2.6c4.1,0.2,6.3,2.8,6.4,7.9c0,5.8-2.3,8.7-6.9,8.7
			C1.8,37.2,0,36.3-1,34.7z M-1,28.3v1.3c0.1,2.5,1.1,3.8,3.2,3.9c2.3,0.1,3.4-1.6,3.4-5c-0.1-2.7-1.2-4.1-3.3-4.3
			C0.2,24.3-0.9,25.7-1,28.3z"/>
		<path class="st6" d="M29.5,29.2v1.2H17.3c0.2,2.1,1.5,3.3,4,3.5c1.8-0.1,2.9-0.7,3.4-2l5.2,0.6c-1.3,3.1-4.1,4.6-8.5,4.6
			c-5.7-0.2-8.7-2.8-9-7.8c0.2-5.5,3-8.4,8.4-8.6C26.5,20.8,29.5,23.6,29.5,29.2z M17.2,27.3h7.7c-0.2-2.1-1.5-3.2-3.8-3.4
			C18.7,24.1,17.4,25.2,17.2,27.3z"/>
		<path class="st6" d="M33.6,32.1v-7.7h-2.5v-3.7h2.5v-5.5l4.8-0.9v6.4h3.8v3.6h-3.8V31c0,1.7,0.6,2.5,1.9,2.4c0.5,0,1-0.1,1.4-0.4
			l1,3.1c-1.2,0.7-2.6,1-4,0.9C35.2,37.2,33.6,35.5,33.6,32.1z"/>
	</g>
</g>
</svg>
