<?xml version="1.0" encoding="utf-8"?>
<!-- Generator: Adobe Illustrator 23.1.0, SVG Export Plug-In . SVG Version: 6.00 Build 0)  -->
<svg version="1.1" id="Layer_1" xmlns="http://www.w3.org/2000/svg" xmlns:xlink="http://www.w3.org/1999/xlink" x="0px" y="0px"
	 viewBox="0 0 100 100" style="enable-background:new 0 0 100 100;" xml:space="preserve">
<style type="text/css">
	.st0{fill:#FFFFFF;}
	.st1{fill:#F08C1A;}
</style>
<rect id="XMLID_1_" width="100" height="100"/>
<g>
	<path class="st0" d="M26.6,54.4l1.9-11.2c0.2-1-0.6-1.9-1.6-1.9h-8.5v0c1.5-1.4,1.3-3.9-0.6-4.9c-0.6-0.3-1.2-0.6-1.9-0.9l0.1-0.3
		h4c0.8,0,1.5-0.6,1.6-1.3c0.2-1-0.6-1.9-1.6-1.9h-2.8c0.2-0.7,0.4-1.5,0.6-2.3h2.5c0.8,0,1.4-0.5,1.5-1.3c0.2-0.9-0.6-1.8-1.5-1.8
		H15c0.1-0.1,0.1-0.3,0.2-0.4c0.4-0.7,0-1.6-0.8-1.8c-0.6-0.2-1.2,0.1-1.4,0.6c-1,1.8-2.1,3.2-3.2,4.3c-0.4,0.4-0.5,0.9-0.2,1.4
		l0.6,1.3c-0.7,0-1.3,0.5-1.4,1.2l-0.1,0.4c-0.1,0.9,0.5,1.6,1.4,1.6h3.2c-0.9,1.6-2.5,3-5.2,3.6C6.7,39.2,6,40.7,6.7,42
		c0.6,1.1,2,1.4,3,0.8c0.3-0.2,0.7-0.4,0.9-0.6L8.5,54.3C8.4,55.2,9,56,9.9,56c0.7,0,1.3-0.5,1.4-1.2l0-0.1h12.5
		c-0.1,0.7,0.4,1.3,1.1,1.3C25.7,56,26.5,55.3,26.6,54.4 M25.5,44.5l-0.4,2.1H12.7l0.4-2.1H25.5z M11.1,32c0.7-0.7,1.3-1.4,2-2.3
		h2.2c-0.2,0.8-0.4,1.6-0.6,2.3H11.1z M14.7,38.2c1.2,1.1,2.2,2.1,3,3.2h-6C12.9,40.4,13.9,39.3,14.7,38.2 M24.3,51.6H11.8l0.3-2
		h12.5L24.3,51.6z"/>
	<path class="st0" d="M23.4,39.7h6.4c0.8,0,1.4-0.6,1.6-1.3l1.7-9.8c0.2-1-0.6-1.9-1.6-1.9h-6.4c-0.8,0-1.4,0.6-1.6,1.3l-1.7,9.8
		C21.6,38.8,22.4,39.7,23.4,39.7 M25.9,29.9h4.2l-1.2,6.8h-4.2L25.9,29.9z"/>
	<path class="st0" d="M45.1,29.6h5.5l-0.2,1.1h-5c-0.8,0-1.4,0.6-1.6,1.3l-1.9,10.3c-0.2,0.8,0.5,1.6,1.3,1.6c0.7,0,1.2-0.5,1.3-1.1
		l0.4-2.4h3.6l-0.3,1.7c-0.2,0.9,0.5,1.7,1.4,1.7c0.7,0,1.3-0.5,1.4-1.2l0.4-2.2h3.6L55,40.7c-0.1,0.5-0.3,0.7-0.7,0.7
		C53.6,41.4,53,42,53,42.7l0,0.1c0,0.6,0.5,1.1,1.2,1.1h0.4c1.7,0,2.8-0.8,3.1-2.5l1.6-8.8c0.2-1-0.6-1.9-1.6-1.9h-4.5l0.2-1.1h6
		c0.7,0,1.3-0.5,1.4-1.2c0.2-0.9-0.5-1.7-1.4-1.7h-0.6c0-0.4-0.2-1.3-0.3-2c-0.1-0.7-0.8-1.2-1.5-1.1c-0.7,0.1-1.2,0.8-1,1.6
		c0.1,0.6,0.3,1.2,0.4,1.5H54l0.1-0.4c0.2-0.9-0.5-1.7-1.4-1.7c-0.7,0-1.3,0.5-1.4,1.2l-0.2,0.9h-6c-0.7,0-1.3,0.5-1.4,1.2
		C43.5,28.8,44.2,29.6,45.1,29.6 M49,38.1h-3.6l0.2-1.3h3.6L49,38.1z M49.7,34.6h-3.6l0.2-1.3h3.6L49.7,34.6z M52.7,33.3h3.6
		l-0.2,1.3h-3.6L52.7,33.3z M52.1,36.9h3.6l-0.2,1.3h-3.6L52.1,36.9z"/>
	<path class="st0" d="M49.9,52.8c-0.4,0-0.8,0-1.2-0.1c-0.9-0.1-1.7,0.7-1.6,1.6c0,0.8,0.7,1.5,1.5,1.5h1.8c1.7,0,2.8-1.1,3.2-3.2
		l0.7-4.1h1.9c0.7,0,1.4-0.5,1.5-1.2c0.2-0.9-0.5-1.8-1.5-1.8h-1.3c0.1-0.7-0.4-1.3-1-1.3h-0.3c-0.7,0-1.4,0.5-1.5,1.3H41
		c-0.7,0-1.4,0.5-1.5,1.2c-0.2,0.9,0.5,1.8,1.5,1.8h2.3L43,48.8c-0.6,0.6-0.8,1.6-0.3,2.3c0.3,0.4,0.5,0.8,0.7,1.2
		c0.5,1.2,2.1,1.4,2.9,0.5c0.6-0.6,0.7-1.6,0.2-2.3c-0.6-0.8-1.2-1.6-2.1-2.1h6.9l-0.6,3.2C50.7,52.5,50.4,52.8,49.9,52.8"/>
	<path class="st0" d="M40.5,35.9c0.9,0,1.6-0.7,1.7-1.6c0.1-1-0.7-1.9-1.8-1.9h-0.3c0,0,0,0,0,0l1.1-6.1c0.1-0.8-0.3-1.6-1.1-1.7
		c-0.8-0.2-1.6,0.4-1.8,1.2l-1.2,6.7c0,0,0,0,0,0h-1.8c-0.7,0-1.4,0.4-1.7,1.1c-0.4,1.2,0.4,2.3,1.6,2.3h1.2c0,0,0,0,0,0L29,75.1
		c-0.1,0.7,0.4,1.3,1.1,1.3c0.9,0,1.7-0.7,1.9-1.6l7.4-38.9c0,0,0,0,0,0H40.5z"/>
	<path class="st1" d="M65.8,50.9c1.7-2.4,3-5.4,4.2-8.5l-1.3,7.4h-1.4c-0.5,0-0.9,0.4-1,0.9c-0.1,0.6,0.4,1.2,1,1.2h1.1l-0.5,3
		c-0.1,0.5,0.3,1,0.9,1c0.4,0,0.8-0.3,0.9-0.7l0.6-3.3h1.5c0.5,0,0.9-0.4,1-0.9c0.1-0.6-0.4-1.2-1-1.2h-1.1l1.3-7.4
		c0.1,2.6,0.5,5,1.2,7.3c0.4,1.1,1.8,1.3,2.5,0.4c0.4-0.5,0.3-1.3-0.1-1.8c-1.5-1.7-2.1-3.6-2.2-6.3h2.3c0.5,0,0.9-0.4,1-0.9
		c0.1-0.6-0.4-1.2-1-1.2h-3.2l0.4-2.3c0.1-0.5-0.3-1-0.9-1c-0.4,0-0.8,0.3-0.9,0.7l-0.5,2.6h-3.4c-0.5,0-0.9,0.4-1,0.9
		c-0.1,0.6,0.4,1.2,1,1.2h1.7c-1.3,3.1-2.3,5.6-4.8,7c-0.6,0.3-0.8,1-0.6,1.6C63.8,51.6,65.2,51.8,65.8,50.9"/>
	<path class="st1" d="M66.9,38.1c0.2-0.4,0-0.8-0.3-1.1c-0.4-0.3-1-0.1-1.2,0.4c-1.3,2.8-3.5,6.1-5.9,7.8c-0.5,0.4-0.6,1.2-0.2,1.7
		c0.4,0.5,1.1,0.5,1.6,0.1c0.6-0.5,0.9-0.8,1.5-1.4l-1.6,9.3c-0.1,0.5,0.3,1,0.9,1c0.4,0,0.8-0.3,0.9-0.7l2.3-12.9
		C65.5,40.9,66.2,39.5,66.9,38.1"/>
	<path class="st1" d="M88.9,44.8h-8.5c-0.5,0-1,0.4-1.1,0.9l-1.7,9.1c-0.1,0.5,0.3,1,0.9,1c0.4,0,0.8-0.3,0.9-0.7l0.6-2.6H87
		l-0.1,0.7c-0.1,0.4-0.3,0.6-0.7,0.6l-0.5,0c-0.6,0-1.1,0.5-1.1,1.1c0,0.5,0.5,1,1,1h0.8c1.3,0,2-0.7,2.3-2.1l1.3-7.6
		C90.1,45.5,89.6,44.8,88.9,44.8 M87.3,50.7h-7.1l0.2-1.1h7.1L87.3,50.7z M87.9,47.8h-7.1l0.2-1.2h7.1L87.9,47.8z"/>
	<path class="st1" d="M92.6,38.3H87c0-0.2,0-0.4,0-0.6c0-0.6-0.6-1.1-1.2-0.9c-0.6,0.1-0.9,0.6-0.8,1.2c0,0.1,0,0.2,0.1,0.4h-5.8
		c-0.5,0-0.9,0.4-1,0.8c-0.1,0.6,0.4,1.2,1,1.2h2.7C81,41,80.3,41.6,79.7,42c-0.1,0-0.1,0.1-0.2,0.1c-0.4,0.2-0.7,0.5-0.7,1l0,0
		c0,0.6,0.5,1,1,1c4-0.2,7.4-0.4,10.1-0.7c0.1,0.2,0.2,0.4,0.4,0.6c0.3,0.5,1,0.7,1.5,0.3c0.5-0.3,0.6-1,0.2-1.4
		c-0.5-0.8-1.2-1.6-2-2.5h2.5c0.5,0,0.9-0.4,1-0.8C93.7,38.9,93.2,38.3,92.6,38.3 M88.6,41.6c0.1,0.1,0.1,0.2,0.2,0.3
		c-2.1,0.1-4.5,0.3-7.2,0.4c0.7-0.5,1.5-1.1,2.4-2h4.8C88.4,40.6,88.3,41.2,88.6,41.6"/>
	<path class="st0" d="M43,60.2h-3.9c-0.3,0-0.6,0.2-0.6,0.5l0,0c-0.1,0.4,0.2,0.8,0.6,0.8h2.8l-4.7,5.4c-0.1,0.1-0.1,0.2-0.2,0.3
		c-0.1,0.5,0.3,0.9,0.7,0.9h4.4c0.3,0,0.5-0.2,0.6-0.4c0.2-0.4-0.2-0.9-0.6-0.9h-3l4.5-5.2c0.1-0.1,0.2-0.2,0.2-0.4
		C44,60.7,43.6,60.2,43,60.2"/>
	<path class="st0" d="M51,62.1c0-1-0.7-2-2.5-2h-1.7c-0.4,0-0.8,0.3-0.8,0.7l-1.3,6.2c-0.1,0.5,0.3,1,0.8,1h2.2c1.8,0,3-1.1,3-2.5
		c0-0.9-0.6-1.4-1-1.6C50.4,63.7,51,63.1,51,62.1 M47.4,67h-1.2l0.5-2.4h1c0.9,0,1.3,0.4,1.3,1.1C49,66.5,48.4,67,47.4,67 M48,63.3
		h-1.1l0.4-2h1c0.7,0,1.1,0.2,1.1,0.9C49.4,63,48.9,63.3,48,63.3"/>
	<path class="st0" d="M56.5,60.1c-3,0-4.1,3-4.1,5c0,1.9,0.9,3.2,3,3.2c3,0,4.1-2.8,4.1-5C59.5,61.5,58.6,60.1,56.5,60.1 M55.5,67
		c-1,0-1.5-0.6-1.5-1.9c0-1.5,0.7-3.8,2.3-3.8c1.1,0,1.5,0.7,1.5,1.9C57.9,64.7,57.3,67,55.5,67"/>
	<path class="st0" d="M61.2,66.3c-0.3,0-0.6,0.2-0.7,0.6l-0.1,0.4c-0.1,0.5,0.3,0.9,0.7,0.9c0.3,0,0.6-0.2,0.7-0.6l0.1-0.4
		C62,66.7,61.6,66.3,61.2,66.3"/>
	<path class="st0" d="M67.5,60.1c-2.9,0-4.1,3-4.1,5c0,1.9,0.9,3.1,2.9,3.1c1.5,0,2.3-0.5,2.9-1.3c0.3-0.5,0-1.1-0.6-1.1
		c-0.3,0-0.5,0.1-0.6,0.4c-0.3,0.5-0.7,0.8-1.5,0.8c-1,0-1.4-0.7-1.4-2c0-1.5,0.7-3.7,2.3-3.7c0.8,0,1.1,0.4,1.3,0.9
		c0.1,0.3,0.4,0.5,0.7,0.5h0.1c0.5,0,0.8-0.5,0.7-0.9C69.9,60.9,69.1,60.1,67.5,60.1"/>
	<path class="st0" d="M75.6,60.1c-3,0-4.1,3-4.1,5c0,1.9,0.9,3.2,3,3.2c3,0,4.1-2.8,4.1-5C78.6,61.5,77.7,60.1,75.6,60.1 M74.6,67
		c-1,0-1.5-0.6-1.5-1.9c0-1.5,0.7-3.8,2.3-3.8c1.1,0,1.5,0.7,1.5,1.9C77,64.7,76.3,67,74.6,67"/>
	<path class="st0" d="M87.6,60.2c-0.5,0-0.9,0.3-1.1,0.7c-1,1.9-2.2,4.2-2.5,5.1h0c0-1-0.1-2.9-0.2-4.6c0-0.7-0.6-1.2-1.3-1.2h-0.1
		c-0.6,0-1.1,0.4-1.2,1l-1.3,6.1c-0.1,0.4,0.2,0.8,0.7,0.8c0.3,0,0.6-0.2,0.7-0.5c0,0,1-4.5,1.2-5.4c0,0,0.2,3.2,0.3,5.3
		c0,0.4,0.3,0.7,0.7,0.7h0.4c0.3,0,0.5-0.2,0.6-0.4c1.1-2.2,1.9-3.7,2.7-5.4l-0.9,4.9c-0.1,0.4,0.2,0.8,0.7,0.8h0.1
		c0.3,0,0.6-0.2,0.7-0.5l1.2-5.9C89,60.9,88.4,60.2,87.6,60.2"/>
</g>
</svg>
