<?xml version="1.0" encoding="utf-8"?>
<!-- Generator: Adobe Illustrator 24.3.0, SVG Export Plug-In . SVG Version: 6.00 Build 0)  -->
<svg version="1.1" id="Layer_1" xmlns="http://www.w3.org/2000/svg" xmlns:xlink="http://www.w3.org/1999/xlink" x="0px" y="0px"
	 viewBox="0 0 97.4 52" style="enable-background:new 0 0 97.4 52;" xml:space="preserve">
<style type="text/css">
	.st0{opacity:0.27;fill:#FF9200;enable-background:new    ;}
	.st1{fill:#FF9200;}
	.st2{fill:#FFFFFF;}
</style>
<g transform="translate(-140.254 -853.069)">
	<path class="st0" d="M168.3,884.6c0,0,0.1,0,0.1,0c0,0,0.1,0,0.1,0c0,0,0.1,0,0.1,0l-1,0C167.9,884.6,168.1,884.6,168.3,884.6z"/>
	<path class="st0" d="M168.3,884.6c0,0,0.1,0,0.1,0c0,0,0.1,0,0.1,0c0,0,0.1,0,0.1,0l-1,0C167.9,884.6,168.1,884.6,168.3,884.6z"/>
	<path class="st1" d="M168.8,884.6L168.8,884.6c-0.1,0-0.1,0-0.2,0L168.8,884.6z"/>
	<path class="st1" d="M167.6,884.6L167.6,884.6C167.7,884.6,167.6,884.6,167.6,884.6L167.6,884.6z"/>
	<path class="st1" d="M172.8,889.1h5.6V880L172.8,889.1z"/>
	<path class="st1" d="M157,869.1v20h-5.1v-8h-6.6v8h-5.1v-20h5.1v7.5h6.6v-3.1h-2.7v-4.5L157,869.1L157,869.1z"/>
	<path class="st1" d="M178.6,877.7l-6.7,10.8c-0.5,0.2-1.1,0.3-1.7,0.4c-0.6,0.1-1.2,0.1-1.8,0.1c-0.8,0-1.5-0.1-2.2-0.2
		c-1.1-0.2-2.2-0.7-3.2-1.3c-1-0.6-1.8-1.3-2.5-2.2c-1.5-1.8-2.3-4.1-2.3-6.4c0-2.7,1.1-5.3,3-7.1c1-0.9,2.1-1.6,3.3-2.1
		c1.3-0.5,2.6-0.7,4-0.7c0.8,0,1.6,0.1,2.4,0.3c1.6,0.4,3,1.1,4.3,2.1c0.6,0.5,1.2,1.1,1.6,1.7c0.6,0.8,1,1.7,1.3,2.7h-5.5
		c-0.4-0.8-1-1.4-1.8-1.9c-0.7-0.4-1.6-0.7-2.4-0.7c-0.7,0-1.5,0.1-2.1,0.5c-0.6,0.3-1.2,0.7-1.7,1.2c-0.5,0.5-0.8,1.1-1.1,1.8
		c-0.3,0.7-0.4,1.4-0.4,2.1c0,0.8,0.1,1.5,0.4,2.2c0.2,0.7,0.6,1.3,1.1,1.8c1,1.1,2.4,1.7,3.8,1.7c0.1,0,0.2,0,0.3,0
		c0.1,0,0.2,0,0.3,0l2.1-3.1h-3.8v-3.9L178.6,877.7L178.6,877.7z"/>
	<path class="st2" d="M179.7,874h3.4v15h6.5v-20h-9.9V874z"/>
	<path class="st2" d="M192.3,869.1v4.9h8.1l-7.7,15h6.8l7.5-15.1v-4.8H192.3z"/>
	<path class="st2" d="M209.9,874h3.4v15h6.5v-20h-9.9V874z"/>
	<path class="st2" d="M223,869.1v4.9h8.1l-7.7,15h6.8l7.5-15.1v-4.8H223z"/>
</g>
</svg>
