<?xml version="1.0" encoding="utf-8"?>
<!-- Generator: Adobe Illustrator 23.0.2, SVG Export Plug-In . SVG Version: 6.00 Build 0)  -->
<svg version="1.1" id="Layer_1" xmlns="http://www.w3.org/2000/svg" xmlns:xlink="http://www.w3.org/1999/xlink" x="0px" y="0px"
	 viewBox="0 0 100 100" style="enable-background:new 0 0 100 100;" xml:space="preserve">
<style type="text/css">
	.st0{fill:url(#XMLID_5_);}
	.st1{fill:url(#XMLID_6_);}
	.st2{fill:url(#XMLID_7_);}
	.st3{fill:url(#XMLID_8_);}
	.st4{fill:url(#XMLID_9_);}
	.st5{fill:url(#XMLID_10_);}
	.st6{fill:url(#XMLID_11_);}
	.st7{fill:url(#XMLID_12_);}
	.st8{fill:url(#XMLID_13_);}
	.st9{fill:url(#XMLID_14_);}
	.st10{fill:url(#XMLID_15_);}
	.st11{fill:url(#XMLID_16_);}
</style>
<g id="XMLID_3_">
	<g id="XMLID_673_">
		<linearGradient id="XMLID_5_" gradientUnits="userSpaceOnUse" x1="50.3734" y1="-3.5694" x2="50.3734" y2="106.3367">
			<stop  offset="0" style="stop-color:#949494"/>
			<stop  offset="1" style="stop-color:#616261"/>
		</linearGradient>
		<path id="XMLID_747_" class="st0" d="M49.99,65.95c-1,0-1.99-0.25-2.9-0.74c-3.45-1.87-9.65-5.23-12.44-6.84
			c-4.26-2.45-6.08-5.98-6.08-11.82V27.44l1.98,1.39c0.28,0.2,7.07,4.8,15.88,1.6c5.32-1.93,8.09-6.25,9.47-9.54
			c0.43-1.02,1.38-1.71,2.49-1.8c1.09-0.09,2.13,0.43,2.71,1.35c1.72,2.74,4.83,6.03,9.84,6.14l1.23,0.03v19.95
			c0,4.99-1.75,8.35-5.68,10.89c-2.44,1.58-9.54,5.53-13.55,7.74C52.02,65.7,51.01,65.95,49.99,65.95z M31.09,32.01v14.55
			c0,4.94,1.35,7.64,4.81,9.63c2.77,1.59,8.95,4.95,12.39,6.81c1.08,0.58,2.36,0.58,3.43-0.01c3.98-2.19,11.02-6.11,13.4-7.65
			c3.22-2.08,4.53-4.63,4.53-8.78V29.02c-5.4-0.59-8.77-4.19-10.68-7.23c-0.11-0.17-0.26-0.19-0.37-0.18
			c-0.08,0.01-0.28,0.05-0.37,0.27c-1.58,3.75-4.76,8.68-10.93,10.93C40.09,35.42,34.06,33.44,31.09,32.01z"/>
	</g>
	<g id="XMLID_659_">
		<linearGradient id="XMLID_6_" gradientUnits="userSpaceOnUse" x1="74.1702" y1="-3.5694" x2="74.1702" y2="106.3367">
			<stop  offset="0" style="stop-color:#949494"/>
			<stop  offset="1" style="stop-color:#616261"/>
		</linearGradient>
		<path id="XMLID_746_" class="st1" d="M79.01,78.08c-1.39,0-2.52-1.13-2.52-2.52c0-9.34-5.14-9.92-5.72-9.96l0.04,0l0.07-2.52
			v-2.52c5.95,0,10.09-5.52,10.09-10.47V26.56c0-12.85-8.2-20.53-16.12-20.53c-1.39,0-2.52-1.13-2.52-2.52S63.46,1,64.85,1
			c5.58,0,11.03,2.67,14.95,7.32c4,4.75,6.21,11.23,6.21,18.24V50.1c0,3.7-1.51,7.51-4.13,10.46c-1.22,1.37-2.62,2.48-4.15,3.31
			c1.94,2.07,3.8,5.63,3.8,11.69C81.53,76.95,80.4,78.08,79.01,78.08z"/>
	</g>
	<g id="XMLID_656_">
		<linearGradient id="XMLID_7_" gradientUnits="userSpaceOnUse" x1="36.2498" y1="-3.5694" x2="36.2498" y2="106.3367">
			<stop  offset="0" style="stop-color:#949494"/>
			<stop  offset="1" style="stop-color:#616261"/>
		</linearGradient>
		<path id="XMLID_745_" class="st2" d="M41.19,65.61h-9.94c-8.15,0-16.4-5.9-16.4-17.18v-19.2C14.85,11.55,25.03,1,42.08,1h13.05
			c1.39,0,2.52,1.13,2.52,2.52s-1.13,2.52-2.52,2.52H42.08c-14.32,0-22.2,8.24-22.2,23.19v19.2c0,8.35,5.89,12.15,11.37,12.15h9.94
			c1.39,0,2.52,1.13,2.52,2.52S42.58,65.61,41.19,65.61z"/>
	</g>
	<g id="XMLID_652_">
		<linearGradient id="XMLID_8_" gradientUnits="userSpaceOnUse" x1="50" y1="-3.5694" x2="50" y2="106.3367">
			<stop  offset="0" style="stop-color:#949494"/>
			<stop  offset="1" style="stop-color:#616261"/>
		</linearGradient>
		<path id="XMLID_744_" class="st3" d="M92.16,99H7.84v-2.52c0-7.76,2.66-14.17,8.38-20.15c5.2-5.45,11.33-6.36,16.26-7.09
			c1.57-0.23,3.05-0.45,4.3-0.79c1.26-0.34,1.88-1.06,2.07-2.39c0.17-1.18-0.1-2.32-0.1-2.33c-0.36-1.34,0.44-2.72,1.79-3.08
			c1.34-0.36,2.72,0.44,3.08,1.79c0.93,3.51,0.23,9.3-5.51,10.86c-1.54,0.42-3.17,0.66-4.89,0.92c-4.59,0.68-9.35,1.38-13.35,5.58
			c-5.07,5.31-6.51,10.31-6.87,14.16h74.02c-0.37-3.85-1.81-8.85-6.87-14.16c-4.01-4.2-8.76-4.9-13.35-5.58
			c-1.72-0.26-3.35-0.5-4.89-0.92c-5.74-1.57-6.44-7.35-5.51-10.86c0.36-1.34,1.74-2.14,3.08-1.79c1.34,0.36,2.14,1.73,1.79,3.08
			c-0.16,0.64-0.84,3.95,1.97,4.71c1.25,0.34,2.73,0.56,4.3,0.79c4.93,0.73,11.06,1.64,16.26,7.09c5.72,5.99,8.38,12.39,8.38,20.15
			V99z"/>
	</g>
	<g id="XMLID_651_">
		<linearGradient id="XMLID_9_" gradientUnits="userSpaceOnUse" x1="49.9379" y1="-3.5694" x2="49.9379" y2="106.3367">
			<stop  offset="0" style="stop-color:#949494"/>
			<stop  offset="1" style="stop-color:#616261"/>
		</linearGradient>
		<path id="XMLID_743_" class="st4" d="M61.53,81.07l-11.5-8.46L38.35,81V68.11c0-1.39,1.13-2.52,2.52-2.52
			c1.39,0,2.52,1.13,2.52,2.52v3.09l6.69-4.8l6.43,4.73v-3.01c0-1.39,1.13-2.52,2.52-2.52s2.52,1.13,2.52,2.52V81.07z"/>
	</g>
	<g id="XMLID_650_">
		<linearGradient id="XMLID_10_" gradientUnits="userSpaceOnUse" x1="31.5279" y1="-3.5694" x2="31.5279" y2="106.3367">
			<stop  offset="0" style="stop-color:#949494"/>
			<stop  offset="1" style="stop-color:#616261"/>
		</linearGradient>
		<path id="XMLID_742_" class="st5" d="M37.62,94.99l-11.69-9.58l2.52-5.12l-2.91-6.86c-0.27-0.64,0.03-1.38,0.67-1.65
			c0.64-0.27,1.38,0.03,1.65,0.67l3.36,7.92l-2.15,4.36l6.03,4.94v-5.04c0-0.7,0.56-1.26,1.26-1.26s1.26,0.56,1.26,1.26V94.99z"/>
	</g>
	<g id="XMLID_649_">
		<linearGradient id="XMLID_11_" gradientUnits="userSpaceOnUse" x1="68.8897" y1="-3.5694" x2="68.8897" y2="106.3367">
			<stop  offset="0" style="stop-color:#949494"/>
			<stop  offset="1" style="stop-color:#616261"/>
		</linearGradient>
		<path id="XMLID_741_" class="st6" d="M62.8,94.99V84.64c0-0.7,0.56-1.26,1.26-1.26c0.7,0,1.26,0.56,1.26,1.26v5.04l6.03-4.94
			l-2.15-4.36l3.36-7.92c0.27-0.64,1.01-0.94,1.65-0.67c0.64,0.27,0.94,1.01,0.67,1.65l-2.91,6.86l2.52,5.12L62.8,94.99z"/>
	</g>
	<g id="XMLID_572_">
		<linearGradient id="XMLID_12_" gradientUnits="userSpaceOnUse" x1="18.4329" y1="-3.5694" x2="18.4329" y2="106.3367">
			<stop  offset="0" style="stop-color:#949494"/>
			<stop  offset="1" style="stop-color:#616261"/>
		</linearGradient>
		<path id="XMLID_740_" class="st7" d="M18.43,97.74c-0.7,0-1.26-0.56-1.26-1.26V77.67c0-0.7,0.56-1.26,1.26-1.26
			c0.7,0,1.26,0.56,1.26,1.26v18.81C19.69,97.18,19.13,97.74,18.43,97.74z"/>
	</g>
	<g id="XMLID_571_">
		<linearGradient id="XMLID_13_" gradientUnits="userSpaceOnUse" x1="81.4649" y1="-3.5694" x2="81.4649" y2="106.3367">
			<stop  offset="0" style="stop-color:#949494"/>
			<stop  offset="1" style="stop-color:#616261"/>
		</linearGradient>
		<path id="XMLID_739_" class="st8" d="M81.46,97.74c-0.7,0-1.26-0.56-1.26-1.26V77.67c0-0.7,0.56-1.26,1.26-1.26
			s1.26,0.56,1.26,1.26v18.81C82.72,97.18,82.16,97.74,81.46,97.74z"/>
	</g>
	<g id="XMLID_570_">
		<linearGradient id="XMLID_14_" gradientUnits="userSpaceOnUse" x1="27.0872" y1="-3.5694" x2="27.0872" y2="106.3367">
			<stop  offset="0" style="stop-color:#949494"/>
			<stop  offset="1" style="stop-color:#616261"/>
		</linearGradient>
		<path id="XMLID_738_" class="st9" d="M29.83,48.08c-3.72,0-6.75-3.03-6.75-6.75v-3.25c0-2.22,1.8-4.02,4.02-4.02h2.73
			c0.7,0,1.26,0.56,1.26,1.26s-0.56,1.26-1.26,1.26H27.1c-0.83,0-1.5,0.67-1.5,1.5v3.25c0,2.33,1.9,4.23,4.23,4.23
			c0.7,0,1.26,0.56,1.26,1.26S30.53,48.08,29.83,48.08z"/>
	</g>
	<g id="XMLID_569_">
		<linearGradient id="XMLID_15_" gradientUnits="userSpaceOnUse" x1="73.7973" y1="-3.5694" x2="73.7973" y2="106.3367">
			<stop  offset="0" style="stop-color:#949494"/>
			<stop  offset="1" style="stop-color:#616261"/>
		</linearGradient>
		<path id="XMLID_737_" class="st10" d="M71.05,48.08c-0.7,0-1.26-0.56-1.26-1.26s0.56-1.26,1.26-1.26c2.33,0,4.23-1.9,4.23-4.23
			v-3.25c0-0.83-0.67-1.5-1.5-1.5h-2.73c-0.7,0-1.26-0.56-1.26-1.26s0.56-1.26,1.26-1.26h2.73c2.22,0,4.02,1.8,4.02,4.02v3.25
			C77.8,45.06,74.77,48.08,71.05,48.08z"/>
	</g>
	<g id="XMLID_567_">
		<linearGradient id="XMLID_16_" gradientUnits="userSpaceOnUse" x1="61.3064" y1="-3.5694" x2="61.3064" y2="106.3367">
			<stop  offset="0" style="stop-color:#949494"/>
			<stop  offset="1" style="stop-color:#616261"/>
		</linearGradient>
		<path id="XMLID_736_" class="st11" d="M64.85,65.9h-7.09c-1.39,0-2.52-1.13-2.52-2.52s1.13-2.52,2.52-2.52h7.09
			c1.39,0,2.52,1.13,2.52,2.52S66.24,65.9,64.85,65.9z"/>
	</g>
</g>
</svg>
