<?xml version="1.0" encoding="utf-8"?>
<!-- Generator: Adobe Illustrator 23.0.2, SVG Export Plug-In . SVG Version: 6.00 Build 0)  -->
<svg version="1.1" id="Layer_1" xmlns="http://www.w3.org/2000/svg" xmlns:xlink="http://www.w3.org/1999/xlink" x="0px" y="0px"
	 viewBox="0 0 100 100" style="enable-background:new 0 0 100 100;" xml:space="preserve">
<style type="text/css">
	.st0{fill:url(#XMLID_3_);}
	.st1{fill:url(#XMLID_4_);}
</style>
<g id="XMLID_1_">
	<g id="XMLID_723_">
		<linearGradient id="XMLID_3_" gradientUnits="userSpaceOnUse" x1="50" y1="-10.5622" x2="50" y2="104.4879">
			<stop  offset="0" style="stop-color:#949494"/>
			<stop  offset="1" style="stop-color:#616261"/>
		</linearGradient>
		<path id="XMLID_817_" class="st0" d="M82.99,58.8c2.81-1.28,5.51-2.73,8.03-4.53c0.1-0.07,0.19-0.14,0.28-0.22
			c0.13-1.34,0.19-2.69,0.19-4.06c0-6.31-1.39-12.29-3.87-17.67c-2.38-1.58-4.9-2.89-7.55-3.98c-0.45-0.18-0.9-0.35-1.37-0.51
			L65.29,12.72c0.08-0.57,0.13-1.14,0.15-1.71c-4.97-2.06-10.42-3.2-16.13-3.2c-4.74,0-9.3,0.78-13.55,2.22
			c3.07,1.06,5.86,2.62,8.49,4.47l-5.15,15.51c-0.03,0.01-0.05,0.01-0.08,0.03c-1.05,0.44-2.13,0.83-3.17,1.3
			c-4.28,1.94-8.44,4.1-12.37,6.67l-10.16-6.01c0.02-0.32,0.07-0.64,0.18-0.93c0.68-1.82,1.35-3.65,2.13-5.43
			c0.39-0.91,0.83-1.8,1.29-2.68c-3.9,4.67-6.81,10.19-8.4,16.25c0.65-1.17,1.37-2.3,2.15-3.4c0.34-0.48,0.65-0.97,1.01-1.44
			l10.28,6.08c0,0.08,0,0.17,0,0.26c-0.03,5.53,0.54,11.02,1.65,16.43c0,0.02,0.01,0.04,0.01,0.06l-7.97,12.5
			c-0.17-0.09-0.35-0.18-0.51-0.29c-1.82-1.14-3.51-2.42-5.06-3.89c3.81,9.61,11.05,17.48,20.2,22.12l15.02,2.68
			c0.13,0.08,0.27,0.16,0.41,0.24c1.18,0.6,2.39,1.14,3.62,1.62c9.32,0,17.94-3.03,24.92-8.16c-0.31-2.11-0.79-4.19-1.43-6.23
			L82.99,58.8z M47.03,15.28c0.38-0.1,0.76-0.19,1.15-0.23c3-0.3,6-0.65,9-0.82c1.84-0.1,3.69-0.16,5.56-0.03l13.64,15.37
			c-0.47,1.48-0.93,2.97-1.48,4.42c-0.96,2.55-2,5.07-3.02,7.59l-19.8,2.03c-0.24-0.31-0.48-0.62-0.74-0.91
			c-2.34-2.65-4.69-5.28-7.04-7.92c0.02-0.03,0.04-0.05,0.06-0.07c-0.95-0.95-1.9-1.89-2.85-2.84L47.03,15.28z M46.54,86.35
			c-0.28,0.38-0.59,0.75-0.9,1.11L25.3,83.84c-2.38-2.89-4.52-5.95-6.36-9.22c-0.47-0.83-0.99-1.64-1.39-2.51l7.97-12.49
			c0.18,0.04,0.37,0.09,0.6,0.15c4.98,1.34,10.06,2.28,15.16,3.03c0.3,0.04,0.55,0.08,0.76,0.1l9.55,16.51
			C49.93,81.74,48.25,84.06,46.54,86.35z M70.15,76.36c-5.32,0.99-10.68,1.52-16.09,1.55l-9.82-16.98c1.53-2.84,3.04-5.69,4.55-8.54
			c1.02-1.93,2.02-3.88,3.02-5.83l20.33-2.09c2.49,3.65,4.85,7.38,6.9,11.3c0.38,0.72,0.75,1.45,1.13,2.19l-9.84,18.36
			C70.26,76.34,70.2,76.35,70.15,76.36z"/>
	</g>
	<g id="XMLID_722_">
		<linearGradient id="XMLID_4_" gradientUnits="userSpaceOnUse" x1="50" y1="-10.5622" x2="50" y2="104.4879">
			<stop  offset="0" style="stop-color:#949494"/>
			<stop  offset="1" style="stop-color:#616261"/>
		</linearGradient>
		<path id="XMLID_814_" class="st1" d="M50,99C22.98,99,1,77.02,1,50S22.98,1,50,1s49,21.98,49,49S77.02,99,50,99z M50,6.27
			C25.89,6.27,6.27,25.89,6.27,50S25.89,93.73,50,93.73S93.73,74.11,93.73,50S74.11,6.27,50,6.27z"/>
	</g>
</g>
</svg>
