<?xml version="1.0" encoding="utf-8"?>
<!-- Generator: Adobe Illustrator 23.0.2, SVG Export Plug-In . SVG Version: 6.00 Build 0)  -->
<svg version="1.1" id="Layer_1" xmlns="http://www.w3.org/2000/svg" xmlns:xlink="http://www.w3.org/1999/xlink" x="0px" y="0px"
	 viewBox="0 0 100 100" style="enable-background:new 0 0 100 100;" xml:space="preserve">
<style type="text/css">
	.st0{fill:url(#Shape_3_1_);}
</style>
<linearGradient id="Shape_3_1_" gradientUnits="userSpaceOnUse" x1="11.8165" y1="87.0087" x2="11.8165" y2="83.4348" gradientTransform="matrix(27.4211 0 0 -26.6158 -274.0211 2318.2412)">
	<stop  offset="0" style="stop-color:#949494"/>
	<stop  offset="1" style="stop-color:#616261"/>
</linearGradient>
<path id="Shape_3" class="st0" d="M5.12,97.56V81.52H1V40.07h0.05C2.28,18.09,21.1,1.27,43.08,2.5
	c20.26,1.14,36.43,17.31,37.57,37.57h0.05v4.59h5.67v2.94h1.46V28.04c-4.5-1.44-6.98-6.26-5.53-10.76c1.44-4.5,6.26-6.98,10.76-5.53
	c4.5,1.44,6.98,6.26,5.53,10.76c-0.84,2.63-2.9,4.69-5.53,5.53V47.6h3.76V64H86.37v2.94H80.7v14.59h-3.75v16.03L5.12,97.56z
	 M71.71,92.36V81.52H67.8v3.41H52.65v-3.4h-4.23v3.4H33.27v-3.4h-4.24v3.4H13.89v-3.41h-3.53v10.84h4.02
	c0.1-1.59,1.43-2.83,3.02-2.82h15.37c1.59-0.01,2.92,1.23,3.02,2.82h17.38v-0.11c0-1.51,1.22-2.73,2.73-2.73
	c1.51,0,2.73,1.22,2.73,2.73v0.11h3.24v-0.11c0-1.51,1.22-2.73,2.73-2.73c1.51,0,2.73,1.22,2.73,2.73v0.11L71.71,92.36z
	 M55.27,82.34h9.91V75.9h-9.91L55.27,82.34z M35.89,82.34h9.91V75.9h-9.92L35.89,82.34z M16.51,82.34h9.91V75.9h-9.91L16.51,82.34z
	 M75.48,76.33v-8.47H56.82V40.07h18.61C74.23,20.98,57.79,6.48,38.7,7.68C21.29,8.77,7.4,22.65,6.31,40.07h18.58v27.79H6.24v8.46
	h7.65v-3.03h15.15v3.03h4.24v-3.03h15.15v3.03h4.24v-3.03h15.15v3.03L75.48,76.33z M62.06,62.67h13.42v-17.4H62.03L62.06,62.67z
	 M6.26,62.67h13.4v-17.4H6.24L6.26,62.67z M86.42,58.8h5.14v-6.01h-5.14V58.8z M87.13,19.95c-0.01,1.84,1.46,3.33,3.3,3.35
	c1.84,0.01,3.33-1.46,3.35-3.3c0.01-1.84-1.46-3.33-3.3-3.35c-0.01,0-0.02,0-0.03,0C88.62,16.65,87.14,18.13,87.13,19.95z
	 M28.9,67.87V40.07h23.89v27.79H28.9z M34.13,62.67h13.42v-17.4H34.13V62.67z M66.8,60.36l2.57-10.85h-1.89v1.74h-2.3v-3.9h6.73
	v1.63l-2.64,11.39L66.8,60.36z M39.08,60.36l2.57-10.85h-1.91v1.74h-2.29v-3.9h6.72v1.63l-2.64,11.39L39.08,60.36z M11.37,60.36
	l2.57-10.85h-1.9v1.74h-2.3v-3.9h6.73v1.63l-2.64,11.39L11.37,60.36z M38.66,34.6c0.01-1.2,0.99-2.17,2.19-2.17
	c1.2,0.01,2.17,0.99,2.17,2.19c-0.01,1.2-0.98,2.17-2.18,2.17C39.63,36.79,38.66,35.81,38.66,34.6C38.66,34.6,38.66,34.6,38.66,34.6
	z M50.61,32.64c-0.51-0.5-0.51-1.32-0.01-1.83c0,0,0,0,0.01-0.01l9.45-9.38c0.51-0.51,1.34-0.51,1.85,0
	c0.51,0.5,0.51,1.32,0.01,1.83c0,0,0,0-0.01,0.01l-9.44,9.38C51.95,33.15,51.13,33.15,50.61,32.64L50.61,32.64z M29.23,32.64
	l-9.45-9.38c-0.51-0.5-0.51-1.32-0.01-1.83c0,0,0,0,0.01-0.01c0.51-0.51,1.34-0.51,1.85,0l9.45,9.38c0.49,0.52,0.47,1.35-0.06,1.84
	C30.52,33.13,29.74,33.12,29.23,32.64z M45.67,30.24c-0.66-0.28-0.97-1.04-0.69-1.7c0,0,0,0,0-0.01l5.86-13.43
	c0.29-0.66,1.06-0.96,1.72-0.68c0.66,0.28,0.96,1.04,0.68,1.7c0,0,0,0.01,0,0.01l-5.87,13.43c-0.21,0.48-0.68,0.78-1.2,0.78
	C46.01,30.34,45.83,30.31,45.67,30.24z M34.09,29.56l-5.86-13.43c-0.29-0.65,0.01-1.42,0.67-1.7c0,0,0.01,0,0.01,0
	c0.66-0.29,1.43,0.02,1.72,0.68l5.86,13.43c0.29,0.65-0.01,1.42-0.67,1.7c0,0-0.01,0-0.01,0c-0.16,0.07-0.34,0.11-0.52,0.11
	C34.78,30.34,34.3,30.04,34.09,29.56z M39.48,27.96V12.17c0-0.72,0.59-1.31,1.31-1.31s1.31,0.59,1.31,1.31v15.79
	c0,0.72-0.59,1.31-1.31,1.31S39.48,28.68,39.48,27.96L39.48,27.96z"/>
</svg>
