<?xml version="1.0" encoding="utf-8"?>
<!-- Generator: Adobe Illustrator 23.0.2, SVG Export Plug-In . SVG Version: 6.00 Build 0)  -->
<svg version="1.1" id="Layer_1" xmlns="http://www.w3.org/2000/svg" xmlns:xlink="http://www.w3.org/1999/xlink" x="0px" y="0px"
	 viewBox="0 0 100 100" style="enable-background:new 0 0 100 100;" xml:space="preserve">
<style type="text/css">
	.st0{fill:url(#XMLID_20_);}
	.st1{fill:url(#XMLID_21_);}
	.st2{fill:url(#XMLID_22_);}
	.st3{fill:url(#XMLID_23_);}
</style>
<g id="XMLID_12_">
	<linearGradient id="XMLID_20_" gradientUnits="userSpaceOnUse" x1="48.2238" y1="2.5652" x2="48.2238" y2="95.4381">
		<stop  offset="0" style="stop-color:#949494"/>
		<stop  offset="1" style="stop-color:#616261"/>
	</linearGradient>
	<path id="XMLID_18_" class="st0" d="M45.04,42.2c-0.59,0.16-0.93,0.76-0.78,1.35c0.13,0.49,0.58,0.82,1.06,0.82
		c0.09,0,0.19-0.01,0.29-0.04c1.79-0.48,3.64-0.72,5.51-0.72c0.61,0,1.1-0.49,1.1-1.1s-0.49-1.1-1.1-1.1
		C49.06,41.4,47.02,41.67,45.04,42.2z"/>
	<linearGradient id="XMLID_21_" gradientUnits="userSpaceOnUse" x1="32.9464" y1="2.5652" x2="32.9464" y2="95.4381">
		<stop  offset="0" style="stop-color:#949494"/>
		<stop  offset="1" style="stop-color:#616261"/>
	</linearGradient>
	<path id="XMLID_17_" class="st1" d="M36.42,46.58c-5.55,4.48-8.74,11.13-8.74,18.26c0,0.61,0.49,1.1,1.1,1.1s1.1-0.49,1.1-1.1
		c0-6.46,2.89-12.49,7.92-16.55c0.47-0.38,0.55-1.07,0.17-1.55C37.59,46.27,36.89,46.2,36.42,46.58z"/>
	<linearGradient id="XMLID_22_" gradientUnits="userSpaceOnUse" x1="49.6139" y1="2.5652" x2="49.6139" y2="95.4381">
		<stop  offset="0" style="stop-color:#949494"/>
		<stop  offset="1" style="stop-color:#616261"/>
	</linearGradient>
	<path id="XMLID_14_" class="st2" d="M98.66,41.42C97.03,27.2,84.13,16.96,69.9,18.59c-8.58,0.99-16.09,6.16-20.08,13.83
		c-0.08,0.16-0.14,0.32-0.18,0.49c-16.94,0.78-30.49,14.8-30.49,31.93c0,0.03,0,0.06,0,0.09C10.01,61.71,4.07,52.7,4.86,42.88
		c0.95-11.85,11.37-20.72,23.22-19.77c4.21,0.34,8.19,1.88,11.5,4.46c0.96,0.75,2.34,0.57,3.09-0.38c0.75-0.96,0.57-2.34-0.38-3.09
		C39,21.54,35.18,19.85,31.1,19.1c3.82-8.19,12.55-13.43,22.01-12.34c5.8,0.67,10.96,3.57,14.55,8.18c0.75,0.96,2.13,1.13,3.09,0.38
		c0.48-0.38,0.77-0.92,0.83-1.48c0.06-0.55-0.08-1.13-0.45-1.6C66.81,6.69,60.6,3.19,53.62,2.39C41.7,1.01,30.71,7.99,26.5,18.65
		C13.05,18.57,1.57,28.91,0.48,42.53c-1,12.47,7,23.85,19.04,27.12C21.84,85,35.13,96.81,51.12,96.81
		c17.63,0,31.97-14.34,31.97-31.97c0-16.48-12.53-30.08-28.56-31.78c3.46-5.6,9.29-9.33,15.88-10.09
		c11.81-1.36,22.53,7.15,23.89,18.96c0.67,5.8-0.99,11.49-4.66,16.02c-0.76,0.94-0.62,2.33,0.33,3.09c0.48,0.39,1.07,0.54,1.63,0.47
		c0.55-0.06,1.08-0.34,1.46-0.8C97.47,55.25,99.46,48.4,98.66,41.42z M78.69,64.84c0,15.2-12.37,27.57-27.57,27.57
		c-15.2,0-27.57-12.37-27.57-27.57s12.37-27.57,27.57-27.57C66.32,37.27,78.69,49.64,78.69,64.84z"/>
	<linearGradient id="XMLID_23_" gradientUnits="userSpaceOnUse" x1="50.8257" y1="2.5652" x2="50.8257" y2="95.4381">
		<stop  offset="0" style="stop-color:#949494"/>
		<stop  offset="1" style="stop-color:#616261"/>
	</linearGradient>
	<path id="XMLID_13_" class="st3" d="M57.73,59.93v-4.99h-13.7v16.08h4.91c0.09-0.56,0.33-0.99,0.72-1.3
		c0.39-0.3,0.87-0.45,1.46-0.45c0.64,0,1.14,0.21,1.49,0.64c0.35,0.43,0.53,1.03,0.53,1.82v4.5c0,0.81-0.2,1.44-0.61,1.88
		c-0.41,0.45-0.97,0.67-1.69,0.67c-0.73,0-1.29-0.25-1.68-0.76c-0.39-0.5-0.6-1.28-0.64-2.33v-0.02h-5.12v0.02
		c0.05,1.81,0.36,3.31,0.93,4.52c0.57,1.2,1.4,2.1,2.48,2.69c1.09,0.59,2.41,0.88,3.99,0.88c1.56,0,2.9-0.29,4.02-0.88
		c1.13-0.59,1.98-1.45,2.56-2.59c0.58-1.14,0.87-2.5,0.87-4.08v-4.5c0-1.57-0.23-2.92-0.69-4.04c-0.46-1.13-1.13-1.98-2-2.56
		c-0.88-0.58-1.92-0.87-3.14-0.87c-0.6,0-1.19,0.1-1.78,0.31c-0.58,0.21-1.08,0.5-1.5,0.86v-5.5H57.73z"/>
</g>
</svg>
