<?xml version="1.0" encoding="utf-8"?>
<!-- Generator: Adobe Illustrator 23.0.2, SVG Export Plug-In . SVG Version: 6.00 Build 0)  -->
<svg version="1.1" id="Layer_1" xmlns="http://www.w3.org/2000/svg" xmlns:xlink="http://www.w3.org/1999/xlink" x="0px" y="0px"
	 viewBox="0 0 100 100" style="enable-background:new 0 0 100 100;" xml:space="preserve">
<style type="text/css">
	.st0{fill:#FFFFFF;}
</style>
<g id="XMLID_19_">
	<path id="XMLID_26_" class="st0" d="M22.33,29.2c-0.02,0.23-0.04,0.46-0.04,0.7v39.63c0,4.26,3.37,7.7,7.56,7.7h0.3V92.9
		c0,3.37,2.73,6.1,6.1,6.1c3.37,0,6.1-2.73,6.1-6.1V77.23h15.31V92.9c0,3.37,2.73,6.1,6.1,6.1c3.37,0,6.1-2.73,6.1-6.1V77.23h0.3
		c4.19,0,7.56-3.43,7.56-7.7V29.9c0-0.24-0.01-0.47-0.03-0.7H22.33z"/>
	<path id="XMLID_25_" class="st0" d="M12.5,32.73c-3.37,0-6.1,2.73-6.1,6.1v26.16c0,3.37,2.73,6.1,6.1,6.1c3.37,0,6.1-2.73,6.1-6.1
		V38.83C18.6,35.46,15.87,32.73,12.5,32.73z"/>
	<path id="XMLID_24_" class="st0" d="M87.5,32.73c-3.37,0-6.1,2.73-6.1,6.1v26.16c0,3.37,2.73,6.1,6.1,6.1c3.37,0,6.1-2.73,6.1-6.1
		V38.83C93.6,35.46,90.87,32.73,87.5,32.73z"/>
	<path id="XMLID_20_" class="st0" d="M77.49,26.6c-0.08-5.77-2.51-11.05-6.5-15.15l5.21-9.02c0.26-0.46,0.11-1.04-0.35-1.3
		c-0.46-0.26-1.04-0.11-1.3,0.35l-4.98,8.62C65.26,6.3,59.5,3.75,53.06,3.13h-6.13C40.5,3.75,34.74,6.3,30.43,10.1l-4.98-8.62
		c-0.26-0.46-0.85-0.61-1.3-0.35c-0.46,0.26-0.61,0.85-0.35,1.3l5.21,9.02c-3.99,4.1-6.42,9.37-6.5,15.15H77.49z M59.05,15.69
		c0-1.7,1.4-3.08,3.14-3.09c1.74,0,3.16,1.37,3.16,3.07c0,0.01,0,0.01,0,0.02c0.01,1.7-1.4,3.08-3.14,3.09
		c-1.74,0-3.16-1.37-3.16-3.07C59.05,15.7,59.05,15.69,59.05,15.69z M35.5,15.69c0-1.7,1.4-3.08,3.15-3.09
		c1.74,0,3.16,1.37,3.16,3.07c0,0.01,0,0.01,0,0.02c0.01,1.7-1.4,3.08-3.15,3.09c-1.74,0-3.16-1.37-3.16-3.07
		C35.5,15.7,35.5,15.69,35.5,15.69z"/>
</g>
</svg>
