<?xml version="1.0" encoding="utf-8"?>
<!-- Generator: Adobe Illustrator 23.0.2, SVG Export Plug-In . SVG Version: 6.00 Build 0)  -->
<svg version="1.1" id="Layer_1" xmlns="http://www.w3.org/2000/svg" xmlns:xlink="http://www.w3.org/1999/xlink" x="0px" y="0px"
	 viewBox="0 0 100 100" style="enable-background:new 0 0 100 100;" xml:space="preserve">
<style type="text/css">
	.st0{fill-rule:evenodd;clip-rule:evenodd;fill:#FFFFFF;}
</style>
<path id="XMLID_9_" class="st0" d="M64.41,16.65c3.42-4.15,5.73-9.91,5.1-15.65c-4.93,0.2-10.9,3.28-14.44,7.42
	c-3.17,3.68-5.94,9.53-5.2,15.16C55.37,24.01,60.98,20.79,64.41,16.65z M76.75,53.08c-0.12-12.41,10.12-18.37,10.58-18.67
	c-5.76-8.42-14.73-9.58-17.92-9.71c-7.63-0.78-14.89,4.49-18.76,4.49c-3.86,0-9.84-4.38-16.17-4.27
	c-8.32,0.12-15.99,4.84-20.28,12.29c-8.64,14.99-2.21,37.21,6.21,49.38c4.12,5.95,9.03,12.64,15.47,12.4
	c6.21-0.25,8.55-4.02,16.06-4.02c7.5,0,9.61,4.02,16.18,3.89c6.68-0.12,10.91-6.06,14.99-12.03c4.73-6.91,6.67-13.6,6.79-13.94
	C89.76,72.83,76.89,67.9,76.75,53.08z"/>
</svg>
