<?xml version="1.0" encoding="utf-8"?>
<!-- Generator: Adobe Illustrator 24.3.0, SVG Export Plug-In . SVG Version: 6.00 Build 0)  -->
<svg version="1.1" id="Layer_1" xmlns="http://www.w3.org/2000/svg" xmlns:xlink="http://www.w3.org/1999/xlink" x="0px" y="0px"
	 viewBox="0 0 200 48" style="enable-background:new 0 0 200 48;" xml:space="preserve">
<style type="text/css">
	.st0{fill:url(#SVGID_1_);}
	.st1{fill:url(#SVGID_2_);}
	.st2{fill:#F6E51D;}
	.st3{fill:url(#SVGID_3_);}
	.st4{fill:url(#SVGID_4_);}
	.st5{fill:url(#SVGID_5_);}
	.st6{fill:#FFFFFF;}
</style>
<g>
	<g>
		<g>
			<path d="M30.6,15.8L22,17.1c-0.7-3.4-2.6-5-5.6-4.8c-4.8-0.1-7.3,4.2-7.5,13.1c2.1-2.9,5.2-4.4,9.4-4.5
				c8.1,0.5,12.5,4.8,13.3,13.1c-0.5,9-5.5,13.6-15.1,14C5.2,48.4-0.3,41.3,0,26.9c0.4-14,5.8-21.1,16.3-21.5
				C24,5.3,28.8,8.8,30.6,15.8z M22.8,34.5c-0.3-4.2-2.5-6.5-6.7-6.7c-4.2,0.1-6.5,2.2-6.7,6.3c0.2,4.6,2.6,7,7.1,7.3
				C20.3,41,22.4,38.7,22.8,34.5z"/>
			<path d="M43.7,26.1c-5-1.4-7.5-4.5-7.6-9.5c0.7-7.1,5.7-10.9,14.8-11.2c9.1,0.4,14,4,14.8,11c0.1,5-2.7,8.1-8.6,9.5v0.2
				c6.2,1.1,9.5,4.4,9.7,9.9c-0.1,8-5.7,12-16.8,12c-9.7-0.3-14.8-4-15.1-11.4C35,31.2,38,27.7,43.7,26.1z M57.4,36.2
				c0.1-3.4-2.2-5.6-6.9-6.7c-4.2,1.1-6.3,3.4-6.3,6.7c0.2,3.5,2.4,5.3,6.5,5.6C55,41.6,57.2,39.8,57.4,36.2z M56.2,16.9
				c-0.1-3.1-1.9-4.7-5.4-4.8c-3.5,0.1-5.3,1.7-5.4,4.8c-0.1,2.7,1.7,4.6,5.4,5.6C54.6,21.5,56.4,19.7,56.2,16.9z"/>
		</g>
		<g>
			
				<linearGradient id="SVGID_1_" gradientUnits="userSpaceOnUse" x1="15.7831" y1="44.6239" x2="15.7831" y2="2" gradientTransform="matrix(1 0 0 -1 0 50)">
				<stop  offset="0" style="stop-color:#075951"/>
				<stop  offset="0.746" style="stop-color:#0DA929"/>
			</linearGradient>
			<path class="st0" d="M30.6,15.8L22,17.1c-0.7-3.4-2.6-5-5.6-4.8c-4.8-0.1-7.3,4.2-7.5,13.1c2.1-2.9,5.2-4.4,9.4-4.5
				c8.1,0.5,12.5,4.8,13.3,13.1c-0.5,9-5.5,13.6-15.1,14C5.2,48.4-0.3,41.3,0,26.9c0.4-14,5.8-21.1,16.3-21.5
				C24,5.3,28.8,8.8,30.6,15.8z M22.8,34.5c-0.3-4.2-2.5-6.5-6.7-6.7c-4.2,0.1-6.5,2.2-6.7,6.3c0.2,4.6,2.6,7,7.1,7.3
				C20.3,41,22.4,38.7,22.8,34.5z"/>
			
				<linearGradient id="SVGID_2_" gradientUnits="userSpaceOnUse" x1="50.7506" y1="44.6571" x2="50.7506" y2="2.047" gradientTransform="matrix(1 0 0 -1 0 50)">
				<stop  offset="0" style="stop-color:#075951"/>
				<stop  offset="0.746" style="stop-color:#0DA929"/>
			</linearGradient>
			<path class="st1" d="M43.7,26.1c-5-1.4-7.5-4.5-7.6-9.5c0.7-7.1,5.7-10.9,14.8-11.2c9.1,0.4,14,4,14.8,11c0.1,5-2.7,8.1-8.6,9.5
				v0.2c6.2,1.1,9.5,4.4,9.7,9.9c-0.1,8-5.7,12-16.8,12c-9.7-0.3-14.8-4-15.1-11.4C35,31.2,38,27.7,43.7,26.1z M57.4,36.2
				c0.1-3.4-2.2-5.6-6.9-6.7c-4.2,1.1-6.3,3.4-6.3,6.7c0.2,3.5,2.4,5.3,6.5,5.6C55,41.6,57.2,39.8,57.4,36.2z M56.2,16.9
				c-0.1-3.1-1.9-4.7-5.4-4.8c-3.5,0.1-5.3,1.7-5.4,4.8c-0.1,2.7,1.7,4.6,5.4,5.6C54.6,21.5,56.4,19.7,56.2,16.9z"/>
		</g>
	</g>
	<g>
		<path class="st2" d="M30.6,12.3L22,13.6c-0.7-3.4-2.6-5-5.6-4.8C11.6,8.6,9.1,13,9,21.9c2.1-2.9,5.2-4.4,9.4-4.5
			c8.1,0.5,12.5,4.8,13.3,13.1c-0.5,9-5.5,13.6-15.1,14C5.2,44.9-0.3,37.8,0,23.4C0.4,9.5,5.8,2.3,16.3,1.9
			C24,1.8,28.8,5.3,30.6,12.3z M22.8,31c-0.3-4.2-2.5-6.5-6.7-6.7c-4.2,0.1-6.5,2.2-6.7,6.3c0.2,4.6,2.6,7,7.1,7.3
			C20.3,37.5,22.4,35.2,22.8,31z"/>
		<path class="st2" d="M43.7,22.6c-5-1.4-7.5-4.5-7.6-9.5C36.8,6,41.8,2.2,50.8,1.9c9.1,0.4,14,4,14.8,11c0.1,5-2.7,8.1-8.6,9.5v0.2
			c6.2,1.1,9.5,4.4,9.7,9.9c-0.1,8-5.7,12-16.8,12c-9.7-0.3-14.8-4-15.1-11.4C35,27.7,38,24.2,43.7,22.6z M57.4,32.7
			c0.1-3.4-2.2-5.6-6.9-6.7c-4.2,1.1-6.3,3.4-6.3,6.7c0.2,3.5,2.4,5.3,6.5,5.6C55,38.2,57.2,36.3,57.4,32.7z M56.2,13.4
			c-0.1-3.1-1.9-4.7-5.4-4.8c-3.5,0.1-5.3,1.7-5.4,4.8c-0.1,2.7,1.7,4.6,5.4,5.6C54.6,18,56.4,16.2,56.2,13.4z"/>
	</g>
	<g>
		<g>
			<path class="st2" d="M80.3,43.4v3.7h-9.2V3.5h9.1v18.7c2-3.2,5.2-4.8,9.7-4.8c7.7,0.4,11.7,5.2,12,14.6C102,42.6,97.7,48,89.1,48
				C85.2,48,82.3,46.5,80.3,43.4z M80.3,31.7v2.4c0.1,4.6,2.1,7,6,7.1c4.2,0.1,6.3-2.9,6.3-9.1c-0.3-5-2.3-7.6-6.2-7.8
				C82.5,24.3,80.4,26.8,80.3,31.7z"/>
			<path class="st2" d="M137.5,33.2v2.2h-23c0.4,4,2.9,6.2,7.5,6.5c3.4-0.1,5.5-1.4,6.3-3.7l9.7,1.1c-2.4,5.7-7.6,8.6-15.9,8.6
				c-10.7-0.4-16.3-5.2-16.8-14.6c0.4-10.4,5.6-15.7,15.7-16.1C131.9,17.3,137.4,22.6,137.5,33.2z M114.3,29.6h14.4
				c-0.4-3.9-2.7-6-7.1-6.3C117.1,23.5,114.7,25.6,114.3,29.6z"/>
			<path class="st2" d="M145.1,38.8V24.6h-4.7v-6.7h4.7V7.8l9-1.7v11.8h7.1v6.7h-7.1v12.1c0,3.1,1.2,4.6,3.5,4.5
				c0.9,0,1.7-0.2,2.6-0.7l1.9,5.8c-1.7,1.1-4.2,1.7-7.5,1.7C148.2,48.1,145,45,145.1,38.8z"/>
		</g>
		<g>
			
				<linearGradient id="SVGID_3_" gradientUnits="userSpaceOnUse" x1="86.5484" y1="46.5271" x2="86.5484" y2="2.047" gradientTransform="matrix(1 0 0 -1 0 50)">
				<stop  offset="0" style="stop-color:#075951"/>
				<stop  offset="0.746" style="stop-color:#0DA929"/>
			</linearGradient>
			<path class="st3" d="M80.3,43.4v3.7h-9.2V3.5h9.1v18.7c2-3.2,5.2-4.8,9.7-4.8c7.7,0.4,11.7,5.2,12,14.6C102,42.6,97.7,48,89.1,48
				C85.2,48,82.3,46.5,80.3,43.4z M80.3,31.7v2.4c0.1,4.6,2.1,7,6,7.1c4.2,0.1,6.3-2.9,6.3-9.1c-0.3-5-2.3-7.6-6.2-7.8
				C82.5,24.3,80.4,26.8,80.3,31.7z"/>
			
				<linearGradient id="SVGID_4_" gradientUnits="userSpaceOnUse" x1="121.695" y1="46.532" x2="121.695" y2="2.056" gradientTransform="matrix(1 0 0 -1 0 50)">
				<stop  offset="0" style="stop-color:#075951"/>
				<stop  offset="0.746" style="stop-color:#0DA929"/>
			</linearGradient>
			<path class="st4" d="M137.5,33.2v2.2h-23c0.4,4,2.9,6.2,7.5,6.5c3.4-0.1,5.5-1.4,6.3-3.7l9.7,1.1c-2.4,5.7-7.6,8.6-15.9,8.6
				c-10.7-0.4-16.3-5.2-16.8-14.6c0.4-10.4,5.6-15.7,15.7-16.1C131.9,17.3,137.4,22.6,137.5,33.2z M114.3,29.6h14.4
				c-0.4-3.9-2.7-6-7.1-6.3C117.1,23.5,114.7,25.6,114.3,29.6z"/>
			
				<linearGradient id="SVGID_5_" gradientUnits="userSpaceOnUse" x1="151.2982" y1="46.532" x2="151.2982" y2="2.056" gradientTransform="matrix(1 0 0 -1 0 50)">
				<stop  offset="0" style="stop-color:#075951"/>
				<stop  offset="0.746" style="stop-color:#0DA929"/>
			</linearGradient>
			<path class="st5" d="M145.1,38.8V24.6h-4.7v-6.7h4.7V7.8l9-1.7v11.8h7.1v6.7h-7.1v12.1c0,3.1,1.2,4.6,3.5,4.5
				c0.9,0,1.7-0.2,2.6-0.7l1.9,5.8c-1.7,1.1-4.2,1.7-7.5,1.7C148.2,48.1,145,45,145.1,38.8z"/>
		</g>
	</g>
	<g>
		<path class="st6" d="M80.3,40v3.7h-9.2V0h9.1v18.7c2-3.2,5.2-4.8,9.7-4.8c7.7,0.4,11.7,5.2,12,14.6c0,10.7-4.3,16.1-12.9,16.1
			C85.2,44.4,82.3,43,80.3,40z M80.3,28.2v2.4c0.1,4.6,2.1,7,6,7.1c4.2,0.1,6.3-2.9,6.3-9.1c-0.3-5-2.3-7.6-6.2-7.8
			C82.5,20.8,80.4,23.3,80.3,28.2z"/>
		<path class="st6" d="M137.5,29.7v2.2h-23c0.4,4,2.9,6.2,7.5,6.5c3.4-0.1,5.5-1.4,6.3-3.7l9.7,1.1c-2.4,5.7-7.6,8.6-15.9,8.6
			c-10.7-0.4-16.3-5.2-16.8-14.6c0.4-10.4,5.6-15.7,15.7-16.1C131.9,13.8,137.4,19.1,137.5,29.7z M114.3,26.1h14.4
			c-0.4-3.9-2.7-6-7.1-6.3C117.1,20,114.7,22.2,114.3,26.1z"/>
		<path class="st6" d="M145.1,35.3V21.1h-4.7v-6.7h4.7V4.3l9-1.7v11.8h7.1v6.7h-7.1v12.2c0,3.1,1.2,4.6,3.5,4.5
			c0.9,0,1.7-0.2,2.6-0.7l1.9,5.8c-1.7,1.1-4.2,1.7-7.5,1.7C148.2,44.6,145,41.5,145.1,35.3z"/>
	</g>
</g>
</svg>
