<svg version="1.1" id="Layer_1" xmlns="http://www.w3.org/2000/svg" x="0" y="0" viewBox="0 0 375 63" xml:space="preserve"><style>.st0{fill:#14a94b}</style><path class="st0" d="M66.4 58.8L15.5 0H0v63h63.3zM110.1 0H15.5l94.4.2zM374 0l-68.4 63H375V0z"/><path class="st0" d="M109.9.2L15.5 0l50.9 58.8z"/><linearGradient id="SVGID_1_" gradientUnits="userSpaceOnUse" x1="406.55" y1="-9.286" x2="406.55" y2="-10.286" gradientTransform="matrix(249.4678 0 0 -69.9839 -101358.469 -649.88)"><stop offset="0" stop-color="#0a6330"/><stop offset="1" stop-color="#0ce249"/></linearGradient><path fill="url(#SVGID_1_)" d="M109.9.2L15.5 0l50.9 58.8z"/><path class="st0" d="M305.6 63L374 0h-42.9l-68.5 63z"/><linearGradient id="SVGID_2_" gradientUnits="userSpaceOnUse" x1="406.958" y1="-9.286" x2="406.958" y2="-10.286" gradientTransform="matrix(206.5684 0 0 -69.9839 -83746.406 -649.88)"><stop offset="0" stop-color="#0a6330"/><stop offset="1" stop-color="#0ce249"/></linearGradient><path fill="url(#SVGID_2_)" d="M305.6 63L374 0h-42.9l-68.5 63z"/><path class="st0" d="M63.3 63H70l-3.6-4.2z"/><linearGradient id="SVGID_3_" gradientUnits="userSpaceOnUse" x1="406.42" y1="-9.724" x2="406.42" y2="-10.724" gradientTransform="matrix(268.1338 0 0 -63.5 -108908.14 -617.46)"><stop offset="0" stop-color="#1a7c43"/><stop offset="1" stop-color="#22af4b"/></linearGradient><path fill="url(#SVGID_3_)" d="M63.3 63H70l-3.6-4.2z"/><path class="st0" d="M208.6.5l10.1 12.4L230.2 0H110.1l-.2.2z"/><path class="st0" d="M208.6.5L109.9.2 66.4 58.8 70 63h103.8l44.9-50.1z"/><linearGradient id="SVGID_4_" gradientUnits="userSpaceOnUse" x1="406.87" y1="-9.286" x2="406.87" y2="-10.286" gradientTransform="matrix(249.4678 0 0 -69.9839 -101358.469 -649.88)"><stop offset="0" stop-color="#0d6333"/><stop offset="1" stop-color="#5aba47"/></linearGradient><path fill="url(#SVGID_4_)" d="M208.6.5L109.9.2 66.4 58.8 70 63h103.8l44.9-50.1z"/><path class="st0" d="M259.3 63h3.3l68.5-63H230.2l-11.5 12.9z"/><linearGradient id="SVGID_5_" gradientUnits="userSpaceOnUse" x1="406.748" y1="-9.286" x2="406.748" y2="-10.286" gradientTransform="matrix(206.5684 0 0 -69.9839 -83746.406 -649.88)"><stop offset="0" stop-color="#0d6333"/><stop offset="1" stop-color="#5aba47"/></linearGradient><path fill="url(#SVGID_5_)" d="M259.3 63h3.3l68.5-63H230.2l-11.5 12.9z"/><path class="st0" d="M218.7 12.9L173.8 63h85.5z"/><linearGradient id="SVGID_6_" gradientUnits="userSpaceOnUse" x1="407.167" y1="-9.286" x2="407.167" y2="-10.286" gradientTransform="matrix(249.4678 0 0 -69.9839 -101358.469 -649.88)"><stop offset="0" stop-color="#0d6333"/><stop offset="1" stop-color="#5aba47"/></linearGradient><path fill="url(#SVGID_6_)" d="M218.7 12.9L173.8 63h85.5z"/><linearGradient id="SVGID_7_" gradientUnits="userSpaceOnUse" x1="406.466" y1="-9.286" x2="406.466" y2="-10.286" gradientTransform="matrix(206.5684 0 0 -69.9839 -83746.406 -649.88)"><stop offset="0" stop-color="#0d6333"/><stop offset="1" stop-color="#5aba47"/></linearGradient><path fill="url(#SVGID_7_)" d="M218.7 12.9L173.8 63h85.5z"/><linearGradient id="SVGID_8_" gradientUnits="userSpaceOnUse" x1="198.75" y1="79.223" x2="198.75" y2="-.628"><stop offset="0" stop-color="#1a7c43"/><stop offset="1" stop-color="#22af4b"/></linearGradient><path fill="url(#SVGID_8_)" d="M230.2 0H110.1l-.2.2-43.5 58.6L70 63h192.6l68.5-63z"/></svg>