<svg xmlns="http://www.w3.org/2000/svg" xmlns:xlink="http://www.w3.org/1999/xlink" width="576" height="36" viewBox="0 0 576 36"><defs><clipPath id="b"><rect width="576" height="36"/></clipPath></defs><g id="a" clip-path="url(#b)"><path d="M42.441,37.625a8.169,8.169,0,0,0-2.818-10.108,7.713,7.713,0,0,1-3.275-3.759,1.72,1.72,0,0,0-.489,2.593C32.6,25.411,32.6,20,32.6,20s-4.284,2.142-3.532,4.7-.714,3.532-.714,3.532a3.315,3.315,0,0,0-1.161-2.818,5.342,5.342,0,0,1-1.879,3.044A7.352,7.352,0,0,0,22.49,35.97c.714,4.472,5.862,6.576,7.1,6.5a3.194,3.194,0,0,0-.864-4.134c-2.255-1.879-.037-5.149-.037-5.149s-.864,2.781,1.353,3.344c0,0-2.1-2.517,3.5-6.351a1.24,1.24,0,0,0-.075-1.766l-.116-.075-.188-.116s4.4.939-.188,6.915a2.339,2.339,0,0,0,1.24,3.16,2.151,2.151,0,0,0,2.1-2.255,1.353,1.353,0,0,0-.075-.413c-.526-2.439-.15-3.006.075-3.27a3.5,3.5,0,0,0,1.052,3.5c1.766,1.8,1.2,4.735-2.4,6.689C38.759,42.1,41.276,40.33,42.441,37.625Z" transform="translate(-14.783 -13.273)" fill="#f6e51d"/><path d="M20.163,38.1a18,18,0,1,1,12.75-5.259A18,18,0,0,1,20.163,38.1Zm0-34.5a16.5,16.5,0,1,0,11.69,4.823A16.5,16.5,0,0,0,20.163,3.6Z" transform="translate(-2.2 -2.1)" fill="#f6e51d"/><g transform="translate(36)"><path d="M42.436,37.624a8.169,8.169,0,0,0-2.818-10.109c-2.781-1.917-3.269-3.758-3.269-3.758a1.719,1.719,0,0,0-.489,2.593C32.59,25.411,32.59,20,32.59,20s-4.284,2.142-3.532,4.7-.714,3.532-.714,3.532a3.315,3.315,0,0,0-1.165-2.818A5.336,5.336,0,0,1,25.3,28.455a7.351,7.351,0,0,0-2.818,7.516c.714,4.472,5.862,6.576,7.1,6.5a3.194,3.194,0,0,0-.864-4.134c-2.255-1.879-.038-5.148-.038-5.148s-.864,2.781,1.353,3.345c0,0-2.1-2.518,3.495-6.351a1.24,1.24,0,0,0-.075-1.766l-.113-.075-.188-.113s4.4.939-.188,6.914a2.339,2.339,0,0,0,1.24,3.157,2.151,2.151,0,0,0,2.1-2.255,1.353,1.353,0,0,0-.075-.413c-.526-2.443-.15-3.006.075-3.269a3.5,3.5,0,0,0,1.052,3.495c1.766,1.8,1.2,4.735-2.405,6.689C38.753,42.1,41.271,40.33,42.436,37.624Z" transform="translate(-14.778 -13.273)" fill="#fff"/><path d="M20.163,38.1A18,18,0,1,1,38.2,20.1,18,18,0,0,1,20.163,38.1Zm0-34.5A16.5,16.5,0,1,0,36.7,20.1,16.5,16.5,0,0,0,20.163,3.6Z" transform="translate(-2.2 -2.1)" fill="#fff"/></g><g transform="translate(72)"><path d="M31.274,20A11.2,11.2,0,0,0,20,31.16a11.048,11.048,0,0,0,.451,3.156A21.156,21.156,0,0,0,24.7,28.6c2.931-5.3,3.082-6.463,4.1-6.463s.9.939.827,2.555.188,9.77.338,10.56,1.053,1.349,1.655.188,3.307-6.764,4.171-8,2.1-1.428,2.4.639.376,4.509,1.766,6.463c.526.751-.075,1.128-.376.827a8.117,8.117,0,0,1-2.706-4.547s-3.006,6.238-4.81,7.4-4.021.338-4.247-2.706c-.116-1.654-.116-2.142-.116-2.142l-.152-4.921-5.6,9.132A11.274,11.274,0,1,0,31.274,20Z" transform="translate(-13.31 -13.273)" fill="#f6e51d"/><path d="M20.163,38.1a18,18,0,1,1,12.75-5.259A18,18,0,0,1,20.163,38.1Zm0-34.5a16.5,16.5,0,1,0,11.69,4.823A16.5,16.5,0,0,0,20.163,3.6Z" transform="translate(-2.2 -2.1)" fill="#f6e51d"/></g><g transform="translate(108)"><path d="M31.274,20A11.2,11.2,0,0,0,20,31.16a11.048,11.048,0,0,0,.451,3.157A21.156,21.156,0,0,0,24.7,28.605c2.931-5.3,3.081-6.464,4.1-6.464s.9.939.827,2.555.188,9.77.338,10.56,1.052,1.353,1.653.188,3.307-6.764,4.171-8,2.1-1.428,2.405.639.376,4.509,1.766,6.464c.526.752-.075,1.127-.376.827a8.117,8.117,0,0,1-2.706-4.547s-3.006,6.238-4.81,7.4-4.021.338-4.246-2.706c-.113-1.653-.113-2.142-.113-2.142l-.15-4.923-5.6,9.132A11.274,11.274,0,1,0,31.274,20Z" transform="translate(-13.311 -13.273)" fill="#fff"/><path d="M20.163,38.1A18,18,0,1,1,38.2,20.1,18,18,0,0,1,20.163,38.1Zm0-34.5A16.5,16.5,0,1,0,36.7,20.1,16.5,16.5,0,0,0,20.163,3.6Z" transform="translate(-2.2 -2.1)" fill="#fff"/></g><g transform="translate(144)"><path d="M37.273,36.887c-.639-.6-.489-2.555,1.353-4.4a19.487,19.487,0,0,0,3.983-7.29,25.4,25.4,0,0,1-7.929,3.87c-3.5.827-6.539,1.353-10.6,4.885S20.1,43.839,20.1,43.839A7.208,7.208,0,0,1,23.031,40.8c1.842-.827,3.532-.6,5.937-1.052s3.42-2.932,3.72-4.325.977-2.818,2.03-2.555,1.015,1.541.714,2.63-.413,1.954-2.555,4.1-6.651,3.043-6.651,3.043,2.368.827,6.764-.827a14.358,14.358,0,0,0,6.088-3.832,3.716,3.716,0,0,1-1.806-1.087Zm-9.733,1.8a3.636,3.636,0,0,1-4.322-1.052,4.67,4.67,0,0,1,1.542-1.988c.714-.413.677.6,1.578.526S27.427,34.9,27.5,33.738c0,0,2.067-.751,2.4.79a3.42,3.42,0,0,1-2.363,4.163Z" transform="translate(-13.373 -16.519)" fill="#f6e51d"/><path d="M20.163,38.1a18,18,0,1,1,12.75-5.259A18,18,0,0,1,20.163,38.1Zm0-34.5a16.5,16.5,0,1,0,11.69,4.823A16.5,16.5,0,0,0,20.163,3.6Z" transform="translate(-2.2 -2.1)" fill="#f6e51d"/></g><g transform="translate(180)"><path d="M37.273,36.887c-.639-.6-.489-2.555,1.353-4.4A19.487,19.487,0,0,0,42.61,25.2a25.4,25.4,0,0,1-7.929,3.871c-3.495.827-6.539,1.353-10.6,4.885S20.1,43.839,20.1,43.839A7.208,7.208,0,0,1,23.031,40.8c1.841-.827,3.532-.6,5.937-1.052s3.42-2.931,3.72-4.322.977-2.818,2.029-2.555,1.015,1.541.714,2.631-.413,1.954-2.555,4.1-6.651,3.044-6.651,3.044,2.367.827,6.764-.827,6.088-3.833,6.088-3.833A3.716,3.716,0,0,1,37.273,36.887Zm-9.733,1.8a3.636,3.636,0,0,1-4.322-1.052,4.67,4.67,0,0,1,1.541-1.992c.714-.413.676.6,1.578.526S27.428,34.9,27.5,33.73c0,0,2.067-.752,2.405.789A3.42,3.42,0,0,1,27.54,38.691Z" transform="translate(-13.373 -16.519)" fill="#fff"/><path d="M20.163,38.1A18,18,0,1,1,38.2,20.1,18,18,0,0,1,20.163,38.1Zm0-34.5A16.5,16.5,0,1,0,36.7,20.1,16.5,16.5,0,0,0,20.163,3.6Z" transform="translate(-2.2 -2.1)" fill="#fff"/></g><g transform="translate(540)"><path d="M22.916,21.288,14.01,12.629,19.655,6.8a1.009,1.009,0,0,0,.247.022A1.378,1.378,0,0,0,20.915,6.4l1.147-1.192a1.415,1.415,0,0,0-2.024-1.979L18.89,4.42a1.419,1.419,0,0,0-.36,1.3l-5.623,5.8-1.642-1.6a3.558,3.558,0,0,0-.945-3.621L7.487,3.61A3.613,3.613,0,0,0,4,2.733L7.173,5.792a1.806,1.806,0,0,1,.045,2.541,1.827,1.827,0,0,1-1.282.54,1.751,1.751,0,0,1-1.259-.517L1.5,5.319A3.553,3.553,0,0,0,2.472,8.76L5.306,11.5a3.579,3.579,0,0,0,2.5,1.012,3.765,3.765,0,0,0,1.1-.18l1.012.99L2.809,20.681a1.67,1.67,0,0,0,.022,2.362A1.657,1.657,0,0,0,5.193,23l7.13-7.355L20.6,23.672a1.662,1.662,0,1,0,2.317-2.384Z" transform="translate(5.577 4.657)" fill="#f6e51d"/><g transform="translate(0 0)" fill="none"><path d="M18,0A18,18,0,1,1,0,18,18,18,0,0,1,18,0Z" stroke="none"/><path d="M 17.99858856201172 1.500003814697266 C 13.5916576385498 1.500003814697266 9.448497772216797 3.216152191162109 6.332319259643555 6.33232307434082 C 3.216148376464844 9.448501586914063 1.5 13.59166145324707 1.5 17.99859237670898 C 1.5 22.40552139282227 3.216148376464844 26.54868316650391 6.332319259643555 29.66486167907715 C 9.448497772216797 32.78103256225586 13.5916576385498 34.4971809387207 17.99858856201172 34.4971809387207 C 22.405517578125 34.4971809387207 26.54867935180664 32.78103256225586 29.66485786437988 29.66486167907715 C 32.78102874755859 26.54868316650391 34.49717712402344 22.40552139282227 34.49717712402344 17.99859237670898 C 34.49717712402344 13.59166145324707 32.78102874755859 9.448501586914063 29.66485786437988 6.33232307434082 C 26.54867935180664 3.216152191162109 22.405517578125 1.500003814697266 17.99858856201172 1.500003814697266 M 17.99858856201172 3.814697265625e-06 C 27.93893814086914 3.814697265625e-06 35.99717712402344 8.058242797851563 35.99717712402344 17.99859237670898 C 35.99717712402344 27.93894195556641 27.93893814086914 35.9971809387207 17.99858856201172 35.9971809387207 C 8.058238983154297 35.9971809387207 0 27.93894195556641 0 17.99859237670898 C 0 8.058242797851563 8.058238983154297 3.814697265625e-06 17.99858856201172 3.814697265625e-06 Z" stroke="none" fill="#f6e51d"/></g></g><g transform="translate(360)"><path d="M38.139,26.361a10.259,10.259,0,0,0-3.5-.79,18.9,18.9,0,0,0-6.915,1.089,1.24,1.24,0,0,1-1.24-.188l-1.917-1.239a1.439,1.439,0,0,0-1.541-.188,1.5,1.5,0,0,0-.714,1.428c.037.714,0,1.428.037,2.142a.751.751,0,0,1-.413.714,19.691,19.691,0,0,0-2.292,1.654,13.374,13.374,0,0,0-4.509,5.787A4.581,4.581,0,0,0,18.221,43.2a10.219,10.219,0,0,0,3.758.526,10.3,10.3,0,0,0,2.368-.15,24.839,24.839,0,0,0,12.965-6.238,11.527,11.527,0,0,0,3.5-5.3A4.709,4.709,0,0,0,38.139,26.361Zm-13.867.977c.376-.264.714-.075,1.052.15l6.27,3.948c.9.6.9,1.2-.037,1.766l-6.2,3.8c-.9.526-1.5.188-1.541-.827V32.188h0V28.315a1.015,1.015,0,0,1,.456-.977Zm4.7,13.528a13.934,13.934,0,0,1-6.989,1.991,7.027,7.027,0,0,1-1.277-.116,3.383,3.383,0,0,1-2.818-4.134h0c-.037-.188,0-.413.188-.451s.037.188.037.3a3.615,3.615,0,0,0,2.818,2.857,12.562,12.562,0,0,0,7.065-.338l.714-.225a.563.563,0,0,1,.639-.116.451.451,0,0,1-.376.231ZM35.921,32.3a9.587,9.587,0,0,1-3.082,4.584,14.885,14.885,0,0,1-8.229,4.064,5.486,5.486,0,0,1-2.067-.075,2.606,2.606,0,0,1-2.03-3.269,8.568,8.568,0,0,1,1.8-3.532c0,1.465.037,2.743,0,4.021a1.53,1.53,0,0,0,.714,1.5c.6.338,1.09.037,1.578-.264l9.207-5.636c1.316-.827,1.316-1.842-.037-2.593L30.17,29a5.915,5.915,0,0,1,4.735.075c1.51.821,1.428,1.8,1.015,3.227Zm-5.937-4.321c-.9.15-.9.188-1.393-.3,2.255-.9,4.509-1.616,6.952-.977A3.146,3.146,0,0,1,38.1,29.968C35.921,27.15,32.953,27.488,29.983,27.977Z" transform="translate(-10.029 -16.327)" fill="#f6e51d"/><path d="M20.163,38.1a18,18,0,1,1,12.75-5.259A18,18,0,0,1,20.163,38.1Zm0-34.5a16.5,16.5,0,1,0,11.69,4.823A16.5,16.5,0,0,0,20.163,3.6Z" transform="translate(-2.2 -2.1)" fill="#f6e51d"/></g><g transform="translate(288)"><path d="M35.985,36.691h-.413c-1.2.075-3.457.977-3.909,2.969A3.983,3.983,0,0,0,35.611,44.4c2.857,0,3.682-1.691,3.682-1.691s-.639,2.4-2.671,2.63A7.528,7.528,0,0,1,31.85,44.4l-.489-.264-.677-.413a1.842,1.842,0,0,0,.225-.639,4.4,4.4,0,0,0,0-2.781,4.961,4.961,0,0,0-9.095-1.089,4.81,4.81,0,0,0-.677,2.217v.526a5.149,5.149,0,0,0,.489,1.879,6.426,6.426,0,0,1-1.766,1.015,5.937,5.937,0,0,1-2.217.489h-.152a3.645,3.645,0,1,1,0-7.29,3.682,3.682,0,0,1,3.156,1.766l.714-1.277-.451-.489a4.993,4.993,0,1,0-3.42,8.644h.264a8.68,8.68,0,0,0,4.584-1.766,4.885,4.885,0,0,0,3.8,1.766,4.961,4.961,0,0,0,3.909-1.916h0a10.726,10.726,0,0,0,5.675,1.916,5,5,0,1,0,.264-10Zm-.225,6.463a2.584,2.584,0,1,1,0-5.109,2.584,2.584,0,1,1,0,5.109Zm-6.2-.15a5.448,5.448,0,0,0-2.63-.864,5.944,5.944,0,0,0-3.42.6l.79,1.052a5.037,5.037,0,0,1,4.547.338,3.532,3.532,0,0,1-2.706,1.2,3.608,3.608,0,0,1-3.645-3.383v-.526a3.647,3.647,0,1,1,7.29.264,3.87,3.87,0,0,1-.225,1.316Z" transform="translate(-8.627 -23.689)" fill="#f6e51d"/><path d="M20.163,38.1a18,18,0,1,1,12.75-5.259A18,18,0,0,1,20.163,38.1Zm0-34.5a16.5,16.5,0,1,0,11.69,4.823A16.5,16.5,0,0,0,20.163,3.6Z" transform="translate(-2.2 -2.1)" fill="#f6e51d"/></g><g transform="translate(216)"><path d="M40.549,37.3H38.257a.451.451,0,0,0-.451.451v.977a.451.451,0,0,0,.451.451h1.954a2.787,2.787,0,0,1,2.781,2.781v.413a2.787,2.787,0,0,1-2.781,2.781H37.242V37.3H35.4v9.545h5.149a4.171,4.171,0,0,0,4.171-4.171v-1.2A4.171,4.171,0,0,0,40.549,37.3Z" transform="translate(-22.924 -24.073)" fill="#f6e51d"/><path d="M71.27,40.382v-.451A2.593,2.593,0,0,0,68.677,37.3H64.613A3.119,3.119,0,0,0,61.5,40.419v6.426h7.478a2.292,2.292,0,0,0,2.292-2.292v-.79a1.879,1.879,0,0,0-1.089-1.691A1.879,1.879,0,0,0,71.27,40.382Zm-2.857,4.773h-5.26V43.087h5.261a1.052,1.052,0,1,1,0,2.067Zm0-3.983h-5.26v-.527A1.541,1.541,0,0,1,64.694,39.1H68.41a1.052,1.052,0,1,1,0,2.067Z" transform="translate(-39.215 -24.073)" fill="#f6e51d"/><path d="M18.887,37.3H17.609a.451.451,0,0,0-.413.451v.977a.413.413,0,0,0,.413.451h1.277v4.584a1.428,1.428,0,0,1-1.393,1.393H12.5v1.69h5.6a2.671,2.671,0,0,0,2.63-2.63V37.3Z" transform="translate(-8.63 -24.073)" fill="#f6e51d"/><path d="M20.163,38.1a18,18,0,1,1,12.75-5.259A18,18,0,0,1,20.163,38.1Zm0-34.5a16.5,16.5,0,1,0,11.69,4.823A16.5,16.5,0,0,0,20.163,3.6Z" transform="translate(-2.2 -2.1)" fill="#f6e51d"/></g><g transform="translate(432)"><rect width="1.052" height="1.033" transform="translate(6.013 12.025)" fill="#f6e51d"/><rect width="1.052" height="1.033" transform="translate(7.253 12.025)" fill="#f6e51d"/><rect width="1.052" height="1.033" transform="translate(8.455 12.025)" fill="#f6e51d"/><rect width="1.052" height="1.033" transform="translate(9.658 12.025)" fill="#f6e51d"/><rect width="1.052" height="1.033" transform="translate(10.861 12.025)" fill="#f6e51d"/><rect width="1.052" height="1.033" transform="translate(12.063 12.025)" fill="#f6e51d"/><rect width="1.052" height="1.033" transform="translate(13.266 12.025)" fill="#f6e51d"/><rect width="1.052" height="1.033" transform="translate(14.467 12.025)" fill="#f6e51d"/><rect width="1.052" height="1.033" transform="translate(4.81 13.266)" fill="#f6e51d"/><rect width="1.052" height="1.033" transform="translate(6.013 13.266)" fill="#f6e51d"/><rect width="1.052" height="1.033" transform="translate(7.253 13.266)" fill="#f6e51d"/><rect width="1.052" height="1.033" transform="translate(8.455 13.266)" fill="#f6e51d"/><rect width="1.052" height="1.033" transform="translate(9.658 13.266)" fill="#f6e51d"/><rect width="1.052" height="1.033" transform="translate(10.861 13.266)" fill="#f6e51d"/><rect width="1.052" height="1.033" transform="translate(12.063 13.266)" fill="#f6e51d"/><rect width="1.052" height="1.033" transform="translate(13.266 13.266)" fill="#f6e51d"/><rect width="1.052" height="1.033" transform="translate(14.467 13.266)" fill="#f6e51d"/><rect width="1.052" height="1.033" transform="translate(4.81 14.467)" fill="#f6e51d"/><rect width="1.052" height="1.033" transform="translate(6.013 14.467)" fill="#f6e51d"/><rect width="1.052" height="1.033" transform="translate(13.266 14.467)" fill="#f6e51d"/><rect width="1.052" height="1.033" transform="translate(14.467 14.467)" fill="#f6e51d"/><rect width="1.052" height="1.033" transform="translate(15.67 14.467)" fill="#f6e51d"/><rect width="1.052" height="1.033" transform="translate(4.81 15.67)" fill="#f6e51d"/><rect width="1.052" height="1.033" transform="translate(6.013 15.67)" fill="#f6e51d"/><rect width="1.052" height="1.033" transform="translate(14.467 15.67)" fill="#f6e51d"/><rect width="1.052" height="1.033" transform="translate(15.67 15.67)" fill="#f6e51d"/><rect width="1.052" height="1.033" transform="translate(4.81 16.873)" fill="#f6e51d"/><rect width="1.052" height="1.033" transform="translate(6.013 16.873)" fill="#f6e51d"/><rect width="1.052" height="1.033" transform="translate(14.467 16.873)" fill="#f6e51d"/><rect width="1.052" height="1.033" transform="translate(15.67 16.873)" fill="#f6e51d"/><rect width="1.052" height="1.033" transform="translate(4.81 18.075)" fill="#f6e51d"/><rect width="1.052" height="1.033" transform="translate(6.013 18.075)" fill="#f6e51d"/><rect width="1.052" height="1.033" transform="translate(13.266 18.075)" fill="#f6e51d"/><rect width="1.052" height="1.033" transform="translate(14.467 18.075)" fill="#f6e51d"/><rect width="1.052" height="1.033" transform="translate(15.67 18.075)" fill="#f6e51d"/><rect width="1.052" height="1.033" transform="translate(4.81 19.315)" fill="#f6e51d"/><rect width="1.052" height="1.033" transform="translate(6.013 19.315)" fill="#f6e51d"/><rect width="1.052" height="1.033" transform="translate(7.253 19.315)" fill="#f6e51d"/><rect width="1.052" height="1.033" transform="translate(8.455 19.315)" fill="#f6e51d"/><rect width="1.052" height="1.033" transform="translate(9.658 19.315)" fill="#f6e51d"/><rect width="1.052" height="1.033" transform="translate(10.861 19.315)" fill="#f6e51d"/><rect width="1.052" height="1.033" transform="translate(12.063 19.315)" fill="#f6e51d"/><rect width="1.052" height="1.033" transform="translate(13.266 19.315)" fill="#f6e51d"/><rect width="1.052" height="1.033" transform="translate(14.467 19.315)" fill="#f6e51d"/><rect width="1.052" height="1.033" transform="translate(4.81 20.518)" fill="#f6e51d"/><rect width="1.052" height="1.033" transform="translate(6.013 20.518)" fill="#f6e51d"/><rect width="1.052" height="1.033" transform="translate(7.253 20.518)" fill="#f6e51d"/><rect width="1.052" height="1.033" transform="translate(8.455 20.518)" fill="#f6e51d"/><rect width="1.052" height="1.033" transform="translate(9.658 20.518)" fill="#f6e51d"/><rect width="1.052" height="1.033" transform="translate(10.861 20.518)" fill="#f6e51d"/><rect width="1.052" height="1.033" transform="translate(12.063 20.518)" fill="#f6e51d"/><rect width="1.052" height="1.033" transform="translate(4.81 21.72)" fill="#f6e51d"/><rect width="1.052" height="1.033" transform="translate(6.013 21.72)" fill="#f6e51d"/><rect width="1.052" height="1.033" transform="translate(4.81 22.923)" fill="#f6e51d"/><rect width="1.052" height="1.033" transform="translate(6.013 22.923)" fill="#f6e51d"/><rect width="1.052" height="1.033" transform="translate(21.646 12.025)" fill="#f6e51d"/><rect width="1.052" height="1.033" transform="translate(22.848 12.025)" fill="#f6e51d"/><rect width="1.052" height="1.033" transform="translate(24.088 12.025)" fill="#f6e51d"/><rect width="1.052" height="1.033" transform="translate(25.291 12.025)" fill="#f6e51d"/><rect width="1.052" height="1.033" transform="translate(26.493 12.025)" fill="#f6e51d"/><rect width="1.052" height="1.033" transform="translate(20.443 13.266)" fill="#f6e51d"/><rect width="1.052" height="1.033" transform="translate(21.646 13.266)" fill="#f6e51d"/><rect width="1.052" height="1.033" transform="translate(22.848 13.266)" fill="#f6e51d"/><rect width="1.052" height="1.033" transform="translate(24.088 13.266)" fill="#f6e51d"/><rect width="1.052" height="1.033" transform="translate(25.291 13.266)" fill="#f6e51d"/><rect width="1.052" height="1.033" transform="translate(26.493 13.266)" fill="#f6e51d"/><rect width="1.052" height="1.033" transform="translate(27.696 13.266)" fill="#f6e51d"/><rect width="1.052" height="1.033" transform="translate(28.898 13.266)" fill="#f6e51d"/><rect width="1.052" height="1.033" transform="translate(19.24 14.467)" fill="#f6e51d"/><rect width="1.052" height="1.033" transform="translate(20.443 14.467)" fill="#f6e51d"/><rect width="1.052" height="1.033" transform="translate(21.646 14.467)" fill="#f6e51d"/><rect width="1.052" height="1.033" transform="translate(27.696 14.467)" fill="#f6e51d"/><rect width="1.052" height="1.033" transform="translate(28.898 14.467)" fill="#f6e51d"/><rect width="1.052" height="1.033" transform="translate(19.24 15.67)" fill="#f6e51d"/><rect width="1.052" height="1.033" transform="translate(20.443 15.67)" fill="#f6e51d"/><rect width="1.052" height="1.033" transform="translate(19.24 16.873)" fill="#f6e51d"/><rect width="1.052" height="1.033" transform="translate(20.443 16.873)" fill="#f6e51d"/><rect width="1.052" height="1.033" transform="translate(25.291 16.873)" fill="#f6e51d"/><rect width="1.052" height="1.033" transform="translate(26.493 16.873)" fill="#f6e51d"/><rect width="1.052" height="1.033" transform="translate(27.696 16.873)" fill="#f6e51d"/><rect width="1.052" height="1.033" transform="translate(28.898 16.873)" fill="#f6e51d"/><rect width="1.052" height="1.033" transform="translate(30.101 16.873)" fill="#f6e51d"/><rect width="1.052" height="1.033" transform="translate(19.24 18.075)" fill="#f6e51d"/><rect width="1.052" height="1.033" transform="translate(20.443 18.075)" fill="#f6e51d"/><rect width="1.052" height="1.033" transform="translate(25.291 18.075)" fill="#f6e51d"/><rect width="1.052" height="1.033" transform="translate(26.493 18.075)" fill="#f6e51d"/><rect width="1.052" height="1.033" transform="translate(27.696 18.075)" fill="#f6e51d"/><rect width="1.052" height="1.033" transform="translate(28.898 18.075)" fill="#f6e51d"/><rect width="1.052" height="1.033" transform="translate(30.101 18.075)" fill="#f6e51d"/><rect width="1.052" height="1.033" transform="translate(19.24 19.315)" fill="#f6e51d"/><rect width="1.052" height="1.033" transform="translate(20.443 19.315)" fill="#f6e51d"/><rect width="1.052" height="1.033" transform="translate(28.898 19.315)" fill="#f6e51d"/><rect width="1.052" height="1.033" transform="translate(30.101 19.315)" fill="#f6e51d"/><rect width="1.052" height="1.033" transform="translate(19.24 20.518)" fill="#f6e51d"/><rect width="1.052" height="1.033" transform="translate(20.443 20.518)" fill="#f6e51d"/><rect width="1.052" height="1.033" transform="translate(21.646 20.518)" fill="#f6e51d"/><rect width="1.052" height="1.033" transform="translate(27.696 20.518)" fill="#f6e51d"/><rect width="1.052" height="1.033" transform="translate(28.898 20.518)" fill="#f6e51d"/><rect width="1.052" height="1.033" transform="translate(30.101 20.518)" fill="#f6e51d"/><rect width="1.052" height="1.033" transform="translate(20.443 21.72)" fill="#f6e51d"/><rect width="1.052" height="1.033" transform="translate(21.646 21.72)" fill="#f6e51d"/><rect width="1.052" height="1.033" transform="translate(22.848 21.72)" fill="#f6e51d"/><rect width="1.052" height="1.033" transform="translate(24.088 21.72)" fill="#f6e51d"/><rect width="1.052" height="1.033" transform="translate(25.291 21.72)" fill="#f6e51d"/><rect width="1.052" height="1.033" transform="translate(26.493 21.72)" fill="#f6e51d"/><rect width="1.052" height="1.033" transform="translate(27.696 21.72)" fill="#f6e51d"/><rect width="1.052" height="1.033" transform="translate(28.898 21.72)" fill="#f6e51d"/><rect width="1.052" height="1.033" transform="translate(21.646 22.923)" fill="#f6e51d"/><rect width="1.052" height="1.033" transform="translate(22.848 22.923)" fill="#f6e51d"/><rect width="1.052" height="1.033" transform="translate(24.088 22.923)" fill="#f6e51d"/><rect width="1.052" height="1.033" transform="translate(25.291 22.923)" fill="#f6e51d"/><rect width="1.052" height="1.033" transform="translate(26.493 22.923)" fill="#f6e51d"/><rect width="1.052" height="1.033" transform="translate(27.696 22.923)" fill="#f6e51d"/><path d="M20.163,38.1a18,18,0,1,1,12.75-5.259A18,18,0,0,1,20.163,38.1Zm0-34.5a16.5,16.5,0,1,0,11.69,4.823A16.5,16.5,0,0,0,20.163,3.6Z" transform="translate(-2.2 -2.1)" fill="#f6e51d"/></g><g transform="translate(396)"><path d="M38.132,26.362a10.259,10.259,0,0,0-3.495-.789,18.9,18.9,0,0,0-6.914,1.09,1.24,1.24,0,0,1-1.24-.188l-1.917-1.24a1.439,1.439,0,0,0-1.541-.188,1.5,1.5,0,0,0-.714,1.428c.038.714,0,1.428.038,2.142a.752.752,0,0,1-.413.714,19.691,19.691,0,0,0-2.292,1.653,13.374,13.374,0,0,0-4.509,5.787c-1.09,2.969.075,5.411,3.081,6.426a10.222,10.222,0,0,0,3.758.526,10.3,10.3,0,0,0,2.367-.15,24.84,24.84,0,0,0,12.965-6.238,11.527,11.527,0,0,0,3.495-5.3A4.709,4.709,0,0,0,38.132,26.362Zm-13.867.977c.376-.263.714-.075,1.052.15l6.276,3.946c.9.6.9,1.2-.038,1.766l-6.2,3.8c-.9.526-1.5.188-1.541-.827V32.187h0V28.316A1.015,1.015,0,0,1,24.265,27.339Zm4.7,13.528a13.94,13.94,0,0,1-6.99,1.992,7.027,7.027,0,0,1-1.278-.113,3.383,3.383,0,0,1-2.818-4.134h0c-.038-.188,0-.413.188-.451s.038.188.038.3a3.615,3.615,0,0,0,2.818,2.856,12.562,12.562,0,0,0,7.065-.338l.714-.225a.564.564,0,0,1,.639-.113A.451.451,0,0,1,28.963,40.868ZM35.915,32.3a9.587,9.587,0,0,1-3.081,4.585,14.885,14.885,0,0,1-8.23,4.059,5.487,5.487,0,0,1-2.067-.075A2.606,2.606,0,0,1,20.508,37.6a8.568,8.568,0,0,1,1.8-3.532c0,1.466.038,2.743,0,4.021a1.53,1.53,0,0,0,.714,1.5c.6.338,1.09.038,1.578-.263L33.81,33.69c1.315-.827,1.315-1.841-.038-2.593l-3.608-2.1c1.691-.489,3.232-.752,4.735.075S36.328,30.872,35.915,32.3Zm-5.937-4.322c-.9.15-.9.188-1.39-.3,2.255-.9,4.509-1.616,6.952-.977a3.146,3.146,0,0,1,2.555,3.269C35.915,27.151,32.946,27.49,29.977,27.978Z" transform="translate(-10.023 -16.329)" fill="#fff"/><path d="M20.163,38.1A18,18,0,1,1,38.2,20.1,18,18,0,0,1,20.163,38.1Zm0-34.5A16.5,16.5,0,1,0,36.7,20.1,16.5,16.5,0,0,0,20.163,3.6Z" transform="translate(-2.2 -2.1)" fill="#fff"/></g><g transform="translate(324)"><path d="M35.986,36.691h-.413c-1.2.075-3.457.977-3.908,2.969a3.983,3.983,0,0,0,3.946,4.735c2.856,0,3.683-1.691,3.683-1.691s-.639,2.405-2.668,2.631a7.528,7.528,0,0,1-4.773-.939l-.489-.263-.676-.413a1.841,1.841,0,0,0,.225-.639,4.4,4.4,0,0,0,0-2.781,4.96,4.96,0,0,0-9.094-1.09,4.81,4.81,0,0,0-.676,2.217v.526a5.148,5.148,0,0,0,.489,1.879,6.426,6.426,0,0,1-1.766,1.015,5.937,5.937,0,0,1-2.217.489H17.5a3.645,3.645,0,1,1,0-7.29,3.683,3.683,0,0,1,3.157,1.766l.714-1.278-.451-.489a5,5,0,1,0-3.42,8.643h.263a8.68,8.68,0,0,0,4.585-1.766,4.885,4.885,0,0,0,3.8,1.766,4.96,4.96,0,0,0,3.908-1.917h0c1.428.752,2.969,1.917,5.674,1.917a5,5,0,1,0,.263-10Zm-.225,6.464A2.789,2.789,0,0,1,32.792,40.6a2.789,2.789,0,0,1,2.969-2.555A2.789,2.789,0,0,1,38.73,40.6,2.766,2.766,0,0,1,35.761,43.155ZM29.56,43a5.449,5.449,0,0,0-2.631-.864,5.944,5.944,0,0,0-3.42.6l.789,1.052a5.037,5.037,0,0,1,4.547.338,3.532,3.532,0,0,1-2.706,1.2A3.608,3.608,0,0,1,22.5,41.952v-.526a3.648,3.648,0,0,1,7.29.263A3.871,3.871,0,0,1,29.56,43Z" transform="translate(-8.629 -23.689)" fill="#fff"/><path d="M20.163,38.1A18,18,0,1,1,38.2,20.1,18,18,0,0,1,20.163,38.1Zm0-34.5A16.5,16.5,0,1,0,36.7,20.1,16.5,16.5,0,0,0,20.163,3.6Z" transform="translate(-2.2 -2.1)" fill="#fff"/></g><g transform="translate(252)"><path d="M40.548,37.3H38.256a.451.451,0,0,0-.451.451v.977a.451.451,0,0,0,.451.451H40.21a2.781,2.781,0,0,1,2.781,2.781v.413a2.781,2.781,0,0,1-2.781,2.781H37.241V37.3H35.4v9.545h5.148a4.171,4.171,0,0,0,4.171-4.171v-1.2A4.171,4.171,0,0,0,40.548,37.3Z" transform="translate(-22.924 -24.072)" fill="#fff"/><path d="M71.27,40.381v-.451A2.593,2.593,0,0,0,68.678,37.3H64.619A3.119,3.119,0,0,0,61.5,40.419v6.426h7.478a2.292,2.292,0,0,0,2.292-2.292v-.789a1.879,1.879,0,0,0-1.09-1.691A1.879,1.879,0,0,0,71.27,40.381Zm-2.856,4.773H63.153V43.087h5.261a1.052,1.052,0,1,1,0,2.067Zm0-3.983H63.153v-.526A1.541,1.541,0,0,1,64.694,39.1h3.72a1.052,1.052,0,1,1,0,2.067Z" transform="translate(-39.216 -24.072)" fill="#fff"/><path d="M18.888,37.3H17.611a.451.451,0,0,0-.413.451v.977a.413.413,0,0,0,.413.451h1.278v4.585a1.428,1.428,0,0,1-1.39,1.39h-5v1.691h5.6a2.668,2.668,0,0,0,2.631-2.631V37.3Z" transform="translate(-8.629 -24.072)" fill="#fff"/><path d="M20.163,38.1A18,18,0,1,1,38.2,20.1,18,18,0,0,1,20.163,38.1Zm0-34.5A16.5,16.5,0,1,0,36.7,20.1,16.5,16.5,0,0,0,20.163,3.6Z" transform="translate(-2.2 -2.1)" fill="#fff"/></g><g transform="translate(468)"><rect width="1.052" height="1.033" transform="translate(6.013 12.025)" fill="#fff"/><rect width="1.052" height="1.033" transform="translate(7.253 12.025)" fill="#fff"/><rect width="1.052" height="1.033" transform="translate(8.455 12.025)" fill="#fff"/><rect width="1.052" height="1.033" transform="translate(9.658 12.025)" fill="#fff"/><rect width="1.052" height="1.033" transform="translate(10.86 12.025)" fill="#fff"/><rect width="1.052" height="1.033" transform="translate(12.063 12.025)" fill="#fff"/><rect width="1.052" height="1.033" transform="translate(13.265 12.025)" fill="#fff"/><rect width="1.052" height="1.033" transform="translate(14.468 12.025)" fill="#fff"/><rect width="1.052" height="1.033" transform="translate(4.81 13.265)" fill="#fff"/><rect width="1.052" height="1.033" transform="translate(6.013 13.265)" fill="#fff"/><rect width="1.052" height="1.033" transform="translate(7.253 13.265)" fill="#fff"/><rect width="1.052" height="1.033" transform="translate(8.455 13.265)" fill="#fff"/><rect width="1.052" height="1.033" transform="translate(9.658 13.265)" fill="#fff"/><rect width="1.052" height="1.033" transform="translate(10.86 13.265)" fill="#fff"/><rect width="1.052" height="1.033" transform="translate(12.063 13.265)" fill="#fff"/><rect width="1.052" height="1.033" transform="translate(13.265 13.265)" fill="#fff"/><rect width="1.052" height="1.033" transform="translate(14.468 13.265)" fill="#fff"/><rect width="1.052" height="1.033" transform="translate(4.81 14.468)" fill="#fff"/><rect width="1.052" height="1.033" transform="translate(6.013 14.468)" fill="#fff"/><rect width="1.052" height="1.033" transform="translate(13.265 14.468)" fill="#fff"/><rect width="1.052" height="1.033" transform="translate(14.468 14.468)" fill="#fff"/><rect width="1.052" height="1.033" transform="translate(15.67 14.468)" fill="#fff"/><rect width="1.052" height="1.033" transform="translate(4.81 15.67)" fill="#fff"/><rect width="1.052" height="1.033" transform="translate(6.013 15.67)" fill="#fff"/><rect width="1.052" height="1.033" transform="translate(14.468 15.67)" fill="#fff"/><rect width="1.052" height="1.033" transform="translate(15.67 15.67)" fill="#fff"/><rect width="1.052" height="1.033" transform="translate(4.81 16.873)" fill="#fff"/><rect width="1.052" height="1.033" transform="translate(6.013 16.873)" fill="#fff"/><rect width="1.052" height="1.033" transform="translate(14.468 16.873)" fill="#fff"/><rect width="1.052" height="1.033" transform="translate(15.67 16.873)" fill="#fff"/><rect width="1.052" height="1.033" transform="translate(4.81 18.075)" fill="#fff"/><rect width="1.052" height="1.033" transform="translate(6.013 18.075)" fill="#fff"/><rect width="1.052" height="1.033" transform="translate(13.265 18.075)" fill="#fff"/><rect width="1.052" height="1.033" transform="translate(14.468 18.075)" fill="#fff"/><rect width="1.052" height="1.033" transform="translate(15.67 18.075)" fill="#fff"/><rect width="1.052" height="1.033" transform="translate(4.81 19.315)" fill="#fff"/><rect width="1.052" height="1.033" transform="translate(6.013 19.315)" fill="#fff"/><rect width="1.052" height="1.033" transform="translate(7.253 19.315)" fill="#fff"/><rect width="1.052" height="1.033" transform="translate(8.455 19.315)" fill="#fff"/><rect width="1.052" height="1.033" transform="translate(9.658 19.315)" fill="#fff"/><rect width="1.052" height="1.033" transform="translate(10.86 19.315)" fill="#fff"/><rect width="1.052" height="1.033" transform="translate(12.063 19.315)" fill="#fff"/><rect width="1.052" height="1.033" transform="translate(13.265 19.315)" fill="#fff"/><rect width="1.052" height="1.033" transform="translate(14.468 19.315)" fill="#fff"/><rect width="1.052" height="1.033" transform="translate(4.81 20.518)" fill="#fff"/><rect width="1.052" height="1.033" transform="translate(6.013 20.518)" fill="#fff"/><rect width="1.052" height="1.033" transform="translate(7.253 20.518)" fill="#fff"/><rect width="1.052" height="1.033" transform="translate(8.455 20.518)" fill="#fff"/><rect width="1.052" height="1.033" transform="translate(9.658 20.518)" fill="#fff"/><rect width="1.052" height="1.033" transform="translate(10.86 20.518)" fill="#fff"/><rect width="1.052" height="1.033" transform="translate(12.063 20.518)" fill="#fff"/><rect width="1.052" height="1.033" transform="translate(4.81 21.72)" fill="#fff"/><rect width="1.052" height="1.033" transform="translate(6.013 21.72)" fill="#fff"/><rect width="1.052" height="1.033" transform="translate(4.81 22.923)" fill="#fff"/><rect width="1.052" height="1.033" transform="translate(6.013 22.923)" fill="#fff"/><rect width="1.052" height="1.033" transform="translate(21.645 12.025)" fill="#fff"/><rect width="1.052" height="1.033" transform="translate(22.848 12.025)" fill="#fff"/><rect width="1.052" height="1.033" transform="translate(24.088 12.025)" fill="#fff"/><rect width="1.052" height="1.033" transform="translate(25.291 12.025)" fill="#fff"/><rect width="1.052" height="1.033" transform="translate(26.493 12.025)" fill="#fff"/><rect width="1.052" height="1.033" transform="translate(20.443 13.265)" fill="#fff"/><rect width="1.052" height="1.033" transform="translate(21.645 13.265)" fill="#fff"/><rect width="1.052" height="1.033" transform="translate(22.848 13.265)" fill="#fff"/><rect width="1.052" height="1.033" transform="translate(24.088 13.265)" fill="#fff"/><rect width="1.052" height="1.033" transform="translate(25.291 13.265)" fill="#fff"/><rect width="1.052" height="1.033" transform="translate(26.493 13.265)" fill="#fff"/><rect width="1.052" height="1.033" transform="translate(27.696 13.265)" fill="#fff"/><rect width="1.052" height="1.033" transform="translate(28.898 13.265)" fill="#fff"/><rect width="1.052" height="1.033" transform="translate(19.24 14.468)" fill="#fff"/><rect width="1.052" height="1.033" transform="translate(20.443 14.468)" fill="#fff"/><rect width="1.052" height="1.033" transform="translate(21.645 14.468)" fill="#fff"/><rect width="1.052" height="1.033" transform="translate(27.696 14.468)" fill="#fff"/><rect width="1.052" height="1.033" transform="translate(28.898 14.468)" fill="#fff"/><rect width="1.052" height="1.033" transform="translate(19.24 15.67)" fill="#fff"/><rect width="1.052" height="1.033" transform="translate(20.443 15.67)" fill="#fff"/><rect width="1.052" height="1.033" transform="translate(19.24 16.873)" fill="#fff"/><rect width="1.052" height="1.033" transform="translate(20.443 16.873)" fill="#fff"/><rect width="1.052" height="1.033" transform="translate(25.291 16.873)" fill="#fff"/><rect width="1.052" height="1.033" transform="translate(26.493 16.873)" fill="#fff"/><rect width="1.052" height="1.033" transform="translate(27.696 16.873)" fill="#fff"/><rect width="1.052" height="1.033" transform="translate(28.898 16.873)" fill="#fff"/><rect width="1.052" height="1.033" transform="translate(30.101 16.873)" fill="#fff"/><rect width="1.052" height="1.033" transform="translate(19.24 18.075)" fill="#fff"/><rect width="1.052" height="1.033" transform="translate(20.443 18.075)" fill="#fff"/><rect width="1.052" height="1.033" transform="translate(25.291 18.075)" fill="#fff"/><rect width="1.052" height="1.033" transform="translate(26.493 18.075)" fill="#fff"/><rect width="1.052" height="1.033" transform="translate(27.696 18.075)" fill="#fff"/><rect width="1.052" height="1.033" transform="translate(28.898 18.075)" fill="#fff"/><rect width="1.052" height="1.033" transform="translate(30.101 18.075)" fill="#fff"/><rect width="1.052" height="1.033" transform="translate(19.24 19.315)" fill="#fff"/><rect width="1.052" height="1.033" transform="translate(20.443 19.315)" fill="#fff"/><rect width="1.052" height="1.033" transform="translate(28.898 19.315)" fill="#fff"/><rect width="1.052" height="1.033" transform="translate(30.101 19.315)" fill="#fff"/><rect width="1.052" height="1.033" transform="translate(19.24 20.518)" fill="#fff"/><rect width="1.052" height="1.033" transform="translate(20.443 20.518)" fill="#fff"/><rect width="1.052" height="1.033" transform="translate(21.645 20.518)" fill="#fff"/><rect width="1.052" height="1.033" transform="translate(27.696 20.518)" fill="#fff"/><rect width="1.052" height="1.033" transform="translate(28.898 20.518)" fill="#fff"/><rect width="1.052" height="1.033" transform="translate(30.101 20.518)" fill="#fff"/><rect width="1.052" height="1.033" transform="translate(20.443 21.72)" fill="#fff"/><rect width="1.052" height="1.033" transform="translate(21.645 21.72)" fill="#fff"/><rect width="1.052" height="1.033" transform="translate(22.848 21.72)" fill="#fff"/><rect width="1.052" height="1.033" transform="translate(24.088 21.72)" fill="#fff"/><rect width="1.052" height="1.033" transform="translate(25.291 21.72)" fill="#fff"/><rect width="1.052" height="1.033" transform="translate(26.493 21.72)" fill="#fff"/><rect width="1.052" height="1.033" transform="translate(27.696 21.72)" fill="#fff"/><rect width="1.052" height="1.033" transform="translate(28.898 21.72)" fill="#fff"/><rect width="1.052" height="1.033" transform="translate(21.645 22.923)" fill="#fff"/><rect width="1.052" height="1.033" transform="translate(22.848 22.923)" fill="#fff"/><rect width="1.052" height="1.033" transform="translate(24.088 22.923)" fill="#fff"/><rect width="1.052" height="1.033" transform="translate(25.291 22.923)" fill="#fff"/><rect width="1.052" height="1.033" transform="translate(26.493 22.923)" fill="#fff"/><rect width="1.052" height="1.033" transform="translate(27.696 22.923)" fill="#fff"/><path d="M20.163,38.1A18,18,0,1,1,38.2,20.1,18,18,0,0,1,20.163,38.1Zm0-34.5A16.5,16.5,0,1,0,36.7,20.1,16.5,16.5,0,0,0,20.163,3.6Z" transform="translate(-2.2 -2.1)" fill="#fff"/></g><g transform="translate(504)"><path d="M22.916,21.288,14.01,12.629,19.655,6.8a1.009,1.009,0,0,0,.247.022A1.378,1.378,0,0,0,20.915,6.4l1.147-1.192a1.415,1.415,0,0,0-2.024-1.979L18.89,4.42a1.419,1.419,0,0,0-.36,1.3l-5.623,5.8-1.642-1.6a3.558,3.558,0,0,0-.945-3.621L7.487,3.61A3.613,3.613,0,0,0,4,2.733L7.173,5.792a1.806,1.806,0,0,1,.045,2.541,1.827,1.827,0,0,1-1.282.54,1.751,1.751,0,0,1-1.259-.517L1.5,5.319A3.553,3.553,0,0,0,2.472,8.76L5.306,11.5a3.579,3.579,0,0,0,2.5,1.012,3.765,3.765,0,0,0,1.1-.18l1.012.99L2.809,20.681a1.67,1.67,0,0,0,.022,2.362A1.657,1.657,0,0,0,5.193,23l7.13-7.355L20.6,23.672a1.662,1.662,0,1,0,2.317-2.384Z" transform="translate(5.577 4.657)" fill="#fff"/><g transform="translate(0 0)" fill="none"><path d="M18,0A18,18,0,1,1,0,18,18,18,0,0,1,18,0Z" stroke="none"/><path d="M 17.99858856201172 1.500003814697266 C 13.5916576385498 1.500003814697266 9.448497772216797 3.216152191162109 6.332319259643555 6.33232307434082 C 3.216148376464844 9.448501586914063 1.5 13.59166145324707 1.5 17.99859237670898 C 1.5 22.40552139282227 3.216148376464844 26.54868316650391 6.332319259643555 29.66486167907715 C 9.448497772216797 32.78103256225586 13.5916576385498 34.4971809387207 17.99858856201172 34.4971809387207 C 22.405517578125 34.4971809387207 26.54867935180664 32.78103256225586 29.66485786437988 29.66486167907715 C 32.78102874755859 26.54868316650391 34.49717712402344 22.40552139282227 34.49717712402344 17.99859237670898 C 34.49717712402344 13.59166145324707 32.78102874755859 9.448501586914063 29.66485786437988 6.33232307434082 C 26.54867935180664 3.216152191162109 22.405517578125 1.500003814697266 17.99858856201172 1.500003814697266 M 17.99858856201172 3.814697265625e-06 C 27.93893814086914 3.814697265625e-06 35.99717712402344 8.058242797851563 35.99717712402344 17.99859237670898 C 35.99717712402344 27.93894195556641 27.93893814086914 35.9971809387207 17.99858856201172 35.9971809387207 C 8.058238983154297 35.9971809387207 0 27.93894195556641 0 17.99859237670898 C 0 8.058242797851563 8.058238983154297 3.814697265625e-06 17.99858856201172 3.814697265625e-06 Z" stroke="none" fill="#fff"/></g></g></g></svg>