<svg version="1.1" id="Layer_1" xmlns="http://www.w3.org/2000/svg" x="0" y="0" viewBox="0 0 100 100" xml:space="preserve"><style>.st0{opacity:.5;enable-background:new}.st1{fill:#43388d}.st2{fill:#1d3565}.st3{fill:#14a94b}.st4{fill:#f9b2a0}.st5{fill:#583f91}.st6{fill:#614495}.st7{fill:#fff}.st8{fill:#e4887f}.st9{fill:#77549d}.st10{fill:#0a4a24}.st11{fill:#1c5b9c}.st12{fill:#c9e5f8}.st13{fill:#3982c4}.st15{fill:#4b3a8e}.st16{fill:#523c90}.st17{fill:#e11f84}.st20{fill:#e59024}.st21{fill:#1b4176}</style><g id="Group_1006" transform="translate(-474.221 -298)"><path id="Path_1042" class="st0" d="M510.9 366.3c-2.7 1.6-7.2 1.6-10 0s-2.8-4.2 0-5.7 7.2-1.6 10 0 2.8 4.1 0 5.7z"/><ellipse id="Ellipse_19" class="st0" cx="563.3" cy="384.9" rx="9.9" ry="5.7"/><path id="Path_1043" class="st1" d="M501.9 313.4s.2 3.8.5 6.3 6.4-2 6.4-2v-2.9l-6.9-1.4z"/><path id="Path_1044" class="st2" d="M505.2 360.5c.1.2 1.7 2.2 3.3 2.6.5.2 1 .2 1.5.2.3 0 .4-.3.4-.5v-.1c-.5-1.5-1.6-2.7-3-3.4-2.8-1.2-2.2 1.2-2.2 1.2z"/><path id="Path_1045" class="st2" d="M504.7 361.3c.3.8.6 1.7.8 2.6.1.7-.3 1.6-.6 2.3-.2.3-.6.4-.9.3l-.1-.1c-.7-.6-1.2-1.5-1.3-2.5-.2-2 0-2.3 0-2.3l2.1-.3z"/><path id="Path_1046" class="st3" d="M500.8 337.4c-.1 1.8-.1 3.5 0 5.3.2 2.8.9 15.7 1.1 18.8 0 0-.1.9 1.8.7 1.8-.2 1.7-1.3 1.7-1.3s2.6 0 2.6-1.5c.1-1.5 2.6-18 2.6-23.9l-9.8 1.9z"/><path id="Path_1047" class="st4" d="M511.6 324.5l1.3 1.9 4.3 5.2c-.1.3-.4.5-.7.6-.4.1-4-3.4-5.6-4.9-.4-.4-.5-1-.2-1.5l.9-1.3z"/><path id="Path_1048" class="st5" d="M509.1 316.5s2-.1 2.7 2.8c.7 2.9 1.2 6.5.6 6.8-1.8.9-3-.2-3-.2l-.3-9.4z"/><path id="Path_1049" class="st6" d="M509.7 316.6c-.3-.1-.7-.2-1.1-.1-1.7.5-8.1 2.4-9.1 3.3-1.2 1 1.8 6.9 1.8 8.8s-.3 4.2-.4 6.2c-.2 2.1-.4 3.2 1.3 4.1 1.7.9 4.6.9 6.8-.7 2.2-1.7 1.8-2.8 1.7-4s-.8-6.4-.8-7.9c.5-.4 1-.9 1.3-1.5.6-1-.4-2.7-.9-3.9-.4-1.2.2-2.5.1-3.4 0-.4-.3-.8-.7-.9z"/><ellipse id="Ellipse_20" transform="rotate(-7.297 505.295 318.9)" class="st7" cx="505.3" cy="318.9" rx="2.4" ry="1.9"/><path id="Path_1050" class="st4" d="M507 318.7c.1.8-.6 1.5-1.5 1.6s-1.8-.4-1.9-1.1c-.1-.8.6-1.5 1.5-1.6.9-.2 1.8.3 1.9 1.1z"/><path id="Path_1051" class="st4" d="M506 316.2s-1.2-.9-1.4-.5-.4 2.5-.4 2.5l2.3.6-.3-2.1c0 .1.5-.3-.2-.5z"/><circle id="Ellipse_21" class="st4" cx="506.2" cy="313.8" r="3.4"/><path id="Path_1052" class="st8" d="M504.5 316.3c0 .1 0 .2-.1.3.2 1.2 2 1.7 2 1.7l-.3-1.6s.2-.2.2-.4c-.7-.1-1.5-.3-1.8 0z"/><circle id="Ellipse_22" class="st4" cx="506.2" cy="313.8" r="3.4"/><path id="Path_1053" class="st4" d="M497.8 328.2l.4 9.1 1.3.1.9-8.2-2.6-1z"/><path id="Path_1054" class="st5" d="M502.2 327.4c-.4-2-1.3-6.3-1.3-6.3l-.4 4.3c.4 1.3.8 2.4.8 3.1 0 1.1-.1 2.4-.2 3.6 0 .1 1.5-2.7 1.1-4.7z"/><path id="Path_1055" class="st9" d="M499.8 319.6s-1.1.4-1.7 3.7-1.1 6.6 0 7 2 .7 2.3-.1c.3-.9.5-5.1.6-6.6 0-1.6.1-3.7-1.2-4z"/><path id="Path_1056" class="st4" d="M516.8 331.2c.4.1.7.4 1 .7.3.3.5.6.7.9.3.5.6 1.6.4 1.7-.2.1-1.4-1.8-1.5-1.3-.2.4 0 .9-.2.9s-1.1-1.9-1.7-2.5 1.3-.4 1.3-.4z"/><path id="Path_1057" class="st10" d="M505.4 360.9c.2 0 .5 0 .7-.1l.5-20.1-1.2 20.2z"/><path id="Path_1058" class="st4" d="M498.2 337.3s-.4 2.1-.3 2.8c.1.7.4 1.8.7 1.8s0-2.7.5-2.5.5.7.8.6c.2-.2-.4-2.5-.2-3.5.1-1-1.5.8-1.5.8z"/><path id="Path_1059" class="st8" d="M507.5 314.1c1.7.6 2 .2 2.1.2v-.3c0-.4 0-.7-.1-1.1l-4.4-.6s.7 1.1 2.4 1.8z"/><path id="Path_1060" class="st1" d="M509.7 310.6c-.4-.3-1.9-2.1-4.5-1.7-1.6.3-3 1.4-3.3 3.9-.2 1.7.4 3.4 1.6 4.6.1 0 .1-.1.2-.1.7-.4.7-.7.7-.7l.1-1.3c0-.2-.1-.3-.3-.4-.2 0-.4-.1-.5-.3-.4-.5-.2-1.3.5-1.3.3 0 .5-.2.6-.4 0-.2.2-.3.4-.2.9.3 3 1 4.3.6 1.9-.4.6-2.4.2-2.7z"/><path id="Path_1061" class="st7" d="M507.8 315.6l1-.3s-.5.8-1.2 1-.8-.4-.8-.4l1-.3z"/><path id="Path_1062" class="st0" d="M539.9 387.9l-23.6-13.5c-.9-.5-.8-1.4.2-1.9l13.6-7.9c1-.6 2.5-.6 3.4-.1l23.6 13.5c.9.5.8 1.4-.2 1.9l-13.6 7.9c-1 .5-2.5.6-3.4.1z"/><path id="Path_1063" class="st11" d="M559.2 373.4v-55.2l-21.9-5.7-4-2.3c-.9-.5-2.5-.5-3.6.1l-3.8 2.2h-11.7l3.5 53.3c0 .4.2.7.6 1l21.9 16.5c.9.5 2.5.5 3.6-.1l14.6-8.4c.5-.5.8-1 .8-1.4z"/><path id="Path_1064" class="st12" d="M531.6 309.8c-.7 0-1.3.2-1.9.5l-3.8 2.2h-11.7v55.3c0 .4.2.7.6 1l25.4 14.5c.5.3 1.1.4 1.7.4l.3-55.7-10.6-18.2z"/><path id="Path_1065" class="st13" d="M540.4 383.3c.8.3 2 .3 2.9 0v-56h-2.9v56z"/><path id="Path_1066" class="st12" d="M540.1 327.9l-25.4-14.5c-.9-.5-.8-1.5.3-2.1l14.6-8.4c1.1-.6 2.7-.7 3.6-.1l25.4 14.5c.9.5.8 1.5-.3 2.1l-14.6 8.4c-1 .6-2.7.6-3.6.1z"/><path id="Path_1067" d="M558.3 318.3l-14.6 8.4c-1.1.6-2.7.7-3.6.1l-25.4-14.5c-.2-.1-.3-.2-.5-.4-.3.5-.2 1.1.5 1.4l25.4 14.5c.9.5 2.5.5 3.6-.1l14.6-8.4c.8-.5 1.1-1.2.7-1.7-.1.3-.4.6-.7.7z" fill="#f8fcff"/><g id="Group_972" transform="translate(692.571 319.08)"><path id="Path_1068" class="st2" d="M-151.7 3l-16.9-9.8c-.4-.3-.4-.7.1-1l6.8-3.9c.5-.3 1.3-.3 1.7-.1l16.9 9.8c.4.3.4.7-.1 1l-6.8 3.9c-.5.3-1.3.3-1.7.1z"/><g id="Group_971" transform="translate(31.734 19.465)"><path id="Path_1069" class="st12" d="M-192.6-25.8l-1-.6c-.1 0-.1-.1 0-.1l.9-.5h.2l1 .6c.1 0 .1.1 0 .1l-.9.5h-.2z"/><path id="Path_1070" class="st12" d="M-189.3-24l-1-.6c-.1 0-.1-.1 0-.1l.9-.5h.2l1 .6c.1 0 .1.1 0 .1l-.9.5c0 .1-.1.1-.2 0z"/><path id="Path_1071" class="st12" d="M-186-22.1l-1-.6c-.1 0-.1-.1 0-.1l.9-.5h.2l1 .6c.1 0 .1.1 0 .1l-.9.5c-.1.1-.2.1-.2 0z"/><path id="Path_1072" class="st12" d="M-182.8-20.2l-1-.6c-.1 0-.1-.1 0-.1l.9-.5h.2l1 .6c.1 0 .1.1 0 .1l-.9.5h-.2z"/></g><path id="Path_1073" class="st13" d="M-168.6-6.8c.1 0 .1 0 .1-.1l6.8-3.9c.5-.3 1.3-.3 1.7-.1l16.9 9.8c.4-.3.4-.7 0-.9l-16.9-9.8c-.4-.3-1.2-.2-1.7.1l-6.8 3.9c-.5.3-.5.7-.1 1z"/></g><path id="Path_1074" class="st13" d="M537.3 338.8L518.6 328c-.5-.3-1-1.1-1-1.9v-3.4c0-.7.4-1.1 1-.7l18.7 10.8c.5.3 1 1.1 1 1.9v3.4c0 .7-.4 1.1-1 .7z"/><path id="Path_1075" class="st3" d="M535.9 335.8l-.9-.5c-.1-.1-.2-.2-.2-.4v-.9c0-.2.1-.2.2-.2l.9.5c.1.1.2.2.2.4v.9c0 .2-.1.3-.2.2z"/><path id="Path_1076" class="st3" d="M533 334.1l-.9-.5c-.1-.1-.2-.2-.2-.4v-.9c0-.2.1-.2.2-.2l.9.5c.1.1.2.2.2.4v.9c0 .2-.1.3-.2.2z"/><path id="Path_1077" class="st13" d="M537.3 351.2l-18.7-10.8c-.5-.3-1-1.1-1-1.9v-3.4c0-.7.4-1.1 1-.7l18.7 10.8c.5.3 1 1.1 1 1.9v3.4c0 .7-.4 1.1-1 .7z"/><path id="Path_1078" class="st3" d="M535.9 348.2l-.9-.5c-.1-.1-.2-.2-.2-.4v-.9c0-.2.1-.2.2-.2l.9.5c.1.1.2.2.2.4v.9c0 .2-.1.3-.2.2z"/><path id="Path_1079" class="st12" d="M533 346.5l-.9-.5c-.1-.1-.2-.2-.2-.4v-.9c0-.2.1-.2.2-.2l.9.5c.1.1.2.2.2.4v.9c0 .2-.1.3-.2.2z"/><path id="Path_1080" class="st13" d="M537.3 363.6l-18.7-10.8c-.5-.3-1-1.1-1-1.9v-3.4c0-.7.4-1.1 1-.7l18.7 10.8c.5.3 1 1.1 1 1.9v3.4c0 .7-.4 1.1-1 .7z"/><path id="Path_1081" class="st12" d="M535.9 360.6l-.9-.5c-.1-.1-.2-.2-.2-.4v-.9c0-.2.1-.2.2-.2l.9.5c.1.1.2.2.2.4v.9c0 .2-.1.3-.2.2z"/><path id="Path_1082" class="st3" d="M533 358.9l-.9-.5c-.1-.1-.2-.2-.2-.4v-.9c0-.2.1-.2.2-.2l.9.5c.1.1.2.2.2.4v.9c0 .2-.1.3-.2.2z"/><path id="Path_1083" class="st13" d="M537.3 376l-18.7-10.8c-.5-.3-1-1.1-1-1.9v-3.4c0-.7.4-1.1 1-.7l18.7 10.8c.5.3 1 1.1 1 1.9v3.4c0 .7-.4 1.1-1 .7z"/><path id="Path_1084" class="st12" d="M535.9 373l-.9-.5c-.1-.1-.2-.2-.2-.4v-.9c0-.2.1-.2.2-.2l.9.5c.1.1.2.2.2.4v.9c0 .2-.1.3-.2.2z"/><path id="Path_1085" class="st12" d="M533 371.3l-.9-.5c-.1-.1-.2-.2-.2-.4v-.9c0-.2.1-.2.2-.2l.9.5c.1.1.2.2.2.4v.9c0 .2-.1.3-.2.2z"/><g id="Group_982" transform="translate(791.469 409.584)"><path id="Path_1086" class="st2" d="M-244.9-70.7l9.6-5.5c.5-.3 1-1.1 1-1.9v-3.4c0-.7-.4-1.1-1-.7l-9.6 5.5c-.5.3-1 1.1-1 1.9v3.4c0 .6.5 1 1 .7z"/><path id="Path_1087" class="st2" d="M-244.9-58.3l9.6-5.5c.5-.3 1-1.1 1-1.9v-3.4c0-.7-.4-1.1-1-.7l-9.6 5.5c-.5.3-1 1.1-1 1.9v3.4c0 .6.5 1 1 .7z"/><path id="Path_1088" class="st2" d="M-244.9-45.9l9.6-5.5c.5-.3 1-1.1 1-1.9v-3.4c0-.7-.4-1.1-1-.7l-9.6 5.5c-.5.3-1 1.1-1 1.9v3.4c0 .6.5 1 1 .7z"/><path id="Path_1089" class="st2" d="M-244.9-33.5l9.6-5.5c.5-.3 1-1.1 1-1.9v-3.4c0-.7-.4-1.1-1-.7l-9.6 5.5c-.5.3-1 1.1-1 1.9v3.4c0 .6.5 1 1 .7z"/></g><path id="Path_1090" class="st0" d="M485.4 385.2l-9.8-5.7c-.6-.3-.5-1 .2-1.4l9.5-5.5c.7-.4 1.7-.4 2.3-.1l9.8 5.7c.6.3.5 1-.2 1.4l-9.5 5.5c-.6.4-1.7.5-2.3.1z"/><path id="Path_1091" class="st15" d="M497.4 376.6v-3.3h-7.3l-2.5-1.5c-.6-.3-1.6-.3-2.3.1l-2.4 1.4h-7.3v3.4c0 .3.1.5.4.6l9.5 5.5c.6.3 1.6.3 2.3-.1l9.1-5.3c.4-.2.5-.5.5-.8z"/><path id="Path_1092" class="st6" d="M486.5 371.7c-.4 0-.8.1-1.2.3l-2.4 1.4h-7.3v3.4c0 .3.1.5.4.6l9.5 5.5c.3.2.7.2 1.1.2v-11.4h-.1z"/><path id="Path_1093" class="st9" d="M476.4 373.3h-.8v3.4c0 .3.1.5.4.6l.4.3v-4.3z"/><path id="Path_1094" class="st16" d="M485.6 382.8c.6.2 1.2.2 1.8 0V379h-1.8v3.8z"/><path id="Path_1095" class="st5" d="M485.5 379.4L476 374c-.6-.3-.5-.9.2-1.3l9.1-5.3c.7-.4 1.7-.4 2.3-.1l9.5 5.5c.6.3.5.9-.2 1.3l-9.1 5.3c-.7.3-1.7.4-2.3 0z"/><path id="Path_1096" class="st1" d="M485.6 378.4l-7.9-4.6c-.5-.3-.4-.8.1-1.1l7.7-4.4c.6-.3 1.4-.4 1.9-.1l7.9 4.6c.5.3.4.8-.1 1.1l-7.7 4.4c-.5.4-1.4.4-1.9.1z"/><path id="Path_1097" class="st17" d="M493.9 377.5c0 .3-.2.5-.4.7-.2.1-.4 0-.4-.2 0-.3.2-.5.4-.7.3-.2.4-.1.4.2z"/><path id="Path_1098" class="st17" d="M495.2 376.8c0 .3-.2.5-.4.7-.2.1-.4 0-.4-.2 0-.3.2-.5.4-.7.2-.2.4-.1.4.2z"/><path id="Path_1099" class="st3" d="M496.4 376.1c0 .3-.2.5-.4.7-.2.1-.4 0-.4-.2 0-.3.2-.5.4-.7.2-.2.4-.1.4.2z"/><path id="Path_1100" class="st15" d="M497.4 371.3V368h-7.3l-2.5-1.5c-.6-.3-1.6-.3-2.3.1l-2.4 1.4h-7.3v3.4c0 .3.1.5.4.6l9.5 5.5c.6.3 1.6.3 2.3-.1l9.1-5.3c.4-.2.5-.5.5-.8z"/><path id="Path_1101" class="st6" d="M486.5 366.4c-.4 0-.8.1-1.2.3l-2.4 1.4h-7.3v3.4c0 .3.1.5.4.6l9.5 5.5c.3.2.7.2 1.1.2v-11.4h-.1z"/><path id="Path_1102" class="st9" d="M476.4 368.1h-.8v3.4c0 .3.1.5.4.6l.4.3v-4.3z"/><path id="Path_1103" class="st16" d="M485.6 377.6c.6.2 1.2.2 1.8 0v-3.8h-1.8v3.8z"/><path id="Path_1104" class="st5" d="M485.5 374.1l-9.5-5.5c-.6-.3-.5-.9.2-1.3l9.1-5.3c.7-.4 1.7-.4 2.3-.1l9.5 5.5c.6.3.5.9-.2 1.3l-9.1 5.3c-.7.4-1.7.5-2.3.1z"/><path id="Path_1105" class="st1" d="M485.6 373.2l-7.9-4.6c-.5-.3-.4-.8.1-1.1l7.7-4.4c.6-.3 1.4-.4 1.9-.1l7.9 4.6c.5.3.4.8-.1 1.1l-7.7 4.4c-.5.3-1.4.3-1.9.1z"/><path id="Path_1106" class="st3" d="M493.9 372.2c0 .3-.2.5-.4.7-.2.1-.4 0-.4-.2 0-.3.2-.5.4-.7.3-.2.4-.1.4.2z"/><path id="Path_1107" class="st17" d="M495.2 371.5c0 .3-.2.5-.4.7-.2.1-.4 0-.4-.2 0-.3.2-.5.4-.7.2-.2.4-.1.4.2z"/><ellipse id="Ellipse_23" transform="rotate(-60 496.004 371.036)" class="st17" cx="496" cy="371" rx=".5" ry=".3"/><path id="Path_1108" class="st15" d="M497.4 366v-3.3h-7.3l-2.5-1.5c-.6-.3-1.6-.3-2.3.1l-2.4 1.4h-7.3v3.4c0 .3.1.5.4.6l9.5 5.5c.6.3 1.6.3 2.3-.1l9.1-5.3c.4-.2.5-.5.5-.8z"/><path id="Path_1109" class="st6" d="M486.5 361.1c-.4 0-.8.1-1.2.3l-2.4 1.4h-7.3v3.4c0 .3.1.5.4.6l9.5 5.5c.3.2.7.2 1.1.2v-11.4h-.1z"/><path id="Path_1110" class="st9" d="M476.4 362.8h-.8v3.4c0 .3.1.5.4.6l.4.3v-4.3z"/><path id="Path_1111" class="st16" d="M485.6 372.3c.6.2 1.2.2 1.8 0v-3.8h-1.8v3.8z"/><path id="Path_1112" class="st5" d="M485.5 368.8l-9.5-5.5c-.6-.3-.5-.9.2-1.3l9.1-5.3c.7-.4 1.7-.4 2.3-.1l9.5 5.5c.6.3.5.9-.2 1.3l-9.1 5.3c-.7.4-1.7.5-2.3.1z"/><path id="Path_1113" class="st9" d="M496.9 362.8l-9.1 5.3c-.7.4-1.7.4-2.3.1l-9.5-5.5-.3-.3c-.2.3-.1.7.3.9l9.5 5.5c.6.3 1.6.3 2.3-.1l9.1-5.3c.5-.3.7-.7.5-1.1-.2.3-.3.4-.5.5z"/><path id="Path_1114" class="st17" d="M493.9 366.9c0 .3-.2.5-.4.7-.2.1-.4 0-.4-.2 0-.3.2-.5.4-.7.3-.1.4 0 .4.2z"/><path id="Path_1115" class="st3" d="M495.2 366.2c0 .3-.2.5-.4.7-.2.1-.4 0-.4-.2 0-.3.2-.5.4-.7s.4-.1.4.2z"/><path id="Path_1116" class="st17" d="M496.4 365.5c0 .3-.2.5-.4.7-.2.1-.4 0-.4-.2 0-.3.2-.5.4-.7.2-.2.4-.1.4.2z"/><path id="Path_1117" class="st1" d="M486 365.6l-4.4-2.6c-.3-.2-.2-.4.1-.6l4.3-2.5c.3-.2.7-.2 1.1 0l4.4 2.6c.3.2.2.4-.1.6l-4.3 2.5c-.3.1-.7.2-1.1 0z"/><path id="Path_1118" class="st17" d="M486.5 363.5l-.6-.4v-.1l.6-.3h.1l.6.4v.1l-.6.3h-.1z"/><path id="Path_1119" class="st1" d="M489.2 366.3l-.6-.4v-.1l.6-.3h.1l.6.4v.1l-.6.3h-.1z"/><path id="Path_1120" class="st1" d="M490.5 365.5l-.6-.4v-.1l.6-.3h.1l.6.4v.1l-.6.3h-.1z"/><path id="Path_1121" class="st9" d="M491.8 364.7l-.6-.4v-.1l.6-.3h.1l.6.4v.1l-.6.3h-.1z"/><path id="Path_1122" class="st9" d="M481.6 363s.1 0 0 0l4.4-2.5c.3-.2.7-.2 1.1 0l4.4 2.5c.3-.2.3-.4 0-.6l-4.4-2.6c-.3-.2-.7-.1-1.1 0l-4.3 2.5c-.3.3-.4.6-.1.7z"/><path id="Path_1123" class="st1" d="M482.6 374.8l-3.8-2.2c-.3-.2-.4-.5-.4-.8 0-.3.2-.5.4-.3l3.8 2.2c.3.2.4.5.4.8.1.3-.1.5-.4.3z"/><path id="Path_1124" class="st9" d="M483 374.6l-3.8-2.2c-.3-.2-.4-.5-.4-.8v-.1c-.2-.1-.4.1-.4.4s.2.6.4.8l3.8 2.2c.1.1.3.1.4 0v-.3z"/><path id="Path_1125" class="st2" d="M569 382c.7.3 1.1 1.1 1 1.8 0 .3-.1.6-.2.9-.2.4-.9 1.1-2 .6-1.1-.4-3.6-2.8-3.7-4.3-.1-2.8 3.1.2 4.9 1z"/><path id="Path_1126" class="st2" d="M562.4 386.7s.3 1.6.1 1.9c-.1.3-.9.9-2.1.8-1.1-.1-4.5-1.3-5.2-3.5-1.1-3.4 6.4.3 6.4.3l.8.5z"/><path id="Path_1127" class="st3" d="M559.2 360.5l-.3 25.5c0 .9.6 1.6 1.4 1.8h.3c.6.1 1.2-.2 1.5-.6.2-.3.3-.7.3-1l.3-10.9 1.6-9.7 2.3 17.2c0 .5.3.9.6 1.1s.7.3 1 .3c.5 0 1-.3 1.4-.7.2-.3.3-.6.3-.9l-.9-10.4-.3-13.2-9.5 1.5z"/><path id="Path_1128" class="st4" d="M569.8 352.1l-4.2-.6c-.5-.1-.8-.5-.8-1 .1-.5.5-.8 1-.8l2.8.4-1-5.5c-.1-.5.2-1 .7-1.1.5-.1 1 .2 1.1.7l1.2 6.8c.1.3 0 .6-.2.8-.1.2-.3.3-.6.3z"/><path id="Path_1129" class="st6" d="M566.1 339.1s1.4-.1 3.1 3.5-.6 4.8-.6 4.8l-2.5-8.3z"/><path id="Path_1130" class="st6" d="M562.4 340.1c.1 0 3.8-2.4 5.1.1 2.2 4.1 2.1 17.1 1.4 18.8-.7 1.6-2.3 2.7-3.4 3.4-1 .6-2.1.9-3.3.9s-3.4-1-3.3-2.5c.4-6.9-.2-12.8-.8-18.5-.1 0 .7-.8 4.3-2.2z"/><g id="Group_992" transform="translate(811.441 492.61)"><path id="Path_1131" class="st4" d="M-254.9-138.4c.1 0 .2 0 .3-.1.3-.1.5-.4.5-.7l1.8-5.1c.1-.5-.8-2.6-1.3-2.7s-1.7.8-1.7 1.4l-.4 4.6-4.3-2.1c-.5-.2-.8-.7-1.1-.3-.3.4-.2 1 .2 1.3l5.6 3.6c0 .1.2.1.4.1z"/></g><path id="Path_1132" class="st4" d="M550.9 349.3l-.3-.7c-.1-.2-.2-.5-.4-.6l-1.1-1.1c-.1-.1-.2-.1-.3 0-.1.1-.1.2 0 .3l.5.5c.1.1.1.2.1.3l-.2.5c-.1.2 0 .4.1.5l1.1 1.4.5-1.1z"/><path id="Path_1133" class="st6" d="M558 342.3s-2.5 1.9-2.8 7.7c0 0-.1.6 1.4 1 1.4.4 2.4-.7 2.4-.7s1.6-3.9-1-8z"/><path id="Path_1134" class="st4" d="M562.7 337.8l.4 2.3c0 .5-.4.9-.9 1-.9.2-1.2-.4-1.2-.4l-.4-2.6 2.1-.3z"/><ellipse id="Ellipse_24" transform="rotate(-26.565 560.876 336.315)" class="st4" cx="560.9" cy="336.3" rx="3.4" ry="3.8"/><path id="Path_1135" class="st2" d="M560.3 337.6c-.1 0-.3 0-.4-.1-.2-.2-.2-1.1-.7-1.2-.7-.1-2.1 1-2.7-1.4-.3-1.2.2-1.7.1-2.4 0 0 0 .4 3.2-.4s4.7 1.9 5 3.3c.3 1.3 0 3.7-2.1 4.4-.4.1-2.1-.9-2.1-1 0-.2.6-.3.4-.7 0-.4-.4-.6-.7-.5z"/><path id="Path_1136" class="st10" d="M564.4 365.6l2.3 17.2c0 .5.3.9.6 1.1.1 0 .1.1.2.1-.5-.4-1.8-14.8-2.1-16.4-.3-1.6-1-2-1-2z"/><path id="Path_1137" class="st1" d="M558.8 350.5c.2 3.5.3 6.9.1 10.3 0 .6.3 1.1.8 1.5.3-4.4.3-8.8 0-13.2-.4 1.1-.9 1.4-.9 1.4z"/><ellipse id="Ellipse_25" class="st0" cx="517.1" cy="388.2" rx="9.3" ry="5.4"/><path id="Path_1138" class="st6" d="M520.9 385.3c-.2-.1-.5-.3-.7-.4l-1.4-.6.1.2c-1.1-.2-2.2-.2-3.4 0l.1-.3-1.7.7-.6.3c-2.1 1.2-2.1 3.2 0 4.4 2.1 1.2 5.5 1.2 7.7 0s2-3-.1-4.3z"/><path id="Path_1139" class="st5" d="M518.9 386.5c-1 .6-2.6.6-3.6 0s-1-1.5 0-2.1 2.6-.6 3.6 0 1 1.5 0 2.1z"/><path id="Path_1140" class="st5" d="M517.1 385.8c-.5 0-.9-.4-.9-.9V374h1.7v11c0 .5-.4.8-.8.8z"/><path id="Path_1141" class="st6" d="M517.7 374.5c-.4.2-.9.2-1.2 0s-.3-.5 0-.7c.4-.2.9-.2 1.2 0s.3.5 0 .7z"/><path id="Path_1142" class="st5" d="M517.1 374.5c-.4 0-.7-.3-.7-.7v-10.2h1.4v10.2c0 .4-.3.7-.7.7z"/><path id="Path_1143" class="st9" d="M527.1 368.9v-.4l.6-.1.6-.5c.1-.1.3-.1.4 0l.5.3.5-.1v.4c0 .1-.1.1-.1.1l-1.5.7c-.1.1-.3 0-.4 0l-.5-.3-.1-.1z"/><path id="Path_1144" class="st5" d="M527.2 368.4l1.1-.9c.1-.1.3-.1.4 0l.9.5c.1.1.1.2 0 .2l-1.5.7c-.1.1-.3 0-.4 0l-.5-.3c-.1-.1-.1-.1 0-.2z"/><g id="Group_996" transform="translate(683.941 594.049)"><path id="Path_1145" class="st9" d="M-158.7-223.7c.2 0 .3 0 .5-.1l1.8-1c.1-.1.1-.2.1-.3-.1-.1-.2-.1-.3-.1l-1.8 1c-.2.1-.3.1-.5 0l-2.9-1.7c-.1-.1-.2 0-.3.1-.1.1 0 .2.1.3l2.9 1.7c.1 0 .3.1.4.1z"/></g><radialGradient id="Path_1146_1_" cx="312.678" cy="1273.967" r="21.872" gradientTransform="matrix(.803 0 0 .803 264.157 -676.448)" gradientUnits="userSpaceOnUse"><stop offset="0" stop-color="#13b9e5"/><stop offset=".088" stop-color="#10afde"/><stop offset=".234" stop-color="#0895cc"/><stop offset=".421" stop-color="#006daf"/><stop offset=".446" stop-color="#0067ac"/><stop offset="1" stop-color="#1c224f"/></radialGradient><path id="Path_1146" d="M508.2 366.6l2.8-1.7-1.6-.7-1.4 1 .2 1.4z" fill="url(#Path_1146_1_)"/><path id="Path_1147" class="st5" d="M526.5 364.1c-.2-.1-.3-.2-.5-.3l-6.1-4.4c-1.1-.8-2.2-1-3.1-.6h-.1l-8.4 4.9.8.3 2.9 1.3 4 2.8 3.1 1.7h.1c.7-.6 1.6-1.1 2-2 .8-1.4 2.9-1.8 4.2-2.9.1.1.3.2.4.2.5-.2.5-.6.7-1z"/><path id="Path_1148" class="st15" d="M529.1 362.1c-.1 0-.2 0-.3.1l-8.2 4.7.3 1.2.3-.1c-.5.7-1.2 1.2-1.8 1.8l.9.2 8-4.7h.1c.1-.1.2-.1.3-.2.6-.5 1-1.3 1-2.3v-.1c0-.3-.2-.6-.6-.6z"/><g id="Group_998" transform="translate(623.846 551.087)"><path id="Path_1149" d="M-105.9-192.5c.6 0 1.1.2 1.6.5-.5-.3-1-.5-1.6-.5z" fill="#e4e4e5"/><path id="Path_1150" class="st9" d="M-102.2-183.7c0-.4-.3-.7-.6-.7s-.6.3-.6.6v.1c0 .8-.2 1.3-.7 1.5s-1.2.1-1.9-.5l-6.1-4.4c-.9-.7-1.9-.9-2.7-.7l5-2.9-5.8 3.4.8.3 2.9 1.3 4 2.8 3.1 1.7h.1c.7-.6 1.6-1.1 2-2l.5-.5z"/></g><g id="Group_999" transform="translate(619.095 572.548)"><path id="Path_1151" class="st6" d="M-99.9-202.3c-.8 0-1.5-.3-2.1-.8l-6.1-4.4c-.7-.5-1.4-.7-1.9-.5-.4.2-.7.8-.7 1.5 0 .3-.3.6-.6.6s-.6-.3-.6-.6c0-1.2.5-2.1 1.3-2.5.9-.4 2-.2 3.1.6l6.1 4.4c.7.5 1.4.7 1.9.5.4-.2.7-.8.7-1.5v-.1c0-.3.3-.6.6-.6s.6.3.6.6v.1c0 1.2-.5 2.1-1.3 2.5-.3.2-.6.2-1 .2z"/></g><path id="Path_1152" class="st2" d="M514.5 380.2s-1.1-.6-1.8.3-1.7 2.9-1.7 4.2c0 1.4 1.1 1.3 1.7 1 .7-.3 2.6-3.1 2.7-3.7.1-.5-.1-1.3-.3-1.4l-.6-.4z"/><path id="Path_1153" class="st20" d="M514.7 379.9l.1 1.2c0 .3-.1.5-.3.6-.3.1-.6.2-.9.1-.9-.1-.9-.4-1-1.6-.1-1.1 2.1-.3 2.1-.3z"/><path id="Path_1154" class="st2" d="M510.3 377.9s-1.1-.6-1.8.3-1.7 2.9-1.7 4.2c0 1.4 1.1 1.3 1.7 1 .7-.3 2.6-3.1 2.7-3.7.1-.5-.1-1.3-.3-1.4-.2-.1-.6-.4-.6-.4z"/><path id="Path_1155" class="st20" d="M510.5 377.7l.1 1.2c0 .3-.1.5-.3.6-.3.1-.6.2-.9.1-.9-.1-.9-.4-1-1.6-.1-1.1 2.1-.3 2.1-.3z"/><path id="Path_1156" class="st3" d="M520.7 356c-.3-5.5-6 .8-6 .8l-3.8 3.8-3.5 3.8c-.7.7-1 1.7-.9 2.7l1.4 10.7c.1.5.5.9 1.1.9h.5c.7-.1 1.2-.7 1.2-1.4l-.3-10 7.3-4.4s3.4-1.4 3-6.9z"/><path id="Path_1157" class="st3" d="M524.9 358.1c-.3-5.5-6 .8-6 .8l-3.8 3.8-3.5 3.8c-.7.7-1 1.7-.9 2.7l1.4 10.7c.1.5.5.9 1.1.9h.5c.7-.1 1.2-.7 1.2-1.4l-.3-10 7.3-4.4s3.3-1.5 3-6.9z"/><path id="Path_1158" class="st6" d="M521.6 340.4c4.3 1.8 4.2 4.3 4.2 4.3s-.8 9.2-.5 15.4c.1 2.6-13.7 2.8-11.6-4.1 2.4-8.1 1.5-14.7 2.7-15.6 1-1.1 4.1-.4 5.2 0z"/><ellipse id="Ellipse_26" transform="rotate(-75.558 520.809 342.104)" class="st4" cx="520.8" cy="342.1" rx="1.6" ry="2.2"/><path id="Path_1159" class="st7" d="M521.1 344c-.3 0-.5 0-.8-.1-1.3-.3-2.1-1.4-1.9-2.4s1.5-1.5 2.8-1.2 2.1 1.4 1.9 2.4c-.1.5-.5.9-1 1.1-.3.1-.6.2-1 .2zm-.6-3.4c-.8 0-1.5.4-1.6 1-.2.8.5 1.6 1.6 1.9.5.1 1 .1 1.5-.1.4-.1.7-.4.8-.8.2-.8-.5-1.6-1.6-1.9-.2 0-.5-.1-.7-.1z"/><path id="Path_1160" class="st4" d="M519.9 340.2v1.5c0 .4 1.5.8 1.8.4s.2-.8.3-2.2c.1-1.4-2.1.3-2.1.3z"/><path id="Path_1161" class="st8" d="M522 339.9s-.4 1.3-2.2 1.9v-1.2l2.2-.7z"/><circle id="Ellipse_27" class="st4" cx="520" cy="337.4" r="3.3"/><path id="Path_1162" class="st8" d="M520.7 337.5s-1.8.8-3.1.8c-1.2 0-1-1-1-1l3.7-.5.4.7z"/><path id="Path_1163" class="st17" d="M517.3 337.7s1.6-.7 2.9-.4c.3.1.6.2.8.5.1.1.2.2.3.2.2.1.6-1 1.1-1s.8.3.4.9-.3 1.3-.1 1.4 2.1-1.4.4-4.7c-1.7-3.3-5.9-1.5-6.6-.9 0 0-.7.6-1.3.1.1.1-.5 4.9 2.1 3.9z"/><path id="Path_1164" class="st4" d="M523.4 351.4v2.5c0 .3-.1.6-.3.8l-5.1 4.7.6.9 6.8-4.5c.3-.2.5-.6.6-1l.5-4.7-3.1 1.3z"/><path id="Path_1165" class="st6" d="M525.4 343.4s1.6 2.3 2.1 8.5c0 0-2.7.9-4.2.4-1.4-.5 2.1-8.9 2.1-8.9z"/><path id="Path_1166" class="st1" d="M523.1 346.4s-.6 3.3-.6 4.8c0 .4.2.8.6.9v-5.7z"/><g id="Group_1004" transform="translate(615.383 546.092)"><path id="Path_1167" class="st2" d="M-93.6-183.5l-1.1-.1-7.3-4.2c-.3-.1-.6-.1-.9 0l-5.2 3-.7-.1v.7c0 .1.1.2.2.2l8.3 4.8c.3.1.6.1.9 0l5.6-3.3c.1-.1.2-.2.2-.3v-.7z"/><path id="Path_1168" class="st11" d="M-99.1-186.2l-.5-.3h-5.7l-2.8 1.6-.7-.1v.7c0 .1.1.2.2.2l8.3 4.8c.1.1.3.1.5.1l.7-7z"/><path id="Path_1169" class="st13" d="M-108.5-184.9h-.3v.7c0 .1.1.2.2.2l.1.1v-1z"/><path id="Path_1170" class="st21" d="M-100.3-179.2c.3.1.5.1.8 0v-1.2h-.8v1.2z"/><path id="Path_1171" class="st7" d="M-100.4-179.9l-8.3-4.8c-.2-.1-.2-.4.1-.5l5.6-3.3c.3-.2.6-.2.9 0l8.3 4.8c.2.1.2.4-.1.5l-5.6 3.3c-.3.1-.6.1-.9 0z"/><path id="Path_1172" class="st12" d="M-100.5-180.6l-6.9-4c-.2-.1-.2-.3.1-.4l3-1.7c.2-.1.5-.1.8 0l6.9 4c.2.1.2.3-.1.4l-3 1.7c-.3.1-.6.1-.8 0z"/></g><path id="Path_1173" class="st4" d="M512.7 357.5l-.1.6c-.1.5-.1 1 0 1.5l.1.5c.1.3.3.5.6.6.2 0 .4-.1.5-.3l.1-1.2s.3.4.5.4-.2-1.2-.5-1.9c-.4-.9-1.2-.2-1.2-.2z"/><path id="Path_1174" class="st4" d="M515.5 348.4l-.9 1.8c-.2.4-.3.9-.4 1.3l-.4 6h-1.2l-.5-6.8v-.6l.6-3.4 2.8 1.7z"/><g id="Group_1005" transform="translate(611.693 529.953)"><path id="Path_1175" class="st2" d="M-97-163.3l-.7-.9-7.3-4.2c-.3-.2-.4-.5-.4-.8v-6l-.4-.5.4-.2c.1-.1.2 0 .3 0l8.3 4.8c.3.2.4.5.4.8v6.5c0 .1 0 .3-.2.3l-.4.2z"/><path id="Path_1176" class="st11" d="M-102-166.8l-.5-.3-2.8-4.9v-3.2l-.4-.5.4-.2c.1-.1.2 0 .3 0l8.3 4.8c.1.1.2.2.3.4l-5.6 3.9z"/><path id="Path_1177" class="st13" d="M-105.6-175.5l-.2-.2.4-.2c.1-.1.2 0 .3 0l.1.1-.6.3z"/><path id="Path_1178" class="st21" d="M-96.8-171.2c.2.2.3.4.3.7l-.8.5-.4-.7.9-.5z"/><path id="Path_1179" class="st7" d="M-97.3-171l-8.3-4.8c-.2-.1-.4 0-.4.3v6.5c0 .3.2.6.4.8l8.3 4.8c.2.1.4 0 .4-.3v-6.5c.1-.3-.1-.6-.4-.8z"/></g><path id="Path_1180" class="st4" d="M518.5 360.2l-.1.3c-.2.3-.4.6-.7.8l-.8.5c-.3.2-.6.2-.8 0-.2-.2-.3-.5-.1-.7 0 0 0-.1.1-.1l.9-.9s-.5.4-.6.2c-.1-.1.5-.6.9-.7.3 0 .6-.2.9-.4l.3 1z"/><path id="Path_1181" class="st6" d="M516.3 340.3s-3.1 3.4-4.4 6.6c0 0 1.1 1.9 3.7 2.7s.7-9.3.7-9.3z"/><path id="Path_1182" class="st1" d="M515 349.4l.5-4.9-1.2 4.6c.2.1.5.2.7.3z"/><path id="Path_1183" class="st7" d="M518.7 339.6l-.8-.2s.4.6 1 .8c.6.2.7-.3.7-.3l-.9-.3z"/></g></svg>