<svg xmlns="http://www.w3.org/2000/svg" width="24.02" height="24.02" viewBox="0 0 24.02 24.02">
    <g id="list" transform="translate(256.327 1202.749)">
        <g id="Group_2700" data-name="Group 2700" transform="translate(-249.684 -1195.497)">
            <g id="Group_2697" data-name="Group 2697" transform="translate(0 0)">
                <path id="Path_9325" data-name="Path 9325"
                    d="M-194.157-1143.947h-9.019a.858.858,0,0,1-.858-.858.858.858,0,0,1,.858-.857h9.019a.857.857,0,0,1,.857.857A.857.857,0,0,1-194.157-1143.947Z"
                    transform="translate(204.033 1145.662)" fill="#ff840c" />
            </g>
            <g id="Group_2698" data-name="Group 2698" transform="translate(0 3.901)">
                <path id="Path_9326" data-name="Path 9326"
                    d="M-194.157-1113.243h-9.019a.857.857,0,0,1-.858-.857.857.857,0,0,1,.858-.858h9.019a.857.857,0,0,1,.857.858A.857.857,0,0,1-194.157-1113.243Z"
                    transform="translate(204.033 1114.958)" fill="#ff840c" />
            </g>
            <g id="Group_2699" data-name="Group 2699" transform="translate(0 7.801)">
                <path id="Path_9327" data-name="Path 9327"
                    d="M-194.157-1082.538h-9.019a.857.857,0,0,1-.858-.857.857.857,0,0,1,.858-.857h9.019a.857.857,0,0,1,.857.857A.857.857,0,0,1-194.157-1082.538Z"
                    transform="translate(204.033 1084.253)" fill="#ff840c" />
            </g>
        </g>
        <g id="Group_2701" data-name="Group 2701" transform="translate(-256.327 -1202.749)">
            <path id="Path_9328" data-name="Path 9328"
                d="M-244.317-1178.729a12.024,12.024,0,0,1-12.01-12.01,12.024,12.024,0,0,1,12.01-12.01,12.024,12.024,0,0,1,12.01,12.01,11.908,11.908,0,0,1-2.41,7.217.858.858,0,0,1-1.2.169.858.858,0,0,1-.169-1.2,10.205,10.205,0,0,0,2.065-6.186,10.307,10.307,0,0,0-10.3-10.3,10.307,10.307,0,0,0-10.3,10.3,10.307,10.307,0,0,0,10.3,10.3,10.227,10.227,0,0,0,5.963-1.9.857.857,0,0,1,1.2.2.858.858,0,0,1-.2,1.2A11.932,11.932,0,0,1-244.317-1178.729Z"
                transform="translate(256.327 1202.749)" fill="#ff840c" />
        </g>
    </g>
</svg>
