<?xml version="1.0" encoding="utf-8"?>
<!-- Generator: Adobe Illustrator 25.1.0, SVG Export Plug-In . SVG Version: 6.00 Build 0)  -->
<svg version="1.1" id="web_icon" xmlns="http://www.w3.org/2000/svg" xmlns:xlink="http://www.w3.org/1999/xlink" x="0px" y="0px"
	 viewBox="0 0 360 98" style="enable-background:new 0 0 360 98;" xml:space="preserve">
<style type="text/css">
	.st0{fill:url(#SVGID_1_);}
	.st1{fill:url(#SVGID_2_);}
	.st2{fill:url(#SVGID_3_);}
	.st3{fill:url(#SVGID_4_);}
	.st4{fill:#FF2610;}
	.st5{fill:#FE7F02;}
	.st6{fill:#FFC502;}
	.st7{fill:url(#SVGID_5_);}
	.st8{fill:url(#SVGID_6_);}
	.st9{fill:#FF8100;}
</style>
<g>
	<linearGradient id="SVGID_1_" gradientUnits="userSpaceOnUse" x1="104.2419" y1="35.1053" x2="148.5807" y2="83.4346">
		<stop  offset="0" style="stop-color:#FF7D00"/>
		<stop  offset="0.9949" style="stop-color:#FF3009"/>
	</linearGradient>
	<path class="st0" d="M104.7,63.5c-0.5-0.5-0.7-1.1-0.7-1.7c0-0.7,0.2-1.3,0.7-1.7c0.5-0.5,1.1-0.7,1.7-0.7h43.6
		c0.7,0,1.3,0.2,1.7,0.7c0.5,0.5,0.7,1,0.7,1.7c0,0.7-0.2,1.2-0.7,1.7c-0.5,0.5-1,0.7-1.7,0.7h-19.3v4h16.7c0.7,0,1.3,0.2,1.7,0.7
		c0.5,0.5,0.7,1,0.7,1.7c0,1.7-0.8,2.5-2.5,2.5h-16.7v1.1c0,0.7-0.2,1.2-0.7,1.7c-0.5,0.5-1,0.7-1.7,0.7c-0.7,0-1.2-0.2-1.7-0.7
		c-0.5-0.5-0.7-1.1-0.7-1.7v-1.1h-16.7c-1.7,0-2.5-0.8-2.5-2.5c0-0.7,0.2-1.3,0.7-1.7c0.5-0.5,1.1-0.7,1.7-0.7h16.7v-4h-19.3
		C105.8,64.2,105.2,64,104.7,63.5z M108.5,53.6c-1.5-1.5-2.3-3.3-2.3-5.5v-8.4c0-2.1,0.8-3.9,2.3-5.5c1.5-1.5,3.3-2.3,5.5-2.3h6
		v-0.5c0-0.7,0.2-1.3,0.7-1.7c0.5-0.5,1.1-0.7,1.7-0.7c1.7,0,2.5,0.8,2.5,2.5V32h17.8c2.2,0,4,0.8,5.5,2.3c1.5,1.5,2.3,3.3,2.3,5.5
		v8.4c0,2.1-0.8,4-2.3,5.5c-1.5,1.5-3.3,2.3-5.5,2.3h-28.7C111.8,55.9,110,55.1,108.5,53.6z M111.1,48.1c0,0.8,0.3,1.4,0.8,2
		c0.5,0.5,1.2,0.8,2,0.8h28.7c0.8,0,1.5-0.3,2-0.8c0.5-0.5,0.8-1.2,0.8-2v-8.4c0-0.7-0.3-1.4-0.8-2c-0.5-0.5-1.2-0.8-2-0.8h-20.3
		h-0.6h-7.9c-0.8,0-1.5,0.3-2,0.8c-0.5,0.6-0.8,1.2-0.8,2V48.1z M152.2,77.8h-47.9c-0.7,0-1.2,0.2-1.7,0.7c-0.5,0.5-0.7,1-0.7,1.7
		c0,0.7,0.2,1.2,0.7,1.7c0.5,0.5,1.1,0.7,1.7,0.7h47.9c0.7,0,1.3-0.2,1.7-0.7c0.5-0.5,0.7-1.1,0.7-1.7c0-0.7-0.2-1.3-0.7-1.7
		C153.5,78.1,152.9,77.8,152.2,77.8z M116.4,46.4h23.7c1.7,0,2.5-0.8,2.5-2.5c0-1.7-0.8-2.5-2.5-2.5h-23.7c-0.7,0-1.2,0.2-1.7,0.7
		c-0.5,0.5-0.7,1-0.7,1.7c0,0.7,0.2,1.2,0.7,1.7C115.2,46.2,115.8,46.4,116.4,46.4z"/>
	<linearGradient id="SVGID_2_" gradientUnits="userSpaceOnUse" x1="162.788" y1="35.85" x2="212.6691" y2="76.42">
		<stop  offset="0" style="stop-color:#FF6300"/>
		<stop  offset="1" style="stop-color:#FF9800"/>
	</linearGradient>
	<path class="st1" d="M188.9,62.8c0.7,0,1.3-0.2,1.7-0.7c0.5-0.5,0.7-1.1,0.7-1.7c0-1.7-0.8-2.5-2.5-2.5h-21.6
		c-1.7,0-2.5,0.8-2.5,2.5c0,0.7,0.2,1.2,0.7,1.7c0.5,0.5,1.1,0.7,1.7,0.7H188.9z M172,45.8c-0.7,0-1.2,0.2-1.7,0.7
		c-0.5,0.5-0.7,1-0.7,1.7c0,0.7,0.2,1.2,0.7,1.7c0.5,0.5,1.1,0.7,1.7,0.7h14.6c0.7,0,1.3-0.2,1.7-0.7c0.5-0.5,0.7-1.1,0.7-1.7
		c0-0.7-0.2-1.3-0.7-1.7c-0.5-0.5-1-0.7-1.7-0.7H172z M173.7,64.2c-0.7-0.2-1.3-0.1-1.8,0.3c-0.6,0.4-1,0.9-1.1,1.6l-3.5,15.4
		c-0.2,0.7-0.1,1.3,0.3,1.9c0.4,0.6,0.9,0.9,1.6,1.1c0.6,0.2,1.2,0.1,1.9-0.3c0.6-0.4,1-0.9,1.1-1.5l3.5-15.4
		C176,65.6,175.3,64.6,173.7,64.2z M214.8,69.5c-0.7,0-1.2,0.2-1.7,0.7c-0.5,0.5-0.7,1-0.7,1.7v3.5c0,0.7-0.2,1.3-0.7,1.8
		c-0.5,0.5-1.1,0.7-1.8,0.7h-21.5c-1.7,0-2.5-0.8-2.5-2.5v-8.9c0-0.7-0.2-1.3-0.7-1.7c-0.5-0.5-1-0.7-1.7-0.7
		c-0.7,0-1.2,0.2-1.7,0.7c-0.5,0.5-0.7,1-0.7,1.7v8.9c0,2.1,0.7,3.8,2.2,5.3c1.5,1.4,3.3,2.2,5.3,2.2h21.5c2.1,0,3.8-0.7,5.3-2.2
		c1.5-1.5,2.2-3.3,2.2-5.3V72c0-0.7-0.2-1.3-0.7-1.7C216.1,69.8,215.5,69.5,214.8,69.5z M166.6,47.3c0.7,0,1.3-0.2,1.7-0.7
		c0.5-0.5,0.7-1.1,0.7-1.7v-5c0-0.9,0.3-1.6,0.9-2.2c0.6-0.6,1.3-0.9,2.2-0.9h36.6c0.8,0,1.6,0.3,2.2,0.9c0.6,0.6,0.9,1.4,0.9,2.2
		v3.8c0,0.7,0.2,1.2,0.7,1.7c0.5,0.5,1.1,0.7,1.7,0.7c0.7,0,1.3-0.2,1.7-0.7c0.5-0.5,0.7-1.1,0.7-1.7v-3.8c0-2.2-0.8-4.1-2.4-5.7
		c-1.6-1.6-3.5-2.4-5.7-2.4h-36.6c-2.2,0-4.1,0.8-5.7,2.4c-1.6,1.6-2.4,3.5-2.4,5.7v5c0,0.7,0.2,1.2,0.7,1.7
		C165.4,47,165.9,47.3,166.6,47.3z M199.5,75.4h4.2c1.8,0,3.3-0.6,4.5-1.9c1.2-1.2,1.7-2.6,1.7-4.3V53.5h3.4c0.7,0,1.3-0.2,1.7-0.7
		c0.5-0.5,0.7-1.1,0.7-1.7c0-0.7-0.2-1.3-0.7-1.7c-0.5-0.5-1-0.7-1.7-0.7h-3.4v-2.8c0-0.7-0.2-1.3-0.7-1.7c-0.5-0.5-1-0.7-1.7-0.7
		c-0.7,0-1.2,0.2-1.7,0.7c-0.5,0.5-0.7,1-0.7,1.7v2.8h-11c-0.7,0-1.2,0.2-1.7,0.7c-0.5,0.5-0.7,1-0.7,1.7c0,0.7,0.2,1.2,0.7,1.7
		c0.5,0.5,1.1,0.7,1.7,0.7h11v15.7c0,0.8-0.4,1.2-1.2,1.2h-4.2c-0.7,0-1.2,0.2-1.7,0.7c-0.5,0.5-0.7,1-0.7,1.7
		c0,0.7,0.2,1.2,0.7,1.7C198.2,75.2,198.8,75.4,199.5,75.4z M200.2,67.7c0.6-0.3,1-0.8,1.2-1.4c0.2-0.7,0.2-1.3-0.1-1.9l-2.5-5.1
		c-0.3-0.6-0.8-1-1.4-1.2c-0.7-0.2-1.3-0.2-1.9,0.1c-1.5,0.7-1.8,1.9-1.2,3.3l2.5,5.1C197.6,67.8,198.7,68.2,200.2,67.7z"/>
	<linearGradient id="SVGID_3_" gradientUnits="userSpaceOnUse" x1="252.4688" y1="82.0588" x2="252.9739" y2="38.1212">
		<stop  offset="0" style="stop-color:#FF9D27"/>
		<stop  offset="1" style="stop-color:#FF6D2C"/>
	</linearGradient>
	<path class="st2" d="M264,48.2c-0.3-0.6-0.8-1-1.2-1.3v-2.2h13.3c0.7,0,1.3-0.2,1.7-0.7c0.5-0.5,0.7-1.1,0.7-1.7
		c0-0.7-0.2-1.3-0.7-1.7c-0.5-0.5-1-0.7-1.7-0.7h-13.3l0-7.5c0-0.7-0.2-1.3-0.7-1.7c-0.5-0.5-1-0.7-1.7-0.7c-0.7,0-1.2,0.2-1.7,0.7
		c-0.5,0.5-0.7,1-0.7,1.7v7.5h-13.3c-0.7,0-1.2,0.2-1.7,0.7c-0.5,0.5-0.7,1-0.7,1.7c0,0.7,0.2,1.2,0.7,1.7c0.5,0.5,1.1,0.7,1.7,0.7
		h13.3v2.2c-0.5,0.3-0.9,0.8-1.3,1.4L240.7,75c-0.3,0.6-0.4,1.2-0.2,1.9c0.2,0.7,0.5,1.2,1.1,1.5c0.6,0.3,1.2,0.4,1.9,0.2
		c0.7-0.2,1.2-0.5,1.5-1.1l12.8-21.7v17.9h-5.3c-0.7,0-1.2,0.2-1.7,0.7c-0.5,0.5-0.7,1-0.7,1.7c0,0.7,0.2,1.2,0.7,1.7
		c0.5,0.5,1.1,0.7,1.7,0.7h5.3v3.8c0,0.7,0.2,1.2,0.7,1.7c0.5,0.5,1.1,0.7,1.7,0.7c0.7,0,1.3-0.2,1.7-0.7c0.5-0.5,0.7-1.1,0.7-1.7
		v-3.8h5.4c0.7,0,1.3-0.2,1.7-0.7c0.5-0.5,0.7-1.1,0.7-1.7c0-0.7-0.2-1.3-0.7-1.7c-0.5-0.5-1-0.7-1.7-0.7h-5.4l0-17.9l12.8,21.6
		c0.4,0.5,0.9,0.9,1.6,1.1c0.7,0.2,1.3,0.1,1.8-0.2c0.6-0.3,1-0.8,1.2-1.5c0.2-0.7,0.1-1.3-0.2-1.9L264,48.2z M238.9,30
		c-0.6-0.3-1.3-0.4-1.9-0.1c-0.6,0.2-1.1,0.6-1.4,1.2l-10.1,19.9c-0.3,0.6-0.4,1.2-0.1,1.9c0.2,0.7,0.6,1.1,1.2,1.4
		c0.7,0.3,1.3,0.3,2,0.1c0.6-0.2,1.1-0.6,1.4-1.2L240,33.3c0.3-0.6,0.4-1.3,0.1-1.9C239.9,30.8,239.5,30.3,238.9,30z M234.6,49.9
		c-0.7,0-1.2,0.2-1.7,0.7c-0.5,0.5-0.7,1-0.7,1.7v30c0,0.7,0.2,1.2,0.7,1.7c0.5,0.5,1.1,0.7,1.7,0.7c0.7,0,1.3-0.2,1.7-0.7
		c0.5-0.5,0.7-1.1,0.7-1.7v-30c0-0.7-0.2-1.3-0.7-1.7C235.9,50.2,235.3,49.9,234.6,49.9z"/>
	<linearGradient id="SVGID_4_" gradientUnits="userSpaceOnUse" x1="287.7804" y1="57.0621" x2="341.8735" y2="57.0621">
		<stop  offset="5.846699e-02" style="stop-color:#FF7501"/>
		<stop  offset="0.4669" style="stop-color:#FF6001"/>
		<stop  offset="0.8755" style="stop-color:#FF5B00"/>
	</linearGradient>
	<path class="st3" d="M326.5,75.8c0.5-0.5,0.7-1.1,0.7-1.7c0-0.7-0.2-1.3-0.7-1.7c-0.5-0.5-1-0.7-1.7-0.7h-19.9
		c-0.7,0-1.2,0.2-1.7,0.7c-0.5,0.5-0.7,1-0.7,1.7c0,0.7,0.2,1.2,0.7,1.7s1.1,0.7,1.7,0.7h19.9C325.5,76.6,326.1,76.3,326.5,75.8z
		 M339.4,33.4h-13.7h-7.9v-1.5c0-0.7-0.2-1.3-0.7-1.7c-0.5-0.5-1-0.7-1.7-0.7c-0.7,0-1.2,0.2-1.7,0.7c-0.5,0.5-0.7,1-0.7,1.7v1.5
		h-22.5c-1.7,0-2.5,0.8-2.5,2.5c0,0.7,0.2,1.2,0.7,1.7s1.1,0.7,1.7,0.7h9.6l-5.8,7.6c-0.9,1.2-1,2.5-0.4,3.8
		c0.7,1.3,1.7,1.9,3.2,1.9h35.7c1.5,0,2.5-0.7,3.2-2c0.6-1.4,0.4-2.6-0.6-3.7l-5.1-5.5c-1.1-1.2-2.3-1.2-3.5-0.1
		c-0.5,0.5-0.8,1-0.8,1.7c0,0.7,0.2,1.2,0.7,1.7l2.7,2.9h-29.4l6.3-8.4h9.1h10.4h13.7c0.7,0,1.3-0.2,1.7-0.7
		c0.5-0.5,0.7-1.1,0.7-1.7C341.9,34.2,341,33.4,339.4,33.4z M328.3,54.8h-26.9c-1.9,0-3.5,0.7-4.8,2c-1.4,1.4-2.1,3-2.1,4.8v20.7
		c0,0.7,0.2,1.2,0.7,1.7c0.5,0.5,1.1,0.7,1.7,0.7c0.7,0,1.3-0.2,1.7-0.7c0.5-0.5,0.7-1.1,0.7-1.7V61.6c0-1.2,0.6-1.9,1.9-1.9h26.9
		c1.2,0,1.9,0.6,1.9,1.9v16c0,1.2-0.6,1.9-1.9,1.9h-8.7c-0.7,0-1.2,0.2-1.7,0.7c-0.5,0.5-0.7,1-0.7,1.7c0,0.7,0.2,1.2,0.7,1.7
		c0.5,0.5,1.1,0.7,1.7,0.7h8.7c1.9,0,3.5-0.7,4.8-2c1.3-1.3,2-2.9,2-4.8v-16c0-1.9-0.7-3.5-2-4.8C331.7,55.4,330.1,54.8,328.3,54.8z
		 M304.9,68.2h19.9c0.7,0,1.3-0.2,1.7-0.7c0.5-0.5,0.7-1.1,0.7-1.7c0-0.7-0.2-1.3-0.7-1.7c-0.5-0.5-1-0.7-1.7-0.7h-19.9
		c-0.7,0-1.2,0.2-1.7,0.7c-0.5,0.5-0.7,1-0.7,1.7c0,0.7,0.2,1.2,0.7,1.7C303.6,68,304.2,68.2,304.9,68.2z"/>
	<g>
		<path class="st4" d="M19.5,20.6C19.5,20.6,19.5,20.6,19.5,20.6C19.5,20.6,19.5,20.5,19.5,20.6c0-1.5,1.1-2.6,2.6-2.6
			c0.8,0,1.6,0.9,2.1,1.5c0.5-0.6,1.3-1.5,2.1-1.5c1.5,0,2.6,1.1,2.6,2.6c0,1.8-1.6,3.3-4.1,5.4l-0.7,0.7l0,0v0L23.6,26
			C21.1,23.8,19.5,22.4,19.5,20.6z"/>
		<path class="st5" d="M40.1,14.2c0-1.9,1.6-3.1,3.1-4.3c0.7-0.6,1.5-1.1,2-1.8C45.3,8.1,45.5,8,45.6,8h0h0c0.1,0,0.3,0.1,0.4,0.2
			c0.6,0.6,1.3,1.2,2,1.8c1.5,1.2,3.1,2.4,3.1,4.3c0,1.7-1.3,2.9-3.1,2.9c-0.5,0-0.9-0.2-1.3-0.4c0.1,0.5,0.3,0.9,0.5,1.1
			c0.1,0.1,0.2,0.2,0.3,0.2c0.3,0,0.5,0.2,0.5,0.5c0,0.3-0.2,0.5-0.5,0.5h-3.8c-0.3,0-0.5-0.2-0.5-0.5c0-0.3,0.2-0.5,0.5-0.5
			c0.1,0,0.2-0.1,0.2-0.1c0.2-0.2,0.4-0.6,0.5-1.1c-0.4,0.2-0.8,0.3-1.3,0.3C41.4,17.2,40.1,16,40.1,14.2z"/>
		<polygon class="st6" points="66.9,26.7 62.7,22.3 66.9,17.8 71.2,22.3 		"/>
		<linearGradient id="SVGID_5_" gradientUnits="userSpaceOnUse" x1="76.4162" y1="48.0532" x2="17.0022" y2="38.2987">
			<stop  offset="4.311040e-02" style="stop-color:#FFFE01"/>
			<stop  offset="0.4725" style="stop-color:#F58020"/>
			<stop  offset="0.9617" style="stop-color:#FF2610"/>
		</linearGradient>
		<path class="st7" d="M69.9,30c-1.6-1.3-3.5-1.9-5.7-2c-2.7-0.1-4.6,2.4-3.9,4.9l0,0c0.4,1.2,1.4,2.2,2.6,2.6
			c0.4,0.1,0.8,0.3,1.1,0.5c2.9,2.3,1.7,8.2-2.6,13.1c-2.7,3.1-6.1,5.1-8.9,5.5c3.2-3.3,5.4-8.8,5.4-15c0-1.3-0.1-2.6-0.3-3.8
			c-0.3-3.8-1.6-5.8-1.6-5.8c-2.2-5.2-6.1-8.6-10.5-8.6c-4.4,0-8.3,3.4-10.5,8.6c0,0-1.3,2-1.6,5.8c-0.2,1.2-0.3,2.5-0.3,3.8
			c0,6.2,2.1,11.8,5.4,15c-2.8-0.4-6.2-2.4-8.9-5.5c-4.3-4.9-5.4-10.8-2.6-13.1c0.3-0.2,0.7-0.4,1.1-0.5c1.3-0.4,2.3-1.4,2.6-2.6
			l0,0c0.7-2.5-1.2-5-3.9-4.9c-2.2,0.1-4.2,0.7-5.7,2c-5.2,4.2-4,13.9,2.7,21.6c2.2,2.6,4.8,4.6,7.4,6c-1.1,0.2-2.3,0.5-3.4,0.7
			c-2.3,0.5-1.5,3.8,0.8,3.4c12-2.2,21.7-2.3,33.5-0.3c2.4,0.4,3.1-2.9,0.8-3.5c-0.9-0.2-1.9-0.4-2.8-0.6c2.4-1.4,4.8-3.3,6.9-5.7
			C73.9,43.9,75.1,34.2,69.9,30z M48.7,52c-0.4,0.3-0.8,0.5-1.2,0.7c-0.5,0.2-1,0.3-1.5,0.3c-0.1,0-0.7,0-0.9,0
			c-0.5,0-1-0.1-1.5-0.3c-0.4-0.2-0.8-0.4-1.2-0.7c-2.4-1.8-4.1-5.9-4.1-10.6c0-0.8,0-1.5,0.1-2.2c0.2-2.1,0.8-4.1,1.6-5.6
			c1.2-2.3,3-3.8,5-3.8c0,0,0,0,0,0c0.3,0,0.6,0,0.8,0c0,0,0,0,0,0c2,0,3.8,1.5,5,3.8c0.8,1.5,1.4,3.5,1.6,5.6
			c0.1,0.7,0.1,1.5,0.1,2.2C52.8,46.2,51.1,50.3,48.7,52z"/>
		<linearGradient id="SVGID_6_" gradientUnits="userSpaceOnUse" x1="71.0062" y1="86.1141" x2="26.8827" y2="71.955">
			<stop  offset="5.846699e-02" style="stop-color:#FF7402"/>
			<stop  offset="0.6074" style="stop-color:#FF8100"/>
			<stop  offset="1" style="stop-color:#FFA500"/>
		</linearGradient>
		<path class="st8" d="M68.9,88c-0.4,1.6-1.5,2.2-3.2,1.9c-8-1.6-12-2-20.1-2c-8.1,0-12.1,0.4-20.1,2c-1.7,0.3-2.8-0.3-3.2-1.9
			c-0.4-1.7,0.3-2.7,2.1-3.1c7.2-1.5,10.9-1.9,18.2-2.1c0-1,0-3.5-0.1-4.5c-5,0.1-7.6,0.4-12.6,1.1c-1.8,0.3-2.8-0.4-3.1-2
			c-0.3-1.6,0.5-2.5,2.4-2.8c5.2-0.8,7.9-1,13.2-1.1c0-1,0-3.5-0.1-4.5c-6.5,0.2-9.8,0.5-16.3,1.6c-2,0.3-3.1-0.3-3.4-1.9
			c-0.3-1.6,0.5-2.6,2.6-3c13.5-2.2,27.6-2.4,41.1,0c2,0.4,2.9,1.4,2.6,3c-0.3,1.6-1.5,2.2-3.5,1.9c-6.3-1.1-9.4-1.4-15.8-1.6
			c0,1-0.1,3.5-0.1,4.5c5.3,0.2,7.9,0.4,13.1,1.2c1.9,0.3,2.7,1.2,2.4,2.8c-0.3,1.6-1.4,2.2-3.1,2c-5-0.8-7.5-1-12.5-1.2
			c0,1-0.1,3.5-0.1,4.5c7.1,0.2,10.6,0.7,17.6,2.1C68.6,85.3,69.3,86.4,68.9,88z"/>
		<path class="st9" d="M43.1,44.7c-1.4,0-2.5-1.1-2.5-2.5s1.1-2.5,2.5-2.5c0,0,0.1,0,0.1,0c-0.1-0.3-0.1-0.5-0.1-0.8
			c0-1.4,1.1-2.5,2.5-2.5s2.5,1.1,2.5,2.5c0,0.3,0,0.6-0.1,0.8c0,0,0.1,0,0.1,0c1.4,0,2.5,1.1,2.5,2.5s-1.1,2.5-2.5,2.5
			c-0.6,0-1.1-0.2-1.6-0.5c0.1,0.6,0.3,1,0.5,1.2c0.1,0.1,0.2,0.1,0.2,0.1c0.2,0,0.4,0.2,0.4,0.4s-0.2,0.4-0.4,0.4h-3.4
			c-0.2,0-0.4-0.2-0.4-0.4s0.2-0.4,0.4-0.4c0.1,0,0.2-0.1,0.2-0.1c0.2-0.2,0.4-0.6,0.5-1.2C44.2,44.5,43.6,44.7,43.1,44.7z"/>
	</g>
</g>
</svg>
