<svg id="Icon_hamburger_menu" data-name="Icon/hamburger_menu" xmlns="http://www.w3.org/2000/svg" width="20" height="20" viewBox="0 0 20 20">
  <rect id="Icon_Group_hamburger_menu_background" data-name="Icon/Group/hamburger_menu background" width="20" height="20" fill="none"/>
  <g id="Icon_hamburger_menu-2" data-name="Icon/hamburger_menu">
    <path id="Icon_hamburger_menu-3" data-name="Icon/hamburger_menu" d="M2.25,20A2.282,2.282,0,0,1,0,17.692V2.308A2.282,2.282,0,0,1,2.25,0h13.5A2.282,2.282,0,0,1,18,2.308V17.692a2.309,2.309,0,0,1-.677,1.65,2.206,2.206,0,0,1-1.57.658ZM1.5,2.3V17.689a.76.76,0,0,0,.75.769h13.5a.76.76,0,0,0,.75-.769V2.3a.761.761,0,0,0-.75-.77H2.25A.761.761,0,0,0,1.5,2.3ZM3.75,16a.8.8,0,0,1,0-1.606h10.49a.8.8,0,0,1,0,1.606Zm0-4.787a.8.8,0,0,1,0-1.606h8.285a.8.8,0,0,1,0,1.606ZM12.748,5.2A1.128,1.128,0,1,1,15,5.2a1.128,1.128,0,1,1-2.251,0Zm-4.882,0a1.128,1.128,0,1,1,2.252,0,1.128,1.128,0,1,1-2.252,0ZM3,5.2A1.169,1.169,0,0,1,4.129,4,1.169,1.169,0,0,1,5.255,5.2a1.168,1.168,0,0,1-1.126,1.2A1.169,1.169,0,0,1,3,5.2Z" transform="translate(1)" fill="#fff"/>
  </g>
</svg>
