<svg xmlns="http://www.w3.org/2000/svg" width="110.238" height="22.677" viewBox="0 0 110.238 22.677">
  <path id="_9393-logo" data-name="9393-logo" d="M1243.756-3259.171l6.048-9.837v9.837Zm64.629-.2a9.217,9.217,0,0,1-1.8-.534,7.653,7.653,0,0,1-1.623-.91,4.922,4.922,0,0,1-1.236-1.3,6.1,6.1,0,0,1-.8-1.789,17.6,17.6,0,0,1-.374-1.9h5.373a2.548,2.548,0,0,0,.8,1.443,2.333,2.333,0,0,0,1.579.519,2.085,2.085,0,0,0,1.667-.663,2.511,2.511,0,0,0,.574-1.7,1.774,1.774,0,0,0-.488-1.371,2.582,2.582,0,0,0-1.207-.607,6.089,6.089,0,0,0-1.523-.13q-.8.03-1.408.029v-3.925q.574,0,1.192-.029a3.793,3.793,0,0,0,1.135-.217,1.824,1.824,0,0,0,.848-.62,1.966,1.966,0,0,0,.33-1.212,2.434,2.434,0,0,0-.345-1.27,1.2,1.2,0,0,0-1.12-.577,1.43,1.43,0,0,0-1.25.5,2.161,2.161,0,0,0-.359,1.284h-5.228a6.648,6.648,0,0,1,.589-2.727,5.917,5.917,0,0,1,1.523-2.021,6.742,6.742,0,0,1,2.241-1.255,8.509,8.509,0,0,1,2.743-.433,7.845,7.845,0,0,1,2.385.375,6.309,6.309,0,0,1,2.083,1.111,5.8,5.8,0,0,1,1.465,1.79,4.98,4.98,0,0,1,.56,2.381,4.6,4.6,0,0,1-.7,2.612,5.526,5.526,0,0,1-2.054,1.775,5.989,5.989,0,0,1,2.858,1.833,4.8,4.8,0,0,1,1.048,3.189,5.477,5.477,0,0,1-.675,2.713,6.526,6.526,0,0,1-1.781,2.049,8.61,8.61,0,0,1-2.485,1.3,8.648,8.648,0,0,1-2.758.462A9.623,9.623,0,0,1,1308.385-3259.375Zm-20.283.173,7.7-12.41a1.645,1.645,0,0,1,.115-.2,1.32,1.32,0,0,0,.114-.231,1.486,1.486,0,0,0,.144-.5,5.493,5.493,0,0,0,.028-.562,2.977,2.977,0,0,0-.789-2.078,2.622,2.622,0,0,0-2.026-.866,2.953,2.953,0,0,0-2.1.808,2.688,2.688,0,0,0-.861,2.049,2.779,2.779,0,0,0,.847,2.107,2.937,2.937,0,0,0,2.111.807,3.162,3.162,0,0,0,.891-.144l-3.246,4.848a5.628,5.628,0,0,1-2.615-.577,5.587,5.587,0,0,1-1.882-1.559,6.9,6.9,0,0,1-1.149-2.28,9.541,9.541,0,0,1-.387-2.742,8.109,8.109,0,0,1,.631-3.232,7.725,7.725,0,0,1,1.739-2.54,8.066,8.066,0,0,1,2.6-1.673,8.541,8.541,0,0,1,3.247-.606,9.072,9.072,0,0,1,3.3.591,7.808,7.808,0,0,1,2.628,1.659,7.632,7.632,0,0,1,1.739,2.583,8.58,8.58,0,0,1,.632,3.334,8.188,8.188,0,0,1-.546,2.973,13.277,13.277,0,0,1-1.407,2.684l-5.2,7.763Zm-13.618-.173a9.226,9.226,0,0,1-1.8-.534,7.632,7.632,0,0,1-1.623-.91,4.92,4.92,0,0,1-1.236-1.3,6.123,6.123,0,0,1-.8-1.789,17.55,17.55,0,0,1-.374-1.9h5.372a2.554,2.554,0,0,0,.8,1.443,2.336,2.336,0,0,0,1.58.519,2.083,2.083,0,0,0,1.666-.663,2.507,2.507,0,0,0,.575-1.7,1.771,1.771,0,0,0-.489-1.371,2.579,2.579,0,0,0-1.206-.607,6.088,6.088,0,0,0-1.523-.13q-.8.03-1.409.029v-3.925q.575,0,1.193-.029a3.791,3.791,0,0,0,1.135-.217,1.822,1.822,0,0,0,.848-.62,1.966,1.966,0,0,0,.33-1.212,2.433,2.433,0,0,0-.345-1.27,1.205,1.205,0,0,0-1.12-.577,1.43,1.43,0,0,0-1.25.5,2.16,2.16,0,0,0-.359,1.284h-5.229a6.66,6.66,0,0,1,.589-2.727,5.917,5.917,0,0,1,1.523-2.021,6.742,6.742,0,0,1,2.241-1.255,8.508,8.508,0,0,1,2.743-.433,7.844,7.844,0,0,1,2.385.375,6.318,6.318,0,0,1,2.083,1.111,5.8,5.8,0,0,1,1.465,1.79,4.99,4.99,0,0,1,.56,2.381,4.6,4.6,0,0,1-.7,2.612,5.533,5.533,0,0,1-2.054,1.775,5.992,5.992,0,0,1,2.858,1.833,4.8,4.8,0,0,1,1.049,3.189,5.477,5.477,0,0,1-.675,2.713,6.525,6.525,0,0,1-1.781,2.049,8.619,8.619,0,0,1-2.485,1.3,8.65,8.65,0,0,1-2.759.462A9.637,9.637,0,0,1,1274.484-3259.375Zm-20.282.173,7.7-12.41a1.765,1.765,0,0,1,.115-.2,1.368,1.368,0,0,0,.115-.231,1.485,1.485,0,0,0,.143-.5,5.455,5.455,0,0,0,.029-.562,2.977,2.977,0,0,0-.79-2.078,2.62,2.62,0,0,0-2.025-.866,2.954,2.954,0,0,0-2.1.808,2.689,2.689,0,0,0-.862,2.049,2.78,2.78,0,0,0,.849,2.107,2.935,2.935,0,0,0,2.111.807,3.157,3.157,0,0,0,.89-.144l-3.246,4.848a5.628,5.628,0,0,1-2.615-.577,5.587,5.587,0,0,1-1.882-1.559,6.879,6.879,0,0,1-1.148-2.28,9.512,9.512,0,0,1-.388-2.742,8.109,8.109,0,0,1,.632-3.232,7.737,7.737,0,0,1,1.738-2.54,8.06,8.06,0,0,1,2.6-1.673,8.534,8.534,0,0,1,3.246-.606,9.065,9.065,0,0,1,3.3.591,7.821,7.821,0,0,1,2.629,1.659,7.631,7.631,0,0,1,1.738,2.583,8.582,8.582,0,0,1,.632,3.334,8.187,8.187,0,0,1-.545,2.973,13.279,13.279,0,0,1-1.409,2.684l-5.2,7.763Zm-17.62-.259a10.635,10.635,0,0,1-3.434-1.385,11.145,11.145,0,0,1-2.714-2.382,10.814,10.814,0,0,1-1.8-3.16,10.8,10.8,0,0,1-.647-3.752,10.432,10.432,0,0,1,.877-4.3,10.413,10.413,0,0,1,2.4-3.391,11.031,11.031,0,0,1,3.533-2.222,11.629,11.629,0,0,1,4.309-.794,10.914,10.914,0,0,1,2.557.3,11.467,11.467,0,0,1,2.427.88,11.478,11.478,0,0,1,2.183,1.414,9.849,9.849,0,0,1,1.767,1.876,9.16,9.16,0,0,1,1.409,2.885h-5.918a5.463,5.463,0,0,0-1.925-2.006,5.041,5.041,0,0,0-2.642-.706,5.393,5.393,0,0,0-2.313.49,5.608,5.608,0,0,0-1.8,1.313,5.934,5.934,0,0,0-1.164,1.933,6.56,6.56,0,0,0-.417,2.324,7.191,7.191,0,0,0,.4,2.41,6.152,6.152,0,0,0,1.135,1.991,5.411,5.411,0,0,0,1.781,1.357,5.408,5.408,0,0,0,2.371.5,3.137,3.137,0,0,0,.316-.015c.1-.009.191-.014.287-.014l2.27-3.318h-4.08v-4.271h12.209l-7.24,11.688a10.885,10.885,0,0,1-1.781.447,11.773,11.773,0,0,1-1.954.158A10.913,10.913,0,0,1,1236.581-3259.462Zm-15.371.259v-8.658h-7.1v8.658h-5.487v-21.645h5.487v8.167h7.1V-3276h-2.9v-4.848h8.389v21.645Zm18.062-4.767c.067,0,.133-.006.2-.01l-.012.017Zm-.268,0c-.051,0-.1,0-.153,0a5.479,5.479,0,0,1-.649-.042l1.07.034c-.039,0-.076.007-.115.007S1239.055-3263.965,1239-3263.966Zm-.827-.038,0,0,.022,0Z" transform="translate(-1208.127 3281.347)" fill="#fff" stroke="rgba(0,0,0,0)" stroke-miterlimit="10" stroke-width="1"/>
</svg>
