<?xml version="1.0" encoding="utf-8"?>
<!-- Generator: Adobe Illustrator 24.3.0, SVG Export Plug-In . SVG Version: 6.00 Build 0)  -->
<svg version="1.1" id="Layer_1" xmlns="http://www.w3.org/2000/svg" xmlns:xlink="http://www.w3.org/1999/xlink" x="0px" y="0px"
	 viewBox="0 0 111.1 52" style="enable-background:new 0 0 111.1 52;" xml:space="preserve">
<style type="text/css">
	.st0{fill:#D65F00;}
	.st1{fill:#FF9200;}
	.st2{fill:#FFFFFF;}
</style>
<g transform="translate(-1345.998 430.469)">
	<path class="st0" d="M1356.9-404.8h-4.7v-0.5h4.7V-404.8L1356.9-404.8z M1356.9-405.6h-4.7l-1.5-3.3l1.7,1.3
		c-0.1,0.1-0.1,0.2-0.1,0.2c0,0.2,0.2,0.4,0.4,0.4c0.2,0,0.4-0.2,0.4-0.4c0.1,0.2,0.2,0.2,0.4,0.2c0.2,0,0.4-0.2,0.5-0.5
		c0-0.2-0.1-0.3-0.2-0.4l0.8-1.6l0.8,1.6c-0.2,0.1-0.2,0.2-0.2,0.4c0,0.2,0.2,0.5,0.5,0.5c0.2,0,0.3-0.1,0.4-0.2
		c0,0.2,0.2,0.4,0.4,0.4c0.1,0,0.2,0,0.3-0.1s0.2-0.2,0.1-0.3c0-0.1,0-0.2-0.1-0.2l1.7-1.3L1356.9-405.6z"/>
	<path class="st1" d="M1371.9-414.2h2.9v19.5h-2.9v-2.6h-5.8v-1.4h5.8v-4.9h-5.5v-1.4h5.5v-4.8h-5.8v-1.4h5.8V-414.2L1371.9-414.2z
		 M1387.1-397.3h-6v2.6h-2.9v-19.5h2.9v2.9h6.2l-0.4,1.5h-5.8v4.8h6l-0.4,1.5h-5.6v4.9h6.4L1387.1-397.3z"/>
	<path class="st2" d="M1427.5-409.9h5.5l0.7-1.5h-6.2v-2.9h-2.9v2.9h-5.8v1.5h3.1l-3.6,13.2v-12.2h-0.9l2.2-5.5h-3.2l-3.5,8.7h2.5
		v11.2h2.9v-1.5h2.7l3.6-13.8v11.8h-2.2v1.5h2.2v1.9h2.9v-1.9h1.7l0.7-1.5h-2.4L1427.5-409.9L1427.5-409.9z"/>
	<path class="st2" d="M1430.7-408.6h-2.9l3.5,12.5h2.8L1430.7-408.6z"/>
	<path class="st2" d="M1452.7-407.4l-0.2-0.5h-14.2l1.2-3.5h-2.9v-1.4h9.8v-1.6h2.8v1.6h7.8l-0.7,1.5h-13.8l-0.7,2.1h9.8l-0.5-1.2
		h3.2l1.5,3.2L1452.7-407.4L1452.7-407.4z M1454.8-394.5h-4.5l-0.2-1.5h1.8v-2.7h-9.9l-0.5,4.1h-2.9l0.7-5.5v-6.5h12.6l-1.2,1.5
		h-8.5v1.7h9.7v-3.1h2.9V-394.5L1454.8-394.5z M1451.8-401.9h-9.7v1.8h9.7V-401.9z"/>
	<path class="st1" d="M1396.4-409.4l2.8,9.1h2.9l-2.8-9.1H1396.4z"/>
	<path class="st1" d="M1391.6-398.7l-2.2,4.2h3.2l1.9-4.2v-14.2h8.3l1.2-1.5h-12.4V-398.7z"/>
	<path class="st1" d="M1408.7-396h-1.8v-18.3h-2.9v19.8h4.1h2.6l0.8-7.1L1408.7-396z"/>
	<path class="st2" d="M1350.2-398.7l-0.2,1h-2.6l-0.1,0.5h1.4l-0.2,1h-1.4l-0.2,1.5h-1.1l0.5-4.1L1350.2-398.7z"/>
	<path class="st2" d="M1354.4-398.7l-0.2,1h-2.5l-0.1,0.5h1.3l-0.2,1h-1.3l-0.2,1.5h-1.2l0.5-4.1L1354.4-398.7z"/>
	<path class="st2" d="M1358.3-397.7h-1.2l-0.4,3h-0.9l0.4-3h-1.2l0.2-1h3.3L1358.3-397.7z"/>
	<path class="st2" d="M1362.9-398.7l-1.7,2.4l-0.2,1.7h-1l0.2-1.8l-1.3-2.3h1.3l0.6,1.2l0.8-1.2L1362.9-398.7z"/>
	<path class="st1" d="M1359.5-409.4c-1.5-1.5-5.1-4.5-5.1-4.5s-3.5,3-5,4.5c-0.8,0.8-1.2,2-1.1,3.1c0.1,1,0.5,1.9,1.3,2.6
		c0.6,0.5,1.5,0.8,2.3,0.8c0.9,0,1.8-0.3,2.6-0.8c1.5,1.1,3.4,1.2,4.8,0c0.8-0.6,1.2-1.6,1.3-2.6
		C1360.7-407.5,1360.4-408.6,1359.5-409.4z"/>
	<path class="st1" d="M1354.5-403.2c-0.5,0.8-1.4,1.2-2.3,1.2v0.7h4.6v-0.7C1355.9-401.9,1355-402.3,1354.5-403.2z"/>
	<path class="st2" d="M1356.8-404.9h-4.7v-0.5h4.7V-404.9L1356.8-404.9z M1356.8-405.7h-4.7l-1.6-3.3l1.7,1.3
		c-0.1,0.1-0.1,0.2-0.1,0.2c0,0.2,0.2,0.4,0.4,0.4c0.2,0,0.4-0.2,0.4-0.4c0.1,0.2,0.2,0.2,0.4,0.2c0.2,0,0.4-0.2,0.5-0.5
		c0-0.2-0.1-0.3-0.2-0.4l0.8-1.6l0.8,1.6c-0.2,0.1-0.2,0.2-0.2,0.4c0,0.2,0.2,0.5,0.5,0.5c0.2,0,0.3-0.1,0.4-0.2
		c0,0.2,0.2,0.4,0.4,0.4c0.1,0,0.2,0,0.3-0.1c0.1-0.1,0.2-0.2,0.1-0.3c0-0.1,0-0.2-0.1-0.2l1.7-1.3L1356.8-405.7z"/>
</g>
</svg>
