<svg id="_6686-tiny-W" data-name="6686-tiny-W" xmlns="http://www.w3.org/2000/svg" width="40" height="40" viewBox="0 0 40 40">
  <rect id="Rectangle_1461" data-name="Rectangle 1461" width="40" height="40" rx="5" fill="#fff"/>
  <g id="Group_1543" data-name="Group 1543" transform="translate(4.046 10.747)">
    <g id="Group_1541" data-name="Group 1541" transform="translate(0 0)">
      <path id="Path_985" data-name="Path 985" d="M17.844,34.946a3.757,3.757,0,0,1-3.873,3.805,3.747,3.747,0,0,1-3.954-3.873,4.84,4.84,0,0,1,.921-2.668l2.492-3.643h2.953L12.738,34.4a1.474,1.474,0,0,0-.108.2,1.712,1.712,0,0,0-.1.5,1.354,1.354,0,0,0,1.354,1.408,1.362,1.362,0,1,0,0-2.722,1.6,1.6,0,0,0-.433.068l1.517-2.3c1.883,0,2.871,1.571,2.871,3.385" transform="translate(-10.016 -28.568)" fill="#4f88ff"/>
      <path id="Path_986" data-name="Path 986" d="M39.267,34.946a3.915,3.915,0,0,1-7.828-.068,4.84,4.84,0,0,1,.921-2.668l2.492-3.643H37.8L34.161,34.4a1.519,1.519,0,0,0-.108.2,1.724,1.724,0,0,0-.095.5,1.354,1.354,0,0,0,1.354,1.408,1.362,1.362,0,1,0,0-2.722,1.6,1.6,0,0,0-.434.068l1.517-2.3c1.883,0,2.871,1.571,2.871,3.385" transform="translate(-22.954 -28.568)" fill="#4f88ff"/>
      <path id="Path_987" data-name="Path 987" d="M53.071,35.68a2.535,2.535,0,0,1,1.53-2.451,2.2,2.2,0,0,1-.961-1.842,3,3,0,0,1,5.986-.027,2.232,2.232,0,0,1-.948,1.869,2.5,2.5,0,0,1,1.517,2.451,3.344,3.344,0,0,1-3.534,3.114,3.385,3.385,0,0,1-3.589-3.114m2.492-.217a1.093,1.093,0,0,0,1.111,1.124,1.082,1.082,0,0,0,1.029-1.11,1.093,1.093,0,0,0-1.07-1.124,1.057,1.057,0,0,0-1.07,1.11m.163-3.914a.865.865,0,0,0,.88.894.9.9,0,1,0,.054-1.8.931.931,0,0,0-.934.907" transform="translate(-36.027 -28.611)" fill="#4f88ff"/>
      <path id="Path_988" data-name="Path 988" d="M80.4,34.946a3.915,3.915,0,0,1-7.828-.068,4.84,4.84,0,0,1,.921-2.668l2.492-3.643h2.953L75.3,34.4a1.476,1.476,0,0,0-.108.2,1.712,1.712,0,0,0-.1.5,1.354,1.354,0,0,0,1.354,1.408,1.362,1.362,0,1,0,0-2.722,1.6,1.6,0,0,0-.433.068l1.516-2.3c1.882,0,2.871,1.571,2.871,3.385" transform="translate(-47.795 -28.568)" fill="#4f88ff"/>
    </g>
    <g id="Group_1542" data-name="Group 1542" transform="translate(11.823 11.486)">
      <path id="Path_989" data-name="Path 989" d="M55.847,66.975V60.114l-.535.222v-1.62l1.04-.536h1.453v.646h2.615v-.646h2.095v.646h2.59v.888H64.035l1,7.239H63.525l-.121-.894h-.989v.914H60.527v-.914h-1l-.121.894Zm1.959-.141,1.1-7.118h-1.1Zm2.57-7.118-.742,5.523h.893V59.716Zm2.918,5.523-.737-5.523h-.141v5.523Z" transform="translate(-55.312 -58.171)" fill="#4f88ff"/>
      <path id="Path_990" data-name="Path 990" d="M74.988,59.415H73.671v-.823h3.7v-.429h2.378v.429h3.711v.823H77.5l-.752,1h4.332l-.288-.661h1.857l.652,1.484H74.06v-.7Zm-.7,2.257h8.647v5.31H80.632v-1.54H76.6v1.54H74.292Zm2.307.822v.692h4.033v-.692Zm0,2.2h4.033v-.752H76.6Z" transform="translate(-63.332 -58.163)" fill="#4f88ff"/>
    </g>
  </g>
</svg>
