<svg xmlns="http://www.w3.org/2000/svg" xmlns:xlink="http://www.w3.org/1999/xlink" width="66" height="32" viewBox="0 0 66 32">
  <defs>
    <clipPath id="clip-path">
      <rect id="Rectangle_1509" data-name="Rectangle 1509" width="66" height="32" transform="translate(145.369 762.596)" fill="#7d8ba4"/>
    </clipPath>
    <filter id="dot-right-arrow" x="4.371" y="-3.401" width="57.975" height="40.212" filterUnits="userSpaceOnUse">
      <feOffset input="SourceAlpha"/>
      <feGaussianBlur stdDeviation="3" result="blur"/>
      <feFlood flood-color="#fff"/>
      <feComposite operator="in" in2="blur"/>
      <feComposite in="SourceGraphic"/>
    </filter>
  </defs>
  <g id="down-arrow" transform="translate(-145.369 -762.596)" clip-path="url(#clip-path)">
    <g transform="matrix(1, 0, 0, 1, 145.37, 762.6)" filter="url(#dot-right-arrow)">
      <path id="dot-right-arrow-2" data-name="dot-right-arrow" d="M0,37.507a1.967,1.967,0,1,1,1.967,1.967A1.967,1.967,0,0,1,0,37.507ZM5.842,31.42a1.967,1.967,0,1,1,1.966,1.966A1.967,1.967,0,0,1,5.842,31.42ZM0,31.42a1.967,1.967,0,1,1,1.967,1.966A1.967,1.967,0,0,1,0,31.42Zm11.929-5.849A1.967,1.967,0,1,1,13.9,27.538,1.967,1.967,0,0,1,11.929,25.571Zm-6.087,0a1.967,1.967,0,1,1,1.967,1.966A1.967,1.967,0,0,1,5.842,25.571ZM0,25.571a1.967,1.967,0,1,1,1.967,1.966A1.967,1.967,0,0,1,0,25.571Zm17.778-5.96a1.967,1.967,0,1,1,1.967,1.966A1.967,1.967,0,0,1,17.778,19.611Zm-5.849,0A1.967,1.967,0,1,1,13.9,21.577,1.967,1.967,0,0,1,11.929,19.611Zm-6.087,0a1.967,1.967,0,1,1,1.966,1.966A1.967,1.967,0,0,1,5.842,19.611ZM0,19.611a1.967,1.967,0,1,1,1.967,1.966A1.967,1.967,0,0,1,0,19.611Zm11.929-5.842A1.967,1.967,0,1,1,13.9,15.736,1.967,1.967,0,0,1,11.929,13.769Zm-6.087,0a1.967,1.967,0,1,1,1.966,1.966A1.967,1.967,0,0,1,5.842,13.769ZM0,13.769a1.967,1.967,0,1,1,1.967,1.966A1.967,1.967,0,0,1,0,13.769ZM5.842,7.928A1.967,1.967,0,1,1,7.808,9.894,1.967,1.967,0,0,1,5.842,7.928ZM0,7.928A1.967,1.967,0,1,1,1.967,9.894,1.967,1.967,0,0,1,0,7.928Zm0-5.96A1.967,1.967,0,1,1,1.967,3.934,1.967,1.967,0,0,1,0,1.967Z" transform="translate(53.1 5.85) rotate(90)" fill="#7d8ba4" stroke="#9fc3ff" stroke-width="0.5"/>
    </g>
  </g>
</svg>
