<?xml version="1.0" encoding="utf-8"?>
<!-- Generator: Adobe Illustrator 24.3.0, SVG Export Plug-In . SVG Version: 6.00 Build 0)  -->
<svg version="1.1" id="Layer_1" xmlns="http://www.w3.org/2000/svg" xmlns:xlink="http://www.w3.org/1999/xlink" x="0px" y="0px"
	 viewBox="0 0 96.4 52" style="enable-background:new 0 0 96.4 52;" xml:space="preserve">
<style type="text/css">
	.st0{fill-rule:evenodd;clip-rule:evenodd;fill:#FAEA65;}
	.st1{fill:url(#SVGID_1_);}
	.st2{fill:url(#SVGID_2_);}
	.st3{fill:url(#SVGID_3_);}
	.st4{fill:url(#SVGID_4_);}
	.st5{fill:url(#SVGID_5_);}
	.st6{fill:url(#SVGID_6_);}
	.st7{fill:url(#SVGID_7_);}
	.st8{fill:url(#SVGID_8_);}
	.st9{clip-path:url(#SVGID_10_);}
	.st10{fill:#FDEF69;}
	.st11{fill:url(#SVGID_11_);}
	.st12{fill:url(#SVGID_12_);}
	.st13{fill:url(#SVGID_13_);}
	.st14{fill:url(#SVGID_14_);}
	.st15{fill:url(#SVGID_15_);}
	.st16{fill-rule:evenodd;clip-rule:evenodd;fill:url(#SVGID_16_);}
	.st17{fill-rule:evenodd;clip-rule:evenodd;fill:url(#SVGID_17_);}
	.st18{fill-rule:evenodd;clip-rule:evenodd;fill:url(#SVGID_18_);}
	.st19{fill:url(#SVGID_19_);}
	.st20{fill-rule:evenodd;clip-rule:evenodd;fill:url(#SVGID_20_);}
	.st21{fill-rule:evenodd;clip-rule:evenodd;fill:url(#SVGID_21_);}
	.st22{fill:url(#SVGID_22_);}
	.st23{clip-path:url(#SVGID_24_);}
</style>
<g transform="translate(0 -0.4)">
	<path class="st0" d="M15.8,11.4v30l14.2-7.5v-15L15.8,11.4z M26.8,31.2l-6.3,3V18.6l6.3,3V31.2z M9.5,34.2l-1.6-0.8V14.7l-3.1,1.7
		v15.6l-1.6-0.8v-14L0,18.9v15l14.2,7.5v-30l-4.7,2.5L9.5,34.2z"/>
	
		<linearGradient id="SVGID_1_" gradientUnits="userSpaceOnUse" x1="-612.1159" y1="405.2935" x2="-612.5241" y2="405.6704" gradientTransform="matrix(28.2 0 0 -60 17287.4238 24353.2695)">
		<stop  offset="0" style="stop-color:#FFF36C"/>
		<stop  offset="0.5" style="stop-color:#D19D2F"/>
		<stop  offset="0.51" style="stop-color:#FFF36C"/>
		<stop  offset="1" style="stop-color:#BD7714"/>
	</linearGradient>
	<path class="st1" d="M16.1,12.1v28.5l13.4-7V19.1L16.1,12.1z M27.2,31.5L20,35V17.7l7.2,3.5V31.5z"/>
	
		<linearGradient id="SVGID_2_" gradientUnits="userSpaceOnUse" x1="-611.2759" y1="405.2272" x2="-611.6851" y2="405.6041" gradientTransform="matrix(28.17 0 0 -60 17235.293 24353.2695)">
		<stop  offset="0" style="stop-color:#FFF36C"/>
		<stop  offset="0.5" style="stop-color:#D19D2F"/>
		<stop  offset="0.51" style="stop-color:#FFF36C"/>
		<stop  offset="1" style="stop-color:#BD7714"/>
	</linearGradient>
	<path class="st2" d="M9.9,35l-2.5-1.5V15.6l-2.2,1.1v15.9l-2.5-1.1V17.9l-2.3,1.3v14.4l13.4,7V12.1l-3.9,2.1L9.9,35z"/>
	
		<linearGradient id="SVGID_3_" gradientUnits="userSpaceOnUse" x1="-613.9655" y1="398.7635" x2="-613.9655" y2="399.2382" gradientTransform="matrix(29.73 0 0 -28.82 18293.0039 11522.4756)">
		<stop  offset="0" style="stop-color:#FFF36C"/>
		<stop  offset="0.33" style="stop-color:#CE982B"/>
		<stop  offset="0.75" style="stop-color:#FFF36C"/>
		<stop  offset="1" style="stop-color:#ECC43A"/>
	</linearGradient>
	<path class="st3" d="M38.9,25.6h-6.2L34,24h4.9v-1.9h-5.6l1.3-1.6h4.3v-1.6h-6l1.3-1.6h4.7v-0.8h1.8v0.8h6.1v1.6h-6.1v1.7h5.7v1.6
		h-5.7V24h6.2v5.7H42l1-1.6h2.1v-2.5h-4.4v4.5h-1.8V25.6z"/>
	
		<linearGradient id="SVGID_4_" gradientUnits="userSpaceOnUse" x1="-615.5148" y1="398.9323" x2="-615.5148" y2="399.407" gradientTransform="matrix(31.27 0 0 -29.23 19303.0977 11690.9033)">
		<stop  offset="0" style="stop-color:#FFF36C"/>
		<stop  offset="0.33" style="stop-color:#CE982B"/>
		<stop  offset="0.75" style="stop-color:#FFF36C"/>
		<stop  offset="1" style="stop-color:#ECC43A"/>
	</linearGradient>
	<path class="st4" d="M49.6,25.4h-1.1l1.7-4.5H52l-1.4,3.7h0.7v5.6h-1.8L49.6,25.4z M50.2,16.4H52l-1.6,4h-1.7L50.2,16.4z M53.4,24
		h9.9v1.6H52.1L53.4,24z M52.8,19H57v-0.6h-4.6l1.3-1.6H57v-0.7h1.8v0.7h4.7v1.6h-4.7v0.6h4.2v3.1l-1.2,1.2h-8.9V19z M52.7,26.6h1.7
		v2.2l-1.7,1.3V26.6z M55.7,21.9v-1.4h-1.2v1.4H55.7z M55.3,26.3H57v2.3h3.6l-1.3,1.6h-4.1L55.3,26.3z M58.5,21.9v-1.4h-1.2v1.4
		H58.5z M58.3,26H60v1.2l-1.7,1.2V26z M61.2,21.9v-1.4H60v1.4H61.2z M61.3,26.6H63v2.2l-1.7,1.3V26.6z"/>
	
		<linearGradient id="SVGID_5_" gradientUnits="userSpaceOnUse" x1="-615.8021" y1="398.56" x2="-615.8021" y2="399.0347" gradientTransform="matrix(29.75 0 0 -28.34 18408.9395 11325.3125)">
		<stop  offset="0" style="stop-color:#FFF36C"/>
		<stop  offset="0.33" style="stop-color:#CE982B"/>
		<stop  offset="0.75" style="stop-color:#FFF36C"/>
		<stop  offset="1" style="stop-color:#ECC43A"/>
	</linearGradient>
	<path class="st5" d="M81.8,16.7h5.3L86,21.9h0.5v6.8h-2.7l1-1.6V23h-0.8l1-4.8h-1.5v11.9h-1.8L81.8,16.7z M89.9,28.5h0.8v-5.8h-3.5
		l1.2-1.6h7.6v1.6h-3.5v7.4h-3.5L89.9,28.5z M87.5,23.8h1.7V28l-1.7,1.5V23.8z M88.8,16.8h6.5v1.6h-7.6L88.8,16.8z M94,23.8h1.7v3
		L94,28.3V23.8z"/>
	
		<linearGradient id="SVGID_6_" gradientUnits="userSpaceOnUse" x1="-604.0291" y1="391.2509" x2="-604.0291" y2="391.7247" gradientTransform="matrix(18.6 0 0 -17.89 11307.4287 7026.9927)">
		<stop  offset="0" style="stop-color:#FFF36C"/>
		<stop  offset="0.33" style="stop-color:#CE982B"/>
		<stop  offset="0.75" style="stop-color:#FFF36C"/>
		<stop  offset="1" style="stop-color:#ECC43A"/>
	</linearGradient>
	<path class="st6" d="M68.9,25.9l-0.8,1.6h8.8v-1.6h-0.4l0.1,0.5l-0.9-0.5h-0.4l-0.9,0.5l0.1-0.5h-0.9v-2.3h1.7l0.3-0.6l0.3,0.6h0.8
		V22h-3.2v-1.4h3.5V19h-8l-0.8,1.6h3.5V22h-2.3l-0.8,1.6h3.2v2.3H68.9z"/>
	
		<linearGradient id="SVGID_7_" gradientUnits="userSpaceOnUse" x1="-535.7935" y1="342.0084" x2="-535.7935" y2="342.483" gradientTransform="matrix(5.62 0 0 -5.11 3086.5237 1773.5883)">
		<stop  offset="0" style="stop-color:#FFF36C"/>
		<stop  offset="0.33" style="stop-color:#CE982B"/>
		<stop  offset="0.75" style="stop-color:#FFF36C"/>
		<stop  offset="1" style="stop-color:#ECC43A"/>
	</linearGradient>
	<path class="st7" d="M75.8,24.3l-0.4-0.8L75,24.3L74,24.4l0.7,0.6l-0.2,0.9l0.8-0.4l0.8,0.4L76,25l0.7-0.6L75.8,24.3z"/>
	
		<linearGradient id="SVGID_8_" gradientUnits="userSpaceOnUse" x1="-614.7202" y1="398.5632" x2="-614.7202" y2="399.0379" gradientTransform="matrix(29.01 0 0 -28.35 17905.5488 11329.3594)">
		<stop  offset="0" style="stop-color:#FFF36C"/>
		<stop  offset="0.33" style="stop-color:#CE982B"/>
		<stop  offset="0.75" style="stop-color:#FFF36C"/>
		<stop  offset="1" style="stop-color:#ECC43A"/>
	</linearGradient>
	<path class="st8" d="M65.6,16.6v13.5h12.3l1.5-1.4v-12H65.6z M77.6,28.5H67.4V18.2h10.3L77.6,28.5z"/>
	<g>
		<defs>
			<path id="SVGID_9_" d="M38.9,25.6h-6.2L34,24h4.9v-1.9h-5.6l1.3-1.6h4.3v-1.6h-6l1.3-1.6h4.7v-0.8h1.8v0.8h6.1v1.6h-6.1v1.7h5.7
				v1.6h-5.7V24h6.2v5.7H42l1-1.6h2.1v-2.5h-4.4v4.5h-1.8V25.6z M49.6,25.4h-1.1l1.7-4.5h1.8l-1.4,3.7h0.7v5.6h-1.8L49.6,25.4z
				 M50.2,16.4H52l-1.6,4h-1.7L50.2,16.4z M53.4,24h9.9v1.6H52.1L53.4,24z M52.8,19H57v-0.6h-4.6l1.3-1.6H57v-0.7h1.8v0.7h4.7v1.6
				h-4.7v0.6h4.2v3.1l-1.2,1.2h-8.9V19z M52.7,26.6h1.7v2.2l-1.7,1.3V26.6z M55.7,21.9v-1.4h-1.2v1.4H55.7z M55.3,26.3H57v2.3h3.6
				l-1.3,1.6h-4.1L55.3,26.3z M58.5,21.9v-1.4h-1.2v1.4H58.5z M58.3,26H60v1.2l-1.7,1.2V26z M61.2,21.9v-1.4H60v1.4H61.2z
				 M61.3,26.6H63v2.2l-1.7,1.3V26.6z M81.8,16.6h5.3L86,21.9h0.5v6.8h-2.7l1-1.6V23h-0.8l1-4.8h-1.5v11.9h-1.8L81.8,16.6z
				 M89.9,28.5h0.8v-5.8h-3.5l1.1-1.6h7.6v1.6h-3.5v7.4h-3.5L89.9,28.5z M87.5,23.8h1.7V28l-1.7,1.5V23.8z M88.8,16.8h6.5v1.6h-7.6
				L88.8,16.8z M94,23.8h1.7v3L94,28.2V23.8z M68.9,25.9l-0.8,1.6h8.8v-1.6h-0.4l0.1,0.5l-0.9-0.5h-0.4l-0.9,0.5l0.1-0.5h-0.9v-2.3
				h1.7l0.3-0.6l0.3,0.6h0.8V22h-3.2v-1.4h3.5V19h-8l-0.8,1.6h3.5V22h-2.3l-0.8,1.6h3.2v2.3H68.9z M75.8,24.3l-0.4-0.8L75,24.3
				L74,24.4l0.7,0.6l-0.2,0.9l0.8-0.4l0.8,0.4L76,25l0.7-0.6L75.8,24.3z M65.6,16.6v13.5h12.3l1.5-1.4v-12H65.6z M77.6,28.5H67.4
				V18.2h10.3L77.6,28.5z"/>
		</defs>
		<clipPath id="SVGID_10_">
			<use xlink:href="#SVGID_9_"  style="overflow:visible;"/>
		</clipPath>
		<g class="st9">
			<path class="st10" d="M60,20.2h1.2v1.4H60V20.2z M57.3,20.2h1.2v1.4h-1.2V20.2z M77.6,17.9H67.4v10.3h10.3L77.6,17.9z M76.9,20.3
				h-3.5v1.4h3.2v1.6h-0.8l-0.3-0.6l-0.3,0.6h-1.7v2.3h0.9l-0.1,0.5l0.9-0.5h0.4l0.9,0.5l-0.1-0.5h0.4v1.6h-8.8l0.8-1.6h2.7v-2.3
				h-3.2l0.8-1.6h2.3v-1.4h-3.5l0.8-1.6h8V20.3z M76.2,25.6l-0.8-0.4l-0.8,0.4l0.2-0.9l-0.7-0.6L75,24l0.4-0.8l0.4,0.8l0.9,0.1
				l-0.7,0.6L76.2,25.6z M54.5,20.2h1.2v1.4h-1.2V20.2z"/>
			<path class="st10" d="M31.7,15v15.9h66.2V15H31.7z M88.8,16.5h6.5v1.6h-7.6L88.8,16.5z M50.2,16.1H52l-1.6,4h-1.7L50.2,16.1z
				 M46.9,29.4H42l1-1.6h2.1v-2.5h-4.4v4.5h-1.8v-4.5h-6.2l1.3-1.6h4.9v-1.9h-5.6l1.3-1.6h4.3v-1.7h-6l1.3-1.6h4.7v-0.8h1.8v0.8h6.1
				v1.6h-6.1v1.7h5.7v1.6h-5.7v1.9h6.2L46.9,29.4z M51.4,24.2v5.6h-1.8V25h-1.1l1.7-4.5h1.8l-1.4,3.7H51.4z M54.5,28.5l-1.7,1.2
				v-3.5h1.7V28.5z M59.3,29.8h-4.1V26H57v2.3h3.6L59.3,29.8z M58.3,28.1v-2.4H60v1.2L58.3,28.1z M63,28.5l-1.7,1.2v-3.5H63V28.5z
				 M63.4,25.3H52.1l1.3-1.6h9.9L63.4,25.3z M63.4,18.2h-4.7v0.6h4.2v3.1l-1.2,1.2h-8.9v-4.3H57v-0.6h-4.6l1.3-1.6H57v-0.7h1.8v0.7
				h4.7V18.2z M79.4,28.3l-1.5,1.4H65.6V16.3h13.8L79.4,28.3z M86.6,21.6v6.8h-2.7l1-1.6v-4h-0.8l1-4.8h-1.5v11.9h-1.8V16.3h5.3
				L86,21.6L86.6,21.6z M95.6,26.4l-1.7,1.5v-4.5h1.7V26.4z M95.9,22.4h-3.5v7.4h-3.5l1-1.6h0.8v-5.8h-3.5l1.2-1.6h7.6V22.4z
				 M87.5,29.1v-5.7h1.7v4.2L87.5,29.1z"/>
			
				<linearGradient id="SVGID_11_" gradientUnits="userSpaceOnUse" x1="-410.4981" y1="290.9502" x2="-410.4981" y2="291.4249" gradientTransform="matrix(2.54 0 0 -2.97 1103.2827 886.0457)">
				<stop  offset="0" style="stop-color:#FFF36C"/>
				<stop  offset="0.33" style="stop-color:#CE982B"/>
				<stop  offset="0.75" style="stop-color:#FFF36C"/>
				<stop  offset="1" style="stop-color:#ECC43A"/>
			</linearGradient>
			<path class="st11" d="M60,20.5h1.2v1.4H60V20.5z"/>
			
				<linearGradient id="SVGID_12_" gradientUnits="userSpaceOnUse" x1="-402.941" y1="290.9502" x2="-402.941" y2="291.4249" gradientTransform="matrix(2.47 0 0 -2.97 1053.1406 886.0457)">
				<stop  offset="0" style="stop-color:#FFF36C"/>
				<stop  offset="0.33" style="stop-color:#CE982B"/>
				<stop  offset="0.75" style="stop-color:#FFF36C"/>
				<stop  offset="1" style="stop-color:#ECC43A"/>
			</linearGradient>
			<path class="st12" d="M57.3,20.5h1.2v1.4h-1.2V20.5z"/>
			
				<linearGradient id="SVGID_13_" gradientUnits="userSpaceOnUse" x1="-608.1811" y1="394.7857" x2="-608.1811" y2="395.2604" gradientTransform="matrix(21.61 0 0 -21.77 13215.3271 8623.0254)">
				<stop  offset="0" style="stop-color:#FFF36C"/>
				<stop  offset="0.33" style="stop-color:#CE982B"/>
				<stop  offset="0.75" style="stop-color:#FFF36C"/>
				<stop  offset="1" style="stop-color:#ECC43A"/>
			</linearGradient>
			<path class="st13" d="M77.6,18.2H67.4v10.3h10.3L77.6,18.2z M76.9,20.6h-3.5V22h3.2v1.6h-0.8L75.4,23l-0.3,0.6h-1.7v2.3h0.9
				l-0.1,0.5l0.9-0.5h0.4l0.9,0.5l-0.1-0.5h0.4v1.6h-8.8l0.8-1.6h2.7v-2.3h-3.2l0.8-1.6h2.3v-1.4h-3.5l0.8-1.6h8V20.6z M76.2,25.9
				l-0.8-0.4l-0.8,0.4l0.2-0.9l-0.7-0.6l0.9-0.1l0.4-0.8l0.4,0.8l0.9,0.1L76.1,25L76.2,25.9z"/>
			
				<linearGradient id="SVGID_14_" gradientUnits="userSpaceOnUse" x1="-408.1156" y1="290.9502" x2="-408.1156" y2="291.4249" gradientTransform="matrix(2.54 0 0 -2.97 1091.7628 886.0457)">
				<stop  offset="0" style="stop-color:#FFF36C"/>
				<stop  offset="0.33" style="stop-color:#CE982B"/>
				<stop  offset="0.75" style="stop-color:#FFF36C"/>
				<stop  offset="1" style="stop-color:#ECC43A"/>
			</linearGradient>
			<path class="st14" d="M54.5,20.5h1.2v1.4h-1.2V20.5z"/>
			
				<linearGradient id="SVGID_15_" gradientUnits="userSpaceOnUse" x1="-629.783" y1="400.4689" x2="-629.783" y2="400.9436" gradientTransform="matrix(139.39 0 0 -33.46 87850.2109 13430.8975)">
				<stop  offset="0" style="stop-color:#FFF36C"/>
				<stop  offset="0.33" style="stop-color:#CE982B"/>
				<stop  offset="0.75" style="stop-color:#FFF36C"/>
				<stop  offset="1" style="stop-color:#ECC43A"/>
			</linearGradient>
			<path class="st15" d="M31.7,15.3v15.9h66.2V15.3H31.7z M88.8,16.8h6.5v1.6h-7.6L88.8,16.8z M50.2,16.4H52l-1.6,4h-1.7L50.2,16.4z
				 M46.9,29.7H42l1-1.6h2.1v-2.5h-4.4v4.5h-1.8v-4.5h-6.2L34,24h4.9v-1.9h-5.6l1.3-1.6h4.3v-1.6h-6l1.3-1.6h4.7v-0.8h1.8v0.8h6.1
				v1.6h-6.1v1.7h5.7v1.6h-5.7V24h6.2L46.9,29.7z M51.4,24.5v5.6h-1.8v-4.7h-1.1l1.7-4.5h1.8l-1.4,3.7L51.4,24.5z M54.5,28.9
				l-1.7,1.3v-3.5h1.7V28.9z M59.3,30.1h-4.1v-3.8H57v2.3h3.6L59.3,30.1z M58.3,28.4V26H60v1.2L58.3,28.4z M63,28.9l-1.7,1.3v-3.5
				H63V28.9z M63.4,25.6H52.1l1.3-1.6h9.9L63.4,25.6z M63.4,18.5h-4.7V19h4.2v3.1l-1.2,1.2h-8.9v-4.3H57v-0.6h-4.6l1.3-1.6H57v-0.7
				h1.8v0.7h4.7V18.5z M79.4,28.6l-1.5,1.4H65.6V16.6h13.8L79.4,28.6z M86.6,21.9v6.8h-2.7l1-1.6V23h-0.8l1-4.8h-1.5v11.9h-1.8V16.7
				h5.3L86,21.9L86.6,21.9z M95.6,26.7l-1.7,1.5v-4.4h1.7V26.7z M95.9,22.7h-3.5v7.4h-3.5l1-1.6h0.8v-5.8h-3.5l1.2-1.6h7.6
				L95.9,22.7z M87.5,29.4v-5.7h1.7V28L87.5,29.4z"/>
		</g>
	</g>
	
		<linearGradient id="SVGID_16_" gradientUnits="userSpaceOnUse" x1="-605.1768" y1="382.2419" x2="-605.1768" y2="382.7166" gradientTransform="matrix(20.0182 0 0 -11.85 12169.624 4567.3394)">
		<stop  offset="0" style="stop-color:#FFF36C"/>
		<stop  offset="1" style="stop-color:#EBB138"/>
	</linearGradient>
	<path class="st16" d="M59.5,37.6c-0.1,0.1-0.3,0.2-0.5,0.2h-8.7v-5.6h1.8v0H59c0.2,0,0.5,0.1,0.6,0.3c0.1,0.2,0.2,0.4,0.2,0.6v3.8
		C59.9,37.2,59.7,37.4,59.5,37.6z M58,33.4h-6v3.3h6V33.4z"/>
	
		<linearGradient id="SVGID_17_" gradientUnits="userSpaceOnUse" x1="-604.7538" y1="382.3295" x2="-604.7538" y2="382.8022" gradientTransform="matrix(19.0131 0 0 -11.8861 11572.0479 4582.189)">
		<stop  offset="0" style="stop-color:#FFF36C"/>
		<stop  offset="1" style="stop-color:#EBB138"/>
	</linearGradient>
	<path class="st17" d="M78.2,35.3c0.1,0.1,0.2,0.3,0.2,0.5v1.2c0,0.2-0.1,0.5-0.2,0.7c-0.2,0.2-0.4,0.2-0.7,0.2h-8.1v-5.6H71v0h6.4
		c0.3,0,0.5,0.1,0.7,0.3c0.1,0.2,0.2,0.4,0.2,0.6v1.1c0,0.2,0,0.4-0.2,0.5c-0.1,0.1-0.2,0.2-0.3,0.3l0.2,0.2L78.2,35.3z M76.6,33.4
		H71v1h5.5L76.6,33.4z M76.6,35.6h-5.5v1.1h5.5L76.6,35.6z"/>
	
		<linearGradient id="SVGID_18_" gradientUnits="userSpaceOnUse" x1="-603.6869" y1="382.3172" x2="-603.6869" y2="382.7905" gradientTransform="matrix(18 0 0 -11.88 10949.4336 4579.7046)">
		<stop  offset="0" style="stop-color:#FFF36C"/>
		<stop  offset="1" style="stop-color:#EBB138"/>
	</linearGradient>
	<path class="st18" d="M80.6,33.3v1h5.1v1.2h-5.1v1h6.8v1.3h-8.5v-5.6h8.5v1.2H80.6z"/>
	
		<linearGradient id="SVGID_19_" gradientUnits="userSpaceOnUse" x1="-604.2414" y1="382.3172" x2="-604.2414" y2="382.7905" gradientTransform="matrix(18 0 0 -11.88 10968.4336 4579.7046)">
		<stop  offset="0" style="stop-color:#FFF36C"/>
		<stop  offset="1" style="stop-color:#EBB138"/>
	</linearGradient>
	<path class="st19" d="M96.4,33.3h-3.5v4.5H91v-4.5h-3.2v-1.2h8.5V33.3z"/>
	
		<linearGradient id="SVGID_20_" gradientUnits="userSpaceOnUse" x1="-602.5487" y1="382.3172" x2="-602.5487" y2="382.7905" gradientTransform="matrix(18 0 0 -11.88 10910.4336 4579.7046)">
		<stop  offset="0" style="stop-color:#FFF36C"/>
		<stop  offset="1" style="stop-color:#EBB138"/>
	</linearGradient>
	<path class="st20" d="M62.1,33.3v1h5.1v1.2h-5.1v1h6.6v1.3h-8.4v-5.6h8.5v1.2H62.1z"/>
	
		<linearGradient id="SVGID_21_" gradientUnits="userSpaceOnUse" x1="-599.4905" y1="382.221" x2="-599.4905" y2="382.6957" gradientTransform="matrix(17.001 0 0 -11.84 10237.7227 4563.272)">
		<stop  offset="0" style="stop-color:#FFF36C"/>
		<stop  offset="1" style="stop-color:#EBB138"/>
	</linearGradient>
	<path class="st21" d="M48.1,37.8v-2.3h-4.6v2.3h-1.8V33c0-0.3,0.1-0.5,0.4-0.7c0.2-0.1,0.5-0.2,0.8-0.2l0,0.1v-0.1h5.7
		c0.3,0,0.5,0.1,0.8,0.2c0.2,0.1,0.4,0.4,0.4,0.7v4.7H48.1z M48.1,33.5c0,0,0-0.1-0.1-0.1l-0.1,0h-4.1l-0.1,0
		c-0.1,0-0.1,0.1-0.1,0.1v0.9h4.6V33.5z"/>
	
		<linearGradient id="SVGID_22_" gradientUnits="userSpaceOnUse" x1="-600.856" y1="382.2415" x2="-600.856" y2="382.7162" gradientTransform="matrix(18 0 0 -11.85 10852.4336 4567.3311)">
		<stop  offset="0" style="stop-color:#FFF36C"/>
		<stop  offset="1" style="stop-color:#EBB138"/>
	</linearGradient>
	<path class="st22" d="M37.9,32.1h-1.7v4.4h-1.5c-0.1,0-0.2-0.1-0.2-0.2v-4.2h-1.7v4.4c0,0.8,0.5,1.2,1.5,1.2h7v-5.6h-1.7v4.4h-1.7
		L37.9,32.1z"/>
	<g>
		<defs>
			<path id="SVGID_23_" d="M59.5,37.6c-0.1,0.1-0.3,0.2-0.5,0.2h-8.7v-5.6h1.8v0H59c0.2,0,0.5,0.1,0.6,0.3c0.1,0.2,0.2,0.4,0.2,0.6
				v3.8C59.9,37.2,59.7,37.4,59.5,37.6z M58,33.4h-6v3.3h6V33.4z M78.2,35.3c0.1,0.1,0.2,0.3,0.2,0.5v1.2c0,0.2-0.1,0.5-0.2,0.7
				c-0.2,0.2-0.4,0.2-0.7,0.2h-8.1v-5.6H71v0h6.4c0.3,0,0.5,0.1,0.7,0.3c0.1,0.2,0.2,0.4,0.2,0.6v1.1c0,0.2,0,0.4-0.2,0.5
				c-0.1,0.1-0.2,0.2-0.3,0.3l0.2,0.2L78.2,35.3z M76.6,33.4H71v1h5.5L76.6,33.4z M76.6,35.5h-5.5v1.1h5.5L76.6,35.5z M80.6,33.3v1
				h5.1v1.2h-5.1v1h6.8v1.3h-8.5v-5.6h8.5v1.2L80.6,33.3z M96.4,33.3h-3.5v4.5H91v-4.5h-3.2v-1.2h8.5L96.4,33.3z M62.1,33.3v1h5.1
				v1.2h-5.1v1h6.6v1.3h-8.4v-5.6h8.5v1.2L62.1,33.3z M48.1,37.8v-2.3h-4.6v2.3h-1.8V33c0-0.3,0.1-0.5,0.4-0.7
				c0.2-0.1,0.5-0.2,0.8-0.2l0,0.1v-0.1h5.7c0.3,0,0.5,0.1,0.8,0.2c0.2,0.1,0.4,0.4,0.4,0.7v4.7H48.1z M48.1,33.5c0,0,0-0.1-0.1-0.1
				l-0.1,0h-4.1l-0.1,0c-0.1,0-0.1,0.1-0.1,0.1v0.9h4.6V33.5z M37.9,36.6h1.7v-4.4h1.7v5.6h-7c-1,0-1.5-0.4-1.5-1.2v-4.4h1.7v4.2
				c0,0.1,0.1,0.2,0.2,0.2h1.5v-4.4h1.7L37.9,36.6z"/>
		</defs>
		<clipPath id="SVGID_24_">
			<use xlink:href="#SVGID_23_"  style="overflow:visible;"/>
		</clipPath>
		<g class="st23">
			<path class="st10" d="M71.1,35.2h5.5v1.1h-5.5V35.2z M52.1,33h6v3.3h-6V33z M48,33l-0.1,0h-4.1l-0.1,0c-0.1,0-0.1,0-0.1,0.1V34
				h4.6v-0.9C48.1,33,48.1,33,48,33z M71,33h5.5v1H71V33z"/>
			<path class="st10" d="M32.2,30.3v8.9h65v-8.9H32.2z M41.3,37.4h-7c-1,0-1.5-0.4-1.5-1.2v-4.4h1.7V36c0,0.1,0.1,0.2,0.2,0.2h1.5
				v-4.4h1.7v4.4h1.7v-4.4h1.7V37.4z M49.8,37.4h-1.7v-2.3h-4.6v2.3h-1.8v-4.7c0-0.3,0.1-0.5,0.4-0.7c0.2-0.1,0.5-0.2,0.8-0.2l0,0.1
				v-0.1h5.7c0.3,0,0.5,0.1,0.8,0.2c0.2,0.1,0.4,0.4,0.4,0.7L49.8,37.4z M59.8,36.5c0,0.3-0.1,0.5-0.3,0.7c-0.1,0.1-0.3,0.2-0.5,0.2
				h-8.7v-5.6h1.8v0H59c0.2,0,0.5,0.1,0.6,0.3c0.1,0.2,0.2,0.4,0.2,0.6L59.8,36.5z M68.8,32.9h-6.8v1h5.1v1.2h-5.1v1h6.6v1.2h-8.4
				v-5.6h8.5V32.9z M78.3,33.8c0,0.2,0,0.4-0.2,0.5c-0.1,0.1-0.2,0.2-0.3,0.3l0.2,0.2l0.1,0.2c0.1,0.1,0.2,0.3,0.2,0.5v1.2
				c0,0.2-0.1,0.5-0.2,0.7c-0.2,0.2-0.4,0.2-0.7,0.2h-8.1v-5.6H71v0h6.4c0.3,0,0.5,0.1,0.7,0.3c0.2,0.2,0.2,0.4,0.2,0.6L78.3,33.8z
				 M87.3,32.9h-6.8v1h5.1v1.2h-5.1v1h6.8v1.2h-8.5v-5.6h8.5V32.9z M96.4,32.9h-3.5v4.4H91v-4.4h-3.2v-1.2h8.5V32.9z"/>
			<path class="st10" d="M71.1,35.5h5.5v1.1h-5.5V35.5z M52.1,33.4h6v3.3h-6V33.4z M48,33.4l-0.1,0h-4.1l-0.1,0
				c-0.1,0-0.1,0.1-0.1,0.1v0.9h4.6v-0.9C48.1,33.4,48.1,33.4,48,33.4z M71,33.3h5.5v1H71V33.3z"/>
			<path class="st10" d="M32.2,30.7v8.9h65v-8.9H32.2z M41.3,37.8h-7c-1,0-1.5-0.4-1.5-1.2v-4.4h1.7v4.2c0,0.1,0.1,0.2,0.2,0.2h1.5
				v-4.4h1.7v4.4h1.7v-4.4h1.7V37.8z M49.8,37.8h-1.7v-2.3h-4.6v2.3h-1.8V33c0-0.3,0.1-0.5,0.4-0.7c0.2-0.1,0.5-0.2,0.8-0.2l0,0.1
				v-0.1h5.7c0.3,0,0.5,0.1,0.8,0.2c0.2,0.1,0.4,0.4,0.4,0.7V37.8z M59.8,36.9c0,0.3-0.1,0.5-0.3,0.7c-0.1,0.1-0.3,0.2-0.5,0.2h-8.7
				v-5.6h1.8v0H59c0.2,0,0.5,0.1,0.6,0.3c0.1,0.2,0.2,0.4,0.2,0.6V36.9z M68.8,33.3h-6.8v1h5.1v1.2h-5.1v1h6.6v1.3h-8.4v-5.6h8.5
				V33.3z M78.3,34.2c0,0.2,0,0.4-0.2,0.5c-0.1,0.1-0.2,0.2-0.3,0.3l0.2,0.2l0.1,0.2c0.1,0.1,0.2,0.3,0.2,0.5v1.2
				c0,0.2-0.1,0.5-0.2,0.7c-0.2,0.2-0.4,0.2-0.7,0.2h-8.1v-5.7H71v0h6.4c0.3,0,0.5,0.1,0.7,0.3c0.1,0.2,0.2,0.4,0.2,0.6V34.2z
				 M87.3,33.3h-6.8v1h5.1v1.2h-5.1v1h6.8v1.3h-8.5v-5.6h8.5V33.3z M96.4,33.3h-3.5v4.5H91v-4.5h-3.2v-1.2h8.5V33.3z"/>
		</g>
	</g>
</g>
</svg>
