<svg xmlns="http://www.w3.org/2000/svg" xmlns:xlink="http://www.w3.org/1999/xlink" width="131.109" height="94.077" viewBox="0 0 131.109 94.077"><defs><clipPath id="a"><rect width="131.109" height="94.077" transform="translate(0 0)" fill="none"/></clipPath></defs><g transform="translate(0 0.001)"><g transform="translate(0 -0.001)" clip-path="url(#a)"><path d="M2852.62,1339.354a3.315,3.315,0,0,1-3.315,3.315H2842.7a3.316,3.316,0,0,1-3.316-3.315v-1.99a3.316,3.316,0,0,1,3.316-3.316h6.609a3.315,3.315,0,0,1,3.315,3.316Z" transform="translate(-2745.832 -1290.097)" fill="#fff"/><path d="M2810.571,1305.235h-6.609a4.641,4.641,0,0,1-4.635-4.636v-1.99a4.641,4.641,0,0,1,4.635-4.636h6.609a4.641,4.641,0,0,1,4.635,4.636v1.99a4.641,4.641,0,0,1-4.635,4.636m-6.609-8.621a2,2,0,0,0-2,2v1.99a2,2,0,0,0,2,2h6.609a2,2,0,0,0,2-2v-1.99a2,2,0,0,0-2-2Z" transform="translate(-2707.099 -1251.342)" fill="#ebebff"/><path d="M3034.559,868.662a2.321,2.321,0,0,1-4.642,0V853.771a2.321,2.321,0,0,1,4.642,0Z" transform="translate(-2930.092 -823.398)" fill="#fff"/><path d="M2999.949,844.613a3.425,3.425,0,0,1-3.421-3.421V826.3a3.421,3.421,0,1,1,6.842,0v14.891a3.425,3.425,0,0,1-3.421,3.421m0-19.534a1.222,1.222,0,0,0-1.221,1.221v14.891a1.221,1.221,0,1,0,2.442,0V826.3a1.223,1.223,0,0,0-1.221-1.221" transform="translate(-2897.803 -795.769)" fill="#d6d7f4"/><path d="M2984.181,657.142a3.958,3.958,0,1,1-3.958,3.958,3.958,3.958,0,0,1,3.958-3.958" transform="translate(-2882.035 -635.491)" fill="#ebebff"/><path d="M2951.9,633.868a5.058,5.058,0,1,1,5.057-5.058,5.064,5.064,0,0,1-5.057,5.058m0-7.916a2.858,2.858,0,1,0,2.857,2.858,2.861,2.861,0,0,0-2.857-2.858" transform="translate(-2849.754 -603.201)" fill="#5571e9"/><path d="M773.914,139.023a6.572,6.572,0,0,1-6.571,6.571H709.284a6.572,6.572,0,0,1-6.571-6.571V69.372a6.571,6.571,0,0,1,6.571-6.571h58.059a6.571,6.571,0,0,1,6.571,6.571v69.651Z" transform="translate(-679.561 -60.732)" fill="#fff"/><path d="M997.747,66.77a10.452,10.452,0,0,0-4.913,8.181V144.9l57.408-.88-2.266-77.255Z" transform="translate(-960.123 -64.57)" fill="none"/><path d="M2468.206,64.463s4.972,3.121,5.015,8.621V142.6h7.579V71.034s1.925-7.493-12.594-6.571" transform="translate(-2386.887 -62.263)" fill="#fff"/><path d="M1499.071,2081.961a1,1,0,0,1-.995,1h-19.069a.994.994,0,0,1-.994-1V2069.8a.994.994,0,0,1,.994-.995h19.069a1,1,0,0,1,.995.995Z" transform="translate(-1429.318 -2000.649)" fill="#fff"/><path d="M1463.866,2054.749H1444.8a2.318,2.318,0,0,1-2.314-2.315v-12.157a2.317,2.317,0,0,1,2.314-2.315h19.068a2.317,2.317,0,0,1,2.315,2.315v12.157a2.317,2.317,0,0,1-2.315,2.315m-18.743-2.64h18.418V2040.6h-18.418Z" transform="translate(-1394.958 -1970.818)" fill="#5571e9"/><path d="M702.774,87.19H644.715a8.781,8.781,0,0,1-8.771-8.771V8.769A8.781,8.781,0,0,1,644.715,0h58.059a8.781,8.781,0,0,1,8.771,8.771v69.65a8.781,8.781,0,0,1-8.771,8.771M644.715,4.4a4.376,4.376,0,0,0-4.372,4.371v69.65a4.376,4.376,0,0,0,4.372,4.371h58.059a4.376,4.376,0,0,0,4.372-4.371V8.769A4.377,4.377,0,0,0,702.774,4.4Z" transform="translate(-614.992 0.002)" fill="#ebebff"/><path d="M580.8,2346.253a3.135,3.135,0,0,1-3.316,2.915H498.669a3.135,3.135,0,0,1-3.316-2.915v-6.413a3.135,3.135,0,0,1,3.316-2.916h78.812a3.135,3.135,0,0,1,3.316,2.916Z" transform="translate(-479.033 -2259.93)" fill="#fff"/><path d="M519.145,2299.275H439.268a4.932,4.932,0,0,1-5.144-4.675v-6.413a4.932,4.932,0,0,1,5.144-4.675h79.877a4.932,4.932,0,0,1,5.144,4.675v6.413a4.932,4.932,0,0,1-5.144,4.675m-79.877-12.244c-.855,0-1.577.529-1.577,1.155v6.413c0,.626.722,1.155,1.577,1.155h79.877c.855,0,1.577-.529,1.577-1.155v-6.413c0-.626-.722-1.155-1.577-1.155Z" transform="translate(-419.821 -2208.278)" fill="#ebebff"/><path d="M919.316,573.354a1.755,1.755,0,0,1-1.756,1.755h-12.41a1.755,1.755,0,0,1-1.755-1.755V556.323a1.756,1.756,0,0,1,1.755-1.756h12.41a1.756,1.756,0,0,1,1.756,1.756Z" transform="translate(-873.63 -536.296)" fill="#f8f8f8"/><path d="M2185.377,573.354a1.755,1.755,0,0,1-1.755,1.755h-12.411a1.755,1.755,0,0,1-1.756-1.755V556.323a1.756,1.756,0,0,1,1.756-1.756h12.411a1.756,1.756,0,0,1,1.755,1.756Z" transform="translate(-2097.979 -536.296)" fill="#f8f8f8"/><path d="M872.356,531.456h-12.41a3.3,3.3,0,0,1-3.3-3.3V511.13a3.3,3.3,0,0,1,3.3-3.3h12.41a3.3,3.3,0,0,1,3.3,3.3v17.031a3.3,3.3,0,0,1-3.3,3.3m-12.411-20.543a.216.216,0,0,0-.216.216v17.031a.216.216,0,0,0,.216.216h12.41a.216.216,0,0,0,.216-.216V511.13a.216.216,0,0,0-.216-.216Z" transform="translate(-828.426 -491.103)" fill="#d6d7f4"/><path d="M1556.285,573.354a1.755,1.755,0,0,1-1.756,1.755h-12.411a1.755,1.755,0,0,1-1.755-1.755V556.323a1.756,1.756,0,0,1,1.755-1.756h12.411a1.756,1.756,0,0,1,1.756,1.756Z" transform="translate(-1489.614 -536.296)" fill="#f8f8f8"/><path d="M2138.406,531.456H2126a3.3,3.3,0,0,1-3.3-3.3V511.13a3.3,3.3,0,0,1,3.3-3.3h12.411a3.3,3.3,0,0,1,3.3,3.3v17.031a3.3,3.3,0,0,1-3.3,3.3M2126,510.914a.216.216,0,0,0-.216.216v17.031a.216.216,0,0,0,.216.216h12.411a.216.216,0,0,0,.216-.216V511.13a.216.216,0,0,0-.216-.216Z" transform="translate(-2052.764 -491.103)" fill="#d6d7f4"/><path d="M1508.633,531.456h-12.41a3.3,3.3,0,0,1-3.3-3.3V511.13a3.3,3.3,0,0,1,3.3-3.3h12.41a3.3,3.3,0,0,1,3.3,3.3v17.031a3.3,3.3,0,0,1-3.3,3.3m-12.41-20.543a.216.216,0,0,0-.216.216v17.031a.216.216,0,0,0,.216.216h12.41a.216.216,0,0,0,.216-.216V511.13a.216.216,0,0,0-.216-.216Z" transform="translate(-1443.74 -491.103)" fill="#d6d7f4"/><path d="M2279.656,1333.722a4.134,4.134,0,1,1-4.135,4.134,4.134,4.134,0,0,1,4.135-4.134" transform="translate(-2200.55 -1289.781)" fill="#fff"/><path d="M1640.524,1333.731a4.134,4.134,0,1,1-4.134,4.134,4.134,4.134,0,0,1,4.134-4.134" transform="translate(-1582.477 -1289.789)" fill="#fff"/><path d="M1023.67,1339.416a4.134,4.134,0,1,1-4.134,4.134,4.134,4.134,0,0,1,4.134-4.134" transform="translate(-985.946 -1295.287)" fill="#fff"/><path d="M2250.994,1310.239a5.454,5.454,0,1,1,5.454-5.454,5.46,5.46,0,0,1-5.454,5.454m0-8.268a2.814,2.814,0,1,0,2.814,2.815,2.818,2.818,0,0,0-2.814-2.815" transform="translate(-2171.557 -1256.522)" fill="#d6d7f4"/><path d="M1601.776,1310.239a5.454,5.454,0,1,1,5.454-5.454,5.46,5.46,0,0,1-5.454,5.454m0-8.268a2.814,2.814,0,1,0,2.814,2.815,2.818,2.818,0,0,0-2.814-2.815" transform="translate(-1542.729 -1256.522)" fill="#d6d7f4"/><path d="M984.925,1310.239a5.454,5.454,0,1,1,5.454-5.454,5.46,5.46,0,0,1-5.454,5.454m0-8.268a2.814,2.814,0,1,0,2.814,2.815,2.818,2.818,0,0,0-2.814-2.815" transform="translate(-947.201 -1256.522)" fill="#d6d7f4"/><path d="M1005.768,1750.542a1.684,1.684,0,0,1-1.709,1.658H952.011a1.684,1.684,0,0,1-1.709-1.658v-2.984a1.684,1.684,0,0,1,1.709-1.658h52.047a1.684,1.684,0,0,1,1.709,1.658Z" transform="translate(-918.993 -1688.379)" fill="#fff"/><path d="M954.04,1724.851H901.993a3.007,3.007,0,0,1-3.029-2.978v-2.984a3.007,3.007,0,0,1,3.029-2.978H954.04a3.007,3.007,0,0,1,3.029,2.978v2.984a3.007,3.007,0,0,1-3.029,2.978m-52.047-6.3a.367.367,0,0,0-.389.338v2.984a.367.367,0,0,0,.389.338H954.04a.367.367,0,0,0,.389-.338v-2.984a.366.366,0,0,0-.389-.338Z" transform="translate(-869.346 -1659.378)" fill="#d6d7f4"/><path d="M2265.618,730.455l1.14,3.509h3.689l-2.984,2.168,1.14,3.508-2.984-2.168-2.984,2.168,1.14-3.508-2.985-2.168h3.689Z" transform="translate(-2186.304 -706.389)" fill="#fff"/><path d="M2256.17,733.669a.552.552,0,0,1-.324-.1l-2.661-1.934-2.662,1.934a.55.55,0,0,1-.846-.615l1.017-3.128-2.661-1.933a.55.55,0,0,1,.323-.995h3.29l1.017-3.129a.55.55,0,0,1,1.046,0l1.016,3.129h3.29a.55.55,0,0,1,.323.995l-2.661,1.933,1.016,3.128a.549.549,0,0,1-.523.72m-2.984-3.268a.549.549,0,0,1,.324.105l1.615,1.173-.617-1.9a.551.551,0,0,1,.2-.615l1.615-1.173h-2a.55.55,0,0,1-.523-.38l-.617-1.9-.617,1.9a.549.549,0,0,1-.523.38h-2l1.615,1.173a.551.551,0,0,1,.2.615l-.617,1.9,1.615-1.173a.546.546,0,0,1,.323-.105" transform="translate(-2173.748 -699.552)" fill="#5571e9"/><path d="M1637.17,722.132l1.14,3.509H1642l-2.984,2.168,1.14,3.508-2.985-2.168-2.984,2.168,1.14-3.508-2.984-2.168h3.689Z" transform="translate(-1578.561 -698.341)" fill="#fff"/><path d="M1627.731,725.346a.55.55,0,0,1-.323-.1l-2.661-1.934-2.661,1.934a.55.55,0,0,1-.846-.615l1.016-3.128-2.661-1.933a.55.55,0,0,1,.323-.995h3.289l1.017-3.129a.55.55,0,0,1,1.046,0l1.016,3.129h3.289a.55.55,0,0,1,.324.995l-2.661,1.933,1.017,3.128a.55.55,0,0,1-.523.72m-2.984-3.268a.551.551,0,0,1,.323.1l1.615,1.174-.617-1.9a.551.551,0,0,1,.2-.615l1.615-1.173h-2a.55.55,0,0,1-.523-.38l-.617-1.9-.617,1.9a.55.55,0,0,1-.523.38h-2l1.615,1.173a.551.551,0,0,1,.2.615l-.617,1.9,1.615-1.174a.549.549,0,0,1,.323-.1" transform="translate(-1566.015 -691.503)" fill="#5571e9"/><path d="M997.656,726.937l1.14,3.508h3.689l-2.985,2.168,1.14,3.508-2.984-2.168-2.985,2.168,1.14-3.508-2.985-2.168h3.689Z" transform="translate(-960.116 -702.987)" fill="#fff"/><path d="M988.205,730.147a.551.551,0,0,1-.323-.1l-2.661-1.934-2.661,1.934a.55.55,0,0,1-.846-.615l1.016-3.128-2.661-1.933a.55.55,0,0,1,.323-.995h3.29l1.017-3.129a.55.55,0,0,1,1.046,0l1.016,3.129h3.29a.55.55,0,0,1,.323.995l-2.661,1.933,1.017,3.128a.549.549,0,0,1-.523.72m-2.984-3.268a.55.55,0,0,1,.323.1l1.615,1.173-.617-1.9a.55.55,0,0,1,.2-.615l1.615-1.173h-2a.55.55,0,0,1-.523-.38l-.617-1.9-.617,1.9a.55.55,0,0,1-.523.379h-2l1.615,1.173a.55.55,0,0,1,.2.615l-.617,1.9,1.615-1.173a.55.55,0,0,1,.323-.1" transform="translate(-947.559 -696.146)" fill="#5571e9"/><path d="M3339.149,2726.306h-2.933a2.2,2.2,0,0,1,0-4.4h2.933a2.2,2.2,0,0,1,0,4.4" transform="translate(-3224.173 -2631.229)" fill="#d6d7f4"/><path d="M390.2,2726.306H295.977a2.2,2.2,0,1,1,0-4.4H390.2a2.2,2.2,0,0,1,0,4.4" transform="translate(-284.098 -2631.229)" fill="#d6d7f4"/><path d="M5.719,2726.306H2.2a2.2,2.2,0,1,1,0-4.4H5.719a2.2,2.2,0,1,1,0,4.4" transform="translate(0 -2631.229)" fill="#d6d7f4"/><path d="M3615.668,2726.306h-7.919a2.2,2.2,0,0,1,0-4.4h7.919a2.2,2.2,0,0,1,0,4.4" transform="translate(-3486.759 -2631.229)" fill="#d6d7f4"/></g></g></svg>