<svg xmlns="http://www.w3.org/2000/svg" width="177.449" height="38.726" viewBox="0 0 177.449 38.726">
  <g id="logo-6686" transform="translate(-5 -12.9)">
    <path id="Path_1" data-name="Path 1" d="M34.8,37.169c0,8.351-6.472,14.457-14.77,14.457S5,45.78,5,36.908A18.819,18.819,0,0,1,8.5,26.731L18,12.9H29.217L15.334,35.081a5.271,5.271,0,0,0-.365.783A6.628,6.628,0,0,0,14.6,37.8a5.106,5.106,0,0,0,5.115,5.323,5.171,5.171,0,1,0,0-10.334,5.845,5.845,0,0,0-1.618.261l5.741-8.768c7.2,0,10.96,5.95,10.96,12.891" transform="translate(0 0)" fill="#3d7eeb"/>
    <path id="Path_2" data-name="Path 2" d="M95.4,37.169c0,8.351-6.472,14.457-14.77,14.457S65.6,45.78,65.6,36.908a18.819,18.819,0,0,1,3.5-10.177L78.6,12.9H89.817L75.986,35.081a5.688,5.688,0,0,0-.418.783A6.628,6.628,0,0,0,75.2,37.8a5.246,5.246,0,1,0,10.49.157,5.162,5.162,0,0,0-5.376-5.167,6.159,6.159,0,0,0-1.618.261l5.741-8.768c7.2,0,10.96,5.95,10.96,12.891" transform="translate(-28.972 0)" fill="#3d7eeb"/>
    <path id="Path_3" data-name="Path 3" d="M126.8,39.874a9.706,9.706,0,0,1,5.845-9.342,8.236,8.236,0,0,1-3.653-6.994c0-6.367,5.271-10.438,11.378-10.438s11.378,3.967,11.378,10.334a8.5,8.5,0,0,1-3.6,7.1c3.914,1.67,5.741,5.219,5.741,9.342,0,7.255-6.785,11.847-13.413,11.847S126.8,47.128,126.8,39.874m9.5-.835a4.075,4.075,0,1,0,8.142.052,4.175,4.175,0,0,0-4.071-4.28,4.018,4.018,0,0,0-4.071,4.227m.626-14.874a3.236,3.236,0,0,0,3.34,3.392,3.445,3.445,0,1,0,.209-6.837,3.5,3.5,0,0,0-3.549,3.445" transform="translate(-58.232 -0.096)" fill="#3d7eeb"/>
    <path id="Path_4" data-name="Path 4" d="M211.8,37.169c0,8.351-6.472,14.457-14.77,14.457S182,45.78,182,36.908a18.819,18.819,0,0,1,3.5-10.177L195,12.9h11.221L192.334,35.081a5.689,5.689,0,0,0-.418.783A8.768,8.768,0,0,0,191.6,37.8a5.246,5.246,0,1,0,10.49.157,5.162,5.162,0,0,0-5.376-5.167,5.845,5.845,0,0,0-1.618.261l5.741-8.768c7.2,0,10.96,5.95,10.96,12.891" transform="translate(-84.622 0)" fill="#3d7eeb"/>
    <path id="Path_5" data-name="Path 5" d="M252.353,65.2V48.5l-1.253.522V45.1l2.505-1.3h3.549v1.566h6.367V43.8h5.115v1.566h6.315v2.14h-2.61l2.4,17.64h-3.653l-.313-2.14h-2.4V65.2h-4.593V63.006h-2.453l-.261,2.14Zm4.8-.313,2.662-17.38h-2.662Zm6.263-17.38L261.59,60.971h2.192V47.506Zm7.1,13.465L268.74,47.506h-.365V60.971Z" transform="translate(-117.658 -14.773)" fill="#3d7eeb"/>
    <path id="Path_6" data-name="Path 6" d="M302.536,46.779H299.3V44.744h9.029V43.7h5.793v1.044h9.029v2.035H308.642l-1.827,2.4h10.543l-.678-1.618h4.488l1.618,3.653H300.239V49.493Zm-1.722,5.48H321.9V65.2h-5.637V61.445H306.45V65.2h-5.637Zm5.637,1.983v1.722h9.812V54.243Zm0,5.376h9.812V57.792H306.45Z" transform="translate(-140.702 -14.725)" fill="#3d7eeb"/>
  </g>
</svg>
