<svg xmlns="http://www.w3.org/2000/svg" xmlns:xlink="http://www.w3.org/1999/xlink" viewBox="0 0 203 64"><defs><style>.cls-1,.cls-2{fill:none;}.cls-2{clip-rule:evenodd;}.cls-3{fill:#faea65;}.cls-19,.cls-20,.cls-21,.cls-23,.cls-24,.cls-3{fill-rule:evenodd;}.cls-4{fill:url(#新增漸層色票_1);}.cls-5{fill:url(#新增漸層色票_1-2);}.cls-6{fill:url(#新增漸層色票_2);}.cls-7{fill:url(#新增漸層色票_2-2);}.cls-8{fill:url(#新增漸層色票_2-3);}.cls-9{fill:url(#新增漸層色票_2-4);}.cls-10{fill:url(#新增漸層色票_2-5);}.cls-11{fill:url(#新增漸層色票_2-6);}.cls-12{clip-path:url(#clip-path);}.cls-13{fill:#fdef69;}.cls-14{fill:url(#新增漸層色票_2-7);}.cls-15{fill:url(#新增漸層色票_2-8);}.cls-16{fill:url(#新增漸層色票_2-9);}.cls-17{fill:url(#新增漸層色票_2-10);}.cls-18{fill:url(#新增漸層色票_2-11);}.cls-19{fill:url(#未命名漸層_101);}.cls-20{fill:url(#未命名漸層_101-2);}.cls-21{fill:url(#未命名漸層_101-3);}.cls-22{fill:url(#未命名漸層_101-4);}.cls-23{fill:url(#未命名漸層_101-5);}.cls-24{fill:url(#未命名漸層_101-6);}.cls-25{fill:url(#未命名漸層_101-7);}.cls-26{clip-path:url(#clip-path-2);}</style><linearGradient id="新增漸層色票_1" x1="54.27" y1="51.5" x2="30" y2="3.87" gradientUnits="userSpaceOnUse"><stop offset="0" stop-color="#fff36c"/><stop offset="0.5" stop-color="#d19d2f"/><stop offset="0.51" stop-color="#fff36c"/><stop offset="1" stop-color="#bd7714"/></linearGradient><linearGradient id="新增漸層色票_1-2" x1="32.97" y1="59.86" x2="8.7" y2="12.23" xlink:href="#新增漸層色票_1"/><linearGradient id="新增漸層色票_2" x1="83.9" y1="39.82" x2="83.9" y2="10.99" gradientUnits="userSpaceOnUse"><stop offset="0" stop-color="#fff36c"/><stop offset="0.33" stop-color="#ce982b"/><stop offset="0.75" stop-color="#fff36c"/><stop offset="1" stop-color="#ecc43a"/></linearGradient><linearGradient id="新增漸層色票_2-2" x1="117.88" y1="39.82" x2="117.88" y2="10.59" xlink:href="#新增漸層色票_2"/><linearGradient id="新增漸層色票_2-3" x1="187.13" y1="39.82" x2="187.13" y2="11.5" xlink:href="#新增漸層色票_2"/><linearGradient id="新增漸層色票_2-4" x1="152.7" y1="34.35" x2="152.7" y2="16.49" xlink:href="#新增漸層色票_2"/><linearGradient id="新增漸層色票_2-5" x1="158.79" y1="31" x2="158.79" y2="25.89" xlink:href="#新增漸層色票_2"/><linearGradient id="新增漸層色票_2-6" x1="152.76" y1="39.78" x2="152.76" y2="11.43" xlink:href="#新增漸層色票_2"/><clipPath id="clip-path"><path id="韦德国际" class="cls-1" d="M82,30.33H69L71.7,27H82V23H70.22l2.71-3.38H82V16.15H69.41l2.68-3.37H82V11h3.74v1.79H98.67v3.37H85.73v3.51h12V23h-12V27h13V39H88.44l2.09-3.35H95V30.33H85.73v9.49H82Zm22.52-.51h-2.26l3.6-9.48h3.8l-2.92,7.73h1.55V39.82h-3.77ZM105.81,11h3.77l-3.42,8.51h-3.63Zm6.77,16h20.94V30.3H109.83Zm-1.27-10.49H120V15.34h-9.7l2.79-3.27H120V10.59h3.7v1.48h9.8v3.27h-9.8v1.19h8.85v6.61L130,25.64H111.31Zm-.25,15.93h3.67v4.72l-3.67,2.64Zm6.38-9.89v-3h-2.53v3Zm-1,9.18h3.73v4.76h7.62L125,39.82h-8.56Zm6.7-9.18v-3h-2.47v3Zm-.36,8.57h3.67v2.57l-3.67,2.46ZM129,22.57v-3h-2.54v3Zm.11,9.89h3.63v4.72l-3.63,2.64Zm43.17-21H183.5l-2.26,11h1.13V36.85h-5.74l2.18-3.38V24.93h-1.69l2.08-10.09H176v25h-3.74Zm17.1,25h1.59V24.19h-7.37L186,20.78h16v3.41h-7.3V39.82h-7.44Zm-5-10h3.53v8.88l-3.53,3.11Zm2.79-14.65h13.64v3.35h-16Zm10.82,14.65h3.52v6.28l-3.52,3.14ZM145.09,31l-1.69,3.38h18.47V31h-.8l.18,1-2-1h-.85l-2,1,.18-1h-2V26.21h3.53l.69-1.34.7,1.34h1.78V22.8h-6.7V19.87H162V16.49H145.09l-1.69,3.38h7.47V22.8h-4.94l-1.72,3.41h6.66V31Zm14.57-3.4-.87-1.68-.87,1.68-1.94.27,1.41,1.31L157.06,31l1.73-.87,1.74.87-.33-1.85,1.4-1.31ZM138.25,11.43V39.78h25.88l3.13-3V11.43Zm25.31,25.08H142V14.74h21.61Z"/></clipPath><linearGradient id="新增漸層色票_2-7" x1="127.7" y1="22.57" x2="127.7" y2="19.6" xlink:href="#新增漸層色票_2"/><linearGradient id="新增漸層色票_2-8" x1="121.92" y1="22.57" x2="121.92" y2="19.6" xlink:href="#新增漸層色票_2"/><linearGradient id="新增漸層色票_2-9" x1="152.76" y1="36.51" x2="152.76" y2="14.74" xlink:href="#新增漸層色票_2"/><linearGradient id="新增漸層色票_2-10" x1="116.17" y1="22.57" x2="116.17" y2="19.6" xlink:href="#新增漸層色票_2"/><linearGradient id="新增漸層色票_2-11" x1="136.42" y1="42.13" x2="136.42" y2="8.67" xlink:href="#新增漸層色票_2"/><linearGradient id="未命名漸層_101" x1="116" y1="55.96" x2="116" y2="44.11" gradientUnits="userSpaceOnUse"><stop offset="0" stop-color="#fff36c"/><stop offset="1" stop-color="#ebb138"/></linearGradient><linearGradient id="未命名漸層_101-2" x1="155.51" y1="55.96" x2="155.51" y2="44.11" xlink:href="#未命名漸層_101"/><linearGradient id="未命名漸層_101-3" x1="175.01" y1="55.96" x2="175.01" y2="44.12" xlink:href="#未命名漸層_101"/><linearGradient id="未命名漸層_101-4" x1="194" y1="55.96" x2="194" y2="44.12" xlink:href="#未命名漸層_101"/><linearGradient id="未命名漸層_101-5" x1="135.99" y1="55.96" x2="135.99" y2="44.12" xlink:href="#未命名漸層_101"/><linearGradient id="未命名漸層_101-6" x1="96.5" y1="55.96" x2="96.5" y2="44.12" xlink:href="#未命名漸層_101"/><linearGradient id="未命名漸層_101-7" x1="78.01" y1="55.95" x2="78.01" y2="44.1" xlink:href="#未命名漸層_101"/><clipPath id="clip-path-2"><path id="wadebet" class="cls-2" d="M125.43,55.57a1.88,1.88,0,0,1-1.05.39H106v-.22h0V44.11h3.75v.1h14.48a1.52,1.52,0,0,1,1.35.55A2,2,0,0,1,126,46v8.09A1.6,1.6,0,0,1,125.43,55.57Zm-3.14-8.91H109.75v6.86h12.54Zm42.39,4a1.53,1.53,0,0,1,.33,1v2.44a1.89,1.89,0,0,1-.48,1.37,2,2,0,0,1-1.44.46H146V54.08h0v-10h3.66v.1h13.43a1.86,1.86,0,0,1,1.44.53A1.92,1.92,0,0,1,165,46v2.29a1.77,1.77,0,0,1-.33,1.15,2.07,2.07,0,0,1-.63.53l.32.32Zm-3.35-4H149.66v2.15h11.67Zm0,4.6H149.69v2.28h11.64Zm8.45-4.67v2.16h10.79V51.2H169.78v.38h0v1.76H184V56H166V51.58h0V44.85h0v-.73h18v2.45Zm33.22,0h-7.38V56h-3.88V46.59H185V44.12h18Zm-72.25,0v2.16h10.81V51.2H130.75v.36h0v1.78h14V56H127V48.73h0V46.57h0V44.12h18v2.45ZM101.34,56V51.2H91.75V56H88V46a1.53,1.53,0,0,1,.8-1.38,3.5,3.5,0,0,1,1.65-.46l.08.11v-.11h12.07a3.29,3.29,0,0,1,1.6.46A1.52,1.52,0,0,1,105,46V56Zm0-9.08c0-.09-.08-.17-.24-.22l-.23-.07H92.24l-.23.07c-.17.05-.26.13-.26.22v2h9.59ZM79.81,53.41h3.6V44.1H87V56H72.17C70.07,56,69,55.1,69,53.41V44.1h3.6V53c0,.28.14.42.44.42h3.15V44.1h3.6Z"/></clipPath></defs><title>logo</title><g id="wd"><g id="wd-2" data-name="wd"><path class="cls-3" d="M33.19.4V63.6L63.05,47.8V16.2ZM56.42,42.11,43.14,48.43V15.57l13.28,6.32ZM19.91,48.43l-3.32-1.58V7.42L10,10.93V43.69L6.64,42.11V12.69L0,16.2V47.8L29.87,63.6V.4l-10,5.27Z"/></g><g id="wd_in"><path class="cls-4" d="M33.93,1.87v60l28.2-14.8V16.67ZM57.22,42.65,42.11,50.09V13.64l15.11,7.44Z"/><path class="cls-5" d="M20.85,50.09l-5.3-3.16V9.2L11,11.47V45L5.75,42.65V14L.83,16.67v30.4L29,61.87v-60l-8.19,4.4Z"/></g></g><g id="韦德国际-2" data-name="韦德国际"><g id="韦德国际-3" data-name="韦德国际"><path class="cls-6" d="M82,30.33H69L71.7,27H82V23H70.22l2.71-3.38H82V16.15H69.41l2.68-3.37H82V11h3.74v1.79H98.67v3.37H85.73v3.51h12V23h-12V27h13V39H88.44l2.09-3.35H95V30.33H85.73v9.49H82Z"/><path class="cls-7" d="M104.51,29.82h-2.26l3.6-9.48h3.8l-2.92,7.73h1.55V39.82h-3.77ZM105.81,11h3.77l-3.42,8.51h-3.63Zm6.77,16h20.94V30.3H109.83Zm-1.27-10.49H120V15.34h-9.7l2.79-3.27H120V10.59h3.7v1.48h9.8v3.27h-9.8v1.19h8.85v6.61L130,25.64H111.31Zm-.25,15.93h3.67v4.72l-3.67,2.64Zm6.38-9.89v-3h-2.53v3Zm-1,9.18h3.73v4.76h7.62L125,39.82h-8.56Zm6.7-9.18v-3h-2.47v3Zm-.36,8.57h3.67v2.57l-3.67,2.46ZM129,22.57v-3h-2.54v3Zm.11,9.89h3.63v4.72l-3.63,2.64Z"/><path class="cls-8" d="M172.25,11.5H183.5l-2.26,11h1.13V36.85h-5.74l2.18-3.38V24.93h-1.69l2.08-10.09H176v25h-3.74Zm17.1,25h1.59V24.19h-7.37L186,20.78h16v3.41h-7.3V39.82h-7.44Zm-5-10h3.53v8.88l-3.53,3.11Zm2.79-14.65h13.64v3.35h-16Zm10.82,14.65h3.52v6.28l-3.52,3.14Z"/><path class="cls-9" d="M145.09,31l-1.69,3.38h18.47V31h-.8l.18,1-2-1h-.85l-2,1,.18-1h-2V26.21h3.53l.69-1.34.7,1.34h1.78V22.8h-6.7V19.87H162V16.49H145.09l-1.69,3.38h7.47V22.8h-4.94l-1.72,3.41h6.66V31Z"/><path class="cls-10" d="M159.66,27.57l-.87-1.68-.87,1.68-1.94.27,1.41,1.31L157.06,31l1.73-.87,1.74.87-.33-1.85,1.4-1.31Z"/><path class="cls-11" d="M138.25,11.43V39.78h25.88l3.13-3V11.43Zm25.31,25.08H142V14.74h21.61Z"/></g><g class="cls-12"><rect class="cls-13" x="126.43" y="18.91" width="2.54" height="2.97"/><rect class="cls-13" x="120.69" y="18.91" width="2.47" height="2.97"/><path class="cls-13" d="M163.56,14.05H142V35.82h21.61ZM162,19.18h-7.4v2.94h6.7v3.41h-1.78l-.7-1.35-.69,1.35h-3.53v4.76h2l-.18,1,2-1h.85l2,1-.18-1h.8v3.37H143.4l1.69-3.37h5.78V25.53h-6.66l1.72-3.41h4.94V19.18H143.4l1.69-3.37H162Zm-1.48,11.14-1.74-.88-1.73.88.33-1.85L156,27.16l1.94-.27.87-1.69.87,1.69,1.94.27-1.4,1.31Z"/><rect class="cls-13" x="114.91" y="18.91" width="2.54" height="2.97"/><path class="cls-13" d="M66.72,8V41.45H206.11V8ZM187.1,11.15h13.64v3.34h-16Zm-81.29-.84h3.77l-3.42,8.5h-3.63Zm-7,28H88.44L90.53,35H95V29.65H85.73v9.48H82V29.65H69L71.7,26.3H82V22.36H70.22L72.93,19H82V15.47H69.41l2.68-3.38H82V10.31h3.74v1.78H98.67v3.38H85.73V19h12v3.38h-12V26.3h13Zm9.51-10.94V39.13h-3.77v-10h-2.26l3.6-9.49h3.8l-2.92,7.73Zm6.45,9.12-3.67,2.63V31.77h3.67ZM125,39.13h-8.56V31.06h3.73v4.76h7.62Zm-2.22-3.64v-5h3.67V33Zm9.91,1-3.63,2.63V31.77h3.63Zm.81-6.89H109.83l2.75-3.27h20.94Zm0-14.95h-9.8v1.18h8.85v6.62L130,25H111.31V15.84H120V14.66h-9.7l2.79-3.27H120V9.9h3.7v1.49h9.8Zm33.74,21.43-3.13,3H138.25V10.74h29Zm15.11-14.24V36.16h-5.74l2.18-3.38V24.25h-1.69l2.08-10.1H176v25h-3.74V10.81H183.5l-2.26,11Zm19.07,10.23-3.52,3.14V25.8h3.52ZM202,23.5h-7.3V39.13h-7.44l2.08-3.31h1.59V23.5h-7.37L186,20.09h16Zm-17.7,14.28v-12h3.53v8.88Z"/><rect class="cls-14" x="126.43" y="19.6" width="2.54" height="2.97"/><rect class="cls-15" x="120.69" y="19.6" width="2.47" height="2.97"/><path class="cls-16" d="M163.56,14.74H142V36.51h21.61ZM162,19.87h-7.4V22.8h6.7v3.41h-1.78l-.7-1.34-.69,1.34h-3.53V31h2l-.18,1,2-1h.85l2,1-.18-1h.8v3.38H143.4L145.09,31h5.78V26.21h-6.66l1.72-3.41h4.94V19.87H143.4l1.69-3.38H162ZM160.53,31l-1.74-.87-1.73.87.33-1.85L156,27.84l1.94-.27.87-1.68.87,1.68,1.94.27-1.4,1.31Z"/><rect class="cls-17" x="114.91" y="19.6" width="2.54" height="2.97"/><path class="cls-18" d="M66.72,8.67V42.13H206.11V8.67ZM187.1,11.83h13.64v3.35h-16ZM105.81,11h3.77l-3.42,8.51h-3.63Zm-7,28H88.44l2.09-3.35H95V30.33H85.73v9.49H82V30.33H69L71.7,27H82V23H70.22l2.71-3.38H82V16.15H69.41l2.68-3.37H82V11h3.74v1.79H98.67v3.37H85.73v3.51h12V23h-12V27h13Zm9.51-10.94V39.82h-3.77v-10h-2.26l3.6-9.48h3.8l-2.92,7.73Zm6.45,9.11-3.67,2.64V32.46h3.67ZM125,39.82h-8.56V31.75h3.73v4.76h7.62Zm-2.22-3.65v-5h3.67v2.57Zm9.91,1-3.63,2.64V32.46h3.63Zm.81-6.88H109.83L112.58,27h20.94Zm0-15h-9.8v1.19h8.85v6.61L130,25.64H111.31V16.53H120V15.34h-9.7l2.79-3.27H120V10.59h3.7v1.48h9.8Zm33.74,21.44-3.13,3H138.25V11.43h29Zm15.11-14.25V36.85h-5.74l2.18-3.38V24.93h-1.69l2.08-10.09H176v25h-3.74V11.5H183.5l-2.26,11Zm19.07,10.23-3.52,3.14V26.48h3.52Zm.57-8.57h-7.3V39.82h-7.44l2.08-3.31h1.59V24.19h-7.37L186,20.78h16Zm-17.7,14.28v-12h3.53v8.88Z"/></g></g><g id="wadebet-2" data-name="wadebet"><g id="wadebet-3" data-name="wadebet"><path class="cls-19" d="M125.43,55.57a1.88,1.88,0,0,1-1.05.39H106v-.22h0V44.11h3.75v.1h14.48a1.52,1.52,0,0,1,1.35.55A2,2,0,0,1,126,46v8.09A1.6,1.6,0,0,1,125.43,55.57Zm-3.14-8.91H109.75v6.86h12.54Z"/><path class="cls-20" d="M164.68,50.69a1.53,1.53,0,0,1,.33,1v2.44a1.89,1.89,0,0,1-.48,1.37,2,2,0,0,1-1.44.46H146V54.08h0v-10h3.66v.1h13.43a1.86,1.86,0,0,1,1.44.53A1.92,1.92,0,0,1,165,46v2.29a1.77,1.77,0,0,1-.33,1.15,2.07,2.07,0,0,1-.63.53l.32.32Zm-3.35-4H149.66v2.15h11.67Zm0,4.6H149.69v2.28h11.64Z"/><path class="cls-21" d="M169.78,46.57v2.16h10.79V51.2H169.78v.38h0v1.76H184V56H166V51.58h0V44.85h0v-.73h18v2.45Z"/><path class="cls-22" d="M203,46.59h-7.38V56h-3.88V46.59H185V44.12h18Z"/><path class="cls-23" d="M130.75,46.57v2.16h10.81V51.2H130.75v.36h0v1.78h14V56H127V48.73h0V46.57h0V44.12h18v2.45Z"/><path class="cls-24" d="M101.34,56V51.2H91.75V56H88V46a1.53,1.53,0,0,1,.8-1.38,3.5,3.5,0,0,1,1.65-.46l.08.11v-.11h12.07a3.29,3.29,0,0,1,1.6.46A1.52,1.52,0,0,1,105,46V56Zm0-9.08c0-.09-.08-.17-.24-.22l-.23-.07H92.24l-.23.07c-.17.05-.26.13-.26.22v2h9.59Z"/><path class="cls-25" d="M79.81,44.1h-3.6v9.31H73.06c-.3,0-.44-.14-.44-.42V44.1H69v9.31c0,1.69,1,2.54,3.15,2.54H87V44.1H83.41v9.31h-3.6Z"/></g><g class="cls-26"><rect class="cls-13" x="149.69" y="50.44" width="11.64" height="2.29"/><rect class="cls-13" x="109.75" y="45.86" width="12.54" height="6.86"/><path class="cls-13" d="M101.1,45.86l-.23-.07H92.24l-.23.07c-.17,0-.26.13-.26.22v2h9.59v-2C101.34,46,101.26,45.91,101.1,45.86Z"/><rect class="cls-13" x="149.66" y="45.85" width="11.67" height="2.14"/><path class="cls-13" d="M67.8,40.31V59h137V40.31ZM87,55.15H72.17c-2.1,0-3.15-.85-3.15-2.54V43.3h3.6v8.89c0,.28.14.42.44.42h3.15V43.3h3.6v9.31h3.6V43.3H87Zm18,0h-3.66V50.4H91.75v4.76H88v-10a1.53,1.53,0,0,1,.8-1.38,3.5,3.5,0,0,1,1.65-.46l.08.11v-.11h12.07a3.29,3.29,0,0,1,1.6.46,1.52,1.52,0,0,1,.79,1.38Zm21-1.83a1.6,1.6,0,0,1-.56,1.44,1.88,1.88,0,0,1-1.05.39H106v-.22h0V43.31h3.75v.1h14.48a1.55,1.55,0,0,1,1.35.55,2,2,0,0,1,.41,1.28Zm19-7.56H130.75v2.16h10.81V50.4H130.75v.36h0v1.78h14v2.62H127V47.93h0V45.77h0V43.32h18Zm20,1.76a1.77,1.77,0,0,1-.33,1.15,2.07,2.07,0,0,1-.63.53l.32.32.31.36a1.53,1.53,0,0,1,.33,1v2.44a1.89,1.89,0,0,1-.48,1.37,2,2,0,0,1-1.44.46H146V53.28h0v-10h3.66v.1h13.43a1.86,1.86,0,0,1,1.44.53,1.92,1.92,0,0,1,.48,1.3Zm19-1.76H169.78v2.16h10.79V50.4H169.78v.38h0v1.76H184v2.62H166V50.78h0V44.05h0v-.73h18Zm19,0h-7.38v9.37h-3.88V45.79H185V43.32h18Z"/><rect class="cls-13" x="149.69" y="51.24" width="11.64" height="2.29"/><rect class="cls-13" x="109.75" y="46.66" width="12.54" height="6.86"/><path class="cls-13" d="M101.1,46.66l-.23-.07H92.24l-.23.07c-.17.05-.26.13-.26.22v2h9.59v-2C101.34,46.79,101.26,46.71,101.1,46.66Z"/><rect class="cls-13" x="149.66" y="46.64" width="11.67" height="2.14"/><path class="cls-13" d="M67.8,41.11V59.78h137V41.11ZM87,56H72.17C70.07,56,69,55.1,69,53.41V44.1h3.6V53c0,.28.14.42.44.42h3.15V44.1h3.6v9.31h3.6V44.1H87Zm18,0h-3.66V51.2H91.75V56H88V46a1.53,1.53,0,0,1,.8-1.38,3.5,3.5,0,0,1,1.65-.46l.08.11v-.11h12.07a3.29,3.29,0,0,1,1.6.46A1.52,1.52,0,0,1,105,46Zm21-1.83a1.6,1.6,0,0,1-.56,1.44,1.88,1.88,0,0,1-1.05.39H106v-.22h0V44.11h3.75v.1h14.48a1.52,1.52,0,0,1,1.35.55A2,2,0,0,1,126,46Zm19-7.56H130.75v2.16h10.81V51.2H130.75v.36h0v1.78h14V56H127V48.73h0V46.57h0V44.12h18Zm20,1.76a1.77,1.77,0,0,1-.33,1.15,2.07,2.07,0,0,1-.63.53l.32.32.31.36a1.53,1.53,0,0,1,.33,1v2.44a1.89,1.89,0,0,1-.48,1.37,2,2,0,0,1-1.44.46H146V54.08h0v-10h3.66v.1h13.43a1.86,1.86,0,0,1,1.44.53A1.92,1.92,0,0,1,165,46Zm19-1.76H169.78v2.16h10.79V51.2H169.78v.38h0v1.76H184V56H166V51.58h0V44.85h0v-.73h18Zm19,0h-7.38V56h-3.88V46.59H185V44.12h18Z"/></g></g></svg>