<svg version="1.1" id="Layer_1" xmlns="http://www.w3.org/2000/svg" x="0" y="0" viewBox="0 0 200 200" xml:space="preserve"><style>.st0{fill:#282828}.st1{fill:#fff}</style><path class="st0" d="M157.2 67.2H43.5c-3.4 0-6.1-2.7-6.1-6.1V52c0-3.4 2.7-6.1 6.1-6.1h113.7c3.4 0 6.1 2.7 6.1 6.1v9.2c0 3.3-2.8 6-6.1 6z"/><path class="st1" d="M157.3 66.5H42.7c-3 0-5.3-2.4-5.3-5.3v-9.9c0-3 2.4-5.3 5.3-5.3h114.5c3 0 5.3 2.4 5.3 5.3v9.9c.1 2.9-2.3 5.3-5.2 5.3z"/><path class="st0" d="M157.2 111.1H43.5c-3.4 0-6.1-2.7-6.1-6.1v-9.2c0-3.4 2.7-6.1 6.1-6.1h113.7c3.4 0 6.1 2.7 6.1 6.1v9.2c0 3.3-2.8 6.1-6.1 6.1z"/><path class="st1" d="M157.3 110.3H42.7c-3 0-5.3-2.4-5.3-5.3v-9.9c0-3 2.4-5.3 5.3-5.3h114.5c3 0 5.3 2.4 5.3 5.3v9.9c.1 2.9-2.3 5.3-5.2 5.3z"/><path class="st0" d="M157.2 154.9H43.5c-3.4 0-6.1-2.7-6.1-6.1v-9.2c0-3.4 2.7-6.1 6.1-6.1h113.7c3.4 0 6.1 2.7 6.1 6.1v9.2c0 3.4-2.8 6.1-6.1 6.1z"/><path class="st1" d="M157.3 154.1H42.7c-3 0-5.3-2.4-5.3-5.3v-9.9c0-3 2.4-5.3 5.3-5.3h114.5c3 0 5.3 2.4 5.3 5.3v9.9c.1 2.9-2.3 5.3-5.2 5.3z"/></svg>