<svg xmlns="http://www.w3.org/2000/svg" viewBox="0 0 110 52"  xmlns:v="https://vecta.io/nano"><path d="M108.9 15.4s0-.1 0 0c-.1-.2-.2-.2-.3-.3s-.3-.3-.5-.4c-1.4-1.3-5.2-3.7-11.5-3.7H96c-.4 0-.8 0-1.3.1-.2 0-.3 0-.5.1H94c-.2 0-.3.1-.6.1-.2 0-.3.1-.4.1-.3.1-.6.1-.8.2-.2 0-.3.1-.5.1h-.1c-.1 0-.2 0-.3.1-.2 0-.3.1-.4.1h-.1c-.2 0-.3.1-.4.1-.2.1-.3.1-.6.2h-.1c-.1 0-.2.1-.3.1s-.2.1-.3.1-.2 0-.2.1h-.1c-.2.1-.3.1-.5.2h-.1c-.1 0-.2.1-.3.1h-.1c-.4.1-.8.3-1.1.3-.1 0-.1 0-.2.1-.3.1-.5.2-.7.3-.1 0-.1 0-.2.1-.1 0-.1 0-.2.1-.1 0-.1 0-.2.1l-.6.3c-.1 0-.2.1-.2.1 0-.3-.1-.2-.4-.2-.1 0-.2.1-.3.1-.2.1-.3.1-.4.2s-.2.1-.3.2c3.2-1.2 10.1-3 15.5-2 4.5.8 7.7 3.1 9.2 4.5l1.1-1.1.1-.5z" fill="#e9b311"/><path d="M98.4 12.3c-5.2-.9-11.7.7-15 1.9-.1 0-.2.1-.3.1-.1.1-.2.1-.3.1s-.2.1-.2.1c-.1.1-.3.1-.3.2-.1 0-.1 0-.2.1s-.3.1-.3.2c-.1 0-.2.1-.2.1h-.1c.2-.1.3-.2.5-.2.1 0 .2-.1.3-.1h.1c.3-.1.7-.3 1.1-.3.1 0 .2-.1.2-.1-.1.1-.2.1-.3 0 1.9-.6 5-1.4 8.9-1.4 6 0 8.5 1.1 13.6 5.7l1.6-1.6c-1.4-1.6-4.7-4-9.1-4.8z" fill="#fdf9dd"/><path d="M92.4 12.8c-5.6 0-9.5 1.6-10.6 2-.1 0-.2.1-.2.1h-.1c.2-.1.3-.2.5-.2.1 0 .2-.1.3-.1h.1c.3-.1.7-.3 1.1-.3.2-.1.3-.1.5-.2.2 0 .3-.1.4-.1.2 0 .3-.1.6-.1h.3c.1 0 .2 0 .3-.1h.1c.3 0 .5-.1.8-.1 3.5-.4 7.6-.3 10.6 1 1.2.5 2.2 1.1 3.1 1.6 1.2.8 2 1.5 2.7 2.1l.3.3c0 .1.1.1.1.2.1.1.1.1.1.2l.1.1c.1.1.2.2.2.3v.1c.1.1.1.1.1.2.1.2.2.3.2.3l1.8-1.8c-5-4.4-7.3-5.6-13.4-5.5z" fill="#fef9c2"/><g fill-rule="evenodd" fill="#fff"><path d="M34.6 20.7H29l-.6 1.8c.3 0 .5-.1.8-.1h.7c.8 0 1.5.2 2.2.4.6.3 1.2.7 1.6 1.2s.8 1.2.8 1.8a4.48 4.48 0 0 1 0 2.3c-.2.8-.4 1.6-.9 2.4-.4.7-1 1.3-1.7 1.8s-1.5.9-2.4 1.1a11.81 11.81 0 0 1-5.6.1c-.8-.3-1.6-.6-2.3-1.1l1.4-4c.6.6 1.2 1.1 1.9 1.4s1.4.5 2 .5c.8 0 1.5-.3 2.2-.7.6-.4.9-1 1.1-1.7.2-.8-.1-1.5-.7-1.9-.8-.5-1.6-.8-2.5-.8-.5 0-1 .1-1.5.2-.6.1-1.1.3-1.6.5l2.9-8.7h9.3l-1.5 3.5zm13.7-3.6l-5.5 5.3h.1c.3-.2.7-.3 1.1-.4.3-.1.5-.1.7-.1.8 0 1.4.2 2.1.4.6.3 1.1.7 1.5 1.3.4.5.7 1.2.8 1.9a4.48 4.48 0 0 1 0 2.3c-.2.8-.4 1.7-.9 2.4-.4.8-1 1.4-1.7 1.9-.7.6-1.5 1-2.4 1.3s-1.9.5-3 .5c-.9 0-1.9-.2-2.8-.5-.8-.3-1.4-.8-1.9-1.3s-.8-1.2-1-1.9-.3-1.5-.1-2.3c.2-1 .6-2 1.1-3a12.61 12.61 0 0 1 2.5-3.1l4.6-4.6 4.8-.1c0 .1 0 0 0 0zm-8.8 10.6c-.1.3-.1.7 0 1s.3.6.4.8c.2.3.4.4.8.6a1.93 1.93 0 0 0 1 .3c.3 0 .8-.1 1.1-.3s.7-.3.9-.6l.8-.8c.2-.3.3-.7.4-1s.1-.7 0-1-.3-.6-.4-.8c-.2-.3-.4-.4-.8-.6s-.7-.3-1-.3-.8.1-1.1.3c-.7.3-1.3.8-1.7 1.4-.3.4-.4.7-.4 1zm22.2-7h-5.6l-.6 1.8c.3 0 .5-.1.8-.1h.7c.8 0 1.5.2 2.2.4.6.3 1.2.7 1.6 1.2s.8 1.2.8 1.8a4.48 4.48 0 0 1 0 2.3c-.2.8-.4 1.6-.9 2.4-.4.7-1 1.3-1.7 1.8s-1.5.9-2.4 1.1a11.81 11.81 0 0 1-5.6.1c-.8-.3-1.6-.6-2.3-1.1l1.4-4c.6.6 1.2 1.1 1.9 1.4s1.4.5 2 .5c.8 0 1.5-.3 2.2-.7.6-.4.9-1 1.1-1.7.2-.8-.1-1.5-.7-1.9-.8-.5-1.6-.8-2.5-.8-.5 0-1 .1-1.5.2-.6.1-1.1.3-1.6.5l2.9-8.7h9.3l-1.5 3.5z"/><path d="M9 22.3c.3.6.1.8.3 1 .3.2.2.3.3.5.1.3-.2.5.1.8 0 0-.3.2-.1.5.3.3.3.5.1.7L9 28.2c-.1.2-1.4 1.4-1.4 1.5-.3-.5-.6-.9-.9-1.3-.6-.3-2.4-1.4-2.7-1.9s-.7-2.1-1.2-1.9c-.3.2-.6.3-.9.6-.7.5-1.8 1.6-1.8 2.5 0 0 .2.1.7-.3s1.1-.6 1.5 0c0 0 .4 0 .8.8L5.5 31c.4.5.4.3.7.8.3.6 1 .8 1.6.5.1-.2.1-.2.2-.3.4-.3.9-.6 1.4-.8l.3.3c.8-.6 1.5-1.4 2.1-2.2.8.1 1.5.3 2.2.8l.7.1c.6.3 1.2.6 1.9.8.4 1.2 1.1 2.2 2 3 1.3 1 1.8 1.6 1.9 2.2 0 0 .4 1.8 1.4 1.4.9-.4 1.8-.8 2.6-1.4 0 0 0-.3-.6-.3l-1.4-.2-.9-.7h-.2l-3.6-4.7c0-.6-.4-1.1-.9-1.3l-2.6-2.6s-.2-.5-.4-.5c0 0 .1-.4.5-.1s1.3.7 1.5.8c.3.2.8.8.8.8.1 0 .2.3.3.3.1.2.3.2.5.1 0 0 .1-.1.2 0 0 .1.3.1.2-.2 0 0 .4.2.3-.3-.1-.3-.2-.5-.4-.7-.3-.2-.6-.3-.9-.3l-2.1-2.5c-.2-.6-.3-1-.3-1.5-.1-.8-.6-2.8-1.2-3.3 0 0-.2-.5.1-.5s.6.6.6.6l.8-.6h.2l.1-.8.3-.6c.3-.1.4-.3.4-.6-.1-.9-.8-1.5-1.8-1.5-.9.2-1.6 1-1.6 1.9l-.1.3c-.1 0-.2.1-.2.2 0 0-.9-.3-1.9-.4s-1.9-.6-2.8-1.2c-.5-.5-2.6-2.3-2.6-2.3s-.8-.5-1.3-.2c-.4.3-.3.9.1.5 0 0 .5-.2.6.1 0 0 .2.2-.2.2 0 0-.4 0-.2.2.3.1.7.3.9.6.3.5 2.3 3.1 2.8 3.4 2.6 1 .8 2.2 1.5 4z" stroke="#fff" stroke-width="1.5"/></g><linearGradient id="A" gradientUnits="userSpaceOnUse" x1="1.436" y1="15.542" x2="23.25" y2="37.356"><stop offset="0" stop-color="#ecb509"/><stop offset="1" stop-color="#feea5f"/></linearGradient><path d="M3.8 14.2c.3.1.7.3.9.6.3.5 2.5 3.1 3 3.3a3.16 3.16 0 0 1 1.4 1.4c-.1.9-.1 1.8-.1 2.7.3.6.1.8.3 1 .3.2.2.3.3.5.1.3-.2.5.1.8 0 0-.3.2-.1.5.3.3.3.5.1.7l-.8 2.4c-.1.2-1.4 1.4-1.4 1.5-.3-.5-.6-.9-.9-1.3C6 28 4.2 27 3.9 26.5s-.7-2.1-1.2-1.9c-.3.2-.6.3-.9.6-.6.3-1.8 1.5-1.8 2.3 0 0 .2.1.7-.3s1.3-.7 1.7-.2c0 0 .4 0 .8.8l2.4 2.8c.4.5.4.3.7.8s.8 1.2 1.7.5c.4-.3.9-.6 1.4-.8l.3.3c.8-.6 1.5-1.4 2.1-2.2.8.1 1.5.3 2.2.8l.7.1c.6.3 1.2.6 1.9.8.5 1.2 1.3 2.3 2.1 3.1 1.3 1 1.8 1.6 1.9 2.2 0 0 .4 1.8 1.4 1.4.9-.4 1.8-.8 2.6-1.4 0 0 0-.3-.6-.3l-1.4-.2-.8-.8h-.2L18 30.2c0-.6-.4-1.1-.9-1.3l-2.6-2.6s-.2-.5-.4-.5c0 0 .1-.4.5-.1s1.3.7 1.5.8c.3.2.8.8.8.8.1 0 .2.3.3.3.1.2.3.2.5.1 0 0 .1-.1.2 0s.3.1.2-.2c0 0 .4.2.3-.3-.1-.3-.2-.5-.4-.7-.3-.2-.6-.3-.9-.3L15 23.7c-.3-.3-.4-.8-.5-1.2-.1-.8-.6-2.8-1.2-3.3 0 0-.2-.5.1-.5s.6.6.6.6l.8-.6h.3l.1-.8.3-.6c.3-.1.4-.3.4-.6-.1-.9-.8-1.5-1.8-1.5-.9.2-1.6 1-1.6 1.9l-.1.3c-.1 0-.2.1-.2.2 0 0-.9-.3-1.9-.4s-2.3-.5-3.1-1c-.5-.5-2.6-2.3-2.6-2.3s-.7-.6-1.1-.3-.1.8.2.3c0 0 .3-.2.5.1 0 0 .2.2-.2.2 0-.1-.5-.1-.2 0z" fill="url(#A)"/><linearGradient id="B" gradientUnits="userSpaceOnUse" x1="81.169" y1="17.21" x2="81.169" y2="33.383"><stop offset="0" stop-color="#fefe9c"/><stop offset="1" stop-color="#f4c758"/></linearGradient><path d="M81.1 18.5L80 20.6h-1.3l-.1 11.8h-2.4V20.6H76l-1.7 9.5h1.8L75 32.2h-1.1v.2L71 33.6l.3-1.4h-1.5l.3-2h1.5l1.7-9.5H73l-4 11.8h-2.4l3.8-11.8h-1.5l.3-2.1h4.3l.3-1.5h2.6l-.3 1.5c0 0 5-.1 5-.1zM66.4 32l-3 1.3 1.9-10.5h-1.2l3-5.8H70l-1.2 2.4c-.2 0-2.4 12.6-2.4 12.6zm31.3-12.5H87.1l-1 1.3h8.5l-.2-1h2.7l.4 2.8H95l-.2-1.2-.8 1.2H82.4l.3-1.9 1-1.3h-1.4l.3-1.8h6.2c.2-.3.4-.5.7-.8s.7-.3 1.1-.3c.3 0 .8.1 1.1.2s.4.3.5.4l.3.4H99l-1.3 2zm-2 11.5l-3 2.3h-5.9l.3-1.8h5.6l1.1-6.4h-9.2l-.2 1.1h9l-1.1 1.6h-8.1l-.2 1.1h9l-1.1 1.7h-8.2l-.3 1.6-3.1 1.3 1.8-10.1h15L95.7 31z" fill="url(#B)"/><linearGradient id="C" gradientUnits="userSpaceOnUse" x1="27.338" y1="31.485" x2="27.338" y2="38.871"><stop offset=".005" stop-color="#fff"/><stop offset=".99" stop-color="#fff" stop-opacity="0"/></linearGradient><path d="M33.7 39.5c-.2-.8-.4-1.6-.9-2.4-.4-.7-1-1.3-1.7-1.8s-1.5-.9-2.4-1.1a11.81 11.81 0 0 0-5.6-.1c-.8.3-1.6.6-2.3 1.1l1.4 4c.6-.6 1.2-1.1 1.9-1.4s1.4-.5 2-.5c.8 0 1.5.3 2.2.7.6.4.9 1 1.1 1.7.1.4 0 .8-.1 1.2h4.4c.1-.5.1-.9 0-1.4z" fill="url(#C)"/><linearGradient id="D" gradientUnits="userSpaceOnUse" x1="41.531" y1="31.485" x2="41.531" y2="38.871"><stop offset=".005" stop-color="#fff"/><stop offset=".99" stop-color="#fff" stop-opacity="0"/></linearGradient><path d="M39.1 40.8c-.2-.3-.3-.7-.4-1s-.1-.7 0-1 .3-.6.4-.8.4-.4.8-.6a1.93 1.93 0 0 1 1-.3c.3 0 .8.1 1.1.3s.7.3.9.6l.8.8c.2.3.3.7.4 1s.1.7 0 1v.1h4.4c0-.3 0-.7-.1-1-.2-.8-.4-1.7-.9-2.4-.4-.8-1-1.4-1.7-1.9-.7-.6-1.5-1-2.4-1.3s-1.9-.5-3-.5c-.9 0-1.9.2-2.8.5-.8.3-1.4.8-1.9 1.3s-.8 1.2-1 1.9-.3 1.5-.1 2.3l.3 1.2 4.2-.2c0 .1 0 0 0 0h0z" fill="url(#D)"/><linearGradient id="E" gradientUnits="userSpaceOnUse" x1="54.507" y1="31.485" x2="54.507" y2="38.871"><stop offset=".005" stop-color="#fff"/><stop offset=".99" stop-color="#fff" stop-opacity="0"/></linearGradient><path d="M60.8 39.5c-.2-.8-.4-1.6-.9-2.4-.4-.7-1-1.3-1.7-1.8s-1.5-.9-2.4-1.1a11.81 11.81 0 0 0-5.6-.1c-.8.3-1.6.6-2.3 1.1l1.4 4c.6-.6 1.2-1.1 1.9-1.4s1.4-.5 2-.5c.8 0 1.5.3 2.2.7.6.4.9 1 1.1 1.7.1.4 0 .8-.1 1.2H61c-.1-.5-.1-.9-.2-1.4z" fill="url(#E)"/><linearGradient id="F" gradientUnits="userSpaceOnUse" x1="86.789" y1="31.485" x2="86.789" y2="38.871"><stop offset=".005" stop-color="#f4c758"/><stop offset=".99" stop-color="#fefe9c" stop-opacity="0"/></linearGradient><path d="M84.4 40.6h9L92.2 39h-8.1l-.2-1.1h9l-1.1-1.7h-8.2l-.3-1.6-3.1-1.3 1.4 7.6h2.9v-.3z" fill="url(#F)"/><linearGradient id="G" gradientUnits="userSpaceOnUse" x1="91.69" y1="31.485" x2="91.69" y2="38.871"><stop offset=".005" stop-color="#f4c758"/><stop offset=".99" stop-color="#fefe9c" stop-opacity="0"/></linearGradient><path d="M95.7 35.8l-3-2.3h-5.9l.3 1.8h5.6l.9 5.7h3l-.9-5.2z" fill="url(#G)"/><linearGradient id="H" gradientUnits="userSpaceOnUse" x1="77.409" y1="31.485" x2="77.409" y2="38.871"><stop offset=".005" stop-color="#f4c758"/><stop offset=".99" stop-color="#fefe9c" stop-opacity="0"/></linearGradient><path d="M78.6,34.2h-2.4v6.7h2.4V34.2z" fill="url(#H)"/><linearGradient id="I" gradientUnits="userSpaceOnUse" x1="72.803" y1="31.485" x2="72.803" y2="38.871"><stop offset=".005" stop-color="#f4c758"/><stop offset=".99" stop-color="#fefe9c" stop-opacity="0"/></linearGradient><path d="M74.2 36.6H76l-1.1-2.1h-1l-.1-.2-2.9-1.2.3 1.4h-1.5l.3 2.1h1.6l.8 4.3H75l-.8-4.3z" fill="url(#I)"/><linearGradient id="J" gradientUnits="userSpaceOnUse" x1="65.409" y1="31.485" x2="65.409" y2="38.871"><stop offset=".005" stop-color="#f4c758"/><stop offset=".99" stop-color="#fefe9c" stop-opacity="0"/></linearGradient><path d="M66.3 34.7l-3-1.3 1.3 7.5h2.8l-1.1-6.2z" fill="url(#J)"/><linearGradient id="K" gradientUnits="userSpaceOnUse" x1="68.873" y1="31.485" x2="68.873" y2="38.871"><stop offset=".005" stop-color="#f4c758"/><stop offset=".99" stop-color="#fefe9c" stop-opacity="0"/></linearGradient><path d="M68.9 34.2h-2.3l2.1 6.7h2.5l-2.3-6.7z" fill="url(#K)"/><path d="M106.6 15.1s0 .1 0 0z" fill="#e8b10b"/><path d="M83.5 14.1c-.1 0-.2.1-.3.1 0 0 .1 0 .3-.1zm1.4-.2s0-.1 0 0c.1-.1 0-.1 0 0 0-.1 0 0 0 0zm19 5.6h0zm-12-6.3h0zm-7 .7c-.1.1-.2.1-.4.1.2 0 .3-.1.6-.1h-.2z" fill="#fef9c2"/><g fill="#fcf593"><path d="M103.9 17.8h0c0-.1 0-.1 0 0z"/><path d="M104 17.6c-.1 0-.1.1 0 0l-.1.2c0-.1 0-.1.1-.2zm-.6.1c-.4-.4-.7-1.1-1.4-1-.3-.4-.8-.4-1.1-.7-.2-.1-.2-.3-.4-.3-.5 0-.8-.3-1.3-.5a1.93 1.93 0 0 0-1-.3c.8.2 1.5.6 2.3.8.7.3 1.3.8 1.9 1 .1 0 .2.1.3.2.3.2.4.4.6.6.3.3.4.3.7.1v-.1c-.2.3-.4.4-.6.2z"/></g><path d="M104 17.6c0 .1 0 .2-.1.2v.1c.2-.1.2-.1.1-.3zm0 .1c0-.1 0-.1 0 0 0-.1 0-.1 0 0 0-.1 0-.1 0 0z" fill="#fdfa9b"/><g fill="#fefae0"><path d="M93.9 12.5h0zm-5 .4c-.2.2-.4.1-.6.1-.2.2-.3.1-.5.1v.1h.7c.2 0 .3-.1.4-.1s.3-.1.3-.1c.2-.1.4-.1.6-.2h.6c.2 0 .3-.1.4-.1s.2-.1.3-.1l-2.2.3z"/><path d="M90 12.9h-.2c-.2.1-.3.1-.6.2.2 0 .3-.1.6-.1l.2-.1c.1 0 .2 0 .3-.1-.1 0-.2.1-.3.1z"/></g><g fill="#f6e46b"><path d="M104.5 20h0l1.3-1.4-1.3 1.4z"/><path d="M107.1 17.3l.5-.5c-.6.3-1.3.5-1.6 1.2-.1.1-.2.2-.3.2-.1.2-.2.3-.3.3-.1.6-.5.9-.9 1.2v.3l1.3-1.4a2.07 2.07 0 0 1 1.3-1.3zm-2.6 2.7v-.3c-.1 0-.2.1-.3.1.1.2.2.2.3.2-.1.1-.1.1 0 0z"/></g><path d="M106.7 16c-.1.3-.5.5-.8.4-.1 0-.2-.1-.3 0 .4.3.5.5.2.8-.1.1-.2.2-.2.3.3-.2.5-.3.8-.6.2-.2.4-.3.7-.3h.5l.2-.2c-.3 0-.8 0-1.1-.4z" fill="#f7db55"/><path d="M97.9 14.2l-.8-.3c-.6-.2-1.1-.3-1.7-.3-.5-.1-1.1-.2-1.6-.2-.6 0-1.3 0-1.9.1.3.2.6.1.8.1.4-.2.8 0 1.2 0 .8 0 1.4.2 2.2.3.3.1.4.1.7.1h.2c.1.1.2.1.3.1.2.1.3.1.4.2a1.7 1.7 0 0 0 .7.1c-.2-.1-.3-.2-.5-.2z" fill="#fcf595"/><path d="M105.1 18.3c0-.3.2-.3.3-.4 0-.2.1-.3.1-.5-.2 0-.3.1-.3.3-.2.3-.5.6-.8.9.1.1.3-.1.3.1.1.2-.1.3-.2.3l-.3.3v.2c.5-.5.8-.8.9-1.2zm-.8 1.1h0l.1-.3c-.2.2-.3.3-.6.3.1.1.2.2.2.3 0-.2.2-.3.3-.3z" fill="#f1d049"/><path d="M104.8 16.3c.1.1.2.2.2.3.2.1.2.3.2.4s-.2.2-.3.3c-.2.3-.4.5-.7.8 0 0 0 .1.1.1v.1c.4-.3.7-.8 1.1-1.1 0-.1 0-.3.1-.3-.2-.3-.5-.5-.7-.6h0z" fill="#f9e68a"/><path d="M104.1 18.2c-.3.2-.5.4-.8.6.4-.1.6-.3.8-.6h0z" fill="#fef9c2"/><g fill="#fcf590"><path d="M92.8 13.5c.1 0 .1.1.2.1.8 0 1.7.3 2.5.4l.2-.2-2.9-.3z"/><path d="M96.2 13.9c-.7-.2-1.4-.3-2.2-.3-.4 0-.8-.2-1.2 0l2.9.3h.5z"/></g><g fill="#ebb91b"><path d="M106.6 15.1c-.1 0-.1-.1-.2-.1v.1a1.93 1.93 0 0 1 1 .3c.4.3.8.1 1.3-.1 0-.1-.1-.1-.2-.2-.1.1-.3.2-.3.2-.5-.1-1-.2-1.6-.2zm-.1 0h0z"/><path d="M107.3 15.1c-.3 0-.6.1-.8-.2 0 .1 0 .1.1.2.1 0 .1.1.2.1.6.1 1.1.2 1.7.2.2 0 .3 0 .3-.2-.6 0-1.1-.1-1.5-.1h0z"/></g><path d="M88.3 12.4c-.1 0-.2.1-.3.1.1-.1.1-.1.3-.1zm-1 .5c.2-.3.4-.2.7-.2h.2c.2-.2.4-.1.6-.1l.7-.2h-.3c-.3-.1-.6.2-.8-.1-.1 0-.2.1-.3.1H88c-.4.1-.8.3-1.1.3-.1 0-.1 0-.2.1h.6z" fill="#f8dd50"/><g fill="#f7e163"><path d="M107.2 16.7h-.2c-.3.2-.5.3-.7.5-.3.2-.5.4-.5.7.3-.5.9-.8 1.4-1.2.1 0 .3-.1.4 0l.2-.2c-.2.2-.4.2-.6.2z"/><path d="M107.2 16.9c-.5.3-1.1.6-1.4 1.1v.2c.1-.1.2-.1.3-.2.3-.7 1-.8 1.6-1.2-.3-.1-.5 0-.5.1z"/><path d="M107 16.8h.3c.2 0 .3 0 .4-.1h-.5s-.1 0-.2.1z"/></g><path d="M103.6 17.3c-.3-.3-.8-.6-1.4-.9-.1.2-.3.2-.4.1l-.3-.3c-.1-.1-.2-.1-.1-.3-1.1-.6-2.4-1.2-3.8-1.7-.2 0-.3-.1-.4-.2 0 0-.1 0-.2 0h-.2c-.3 0-.5 0-.7-.1h-.5c-.1 0-.2.1-.2.2.4.1.8.3 1.3.3.4.3.9.4 1.4.6a1.93 1.93 0 0 1 1 .3c.4.2.8.4 1.3.5.3 0 .3.3.4.3.3.2.8.3 1.1.7.8-.1 1 .6 1.4 1 .3.3.3.1.5 0 0-.3-.1-.4-.2-.5z" fill="#fcf487"/><g fill="#eec838"><path d="M104.6 18.5c-.1 0-.2 0-.3-.1h-.1l-.1.1c0 .2.1.3.1.4.3 0 .4-.2.4-.4z"/><path d="M104.3 18.5c-.1.2-.2.3-.3.3l-.1.1c0 .2-.1.3-.2.3l.1.1c.2-.1.4-.3.6-.3-.1-.2-.1-.3-.1-.5zm.3.3c.1-.1.2-.2.2-.3-.1-.2-.3 0-.3-.1.1.1.2 0 .3.1-.1.2-.2.3-.3.4v.1c-.1 0 .1-.2.1-.2z"/><path d="M104.4 18.9c-.2.2-.3.3-.6.3.2.1.4 0 .6-.3h0z"/></g><path d="M90.2 12.1c-.2.1-.3 0-.3-.2h-.1c-.1 0-.2.1-.3.1s-.2.1-.3.1-.2 0-.2.1-.1.1 0 .1c.1.1.3 0 .3.1.3-.1.7-.1 1-.1.1 0 .2-.1.3-.1 0 0 .1 0 .1-.1.3-.1.5.1.8-.1-.5 0-.9-.2-1.3.1z" fill="#ecbe1c"/><g fill="#eec027"><path d="M107 15.4l-.3-.3h-.2l.3.3h.2c.5.6 1.1.4 1.6.3.1 0 .1-.1.1-.1s.1-.1.1-.2c-.6.3-1.2.2-1.8 0z"/><path d="M106.6 15.1h0c.1.1 0 0 0 0z"/></g><path d="M85.7 13.5h0zm2.1-.4c-.3 0-.4.1-.7.1-.1.1-.2.1-.3.1-.3.1-.8.1-1.1.3-.3 0-.5.3-.8.3v.1h.4c.1 0 .2 0 .3-.1h.1c.3-.3.7-.3 1-.3.4-.1.8-.2 1.1-.5 0 .1 0 .1 0 0 0 .1 0 .1 0 0 0 .1 0 0 0 0h0z" fill="#fdf4bb"/><g fill="#f6d64a"><path d="M106.8 15.6l-.5-.5h-.3v.2c.4-.1.4.4.7.5.3.3.8.3 1.1.5l.2-.2c-.5.2-.9.1-1.2-.5z"/><path d="M106.7 16c.3.5.7.4 1.1.5-.2-.3-.7-.3-1.1-.5.1-.1.1-.1 0 0z"/></g><g fill="#edbd20"><path d="M107.4 15.5c-.1-.1-.1-.1 0 0-.1-.1-.1-.1 0 0zm1.4 0c0-.1.2-.1.2-.2 0 0 0-.1-.1-.1-.1.1-.2.2-.3.2 0 .1.1.1.2.1h0z"/><path d="M107.5 15.4a1.93 1.93 0 0 0-1-.3v.1c.3 0 .5.2.8.3h.1c.3.2.6.2.9.1.1 0 .2-.1.3-.1.1-.1.2-.1.3-.2-.5.2-.9.3-1.4.1h0z"/><path d="M107 15.4c.6.3 1.2.3 1.8.1-.1 0-.2-.1-.2-.1-.3.2-.8.3-.9.1-.1-.1-.2-.1-.3-.1h-.1c-.2-.1-.4-.2-.6-.2.1.1.2.2.3.2zm-.4-.3h0z"/><path d="M106.7 15.2c.2.1.4.1.6.2-.3-.1-.5-.3-.8-.3l.2.1c-.1-.1 0 0 0 0zm1.9.3c-.1 0-.2 0-.3.1-.3.1-.6.1-.9-.1.1 0 .2.1.3.1.1.1.6 0 .9-.1z"/></g><g fill="#f8e873"><path d="M105.8 18.7l1-1.1-1 1.1zm0 0l1-1.1c.1-.1.2-.2.2-.3-.5.4-.9.8-1.2 1.4z"/><path d="M107.1 17.3c-.7.3-1.1.8-1.3 1.4l.1-.1c.2-.5.6-.9 1.2-1.3z"/></g><path d="M87.8 13.2c-.3.2-.7.3-1.1.3-.3.1-.8 0-1 .3.3 0 .5-.1.8-.1.6-.1 1.2-.2 1.8-.5h-.5z" fill="#fefdf2"/><g fill="#f2cd3b"><path d="M107 15.6c-.1 0-.1 0 0 0-.1-.1-.2-.1-.3-.2.3.4.8.7 1.3.8l.3-.3c-.6.3-1 .3-1.3-.3z"/><path d="M106.6 15.4h0c.2.1.2.2.3.2 0 0 .1 0 .1.1 0-.1-.1-.1-.1-.2l-.1-.1h-.2z"/><path d="M106.7 15.6c0-.1 0-.1 0 0h0l-.3-.1.3.3a1.14 1.14 0 0 0 1.3.6c-.5-.2-.9-.5-1.3-.8h0z"/><path d="M106.7 15.6h0c-.1-.1 0-.1 0 0 0-.1 0-.1 0 0z"/></g><g fill="#f0c631"><path d="M108.2 16c.1 0 .1 0 .2.1l.3-.3c-.3.2-.5.3-.8.2h.3zm-.8-.1h0z"/><path d="M107.5 15.9c.1 0 .2.1.3.1.3 0 .5-.1.8-.2-.5.1-1.1.3-1.5-.3h-.2c.2.2.3.3.6.4-.1 0 0 0 0 0h0z"/><path d="M107.7 16c-.1 0-.2 0-.3-.1l-.5-.3c.3.4.8.5 1.4.3 0-.1-.1-.1-.2-.1-.1.2-.2.2-.4.2h0z"/><path d="M107.4 15.9c-.2-.1-.4-.3-.6-.4 0 .1.1.1.1.2.2.1.3.2.5.2zm.3.1c-.1 0-.2 0-.3-.1.2.1.3.1.3.1z"/></g><g fill="#fdec7e"><path d="M84.5 13.7c-.3.1-.4.2-.7.3.2-.1.5-.2.7-.3zm1-.2h-.3c-.1.1-.2.1-.3.2h.3c.2-.2.3-.2.3-.2h0zm-.8.1c-.1 0-.2.1-.2.1.2 0 .3-.1.4-.1h-.2z"/><path d="M85.7 13.5c-.2 0-.3.1-.4.1.1-.1.3-.1.4-.1z"/><path d="M85.3 13.5c-.1.1-.3.1-.3.2v.1c.3 0 .4-.3.8-.3v-.1c-.2.1-.4.1-.5.1z"/></g><path d="M90.3 13.2h0z" fill="#fdfad1"/><path d="M91.7 11.8h0c-.3-.1-.5 0-.7-.2h-.1c-.2 0-.3.1-.4.1-.2.1-.3.1-.6.2 0 .2.2.3.3.2.4-.3.8-.1 1.2-.2.3 0 .6.1.9-.1h.1c.1-.1.2-.1.3-.1-.4.1-.7.1-1 .1h0z" fill="#eab105"/><path d="M88.4 12.4h0z" fill="#f4cf34"/><g fill="#f5dd5d"><path d="M104.8 19.2h0c-.2.2-.2.3-.3.3.2-.1.3-.2.4-.3.2-.2.3-.3.3-.4-.2.1-.2.3-.4.4zm-.3.4c-.1.1-.2.1-.3.1.1.1.1.1.1.2 0-.2.1-.3.2-.3z"/><path d="M105.4 18.5c-.1.1-.1.2-.2.3-.1.2-.2.3-.3.4s-.3.2-.4.3l-.1.1v.1c.5-.2.9-.5 1-1.2z"/><path d="M104.5 19.6l-.3.3c.1 0 .2-.1.3-.1v-.2z"/></g><g fill="#f2d551"><path d="M104.6 19.3c0-.1.1-.1.2-.1s.1-.1.1-.1c.1-.2.3-.3.3-.6v-.1c-.2.4-.4.8-.8 1h.1c0 0 0-.1.1-.1zm-.3.2c.1-.1.1-.1.2-.1a.76.76 0 0 1-.4.2v.1s.1 0 .1-.1 0-.1.1-.1z"/><path d="M105.2 18.4s0-.1 0 0c-.3.3-.4.7-.8.9v.1c.4-.3.6-.6.8-1zm-.9 1c-.1.1-.3.1-.3.3.2-.1.3-.1.4-.2v-.1c0-.1 0-.1-.1 0z"/><path d="M104.9 19h0c-.2.1-.2.2-.3.2 0 .1-.1.1-.1.2.1 0 .1-.1.2-.1l.1-.1c0 0 0-.1.1-.2zm-.6.5s-.1 0 0 0c-.1.1-.2.1-.2.2 0-.1.1-.2.2-.2z"/></g><path d="M85.1 13.6h-.2c-.2 0-.3.1-.4.1-.3.1-.4.2-.7.3.4.1.8-.1 1.2-.2l.1-.2s.1-.1.3-.1c-.2 0-.2.1-.3.1z" fill="#fced8d"/><path d="M83.8 14c-.1 0-.2.1-.3.1 0 0-.1 0-.1.1.1.1.3.1.3 0 .1 0 .2 0 .3-.1.2 0 .3-.1.4-.1.2 0 .3-.1.4-.1l.1-.1c-.2.1-.6.2-1.1.2z" fill="#feef97"/><g fill="#f2d552"><path d="M104.2 18.4h0zm-.4.5c.1-.1.1-.2.2-.2.1-.1.3-.2.3-.3l-.1.1c-.3.1-.3.4-.7.4.1.1.1.1.1.2 0-.1.1-.2.2-.2zm.4-.5h-.2c-.2.2-.4.3-.6.5.3 0 .5-.3.8-.5 0 .1 0 0 0 0zm.1.1h0z"/><path d="M104.3 18.5c-.1 0-.1 0 0 0-.2.1-.3.2-.3.2-.1 0-.1.1-.1.1v.1h.1l.1-.1c-.1-.1 0-.3.2-.3z"/></g><path d="M89.2 13c-.1 0-.3.1-.3.1-.2 0-.3.1-.4.1h.5c.2-.1.3-.1.6-.2.1 0 .2-.1.3-.1-.2 0-.5 0-.7.1z" fill="#fefdf2"/><path d="M85.1 13.6h-.2.2z" fill="#fce65b"/><path d="M85.6 13.3c-.1 0-.1 0-.2.1-.1 0-.1 0-.2.1l-.6.3c-.1 0-.2.1-.2.1.1 0 .2-.1.2-.1h.4c.1 0 .2-.1.3-.2h.3l.3-.3c-.2-.1-.2 0-.3 0z" fill="#fce767"/><g fill="#f1d049"><path d="M103.7 19s0 .1 0 0zm0 0h0c.1 0 .2-.1.2-.3-.1.2-.1.3-.2.3z"/><path d="M103.8 18.9c-.1 0-.1.1-.2.2l.2-.2c-.1.1-.1 0 0 0z"/><path d="M103.8 18.9c0 .1-.1.1-.1.2l.1-.2z"/></g><g fill="#eebe23"><path d="M93.6 11.8c.8.1 1.8-.1 2.6-.1.1 0 .2 0 .3-.1h-3.1c-.3 0-.6 0-.9.1-.1 0-.2 0-.3.1h1.4z"/><path d="M96.1 11.8h.5s.1 0 .1-.1h-.9c0 .1.2.1.3.1zm-3.1 0h-.3c.3 0 .6 0 .9-.1-.2.1-.5.1-.6.1z"/><path d="M102.8 13.1c-.2-.2-.4-.1-.7-.3l-.1-.1c-.8-.3-1.4-.6-2.3-.6-.1 0-.2-.1-.3-.2-.9 0-1.9-.3-2.9-.3l-.1.1c-.1 0-.2.1-.3.1-.8-.1-1.8.1-2.6.1-.3 0-.7-.1-.9 0h4.7c.2 0 .3-.1.4.1h.5c.1 0 .2 0 .3.1.1 0 .1.1.2.2.3 0 .5-.1.8.1.3.1.8.2 1.1.3s.4.1.6.3c.5 0 .8.4 1.4.4h.2c0 0 0-.3 0-.3z"/></g><g fill="#ebb718"><path d="M102.8 13.2c0-.1 0-.1 0 0 0-.1 0 0 0 0 .4.2.9.4 1.4.8.4 0 .7.4 1.1.4h.1l-1.8-.8c-.2-.1-.3-.1-.3-.3-.2 0-.4-.1-.5-.1z"/><path d="M103.6 13.5c.6.3 1.2.4 1.8.8h.1c-.3-.4-.8-.4-1.3-.7-.3-.2-.7-.3-.9-.4 0 .3.1.3.3.3zm-.8-.4c.2.1.3.2.5.1-.2 0-.3-.1-.5-.1zm0 0s0 .1 0 0c0 .1 0 .1 0 0zm2.9 1.3h0l-.3-.1.1.1c.2.2.3.3.6.3-.1-.2-.3-.2-.4-.3z"/><path d="M108.2 14.6c-.3.1-.5.3-.8.1-.5-.3-1.1-.6-1.8-.4 0 .1 0 .1.1.1.1.1.3.2.4.3h.2c.1 0 .2.1.2.2.3.3.6.2.8.2.4.1.9.3 1.4.1-.2-.2-.3-.4-.5-.6z"/></g><g fill="#fefde8"><path d="M104.4 17.1c-.3-.3-.6-.5-.9-.7-1.3-.8-2.6-1.5-4-2 .1 0 .2.1.3.1.1.1.2.1.3.2.6.1 1.1.4 1.6.7.8.4 1.5.8 2.2 1.4 0-.1.2 0 .5.3.2.3.4.3.8.2V17c-.4.2-.6.3-.8.1z"/><path d="M104.9 16.8c0 .4-.3.3-.4.2-.2-.2-.3-.3-.6-.5-1.3-.8-2.5-1.6-3.9-2.1-1.8-.8-3.6-1.2-5.5-1.4h-.1c.3.1.6.1.8.2h.3c.3 0 .4.1.7.2.2 0 .3.1.4.1.2 0 .3 0 .4.1.5.1 1 .3 1.5.4.2.1.3.1.4.2.2 0 .3.1.4.2 1.4.5 2.7 1.2 4 2 .3.3.6.5.9.7.4.2.6.1.7-.3z"/></g><path d="M99.8 13.6c-.3-.3-.6-.2-.8-.4-.6-.1-1.2-.3-1.8-.4-.5-.2-1-.3-1.5-.3h-.3c.1.1.1.1.2.1.1.1.3.1.3.1h.1c.4 0 .8.1 1.1.3h.1c.1 0 .3 0 .3.1.1.1.2.1.3.1s.3 0 .3.1c.2.1.4-.2.5.2.4 0 .8 0 1.2.1 0 .2.1.2.3.2-.1-.1-.2-.1-.3-.2z" fill="#fdf4c0"/><g fill="#fefdf2"><path d="M94.3 13.1c-.3 0-.8-.1-1.1 0H93c.5-.1.9-.1 1.3 0-.5-.2-1.1-.2-1.7-.1h-.3c-.5.1-.9.1-1.4.1-.7-.1-1.4.2-2.1.3 0 0-.1 0-.1.1h.8c.3-.1.5-.2.8-.2.2-.1.4-.1.7-.1h.9c.6-.1 1.1-.1 1.7-.1h.3c.2 0 .3 0 .3.1l.1-.1c.2.1.5.1.8.2-.2-.1-.5-.1-.8-.2zm-4-.3h0z"/><path d="M104.5 16.4c-.2-.1-.3-.2-.4-.3s-.3-.2-.3-.3c-.3 0-.3-.3-.5-.3-.3 0-.4-.2-.7-.3-.6-.4-1.2-.7-1.9-1-.4 0-.7-.3-1-.4-.4-.2-.8-.3-1.4-.4h-.1c-.2 0-.3 0-.3-.2-.2 0-.3.1-.4-.1-.1-.1-.2-.1-.4-.1s-.4.1-.6-.1c-1-.3-2.1-.4-3.2-.3-.8.1-1.8 0-2.6.2h-.4c-.1 0-.3.1-.3.2h-.2c-.1 0-.2.1-.3.1-.2.1-.3.1-.6.2 0 .1-.1.1-.1.2.7-.1 1.4-.3 2.1-.3.5 0 .9 0 1.4-.1h.3c.6-.1 1.2-.1 1.8 0 1.9.2 3.7.6 5.5 1.4 1.4.6 2.7 1.3 3.9 2.1.2.2.3.3.6.5.2.2.4.3.4-.2-.1-.2-.3-.3-.3-.5z"/></g><path d="M97.1 12.9h0c-.4-.2-.8-.3-1.2-.3h-.1c-.1 0-.3 0-.3-.1-.1 0-.1-.1-.2-.1H93c-.3 0-.7.1-.9.1h-1c-.1 0-.2 0-.3.1-.2 0-.3.1-.4.1h.3c.8-.2 1.8-.1 2.6-.2 1.1-.1 2.1 0 3.2.3.3.3.4.2.6.1.1.1.1.1 0 0 0 .1 0 0 0 0z" fill="#fefbe5"/><g fill="#fdf7bd"><path d="M104.4 17.3c.2.1.3.1.4.1 0-.1 0-.2.1-.3-.2.2-.4.2-.5.2z"/><path d="M104.9 17.4c-.2 0-.3 0-.4-.1-.1 0-.1-.1-.2-.1h-.1c-.2-.1-.3-.3-.3-.3h-.1v.1l.4.4c.1.1.3.2.7 0zm.1-.2c-.1.1-.2.2-.1.3.1-.2.3-.2.3-.3-.2-.1-.2 0-.2 0z"/><path d="M105 17.2c-.3.2-.6.1-.8-.3a.55.55 0 0 0-.5-.3l.1.1h.1c.1.1.2.1.3.2l.2.2h.1c.1 0 .1.1.2.1-.2.1 0 .1.3 0z"/><path d="M103.8 16.7c.2.1.3.3.3.3l-.2-.2c0 .1-.1-.1-.1-.1zm-.1 0h0zm.7.6c-.1 0-.1-.1-.2-.1.1.1.2.1.2.1zm.6-.1c0 .1 0 0 0 0h0zm0 0c0-.1 0-.1 0 0zm-1.3-.5h0c-.1 0 0 0 0 0zm-.1 0h0z"/></g><path d="M103.7 17c-.3-.2-.7-.4-1-.7-.1-.1-.3-.1-.4-.2h-.2l-.1-.1c-.1-.1-.2-.1-.3-.2s-.1-.2-.2-.3c-.9-.3-1.8-.7-2.6-1.2-.2-.1-.4-.1-.7-.2-.3 0-.4 0-.7-.1 1.4.5 2.7 1.1 3.8 1.7-.1.1.1.2.1.3l.3.3c.2.1.3.2.4-.1.7.3 1.1.7 1.4.9.1.1.3.3.3.4l.1-.1c.1-.1 0-.2-.2-.4z" fill="#fcf58c"/><path d="M104.1 17.2c-.1-.2-.3-.3-.4-.4-.7-.3-1.2-.8-1.8-1.1-.1 0-.2-.1-.3-.1-.1-.2-.3-.2-.4-.3-.6-.2-1-.5-1.6-.7-.7-.3-1.4-.4-2-.7h-.3c-.1.1-.2.1-.3 0l.8.3c.1.1.3.1.3.2.3.1.4 0 .7.2l2.6 1.2c.1.1.1.2.2.3s.2.1.3.2c0 .1 0 .1.1.2h.2c.2.1.3.1.4.2.3.3.6.5 1 .7.3.1.3.3.3.5.1.1.1.3 0 .3.1.1.1.2.1.3.3-.3.5-.4.7-.8-.2-.1-.4-.2-.6-.5h0z" fill="#fdf8a9"/><path d="M97.4 11.9h-5.1l.1.1h5.4c-.1-.2-.3-.1-.4-.1z" fill="#f2ca30"/><path d="M92.3 11.9c-.3.2-.6.1-.9.1-.3.2-.5 0-.8.1 0 0-.1 0-.1.1h1.4c.1 0 .3 0 .4-.3h0z" fill="#f3ce3a"/><g fill="#fcf3ba"><path d="M90 12.6h-.2.2zm.3-.1c.2 0 .3 0 .4-.1 0 .1-.2.1-.4.1zm.8.1h.5c-.1-.1-.3 0-.5 0zm2-.1h0z"/><path d="M95.6 12.4c-.1 0-.1 0 0 0l-.2-.2h-.3s-.1 0-.1.1h-.2s-.1 0-.1-.1h-.9c-.2 0-.3.1-.4-.1-.2.2-.4.1-.6.1h-.3c-.3 0-.6.1-.8.1s-.5.1-.8.1c-.2 0-.3 0-.4.1s-.2 0-.3 0h-.4c-.2 0-.4 0-.6.1l-.2.2c.8-.2 1.4-.3 2.2-.3h1c.3 0 .7 0 .9-.1h2.5c-.1.1-.1.1 0 0 0 .1 0 0 0 0zm-6.7.5h-.7v.1h.1c.2 0 .4.1.6-.1z"/></g><path d="M88.2 13h-.3s-.1 0-.1.1c.2 0 .3.1.4-.1h0z" fill="#fdf4bb"/><g fill="#ecbb1e"><path d="M106.2 14.7l.2.2v-.1c0-.1-.1-.1-.2-.1 0-.1 0-.1 0 0zm.2.2c0 .1 0 .1.1.2h.1c-.1 0-.1-.1-.2-.2.1.1.1.1 0 0 .1.1 0 0 0 0zm.1.1v-.2c-.1.1-.1.1 0 .2-.1-.1 0 0 0 0z"/><path d="M106.4 14.9l-.3-.3c-.3 0-.4-.1-.6-.3l-.1-.1h-.2v.1c.1.1.3.2.2.3.1 0 .2.1.3.1.3-.1.4.2.6.3.1.1.1 0 .1-.1z"/><path d="M106.1 14.7h0c.1-.1 0-.1 0 0 0-.1 0-.1 0 0z"/></g><g fill="#f5dd5d"><path d="M105.9 17.5c-.1 0-.2.1-.2.1-.1.2-.1.3-.2.5s-.2.3-.2.4c.1-.1.2-.3.3-.3-.1-.4.1-.6.3-.7h0z"/><path d="M105.6 18.1c-.1.1-.2.3-.3.3v.1c.2-.1.3-.1.3-.4 0 .1 0 0 0 0zm.1-.6c.1 0 .2 0 .2-.1.1-.1.2-.1.3-.2.3-.3.7-.5 1-.7-.3 0-.5.1-.7.3-.3.4-.5.5-.8.7z"/><path d="M105.9 17.5c-.2.2-.3.3-.3.6 0 0 0-.1.1-.1.1-.3.3-.5.5-.7.3-.2.5-.3.7-.5-.2.1-.3.2-.6.3a.78.78 0 0 1-.4.4z"/><path d="M105.6 18.1h0c.1-.1.1 0 0 0zm.5-.8c-.1.1-.2.1-.3.2.2-.1.3-.3.5-.4.2-.2.3-.3.6-.3.1-.1.2-.1.3-.2-.4.1-.7.4-1.1.7z"/></g><g fill="#f9df58"><path d="M105.6 16.3c0-.2.2-.2.3-.1.3.1.6-.1.8-.3-.3 0-.4-.3-.6-.5.2.2.3.3.2.5-.2.3-.4.3-.7.1s-.6-.1-.8-.4c0 .1 0 .3-.2.3.1.2.3.3.4.3.3.1.3.3.3.5v.1c0 .2-.1.3-.1.3.4-.1.3-.4.4-.8.1.1 0 .1 0 0z"/><path d="M105.9 16.2c-.1 0-.3 0-.3.1.1-.1.2-.1.3-.1.3.2.8-.1.8-.3-.1.3-.5.4-.8.3zm-.6 1.1c.1-.1.1-.3.1-.3v-.1s0 .1-.1.1v.3z"/><path d="M106.1 15.5c.3.2.3.5.6.5-.2-.2-.2-.6-.6-.5z"/></g><g fill="#f5d950"><path d="M105.7 17.2c-.1.1-.1.2 0 .3 0-.2.1-.3.2-.3.3-.3.3-.6-.2-.8.2.3.4.5 0 .8z"/><path d="M105.7 16.4c-.2.3-.1.6-.3.8.3-.2.3-.5.3-.8z"/></g><path d="M99.3 14.4s-.1 0 0 0c-.1-.1-.1 0 0 0zm-.3-.3c.2.1.3.1.4.2-.1-.1-.3-.1-.4-.2z" fill="#fdfac4"/><path d="M95.2 13.3h0z" fill="#fdf9c3"/><path d="M99.6 14.4c-.1 0-.2-.1-.3-.1-.2-.1-.3-.1-.4-.2s-.3-.1-.4-.1c-.5-.2-1-.3-1.5-.4-.2 0-.3-.1-.4-.1s-.3-.1-.4-.1l-.7-.2h-.3c-.3 0-.6-.1-.8-.1h-.2c-.1-.1-.2-.1-.3-.1h-.8c-.4 0-.8 0-1.2.1h-.1c-.3 0-.6.1-.8 0h-.7c-.3.1-.5.2-.8.2H92c.6 0 1.3-.1 1.9-.1.5 0 1.1.1 1.6.2l1.7.3c.1.1.2.1.3 0h.3c.6.3 1.2.4 1.8.7h.2c0 .1-.1.1-.2 0zm-1.1-.3l-.8-.3c.1 0 .2.1.3.1.4.1.8.3 1.3.4-.3-.1-.6-.1-.8-.2z" fill="#fef9c2"/><g fill="#f3d751"><path d="M104.4 18.4c.1 0 .1-.1.1-.2l-.1.2c-.1 0-.1 0 0 0-.1 0 0 0 0 0zm.4-.5c.1-.2.3-.3.4-.5.1-.1.2-.2.3-.2h-.2c-.2.3-.4.6-.7.8.1.1.2 0 .2-.1z"/><path d="M105.2 17.5c-.1.2-.3.3-.4.5 0 .1-.1.1-.2.2s-.1.2-.2.2v.2c.3-.4.6-.7.8-1.1.2-.1.2-.2.3-.2h-.1c-.1 0-.2 0-.2.2z"/><path d="M104.3 18.4l.2-.2c.1-.1.1-.2.2-.2.3-.3.5-.6.7-.8h-.1c-.4.4-.7.9-1 1.2-.1 0-.1 0 0 0-.1 0 0 0 0 0zm-.1 0h0c-.1 0 0 0 0 0z"/><path d="M104.6 18.1c-.1.1-.2.1-.2.2.1-.1.2-.1.2-.2zm-.2.3s-.1 0 0 0zm-.1 0s-.1 0 0 0c-.1 0-.1 0 0 0-.1 0-.1 0 0 0zm-.2 0h.2v-.1c-.1.1-.2.1-.2.1zm.2 0h0zm1.1-1.1s-.1 0 0 0c-.1 0-.1 0 0 0zm0 0h0zm.1 0zm-.1.7h0c-.1 0-.2.1-.2.3v.1c.1-.1.1-.3.2-.4z"/><path d="M105.2 18.3c0-.2.1-.3.2-.3v-.2c-.2.1-.3.3-.3.4s.1.1.1.1zm0 0s0 .1 0 0c0 .1 0 .1 0 0 0 .1 0 .1 0 0z"/><path d="M105.2 18.3h0c-.1 0-.1.1 0 0 0 .1 0 .1 0 0zm.2-.3c.1 0 .1-.1 0 0 .1-.1.1-.1 0 0 .1-.1 0-.1 0 0z"/><path d="M105.4 17.9h0v-.2.2zm.1.1c0-.1 0 0 0 0-.1 0-.1 0 0 0-.1 0-.1 0 0 0-.1 0-.1 0 0 0z"/></g><g fill="#fce65f"><path d="M105 16.3c-.2-.1-.3-.1-.3-.3-.3-.1-.3-.3-.6-.5-.1 0-.1-.2 0-.2.1-.1.2-.1.3 0a1.38 1.38 0 0 1 .4.3h.1c-.1-.1-.1-.2-.2-.3-.2 0-.3-.2-.4-.3-.2 0-.3 0-.3-.2a.55.55 0 0 1-.5-.3c-.1-.1-.2-.1-.3-.2-.1 0-.3 0-.3.2 0 .1.1.2.2.3s.2.2.2.3c.3.4.8.4 1.1.8.2.2.3.3.5.4 0-.1 0-.1.1 0z"/><path d="M105.3 16.6l-.3-.3c-.1 0-.1-.1-.2-.1h-.2a.9.9 0 0 1 .6.6c.2-.1.2-.1.1-.2z"/><path d="M105.1 16.3c-.2-.1-.3-.2-.4-.3 0 .2.2.3.3.3.2 0 .3.1.3.3 0 .1.1.1.1.2.1-.2 0-.4-.3-.5z"/><path d="M105 16.3c.1 0 .1 0 .2.1s.2.1.2.2c-.2-.2-.3-.3-.4-.3zm.3.3c0 .1.1.2 0 .3 0-.1 0-.1.1-.1 0-.1 0-.1-.1-.2z"/></g><g fill="#fced9e"><path d="M104.8 16.3c-.1 0-.2-.1-.3-.1 0 .1.1.1.1.2.1 0 .1.1.2.1v-.2zm0 .1c.1.1.1.2.2.3 0-.2-.1-.3-.2-.3 0-.1 0 0 0 0z"/><path d="M104.8 16.6s0-.1 0 0c-.2-.2-.2-.2-.3-.2v.1c.2-.1.2 0 .3.1zm0-.2s0 .1 0 0c.2.1.2.2.3.2-.2 0-.3-.1-.3-.2zm-.5-.4c-.1 0-.2-.1-.3-.1.2.1.3.3.4.3s.1 0-.1-.2c.1.1 0 0 0 0zm.3.4c0-.1 0-.1 0 0-.1-.1-.1-.1 0 0-.1-.1-.1-.1 0 0zm-.6-.5c0 .1 0 .1 0 0 0 .1 0 .1 0 0 0 .1 0 0 0 0z"/><path d="M104.2 15.9h0c.2.1.3.2.3.3.1.1.2.1.3.1-.2-.1-.3-.3-.6-.4h0c-.1-.1 0-.1 0 0z"/><path d="M104.3 16l.2.2c0-.1-.1-.2-.2-.2z"/></g><path d="M89.7 12.7h.2c-.2-.1-.2-.1-.2 0z" fill="#f9e17b"/><path d="M89.3 12.4c-.1 0-.3 0-.3-.1v-.1h-.1c-.2.1-.3.1-.5.2h-.1c.3.3.5.1.8.1l.2-.1c.3.1.7 0 .9-.1h.1v-.1c-.3.1-.6 0-1 .2z" fill="#f3ce3a"/><g fill="#f9df66"><path d="M87.3 12.9c.2-.2.4-.1.7-.2-.3.1-.5-.1-.7.2z"/><path d="M87.3 12.9c.2-.1.5 0 .7-.2-.2.2-.5 0-.7.2zm3.6-.5h-.6c-.3.1-.6.2-.8.2-.2.2-.4.1-.7.2-.2 0-.4-.1-.6.1H88c-.2.2-.4.1-.7.2h-.7c-.3.1-.5.2-.7.3h.4c.2-.2.4-.1.7-.1h.3c.3-.1.5-.2.8-.2h.3s0-.1.1-.1v-.1h.8c.2-.1.4-.1.6-.1h.3c.1-.2.3-.1.4-.1-.1-.3.1-.3.3-.3-.1 0-.1 0 0 0z"/></g><g fill="#f1d049"><path d="M103.9 18.8c.2 0 .3-.1.3-.3l-.3.3z"/><path d="M104.3 18.5c-.2 0-.3.1-.3.3 0-.1.1-.2.3-.3z"/></g><path d="M100.1 12.5c-.5 0-.9-.2-1.4-.3s-1-.1-1.4-.1c-.2 0-.3 0-.6-.1-.3 0-.4 0-.7-.1h-3.5a.76.76 0 0 1-.4.2h-1.4c-.1 0-.2.1-.3.1v.1h1c.3 0 .5-.1.7-.1h.3c.3-.1.5 0 .8-.1h1.4c.9-.1 1.9.1 2.8.3.6-.1 1.2 0 1.6.2.5.2.9-.1 1.4.2h.6c-.4-.1-.6-.3-.9-.3z" fill="#f8db4e"/><g fill="#f0c631"><path d="M106 15c.1.1.3.2.3.3h.1c.1 0 .2.1.3.2v-.3l-.7-.2zm.5.1z"/><path d="M106.6 15.3s0 .1 0 0c0 .1 0 .1 0 0 .1.1.2.1.3.1l-.3-.3v.2z"/><path d="M106.6 15.4h0c-.1-.2-.2-.3-.3-.3h-.1l.1.1c.1.1.2.2.3.2z"/><path d="M106.6 15.4s0-.1 0 0c0-.1 0 0 0 0zm-.1-.3h0zm.1 0c-.1 0-.1 0 0 0zm0 .3h0zm0 0h0zm-.6-.4c.2.1.3.3.5.2-.2-.1-.4-.3-.5-.2h0z"/></g><path d="M87.1 13.2h-.8l-.2.2c-.2.1-.3 0-.4.1v.1c.3-.1.8-.1 1.1-.3.2 0 .2 0 .3-.1z" fill="#fdefa0"/><g fill="#f4cf3d"><path d="M106.1 15.1c0 .1 0 .1 0 0 0 .1 0 .1 0 0h.2c-.2-.1-.3-.1-.3-.3-.1 0-.2-.1-.3-.2-.1.4.2.4.4.5z"/><path d="M106.1 15.2h.3c-.1 0-.2-.1-.3 0zm-.6-.4c.1.1.2.1.3.2v-.1c0-.1-.1-.1-.3-.1 0-.1 0-.1 0 0 0-.1 0 0 0 0zm.7.3h0c0-.1-.2-.2-.3-.3h-.1a.37.37 0 0 0 .4.3z"/><path d="M106.4 15.2c-.1 0-.1 0 0 0-.1-.1-.1-.1-.2-.1.1.1.1.1.2.1zm-.4-.2h0c-.1-.1-.1-.1 0 0z"/></g><g fill="#f9df58"><path d="M106 15.2s-.1 0 0 0h0l.2.2v-.2c-.1.1-.2 0-.2 0zm.1.2v-.2.2z"/><path d="M105.9 15.1c0 .1.1.1 0 0 .1.1.2.1.2.1l-.2-.1zm.2.1z"/></g><path d="M85.9 13.2c-.1 0-.1 0 0 0-.1 0-.1 0 0 0h0l-.3.2-.1.1h.2c.1-.1.3-.1.4-.1 0 0 .1 0 .1-.1l.1-.1h-.4z" fill="#fcea7b"/><path d="M105.3 18.5h0zm0 0c0 .1-.1.2-.1.3 0-.1.1-.2.1-.3h0zm.1 0c0-.1 0 0 0 0zm.3.2h0zm0-2.3c0 .3 0 .7-.3.8.1 0 .1 0 .1.1 0 .2-.1.3-.1.5v.2h-.1c-.1.1-.1.3-.2.3 0 0 0 .1-.1.1-.1.3-.2.4-.3.6 0 .1-.1.1-.1.2.2-.1.3-.3.4-.4s.1-.2.1-.3c0-.2.1-.3.2-.4.1-.2.1-.3.2-.5-.1-.1-.1-.3 0-.3.6-.4.4-.6.2-.9zm-1.2 3c-.2.1-.2.1-.3.2-.1 0-.1.1-.2.1.1 0 .3 0 .3-.1l.2-.2c.1 0 .2-.1.2-.2l-.2.2z" fill="#f3db5c"/><path d="M87 13.1c-.3 0-.4-.1-.7.1h.8c0-.1-.1-.1-.1-.1z" fill="#fcea7b"/><g fill="#e9b311"><path d="M102.8 13.1c-.2-.4-.5-.3-.8-.3.3.1.6 0 .8.3zm-.7-.2c.2.2.4.1.7.3-.2-.3-.5-.3-.7-.3z"/><path d="M102.8 13.1c-.2-.3-.5-.2-.8-.3 0 .1.1.1.1.1.2 0 .5 0 .7.2zm0 0z"/></g><path d="M97.9 12.1h.4c-.2 0-.4-.1-.4 0-.1-.1-.1-.1 0 0-.1-.1-.1 0 0 0zm-2.1-.1h.2a1.7 1.7 0 0 0 .7.1h1s.1 0 .1-.1c0 0 .1 0 .1-.1-.7.1-1.4.1-2.1.1z" fill="#f3ce3a"/><path d="M104 13.9c.1 0 .1.1.2.1-.1-.1-.1-.1-.2-.1h0z" fill="#f4d141"/><g fill="#efc229"><path d="M102.8 13.2c0 .1.2.2.3.2-.2-.1-.3-.1-.3-.2zm0 0h-.2.2z"/><path d="M104.1 13.9h.2c-.5-.3-1-.5-1.5-.7.1.1.2.1.3.2a4.67 4.67 0 0 1 1 .5zm-1.1-.5c-.1 0-.2-.1-.3-.1.4.3.8.4 1.4.6-.1 0-1.1-.5-1.1-.5zm-.3-.2s-.1 0 0 0c-.1 0 0 0 0 0 0 .1 0 .1 0 0z"/></g><path d="M98.6 12c-.1 0-.2 0-.3-.1-.2 0-.3.1-.5 0 .1.1.3.1.4.1h.6c-.1.1-.2 0-.2 0zm2 .5c-.3-.1-.8-.2-1.1-.3-.3-.2-.5-.1-.8-.1h-1.1s-.1 0-.1.1h-1c.2 0 .3 0 .6.1.5.1 1 .1 1.4.1.4.1.9.3 1.4.3.3 0 .7.2 1 .3h.3c-.1-.4-.4-.5-.6-.5z" fill="#f2ca30"/><g fill="#efc229"><path d="M105.4 14.4s0-.1 0 0c-.4-.1-.8-.5-1.1-.5h-.1c.1 0 .2.1.3.2s.1.2.1.3h.1c.3 0 .6.2.8.4h.1c0-.3-.1-.3-.2-.4zm-1.2-.5h0z"/><path d="M104.5 14c-.1-.1-.2-.1-.3-.2h-.2c-.3-.2-.8-.3-1.1-.5l1 .5h.2a.78.78 0 0 1 .4.4c.1 0 0-.1 0-.2z"/></g><path d="M103.6 16.7c-.7-.7-1.4-1-2.2-1.4-.5-.3-1-.6-1.6-.7h-.2c.5.2 1 .5 1.6.7.1.2.3.2.4.3.1 0 .2.1.3.1.6.4 1.1.9 1.7 1h0zm-3.9-2.1c0-.1 0-.1 0 0h0z" fill="#fcf9c1"/><g fill="#fdef90"><path d="M98.5 12.9c-.4-.2-.9-.1-1.4-.4h-.6l.9.3c.5.2 1 .3 1.4.3.1-.2-.1-.2-.3-.2z"/><path d="M99 13.1c-.5-.2-1-.3-1.5-.3l-.9-.3c-.2 0-.4 0-.6-.1-.1 0-.2-.1-.3-.1h-.3l.1.1h.1c.5 0 1 .1 1.5.3.6.2 1.2.3 1.8.4.1.1.1.1.1 0z"/></g><path d="M103.9 15.6l.2.2-.2-.2z" fill="#fced8c"/><path d="M105 16.7c-.1 0-.1-.1-.2-.1-.1-.1-.2-.1-.2-.2 0 0-.1 0-.1-.1-.2-.1-.3-.3-.4-.3h-.1c-.1-.1-.3-.3-.4-.3h-.1v-.1l-.1-.1c-.1-.1-.1-.1-.2-.1s-.1-.1-.2-.1c-.5-.3-1-.5-1.4-.8-.2 0-.3 0-.4-.2-.3-.2-.8-.3-1.1-.4-.1 0-.1 0-.2-.1h-.2l.3.2c.2.1.3.1.4.2 0 .1.1.1.1.1.1.1.1.1.2.1v.1c.7.3 1.3.6 1.9 1 .2.2.4.3.7.3.2.1.3.3.5.3.1.1.3.2.3.3.2.1.3.2.4.3.1.2.3.3.4.4l.1.1v.3s.1 0 .1-.1c0-.5-.1-.7-.1-.7h0z" fill="#fced9e"/><path d="M92.4 12.3h-.3c-.3 0-.5 0-.7.1h-.5s-.1 0-.1.1c-.2.1-.3 0-.4.1h.3c.3 0 .5 0 .8-.1.4-.1.6-.1.9-.2 0 .1 0 0 0 0z" fill="#fae88c"/><path d="M89 12.8c-.1 0-.1 0 0 0h-.7v.1s0 .1-.1.1H88c-.3 0-.5.1-.8.2h-.1c.3 0 .4-.1.7-.1l.1-.1h.3v-.1h.7s.1 0 .1-.1z" fill="#fdefa0"/><path d="M92.7 12.4c.2 0 .4.1.6-.1-.2 0-.3-.1-.6.1z" fill="#fbe98d"/><path d="M90 12.6h.3s.1 0 .1-.1c-.1 0-.3-.1-.4.1z" fill="#fae88c"/><path d="M95.6 12.3c-.2-.1-.3 0-.5 0s-.3.1-.4-.1h-1.4c-.3 0-.6-.1-.8.1h-.1l.1.1h.3c.2-.2.4-.1.6-.1.1.2.3.1.4.1h1.6c0 0 .1 0 .2-.1 0 .1.1.1 0 0h0z" fill="#fdef90"/><g fill="#fbe45f"><path d="M104.9 15.6l.8.3c.2.1.3.2.5 0s-.1-.3-.1-.5v-.1c-.2 0-.3-.1-.3-.3-.2 0-.3-.1-.3-.2h-.2v.1c.3 0 .4.3.6.4.1.1.1.2 0 .3s-.3.1-.4.1c-.3-.2-.5-.2-.8-.3h-.1c.2.2.2.2.3.2zm1.2-.2z"/><path d="M106.1 15.5c.1.2.3.3.1.5s-.3.1-.5 0c-.3-.1-.5-.3-.8-.3.2.3.6.3.8.4.3.2.5.2.7-.1.1-.3-.1-.4-.3-.5zm0 0c0-.1 0-.1 0 0zm-1.2.1s0-.1 0 0c0-.1 0-.1 0 0h0c-.1 0 0 0 0 0zm1-.5c0 .2.1.3.3.3-.2-.1-.3-.1-.3-.3zm.2.3z"/></g><g fill="#fbe24f"><path d="M104.7 15.9c.2 0 .2-.1.2-.3-.1.1-.2.2-.2.3z"/><path d="M104.8 15.6c-.2-.2-.3-.3-.4-.3-.1-.1-.2-.1-.3 0s-.1.2 0 .2c.3.2.3.5.6.5 0-.2.1-.3.1-.4zm-.1.3s0 .1 0 0zm.2-.3c-.1 0-.1 0 0 0z"/></g><path d="M105.4 15.1s-.1 0 0 0c-.1 0 0 0 0 0z" fill="#fdec6c"/><g fill="#fdea6a"><path d="M105.5 15.6c.1.1.2.1.3 0s0-.2-.1-.3l-.3-.3c0 .1 0 .1-.1.2s-.3.2-.3.1c-.1 0-.1-.1-.2-.1v.2c.3 0 .5.2.7.2zm-.6-.2c-.1-.1-.1-.1-.2-.1.1.1.1.2.2.3v-.2z"/><path d="M106 15.8c.1-.1.1-.3 0-.3-.3-.1-.3-.4-.6-.4.1.1.1.1.1.2l.3.3c.1.1.2.1.1.3-.1.1-.2 0-.3 0-.3-.2-.4-.3-.7-.2.3.1.5.1.8.3 0-.1.2-.1.3-.2z"/><path d="M105.4 15.4c.1-.1.1-.1.1-.2h-.1l-.1-.1c0 .3-.2.3-.3.3s-.1-.1-.2-.1l.1.1c.1 0 .1.1.2.1 0 .1.2 0 .3-.1z"/><path d="M104.8 15.3h0s0 .1 0 0h0zm.6-.2c0 .1.1.1 0 0h0z"/></g><g fill="#fde964"><path d="M103.2 14.3c-.3.1-.4.2-.3.4l.3.3c0-.1-.1-.2-.2-.3s-.2-.1-.2-.3c.1 0 .3 0 .4-.1 0 .1 0 .1 0 0zm-1.2 0c.3.3.7.4 1 .6 0 0 0-.1-.1-.1 0 0 0-.1-.1-.1-.1-.2-.5-.2-.8-.4h0z"/><path d="M102.9 14.8c0 .1.1.1 0 0 .1.1.2.2.3.2-.1-.1-.2-.2-.3-.2zm.2-.6h0c.1.1.1.1 0 0h0zm.1.1c0 .1 0 .1 0 0 0 .1 0 .1 0 0zm.4.3c.1.1.2.1.3.1-.1-.1-.2-.1-.3-.1zm.7.4c-.1-.1-.3-.1-.3-.2 0 .2.1.2.3.2zm-.3-.2c.1 0 .1.1.2.1 0 0-.1-.1-.2-.1z"/><path d="M104.7 15.2c-.2-.1-.3-.2-.4-.3h-.1c-.1 0-.1-.1-.2-.1h-.1s-.1 0-.1-.1c-.1 0-.2-.1-.3-.1s-.1 0-.2-.1a.55.55 0 0 0 .5.3c.1.1.3.1.3.2.3.1.4.2.6.2 0 0 .1.1 0 0h0z"/></g><path d="M102 14.2h-.2v.1c.1 0 .1 0 .2-.1 0 .1 0 .1 0 0z" fill="#fde963"/><path d="M100.4 12.8c-.4-.3-.9 0-1.4-.2s-1.1-.3-1.6-.2v.1c.4.2.8.3 1.3.3.2 0 .4-.1.5.3 0 .1.1.1.1.1h.2c.1 0 .2-.1.2-.2s.1-.1.1-.2h.2c.1 0 .1.1.4 0h0c.2.1.1.1 0 0h0z" fill="#fde864"/><path d="M101.4 13c.3.3.8.3 1.2.5h.2c-.5-.3-1-.3-1.4-.5 0-.1-.1-.1 0 0-.1-.1 0-.1 0 0z" fill="#f8de55"/><g fill="#f6d64a"><path d="M105.9 15.1c-.1 0-.1-.1-.2-.1 0 .1.1.1.2.1-.1 0-.1 0 0 0zm-.4-.4h0c0 .1 0 .2.1.2h.1c.1 0 .1.1.2.1-.4 0-.4-.1-.4-.3 0 0 0 .1 0 0z"/><path d="M105.6 15.1h0c.1.1.2.1.2.1h.2c-.2-.2-.4-.2-.5-.4 0 .1 0 .2.1.3zm.2 0h0zm.1 0h0zm-.4-.4z"/><path d="M105.7 15.1c-.1-.1-.1-.1-.2-.1h-.1v.1c.1.1.2.2.3.2.1-.2 0-.2 0-.2zm.1 0h0z"/></g><path d="M104.6 14.3c-.1-.2-.3-.3-.4-.4-.1 0-.1-.1-.2-.1-.4-.2-.9-.3-1.4-.6 0 0-.1 0-.1-.1-.5 0-.8-.4-1.4-.4h-.2c.1.1.1.1.2.1h.1c.4.3.9.3 1.4.6.8.2 1.3.8 2 .9z" fill="#f5d445"/><g fill="#f9df59"><path d="M105.4 14.7c-.3-.1-.4-.2-.6-.3l-.1-.1h-.3a1.38 1.38 0 0 1 .4.3c.1.1.2.1.2.2.2.1.3.2.4.3h.1c-.1-.2-.2-.2-.1-.4z"/><path d="M105.4 15h0zm-.8-.7c-.7-.1-1.2-.7-1.9-.8 0 0-.1 0-.1.1h.1c.3.1.4.2.7.3.2.1.3.2.4.3.2.1.3.2.4.2.2 0 .3 0 .4-.1z"/><path d="M102.7 13.6c0-.1.1-.1 0 0 0-.1-.1-.1 0 0-.1-.1 0-.1 0 0zm2.7 1.1c0 .1 0 .2.1.2 0 0-.1-.1-.1-.2zm.1.3z"/></g><path d="M105.4 14.7h0zm0 0h0zm-.7-.4s0 .1 0 0c.3.3.5.3.7.4h.2c-.3-.2-.6-.4-.9-.4z" fill="#f4cf3d"/><g fill="#feed71"><path d="M100.1 12.8c-.1-.1-.2-.1-.3 0-.1 0-.1.1-.1.2-.1.1-.1.2-.2.2h.1c.2.1.3.2.4.3.1 0 .1.1.2.2h.2c-.5-.4-.6-.5-.3-.9z"/><path d="M100.2 13.5c-.1-.1-.2-.1-.2-.2-.2-.1-.3-.2-.4-.3h-.3c-.1 0-.1-.1-.1-.1-.2-.3-.3-.3-.5-.3-.4 0-.8-.1-1.3-.3h-.3c.4.3.9.3 1.4.4.2.1.3 0 .4.2v.1h.1c.5.2.8.5 1.2.5-.1 0 0 0 0 0z"/></g><g fill="#fbea85"><path d="M95.7 12.4c.1 0 .2.1.3.1.2 0 .4 0 .6.1h.1c-.4-.2-.7-.2-1-.2z"/><path d="M94.6 12.2c.1.2.3.1.4.1h.5s.1 0 .1.1c.3.1.7 0 1 .2h.8v-.1c-.9-.3-1.8-.4-2.8-.3z"/></g><path d="M104.2 15.9h0c-.1-.1 0-.1 0 0-.2-.5-.8-.5-1-.9-.1 0-.1-.1-.2-.1-.3-.2-.8-.3-1-.6h-.2v-.1c-.1-.1-.2-.3-.3-.3-.4 0-.8-.4-1.2-.4h-.2c-.3-.1-.7-.3-1-.3H99c.3.3.6.2.8.4h.2c.1 0 .1 0 .2.1.3.2.8.3 1.1.4.1.2.3.2.4.2.4.3.9.7 1.4.8.1 0 .1.1.2.1s.1.1.2.1l.1.1v.1h.1c.2.1.3.1.5.4h0c.2-.1.3-.1.3 0-.2.1-.2 0-.3 0z" fill="#fced8c"/><g fill="#fdea6a"><path d="M105.4 15h-.2c0 .1.1.1.2 0-.1.1 0 .1 0 0z"/><path d="M105.4 15.1h0s-.1 0 0 0c-.1 0 0 0 0 0zm-.1 0c-.1 0-.1-.1 0 0-.3-.1-.4-.3-.6-.4.2.2.3.4.6.4zm0 0h0z"/></g><path d="M104.9 14.8c-.1-.1-.2-.1-.2-.2-.1-.1-.3-.2-.4-.3-.2 0-.3-.1-.4-.2-.2-.1-.3-.2-.4-.3-.3-.1-.4-.2-.7-.3h-.1s-.1 0-.1-.1c-.4-.2-.8-.3-1.2-.5l-.1-.1c-.1 0-.2-.1-.2-.1h-.7c.1.1.1.1.2.1.2.1.3 0 .5.2.5.1.9.3 1.4.5l.1.1c.3.2.5.3.8.3.1 0 .1 0 .2.1.3.5.8.6 1.3.8.1.2.3.4.4.4h.2c-.3-.3-.5-.4-.6-.4z" fill="#fdeb69"/><g fill="#fde658"><path d="M102.1 14.3c-.1 0-.1 0 0 0-.1 0-.1 0 0 0-.1 0-.1 0 0 0-.1 0-.1 0 0 0-.1 0-.1 0 0 0zm1.1 0h0c-.3-.1-.4-.2-.7-.2-.1.1-.3 0-.3.1.3.2.6.3.8.4-.2-.1-.2-.2.2-.3zm-1.1 0c-.1 0-.1 0 0 0-.1 0 0 0 0 0zm-.1 0c0-.1 0-.1 0 0z"/><path d="M102.4 14.1h0l-.2-.2c-.1-.1-.1-.1-.1-.2h-.1c-.3.2-.2.3 0 .4s.3.1.4 0z"/><path d="M102.3 14.1h0z"/></g><g fill="#fde963"><path d="M102.3 14h0z"/><path d="M105.3 15.1c-.3 0-.5-.2-.7-.4-.4-.3-.8-.4-1.2-.7-.1 0-.1 0-.2-.1l-.8-.3-.1-.1c-.4-.2-.9-.4-1.4-.5-.2-.1-.3-.1-.5-.2h-.2c-.2 0-.3-.1-.4-.1-.3.3-.2.4.3.8.4 0 .8.4 1.2.4.1 0 .2.1.3.3h.2c-.1-.2-.3-.3 0-.4h.1c0 .1.1.1.1.2l.2.2c.3 0 .4.1.7.1h.1v.2c.1.1.2.1.3.2.1 0 .1 0 .2.1.1 0 .2.1.3.1 0 0 .1 0 .1.1h.1c.1 0 .1 0 .2.1h.1c.2.1.3.2.4.3 0 0 .1 0 .1.1.1 0 .2.1.2.1.2-.1.4-.2.3-.5h0z"/></g><circle cx="106.6" cy="17.8" r="3.4" fill="#fff"/><path d="M109.8 18.6c.1-.3.2-.6.2-.9 0-.2 0-.3-.1-.5l-.9-.3-.6-.8.1-1c-.4-.3-.8-.4-1.3-.5l-.7.8-1 .3-.9-.3c-.3.3-.7.7-.8 1.1l.5.8v1l-.6.8c.2.4.4.8.8 1.2l.9-.3.9.3.5.8c.5 0 .9-.2 1.4-.3l.1-.9.6-.8.9-.5zm-2.6-2.3l1.2-.3.6.8-.8 1h-.5l-.7-.9.1-.2c0 0 .1-.4.1-.4zm-.1 2.9l-.1-.4.7-1h.5l.7 1-.6.8c0-.1-1.2-.4-1.2-.4zm-.6-3.9l.7 1-.1.3-.1.2-1.2.4-.3-.3.1-1.2c-.1-.1.9-.4.9-.4zm-1.1 1.5l.3.3v1.2l-.3.3-1.1-.4v-1l1.1-.4zm-.1 3l.1-1.2.3-.3 1.2.3.1.4-.8.9c0 .1-.9-.1-.9-.1z" fill="#1f1a17"/></svg>