<svg xmlns="http://www.w3.org/2000/svg" width="20" height="20" viewBox="0 0 20 20">
  <g id="Icon_Transfer" data-name="Icon/Transfer" transform="translate(0)">
    <g id="icon_Transfer-2" data-name="icon/Transfer">
      <path id="icon_Transfer-3" data-name="icon/Transfer" d="M14.745,18H7.206v-.01H5.266a1.585,1.585,0,0,1-1.577-1.584V3.18H16.322V16.416A1.585,1.585,0,0,1,14.745,18ZM7.154,11.455l0,0a.58.58,0,0,0,0,1.161H9.387v1.664c0,.23.265.425.578.425s.578-.195.578-.425V12.618h2.234a.581.581,0,0,0,0-1.162H10.543v-.58h2.281v-.007a.581.581,0,0,0,0-1.162H10.513l2.116-2.171a.562.562,0,0,0,.028-.789l-.028-.029a.558.558,0,0,0-.407-.177.551.551,0,0,0-.379.15l-.027.027L10.005,8.631l-1.851-1.9a.558.558,0,0,0-.407-.177.551.551,0,0,0-.379.15l-.027.027a.61.61,0,0,0-.135.2.537.537,0,0,0,0,.41.6.6,0,0,0,.135.2L9.456,9.713h-2.3a.581.581,0,0,0,0,1.162H9.387v.581ZM2.628,5.292H1.568A1.578,1.578,0,0,1,0,3.707V1.562A1.574,1.574,0,0,1,1.565,0h16.9A1.562,1.562,0,0,1,20,1.581V3.712a1.579,1.579,0,0,1-1.572,1.576H17.373V2.109H2.628V5.291Z" transform="translate(0 1)" fill="#0c186c"/>
    </g>
  </g>
</svg>
