<svg id="Layer_1" data-name="Layer 1" xmlns="http://www.w3.org/2000/svg" viewBox="0 0 100 52">
    <defs>
        <style>
            .cls-1 {
                fill: #fff;
            }

            .cls-2 {
                fill: #ff9200;
            }
        </style>
    </defs>
    <title>AllBrand_Logo_SVG</title>
    <path class="cls-1 invert" d="M40.4846,20.81917h3.524V36.23666h6.6715V15.76334H40.4846Z" />
    <path class="cls-1 invert" d="M53.45058,15.76334v5.05583h8.29358L53.82684,36.23666H60.7666l7.715-15.542V15.76334Z" />
    <path class="cls-1 invert" d="M71.45633,20.81917h3.524V36.23666h6.6715V15.76334H71.45633Z" />
    <path class="cls-1 invert" d="M84.969,15.76334v5.05583h8.29359L85.34519,36.23666H92.285L100,20.69465V15.76334Z" />
    <polygon class="cls-2" points="37.695 35.876 37.695 26.912 32.158 35.876 37.695 35.876" />
    <polygon class="cls-2"
        points="8.863 16.124 8.863 20.542 11.519 20.542 11.519 23.566 5.023 23.566 5.023 16.124 0 16.124 0 35.848 5.023 35.848 5.023 27.958 11.519 27.958 11.519 35.848 16.542 35.848 16.542 20.542 16.542 16.124 11.519 16.124 8.863 16.124" />
    <path class="cls-2"
        d="M33.05859,24.64478H26.66772v3.89227h3.73462l-2.07776,3.02447q-.13184,0-.26293.01313a2.831,2.831,0,0,1-.28931.01318A4.88957,4.88957,0,0,1,23.972,29.89154a5.599,5.599,0,0,1-1.03875-1.81464,6.51687,6.51687,0,0,1-.36823-2.1961,5.95676,5.95676,0,0,1,.38129-2.11713,5.41243,5.41243,0,0,1,1.06518-1.76208,5.12742,5.12742,0,0,1,1.64374-1.19654,4.95353,4.95353,0,0,1,2.11713-.44708,4.6286,4.6286,0,0,1,2.41955.64423,4.982,4.982,0,0,1,1.762,1.82782H37.3717a8.35174,8.35174,0,0,0-1.28875-2.63,9.05037,9.05037,0,0,0-1.61731-1.70941,10.49988,10.49988,0,0,0-4.22119-2.09088,10.0549,10.0549,0,0,0-2.34058-.27606,10.69252,10.69252,0,0,0-3.945.72314A10.10047,10.10047,0,0,0,20.72406,18.872a9.43356,9.43356,0,0,0-2.99823,7.00879,9.82,9.82,0,0,0,2.2356,6.29883,10.15745,10.15745,0,0,0,2.48523,2.16967,9.7649,9.7649,0,0,0,3.14282,1.26233,10.03508,10.03508,0,0,0,2.20917.23676A10.86291,10.86291,0,0,0,29.587,35.7038a10.03561,10.03561,0,0,0,1.63055-.40778L37.845,24.64478Z" />
</svg>