<svg xmlns="http://www.w3.org/2000/svg" width="150.238" height="29.676" viewBox="0 0 150.238 29.676">
  <g id="_9393-logo" data-name="9393-logo" transform="translate(1003.373 -275.477)">
    <path id="Path_1" data-name="Path 1" d="M-947.655,306.617c.07,0,.14,0,.211-.006s.14.006.211.006c.053,0,.105-.007.159-.009l-1.472-.047A7.7,7.7,0,0,0-947.655,306.617Z" transform="translate(-14.151 -8.023)" fill="#0c186c" opacity="0.27"/>
    <path id="Path_2" data-name="Path 2" d="M-947.655,306.617c.07,0,.14,0,.211-.006s.14.006.211.006c.053,0,.105-.007.159-.009l-1.472-.047A7.7,7.7,0,0,0-947.655,306.617Z" transform="translate(-14.151 -8.023)" fill="#0c186c" opacity="0.27"/>
    <path id="Path_3" data-name="Path 3" d="M-946.306,306.629l.016-.023c-.091.005-.182.013-.274.014Z" transform="translate(-14.663 -8.034)" fill="#0c186c"/>
    <path id="Path_4" data-name="Path 4" d="M-948.594,306.558l.035,0-.03-.005Z" transform="translate(-14.139 -8.021)" fill="#0c186c"/>
    <path id="Path_5" data-name="Path 5" d="M-938.252,310.792h8.318V297.325Z" transform="translate(-16.808 -5.639)" fill="#0c186c"/>
    <g id="Group_1" data-name="Group 1" transform="translate(-1003.373 275.477)">
      <path id="Path_6" data-name="Path 6" d="M-978.52,275.477v29.634h-7.547V293.257h-9.759v11.853h-7.547V275.477h7.547v11.182h9.759v-4.544h-3.991v-6.638h11.538Z" transform="translate(1003.373 -275.477)" fill="#0c186c"/>
      <path id="Path_7" data-name="Path 7" d="M-937.251,288.279l-9.957,16a15.139,15.139,0,0,1-2.45.613,16.344,16.344,0,0,1-2.687.217,15.048,15.048,0,0,1-3.318-.355,14.685,14.685,0,0,1-4.722-1.9,15.292,15.292,0,0,1-3.734-3.26,14.79,14.79,0,0,1-2.469-4.327,14.72,14.72,0,0,1-.89-5.136,14.212,14.212,0,0,1,1.206-5.888,14.256,14.256,0,0,1,3.3-4.643,15.189,15.189,0,0,1,4.86-3.043,16.06,16.06,0,0,1,5.926-1.086,15.092,15.092,0,0,1,3.517.415,15.852,15.852,0,0,1,3.339,1.2,15.824,15.824,0,0,1,3,1.936,13.58,13.58,0,0,1,2.43,2.568,12.524,12.524,0,0,1,1.936,3.951H-946.1a7.49,7.49,0,0,0-2.647-2.747,6.958,6.958,0,0,0-3.635-.967,7.443,7.443,0,0,0-3.181.671,7.7,7.7,0,0,0-2.47,1.8,8.124,8.124,0,0,0-1.6,2.647,8.951,8.951,0,0,0-.573,3.181,9.784,9.784,0,0,0,.553,3.3,8.4,8.4,0,0,0,1.56,2.726,7.447,7.447,0,0,0,2.45,1.858,7.449,7.449,0,0,0,3.26.691,4.332,4.332,0,0,0,.435-.02,3.9,3.9,0,0,1,.395-.02l3.122-4.543h-5.611v-5.848h16.793Z" transform="translate(994.108 -275.477)" fill="#0c186c"/>
    </g>
    <g id="Group_2" data-name="Group 2" transform="translate(-944.96 275.556)">
      <path id="Path_8" data-name="Path 8" d="M-919.938,295.616a7.665,7.665,0,0,1-2.588-2.134,9.409,9.409,0,0,1-1.58-3.121,12.978,12.978,0,0,1-.533-3.754,11.06,11.06,0,0,1,.869-4.425,10.576,10.576,0,0,1,2.39-3.477,11.1,11.1,0,0,1,3.576-2.292,11.805,11.805,0,0,1,4.465-.83,12.5,12.5,0,0,1,4.544.81,10.752,10.752,0,0,1,3.615,2.272,10.434,10.434,0,0,1,2.39,3.537,11.7,11.7,0,0,1,.87,4.563,11.164,11.164,0,0,1-.751,4.07,18.131,18.131,0,0,1-1.936,3.675l-7.151,10.628h-8.614l10.59-16.99a2.375,2.375,0,0,1,.158-.276,1.839,1.839,0,0,0,.158-.317,2.017,2.017,0,0,0,.2-.691,7.456,7.456,0,0,0,.039-.771,4.066,4.066,0,0,0-1.086-2.845,3.611,3.611,0,0,0-2.786-1.185,4.073,4.073,0,0,0-2.885,1.106,3.672,3.672,0,0,0-1.185,2.805,3.794,3.794,0,0,0,1.166,2.885,4.048,4.048,0,0,0,2.9,1.106,4.364,4.364,0,0,0,1.225-.2l-4.465,6.638A7.77,7.77,0,0,1-919.938,295.616Z" transform="translate(924.639 -275.583)" fill="#0c186c"/>
      <path id="Path_9" data-name="Path 9" d="M-881.629,305.138a13.289,13.289,0,0,1-2.45-.237,12.627,12.627,0,0,1-2.469-.731,10.514,10.514,0,0,1-2.232-1.245,6.768,6.768,0,0,1-1.7-1.778,8.377,8.377,0,0,1-1.107-2.45,23.947,23.947,0,0,1-.513-2.608h7.389a3.487,3.487,0,0,0,1.107,1.976,3.221,3.221,0,0,0,2.173.711,2.873,2.873,0,0,0,2.292-.909,3.425,3.425,0,0,0,.79-2.331,2.421,2.421,0,0,0-.671-1.877,3.546,3.546,0,0,0-1.66-.829,8.363,8.363,0,0,0-2.094-.178q-1.106.04-1.936.039v-5.374q.79,0,1.64-.039a5.256,5.256,0,0,0,1.56-.3,2.512,2.512,0,0,0,1.166-.849,2.679,2.679,0,0,0,.454-1.66,3.317,3.317,0,0,0-.474-1.738,1.659,1.659,0,0,0-1.541-.79,1.97,1.97,0,0,0-1.719.691,2.951,2.951,0,0,0-.494,1.758h-7.191a9.092,9.092,0,0,1,.81-3.734,8.1,8.1,0,0,1,2.094-2.766,9.273,9.273,0,0,1,3.082-1.719,11.747,11.747,0,0,1,3.773-.593,10.813,10.813,0,0,1,3.28.514,8.684,8.684,0,0,1,2.865,1.521,7.927,7.927,0,0,1,2.015,2.45,6.815,6.815,0,0,1,.77,3.26,6.275,6.275,0,0,1-.968,3.576,7.606,7.606,0,0,1-2.824,2.43,8.249,8.249,0,0,1,3.931,2.509,6.561,6.561,0,0,1,1.442,4.366,7.476,7.476,0,0,1-.929,3.714,8.944,8.944,0,0,1-2.45,2.806,11.844,11.844,0,0,1-3.418,1.778A11.912,11.912,0,0,1-881.629,305.138Z" transform="translate(916.24 -275.583)" fill="#0c186c"/>
      <path id="Path_10" data-name="Path 10" d="M-857.094,295.616a7.665,7.665,0,0,1-2.588-2.134,9.409,9.409,0,0,1-1.58-3.121,12.978,12.978,0,0,1-.533-3.754,11.06,11.06,0,0,1,.869-4.425,10.566,10.566,0,0,1,2.391-3.477,11.092,11.092,0,0,1,3.575-2.292,11.809,11.809,0,0,1,4.466-.83,12.5,12.5,0,0,1,4.543.81,10.751,10.751,0,0,1,3.615,2.272,10.444,10.444,0,0,1,2.391,3.537,11.708,11.708,0,0,1,.869,4.563,11.164,11.164,0,0,1-.751,4.07,18.168,18.168,0,0,1-1.936,3.675l-7.152,10.628h-8.613l10.589-16.99a2.357,2.357,0,0,1,.158-.276,1.787,1.787,0,0,0,.158-.317,2.018,2.018,0,0,0,.2-.691,7.474,7.474,0,0,0,.039-.771,4.066,4.066,0,0,0-1.086-2.845,3.611,3.611,0,0,0-2.786-1.185,4.074,4.074,0,0,0-2.885,1.106,3.671,3.671,0,0,0-1.185,2.805,3.794,3.794,0,0,0,1.166,2.885,4.049,4.049,0,0,0,2.9,1.106,4.363,4.363,0,0,0,1.225-.2l-4.465,6.638A7.77,7.77,0,0,1-857.094,295.616Z" transform="translate(908.419 -275.583)" fill="#0c186c"/>
      <path id="Path_11" data-name="Path 11" d="M-818.784,305.138a13.289,13.289,0,0,1-2.45-.237,12.618,12.618,0,0,1-2.47-.731,10.53,10.53,0,0,1-2.232-1.245,6.767,6.767,0,0,1-1.7-1.778,8.357,8.357,0,0,1-1.106-2.45,23.944,23.944,0,0,1-.514-2.608h7.389a3.485,3.485,0,0,0,1.106,1.976,3.222,3.222,0,0,0,2.173.711,2.873,2.873,0,0,0,2.292-.909,3.429,3.429,0,0,0,.79-2.331,2.421,2.421,0,0,0-.671-1.877,3.542,3.542,0,0,0-1.66-.829,8.363,8.363,0,0,0-2.094-.178q-1.106.04-1.936.039v-5.374q.79,0,1.64-.039a5.264,5.264,0,0,0,1.561-.3,2.511,2.511,0,0,0,1.166-.849,2.679,2.679,0,0,0,.454-1.66,3.317,3.317,0,0,0-.474-1.738,1.658,1.658,0,0,0-1.541-.79,1.971,1.971,0,0,0-1.719.691,2.952,2.952,0,0,0-.494,1.758h-7.191a9.09,9.09,0,0,1,.81-3.734,8.108,8.108,0,0,1,2.094-2.766,9.272,9.272,0,0,1,3.082-1.719,11.749,11.749,0,0,1,3.773-.593,10.809,10.809,0,0,1,3.28.514,8.685,8.685,0,0,1,2.865,1.521,7.927,7.927,0,0,1,2.015,2.45,6.806,6.806,0,0,1,.77,3.26,6.275,6.275,0,0,1-.968,3.576,7.6,7.6,0,0,1-2.824,2.43,8.246,8.246,0,0,1,3.931,2.509,6.561,6.561,0,0,1,1.442,4.366,7.475,7.475,0,0,1-.929,3.714,8.961,8.961,0,0,1-2.449,2.806,11.857,11.857,0,0,1-3.419,1.778A11.911,11.911,0,0,1-818.784,305.138Z" transform="translate(900.02 -275.583)" fill="#0c186c"/>
    </g>
  </g>
</svg>
