<svg xmlns="http://www.w3.org/2000/svg" width="40" height="40" viewBox="0 0 40 40"><g transform="translate(0 0.335)"><rect width="40" height="40" rx="1" transform="translate(0 -0.335)" fill="#0c186c"/><g transform="translate(5.397 23.547)"><path d="M15.111,65.513a2.4,2.4,0,0,1-.816-.673,3.063,3.063,0,0,1-.5-.982,4.125,4.125,0,0,1-.166-1.18,3.487,3.487,0,0,1,.273-1.394,3.266,3.266,0,0,1,.752-1.093,3.533,3.533,0,0,1,1.124-.721,3.715,3.715,0,0,1,1.406-.261,3.917,3.917,0,0,1,1.429.253,3.326,3.326,0,0,1,1.136.717,3.233,3.233,0,0,1,.752,1.113,3.689,3.689,0,0,1,.273,1.437,3.477,3.477,0,0,1-.238,1.279,5.665,5.665,0,0,1-.61,1.156l-2.249,3.346H14.968L18.3,63.165a.46.46,0,0,1,.051-.087,1.083,1.083,0,0,0,.051-.1.661.661,0,0,0,.063-.218,2.407,2.407,0,0,0,.012-.242,1.287,1.287,0,0,0-.341-.895,1.132,1.132,0,0,0-.875-.372,1.274,1.274,0,0,0-.907.348,1.155,1.155,0,0,0-.372.883,1.187,1.187,0,0,0,.368.907,1.274,1.274,0,0,0,.915.348,1.3,1.3,0,0,0,.384-.063l-1.406,2.091A2.5,2.5,0,0,1,15.111,65.513Z" transform="translate(-13.63 -59.21)" fill="#fff"/><path d="M36.124,68.511a4.043,4.043,0,0,1-.772-.075,4.15,4.15,0,0,1-.776-.23,3.188,3.188,0,0,1-.7-.392,2.234,2.234,0,0,1-.535-.558,2.664,2.664,0,0,1-.348-.772,7.9,7.9,0,0,1-.162-.82h2.324a1.11,1.11,0,0,0,.348.622,1.013,1.013,0,0,0,.685.226.9.9,0,0,0,.721-.285,1.074,1.074,0,0,0,.249-.733.765.765,0,0,0-.21-.59,1.165,1.165,0,0,0-.523-.261,2.73,2.73,0,0,0-.657-.055c-.234.008-.436.012-.61.012V62.908c.166,0,.337,0,.515-.012a1.614,1.614,0,0,0,.491-.1.785.785,0,0,0,.368-.269.838.838,0,0,0,.143-.523,1.05,1.05,0,0,0-.15-.546.52.52,0,0,0-.483-.249.623.623,0,0,0-.542.218.936.936,0,0,0-.154.554H33.079a2.914,2.914,0,0,1,.253-1.176,2.573,2.573,0,0,1,.657-.871,2.942,2.942,0,0,1,.97-.542,3.734,3.734,0,0,1,1.188-.186,3.434,3.434,0,0,1,1.033.162,2.742,2.742,0,0,1,.9.479,2.456,2.456,0,0,1,.634.772,2.132,2.132,0,0,1,.242,1.025,1.978,1.978,0,0,1-.3,1.124,2.375,2.375,0,0,1-.891.764A2.579,2.579,0,0,1,39,64.326a2.075,2.075,0,0,1,.455,1.374,2.357,2.357,0,0,1-.293,1.168,2.8,2.8,0,0,1-.772.883,3.917,3.917,0,0,1-2.265.76Z" transform="translate(-25.228 -59.21)" fill="#fff"/><path d="M52.171,65.513a2.4,2.4,0,0,1-.816-.673,3.063,3.063,0,0,1-.5-.982,4.125,4.125,0,0,1-.166-1.18,3.487,3.487,0,0,1,.273-1.394,3.266,3.266,0,0,1,.752-1.093,3.533,3.533,0,0,1,1.124-.721,3.715,3.715,0,0,1,1.406-.261,3.917,3.917,0,0,1,1.429.253,3.326,3.326,0,0,1,1.136.717,3.233,3.233,0,0,1,.752,1.113,3.689,3.689,0,0,1,.273,1.437,3.477,3.477,0,0,1-.238,1.279,5.665,5.665,0,0,1-.61,1.156L54.74,68.511H52.028l3.334-5.345a.46.46,0,0,1,.051-.087,1.083,1.083,0,0,0,.051-.1.661.661,0,0,0,.063-.218,2.407,2.407,0,0,0,.012-.242,1.287,1.287,0,0,0-.341-.895,1.132,1.132,0,0,0-.875-.372,1.274,1.274,0,0,0-.907.348,1.155,1.155,0,0,0-.372.883,1.188,1.188,0,0,0,.368.907,1.274,1.274,0,0,0,.915.348,1.3,1.3,0,0,0,.384-.063l-1.406,2.091A2.5,2.5,0,0,1,52.171,65.513Z" transform="translate(-36.016 -59.21)" fill="#fff"/><path d="M73.174,68.511a4.043,4.043,0,0,1-.772-.075,4.151,4.151,0,0,1-.776-.23,3.188,3.188,0,0,1-.7-.392,2.234,2.234,0,0,1-.535-.558,2.665,2.665,0,0,1-.348-.772,7.9,7.9,0,0,1-.162-.82H72.2a1.11,1.11,0,0,0,.348.622,1.013,1.013,0,0,0,.685.226.9.9,0,0,0,.721-.285,1.074,1.074,0,0,0,.249-.733A.765.765,0,0,0,74,64.9a1.166,1.166,0,0,0-.523-.261,2.73,2.73,0,0,0-.657-.055c-.234.008-.436.012-.61.012V62.908c.166,0,.337,0,.515-.012a1.614,1.614,0,0,0,.491-.1.785.785,0,0,0,.368-.269.838.838,0,0,0,.143-.523,1.051,1.051,0,0,0-.15-.546.52.52,0,0,0-.483-.249.623.623,0,0,0-.542.218.936.936,0,0,0-.154.554H70.129a2.914,2.914,0,0,1,.253-1.176,2.572,2.572,0,0,1,.657-.871,2.941,2.941,0,0,1,.97-.542A3.734,3.734,0,0,1,73.2,59.21a3.434,3.434,0,0,1,1.033.162,2.742,2.742,0,0,1,.9.479,2.456,2.456,0,0,1,.634.772,2.131,2.131,0,0,1,.242,1.025,1.978,1.978,0,0,1-.3,1.124,2.375,2.375,0,0,1-.891.764,2.579,2.579,0,0,1,1.235.788A2.075,2.075,0,0,1,76.5,65.7a2.357,2.357,0,0,1-.293,1.168,2.8,2.8,0,0,1-.772.883,3.917,3.917,0,0,1-2.265.76Z" transform="translate(-47.608 -59.21)" fill="#fff"/></g><g transform="translate(5.397 7.028)"><path d="M75.65,45.142h4.229V38.3Z" transform="translate(-51.094 -30.06)" fill="#fff"/><path d="M26.265,17.49V32.552H22.428V26.529H17.467v6.022H13.63V17.49h3.837v5.682h4.961V20.863H20.4V17.49h5.864Z" transform="translate(-13.63 -17.49)" fill="#fff"/><path d="M63.189,24.011l-5.06,8.133a7.819,7.819,0,0,1-1.243.313,8.154,8.154,0,0,1-1.366.111,7.518,7.518,0,0,1-1.687-.182,7.41,7.41,0,0,1-2.4-.962,7.767,7.767,0,0,1-1.9-1.655,7.486,7.486,0,0,1-1.707-4.807,7.22,7.22,0,0,1,2.289-5.353,7.792,7.792,0,0,1,2.471-1.548,8.163,8.163,0,0,1,3.013-.55,7.752,7.752,0,0,1,1.786.21,7.981,7.981,0,0,1,3.223,1.6,6.879,6.879,0,0,1,1.235,1.307,6.4,6.4,0,0,1,.986,2.007H58.7a3.767,3.767,0,0,0-1.346-1.394,3.529,3.529,0,0,0-1.849-.491,3.8,3.8,0,0,0-1.615.341A3.933,3.933,0,0,0,52.633,22a4.119,4.119,0,0,0-.812,1.346,4.544,4.544,0,0,0-.293,1.615,4.991,4.991,0,0,0,.281,1.675,4.264,4.264,0,0,0,.792,1.386,3.736,3.736,0,0,0,2.9,1.295,1.923,1.923,0,0,0,.222-.012,1.727,1.727,0,0,1,.2-.012l1.588-2.308H54.66V24.015h8.529Z" transform="translate(-34.289 -17.502)" fill="#fff"/></g></g></svg>