<svg xmlns="http://www.w3.org/2000/svg" xmlns:xlink="http://www.w3.org/1999/xlink" width="38" height="38" viewBox="0 0 38 38"><defs><linearGradient id="a" x1="1.128" y1="0.957" x2="0.167" y2="0.511" gradientUnits="objectBoundingBox"><stop offset="0" stop-color="#f9b87f"/><stop offset="0.138" stop-color="#f9b87f"/><stop offset="0.475" stop-color="#fac492"/><stop offset="1" stop-color="#fce0c8"/></linearGradient><clipPath id="c"><rect width="38" height="38"/></clipPath></defs><g id="b" clip-path="url(#c)"><path d="M23.5,40A16.5,16.5,0,1,1,40,23.5,16.518,16.518,0,0,1,23.5,40Zm-.827-9.7h0L23.5,31.75l-5.924,1.5-1.913,2.838A14.675,14.675,0,0,0,23.5,38.35a15.46,15.46,0,0,0,3.515-.462L28.45,35.05l-4.95-3.3L22.673,30.3l.827-.2,2.986-4.487L21.85,20.2H16.9l-2.426,6.089,3.812,5.1L22.672,30.3ZM35.05,31.75l-4.95,3.3-1.139,2.211a14.967,14.967,0,0,0,6.914-5.511H35.05Zm2.574-12.838-1.485.726-2.475,4.95L35.05,30.1h1.7a14.767,14.767,0,0,0,1.6-6.6A14.466,14.466,0,0,0,37.624,18.912Zm-23.76-4.224h0l-2.59.412A14.639,14.639,0,0,0,9.012,26.7l4.225-1.453L15.249,20.2l-1.386-5.511ZM25.15,13.6l-2.426,4.851,5.413,6.336,4.339-1.023,2.063-4.24L30.1,13.6H25.15ZM19.425,9.277A14.931,14.931,0,0,0,12.576,13.5l2.063-.412,4.224-2.112.562-1.7ZM23.5,8.65a12.745,12.745,0,0,0-2.261.214l-.577,1.7L23.5,11.95h7.425l.462-.974A14.662,14.662,0,0,0,23.5,8.65Z" transform="translate(-4.5 -4.5)" fill="url(#a)"/></g></svg>