<svg xmlns="http://www.w3.org/2000/svg" width="150" height="37.673" viewBox="0 0 150 37.673">
  <path id="HG9393_logo" d="M12.919,21.166l-2.871,9.809H150L0,37.673Zm23.435,6.2H30.974l3.579-13.423H24.962L21.383,27.361H16L20.959,8.777H35.931L38.272,0H43.65l-7.3,27.361h0Zm101.122,0H126.419L127.8,22.2h10.84l1.377-5.162h-10.84l1.377-5.163h10.84l1.515-5.679h5.378l-4.617,17.317-4.928,3.849h-1.263Zm-19.421,0H106.307l1.376-5.162H117.7l1.377-5.162H109.06L111.951,6.2h5.378l-1.514,5.679h4.64l1.79-6.711h-10.02L113.6,0H129L122.666,23.76l-4.61,3.6h0Zm-21.626,0H85.372L86.749,22.2H97.59l1.377-5.162H88.126L89.5,11.874h10.84l1.515-5.679h5.378l-4.618,17.317-4.927,3.849H96.43Zm-25.79,0H65.26L66.636,22.2h10.02l1.377-5.162H68.013L70.9,6.2h5.378l-1.514,5.679h4.64L81.2,5.163H71.179L72.555,0h15.4L81.617,23.76l-4.609,3.6h-6.37Zm-27.013,0-2.557-3.272L45.839,6.2h5.378l-4.266,16h9.591l.826-3.1H51.553l1.377-5.162H64.124L60.546,27.361H43.625ZM65.5,8.777H60.122l.964-3.614H46.114l.54-2.023L50.673,0H67.841L65.5,8.776v0ZM26.613,7.745H21.235L23.3,0h5.379L26.614,7.744v0ZM143.4,5.163H132.34L133.716,0h16.22l-1.376,5.161H143.4Zm-41.047,0H91.292L92.669,0h16.22l-1.376,5.161H102.35Z" fill="#0c186c"/>
</svg>
