<svg xmlns="http://www.w3.org/2000/svg" width="21.7" height="21.7" viewBox="0 0 21.7 21.7">
  <path id="icon_live2" d="M10.35,20.7A10.35,10.35,0,1,1,20.7,10.35,10.362,10.362,0,0,1,10.35,20.7ZM5.545,6.654A1.48,1.48,0,0,0,4.066,8.132v4.805a1.48,1.48,0,0,0,1.479,1.479h5.914a1.48,1.48,0,0,0,1.479-1.479V8.132a1.48,1.48,0,0,0-1.479-1.479Zm10.72.907a.739.739,0,0,0-.491.187L13.925,9.391a.741.741,0,0,0-.248.553v.814a.741.741,0,0,0,.248.553l1.849,1.642A.739.739,0,0,0,17,12.4V8.3a.74.74,0,0,0-.739-.739Z" transform="translate(0.5 0.5)" fill="#0c186c" stroke="rgba(0,0,0,0)" stroke-miterlimit="10" stroke-width="1"/>
</svg>
