<svg xmlns="http://www.w3.org/2000/svg" xmlns:xlink="http://www.w3.org/1999/xlink" width="30.201" height="27.723" viewBox="0 0 30.201 27.723">
  <defs>
    <linearGradient id="linear-gradient" x1="0.5" y1="-0.214" x2="0.5" y2="1.275" gradientUnits="objectBoundingBox">
      <stop offset="0" stop-color="#fff1dc"/>
      <stop offset="1" stop-color="#ffd999"/>
    </linearGradient>
  </defs>
  <path id="money_hover" d="M2.79,15.716,1.688,17.4A.92.92,0,1,1,.151,16.39L2.6,12.655a.924.924,0,0,1,.172-.184h.036a.958.958,0,0,1,.227-.129.916.916,0,0,1,.245-.049h.043a.9.9,0,0,1,.251,0,.913.913,0,0,1,.22.1l3.673,2.511a.919.919,0,1,1-1.034,1.518L4.45,15.073a11.9,11.9,0,0,0,3.232,5.976,11.388,11.388,0,0,0,16.886,0v-.006a.918.918,0,0,1,1.3,1.3,14.215,14.215,0,0,1-9.833,4.286A14.3,14.3,0,0,1,2.79,15.716Zm10.794,5.707v-.9a4.4,4.4,0,0,1-1.9-1.121,3.933,3.933,0,0,1-1.452-3.276.908.908,0,0,1,.9-.826.981.981,0,0,1,.1.006.919.919,0,0,1,.76,1.01c-.057.578.193,1.064.924,1.794a2.582,2.582,0,0,0,.612.435V13.568a3.862,3.862,0,0,1-1.837-.985,4.56,4.56,0,0,1,0-6.2,3.07,3.07,0,0,1,1.874-.82V4.891a.918.918,0,0,1,1.837,0v.674a3.684,3.684,0,0,1,3.38,3.918.918.918,0,1,1-1.837,0,1.959,1.959,0,0,0-.5-1.561,1.914,1.914,0,0,0-1.035-.515V11.9a4.149,4.149,0,0,1,2.5,1.224,4.378,4.378,0,0,1,.1,6.251,4.525,4.525,0,0,1-2.6,1.279v.766a.918.918,0,0,1-1.837,0Zm1.837-2.6a2.714,2.714,0,0,0,1.3-.729,2.536,2.536,0,0,0-.1-3.674,2.262,2.262,0,0,0-1.2-.649ZM13,7.683a2.508,2.508,0,0,0-.667,1.795,2.545,2.545,0,0,0,.686,1.805,1.74,1.74,0,0,0,.557.349V7.427A1.093,1.093,0,0,0,13,7.683Zm12.814,6.441a.927.927,0,0,1-.238-.031.9.9,0,0,1-.184-.08l-.08-.037-3.673-2.51a.919.919,0,1,1,1.034-1.518L24.659,11.3A11.926,11.926,0,0,0,4.541,5.326a.919.919,0,1,1-1.3-1.3A13.782,13.782,0,0,1,26.4,10.665l1.1-1.684a.92.92,0,1,1,1.5,1.066l-2.449,3.735a.852.852,0,0,1-.079.092l-.067.073a.855.855,0,0,1-.11.08l-.074.049-.135.05h-.073a.952.952,0,0,1-.2,0Z" transform="translate(0.503 0.596)" stroke="rgba(0,0,0,0)" stroke-miterlimit="10" stroke-width="1" fill="url(#linear-gradient)"/>
</svg>
