<svg xmlns="http://www.w3.org/2000/svg" xmlns:xlink="http://www.w3.org/1999/xlink" width="38" height="38" viewBox="0 0 38 38"><defs><linearGradient id="a" x1="0.5" x2="0.5" y2="1" gradientUnits="objectBoundingBox"><stop offset="0" stop-color="#fce0c8"/><stop offset="0.51" stop-color="#fac492"/><stop offset="1" stop-color="#f9b87f"/></linearGradient><clipPath id="c"><rect width="38" height="38"/></clipPath></defs><g id="b" clip-path="url(#c)"><path d="M3719.97-3208.845l-5.7-2.444c-6.5.989-12.19-2.336-13.656-6.976a17.232,17.232,0,0,1-5.2-.69l-4.2,1.8a1.2,1.2,0,0,1-.468.094,1.191,1.191,0,0,1-.865-.372,1.187,1.187,0,0,1-.2-1.345l1.2-2.394a11.107,11.107,0,0,1-4.885-8.952c0-6.548,6.391-11.875,14.25-11.875s14.25,5.327,14.25,11.875q0,.1,0,.191c5.415.882,9.5,4.72,9.5,9.31a8.828,8.828,0,0,1-4.025,7.1l1.527,3.052a1.179,1.179,0,0,1-.2,1.344,1.182,1.182,0,0,1-.865.375A1.239,1.239,0,0,1,3719.97-3208.845Zm-5.08-4.765,3.036,1.3-.553-1.111a1.188,1.188,0,0,1,.472-1.56c2.4-1.376,3.781-3.435,3.781-5.648,0-3.645-3.669-6.661-8.384-7.076a1.208,1.208,0,0,1-.216-.017q-.444-.031-.9-.032c-5.239,0-9.5,3.2-9.5,7.125s4.261,7.125,9.5,7.125a11.987,11.987,0,0,0,2.1-.187,1.127,1.127,0,0,1,.2-.017A1.22,1.22,0,0,1,3714.889-3213.61Zm-26.515-16.515c0,2.942,1.7,5.691,4.667,7.543a1.187,1.187,0,0,1,.435,1.537l-.214.43,1.627-.7a1.208,1.208,0,0,1,.843-.036,14.7,14.7,0,0,0,4.517.7c.014-5.23,5.336-9.48,11.875-9.48,0-5.239-5.327-9.5-11.875-9.5S3688.375-3235.364,3688.375-3230.125Zm26.161,7.125a1.177,1.177,0,0,1,1.176-1.187h.023a1.188,1.188,0,0,1,1.188,1.187,1.188,1.188,0,0,1-1.188,1.188A1.2,1.2,0,0,1,3714.536-3223Zm-7.125,0a1.176,1.176,0,0,1,1.176-1.187h.023A1.188,1.188,0,0,1,3709.8-3223a1.188,1.188,0,0,1-1.188,1.188A1.2,1.2,0,0,1,3707.411-3223Zm-3.563-10.687a1.178,1.178,0,0,1,1.176-1.187h.024a1.187,1.187,0,0,1,1.187,1.187,1.188,1.188,0,0,1-1.187,1.188A1.2,1.2,0,0,1,3703.848-3233.687Zm-9.5,0a1.178,1.178,0,0,1,1.176-1.187h.024a1.187,1.187,0,0,1,1.187,1.187,1.188,1.188,0,0,1-1.187,1.188A1.2,1.2,0,0,1,3694.348-3233.687Z" transform="translate(-3686 3244)" fill="url(#a)"/></g></svg>