<?xml version="1.0" encoding="utf-8"?>
<!-- Generator: Adobe Illustrator 24.3.0, SVG Export Plug-In . SVG Version: 6.00 Build 0)  -->
<svg version="1.1" id="Layer_1" xmlns="http://www.w3.org/2000/svg" xmlns:xlink="http://www.w3.org/1999/xlink" x="0px" y="0px"
	 viewBox="0 0 66.1 52" style="enable-background:new 0 0 66.1 52;" xml:space="preserve">
<style type="text/css">
	.st0{fill:#FFFFFF;}
	.st1{fill:#F08C1A;}
</style>
<g transform="translate(740.296 -424.373)">
	<path class="st0" d="M-724.9,453.7l1.4-8.4c0.1-0.7-0.3-1.3-1-1.4c-0.1,0-0.1,0-0.2,0h-6.4c1-0.9,1-2.3,0.2-3.3
		c-0.2-0.2-0.4-0.3-0.6-0.5l-1.4-0.7l0.1-0.2h3c0.6,0,1.1-0.4,1.2-1c0.1-0.7-0.3-1.3-1-1.4c-0.1,0-0.1,0-0.2,0h-2.1
		c0.2-0.6,0.3-1.1,0.4-1.7h1.9c0.6,0,1.1-0.4,1.1-1c0.1-0.6-0.3-1.2-0.9-1.3c-0.1,0-0.1,0-0.2,0h-4.1c0.1-0.1,0.1-0.2,0.2-0.3
		c0.2-0.5,0.1-1-0.4-1.3c-0.1,0-0.1-0.1-0.2-0.1c-0.4-0.1-0.9,0-1.1,0.4c-0.6,1.2-1.4,2.3-2.4,3.3c-0.3,0.3-0.4,0.7-0.2,1.1l0.5,1
		c-0.5,0-1,0.4-1.1,0.9l-0.1,0.3c-0.1,0.6,0.3,1.1,0.9,1.2c0.1,0,0.1,0,0.2,0h2.4c-0.9,1.4-2.3,2.4-4,2.7c-0.9,0.2-1.4,1.1-1.2,2
		c0,0.1,0.1,0.3,0.1,0.4c0.5,0.8,1.5,1.1,2.3,0.6c0,0,0,0,0,0c0.2-0.2,0.5-0.3,0.7-0.4l-1.6,9.2c-0.1,0.6,0.3,1.1,0.9,1.2
		c0.1,0,0.1,0,0.2,0c0.5,0,1-0.4,1.1-0.9v-0.1h9.4c-0.1,0.5,0.2,0.9,0.7,0.9c0,0,0,0,0.1,0C-725.6,454.9-725,454.4-724.9,453.7
		 M-725.8,446.2l-0.3,1.6h-9.4l0.3-1.6H-725.8z M-736.7,436.7c0.5-0.5,1-1.1,1.5-1.7h1.6c-0.1,0.6-0.3,1.2-0.5,1.7H-736.7z
		 M-734,441.4c0.8,0.7,1.6,1.6,2.3,2.4h-4.5C-735.4,443.1-734.6,442.3-734,441.4 M-726.7,451.5h-9.4l0.2-1.5h9.5L-726.7,451.5z"/>
	<path class="st0" d="M-727.4,442.6h4.9c0.6,0,1.1-0.4,1.2-1l1.2-7.4c0.1-0.7-0.3-1.3-1-1.4c-0.1,0-0.1,0-0.2,0h-4.9
		c-0.6,0-1.1,0.4-1.2,1l-1.2,7.4c-0.1,0.7,0.3,1.3,1,1.4C-727.5,442.6-727.5,442.6-727.4,442.6 M-725.5,435.1h3.1l-0.9,5.1h-3.1
		L-725.5,435.1z"/>
	<path class="st0" d="M-710.9,434.9h4.2l-0.2,0.8h-3.8c-0.6,0-1.1,0.4-1.2,1l-1.4,7.8c-0.1,0.6,0.2,1.1,0.8,1.2c0.1,0,0.1,0,0.2,0
		c0.5,0,0.9-0.3,1-0.8l0.4-1.8h2.7l-0.2,1.2c-0.1,0.6,0.3,1.1,0.8,1.2c0.1,0,0.2,0,0.2,0c0.5,0,1-0.4,1.1-0.9l0.3-1.7h2.7l-0.1,0.2
		c-0.1,0.4-0.2,0.6-0.5,0.6c-0.5-0.1-0.9,0.2-0.9,0.7c0,0.1,0,0.1,0,0.2v0.1c0,0.5,0.4,0.8,0.9,0.8h0.3c1.2,0.1,2.2-0.7,2.4-1.9
		l1.2-6.7c0.1-0.6-0.3-1.3-0.9-1.4c-0.1,0-0.2,0-0.2,0h-3.4l0.2-0.8h4.6c0.5,0,1-0.4,1.1-0.9c0.1-0.6-0.3-1.2-0.9-1.3
		c-0.1,0-0.2,0-0.2,0h-0.5c0-0.5-0.1-1-0.2-1.5c-0.1-0.5-0.5-0.9-1-0.8c0,0-0.1,0-0.1,0c-0.5,0.1-0.9,0.6-0.8,1.2l0.3,1.2h-1.8
		l0.1-0.3c0.1-0.6-0.3-1.1-0.8-1.2c-0.1,0-0.2,0-0.2,0c-0.5,0-1,0.4-1.1,0.9l-0.1,0.7h-4.6c-0.5,0-1,0.4-1.1,0.9
		c-0.1,0.6,0.2,1.1,0.8,1.2C-711.1,434.9-711,434.9-710.9,434.9 M-708,441.3h-2.7l0.2-1h2.7L-708,441.3z M-707.5,438.7h-2.7l0.2-1
		h2.7L-707.5,438.7z M-705.1,437.7h2.7l-0.2,1h-2.7L-705.1,437.7z M-705.6,440.4h2.7l-0.2,1h-2.7L-705.6,440.4z"/>
	<path class="st0" d="M-707.3,452.5c-0.3,0-0.6,0-1-0.1c-0.6,0-1.2,0.4-1.2,1.1c0,0,0,0.1,0,0.1c0,0.6,0.5,1.1,1.2,1.1c0,0,0,0,0,0
		h1.3c1.3,0,2.1-0.8,2.4-2.4l0.6-3.1h1.4c0.5,0,1-0.4,1.1-1c0.1-0.6-0.3-1.2-0.9-1.3c-0.1,0-0.1,0-0.2,0h-1c0.1-0.4-0.2-0.9-0.6-0.9
		c0,0-0.1,0-0.1,0h-0.2c-0.6,0-1,0.4-1.1,1h-8.3c-0.5,0-1,0.4-1.1,1c-0.1,0.6,0.3,1.2,0.9,1.3c0.1,0,0.1,0,0.2,0h1.7l-0.2,0.2
		c-0.5,0.5-0.6,1.2-0.2,1.8c0.2,0.3,0.4,0.6,0.5,1c0.3,0.7,1.1,1,1.7,0.7c0.2-0.1,0.3-0.2,0.5-0.3c0.5-0.5,0.5-1.2,0.1-1.7
		c-0.4-0.6-1-1.2-1.6-1.5h5.3l-0.5,2.4C-706.7,452.2-706.9,452.5-707.3,452.5"/>
	<path class="st0" d="M-714.4,439.7c0.7,0,1.3-0.5,1.3-1.2c0-0.7-0.5-1.4-1.3-1.4c0,0-0.1,0-0.1,0h-0.2l0.8-4.6
		c0.1-0.6-0.2-1.2-0.8-1.3c0,0,0,0,0,0c-0.6-0.1-1.2,0.2-1.4,0.8c0,0,0,0,0,0.1l-1,5h-1.4c-0.5,0-1,0.3-1.2,0.8
		c-0.2,0.7,0.1,1.5,0.8,1.7c0.1,0,0.3,0.1,0.4,0.1h1l-5.6,29.7c-0.1,0.4,0.2,0.9,0.6,1c0.1,0,0.1,0,0.2,0c0.7,0,1.3-0.5,1.4-1.2
		l5.6-29.5H-714.4L-714.4,439.7z"/>
	<path class="st1" d="M-695.3,451c1.3-2,2.4-4.2,3.2-6.5l-1,5.6h-1.1c-0.4,0-0.7,0.3-0.8,0.7c-0.1,0.5,0.2,0.9,0.7,0.9
		c0,0,0,0,0.1,0h0.8l-0.4,2.3c-0.1,0.4,0.2,0.7,0.5,0.8c0,0,0.1,0,0.1,0c0.3,0,0.6-0.2,0.7-0.5l0.5-2.5h1.1c0.4,0,0.7-0.3,0.8-0.7
		c0.1-0.5-0.2-0.9-0.7-0.9c0,0,0,0-0.1,0h-0.8l1-5.6c0,1.9,0.4,3.7,1,5.5c0.2,0.6,0.8,0.9,1.4,0.7c0.2-0.1,0.4-0.2,0.5-0.4
		c0.3-0.4,0.3-0.9-0.1-1.3c-1.1-1.2-1.6-2.7-1.7-4.8h1.7c0.4,0,0.7-0.3,0.8-0.7c0.1-0.5-0.2-0.9-0.7-0.9c0,0,0,0-0.1,0h-2.4l0.3-1.7
		c0.1-0.4-0.2-0.7-0.5-0.8c0,0-0.1,0-0.1,0c-0.3,0-0.6,0.2-0.7,0.5l-0.4,2h-2.6c-0.4,0-0.7,0.3-0.8,0.7c-0.1,0.5,0.2,0.9,0.7,0.9
		c0,0,0,0,0.1,0h1.2c-1,2.3-1.7,4.2-3.6,5.3c-0.4,0.3-0.6,0.8-0.4,1.2c0.2,0.5,0.8,0.8,1.3,0.6C-695.5,451.3-695.4,451.2-695.3,451"
		/>
	<path class="st1" d="M-694.4,441.3c0.1-0.3,0-0.7-0.2-0.8c-0.3-0.2-0.8-0.1-0.9,0.3c0,0,0,0,0,0c-1,2.1-2.6,4.6-4.5,5.9
		c-0.4,0.3-0.5,0.8-0.2,1.1c0,0,0.1,0.1,0.1,0.1c0.3,0.3,0.8,0.4,1.2,0.1c0.4-0.4,0.7-0.7,1.1-1.1l-1.2,7c-0.1,0.4,0.2,0.7,0.5,0.8
		c0,0,0.1,0,0.1,0c0.3,0,0.6-0.2,0.7-0.5l1.7-9.8C-695.4,443.4-694.9,442.4-694.4,441.3"/>
	<path class="st1" d="M-677.7,446.4h-6.4c-0.4,0-0.8,0.3-0.8,0.7l-1.3,6.8c-0.1,0.4,0.2,0.7,0.5,0.8c0,0,0.1,0,0.1,0
		c0.3,0,0.6-0.2,0.7-0.5l0.4-2h5.4l-0.1,0.5c0,0.3-0.3,0.4-0.5,0.4c0,0,0,0,0,0h-0.4c-0.4,0-0.8,0.3-0.8,0.8c0,0,0,0,0,0
		c0,0.4,0.4,0.7,0.8,0.7c0,0,0,0,0,0h0.6c1,0,1.5-0.5,1.7-1.6l1-5.7c0.1-0.4-0.2-0.9-0.7-0.9C-677.6,446.4-677.7,446.4-677.7,446.4
		 M-678.9,450.9h-5.4l0.1-0.8h5.4L-678.9,450.9z M-678.5,448.7h-5.4l0.2-0.9h5.4L-678.5,448.7z"/>
	<path class="st1" d="M-674.9,441.4h-4.3c0-0.2,0-0.3-0.1-0.5c0-0.4-0.4-0.8-0.8-0.7c0,0-0.1,0-0.1,0c-0.4,0.1-0.7,0.5-0.7,0.9
		c0,0.1,0,0.2,0.1,0.3h-4.4c-0.4,0-0.7,0.3-0.8,0.7c-0.1,0.4,0.2,0.8,0.7,0.9c0,0,0.1,0,0.1,0h2.1c-0.5,0.5-1,0.9-1.6,1.2
		c-0.1,0-0.1,0.1-0.2,0.1c-0.3,0.1-0.5,0.4-0.5,0.7l0,0c0,0.4,0.3,0.7,0.7,0.7c0,0,0.1,0,0.1,0c3.1-0.1,5.6-0.3,7.6-0.5
		c0.1,0.1,0.2,0.3,0.3,0.4c0.2,0.4,0.7,0.5,1.1,0.3c0,0,0,0,0,0c0.3-0.2,0.4-0.7,0.2-1.1c0,0,0,0,0,0c-0.4-0.6-0.9-1.2-1.5-1.9h1.9
		c0.4,0,0.7-0.3,0.8-0.7C-674.1,441.9-674.5,441.4-674.9,441.4 M-677.9,444c0.1,0.1,0.1,0.1,0.1,0.2c-1.5,0.1-3.4,0.2-5.5,0.3
		c0.5-0.4,1.1-0.9,1.8-1.5h3.6C-678.1,443.2-678.2,443.7-677.9,444"/>
	<path class="st0" d="M-712.5,458.1h-3c-0.2,0-0.4,0.1-0.5,0.4l0,0c-0.1,0.3,0.1,0.5,0.4,0.6c0,0,0,0,0.1,0h2.1l-3.6,4.1
		c-0.1,0.1-0.1,0.1-0.1,0.2c-0.1,0.3,0.1,0.6,0.5,0.7c0,0,0.1,0,0.1,0h3.3c0.2,0,0.4-0.1,0.5-0.3c0.1-0.3,0-0.5-0.3-0.6
		c-0.1,0-0.1,0-0.2,0h-2.3l3.4-4c0.1-0.1,0.1-0.2,0.1-0.3c0.1-0.4-0.2-0.7-0.5-0.8C-712.4,458.1-712.4,458.1-712.5,458.1"/>
	<path class="st0" d="M-706.5,459.6c0-0.8-0.5-1.5-1.9-1.5h-1.3c-0.3,0-0.6,0.2-0.7,0.5l-1,4.8c-0.1,0.4,0.2,0.7,0.5,0.8
		c0,0,0.1,0,0.1,0h1.7c1.4,0,2.3-0.8,2.3-1.9c0-0.5-0.3-1-0.8-1.2C-706.9,460.8-706.5,460.2-706.5,459.6 M-709.2,463.2h-1l0.4-1.8
		h0.8c0.7,0,1,0.3,1,0.8C-708,462.8-708.5,463.2-709.2,463.2C-709.1,463.2-709.1,463.2-709.2,463.2 M-708.7,460.5h-0.8l0.3-1.5h0.7
		c0.5,0,0.8,0.2,0.8,0.7C-707.7,460.2-708,460.5-708.7,460.5"/>
	<path class="st0" d="M-702.3,458c-2.3,0-3.1,2.3-3.1,3.8c0,1.4,0.7,2.4,2.3,2.4c2.3,0,3.1-2.1,3.1-3.8
		C-700,459-700.7,458-702.3,458 M-703,463.2c-0.7,0-1.1-0.5-1.1-1.4c0-1.2,0.5-2.9,1.8-2.9c0.8,0,1.1,0.5,1.1,1.4
		C-701.2,461.5-701.7,463.2-703,463.2"/>
	<path class="st0" d="M-698.8,462.7c-0.3,0-0.5,0.2-0.5,0.4l-0.1,0.3c-0.1,0.3,0.1,0.6,0.4,0.6c0,0,0.1,0,0.1,0
		c0.3,0,0.5-0.2,0.5-0.4l0.1-0.3c0.1-0.3-0.1-0.6-0.3-0.6C-698.6,462.7-698.7,462.7-698.8,462.7"/>
	<path class="st0" d="M-693.9,458c-2.2,0-3.1,2.3-3.1,3.8c0,1.4,0.7,2.4,2.2,2.4c0.9,0.1,1.7-0.3,2.2-1c0.2-0.3,0.1-0.6-0.2-0.8
		c-0.1-0.1-0.2-0.1-0.3-0.1c-0.2,0-0.4,0.1-0.5,0.3c-0.2,0.4-0.7,0.7-1.1,0.7c-0.8,0-1.1-0.5-1.1-1.5c0-1.1,0.5-2.8,1.7-2.8
		c0.6,0,0.9,0.3,1,0.7c0.1,0.2,0.3,0.4,0.5,0.4h0.1c0.3,0,0.6-0.2,0.6-0.6c0-0.1,0-0.1,0-0.2C-692.2,458.4-693,457.9-693.9,458"/>
	<path class="st0" d="M-687.8,458c-2.3,0-3.1,2.3-3.1,3.8c0,1.4,0.7,2.4,2.3,2.4c2.3,0,3.1-2.1,3.1-3.8
		C-685.5,459-686.2,458-687.8,458 M-688.5,463.2c-0.7,0-1.1-0.5-1.1-1.4c0-1.2,0.5-2.9,1.8-2.9c0.8,0,1.1,0.5,1.1,1.4
		C-686.8,461.5-687.2,463.2-688.5,463.2"/>
	<path class="st0" d="M-678.7,458.1c-0.4,0-0.7,0.2-0.9,0.5c-0.7,1.4-1.7,3.2-1.9,3.9l0,0c0-0.7-0.1-2.2-0.1-3.5
		c0-0.5-0.4-0.9-1-0.9h-0.1c-0.5,0-0.9,0.3-1,0.8l-1,4.6c-0.1,0.3,0.2,0.6,0.5,0.6c0,0,0,0,0.1,0c0.3,0,0.5-0.2,0.5-0.4
		c0,0,0.8-3.4,0.9-4.2c0,0,0.2,2.4,0.2,4c0,0.3,0.2,0.5,0.5,0.5l0,0h0.3c0.2,0,0.4-0.1,0.5-0.3c0.8-1.7,1.4-2.9,2-4.1l-0.7,3.7
		c-0.1,0.3,0.2,0.6,0.5,0.6c0,0,0,0,0.1,0h0.1c0.3,0,0.5-0.2,0.5-0.4l1-4.5C-677.6,458.6-678.1,458.1-678.7,458.1"/>
</g>
</svg>
