<?xml version="1.0" encoding="utf-8"?>
<!-- Generator: Adobe Illustrator 23.0.2, SVG Export Plug-In . SVG Version: 6.00 Build 0)  -->
<svg version="1.1" id="Layer_1" xmlns="http://www.w3.org/2000/svg" xmlns:xlink="http://www.w3.org/1999/xlink" x="0px" y="0px"
	 viewBox="0 0 118.5 52" style="enable-background:new 0 0 118.5 52;" xml:space="preserve">
<style type="text/css">
	.st0{fill:#FF9200;}
	.st1{fill:#FFFFFF;}
</style>
<title>AllBrand_Logo_SVG</title>
<g id="XMLID_18_">
	<path id="XMLID_685_" class="st0" d="M19.9,29.3c0,5.6-4.3,9.7-9.8,9.7c-5.8,0-10-3.9-10-9.8c0-2.4,1-4.7,2.3-6.8l6.3-9.3h7.5
		L6.9,27.9c-0.1,0.1-0.2,0.4-0.3,0.5c-0.1,0.4-0.2,0.9-0.2,1.3c0,2,1.4,3.6,3.4,3.6c1.9,0,3.6-1.4,3.6-3.5c0-2-1.6-3.4-3.6-3.4
		c-0.4,0-0.7,0.1-1.1,0.2l3.9-5.8C17.4,20.7,19.9,24.7,19.9,29.3"/>
	<path id="XMLID_684_" class="st0" d="M41,29.3c0,5.6-4.3,9.7-9.8,9.7c-5.8,0-10-3.9-10-9.8c0-2.4,1-4.7,2.3-6.8l6.3-9.3h7.5
		L28,27.9c-0.1,0.1-0.2,0.4-0.3,0.5c-0.1,0.4-0.2,0.9-0.2,1.3c0,2,1.4,3.6,3.4,3.6c1.9,0,3.6-1.4,3.6-3.5c0-2-1.6-3.4-3.6-3.4
		c-0.4,0-0.7,0.1-1.1,0.2l3.9-5.8C38.5,20.7,41,24.7,41,29.3"/>
	<path id="XMLID_680_" class="st1 invert" d="M42.5,31c0-2.8,1.3-5.1,3.9-6.2c-1.6-1.2-2.4-2.6-2.4-4.7c0-4.3,3.5-7,7.6-7
		c4,0,7.6,2.6,7.6,6.9c0,2.1-0.9,3.5-2.4,4.7c2.6,1.1,3.9,3.5,3.9,6.2c0,4.9-4.5,7.9-9,7.9C47.1,38.9,42.5,35.9,42.5,31 M48.8,30.5
		c0,1.6,1.2,2.9,2.8,2.9c1.5,0,2.6-1.4,2.6-2.8c0-1.5-1.2-2.9-2.7-2.9C49.9,27.7,48.8,28.9,48.8,30.5 M49.2,20.5
		c0,1.3,1,2.3,2.2,2.3c1.4,0,2.4-1,2.4-2.3c0-1.2-1.1-2.2-2.2-2.2C50.3,18.2,49.2,19.3,49.2,20.5"/>
	<path id="XMLID_677_" class="st1 invert" d="M81.6,29.3c0,5.6-4.3,9.7-9.8,9.7c-5.8,0-10-3.9-10-9.8c0-2.4,1-4.7,2.3-6.8l6.3-9.3h7.5
		l-9.3,14.8c-0.1,0.1-0.2,0.4-0.3,0.5c-0.1,0.4-0.2,0.9-0.2,1.3c0,2,1.4,3.6,3.4,3.6c1.9,0,3.6-1.4,3.6-3.5c0-2-1.6-3.4-3.6-3.4
		c-0.4,0-0.7,0.1-1.1,0.2l3.9-5.8C79.1,20.7,81.6,24.7,81.6,29.3"/>
	<path id="XMLID_672_" class="st0" d="M86.6,38.1V27l-0.9,0.4v-2.6l1.7-0.9h2.4v1.1h4.3v-1.1h3.4v1.1h4.2v1.4H100l1.6,11.8h-2.5
		l-0.2-1.5h-1.6v1.5h-3.1v-1.5h-1.6l-0.2,1.5L86.6,38.1z M89.8,37.9l1.8-11.6h-1.8V37.9z M94,26.3l-1.2,9h1.5v-9H94z M98.8,35.3
		l-1.2-9h-0.2v9H98.8z"/>
	<path id="XMLID_253_" class="st0" d="M104.7,25.8h-2.1v-1.3h6v-0.7h3.9v0.7h6v1.3h-9.7l-1.2,1.6h7l-0.5-1.1h3l1.1,2.4h-15v-1.1
		L104.7,25.8z M103.6,29.5h14.1v8.6h-3.8v-2.5h-6.6v2.5h-3.8V29.5z M107.3,30.9V32h6.6v-1.1H107.3z M107.3,34.4h6.6v-1.2h-6.6V34.4z
		"/>
</g>
</svg>
