<?xml version="1.0" encoding="utf-8"?>
<!-- Generator: Adobe Illustrator 23.1.1, SVG Export Plug-In . SVG Version: 6.00 Build 0)  -->
<svg version="1.1" id="Layer_1" xmlns="http://www.w3.org/2000/svg" xmlns:xlink="http://www.w3.org/1999/xlink" x="0px" y="0px"
	 width="100px" height="100px" viewBox="0 0 100 100" style="enable-background:new 0 0 100 100;" xml:space="preserve">
<style type="text/css">
	.st0{fill-rule:evenodd;clip-rule:evenodd;fill:#333333;}
	 
</style>
<path class="st0" d="M54.1666679,100h-8.3333359C27.4237499,100,12.499999,85.0762482,12.499999,66.6666641V33.3333321
	C12.499999,14.9237499,27.4237499,0,45.8333321,0h8.3333359C72.5762482,0,87.5,14.9237499,87.5,33.3333321v33.3333321
	C87.5,85.0762482,72.5762482,100,54.1666679,100z M79.1666641,37.5416679c0-14.6895847-10.8708267-26.8087502-24.9999962-28.8354187
	V33.375h-8.3333359V8.7062502c-14.1291656,2.0266666-25,14.145833-25,28.8354187v4.1666641h58.3333321V37.5416679z
	 M79.1666641,45.875H20.8333321v16.6666679c0,16.1083336,13.0583344,29.1666679,29.1666679,29.1666679
	s29.1666641-13.0583344,29.1666641-29.1666679V45.875z"/>
</svg>
