<svg id="Layer_4" data-name="Layer 4" xmlns="http://www.w3.org/2000/svg" viewBox="0 0 100 100"><path d="M50.9,3.9A40.6,40.6,0,0,0,10.3,44.5V55.2a10.6,10.6,0,0,0,21.2,0V45.1A10.6,10.6,0,0,0,20.9,34.5a12,12,0,0,0-3.3.5,34.6,34.6,0,0,1,66.5,0,11.4,11.4,0,0,0-3.3-.5A10.5,10.5,0,0,0,70.3,45.1V55.2A10.6,10.6,0,0,0,80.8,65.8a9.9,9.9,0,0,0,3.5-.6C81,75.7,70.1,83.7,56.6,85.6a8.7,8.7,0,0,0-8.2-5.5,8.9,8.9,0,1,0,0,17.8,8.8,8.8,0,0,0,8.5-6.3c19.5-2.5,34.5-16.5,34.5-33.3V44.5A40.6,40.6,0,0,0,50.9,3.9Zm-30,36.6a4.6,4.6,0,0,1,4.6,4.6V55.2a4.7,4.7,0,0,1-4.6,4.6,4.6,4.6,0,0,1-4.6-4.6V45.1A4.5,4.5,0,0,1,20.9,40.5ZM80.8,59.8a4.6,4.6,0,0,1-4.5-4.6V45.1a4.6,4.6,0,1,1,9.1,0V55.2A4.6,4.6,0,0,1,80.8,59.8Z" fill="#484848"/></svg>