<svg id="Layer_4" data-name="Layer 4" xmlns="http://www.w3.org/2000/svg" viewBox="0 0 100 100"><path d="M50,96.6A46.6,46.6,0,1,1,96.6,50,46.6,46.6,0,0,1,50,96.6Zm0-86.2A39.6,39.6,0,1,0,89.6,50,39.7,39.7,0,0,0,50,10.4Z" fill="#000"/><path d="M35.9,34.6A14.8,14.8,0,0,1,39,29.3a13.3,13.3,0,0,1,4.9-3.5,17.3,17.3,0,0,1,6.6-1.3,18.7,18.7,0,0,1,5.9,1A12.4,12.4,0,0,1,61,28.2a11.7,11.7,0,0,1,3.1,4.4,15.1,15.1,0,0,1,1.1,5.9,11.2,11.2,0,0,1-.6,3.8,12.6,12.6,0,0,1-1.3,3.1A17.4,17.4,0,0,1,61.4,48l-2.2,2.3L57,52.4a20.5,20.5,0,0,0-2,2.3,11.5,11.5,0,0,0-1.4,2.7,10.2,10.2,0,0,0-.5,3.2v2.7H47.2V60.1a12.3,12.3,0,0,1,1.1-5,15.4,15.4,0,0,1,2.3-3.7,38.3,38.3,0,0,1,2.8-2.9,38.3,38.3,0,0,0,2.8-2.9,14.2,14.2,0,0,0,2.1-3.3,10,10,0,0,0,.6-4.4,9.2,9.2,0,0,0-2.5-6,8.2,8.2,0,0,0-5.9-2.1,9.9,9.9,0,0,0-4.4.9,8.9,8.9,0,0,0-3,2.4,10.2,10.2,0,0,0-1.8,3.6,21.6,21.6,0,0,0-.5,4.6H34.9A16.5,16.5,0,0,1,35.9,34.6Zm18,33.1v7.8H46.2V67.7Z" fill="#000"/></svg>