<svg id="Layer_4" data-name="Layer 4" xmlns="http://www.w3.org/2000/svg" viewBox="0 0 100 100"><path d="M50,97.7A47.7,47.7,0,1,1,97.7,50,47.8,47.8,0,0,1,50,97.7ZM50,7.3A42.7,42.7,0,1,0,92.7,50,42.7,42.7,0,0,0,50,7.3Z" fill="#3c3d3c"/><path d="M85.2,79.9h-.4C53.4,74.7,25.6,45.5,21.5,13.4a2.5,2.5,0,1,1,4.9-.7C30.3,42.8,56.3,70.1,85.6,75a2.5,2.5,0,0,1-.4,4.9Z" fill="#3c3d3c"/><path d="M47.1,94.6l-4.5-2.2C53.3,71,73.1,56.5,95.6,53.5l.6,5C75.4,61.2,57,74.8,47.1,94.6Z" fill="#3c3d3c"/><path d="M9.5,58.5l-4.6-.3a2.5,2.5,0,1,1,.5-4.9A45.7,45.7,0,0,0,40.9,40.8,44.6,44.6,0,0,0,55.2,6.1a2.6,2.6,0,0,1,2.5-2.6h0a2.5,2.5,0,0,1,2.5,2.4A50,50,0,0,1,44.3,44.5,51.1,51.1,0,0,1,9.5,58.5Z" fill="#3c3d3c"/><path d="M17.7,83.1a2.6,2.6,0,0,1-2.5-2,2.5,2.5,0,0,1,2-2.9A80.6,80.6,0,0,0,52.7,59.9C65.9,48.4,74.9,33.4,78.2,17.7a2.4,2.4,0,0,1,2.9-1.9,2.5,2.5,0,0,1,2,2.9C79.6,35.5,70,51.5,56,63.7A86,86,0,0,1,18.2,83.1Z" fill="#3c3d3c"/></svg>