<svg id="Layer_4" data-name="Layer 4" xmlns="http://www.w3.org/2000/svg" viewBox="0 0 100 100"><path d="M50,7.3A44.3,44.3,0,1,0,94.2,51.6,44.2,44.2,0,0,0,50,7.3Zm3,80.8V84.9H47v3.2A36.7,36.7,0,0,1,13.5,54.6h3.2v-6H13.5A36.7,36.7,0,0,1,47,15v3.2h6V15A36.7,36.7,0,0,1,86.5,48.6H83.3v6h3.2A36.7,36.7,0,0,1,53,88.1Z" fill="#7e7f7f"/><path d="M53,22.5v-.2H47v.2A29.2,29.2,0,1,0,79.1,54.6h.1v-6h-.1A29.3,29.3,0,0,0,53,22.5ZM50,74.8a23.3,23.3,0,0,1-3-46.3V54.6H73A23.1,23.1,0,0,1,50,74.8Z" fill="#7e7f7f"/></svg>