<?xml version="1.0" encoding="utf-8"?>
<!-- Generator: Adobe Illustrator 23.1.0, SVG Export Plug-In . SVG Version: 6.00 Build 0)  -->
<svg version="1.1" id="Layer_4" xmlns="http://www.w3.org/2000/svg" xmlns:xlink="http://www.w3.org/1999/xlink" x="0px" y="0px"
	 viewBox="0 0 100 100" style="enable-background:new 0 0 100 100;" xml:space="preserve">
<style type="text/css">
	.st0{fill:#3C3D3C;}
</style>
<path class="st0" d="M19.9,47.3L64.3,5.6c1.8-1.8,4.9-1.8,6.6,0l0.3,0.2l8.3,8.6c1.8,2,1.6,5-0.2,7l-27,25.3c-2,1.8-2.2,4.9-0.4,6.8
	c0.2,0.2,0.2,0.2,0.4,0.4l27.9,24.4c2,1.8,2.2,4.9,0.4,6.8l-7.9,9c-1.8,2-4.9,2.2-6.8,0.5l-46-40.1c-2-1.8-2.2-4.9-0.4-6.8
	C19.8,47.5,19.8,47.5,19.9,47.3z"/>
</svg>
