<svg id="Layer_4" data-name="Layer 4" xmlns="http://www.w3.org/2000/svg" viewBox="0 0 100 100"><path d="M86,90.7H14A12.3,12.3,0,0,1,1.7,78.5v-51a3.1,3.1,0,0,1,3-3,3,3,0,0,1,3,3v51A6.3,6.3,0,0,0,14,84.7H86a6.3,6.3,0,0,0,6.3-6.2V38.9A6.3,6.3,0,0,0,86,32.6H46.1L27.2,15.8H4.7a3,3,0,0,1,0-6H29.5L48.4,26.6H86A12.3,12.3,0,0,1,98.3,38.9V78.5A12.3,12.3,0,0,1,86,90.7Z" fill="#848483"/><path d="M60.5,61h-21a3,3,0,0,1-3-3,2.9,2.9,0,0,1,3-3h21a2.9,2.9,0,0,1,3,3A3,3,0,0,1,60.5,61Z" fill="#848483"/><path d="M50,71.5a3,3,0,0,1-3-3v-21a3,3,0,0,1,6,0v21A3,3,0,0,1,50,71.5Z" fill="#848483"/></svg>