<svg id="Layer_4" data-name="Layer 4" xmlns="http://www.w3.org/2000/svg" viewBox="0 0 100 100">
<path d="M49.9,90.7H17.7a8.2,8.2,0,0,1-8.2-8.2v-65a8.2,8.2,0,0,1,8.2-8.2H76.9a8.2,8.2,0,0,1,8.2,8.2V40.6a3,3,0,0,0,3,3,2.9,2.9,0,0,0,3-3V17.5A14.2,14.2,0,0,0,76.9,3.3H17.7A14.3,14.3,0,0,0,3.5,17.5v65A14.3,14.3,0,0,0,17.7,96.7H49.9a3,3,0,0,0,3-3A2.9,2.9,0,0,0,49.9,90.7Z" fill="#7e7f7f"/>
<rect x="24.9" y="22.4" width="45.5" height="6" fill="#7e7f7f"/>
<rect x="24.9" y="42.3" width="45.5" height="6" fill="#7e7f7f"/>
<polygon points="88.7 70.6 88.7 55 78.7 55 78.7 70.6 68.5 70.6 83.7 94.5 98.7 70.6 88.7 70.6" fill="#7e7f7f"/>
</svg>