<?xml version="1.0" encoding="utf-8"?>
<!-- Generator: Adobe Illustrator 23.1.1, SVG Export Plug-In . SVG Version: 6.00 Build 0)  -->
<svg version="1.1" id="Layer_1" xmlns="http://www.w3.org/2000/svg" xmlns:xlink="http://www.w3.org/1999/xlink" x="0px" y="0px"
	 width="100px" height="100px" viewBox="0 0 100 100" style="enable-background:new 0 0 100 100;" xml:space="preserve">
<style type="text/css">
	.st0{fill-rule:evenodd;clip-rule:evenodd;fill:#333333;}
	 
</style>
<path class="st0" d="M98.4430923,98.442894c-2.0756073,2.0761414-5.4412308,2.0761414-7.5168381,0L68.5676041,76.0842438
	c-7.2000542,5.5953751-16.2205849,8.959938-26.0453148,8.959938c-23.4844189,0-42.5220909-19.037674-42.5220909-42.5220909
	S19.0378704,0,42.5222893,0s42.5220909,19.037672,42.5220909,42.5220909c0,9.8247299-3.3645554,18.8452606-8.9599304,26.0453148
	l22.3586426,22.3586426C100.5186996,93.0016632,100.5186996,96.3672867,98.4430923,98.442894z M77.0714874,42.5220909
	c0-19.0807247-15.4684715-34.5491982-34.5491982-34.5491982S7.9730916,23.4413662,7.9730916,42.5220909
	s15.4684734,34.5491982,34.5491982,34.5491982S77.0714874,61.6028175,77.0714874,42.5220909z M53.152813,66.8723679V26.5763073
	h10.5943794c0.0122261,0.0159454,0.0239182,0.032423,0.0361443,0.0483685v31.7948303
	C61.0417252,62.0801277,57.3943939,65.0173416,53.152813,66.8723679z M42.5212288,69.0983963
	c-1.8199463,0-3.5968399-0.184967-5.3141975-0.5336533V50.4949837h10.6305199V68.564743
	c-1.7173615,0.3486862-3.4942513,0.5336533-5.3141975,0.5336533H42.5212288z M21.2612457,58.4195061v-21.212677h10.6305218
	v29.6655388C27.6501884,65.0173416,24.0028572,62.0801277,21.2612457,58.4195061z"/>
</svg>
