<?xml version="1.0" encoding="utf-8"?>
<!-- Generator: Adobe Illustrator 23.1.0, SVG Export Plug-In . SVG Version: 6.00 Build 0)  -->
<svg version="1.1" id="Layer_1" xmlns="http://www.w3.org/2000/svg" xmlns:xlink="http://www.w3.org/1999/xlink" x="0px" y="0px"
	 viewBox="0 0 100 100" style="enable-background:new 0 0 100 100;" xml:space="preserve">
<style type="text/css">
	.st0{fill:#80B100;}
</style>
<g>
	<path id="Union_26-2" class="st0" d="M49.3,99C22.9,98.6,1.6,77.4,1,51C0.5,24.6,20.9,2.5,47.2,1c0.7,0,1.5,0.2,2,0.7
		C49.7,2.2,50,3,50,3.7v43.5c0,0.7,0.3,1.3,0.7,1.8c0.5,0.5,1.1,0.7,1.8,0.7h43.8c0.7,0,1.5,0.3,2,0.8c0.5,0.5,0.8,1.2,0.7,2
		C97.7,78.5,76.1,99,50,99H49.3z M63.2,38.8c-0.6,0-1.1-0.2-1.6-0.6c-0.4-0.4-0.6-1-0.6-1.6V4c0-0.7,0.3-1.3,0.8-1.8
		c0.5-0.4,1.2-0.6,1.9-0.5c17.6,3.1,31.4,16.8,34.6,34.4c0.1,0.7-0.1,1.4-0.5,1.9c-0.4,0.5-1.1,0.8-1.8,0.8L63.2,38.8z"/>
</g>
</svg>
