<svg id="Layer_4" data-name="Layer 4" xmlns="http://www.w3.org/2000/svg" viewBox="0 0 100 100"><path d="M98.4,14.6l-26,12.8V20.1a8.7,8.7,0,0,0-8.7-8.7H10.6a8.7,8.7,0,0,0-8.7,8.7V78.4a8.7,8.7,0,0,0,8.7,8.7H63.7a8.7,8.7,0,0,0,8.7-8.7V71l26,12.8Zm-32,63.8a2.7,2.7,0,0,1-2.7,2.7H10.6a2.7,2.7,0,0,1-2.7-2.7V20.1a2.7,2.7,0,0,1,2.7-2.7H63.7a2.7,2.7,0,0,1,2.7,2.7V78.4Zm26-4.3-20-9.8V34.1l20-9.8Z" fill="#696969"/><path d="M25.2,28.6a11,11,0,1,0,10.9,11A11,11,0,0,0,25.2,28.6Zm0,15.9a5,5,0,0,1-5-4.9,5.1,5.1,0,0,1,5-5,5,5,0,0,1,4.9,5A4.9,4.9,0,0,1,25.2,44.5Z" fill="#696969"/></svg>