<svg id="Layer_4" data-name="Layer 4" xmlns="http://www.w3.org/2000/svg" viewBox="-2 -2  104 104">
	
	<g fill="#484848" stroke="#484848" stroke-width="4%" >
		<path d="M.8,59.2a3,3,0,0,0,3,3H33.5L1.7,94.1a2.9,2.9,0,0,0,0,4.2,3,3,0,0,0,2.1.9,2.7,2.7,0,0,0,2.1-.9L37.8,66.5V96.2a3,3,0,0,0,3,3,3.1,3.1,0,0,0,3-3v-40H3.8A3.1,3.1,0,0,0,.8,59.2Z"/>
		<path d="M96.2,37.8H66.5L98.3,5.9a2.9,2.9,0,0,0,0-4.2,2.9,2.9,0,0,0-4.2,0L62.2,33.5V3.8a3,3,0,0,0-3-3,3.1,3.1,0,0,0-3,3v40h40a3.1,3.1,0,0,0,3-3A3,3,0,0,0,96.2,37.8Z"/>
	</g>
</svg>