<svg id="Layer_4" data-name="Layer 4" xmlns="http://www.w3.org/2000/svg" viewBox="0 0 100 100">
	<title>
		icon
	</title>
	<g fill="none" transform="translate(0,0)">
		<path d="M50,97.7A47.7,47.7,0,1,1,97.7,50,47.8,47.8,0,0,1,50,97.7ZM50,7.3A42.7,42.7,0,1,0,92.7,50,42.7,42.7,0,0,0,50,7.3Z" fill="#3c3d3c" />
		<path d="M61,69.4H39a2.6,2.6,0,0,1-2.4-1.7L29.8,46.8a2.5,2.5,0,0,1,.9-2.8L48.5,31a2.7,2.7,0,0,1,3,0L69.3,44a2.5,2.5,0,0,1,.9,2.8L63.4,67.7A2.6,2.6,0,0,1,61,69.4Zm-20.2-5H59.2L64.9,47,50,36.2,35.1,47Z" fill="#3c3d3c" />
		<path d="M50.8,21.9a2.1,2.1,0,0,1-1.7-.7L35.1,8.6a2.5,2.5,0,0,1-.2-3.5,2.6,2.6,0,0,1,3.6-.2L50.9,16.2,65,5.9a2.3,2.3,0,0,1,3.4.5,2.4,2.4,0,0,1-.5,3.5L52.2,21.4A2.4,2.4,0,0,1,50.8,21.9Z" fill="#3c3d3c" />
		<path d="M94.8,54.1a2.7,2.7,0,0,1-1.8-.8L81.9,42.2a2.6,2.6,0,0,1-.5-2.9l6.1-12A2.5,2.5,0,0,1,92,29.6L86.7,40l9.9,9.8a2.6,2.6,0,0,1,0,3.5A2.7,2.7,0,0,1,94.8,54.1Z" fill="#3c3d3c" />
		<path d="M62.9,95.8h-.8a2.5,2.5,0,0,1-1.6-3.1l6.1-18.8A2.5,2.5,0,0,1,69,72.1H87.8a2.5,2.5,0,0,1,0,5h-17l-5.5,17A2.5,2.5,0,0,1,62.9,95.8Z" fill="#3c3d3c" />
		<path d="M34.6,95a2.5,2.5,0,0,1-2.4-1.7L28.1,80.8H14.7a2.5,2.5,0,0,1,0-5H30a2.5,2.5,0,0,1,2.3,1.7L37,91.7a2.5,2.5,0,0,1-1.6,3.2Z" fill="#3c3d3c" />
		<path d="M5.2,54.5l-3-4.1,11.5-8.3L8.9,27.4l4.8-1.5L19,42.3a2.5,2.5,0,0,1-.9,2.8Z" fill="#3c3d3c" />
		<path d="M50,35.6a2.5,2.5,0,0,1-2.5-2.5V19.4a2.5,2.5,0,0,1,5,0V33.1A2.5,2.5,0,0,1,50,35.6Z" fill="#3c3d3c" />
		<path d="M67.8,48.5a2.5,2.5,0,0,1-2.4-1.7A2.6,2.6,0,0,1,67,43.6l15.8-5.5A2.4,2.4,0,0,1,86,39.6a2.5,2.5,0,0,1-1.5,3.2L68.6,48.4Z" fill="#3c3d3c" />
		<path d="M32.2,48.5h-.5l-15.5-3a2.4,2.4,0,0,1-2-2.9,2.4,2.4,0,0,1,2.9-2l15.6,2.9a2.7,2.7,0,0,1,2,3A2.6,2.6,0,0,1,32.2,48.5Z" fill="#3c3d3c" />
		<path d="M30,80.8a2.5,2.5,0,0,1-1.6-.6,2.4,2.4,0,0,1-.4-3.5l9-11.3a2.6,2.6,0,0,1,3.6-.4,2.6,2.6,0,0,1,.4,3.5L31.9,79.8A2.3,2.3,0,0,1,30,80.8Z" fill="#3c3d3c" />
		<path d="M69,77.1a2.4,2.4,0,0,1-1.8-.7l-7.9-7.7a2.4,2.4,0,0,1-.1-3.5,2.5,2.5,0,0,1,3.5-.1l8,7.7a2.6,2.6,0,0,1,.1,3.6A2.6,2.6,0,0,1,69,77.1Z" fill="#3c3d3c" />
		<animateTransform attributeType="xml" attributeName="transform" type="rotate" from="0,50,50" to="360,50,50" dur="3.5s" additive="sum" repeatCount="indefinite" />
	</g>
</svg>
