<?xml version="1.0" encoding="utf-8"?>
<!-- Generator: Adobe Illustrator 23.1.0, SVG Export Plug-In . SVG Version: 6.00 Build 0)  -->
<svg version="1.1" id="Layer_4" xmlns="http://www.w3.org/2000/svg" xmlns:xlink="http://www.w3.org/1999/xlink" x="0px" y="0px"
	 viewBox="0 0 100 100" style="enable-background:new 0 0 100 100;" xml:space="preserve">
<style type="text/css">
	.st0{fill:#3C3D3C;}
</style>
<path class="st0" d="M80.2,52.7L35.8,94.4c-1.8,1.8-4.9,1.8-6.6,0l-0.3-0.2l-8.3-8.6c-1.8-2-1.6-5,0.2-7l27-25.3
	c2-1.8,2.2-4.9,0.4-6.8c-0.2-0.2-0.2-0.2-0.4-0.4L19.8,21.7c-2-1.8-2.2-4.9-0.4-6.8l7.9-9c1.8-2,4.9-2.2,6.8-0.5l46,40.1
	c2,1.8,2.2,4.9,0.4,6.8C80.3,52.5,80.3,52.5,80.2,52.7z"/>
</svg>
