<?xml version="1.0" encoding="utf-8"?>
<!-- Generator: Adobe Illustrator 23.1.0, SVG Export Plug-In . SVG Version: 6.00 Build 0)  -->
<svg version="1.1" id="icon_vs" xmlns="http://www.w3.org/2000/svg" xmlns:xlink="http://www.w3.org/1999/xlink" x="0px" y="0px"
	 viewBox="0 0 100 100" style="enable-background:new 0 0 100 100;" xml:space="preserve">
<style type="text/css">
	.st0{fill:#999999;}
	.st1{enable-background:new    ;}
	.st2{fill:#FFFFFF;}
</style>
<g>
	<path id="Subtraction_1" class="st0" d="M50,99c-13,0-25.5-5.1-34.6-14.4C6.1,75.5,1,63,1,50c0-13,5.1-25.5,14.4-34.6
		C24.5,6.1,37,1,50,1c13,0,25.5,5.1,34.6,14.4C93.9,24.5,99,37,99,50c0,13-5.1,25.5-14.4,34.6C75.5,93.9,63,99,50,99z M50,6.4
		C26,6.5,6.5,26,6.4,50C6.5,74,26,93.5,50,93.6C74,93.5,93.5,74,93.6,50C93.5,26,74,6.5,50,6.4L50,6.4z"/>
	<circle id="Ellipse_8" class="st0" cx="50" cy="50" r="38.1"/>
	<g class="st1">
		<path class="st2" d="M33.5,67.3L23.2,38.6h6.3l7.3,21.2l7-21.2h6.1L39.7,67.3H33.5z"/>
		<path class="st2" d="M51.4,58l5.6-0.5c0.3,1.9,1,3.3,2.1,4.2c1,0.9,2.4,1.3,4.2,1.3c1.9,0,3.3-0.4,4.2-1.2C68.5,61,69,60,69,59
			c0-0.7-0.2-1.3-0.6-1.7c-0.4-0.5-1.1-0.9-2.1-1.2c-0.7-0.2-2.2-0.7-4.6-1.3c-3.1-0.8-5.3-1.7-6.5-2.8c-1.8-1.6-2.6-3.5-2.6-5.8
			c0-1.5,0.4-2.8,1.2-4.1c0.8-1.3,2-2.2,3.6-2.9c1.6-0.7,3.4-1,5.6-1c3.6,0,6.3,0.8,8.1,2.4c1.8,1.6,2.8,3.7,2.9,6.3l-5.8,0.3
			c-0.2-1.5-0.8-2.5-1.6-3.2c-0.8-0.6-2-1-3.7-1c-1.7,0-3,0.3-4,1c-0.6,0.4-0.9,1-0.9,1.8c0,0.7,0.3,1.3,0.9,1.7
			c0.7,0.6,2.5,1.3,5.3,1.9c2.8,0.7,4.9,1.4,6.3,2.1c1.3,0.7,2.4,1.7,3.2,2.9c0.8,1.2,1.1,2.8,1.1,4.6c0,1.6-0.5,3.2-1.4,4.6
			c-0.9,1.4-2.2,2.5-3.9,3.2c-1.7,0.7-3.8,1-6.2,1c-3.6,0-6.4-0.8-8.4-2.5C53,63.6,51.8,61.2,51.4,58z"/>
	</g>
</g>
</svg>
