<svg id="Layer_1" data-name="Layer 1" xmlns="http://www.w3.org/2000/svg" viewBox="0 0 100 100"><title>soccer-icon</title><path d="M50,1.5H47.3a50.5,50.5,0,0,0-5.6.6A48.6,48.6,0,0,0,5.5,69.4c.5.9.9,1.9,1.4,2.8A48,48,0,0,0,27.8,93.1l2.8,1.4A48.6,48.6,0,0,0,98.2,55.7a51.2,51.2,0,0,0,.3-5.6h0A48.5,48.5,0,0,0,50,1.5ZM10.2,72A18.7,18.7,0,0,1,28,89.8,46.1,46.1,0,0,1,10.2,72ZM50,95.5a44.8,44.8,0,0,1-19-4.2v-.8A21.5,21.5,0,0,0,9.5,69H8.7A44.8,44.8,0,0,1,4.5,50,45.6,45.6,0,0,1,38,6.1,39,39,0,0,0,94.5,59.6,45.7,45.7,0,0,1,50,95.5ZM68,67A36,36,0,0,1,43.1,5,53.4,53.4,0,0,1,50,4.5,45.5,45.5,0,0,1,95.5,50c0,1.5-.1,3-.2,4.5A36.2,36.2,0,0,1,68,67Z" style="fill:#7e7e7e"/></svg>