<svg id="Layer_4" data-name="Layer 4" 
    xmlns="http://www.w3.org/2000/svg" viewBox="0 0 100 100">
    
    <polygon points="50 50 50 50 50 50 50 50" fill="#000"/>
    <polygon points="50 50 50 50 50 50 50 50" fill="#000"/>
    <polygon points="50 50 50 50 50 50 50 50" fill="#000"/>
    <polygon points="50 50 50 50 50 50 50 50" fill="#000"/>
    <polygon points="50 50 50 50 50 50 50 50" fill="#000"/>
    <polygon points="50 50 50 50 50 50 50 50" fill="#000"/>
    <path d="M50,50l48.6,6.4A44.9,44.9,0,0,0,99,50H50Z" style="fill:#000;opacity:0.28"/>
    <path d="M98.6,56.5h0L50,50h0L97.3,62.7l.6-2.4.6-3.2A1.3,1.3,0,0,1,98.6,56.5Z" style="fill:#000;opacity:0.32"/>
    <path d="M50,50h0L1.4,43.6A44.9,44.9,0,0,0,1,50H50Z" fill="#000"/>
    <path d="M50,50,2.7,37.3l-.6,2.4-.6,3.2a1.3,1.3,0,0,1-.1.6h0Z" fill="#000"/>
    <path d="M4.7,68.8a61,61,0,0,0,2.9,5.7L50,50h0Z" fill="#000"/>
    <path d="M50,50,2.7,62.7h0a1.4,1.4,0,0,0,.2.6c.3,1.1.6,2.1,1,3.2s.5,1.5.8,2.3Z" fill="#000"/>
    <path d="M50,50H1v.8c0,.8.1,1.6.1,2.4s.1,1.6.2,2.4a2.2,2.2,0,0,1,.1.8Z" fill="#000"/>
    <path d="M50,50,1.4,56.4h0a44,44,0,0,0,1.3,6.3Z" fill="#000"/>
    <path d="M2.7,37.3,50,50,4.7,31.3A38.4,38.4,0,0,0,2.7,37.3Z" fill="#000"/>
    <path d="M50,50,7.6,25.5l-.3.5c-.9,1.7-1.8,3.4-2.6,5.3Z" fill="#000"/>
    <path d="M50,50,7.6,74.5a51.4,51.4,0,0,0,3.2,4.9l.3.4Z" fill="#000"/>
    <path d="M15.4,84.6,50,50,11.1,79.8A38.9,38.9,0,0,0,15.4,84.6Z" style="fill:#000;opacity:0.98"/>
    <path d="M31.2,4.7a61,61,0,0,0-5.7,2.9L50,50h0Z" fill="#000"/>
    <path d="M50,50,37.3,2.7h0l-.7.2-3,1-2.4.8Z" fill="#000"/>
    <path d="M50,50,15.4,84.6a23.9,23.9,0,0,0,2.3,2.2l2.5,2.1Z" style="fill:#000;opacity:0.96"/>
    <path d="M25.5,92.4,50,50,20.2,88.9A37.4,37.4,0,0,0,25.5,92.4Z" style="fill:#000;opacity:0.92"/>
    <path d="M50,50,25.5,7.6a51.4,51.4,0,0,0-4.9,3.2l-.4.3Z" fill="#000"/>
    <path d="M20.2,11.1a38.9,38.9,0,0,0-4.8,4.3L50,50h0Z" fill="#000"/>
    <path d="M50,50,15.4,15.4a23.9,23.9,0,0,0-2.2,2.3l-2.1,2.5Z" fill="#000"/>
    <path d="M7.6,25.5,50,50,11.1,20.2A37.4,37.4,0,0,0,7.6,25.5Z" fill="#000"/>
    <path d="M50,50,43.6,1.4h0a44,44,0,0,0-6.3,1.3Z" fill="#000"/>
    <path d="M50,50V1H46.8l-2.4.2h-.8Z" fill="#000"/>
    <path d="M50,50,25.5,92.4l.5.3c1.7.9,3.4,1.8,5.3,2.6Z" style="fill:#000;opacity:0.88"/>
    <path d="M31.3,95.3a38.4,38.4,0,0,0,6,2L50,50h0Z" style="fill:#000;opacity:0.84"/>
    <path d="M95.3,68.7a38.4,38.4,0,0,0,2-6L50,50h0Z" style="fill:#000;opacity:0.36"/>
    <path d="M50,50,92.4,74.5l.3-.5c.9-1.7,1.8-3.4,2.6-5.3Z" style="fill:#000;opacity:0.4"/>
    <path d="M84.6,84.6,50,50,79.8,88.9A38.9,38.9,0,0,0,84.6,84.6Z" style="fill:#000;opacity:0.52"/>
    <path d="M50,50,74.5,92.4a51.4,51.4,0,0,0,4.9-3.2l.4-.3Z" style="fill:#000;opacity:0.56"/>
    <path d="M50,50,84.6,84.6a23.9,23.9,0,0,0,2.2-2.3l2.1-2.5Z" style="fill:#000;opacity:0.48"/>
    <path d="M88.9,79.8a37.4,37.4,0,0,0,3.5-5.3L50,50h0Z" style="fill:#000;opacity:0.44"/>
    <path d="M74.5,92.4,50,50,68.8,95.3A61,61,0,0,0,74.5,92.4Z" style="fill:#000;opacity:0.6"/>
    <path d="M50,50,62.7,97.3h0l.6-.2,3.2-1,2.3-.8Z" style="fill:#000;opacity:0.64"/>
    <path d="M50,50,37.3,97.3l2.4.6,3.2.6h.7Z" style="fill:#000;opacity:0.8"/>
    <path d="M50,50,43.6,98.6A44.9,44.9,0,0,0,50,99h0Z" style="fill:#000;opacity:0.76"/>
    <path d="M50,50V99h3.2l2.4-.2h.8Z" style="fill:#000;opacity:0.72"/>
    <path d="M50,50h0l6.4,48.6h0a44,44,0,0,0,6.3-1.3Z" style="fill:#000;opacity:0.68"/>
    <polygon points="50 50 50 50 50 50 50 50" fill="#000"/>
    <polygon points="50 50 50 50 50 50 50 50" fill="#000"/>
    <path d="M84.6,15.4,50,50,88.9,20.2A38.9,38.9,0,0,0,84.6,15.4Z" style="fill:#000;opacity:0.04"/>
    <rect x="50" y="50" transform="translate(-19.3 36.1) rotate(-33.7)" fill="#000"/>
    <path d="M50,50h0L92.4,25.5a37.4,37.4,0,0,0-3.2-4.9l-.3-.4Z" style="fill:#000;opacity:0.08"/>
    <path d="M50,50H99v-.8c0-.8-.1-1.6-.1-2.4s-.1-1.6-.2-2.4a2.2,2.2,0,0,1-.1-.8Z" style="fill:#000;opacity:0.24"/>
    <polygon points="50 50 50 50 50 50 50 50 50 50" fill="#000"/>
    <path d="M50,50l48.6-6.4h0a44,44,0,0,0-1.3-6.3Z" style="fill:#000;opacity:0.2"/>
    <path d="M50,50h0L97.3,37.3h0a1.4,1.4,0,0,0-.2-.6c-.3-1.1-.6-2.1-1-3.2s-.5-1.5-.8-2.3Z" style="fill:#000;opacity:0.16"/>
    <path d="M92.4,25.5,50,50,95.3,31.2A61,61,0,0,0,92.4,25.5Z" style="fill:#000;opacity:0.12"/>
</svg>