<svg id="Layer_4" data-name="Layer 4" xmlns="http://www.w3.org/2000/svg" viewBox="0 0 100 100"><path d="M51.5,98.2C24.4,98.2,2.4,75.1,2.4,46.7a5.4,5.4,0,0,1-.1-.8c-.2-4-1-16.4,6.7-18.7s13.1,7.9,16.9,17.2c.6,1.5,1.3,3.2,2.1,4.8,2.5-.3,6.1-1.1,7.2-3.7s.1-20.1-1.2-31.1A11.2,11.2,0,0,1,38.4,4,10.7,10.7,0,0,1,49,2.5a15.3,15.3,0,0,1,4.7,3.2c5.6-1.5,10-1,13.1,1.3a11,11,0,0,1,4,6.1c3.9-.8,7.2-.4,9.8,1.2a11.3,11.3,0,0,1,4.5,5.8c3.7-.3,7.4-.3,10.1,2.4s4.5,9.7,3.7,20.6c-.7,9-1.4,16.6-2.2,22.9a28.1,28.1,0,0,1-7.5,16C79.4,92,65,98.2,51.5,98.2ZM11.4,31.9h-1c-1.5.5-3.8,2.8-3.1,13.6,0,.5.1.9.1,1.1,0,25.7,19.7,46.5,44.1,46.5,12.2,0,25.3-5.6,34.1-14.7a23,23,0,0,0,6.2-13.1c.5-4.2,1.2-11.6,2.1-22.6.7-9,0-14.6-2.1-16.7s-4.2-1.3-8.3-.8A2.6,2.6,0,0,1,80.7,23a6.8,6.8,0,0,0-2.8-4.5c-1.9-1.2-4.7-1.1-8.3.2a2.5,2.5,0,0,1-3.4-2.4s0-3.5-2.4-5.3-5.5-1.5-10.1,0a2.7,2.7,0,0,1-2.8-.9,8.9,8.9,0,0,0-3.8-2.9,5.8,5.8,0,0,0-5.7.7A6.3,6.3,0,0,0,39,13.8c.8,6.8,2.5,29.8.8,33.7s-4.7,5.5-9.4,6.4c.9,1.4,1.9,2.4,2.7,2.5a2.5,2.5,0,1,1-.8,5c-5.1-.8-7.8-7.4-11-15.1S15,31.9,11.4,31.9Z" fill="#3c3d3c"/><path d="M53.7,35.7a2.5,2.5,0,0,1-2.5-2.5V8.6a2.5,2.5,0,0,1,2.5-2.5,2.5,2.5,0,0,1,2.5,2.5V33.2A2.5,2.5,0,0,1,53.7,35.7Z" fill="#3c3d3c"/><path d="M58.1,23.4H49.4a2.5,2.5,0,0,1,0-5h8.7a2.5,2.5,0,0,1,0,5Z" fill="#3c3d3c"/><path d="M67.9,41a2.5,2.5,0,0,1-2.5-2.5V13.9a2.5,2.5,0,0,1,5,0V38.5A2.5,2.5,0,0,1,67.9,41Z" fill="#3c3d3c"/><path d="M72.2,28.7H63.6a2.5,2.5,0,0,1,0-5h8.6a2.5,2.5,0,0,1,0,5Z" fill="#3c3d3c"/><path d="M82,44.7a2.5,2.5,0,0,1-2.5-2.5V20.9a2.5,2.5,0,0,1,5,0V42.2A2.5,2.5,0,0,1,82,44.7Z" fill="#3c3d3c"/><path d="M86.3,35.7H77.7a2.5,2.5,0,1,1,0-5h8.6a2.5,2.5,0,0,1,0,5Z" fill="#3c3d3c"/><path d="M87.4,82.8c-.8,0-2-.9-6.2-4.2a2.5,2.5,0,1,1,3.1-3.9c2.6,2.1,4.4,3.4,4.6,3.5l-1.5,2h0l1.1,2.3A2.3,2.3,0,0,1,87.4,82.8ZM76.5,74.2a2.5,2.5,0,0,1-1.6-.6l-6.2-5.1a2.5,2.5,0,1,1,3.2-3.8c1.9,1.6,3.9,3.3,6.1,5a2.6,2.6,0,0,1,.4,3.6A2.5,2.5,0,0,1,76.5,74.2ZM39.2,66.7a2.5,2.5,0,0,1-.4-4.9,70.3,70.3,0,0,1,8.1-1.2,2.5,2.5,0,0,1,2.7,2.3,2.3,2.3,0,0,1-2.2,2.7c-4.4.5-7.7,1.1-7.7,1.1Zm23.9-.9h-.5a38.8,38.8,0,0,0-7.4-.6,2.5,2.5,0,0,1-.1-5h.1a41.9,41.9,0,0,1,8.4.7,2.6,2.6,0,0,1,2,2.9A2.6,2.6,0,0,1,63.1,65.8Z" fill="#3c3d3c"/><path d="M9.7,32.1a2.5,2.5,0,0,1-2-.9,2.5,2.5,0,0,1,.5-3.5L36.8,5.6a2.5,2.5,0,1,1,3,4l-28.6,22A2.1,2.1,0,0,1,9.7,32.1Z" fill="#3c3d3c"/><path d="M18.5,37.1a2.5,2.5,0,0,1-1.9-.9,2.6,2.6,0,0,1,.4-3.6L35.6,17.9a2.5,2.5,0,1,1,3.1,3.9L20.1,36.6A3,3,0,0,1,18.5,37.1Z" fill="#3c3d3c"/><path d="M23.5,47.5a2.7,2.7,0,0,1-1.9-.8,2.6,2.6,0,0,1,.2-3.6L35.1,31a2.4,2.4,0,0,1,3.5.1,2.5,2.5,0,0,1-.1,3.5L25.2,46.8A2.3,2.3,0,0,1,23.5,47.5Z" fill="#3c3d3c"/></svg>