<svg id="Layer_1" data-name="Layer 1" xmlns="http://www.w3.org/2000/svg" viewBox="0 0 100 100"><title>icon</title><path d="M50,52.6A15.9,15.9,0,0,0,65.8,36.7V28.6a15.8,15.8,0,1,0-31.6,0v8.1A15.9,15.9,0,0,0,50,52.6Zm-10.7-24a10.7,10.7,0,1,1,21.4,0v8.1a10.7,10.7,0,0,1-21.4,0Z" style="fill:#f7921e"/><path d="M50,1A49,49,0,1,0,99,50,49.1,49.1,0,0,0,50,1Zm0,5.1A44,44,0,0,1,93.9,50a43.3,43.3,0,0,1-7.4,24.3c-6.9-9.7-21-15.9-36.5-15.9S20.4,64.6,13.5,74.3A43.3,43.3,0,0,1,6.1,50,44,44,0,0,1,50,6.1Zm0,87.8A43.8,43.8,0,0,1,16.8,78.6C22.3,69.5,35.3,63.5,50,63.5s27.7,6,33.2,15.1A43.8,43.8,0,0,1,50,93.9Z" style="fill:#f7921e"/></svg>