<?xml version="1.0" encoding="utf-8"?>
<!-- Generator: Adobe Illustrator 23.1.0, SVG Export Plug-In . SVG Version: 6.00 Build 0)  -->
<svg version="1.1" id="Layer_1" xmlns="http://www.w3.org/2000/svg" xmlns:xlink="http://www.w3.org/1999/xlink" x="0px" y="0px"
	 viewBox="0 0 100 100" style="enable-background:new 0 0 100 100;" xml:space="preserve">
<style type="text/css">
	.st0{fill:#4C9EEA;}
</style>
<path id="Subtraction_3-2" class="st0" d="M50,99C23,99,1,77,1,50C1,23,23,1,50,1c27,0,49,22,49,49C99,77,77,99,50,99z M40.2,29.5
	c-0.8,0-1.5,0.2-2.2,0.6c-1.3,0.8-2.2,2.2-2.2,3.8v34.8c0.1,2.3,2,4.2,4.3,4.3h0.1c0.8,0,1.6-0.3,2.3-0.7L68.5,55
	c1.3-0.8,2-2.2,2-3.7c0-1.4-0.7-2.7-1.8-3.6L42.7,30.3l0,0c0,0-0.1,0-0.1-0.1l0,0l-0.2-0.1C41.7,29.7,41,29.5,40.2,29.5L40.2,29.5z"
	/>
</svg>
