<svg id="Layer_4" data-name="Layer 4" 
    xmlns="http://www.w3.org/2000/svg" viewBox="0 0 100 100">
    
    <rect x="20.8" y="14.7" width="58.5" height="71.03" fill="#000"/>
    <path d="M84,8.8H16a15,15,0,0,0-15,15V76.2a15,15,0,0,0,15,15H84a15,15,0,0,0,15-15V23.8A15,15,0,0,0,84,8.8ZM50,34A16,16,0,1,0,63.3,59a3.4,3.4,0,0,1,4.8-1,3.6,3.6,0,0,1,1,4.9A23,23,0,1,1,50,27a22.5,22.5,0,0,1,16.1,6.6l5.6-4.1.5,10.7.6,10.7L62.8,47l-9.9-3.9,7.4-5.4A16.1,16.1,0,0,0,50,34Z" fill="#ffffff" fill-opacity="1"/>
</svg>