<?xml version="1.0" encoding="utf-8"?>
<!-- Generator: Adobe Illustrator 23.1.1, SVG Export Plug-In . SVG Version: 6.00 Build 0)  -->
<svg version="1.1" id="Layer_1" xmlns="http://www.w3.org/2000/svg" xmlns:xlink="http://www.w3.org/1999/xlink" x="0px" y="0px"
	 width="100px" height="100px" viewBox="0 0 100 100" style="enable-background:new 0 0 100 100;" xml:space="preserve">
<style type="text/css">
	.st0{fill-rule:evenodd;clip-rule:evenodd;fill:#333333;}
	 
</style>
<g>
	<g>
		<path class="st0" d="M94.7368164,11.8421021H31.5789185c-2.9067993,0-5.2631226,2.3563232-5.2631226,5.2631226v2.6315918
			C26.3157959,22.6436768,28.6721191,25,31.5789185,25h63.1578979C97.6436768,25,100,22.6436768,100,19.7368164v-2.6315918
			C100,14.1984253,97.6436768,11.8421021,94.7368164,11.8421021z M10.5263062,11.8421021H5.2631836
			C2.3563232,11.8421021,0,14.1984253,0,17.1052246v2.6315918C0,22.6436768,2.3563232,25,5.2631836,25h5.2631226
			c2.9068604,0,5.2631836-2.3563232,5.2631836-5.2631836v-2.6315918
			C15.7894897,14.1984253,13.4331665,11.8421021,10.5263062,11.8421021z M94.7368164,75H31.5789185
			c-2.9067993,0-5.2631226,2.3563232-5.2631226,5.2631226v2.6315918c0,2.9068604,2.3563232,5.2631836,5.2631226,5.2631836
			h63.1578979c2.9068604,0,5.2631836-2.3563232,5.2631836-5.2631836v-2.6315918C100,77.3563232,97.6436768,75,94.7368164,75z
			 M10.5263062,75H5.2631836C2.3563232,75,0,77.3563232,0,80.2631226v2.6315918
			c0,2.9068604,2.3563232,5.2631836,5.2631836,5.2631836h5.2631226c2.9068604,0,5.2631836-2.3563232,5.2631836-5.2631836v-2.6315918
			C15.7894897,77.3563232,13.4331665,75,10.5263062,75z M94.7368164,43.4210205H31.5789185
			c-2.9067993,0-5.2631226,2.3563232-5.2631226,5.2631836v2.6315918c0,2.9067993,2.3563232,5.2631226,5.2631226,5.2631226
			h63.1578979c2.9068604,0,5.2631836-2.3563232,5.2631836-5.2631226v-2.6315918
			C100,45.7773438,97.6436768,43.4210205,94.7368164,43.4210205z M10.5263062,43.4210205H5.2631836
			C2.3563232,43.4210205,0,45.7773438,0,48.6842041v2.6315918c0,2.9067993,2.3563232,5.2631226,5.2631836,5.2631226h5.2631226
			c2.9068604,0,5.2631836-2.3563232,5.2631836-5.2631226v-2.6315918
			C15.7894897,45.7773438,13.4331665,43.4210205,10.5263062,43.4210205z"/>
	</g>
</g>
</svg>
