<svg id="Layer_4" data-name="Layer 4" xmlns="http://www.w3.org/2000/svg" viewBox="0 0 100 100"><path d="M50.1,97.7A47.7,47.7,0,1,1,87.8,20.9h0a47.7,47.7,0,0,1-8.7,66.9A47.3,47.3,0,0,1,50.1,97.7ZM49.9,7.3A41.5,41.5,0,0,0,24,16.2,42.6,42.6,0,1,0,76,83.8,42.4,42.4,0,0,0,83.8,24,42.3,42.3,0,0,0,55.5,7.6,52.5,52.5,0,0,0,49.9,7.3Z" fill="#3c3d3c"/><path d="M29,65.9a2.4,2.4,0,0,1-1.5-4.4L43.8,48.9a2.4,2.4,0,0,1,3.5.4,2.5,2.5,0,0,1-.5,3.5L30.5,65.4A2.3,2.3,0,0,1,29,65.9Z" fill="#3c3d3c"/><path d="M35.1,73.9a2.5,2.5,0,0,1-1.5-4.5L47.8,58.5a2.5,2.5,0,0,1,3.5.5,2.4,2.4,0,0,1-.4,3.5L36.7,73.4A2.4,2.4,0,0,1,35.1,73.9Z" fill="#3c3d3c"/><path d="M23.3,58.6a2.6,2.6,0,0,1-2-1,2.5,2.5,0,0,1,.5-3.5L36,43.1a2.5,2.5,0,0,1,3.1,4L24.8,58A2.2,2.2,0,0,1,23.3,58.6Z" fill="#3c3d3c"/><path d="M36.3,85.8a2.5,2.5,0,0,1-1.6-4.5L51.1,68.7a2.5,2.5,0,0,1,3,4L37.8,85.3A3,3,0,0,1,36.3,85.8Z" fill="#3c3d3c"/><path d="M47.2,95.6,42.5,94a34.5,34.5,0,0,0-4.9-32.2A34.5,34.5,0,0,0,5.3,49.1l-.8-4.9A38.7,38.7,0,0,1,47.2,95.6Z" fill="#3c3d3c"/><path d="M50.9,49.1a2.3,2.3,0,0,1-2-1,2.4,2.4,0,0,1,.4-3.5L65.7,32a2.5,2.5,0,1,1,3,4L52.4,48.6A3,3,0,0,1,50.9,49.1Z" fill="#3c3d3c"/><path d="M59.1,55.5a2.8,2.8,0,0,1-2-1,2.5,2.5,0,0,1,.5-3.5L71.8,40a2.5,2.5,0,0,1,3.5.5,2.4,2.4,0,0,1-.4,3.5L60.6,55A2.7,2.7,0,0,1,59.1,55.5Z" fill="#3c3d3c"/><path d="M47.3,40.1a2.3,2.3,0,0,1-2-1,2.5,2.5,0,0,1,.5-3.5L60,24.7a2.4,2.4,0,0,1,3.5.4,2.5,2.5,0,0,1-.5,3.5l-14.2,11A3,3,0,0,1,47.3,40.1Z" fill="#3c3d3c"/><path d="M68.2,61.2a2.5,2.5,0,0,1-2-.9,2.4,2.4,0,0,1,.4-3.5L83,44.2a2.4,2.4,0,0,1,3.5.4,2.5,2.5,0,0,1-.5,3.5L69.7,60.7A2.3,2.3,0,0,1,68.2,61.2Z" fill="#3c3d3c"/><path d="M90.4,60A38.8,38.8,0,0,1,59.5,45C50.9,33.9,49.2,18.8,54.8,5.5l4.6,2c-4.9,11.6-3.4,24.8,4,34.4a34.3,34.3,0,0,0,29.9,13l.3,5Z" fill="#3c3d3c"/></svg>