<?xml version="1.0" encoding="utf-8"?>
<!-- Generator: Adobe Illustrator 23.1.0, SVG Export Plug-In . SVG Version: 6.00 Build 0)  -->
<svg version="1.1" id="Layer_1" xmlns="http://www.w3.org/2000/svg" xmlns:xlink="http://www.w3.org/1999/xlink" x="0px" y="0px"
	 viewBox="0 0 100 100" style="enable-background:new 0 0 100 100;" xml:space="preserve">
<style type="text/css">
	.st0{fill:#FFFFFF;}
</style>
<g>
	<path class="st0" d="M32.3,75.8c-1.8,0-3.3-1.1-3.9-2.7l-8.3-22.7L15,54.9c-0.8,0.9-2,1.5-3.2,1.5H0v-5.1h8.9l9.5-11.6
		c0.9-1.2,2.5-1.6,3.9-1.4c1.4,0.2,2.7,1.3,3.2,2.6l6.1,16.7l7.3-30.2c0.5-1.8,2-3.1,3.9-3.2c1.9-0.1,3.5,1.1,4.1,2.8l8.6,25.7
		l5.9-6.6c0.8-0.9,2.1-1.4,3.4-1.4c1.3,0.1,2.5,0.8,3.2,1.9l7.4,11.3l6.8-5.4c0.8-0.8,1.8-1.2,2.8-1.2h15v5.1H87.4L77.3,67.3
		c-0.8,0.9-2.1,1.3-3.3,1.2c-1.3-0.1-2.4-0.8-3.1-1.9l-7.3-11.2l-7.1,7.9c-0.9,1.1-2.5,1.5-3.9,1.3c-1.4-0.4-2.6-1.3-3.1-2.7
		l-6.2-18.8l-7.1,29.5c-0.5,1.8-2,3.1-3.8,3.2C32.5,75.8,32.4,75.8,32.3,75.8z"/>
</g>
</svg>
