<svg id="Layer_4" data-name="Layer 4" 
    xmlns="http://www.w3.org/2000/svg" viewBox="0 0 100 100">
    <path d="M23.6,50A26.4,26.4,0,0,1,46.5,23.8V1H12.1A11.1,11.1,0,0,0,1,12.1V87.9A11.1,11.1,0,0,0,12.1,99H46.5V76.2A26.4,26.4,0,0,1,23.6,50Z" fill="#7e7f7f"/>
    <path d="M69.4,50A19.3,19.3,0,0,0,53.5,30.9V69.1A19.3,19.3,0,0,0,69.4,50Z" fill="#7e7f7f"/>
    <path d="M84,1H53.5V23.8a26.4,26.4,0,0,1,0,52.4V99H87.9A11.1,11.1,0,0,0,99,87.9V16A15,15,0,0,0,84,1Z" fill="#7e7f7f"/>
    <path d="M30.6,50A19.3,19.3,0,0,0,46.5,69.1V30.9A19.3,19.3,0,0,0,30.6,50Z" fill="#7e7f7f"/>
</svg>