<?xml version="1.0" encoding="utf-8"?>
<!-- Generator: Adobe Illustrator 23.1.1, SVG Export Plug-In . SVG Version: 6.00 Build 0)  -->
<svg version="1.1" id="Layer_1" xmlns="http://www.w3.org/2000/svg" xmlns:xlink="http://www.w3.org/1999/xlink" x="0px" y="0px"
	 width="100px" height="100px" viewBox="0 0 100 100" style="enable-background:new 0 0 100 100;" xml:space="preserve">
<style type="text/css">
	.st0{fill-rule:evenodd;clip-rule:evenodd;fill:#333333;}
	 
</style>
<path class="st0" d="M55.2631569,83.7921066v5.6815796h15.7894783c2.9068375,0,5.2631531,2.3563156,5.2631531,5.2631531
	c0,2.9068451-2.3563156,5.2631607-5.2631531,5.2631607H28.9473686c-2.9068432,0-5.2631588-2.3563156-5.2631588-5.2631607
	c0-2.9068375,2.3563156-5.2631531,5.2631588-5.2631531h15.7894745v-5.6815796
	c-17.8473701-2.5599976-31.578949-17.8684235-31.578949-36.423687v-2.6315765c0-2.9068413,2.3563156-5.2631607,5.2631578-5.2631607
	s5.2631569,2.3563194,5.2631569,5.2631607v2.6315765c0,14.5336838,11.7821064,26.3157921,26.3157902,26.3157921
	s26.3157883-11.7821083,26.3157883-26.3157921v-2.6315765c0-2.9068413,2.3563156-5.2631607,5.2631607-5.2631607
	c2.9068375,0,5.2631531,2.3563194,5.2631531,5.2631607v2.6315765C86.8421021,65.9236832,73.110527,81.2321091,55.2631569,83.7921066
	z M50,68.421051c-11.6268425,0-21.0526314-9.4257889-21.0526314-21.0526314V36.8421059h10.5263138v-5.2631588H28.9473686v-5.2631569
	h10.5263138v-5.2631588H28.9473686l0,0C28.9473686,9.4257898,38.3731575,0,50,0s21.0526352,9.4257898,21.0526352,21.0526314l0,0
	H60.5263176v5.2631588h10.5263176v5.2631569H60.5263176v5.2631588h10.5263176v10.5263138
	C71.0526352,58.9952621,61.6268425,68.421051,50,68.421051z"/>
</svg>
