<?xml version="1.0" encoding="utf-8"?>
<!-- Generator: Adobe Illustrator 23.1.0, SVG Export Plug-In . SVG Version: 6.00 Build 0)  -->
<svg version="1.1" id="screen_live" xmlns="http://www.w3.org/2000/svg" xmlns:xlink="http://www.w3.org/1999/xlink" x="0px"
	 y="0px" viewBox="0 0 100 100" style="enable-background:new 0 0 100 100;" xml:space="preserve">
<style type="text/css">
	.st0{fill:#FFFFFF;}
</style>
<path class="st0" d="M89.5,12H10.3C5,12.2,0.8,16.6,1,21.9v56.1c-0.2,5.3,4,9.8,9.3,10H50h0h39.5c5.3-0.2,9.5-4.6,9.3-10V21.9
	C99,16.6,94.8,12.2,89.5,12z M93.8,68.1h-8.2h0c-2.3,0-4.2-1.9-4.2-4.2V36.1c0-2.3,1.9-4.2,4.2-4.2h8.2V68.1z M50,55.4
	c-3.5,0-6.4-2.9-6.3-6.5c0-3.5,2.9-6.4,6.5-6.3v0c3.5,0,6.3,2.9,6.3,6.4c0,0,0,0.1,0,0.1C56.5,52.6,53.6,55.4,50,55.4z M6.1,31.9
	h8.4h0c2.3,0,4.2,1.9,4.2,4.2v27.8c0,2.3-1.9,4.2-4.2,4.2H6.1V31.9z M6.1,78.1v-4.5h8.4c5.2-0.1,9.4-4.4,9.3-9.7V36.1
	c0.1-5.2-4.1-9.6-9.3-9.7H6.1v-4.5c-0.1-2.4,1.8-4.4,4.2-4.5h37.2v20.8c0,0.1,0,0.3,0,0.4c-4.7,1.2-8.2,5.4-8.1,10.5
	c0.1,5,3.5,9.1,8.2,10.2c0,0.2-0.1,0.4,0,0.6v22.6H10.3C7.9,82.5,6,80.5,6.1,78.1z M89.5,82.6h-37V60c0-0.1,0-0.2,0-0.3
	c0-0.1,0-0.2,0-0.2c4.7-1.1,8.2-5.3,8.2-10.4c0,0,0-0.1,0-0.1c-0.1-5-3.5-9.1-8.2-10.2c0-0.1,0-0.3,0-0.4V17.4h37
	c2.4,0.1,4.3,2.1,4.2,4.5v4.5h-8.2c-5.2,0.1-9.4,4.4-9.3,9.7v27.8c-0.1,5.2,4.1,9.6,9.3,9.7h8.2v4.5C93.8,80.5,92,82.5,89.5,82.6z"
	/>
</svg>
