<svg id="Layer_4" data-name="Layer 4" xmlns="http://www.w3.org/2000/svg" viewBox="0 0 100 100"><path d="M50,97.7A47.7,47.7,0,1,1,97.7,50,47.8,47.8,0,0,1,50,97.7ZM50,7.3A42.7,42.7,0,1,0,92.7,50,42.7,42.7,0,0,0,50,7.3Z" fill="#3c3d3c"/><path d="M58.1,73.8h-.7a2.4,2.4,0,0,1-1.6-3.1l4.9-15.5-15.9-.2a2.4,2.4,0,0,1-2.2-1.4,2.5,2.5,0,0,1,.2-2.5L53.1,36.3l-8.7-4.7-10.3,6a2.5,2.5,0,0,1-3.4-.9,2.6,2.6,0,0,1,.9-3.5l11.5-6.6a2.5,2.5,0,0,1,2.5,0L58,33.2a2.2,2.2,0,0,1,1.2,1.6,2,2,0,0,1-.4,2L49.6,50l14.6.2a2.6,2.6,0,0,1,2,1,2.7,2.7,0,0,1,.3,2.3l-6,18.6A2.5,2.5,0,0,1,58.1,73.8Z" fill="#3c3d3c"/><path d="M26.4,79.6a2.5,2.5,0,0,1-1.8-.8,2.5,2.5,0,0,1,.2-3.6l14-12.5V58.4a2.5,2.5,0,1,1,5,0v5.4a2.3,2.3,0,0,1-.8,1.8L28.1,78.9A2.3,2.3,0,0,1,26.4,79.6Z" fill="#3c3d3c"/><path d="M69.1,41.7H62.8a2.5,2.5,0,0,1,0-5h4.9l5.4-9.2A2.5,2.5,0,0,1,77.4,30L71.3,40.4A2.6,2.6,0,0,1,69.1,41.7Z" fill="#3c3d3c"/><circle cx="62.8" cy="24.8" r="5.5" fill="#3c3d3c"/></svg>