<svg id="Layer_4" data-name="Layer 4" xmlns="http://www.w3.org/2000/svg" viewBox="0 0 100 100"><path d="M98,23.6a10.4,10.4,0,0,0-1-4.3h.1l-.3-.4a9.5,9.5,0,0,0-3.3-3.3l-.6-.7-.2.2a9.6,9.6,0,0,0-4.2-1h-77a9.6,9.6,0,0,0-4.2,1l-.2-.2-.6.7a9.5,9.5,0,0,0-3.3,3.3l-.3.4H3a10.4,10.4,0,0,0-1,4.3V76.7A10.4,10.4,0,0,0,3,81H2.9l.3.4a10.7,10.7,0,0,0,3.3,3.4l.6.6.2-.2a9.6,9.6,0,0,0,4.2,1h77a9.6,9.6,0,0,0,4.2-1l.2.2.6-.6a10.7,10.7,0,0,0,3.3-3.4l.3-.4H97a10.4,10.4,0,0,0,1-4.3ZM87.5,20.1,50,55.9,12.5,20.1ZM8,24.1,35.3,50.2,8,76.2Zm4.5,56.1L39.7,54.3,50,64.2l10.3-9.9L87.5,80.2Zm52.2-30L92,24.1V76.2Z" fill="#7e7f7f"/></svg>