<svg id="Layer_4" data-name="Layer 4" xmlns="http://www.w3.org/2000/svg" viewBox="0 0 100 100"><rect x="52.9" y="14.6" width="21.8" height="35.51" fill="#7e7f7f"/><polygon points="19.4 53.1 19.4 14.6 1 14.6 1 85.3 19.4 85.3 19.4 53.1" fill="#7e7f7f"/><polygon points="47.1 8.8 47.1 1 1 1 1 8.8 22.3 8.8 47.1 8.8" fill="#7e7f7f"/><polygon points="80.6 53.1 80.6 85.3 99 85.3 99 14.6 80.6 14.6 80.6 53.1" fill="#7e7f7f"/><polygon points="77.7 8.8 99 8.8 99 1 52.9 1 52.9 8.8 77.7 8.8" fill="#7e7f7f"/><rect x="25.2" y="14.6" width="21.8" height="35.51" fill="#7e7f7f"/><polygon points="52.9 91.2 52.9 99 99 99 99 91.2 77.7 91.2 52.9 91.2" fill="#7e7f7f"/><rect x="52.9" y="56" width="21.8" height="29.32" fill="#7e7f7f"/><rect x="25.2" y="56" width="21.8" height="29.32" fill="#7e7f7f"/><polygon points="22.3 91.2 1 91.2 1 99 47.1 99 47.1 91.2 22.3 91.2" fill="#7e7f7f"/></svg>