<?xml version="1.0" encoding="utf-8"?>
<!-- Generator: Adobe Illustrator 23.1.0, SVG Export Plug-In . SVG Version: 6.00 Build 0)  -->
<svg version="1.1" id="icon_score" xmlns="http://www.w3.org/2000/svg" xmlns:xlink="http://www.w3.org/1999/xlink" x="0px" y="0px"
	 viewBox="0 0 100 100" style="enable-background:new 0 0 100 100;" xml:space="preserve">
<style type="text/css">
	.st0{fill:#999999;}
</style>
<path id="iconmonstr-trophy-3" class="st0" d="M99,13.2c-1.5,16.8-11.5,33-28.1,38.5c1.2-2.2,2.4-4.7,3.6-7.3
	c9.6-5.3,16.3-14.7,18.2-25.5h-11c0.2-1.8,0.4-3.8,0.6-5.7L99,13.2L99,13.2z M1,13.2c1.5,16.8,11.5,33,28.1,38.5
	c-1.2-2.2-2.4-4.7-3.6-7.3C15.8,39.2,9.1,29.8,7.2,19h11c-0.2-1.8-0.4-3.8-0.6-5.7L1,13.2L1,13.2z M78.6,5.1
	c0,40-20.8,53.3-22.8,69.4H44.3c-2-16.1-22.9-29.4-22.9-69.4H78.6z M48.8,58.4c-7.3-13.9-11-29.4-10.8-45.1H31
	C31.6,29.9,37.9,45.8,48.8,58.4z M55.9,78.6H44.2c-0.8,4.8-2.6,10.7-10.5,10.7v5.6h32.7v-5.6C58.2,89.3,56.7,83.4,55.9,78.6
	L55.9,78.6z"/>
</svg>
