<svg id="Layer_4" data-name="Layer 4" xmlns="http://www.w3.org/2000/svg" viewBox="0 0 100 100"><path d="M37.9,8.6H62.1a3,3,0,0,0,3-3,3.1,3.1,0,0,0-3-3H37.9a3.1,3.1,0,0,0-3,3A3,3,0,0,0,37.9,8.6Z" fill="#7e7f7f"/><path d="M22.2,37.6a3,3,0,0,0,3,3H74.9a2.9,2.9,0,0,0,3-3,3,3,0,0,0-3-3H25.2A3.1,3.1,0,0,0,22.2,37.6Z" fill="#7e7f7f"/><path d="M74.9,59.2H25.2a3.1,3.1,0,0,0-3,3,3,3,0,0,0,3,3H74.9a2.9,2.9,0,0,0,3-3A3,3,0,0,0,74.9,59.2Z" fill="#7e7f7f"/><path d="M80,2.6h-.6a3.1,3.1,0,0,0-3,3,3,3,0,0,0,3,3H80a7.8,7.8,0,0,1,7.8,7.8V83.6A7.8,7.8,0,0,1,80,91.4H20a7.8,7.8,0,0,1-7.8-7.8V16.4A7.8,7.8,0,0,1,20,8.6h.6a3,3,0,0,0,3-3,3.1,3.1,0,0,0-3-3H20A13.8,13.8,0,0,0,6.2,16.4V83.6A13.8,13.8,0,0,0,20,97.4H80A13.8,13.8,0,0,0,93.8,83.6V16.4A13.8,13.8,0,0,0,80,2.6Z" fill="#7e7f7f"/></svg>