<?xml version="1.0" encoding="utf-8"?>
<!-- Generator: Adobe Illustrator 23.1.1, SVG Export Plug-In . SVG Version: 6.00 Build 0)  -->
<svg version="1.1" id="Layer_1" xmlns="http://www.w3.org/2000/svg" xmlns:xlink="http://www.w3.org/1999/xlink" x="0px" y="0px"
	 width="100px" height="100px" viewBox="0 0 100 100" style="enable-background:new 0 0 100 100;" xml:space="preserve">
<style type="text/css">
	.st0{fill-rule:evenodd;clip-rule:evenodd;fill:#333333;}
	 
</style>
<path class="st0" d="M71.0526352,100c-18.8942146,0-28.9473724-3.5347366-28.9473724-7.8947372V76.3157883
	c0-12.6115761,8.8768425-23.1389465,20.7194748-25.7057877c-6.0215797-3.0294762-10.1931572-9.1989479-10.1931572-16.3994751
	c0-10.1736832,8.2473679-18.421051,18.4210548-18.421051s18.421051,8.2473688,18.421051,18.421051
	c0,7.2005272-4.1715775,13.3699989-10.193161,16.3994751C91.1231613,53.1768417,100,63.7042122,100,76.3157883v15.7894745
	C100,96.4652634,89.9468384,100,71.0526352,100z M54.5594749,47.734211
	C44.091053,52.639473,36.8421059,63.0805244,36.8421059,75.2078934v8.7631607
	c-2.4373703,0.150528-5.0531578,0.2394714-7.8947372,0.2394714C10.0531578,84.2105255,0,80.6757889,0,76.3157883V60.5263176
	c0-12.5800018,8.833684-23.082634,20.6321049-25.6831589c-5.9910526-3.0405273-10.1057892-9.2442112-10.1057892-16.4221058
	C10.5263157,8.2473688,18.7736835,0,28.9473686,0s18.421051,8.2473688,18.421051,18.4210529
	c0,7.1778946-4.1147346,13.3815784-10.1057892,16.4221058C44.7021065,36.4826317,50.9484215,41.2715797,54.5594749,47.734211z"/>
</svg>
