<svg id="Layer_1" data-name="Layer 1" 
    xmlns="http://www.w3.org/2000/svg" viewBox="0 0 100 100">
    <path d="M98.9,47.4A48.9,48.9,0,0,0,50,1h0a48.3,48.3,0,0,0-9.4.9,49.1,49.1,0,0,0-36,66.6c.7,1.6,1.4,3.2,2.2,4.7a49.4,49.4,0,0,0,20,20l4.7,2.2a49,49,0,0,0,67-38.6A50.6,50.6,0,0,0,99,50,21.7,21.7,0,0,0,98.9,47.4ZM50,7A43.1,43.1,0,0,1,93,50a38.1,38.1,0,0,1-.4,5.9A35,35,0,0,1,41.8,7.8,44.7,44.7,0,0,1,50,7ZM14.1,73.6A17.7,17.7,0,0,1,26.4,85.9,42.4,42.4,0,0,1,14.1,73.6ZM50,93a42.4,42.4,0,0,1-18.1-4A22.4,22.4,0,0,0,11,68.1,42.4,42.4,0,0,1,7,50,43.1,43.1,0,0,1,33.9,10.1,40,40,0,0,0,68,71a39.7,39.7,0,0,0,22.7-7.1A43.2,43.2,0,0,1,50,93Z" fill="#7e7e7e"/>
</svg>