<?xml version="1.0" encoding="utf-8"?>
<!-- Generator: Adobe Illustrator 23.1.1, SVG Export Plug-In . SVG Version: 6.00 Build 0)  -->
<svg version="1.1" id="Layer_1" xmlns="http://www.w3.org/2000/svg" xmlns:xlink="http://www.w3.org/1999/xlink" x="0px" y="0px"
	 width="100px" height="100px" viewBox="0 0 100 100" style="enable-background:new 0 0 100 100;" xml:space="preserve">
<style type="text/css">
	.st0{fill-rule:evenodd;clip-rule:evenodd;fill:#333333;}
	 
</style>
<g>
	<g>
		<path class="st0" d="M88.4223022,19.4252319l-15.6950073,7.8474731v-4.5454712
			c0-5.020874-4.0700073-9.0908813-9.0909424-9.0908813H9.0908813C4.0700073,13.6363525,0,17.7063599,0,22.7272339v54.5454712
			c0,5.0209351,4.0700073,9.0909424,9.0908813,9.0909424h54.5454712c5.0209351,0,9.0909424-4.0700073,9.0909424-9.0909424
			v-4.5454712l15.6950073,7.8475342C93.7415161,83.234375,100,79.366394,100,73.4193726V26.5806274
			C100,20.6335449,93.7415161,16.765625,88.4223022,19.4252319z M63.6363525,72.7272339
			c0,2.510498-2.0349731,4.5454712-4.5454712,4.5454712H13.6363525c-2.510437,0-4.5454712-2.0349731-4.5454712-4.5454712V27.2727051
			c0-2.510437,2.0350342-4.5454712,4.5454712-4.5454712h45.4545288c2.510498,0,4.5454712,2.0350342,4.5454712,4.5454712V72.7272339z
			 M90.9091187,69.4912109c0,1.4867554-1.5646362,2.4537354-2.8944702,1.7888184l-15.2873535-7.6436768V36.3636475
			l15.2873535-7.6437378c1.329834-0.664856,2.8944702,0.302124,2.8944702,1.7888794V69.4912109z M25,31.8181763
			c-3.7654419,0-6.8181763,3.0527344-6.8181763,6.8181763S21.2345581,45.4545288,25,45.4545288
			s6.8181763-3.0527344,6.8181763-6.8181763S28.7654419,31.8181763,25,31.8181763z"/>
	</g>
</g>
</svg>
