<svg id="Layer_4" data-name="Layer 4" xmlns="http://www.w3.org/2000/svg" viewBox="0 0 100 100"><path d="M97.4,24.8v-.2c0-.2-.1-.4-.1-.6h-.1c0-.2-.1-.3-.2-.5h-.1l-.3-.5a.1.1,0,0,0-.1-.1l-.4-.4a.1.1,0,0,1-.1-.1l-.4-.2h-.2L51.5,1.9a3.7,3.7,0,0,0-2.9,0l-44,20H4.4l-.4.2a.1.1,0,0,1-.1.1l-.4.4c-.1,0-.1,0-.1.1l-.3.5H3c-.1.2-.2.3-.2.5H2.7c0,.2-.1.4-.1.6V74.9a3.5,3.5,0,0,0,2,3.2l44,20h0l.5.2h1.8l.5-.2h.1l43.9-20a3.5,3.5,0,0,0,2-3.2V24.8ZM50,8.9,86.2,25.4,50,46,13.8,25.4ZM9.6,31.1l14.5,8.2v18l7,3.6V43.3L46.5,52V89.5L9.6,72.7ZM53.5,89.5V52L90.4,31.1V72.7Z" fill="#7e7f7f"/></svg>