<svg xmlns="http://www.w3.org/2000/svg" width="46.602" height="52.373" viewBox="0 0 46.602 52.373"><g transform="translate(-6.4 -1.002)"><path d="M22.311,29.2c-.011.123-.021.246-.021.374v21.18a4.071,4.071,0,0,0,4.04,4.115h.16v8.375a3.26,3.26,0,0,0,6.52,0V54.869h8.182v8.375a3.26,3.26,0,1,0,6.52,0V54.869h.16a4.067,4.067,0,0,0,4.04-4.115V29.574c0-.128-.005-.251-.016-.374H22.311Z" transform="translate(-7.398 -13.128)" fill="#9fa7b4"/><path d="M9.66,32.73A3.259,3.259,0,0,0,6.4,35.99V49.971a3.26,3.26,0,0,0,6.52,0V35.99a3.259,3.259,0,0,0-3.26-3.26Z" transform="translate(0 -14.772)" fill="#9fa7b4"/><path d="M84.66,32.73a3.259,3.259,0,0,0-3.26,3.26V49.971a3.26,3.26,0,1,0,6.52,0V35.99a3.259,3.259,0,0,0-3.26-3.26Z" transform="translate(-34.918 -14.772)" fill="#9fa7b4"/><path d="M51.893,14.682a11.813,11.813,0,0,0-3.474-8.1L51.2,1.765a.509.509,0,1,0-.882-.508L47.66,5.864a15.587,15.587,0,0,0-8.823-3.725H35.561a15.587,15.587,0,0,0-8.818,3.725L24.081,1.257a.509.509,0,1,0-.882.508l2.784,4.821a11.8,11.8,0,0,0-3.474,8.1H51.893ZM42.038,8.852a1.684,1.684,0,0,1,3.367-.011v.011a1.684,1.684,0,0,1-3.367.011V8.852Zm-12.586,0a1.687,1.687,0,0,1,3.372-.011v.011a1.687,1.687,0,0,1-3.372.011V8.852Z" transform="translate(-7.5 0)" fill="#9fa7b4"/></g></svg>