<?xml version="1.0" encoding="utf-8"?>
<!-- Generator: Adobe Illustrator 23.0.3, SVG Export Plug-In . SVG Version: 6.00 Build 0)  -->
<svg version="1.1" id="Layer_1" xmlns="http://www.w3.org/2000/svg" xmlns:xlink="http://www.w3.org/1999/xlink" x="0px" y="0px"
	 width="178.58426px" height="70px" viewBox="0 0 178.58426 70" style="enable-background:new 0 0 178.58426 70;"
	 xml:space="preserve">
<style type="text/css">
	.st0{fill:#999999;}
	.st1{fill:#999999;}
	.st2{fill:#999999;}
	.st3{fill:#999999;}
	.st4{fill:#999999;}
	.st5{fill:#999999;}
	.st6{fill:#999999;}
	.st7{fill:#999999;}
	.st8{fill:#999999;}
	.st9{fill:#999999;}
	.st10{fill#999999;}
	.st11{fill-rule:evenodd;clip-rule:evenodd;fill:#999999;}
	.st12{fill-rule:evenodd;clip-rule:evenodd;fill:#999999;}
	.st13{fill-rule:evenodd;clip-rule:evenodd;fill:#999999;}
	.st14{fill:#999999;}
	.st15{fill:#999999;}
	.st16{fill:#999999;}
	.st17{fill:#999999;}
	.st18{fill:#999999;}
</style>
<g>
	<path class="st1" d="M30.59734,24.05185H17.33386l-1.40071,4.21791c0.62156-0.06736,1.19119-0.12707,1.70834-0.17766
		c0.5169-0.05088,1.04642-0.07648,1.58852-0.07648c1.9313,0,3.6669,0.33914,5.20845,1.01653
		c1.54056,0.67798,2.80014,1.60951,3.7784,2.79488c0.97723,1.18625,1.65907,2.60928,2.04587,4.2688
		c0.38606,1.6604,0.40683,3.47316,0.06219,5.4374c-0.36266,2.06689-1.07057,3.93054-2.12415,5.59006
		c-1.05374,1.6604-2.37748,3.07431-3.97149,4.24321c-1.59454,1.1686-3.4458,2.06689-5.55438,2.69341
		c-2.10917,0.62651-4.38286,0.94006-6.82213,0.94006c-2.30426,0-4.44831-0.27943-6.43362-0.83829
		C3.43364,53.60224,1.62732,52.74748,0,51.59505l3.11424-9.35029c1.43796,1.45715,2.9711,2.56634,4.59955,3.32844
		c1.62722,0.7624,3.2375,1.1436,4.83025,1.1436c2.03277,0,3.73797-0.55033,5.11744-1.65158
		c1.37849-1.10065,2.21113-2.46486,2.49643-4.09084c0.33283-1.89688-0.19465-3.43022-1.58142-4.59911
		c-1.38795-1.1689-3.36881-1.75305-5.94309-1.75305c-1.15213,0-2.35974,0.12677-3.62412,0.38091
		c-1.26408,0.25414-2.53703,0.65269-3.81741,1.19419l6.81255-20.581h21.8802L30.59734,24.05185z"/>
	<path class="st1" d="M63.02528,15.61632L49.95673,28.1174h0.20325c1.049-0.57562,1.88966-0.92271,2.5206-1.04183
		c0.63049-0.11824,1.18242-0.17766,1.65716-0.17766c1.86276,0,3.51165,0.35561,4.94543,1.06713
		c1.43295,0.71122,2.61765,1.68569,3.55286,2.92195c0.93418,1.23713,1.57805,2.68546,1.93073,4.34498
		c0.35199,1.6601,0.36228,3.43874,0.0294,5.33592c-0.35663,2.03248-1.06137,3.92172-2.11217,5.66595
		c-1.05189,1.7454-2.39533,3.26991-4.0295,4.57381c-1.63515,1.3045-3.51723,2.32985-5.64656,3.07461
		c-2.13021,0.74475-4.44815,1.11772-6.95507,1.11772c-2.54075,0-4.74545-0.37297-6.61343-1.11772
		c-1.86857-0.74475-3.39267-1.76129-4.57205-3.04931c-1.18042-1.28714-1.99332-2.78635-2.43786-4.49734
		c-0.44552-1.7104-0.49828-3.53199-0.15947-5.46299c0.38036-2.16779,1.27473-4.51411,2.68324-7.03809
		c1.40846-2.52369,3.3255-5.00561,5.75275-7.44488l10.78351-10.77332H63.02528z M42.14642,40.77113
		c-0.15462,0.88123-0.12954,1.70217,0.07583,2.46457c0.20448,0.7624,0.54446,1.43156,1.01996,2.00718
		c0.47447,0.57651,1.06367,1.03389,1.76643,1.37215c0.7029,0.33914,1.49415,0.50827,2.37568,0.50827
		c0.88035,0,1.73184-0.16913,2.55375-0.50827c0.82175-0.33826,1.57058-0.79564,2.24794-1.37215
		c0.67692-0.57562,1.25171-1.24478,1.72433-2.00718c0.47203-0.7624,0.78608-1.58334,0.9407-2.46457
		c0.15452-0.88064,0.12871-1.70246-0.07578-2.46486c-0.20512-0.76211-0.5452-1.43068-1.01996-2.00719
		c-0.47521-0.57562-1.06353-1.033-1.76643-1.37214c-0.70305-0.33826-1.49504-0.50827-2.37539-0.50827
		c-0.88153,0-1.73229,0.17001-2.55404,0.50827c-0.82161,0.33914-1.57132,0.79652-2.24794,1.37214
		c-0.67766,0.57651-1.25235,1.24508-1.72433,2.00719C42.61427,39.06868,42.30094,39.89049,42.14642,40.77113z"/>
	<path class="st1" d="M94.62696,24.05185H81.36348l-1.40072,4.21791c0.62157-0.06736,1.19119-0.12707,1.70834-0.17766
		c0.5169-0.05088,1.04642-0.07648,1.58852-0.07648c1.9313,0,3.6669,0.33914,5.20844,1.01653
		c1.54056,0.67798,2.80014,1.60951,3.7784,2.79488c0.97723,1.18625,1.65907,2.60928,2.04588,4.2688
		c0.38605,1.6604,0.40683,3.47316,0.06218,5.4374c-0.36266,2.06689-1.07056,3.93054-2.12415,5.59006
		c-1.05373,1.6604-2.37748,3.07431-3.97149,4.24321c-1.59454,1.1686-3.44579,2.06689-5.55437,2.69341
		c-2.10918,0.62651-4.38286,0.94006-6.82213,0.94006c-2.30427,0-4.44832-0.27943-6.43362-0.83829
		c-1.9855-0.55944-3.79182-1.4142-5.41914-2.56663l3.11424-9.35029c1.43797,1.45715,2.9711,2.56634,4.59955,3.32844
		c1.62722,0.7624,3.2375,1.1436,4.83025,1.1436c2.03278,0,3.73797-0.55033,5.11745-1.65158
		c1.37849-1.10065,2.21113-2.46486,2.49642-4.09084c0.33283-1.89688-0.19465-3.43022-1.58141-4.59911
		c-1.38795-1.1689-3.36881-1.75305-5.94309-1.75305c-1.15214,0-2.35975,0.12677-3.62412,0.38091
		c-1.26408,0.25414-2.53703,0.65269-3.81741,1.19419l6.81255-20.581h21.8802L94.62696,24.05185z"/>
	<path class="st18" d="M103.57523,16.17698h6.7511l-2.83942,5.53999l-5.23145,29.81536l-6.98451,2.8524l4.29884-24.50018h-2.83169
		L103.57523,16.17698z M131.11537,24.81615l-0.2025,27.70163h-5.51971l-0.02315-27.70163h-0.84135l-3.89564,22.20221h4.20634
		l-2.56614,4.80132h-2.48264l-0.07207,0.41075L113.01517,55l0.55803-3.18032h-3.63206l0.84245-4.80132h3.63205l3.89564-22.20221
		h-0.69768l-9.35468,27.70163h-5.5197l8.98492-27.70163h-3.48837l0.87863-5.00754h10.07551l0.63721-3.63163h6.21738
		l-0.63721,3.63163h11.38845l-2.62303,5.00754H131.11537z"/>
	<g>
		<polygon class="st18" points="134.89743,54.71265 142.28716,51.65573 142.93521,47.96241 161.97781,47.96241 164.61121,44.06371 
			143.61926,44.06371 144.08742,41.39552 163.13002,41.39552 165.74179,37.62025 144.74985,37.62025 145.20348,35.0349 
			166.83139,35.0349 164.18869,50.0964 151.19952,50.0964 150.46503,54.28244 164.26773,54.32303 171.1545,48.98839 
			174.38377,31.0534 139.02802,31.0534 		"/>
		<path class="st18" d="M175.86023,22.16913l2.72403-4.06349h-14.767c0-1.71522-1.20166-3.10564-3.42709-3.10564
			s-4.6319,1.39042-4.6319,3.10564h-0.81256h-14.4462l-0.71303,4.06349h3.44739l-2.43269,2.87268l-0.77666,4.30858h27.08592
			l1.80934-2.7087l0.42735,2.7087h6.23807l-0.97836-6.5863h-6.40205l0.44171,2.27772h-20.06862l2.45384-2.87268H175.86023z"/>
	</g>
</g>
</svg>
