<svg xmlns="http://www.w3.org/2000/svg" viewBox="0 0 131.6 52"  xmlns:v="https://vecta.io/nano"><path d="M129.9 13.1s0-.1-.1-.1c0-.1-.1-.1-.2-.2s-.3-.3-.6-.5c-1.7-1.5-6.1-4.4-13.6-4.4h-.8c-.5 0-1 0-1.5.1-.2 0-.4 0-.6.1h-.2c-.2 0-.4.1-.7.1-.2 0-.3.1-.5.1-.3.1-.7.1-1 .2-.2 0-.4.1-.6.1h-.1c-.1 0-.2 0-.3.1-.2 0-.4.1-.5.1h-.1c-.2 0-.4.1-.5.1-.2.1-.4.1-.7.2h-.1c-.1 0-.2.1-.3.1s-.2.1-.4.1c-.1 0-.2 0-.2.1h-.1c-.2.1-.4.1-.6.2h-.1c-.1 0-.2.1-.4.1h-.1c-.5.1-.9.3-1.3.4-.1 0-.1 0-.2.1-.3.1-.6.2-.8.3-.1 0-.1 0-.2.1-.1 0-.1 0-.2.1-.1 0-.1 0-.2.1-.2.1-.5.2-.7.3-.1 0-.2.1-.2.1-.3.1-.5.2-.8.3-.1 0-.2.1-.3.1-.2.1-.3.1-.5.2-.1.1-.2.1-.4.2 3.8-1.4 12-3.6 18.4-2.4 5.3.9 9.1 3.7 10.9 5.3l1.3-1.3.1-.5z" fill="#e9b311"/><path d="M117.4 9.4c-6.1-1.1-13.8.8-17.8 2.2-.1 0-.2.1-.3.1-.1.1-.2.1-.4.1-.1 0-.2.1-.2.1-.1.1-.3.1-.4.2-.1 0-.1 0-.2.1s-.3.1-.3.2c-.1 0-.2.1-.2.1h-.1c.2-.1.4-.2.6-.2.1 0 .2-.1.3-.1h.1c.4-.1.8-.3 1.3-.4.1 0 .2-.1.2-.1-.1.1-.2.1-.3 0 2.2-.7 5.9-1.7 10.5-1.7 7.1 0 10 1.3 16.1 6.7l.9-1 .9-.9c-1.5-1.6-5.4-4.4-10.7-5.4z" fill="#fdf9dd"/><path d="M110.3 10c-6.6 0-11.3 1.9-12.5 2.4-.1 0-.2.1-.2.1h-.1c.2-.1.4-.2.6-.2.1 0 .2-.1.3-.1h.1c.4-.1.8-.3 1.3-.4.2-.1.4-.1.6-.2.2 0 .4-.1.5-.1.2 0 .4-.1.7-.1h.3c.1 0 .2 0 .3-.1h.1c.3 0 .6-.1.9-.1 4.1-.5 9-.3 12.6 1.2 1.4.6 2.6 1.3 3.7 1.9 1.4.9 2.4 1.8 3.2 2.5l.4.4c0 .1.1.1.1.2h0c.1.1.1.1.1.2l.1.1c.1.1.2.2.2.3v.1c.1.1.1.1.1.2.1.2.2.3.2.3h0l2-2c-5.6-5.3-8.4-6.7-15.6-6.6z" fill="#fef9c2"/><g fill-rule="evenodd" fill="#fff"><path d="M41.9 19.4h-6.6l-.7 2.1c.3 0 .6-.1.9-.1h.8c.9 0 1.8.2 2.6.5.7.3 1.4.8 1.9 1.4s.9 1.4 1 2.1a6.15 6.15 0 0 1 0 2.7c-.2 1-.5 1.9-1.1 2.8-.5.8-1.2 1.5-2 2.1s-1.8 1.1-2.8 1.3c-2.2.6-4.5.6-6.6.1-1-.3-1.9-.7-2.7-1.3l1.6-4.7c.7.7 1.4 1.3 2.3 1.7.8.4 1.6.6 2.4.6.9 0 1.8-.3 2.6-.8.7-.5 1.1-1.2 1.3-2 .2-.9-.1-1.8-.8-2.3a5.29 5.29 0 0 0-3-.9c-.6 0-1.2.1-1.8.2-.7.1-1.3.3-1.9.6l3.4-10.3h11l-1.8 4.2zm16.2-4.3l-6.5 6.3h.1c.4-.2.8-.4 1.3-.5.3-.1.6-.1.8-.1.9 0 1.7.2 2.5.5.7.3 1.3.8 1.8 1.5.5.6.8 1.4 1 2.2a6.15 6.15 0 0 1 0 2.7c-.2 1-.5 2-1.1 2.8-.5.9-1.2 1.7-2 2.3-.8.7-1.8 1.2-2.8 1.5a10.3 10.3 0 0 1-3.5.6c-1.1 0-2.3-.2-3.3-.6-.9-.3-1.7-.9-2.3-1.5s-1-1.4-1.2-2.3-.3-1.8-.1-2.7c.2-1.2.7-2.4 1.3-3.5.8-1.4 1.8-2.6 2.9-3.7l5.4-5.4h5.7v-.1zM47.7 27.7c-.1.4-.1.8 0 1.2s.3.7.5 1 .5.5.9.7.8.3 1.2.3a3.08 3.08 0 0 0 1.3-.3c.4-.2.8-.4 1.1-.7s.6-.6.9-1c.2-.4.4-.8.5-1.2s.1-.8 0-1.2-.3-.7-.5-1-.5-.5-.9-.7-.8-.3-1.2-.3a3.08 3.08 0 0 0-1.3.3c-.8.3-1.5.9-2 1.7-.3.4-.4.8-.5 1.2zM74 19.4h-6.6l-.7 2.1c.3 0 .6-.1.9-.1h.8c.9 0 1.8.2 2.6.5.7.3 1.4.8 1.9 1.4s.9 1.4 1 2.1a6.15 6.15 0 0 1 0 2.7c-.2 1-.5 1.9-1.1 2.8-.5.8-1.2 1.5-2 2.1S69 34.1 68 34.3c-2.2.6-4.5.6-6.6.1-1-.3-1.9-.7-2.7-1.3l1.6-4.7c.7.7 1.4 1.3 2.3 1.7.8.4 1.6.6 2.4.6.9 0 1.8-.3 2.6-.8.7-.5 1.1-1.2 1.3-2 .2-.9-.1-1.8-.8-2.3a5.29 5.29 0 0 0-3-.9c-.6 0-1.2.1-1.8.2-.7.1-1.3.3-1.9.6l3.4-10.3h11L74 19.4z"/><path d="M11.7 21.3c.3.7.1 1 .3 1.2.3.2.2.3.3.6s-.2.6.1 1c0 0-.3.2-.1.6.3.4.4.6.1.8l-.8 2.8c-.1.2-1.6 1.7-1.6 1.8-.3-.6-.7-1.1-1.1-1.5-.7-.5-2.8-1.8-3.2-2.3-.4-.6-.8-2.5-1.4-2.3-.4.2-.7.4-1.1.7-.8.6-2.1 1.9-2.1 2.9 0 0 .2.1.8-.3s1.3-.7 1.8 0c0 0 .5 0 1 .9.9 1.2 1.8 2.3 2.8 3.3.5.6.5.4.8.9.4.7 1.2 1 1.9.6.1-.1.2-.1.3-.2.5-.4 1.1-.7 1.7-1l.3.4c1-.7 1.8-1.6 2.5-2.6a6.22 6.22 0 0 1 2.6.9l.8.1c.7.4 1.4.7 2.2.9a8.79 8.79 0 0 0 2.4 3.6c1.5 1.2 2.1 1.9 2.2 2.6 0 0 .5 2.1 1.7 1.6l3.1-1.6s0-.4-.7-.3l-1.7-.2-1-.9h-.2s-3.5-5.1-4.3-5.6c0-.7-.5-1.3-1.1-1.5l-3.1-3.1s-.2-.6-.5-.6c0 0 .1-.5.6-.1s1.5.8 1.8 1 1 .9 1 .9c.1 0 .2.3.3.4.1.2.4.2.6.1 0 0 .1-.1.2 0 0 .1.3.1.2-.2 0 0 .5.2.4-.3-.1-.3-.2-.6-.5-.8-.4-.2-.7-.3-1.1-.3l-2.5-3c-.2-.7-.4-1.2-.4-1.8-.1-.9-.7-3.3-1.4-3.9 0 0-.2-.6.1-.6s.7.7.7.7l.9-.7h.4l.1-1 .3-.7c.3-.1.5-.4.5-.7-.1-1.1-1-1.8-2.1-1.8-1.1.2-1.9 1.2-1.9 2.3l-.1.4c-.1 0-.2.1-.2.2 0 0-1.1-.3-2.3-.5s-2.3-.7-3.3-1.4c-.6-.6-3.1-2.7-3.1-2.7s-.9-.7-1.4-.4-.3 1.1.1.6c0 0 .6-.2.7.1 0 0 .2.2-.2.2 0 0-.5 0-.2.2.4.1.8.4 1.1.7.3.6 2.7 3.7 3.3 4 2.9 1.3.8 2.7 1.7 4.9h0z" stroke="#fff" stroke-width="1.5"/></g><linearGradient id="A" gradientUnits="userSpaceOnUse" x1="2.738" y1="13.194" x2="28.57" y2="39.025"><stop offset="0" stop-color="#ecb509"/><stop offset="1" stop-color="#feea5f"/></linearGradient><path d="M5.5 11.7c.4.1.8.4 1.1.7.4.6 2.9 3.7 3.5 3.9.7.3 1.3.9 1.7 1.6-.2 1.1-.2 2.2-.1 3.3.3.7.1 1 .4 1.2s.2.3.3.6-.2.6.1 1c0 0-.3.2-.1.6.3.4.4.6.1.8l-1 2.8c-.1.2-1.6 1.7-1.6 1.8-.3-.6-.7-1.1-1.1-1.5-.7-.5-2.8-1.7-3.2-2.3s-.8-2.5-1.4-2.3c-.4.2-.7.4-1.1.7-.7.5-2.1 1.9-2.1 2.8 0 0 .2.1.8-.3s1.5-.8 2-.2c0 0 .5 0 1 .9l2.8 3.3c.5.6.5.4.8.9.4.6 1 1.4 2 .6.5-.4 1.1-.7 1.7-1l.3.4c1-.7 1.8-1.6 2.5-2.6a6.22 6.22 0 0 1 2.6.9l.8.1c.7.4 1.4.7 2.2.9A12.07 12.07 0 0 0 23 35c1.5 1.2 2.1 1.9 2.2 2.6 0 0 .5 2.1 1.7 1.6l3.1-1.6s0-.4-.7-.3l-1.7-.2-1-.9h-.2s-3.5-5.1-4.3-5.6c0-.7-.5-1.3-1.1-1.5L17.9 26s-.2-.6-.5-.6c0 0 .1-.5.6-.1s1.5.8 1.8 1 1 .9 1 .9c.1 0 .2.3.3.4.1.2.4.2.6.1 0 0 .1-.1.2 0s.3.1.2-.2c0 0 .5.2.4-.3-.1-.3-.2-.6-.5-.8-.4-.2-.7-.3-1.1-.3l-2.5-3c-.3-.4-.5-.9-.6-1.4-.1-.9-.7-3.3-1.4-3.9 0 0-.2-.6.1-.6s.7.7.7.7l.9-.7h.4l.1-1 .3-.7c.3-.1.5-.4.5-.7-.1-1.1-1-1.8-2.1-1.8-1.1.2-1.9 1.2-1.9 2.3l-.1.4c-.1 0-.2.1-.2.2 0 0-1.1-.3-2.3-.5s-2.3-.7-3.3-1.4c-.6-.6-3.1-2.7-3.1-2.7s-.8-.7-1.3-.4-.1.9.2.4c0 0 .4-.2.6.1 0 0 .2.2-.2.2 0 0-.5 0-.2.1h0z" fill="url(#A)"/><linearGradient id="B" gradientUnits="userSpaceOnUse" x1="97.006" y1="15.249" x2="97.006" y2="34.386"><stop offset="0" stop-color="#fefe9c"/><stop offset="1" stop-color="#f4c758"/></linearGradient><path d="M97 16.8l-1.3 2.5h-1.5l-.1 14h-2.8v-14h-.4l-2 11.2H91L89.7 33h-1.3v.2L85 34.6l.3-1.6h-1.8l.4-2.4h1.8l2-11.2h-.4l-4.7 14h-2.8l4.5-14h-1.8l.4-2.5H88l.3-1.8h3.1l-.3 1.8 5.9-.1zm-17.4 16L76 34.3l2.2-12.4h-1.4l3.5-6.9h3.4l-1.4 2.8c-.1 0-2.7 15-2.7 15zm37-14.8h-12.5l-1.2 1.5H113l-.2-1.2h3.2l.5 3.3h-3.1l-.2-1.4-.9 1.4H98.5l.4-2.2 1.2-1.5h-1.7l.4-2.1h7.3c.2-.3.5-.6.8-.9.4-.3.8-.4 1.3-.4.4 0 .9.1 1.3.2.3.1.5.3.6.5l.3.5h7.7l-1.5 2.3zm-2.4 13.6l-3.5 2.7h-7l.4-2.1h6.6l1.3-7.6h-10.9l-.2 1.3h10.6l-1.3 1.9h-9.6l-.2 1.3H111l-1.3 2H100l-.3 1.9-3.7 1.5 2.1-12h17.8l-1.7 9.1z" fill="url(#B)"/><linearGradient id="C" gradientUnits="userSpaceOnUse" x1="33.352" y1="32.14" x2="33.352" y2="40.881"><stop offset=".005" stop-color="#fff"/><stop offset=".99" stop-color="#fff" stop-opacity="0"/></linearGradient><path d="M40.9 41.6c-.2-1-.5-1.9-1.1-2.8-.5-.8-1.2-1.5-2-2.1S36 35.6 35 35.4c-2.2-.6-4.5-.6-6.6-.1-1 .3-1.9.7-2.7 1.3l1.6 4.7c.7-.7 1.4-1.3 2.3-1.7.8-.4 1.6-.6 2.4-.6.9 0 1.8.3 2.6.8.7.5 1.1 1.2 1.3 2 .1.5 0 1-.1 1.4H41c0-.5 0-1-.1-1.6z" fill="url(#C)"/><linearGradient id="D" gradientUnits="userSpaceOnUse" x1="50.016" y1="32.14" x2="50.016" y2="40.881"><stop offset=".005" stop-color="#fff"/><stop offset=".99" stop-color="#fff" stop-opacity="0"/></linearGradient><path d="M47.3 43.2c-.2-.4-.4-.8-.5-1.2s-.1-.8 0-1.2.3-.7.5-1 .5-.5.9-.7.8-.3 1.2-.3a3.08 3.08 0 0 1 1.3.3c.4.2.8.4 1.1.7s.6.6.9 1c.2.4.4.8.5 1.2s.1.8 0 1.2v.1h5.2c0-.4 0-.8-.1-1.2-.2-1-.5-2-1.1-2.8-.5-.9-1.2-1.7-2-2.3-.8-.7-1.8-1.2-2.8-1.5a10.3 10.3 0 0 0-3.5-.6c-1.1 0-2.3.2-3.3.6-.9.3-1.7.9-2.3 1.5s-1 1.4-1.2 2.3-.3 1.8-.1 2.7c.1.5.2.9.4 1.4l4.9-.2c0 .1 0 0 0 0z" fill="url(#D)"/><linearGradient id="E" gradientUnits="userSpaceOnUse" x1="65.433" y1="32.14" x2="65.433" y2="40.881"><stop offset=".005" stop-color="#fff"/><stop offset=".99" stop-color="#fff" stop-opacity="0"/></linearGradient><path d="M73 41.6c-.2-1-.5-1.9-1.1-2.8-.5-.8-1.2-1.5-2-2.1s-1.8-1.1-2.8-1.3c-2.2-.6-4.5-.6-6.6-.1-1 .3-1.9.7-2.7 1.3l1.6 4.7c.7-.7 1.4-1.3 2.3-1.7.8-.4 1.6-.6 2.4-.6.9 0 1.8.3 2.6.8.7.5 1.1 1.2 1.3 2 .1.5 0 1-.1 1.4h5.3c-.1-.5-.1-1-.2-1.6z" fill="url(#E)"/><linearGradient id="F" gradientUnits="userSpaceOnUse" x1="103.673" y1="32.14" x2="103.673" y2="40.881"><stop offset=".005" stop-color="#f4c758"/><stop offset=".99" stop-color="#fefe9c" stop-opacity="0"/></linearGradient><path d="M100.9 42.9h10.6l-1.4-1.9h-9.6l-.2-1.3h10.6l-1.3-2h-9.7l-.3-1.9-3.7-1.5 1.6 9h3.4z" fill="url(#F)"/><linearGradient id="G" gradientUnits="userSpaceOnUse" x1="109.516" y1="32.14" x2="109.516" y2="40.881"><stop offset=".005" stop-color="#f4c758"/><stop offset=".99" stop-color="#fefe9c" stop-opacity="0"/></linearGradient><path d="M114.2 37.2l-3.5-2.7h-7l.4 2.1h6.6l1.1 6.7h3.5z" fill="url(#G)"/><linearGradient id="H" gradientUnits="userSpaceOnUse" x1="92.611" y1="32.14" x2="92.611" y2="40.881"><stop offset=".005" stop-color="#f4c758"/><stop offset=".99" stop-color="#fefe9c" stop-opacity="0"/></linearGradient><path d="M94 35.4h-2.8v7.9H94z" fill="url(#H)"/><linearGradient id="I" gradientUnits="userSpaceOnUse" x1="87.15" y1="32.14" x2="87.15" y2="40.881"><stop offset=".005" stop-color="#f4c758"/><stop offset=".99" stop-color="#fefe9c" stop-opacity="0"/></linearGradient><path d="M88.8 38.2h2.1l-1.3-2.5h-1.2l-.1-.2-3.4-1.4.3 1.6h-1.8l.4 2.5h1.9l.9 5.1h3.1z" fill="url(#I)"/><linearGradient id="J" gradientUnits="userSpaceOnUse" x1="78.404" y1="32.14" x2="78.404" y2="40.881"><stop offset=".005" stop-color="#f4c758"/><stop offset=".99" stop-color="#fefe9c" stop-opacity="0"/></linearGradient><path d="M79.5 35.9L76 34.4l1.5 8.9h3.3z" fill="url(#J)"/><linearGradient id="K" gradientUnits="userSpaceOnUse" x1="82.487" y1="32.14" x2="82.487" y2="40.881"><stop offset=".005" stop-color="#f4c758"/><stop offset=".99" stop-color="#fefe9c" stop-opacity="0"/></linearGradient><path d="M82.5 35.4h-2.7l2.5 7.9h2.9z" fill="url(#K)"/><path d="M106.8 9.7h0zm12.5 1.5h0zm7.8 1.6s0 .1 0 0zm-18.5-3.3h0zm10.1-.4h0zm-9.3-.3zm12.8 2.8h0zm3.5 1h0zm.2-.3zm-21-1.9h0zm20.1 3.8zm-.2-2.4h0z" fill="#e8b10b"/><g fill="#fef9c2"><path d="M99.8 11.6c-.1 0-.2.1-.4.1.1 0 .2 0 .4-.1zm1.7-.3s0-.1 0 0c.1-.1 0-.1 0 0 0-.1 0 0 0 0zM124 18h0zm-14.3-7.5h.1z"/><path d="M124.5 18.7h0zm-23-7.4c-.2.1-.3.1-.5.1.2 0 .4-.1.7-.1h-.2z"/></g><path d="M125.9 11.8h0z" fill="#e9b311"/><g fill="#fcf593"><path d="M124 15.9s0 .1.1.1v-.2c-.1 0-.1 0-.1.1z"/><path d="M124.1 15.7c-.1 0-.1.1-.1.1v.1c0-.1 0-.1.1-.2zm-.8.1c-.5-.5-.8-1.3-1.7-1.2-.3-.5-.9-.5-1.3-.8-.2-.1-.2-.4-.5-.4-.6 0-1-.3-1.5-.6-.4-.2-.8-.3-1.2-.3.9.2 1.8.7 2.7 1 .8.3 1.5.9 2.3 1.2.1 0 .2.1.3.2.3.2.5.5.7.7.3.4.5.4.8.1v-.1c-.1.3-.3.5-.6.2z"/></g><g fill="#fdfa9b"><path d="M124.1 15.7c0 .1 0 .2-.1.2v.1c.2 0 .2-.1.1-.3z"/><path d="M124.1 15.8c0-.1 0-.1 0 0 0-.1 0-.1 0 0 0-.1 0-.1 0 0z"/></g><g fill="#fefae0"><path d="M112.1 9.7h0zm-5.9.5h0z"/><path d="M106.2 10.2c-.2.2-.5.1-.7.1-.2.2-.4.1-.6.1v.1h.8c.2 0 .3-.1.5-.1.1 0 .3-.1.4-.1.2-.1.5-.1.7-.2h.7c.2 0 .3-.1.5-.1.1 0 .2-.1.4-.1-1 0-1.8.1-2.7.3z"/><path d="M107.5 10.1h-.2c-.2.1-.4.1-.7.2.2 0 .4-.1.7-.1h.2c.1-.1.2-.1.4-.2-.2 0-.3.1-.4.1z"/></g><g fill="#f6e46b"><path d="M124.6 18.6l-.1.1 1.6-1.7z"/><path d="M127.7 15.4l.6-.6c-.7.4-1.5.6-1.9 1.4-.1.1-.2.2-.3.2a.78.78 0 0 1-.4.4c-.1.7-.6 1.1-1.1 1.4v.4l1.5-1.6c.3-.7.7-1.3 1.6-1.6z"/><path d="M125.7 16.8h0zm-1.1 1.8v-.4c-.1 0-.2.1-.3.1.1.2.2.3.3.3-.1.1-.1.1 0 0h0z"/></g><path d="M127.3 13.8c-.1.3-.6.6-.9.5-.1 0-.2-.1-.3 0 .5.3.6.6.2 1-.1.1-.2.2-.2.4.3-.2.6-.4.9-.7.2-.2.5-.3.8-.3h.6l.2-.2c-.4-.2-1-.2-1.3-.7z" fill="#f7db55"/><path d="M116.9 11.7c-.3-.1-.6-.2-1-.4-.7-.2-1.3-.3-2-.4-.6-.1-1.3-.2-1.9-.2l-2.2.1c.3.2.7.1 1 .1.5-.2.9 0 1.4 0 .9 0 1.7.2 2.6.4.3.1.5.1.8.1h.2c.1.1.2.1.3.1.2.1.3.1.5.2.3.1.5.1.8.1-.2 0-.3-.1-.5-.1z" fill="#fcf595"/><g fill="#f1d049"><path d="M125.4 16.5h0c0-.3.2-.4.4-.5 0-.2.1-.4.1-.6-.2 0-.3.1-.3.3-.2.4-.6.7-1 1.1.1.1.3-.1.4.1s-.1.3-.2.4l-.3.3v.2c.4-.4.7-.8.9-1.3z"/><path d="M124.4 17.8l.1-.1v-.2c-.2.2-.4.3-.7.3.1.1.2.2.2.3.1-.2.3-.3.4-.3z"/></g><path d="M125 14.2c.1.1.2.2.2.4.2.1.2.3.2.5s-.2.2-.3.4h0c-.2.4-.5.6-.8.9 0 0 0 .1.1.1v.1c.5-.3.8-.9 1.3-1.3 0-.1 0-.3.1-.4-.2-.4-.5-.6-.8-.7z" fill="#f9e68a"/><path d="M124.2 16.4c-.3.2-.6.5-.9.7.4-.1.7-.3 1-.6 0 0-.1-.1-.1-.1z" fill="#fef9c2"/><g fill="#fcf590"><path d="M110.8 10.9c.1 0 .1.1.2.1 1 0 2 .3 3 .5l.2-.2c-1.1-.2-2.2-.3-3.4-.4z"/><path d="M114.8 11.3c-.8-.2-1.7-.4-2.6-.4-.5 0-.9-.2-1.4 0l3.4.4h.6z"/></g><g fill="#ebb91b"><path d="M127.2 12.7c-.1 0-.1-.1-.2-.1v.1a1.92 1.92 0 0 1 1.2.4c.5.3 1 .1 1.5-.1 0-.1-.1-.1-.2-.2a.76.76 0 0 1-.4.2l-1.9-.3z"/><path d="M127 12.7h0zm1 0c-.3 0-.7.1-1-.2 0 .1 0 .1.1.2.1 0 .1.1.2.1.7.1 1.3.2 2 .2.2 0 .3 0 .4-.2-.7.1-1.2-.1-1.7-.1z"/></g><path d="M105.5 9.5c-.1 0-.2.1-.4.1.1 0 .2 0 .4-.1zm-1.2.7c.2-.3.5-.2.8-.2h.2c.2-.2.5-.1.7-.1.3-.1.5-.1.8-.2h-.4c-.3-.1-.7.2-.9-.1-.1 0-.2.1-.4.1h-.1c-.5.1-.9.3-1.3.4-.1 0-.1 0-.2.1h.8z" fill="#f8dd50"/><g fill="#f7e163"><path d="M127.9 14.7h-.3c-.3.2-.6.4-.8.6-.3.2-.6.5-.6.8.4-.6 1.1-1 1.7-1.3.1-.1.3-.2.5-.1l.2-.2c-.3.2-.5.2-.7.2z"/><path d="M127.8 14.9c-.6.4-1.3.7-1.7 1.3v.2c.1-.1.2-.1.3-.2.4-.8 1.2-1 1.9-1.4-.2-.2-.4 0-.5.1z"/><path d="M127.6 14.8h.3c.2 0 .4 0 .5-.1h-.6c0-.1-.1 0-.2.1z"/></g><path d="M123.6 15.3c-.3-.3-.9-.7-1.6-1.1-.1.2-.3.2-.5.1l-.3-.3c-.1-.1-.2-.1-.1-.3-1.3-.7-2.8-1.4-4.5-2-.2 0-.3-.1-.5-.2-.1 0-.2-.1-.3-.1h-.2c-.3 0-.6 0-.8-.1h-.6c-.1 0-.2.1-.2.2.5.1 1 .3 1.5.4h0c.5.3 1.1.5 1.7.7.4 0 .8.1 1.2.3.5.2 1 .5 1.5.6.3 0 .3.3.5.4.4.2 1 .3 1.3.8.9-.1 1.2.7 1.7 1.2.3.3.4.1.6 0-.2-.3-.3-.4-.4-.6z" fill="#fcf487"/><g fill="#eec838"><path d="M124.8 16.8c-.1 0-.2 0-.3-.1h-.1l-.1.1c0 .2.1.3.1.5.2-.1.4-.3.4-.5z"/><path d="M124.4 16.8c-.1.2-.2.3-.4.3l-.1.1c0 .2-.1.3-.2.4l.1.1c.2-.1.5-.3.7-.4-.1-.2-.1-.3-.1-.5z"/><path d="M124.8 17.1c.1-.1.2-.2.2-.4-.1-.2-.3 0-.4-.1.1.1.2 0 .3.1-.1.2-.2.4-.4.5v.2l.3-.3z"/><path d="M124.5 17.3c-.2.2-.4.3-.7.4.3 0 .5-.1.7-.3v-.1z"/></g><path d="M107.7 9.2c-.2.1-.3 0-.3-.2h-.1c-.1 0-.2.1-.3.1s-.2.1-.4.1c-.1 0-.2 0-.2.1s-.1.1 0 .1c.1.1.3 0 .4.1.4-.1.8-.1 1.2-.1.1 0 .2-.1.3-.1 0 0 .1 0 .1-.1.3-.1.6.1.9-.1-.6 0-1.1-.2-1.6.1z" fill="#ecbe1c"/><g fill="#eec027"><path d="M129.6 13.4h0z"/><path d="M127.6 13.1l-.3-.3h-.2l.4.4h.2c.5.6 1.2.4 1.8.3.1 0 .1-.1.1-.1h0s.1-.1.1-.2c-.7.3-1.4.2-2.1-.1z"/><path d="M127.2 12.8h.1c0 .1-.1 0-.1 0z"/></g><g fill="#fdf4bb"><path d="M104.1 10.5h0zm-1.7.3z"/><path d="M102.4 10.8c0 .1.1.1 0 0 0 .1 0 .1 0 0zm2.5-.4h0c-.3 0-.5.1-.8.1-.1.1-.2.1-.3.1-.4.1-.9.1-1.3.3-.3 0-.6.3-.9.3v.1h.5c.1 0 .2 0 .3-.1h.1c.3-.3.8-.3 1.2-.4a1.92 1.92 0 0 0 1.2-.4c0 .1 0 .1 0 0 0 .1 0 .1 0 0 0 .1 0 0 0 0h0z"/></g><g fill="#f6d64a"><path d="M126.6 13.1h0z"/><path d="M127.4 13.4l-.5-.5h-.3v.2c.5-.1.5.5.8.6.3.4.9.4 1.3.6l.2-.2c-.7.1-1.2-.1-1.5-.7z"/><path d="M127.3 13.8c.3.6.8.5 1.3.6-.3-.3-.9-.3-1.3-.6.1-.1.1-.1 0 0z"/></g><g fill="#edbd20"><path d="M128.1 13.2c-.1-.1-.1-.1 0 0-.1-.1-.1-.1 0 0-.1-.1-.1-.1 0 0zm-1-.4z"/><path d="M129.7 13.2c0-.1.2-.1.2-.2 0 0 0-.1-.1-.1-.1.1-.2.2-.3.2 0 .1.1.1.2.1zm-1.5-.1c-.4-.2-.8-.3-1.2-.4v.1c.3 0 .6.2.9.3h.1c.4.2.7.2 1.1.1.1 0 .2-.1.3-.1.1-.1.2-.1.3-.2-.4.3-.9.5-1.5.2z"/><path d="M127.6 13.1c.7.3 1.4.3 2.1.1-.1 0-.2-.1-.2-.1-.4.2-.9.3-1.1.1-.1-.1-.2-.1-.3-.1h-.1c-.2-.1-.5-.2-.7-.2.1.1.2.2.3.2zm-.4-.3c-.1 0-.1 0 0 0h-.1.1z"/><path d="M127.3 12.9c.2.1.5.1.7.2-.3-.1-.6-.3-.9-.3h.1l.1.1zm2.2.3c-.1 0-.2 0-.3.1-.4.1-.7.1-1.1-.1.1 0 .2.1.3.1.2.2.7.1 1.1-.1z"/></g><g fill="#f8e873"><path d="M126.2 17h0l1.2-1.3z"/><path d="M126.2 17l1.2-1.3c.1-.1.2-.2.2-.3-.6.4-1 .9-1.4 1.6z"/><path d="M127.7 15.4c-.8.3-1.3.9-1.5 1.6l.1-.1c.3-.6.7-1.1 1.4-1.5z"/></g><path d="M104.9 10.5c-.4.2-.8.3-1.3.3-.4.1-.9 0-1.2.4.3 0 .6-.1.9-.1.7-.1 1.4-.2 2.1-.6h-.5z" fill="#fefdf2"/><g fill="#f2cd3b"><path d="M127.6 13.4c-.1 0-.1 0 0 0-.1-.1-.2-.1-.3-.2a2.37 2.37 0 0 0 1.5.9l.3-.3c-.6.2-1.1.2-1.5-.4zm-.4-.3h0z"/><path d="M127.2 13.1l.1.1c.1 0 .1.1.2.1 0 0 .1 0 .1.1 0-.1-.1-.1-.1-.2l-.1-.1h-.2z"/><path d="M127.3 13.3c0-.1 0-.1 0 0l-.1-.1h-.2l.3.3c.4.6.8.8 1.5.7-.6-.2-1.1-.5-1.5-.9z"/><path d="M127.3 13.3l-.1-.1c0 0 .1 0 .1.1 0-.1 0-.1 0 0z"/></g><g fill="#f0c631"><path d="M129 13.8c.1 0 .1 0 .2.1l.3-.3c-.3.2-.6.3-.9.2h.4zm-.9-.1h0z"/><path d="M128.2 13.7c.1 0 .2.1.4.1.3 0 .6-.1.9-.2-.6.1-1.3.3-1.8-.3h-.2c.2.2.4.3.7.4-.1 0 0 0 0 0z"/><path d="M128.5 13.8c-.1 0-.2 0-.4-.1l-.6-.3c.4.5 1 .6 1.6.4 0-.1-.1-.1-.2-.1-.1.1-.2.1-.4.1z"/><path d="M128.1 13.7a3.04 3.04 0 0 1-.7-.5c0 .1.1.1.1.2.2.2.4.3.6.3z"/><path d="M128.5 13.8c-.1 0-.2 0-.4-.1.2.1.3.1.4.1z"/></g><g fill="#fdec7e"><path d="M101 11.1l-.8.3c.2-.1.5-.2.8-.3zm1.2-.3h-.3c-.1.1-.2.1-.3.2h.3c.1-.1.3-.1.4-.1 0-.1 0-.1-.1-.1z"/><path d="M101.2 11h0c-.1 0-.2.1-.2.1.2 0 .3-.1.5-.1h-.3zm1.2-.2c-.2 0-.4.1-.5.1.2 0 .4 0 .5-.1z"/><path d="M101.9 10.9c-.1.1-.3.1-.4.2v.1c.3 0 .5-.3.9-.3v-.1c-.1.1-.3.1-.5.1z"/></g><path d="M107.9 10.5h0z" fill="#fdfad1"/><path d="M109.5 8.9l-.1-.1c-.2 0-.5.1-.7-.1h-.1c-.2 0-.4.1-.5.1-.2.1-.4.1-.7.2 0 .2.2.3.3.2.5-.3 1-.1 1.4-.2.4 0 .7.1 1.1-.1h.1c.1-.1.2-.1.3-.1-.4.1-.7.1-1.1.1z" fill="#eab105"/><path d="M105.6 9.5h-.1.1z" fill="#f4cf34"/><g fill="#f5dd5d"><path d="M124.6 18.1zm.4-.5l-.1.1c-.1.1-.1.2-.2.3.2-.1.3-.2.5-.4s.3-.3.4-.5c-.3.2-.4.4-.6.5z"/><path d="M124.6 18.1c-.1.1-.2.1-.4.1.1.1.1.1.1.2.1-.2.2-.3.3-.3z"/><path d="M125.7 16.8c-.1.1-.1.2-.2.3-.1.2-.2.4-.4.5-.1.1-.3.2-.5.4l-.1.1v.1c.6-.3 1.1-.6 1.2-1.4z"/><path d="M124.6 18.1l-.3.3c.1 0 .2-.1.3-.1v-.2z"/></g><g fill="#f2d551"><path d="M124.8 17.7c0-.1.1-.1.2-.1s.1-.1.1-.1c.1-.2.3-.4.4-.7v-.1a2.73 2.73 0 0 1-.9 1.2h.1c0-.1 0-.2.1-.2z"/><path d="M124.4 18c.1-.1.1-.1.2-.1-.1.1-.3.2-.5.2v.1s.1 0 .1-.1c.1-.1.1-.1.2-.1zm1.1-1.4s0-.1-.1-.1c-.2.5-.4.9-.8 1.2v.1a2.73 2.73 0 0 0 .9-1.2z"/><path d="M124.4 17.8c-.1.1-.3.1-.3.3.2-.1.3-.1.5-.2v-.1c-.1-.1-.1-.1-.2 0zm.7-.4l-.1.1c-.1 0-.1.1-.2.1 0 .1-.1.1-.1.2.1 0 .1-.1.2-.1l.1-.1s0-.1.1-.2zm-.7.6s-.1 0-.1.1c0 0-.1 0-.1.1 0-.1.1-.2.2-.2z"/></g><g fill="#fced8d"><path d="M101.5 11.3h0zm-1.3.1z"/><path d="M101.7 11h-.2c-.2 0-.4.1-.5.1l-.8.3c.5.1.9-.1 1.4-.2v-.1c.1-.1.2-.2.4-.2-.2 0-.2.1-.3.1z"/></g><path d="M100.2 11.4c-.1 0-.2.1-.3.1 0 0-.1 0-.1.1.1.1.3.1.4 0 .1 0 .2 0 .4-.1.2 0 .4-.1.5-.1.2 0 .3-.1.5-.1h0l.1-.1c-.5.1-1 .3-1.5.2z" fill="#feef97"/><g fill="#f2d552"><path d="M124.3 16.7h0zm-.5.6c0-.1 0-.1 0 0 .1-.1.1-.2.2-.2.1-.1.3-.2.4-.3l-.1.1c-.3.1-.4.5-.8.5.1.1.1.1.1.2 0-.2.1-.3.2-.3z"/><path d="M124.3 16.7h0z"/><path d="M124.3 16.7h-.2c-.2.2-.5.4-.7.6.3 0 .5-.4.8-.5.1 0 .1-.1.1-.1zm.1.1l.1-.1h-.1v.1z"/><path d="M124.4 16.8c-.1 0-.1 0 0 0-.2.1-.3.2-.4.2s-.1.1-.1.1v.1h.1l.1-.1c0-.1.1-.3.3-.3z"/></g><path d="M106.6 10.3c-.1 0-.3.1-.4.1-.2 0-.3.1-.5.1h.6c.2-.1.4-.1.7-.2.1 0 .2-.1.3-.1-.2 0-.5 0-.7.1z" fill="#fefdf2"/><path d="M101.7 11h-.2.2z" fill="#fce65b"/><path d="M102.3 10.6c-.1 0-.1 0-.2.1-.1 0-.1 0-.2.1-.2.1-.5.2-.7.3-.1 0-.2.1-.2.1.1 0 .2-.1.2-.1h.5c.1 0 .2-.1.3-.2h.3l.3-.3c-.2-.1-.2 0-.3 0z" fill="#fce767"/><g fill="#f1d049"><path d="M123.7 17.4s0 .1 0 0v.1-.1z"/><path d="M123.7 17.4v.1c.1-.1.2-.2.2-.4-.1.2-.1.3-.2.3z"/><path d="M123.8 17.3c-.1 0-.1.1-.2.2l.1-.1c0 0 0-.1.1-.1z"/><path d="M123.8 17.3c0 .1-.1.1-.1.2l.2-.2c-.1-.1-.1-.1-.1 0z"/></g><g fill="#eebe23"><path d="M111.8 8.9c1 .1 2.1-.1 3.1-.1.1 0 .2 0 .3-.1h-3.7c-.4 0-.7 0-1.1.1-.1 0-.2 0-.3.1h1.7z"/><path d="M114.7 8.8h.6s.1 0 .1-.1h-1.1c.1.1.3.1.4.1zm-3.7 0h-.4c.4 0 .7 0 1.1-.1-.2.1-.5.1-.7.1z"/><path d="M122.6 10.4c-.2-.2-.5-.1-.8-.3l-.1-.1c-.9-.3-1.7-.7-2.7-.7-.1 0-.2-.1-.3-.2-1.1 0-2.2-.4-3.4-.3l-.1.1c-.1 0-.2.1-.3.1-1-.1-2.1.1-3.1.1-.4 0-.8-.1-1.1 0h5.6c.2 0 .4-.1.5.1h.6c.1 0 .2 0 .3.1.1 0 .1.1.2.2h0c.3 0 .6-.1.9.1l1.3.3c.3.1.5.1.7.3.6 0 1 .5 1.6.5h.2v-.3z"/></g><g fill="#ebb718"><path d="M122.7 10.5c0-.1-.1-.1 0 0-.1-.1-.1 0 0 0 .5.2 1.1.5 1.7.9.5 0 .8.5 1.3.5h.1c-.7-.4-1.4-.6-2.1-.9-.2-.1-.4-.1-.4-.4-.3 0-.5-.1-.6-.1z"/><path d="M123.6 10.9c.7.3 1.4.5 2.1.9h.1c-.4-.5-1-.5-1.5-.8-.4-.2-.8-.3-1.1-.5 0 .3.2.3.4.4z"/><path d="M122.6 10.4h0c.2.1.4.2.6.1-.2 0-.3-.1-.6-.1h0z"/><path d="M123.2 10.5zm-.6-.1s0 .1 0 0c0 .1 0 .1 0 0 0 .1 0 0 0 0z"/><path d="M122.6 10.4zm3.5 1.5l-.1-.1h-.2l.1.1c.2.2.4.3.7.3-.2-.1-.4-.1-.5-.3z"/><path d="M129 12.2c-.3.1-.6.3-.9.1-.6-.4-1.3-.7-2.1-.5 0 .1 0 .1.1.1.1.1.3.2.5.3h.2c.1 0 .2.1.2.2.3.3.7.2 1 .2.5.1 1.1.3 1.6.1-.2-.1-.3-.3-.6-.5z"/></g><g fill="#fefde8"><path d="M124.5 15.1c-.4-.3-.7-.6-1.1-.8a23.18 23.18 0 0 0-4.7-2.4c.1 0 .2.1.3.1.1.1.2.1.3.2h0c.7.1 1.3.5 1.9.8l2.6 1.6c.2 0 .4.2.6.4.3.4.6.5 1 .3V15c-.4.2-.6.3-.9.1z"/><path d="M125.1 14.8c0 .5-.3.3-.5.2-.2-.2-.4-.4-.7-.6-1.5-1-3-1.9-4.6-2.5-2.1-.9-4.3-1.4-6.5-1.6h-.1c.3.1.7.1 1 .2h.3c.3 0 .5.1.8.2.2 0 .4.1.5.1a.9.9 0 0 1 .5.1c.6.1 1.2.3 1.8.5.2.1.4.1.5.2.2 0 .3.1.5.2a23.18 23.18 0 0 1 4.7 2.4c.4.3.7.6 1.1.8.4.3.6.2.7-.2zm-15.4-4.3z"/></g><g fill="#fdf4c0"><path d="M118.2 10.5h0zm-1.1 0h0z"/><path d="M119.1 11c-.3-.3-.7-.2-1-.5-.7-.1-1.4-.3-2.1-.5-.6-.2-1.2-.3-1.8-.3h-.3c.1.1.1.1.2.1.1.1.3.1.4.1h.1c.5 0 .9.1 1.3.3h.1c.1 0 .3 0 .4.1s.2.1.3.1.3 0 .4.1c.2.1.5-.2.6.2.5.1.9.2 1.3.4.1.1.2.1.4.1-.1-.1-.2-.1-.3-.2z"/></g><g fill="#fefdf2"><path d="M112.6 10.4c-.4 0-.9-.1-1.3 0h-.3c.6-.1 1.1-.1 1.6 0-.6-.2-1.3-.2-2-.1h-.3c-.6.1-1.1.1-1.7.1-.8-.1-1.6.2-2.5.3 0 0-.1 0-.1.1h.9c.3-.1.6-.2.9-.2.2-.1.5-.1.8-.1h1.1c.7-.1 1.3-.1 2-.1h.3c.2 0 .3 0 .4.1h.1c.3 0 .7 0 1 .1-.2-.1-.5-.1-.9-.2zm-4.7-.4h0z"/><path d="M124.6 14.3c-.2-.1-.3-.2-.5-.3-.1-.1-.3-.2-.4-.3-.3 0-.4-.3-.6-.4-.3 0-.5-.2-.8-.4-.7-.5-1.4-.8-2.2-1.2-.5 0-.8-.3-1.2-.5-.5-.2-1-.3-1.6-.5h-.1c-.2 0-.3 0-.4-.2-.2 0-.4.1-.5-.1-.1-.1-.2-.1-.4-.1s-.5.1-.7-.1h0c-1.2-.3-2.5-.5-3.8-.4-1 .1-2.1 0-3.1.2h-.5a.76.76 0 0 0-.4.2h-.2c-.1 0-.2.1-.3.1-.2.1-.4.1-.7.2 0 .1-.1.1-.1.2.8-.1 1.6-.4 2.5-.3.6 0 1.1 0 1.7-.1h.3c.7-.1 1.4-.1 2.1 0 2.2.2 4.4.7 6.5 1.6 1.6.7 3.2 1.5 4.6 2.5.2.2.4.4.7.6.2.2.5.3.5-.2-.1-.2-.3-.3-.4-.5z"/></g><path d="M115.9 10.2h0c-.5-.2-1-.3-1.4-.3h-.1c-.1 0-.3 0-.4-.1-.1 0-.1-.1-.2-.1h-2.7c-.4 0-.8.1-1.1.1h-1.2c-.1 0-.2 0-.4.1-.2 0-.3.1-.5.1h.4c1-.2 2.1-.1 3.1-.2 1.3-.1 2.5 0 3.8.4h0c.3.2.5.1.7 0 .1.1.1.1 0 0 0 .1 0 0 0 0z" fill="#fefbe5"/><path d="M121.4 13.7h0z" fill="#fcf586"/><g fill="#fdf7bd"><path d="M124.5 15.4a.9.9 0 0 0 .5.1c0-.1 0-.2.1-.3-.2.2-.4.2-.6.2zm-.7-.7z"/><path d="M124.3 15.2zm.8.3c-.2 0-.4 0-.5-.1-.1 0-.1-.1-.2-.1h-.1c-.2-.1-.3-.3-.4-.4h-.1v.1c.2.2.4.3.5.5.1.1.4.2.8 0h0z"/><path d="M125.2 15.2c-.1.1-.2.2-.1.3.1-.2.3-.2.3-.4-.1 0-.1.1-.2.1z"/><path d="M125.1 15.5h0zm.1-.3c-.4.2-.7.1-1-.3-.1-.2-.3-.3-.6-.4l.1.1h.1c.1.1.2.1.3.2l.2.2h.1c.1 0 .1.1.2.1.1.3.3.3.6.1z"/><path d="M123.8 14.7c.2.1.3.3.4.4l-.4-.4zm-.1 0h0zm.8.7c-.1 0-.1-.1-.2-.1.1 0 .2 0 .2.1zm.7-.2z"/><path d="M125.2 15.2c.1.1.1 0 .1-.1l-.1.1c0-.1 0-.1 0 0z"/><path d="M125.2 15.2z"/><path d="M125.2 15.2c0-.1 0-.1 0 0zm-1.5-.5z"/><path d="M123.7 14.7l-.1-.1c0 0 0 0 .1.1-.1-.1 0 0 0 0z"/><path d="M123.6 14.6s0 .1 0 0c.1.1.1.1 0 0 .1.1.1.1 0 0 .1.1 0 0 0 0z"/></g><path d="M123.7 15c-.4-.2-.8-.5-1.2-.8-.1-.1-.3-.1-.5-.2h-.2l-.1-.1c-.1-.1-.2-.1-.3-.2s-.1-.2-.2-.3c-1.1-.4-2.1-.8-3.1-1.4-.2-.1-.5-.1-.8-.2-.3 0-.5 0-.8-.1 1.7.6 3.2 1.3 4.5 2-.1.1.1.2.1.3l.3.3c.2.1.4.2.5-.1.8.4 1.3.8 1.6 1.1.1.1.3.3.4.5l.1-.1c.1-.3 0-.5-.3-.7z" fill="#fcf58c"/><path d="M124.2 15.2c-.1-.2-.3-.3-.5-.5-.8-.3-1.4-.9-2.1-1.3-.1 0-.2-.1-.3-.1-.1-.2-.3-.2-.5-.4-.7-.2-1.2-.6-1.9-.8l-2.4-.8h-.3c-.1.1-.2.1-.3 0 .3.1.6.2 1 .4.1.1.3.1.4.2.3.1.5 0 .8.2l3.1 1.4c.1.1.1.2.2.3s.2.1.3.2c0 .1 0 .1.1.2h.2c.2.1.4.1.5.2.4.3.7.6 1.2.8.3.1.4.4.4.6.1.1.1.3 0 .3.1.1.1.2.1.3.3-.3.6-.5.8-.9-.3.2-.6.1-.8-.3z" fill="#fdf8a9"/><path d="M116.3 9h-6l.1.1h6.4c-.2-.2-.4-.1-.5-.1z" fill="#f2ca30"/><path d="M110.2 9c-.3.2-.7.1-1.1.1-.3.2-.6 0-.9.1 0 0-.1 0-.1.1h1.6c.2 0 .4 0 .5-.2.1-.1.1-.1 0-.1z" fill="#f3ce3a"/><g fill="#fcf3ba"><path d="M107.5 9.8h-.2.2zm.4-.1c.2 0 .3 0 .5-.1-.1.1-.3.1-.5.1zm.9.1h.6c-.1-.1-.4 0-.6 0zm3.4-.1z"/><path d="M111.2 9.7h0zm2.9-.1c-.1 0-.1 0 0 0l-.2-.2h-.3s-.1 0-.1.1h-.2s-.1 0-.1-.1h-1.1c-.2 0-.4.1-.5-.1h0c-.2.2-.5.1-.7.1h-.4c-.3 0-.7.1-1 .1s-.6.1-.9.1c-.2 0-.3 0-.5.1-.1.1-.2 0-.3 0h-.5c-.2 0-.5 0-.7.1l-.2.2c.9-.2 1.7-.3 2.6-.4h1.2c.4 0 .8 0 1.1-.1h2.7c0 .2 0 .2.1.1 0 .1 0 0 0 0zm-7.9.6h-.8v.1h.1c.2 0 .5.1.7-.1h0z"/></g><g fill="#fdf4bb"><path d="M104.9 10.4h0z"/><path d="M104.9 10.4h0z"/><path d="M105.4 10.3h0-.4s-.1 0-.1.1h0c.2 0 .4.1.6-.1h-.1z"/></g><g fill="#ecbb1e"><path d="M125.9 12.3zm.8 0l.2.2v-.1c0-.1-.1-.1-.2-.1 0-.1 0-.1 0 0z"/><path d="M126.9 12.5c0 .1 0 .1.1.2h.1c-.1 0-.1-.1-.2-.2.1.1.1.1 0 0 .1.1 0 0 0 0z"/><path d="M127 12.6v-.2c-.1.1-.1.1 0 .2-.1-.1 0 0 0 0zm-.1-.1l-.3-.3c-.3 0-.5-.1-.7-.3l-.1-.1h-.2v.1c.1.1.3.2.2.4.1 0 .2.1.3.1.3-.1.5.2.7.3.1 0 .1-.1.1-.2z"/><path d="M126.6 12.3h.1c0-.1-.1-.1-.1 0 0-.1 0-.1 0 0z"/></g><g fill="#f5dd5d"><path d="M126.3 15.6c-.1 0-.2.1-.2.1-.1.2-.1.4-.2.6s-.2.3-.2.5c.1-.1.2-.3.3-.4-.1-.5.1-.7.3-.8z"/><path d="M126 16.3c-.1.1-.2.3-.3.4v.1c.1-.1.3-.2.3-.5 0 .1 0 0 0 0zm.1-.7c.1 0 .2 0 .2-.1.1-.1.2-.1.3-.2.4-.3.8-.6 1.2-.8-.3 0-.6.1-.8.3-.3.4-.6.6-.9.8z"/><path d="M126.3 15.6c-.2.2-.4.4-.3.7 0 0 0-.1.1-.1.1-.4.4-.6.6-.8.3-.2.6-.4.8-.6-.2.1-.4.2-.7.3-.1.2-.2.4-.5.5z"/><path d="M126 16.3v.1c.1-.1.1-.1 0-.1.1-.1.1 0 0 0zm.6-.9c-.1.1-.2.1-.3.2.2-.1.4-.3.6-.5s.4-.3.7-.3c.1-.1.2-.1.3-.2-.5.1-.9.4-1.3.8z"/></g><g fill="#f9df58"><path d="M126 14.2c0-.2.2-.2.3-.1.4.1.7-.1 1-.3-.4 0-.5-.4-.7-.6.2.2.4.3.2.6s-.5.3-.8.1-.7-.1-.9-.5c0 .1 0 .3-.2.3h0c.1.2.3.3.5.4.3.1.4.3.3.6v.1c0 .2-.1.3-.1.4.4-.2.3-.6.4-1 .1.1 0 .1 0 0z"/><path d="M126.3 14.1c-.1 0-.3 0-.3.1.1-.1.2-.1.3 0 .4.1.9-.2.9-.5-.1.3-.5.5-.9.4zm-.7 1.2c.1-.1.1-.3.1-.4v-.1s0 .1-.1.1v.4z"/><path d="M126.6 13.2c.3.2.3.6.7.6-.3-.2-.3-.7-.7-.6 0-.1 0-.1 0 0z"/><path d="M127.3 13.8h0z"/></g><g fill="#f5d950"><path d="M126.1 15.2c-.1.1-.1.2 0 .4 0-.2.1-.3.2-.4.4-.4.3-.7-.2-1 .2.4.4.7 0 1z"/><path d="M126.1 15.6h0zm0-1.3c-.2.3-.1.7-.4 1 .4-.3.4-.6.4-1z"/><path d="M126.1 14.3z"/></g><path d="M118.5 11.9s-.1 0-.1-.1c0 0 0 .1.1.1zm-.4-.3c.2.1.3.1.5.2-.1-.1-.3-.1-.5-.2z" fill="#fdfac4"/><path d="M113.7 10.6h0zm1.6.4h0z" fill="#fdf9c3"/><path d="M118.9 11.9c-.1 0-.2-.1-.3-.1-.2-.1-.3-.1-.5-.2s-.4-.1-.5-.2c-.6-.2-1.2-.4-1.8-.5-.2 0-.3-.1-.5-.1s-.4-.1-.5-.1c-.3-.1-.5-.1-.8-.2h-.3c-.3 0-.7-.1-1-.1h-.2c-.1-.1-.3-.1-.4-.1h-.9c-.5 0-.9 0-1.4.1h-.1c-.3 0-.7.1-1 0h-.8c-.3.1-.6.2-.9.2h2.9l2.2-.1c.6 0 1.3.1 1.9.2.7.1 1.3.2 2 .4.1.1.2.1.3 0h.3l2.4.8h.1c0 .1-.1.1-.2 0zm-1.3-.3c-.3-.1-.7-.2-1-.4.1 0 .2.1.3.1.5.1 1 .3 1.5.5-.3-.1-.6-.1-.8-.2z" fill="#fef9c2"/><g fill="#f3d751"><path d="M124.5 16.7c.1 0 .1-.1.1-.2-.1.1-.1.1-.1.2-.1 0-.1 0 0 0-.1 0 0 0 0 0zm.5-.6c.1-.2.3-.4.5-.6.1-.1.2-.2.3-.2h-.2c-.2.4-.5.7-.8 1 .1 0 .2-.1.2-.2z"/><path d="M125.5 15.6c-.1.2-.3.4-.5.6 0 .1-.1.1-.2.2s-.1.2-.2.2v.2c.3-.4.7-.7.9-1.2.2-.1.2-.2.4-.2h-.1c-.2-.1-.3 0-.3.2z"/><path d="M124.4 16.7l.2-.2c.1-.1.1-.2.2-.2.3-.3.6-.7.8-1h-.1c-.4.4-.7 1-1.1 1.4-.1-.1-.1-.1 0 0-.1 0 0 0 0 0zm-.1-.1l-.1.1s.1 0 .1-.1z"/><path d="M124.8 16.3c-.1.1-.2.1-.2.2.1-.1.2-.1.2-.2zm-.3.4s-.1 0 0 0h0zm.1 0zm-.2 0z"/><path d="M124.4 16.7s-.1 0 0 0c-.1 0-.1 0 0 0-.1 0-.1 0 0 0z"/><path d="M124.2 16.7h.2v-.1c-.1.1-.2.1-.2.1z"/><path d="M124.4 16.7h0zm1.3-1.4s-.1 0 0 0c-.1 0-.1 0 0 0-.1 0 0 0 0 0z"/><path d="M125.6 15.3zm.1 0c.1 0 .1.1.1.1 0-.1 0-.1-.1-.1z"/><path d="M125.8 15.3s0 .1 0 0c.1.1 0 .1 0 0zm-.1 0zm0 .9v-.1c-.1.1-.2.2-.2.4v.1c.1-.1.1-.3.2-.4z"/><path d="M125.5 16.5c0-.2.1-.3.2-.4v-.2c-.2.1-.4.3-.4.5h0c.1.1.2.1.2.1z"/><path d="M125.5 16.5s0 .1 0 0c0 .1 0 .1 0 0v.2-.2c0 .1 0 .1 0 0z"/><path d="M125.5 16.5h-.1s0 .1.1 0c0 .1 0 .1 0 0 0 .1 0 0 0 0zm.2-.3z"/><path d="M125.7 16.2c.1 0 .1-.1 0 0 .1-.1.1-.1 0 0 .1-.1 0-.1 0 0zm0-.1h0v-.2.2zm.1.1c0-.1 0 0 0 0-.1 0-.1 0 0 0-.1 0-.1 0 0 0-.1 0-.1 0 0 0z"/></g><g fill="#fce65f"><path d="M125.2 14.2c-.2-.1-.3-.1-.3-.4-.4-.1-.4-.4-.7-.6-.1 0-.1-.2 0-.2.1-.1.2-.1.3 0 .2.1.3.2.5.4h.1c-.1-.1-.1-.2-.2-.3-.2 0-.3-.2-.5-.3-.2 0-.3 0-.4-.2h0c-.2 0-.5-.1-.6-.3-.1-.1-.2-.1-.3-.2-.1 0-.3 0-.4.2 0 .1.1.2.2.3s.2.2.2.3c.3.5 1 .5 1.3 1 .2.2.4.3.6.5.1-.3.1-.3.2-.2zm.4.3z"/><path d="M125.6 14.5l-.3-.3c-.1 0-.1-.1-.2-.1h-.2c.3.1.6.3.7.7.1-.1.1-.2 0-.3z"/><path d="M125.4 14.2c-.2-.1-.4-.2-.5-.4 0 .2.2.3.3.4.2 0 .3.1.4.3 0 .1.1.1.1.2.1-.2 0-.4-.3-.5z"/><path d="M125.2 14.2c.1 0 .1 0 .2.1s.2.1.2.2c-.1-.2-.2-.3-.4-.3z"/><path d="M125.6 14.5c0 .1.1.2 0 .4 0-.1 0-.1.1-.1 0-.2 0-.2-.1-.3z"/></g><g fill="#fced9e"><path d="M125 14.2c-.1 0-.2-.1-.3-.1 0 .1.1.1.1.2.1 0 .1.1.2.1v-.2z"/><path d="M125 14.3c.1.1.1.2.2.3 0-.2-.1-.3-.2-.4v.1zm0 .2s0-.1-.1-.1c-.1-.1-.1-.1-.2-.1v.1c.2-.1.2 0 .3.1z"/><path d="M125 14.3s0 .1.1.1.1.1.2.1c-.2 0-.3-.1-.3-.2zm-.6-.5c-.1 0-.2-.1-.3-.1.2.1.4.3.5.4 0-.1 0-.1-.1-.2.1.1 0 0-.1-.1z"/><path d="M124.8 14.3c0-.1 0-.1 0 0-.1-.1-.1-.1 0 0-.1-.1-.1-.1 0 0zm-.7-.6h0c0 .1 0 .1 0 0 0 .1 0 .1 0 0 0 .1 0 0 0 0h0zm.2 0l.1.1c.1 0 .2.1.2.2.1.1.2.1.3.1-.1-.1-.3-.3-.6-.4l-.1-.1s.1 0 .1.1z"/><path d="M124.4 13.8l.2.2c0-.1-.1-.2-.2-.2z"/></g><path d="M107.1 9.9h.2c-.1-.1-.1-.1-.2 0z" fill="#f9e17b"/><path d="M106.7 9.5c-.1 0-.3 0-.4-.1v-.1h-.1c-.2.1-.4.1-.6.2h-.1c.3.3.6.1.9.1h.4c.3 0 .7-.1 1-.2h.1v-.1c-.4.1-.8 0-1.2.2z" fill="#f3ce3a"/><g fill="#f9df66"><path d="M104.3 10.2c.2-.2.5-.1.8-.2-.3 0-.6-.2-.8.2z"/><path d="M104.3 10.2c.2-.1.6 0 .8-.2-.2.1-.6-.1-.8.2z"/><path d="M108.6 9.5h-.7c-.3.1-.7.2-1 .2-.2.2-.5.1-.8.2-.2 0-.5-.1-.7.1h-.2c-.2.2-.5.1-.8.2h0-.8l-.8.3h.5c.2-.2.5-.1.8-.1h.3c.3-.1.6-.2.9-.2h.3s0-.1.1-.1V10h.9c.2-.1.5-.1.7-.1h.4c.1-.2.3-.1.5-.1-.1-.3.1-.2.4-.3-.1 0-.1 0 0 0z"/></g><g fill="#f1d049"><path d="M124.4 16.8z"/><path d="M124 17.1c.2 0 .3-.1.4-.3-.2.1-.3.2-.4.3z"/><path d="M124.4 16.8z"/><path d="M124.4 16.8c-.2 0-.3.1-.4.3.1-.1.2-.2.4-.3z"/></g><path d="M119.4 9.7c-.6 0-1.1-.2-1.6-.3-.6-.1-1.2-.1-1.7-.1-.2 0-.4 0-.7-.1-.3 0-.5 0-.8-.1h-4.2c-.1.1-.3.2-.5.2h-1.6c-.1 0-.2.1-.3.1v.1h1.2c.3 0 .6-.1.8-.1h.3c.3-.1.6 0 1-.1h1.7c1.1-.1 2.2.1 3.3.3.7-.1 1.4 0 1.9.2.6.2 1.1-.1 1.6.2h.7c-.4-.1-.7-.3-1.1-.3z" fill="#f8db4e"/><g fill="#f0c631"><path d="M126.4 12.6c.1.1.3.2.4.3h.1c.1 0 .2.1.3.2v-.3c-.4 0-.6-.2-.8-.2zm.6.1c0 .1 0 .1 0 0 0 .1 0 0 0 0z"/><path d="M127.1 13s0 .1 0 0c0 .1.1.1 0 0 .1.1.2.1.3.1l-.3-.3v.2z"/><path d="M127.1 13.1h.1l-.1-.1c-.1-.1-.2-.2-.3-.2h-.1l.1.1c.1.1.2.2.3.2z"/><path d="M127.2 13.1s-.1 0 0 0c-.1 0-.1-.1 0 0-.1-.1-.1 0 0 0zm-.2-.3h0z"/><path d="M127.1 12.8c-.1-.1-.1 0 0 0-.1 0-.1 0 0 0zm.1.3h0z"/><path d="M127.2 13.1h0zm-.1 0h0z"/><path d="M127.2 13.1zm-.8-.5c.2.1.4.3.6.2-.2-.1-.4-.3-.7-.3l.1.1zm.6.1z"/></g><path d="M104.1 10.5h-1l-.2.2c-.2.1-.3 0-.5.1v.1c.4-.1.9-.1 1.3-.3.2 0 .3 0 .4-.1z" fill="#fdefa0"/><g fill="#f4cf3d"><path d="M126.5 12.8c0 .1 0 .1 0 0 0 .1 0 .1 0 0h.2c-.2-.1-.3-.1-.4-.3-.1 0-.2-.1-.3-.2 0 .3.3.3.5.5z"/><path d="M126.5 12.9h.3s-.1-.1-.2-.1c0 .1 0 .1-.1.1zm-.6-.5c.1.1.2.1.3.2v-.1c0-.1-.1-.1-.3-.1 0-.1 0-.1 0 0 0-.1 0 0 0 0z"/><path d="M126.7 12.8h0c0-.1-.2-.2-.3-.3h-.1c0 .2.2.3.4.3z"/><path d="M126.9 12.9c-.1 0-.1 0 0 0-.1-.1-.1-.1-.2-.1.1.1.1.1.2.1zm-.5-.3l-.1-.1.1.1c-.1-.1-.1-.1 0 0z"/></g><g fill="#f9df58"><path d="M126.4 12.9s-.1 0 0 0l-.1-.1.3.3v-.2c-.1.1-.2 0-.2 0z"/><path d="M126.5 13.1h0v-.2.2z"/><path d="M126.3 12.8c0 .1.1.1 0 0 .1.1.2.1.2.1l-.1-.1h-.1z"/><path d="M126.5 12.9h0z"/></g><path d="M102.6 10.5c-.1 0-.1 0 0 0-.1 0-.1 0 0 0h-.1l-.3.3h.2c.1-.1.3-.1.5-.1 0 0 .1 0 .1-.1l.1-.1h-.5z" fill="#fcea7b"/><g fill="#f3db5c"><path d="M125.6 16.8h0z"/><path d="M125.6 16.8c0 .1-.1.2-.1.3 0-.1.1-.2.1-.3h0zm.1 0c0-.1 0 0 0 0zm.4.2h.1zm0-2.7c0 .4 0 .8-.4 1 .1 0 .1 0 .1.1 0 .2-.1.4-.1.6v.2h-.1c-.1.1-.1.3-.2.4 0 0 0 .1-.1.1-.1.3-.2.5-.4.7 0 .1-.1.1-.1.2.2-.1.4-.3.5-.5.1-.1.1-.2.1-.3 0-.2.1-.4.2-.5.1-.2.1-.4.2-.6-.1-.1-.1-.3 0-.4.7-.4.5-.7.3-1z"/><path d="M124.6 18zm0-.2c-.2.1-.2.1-.3.2-.1 0-.1.1-.2.1.1 0 .3 0 .4-.1l.1-.1c.1-.1.2-.2.2-.3 0 .1-.1.2-.2.2z"/></g><path d="M103.9 10.4c-.3 0-.5-.1-.8.1h1c0-.1-.1-.1-.2-.1z" fill="#fcea7b"/><g fill="#e9b311"><path d="M122.7 10.4c-.2-.5-.6-.4-1-.4.3.2.7 0 1 .4-.1 0 0 0 0 0zm-.9-.3c.2.2.5.1.8.3-.2-.2-.5-.3-.8-.3z"/><path d="M122.6 10.4c-.2-.3-.6-.2-.9-.4 0 .1.1.1.1.1.3 0 .6.1.8.3z"/><path d="M122.6 10.4h0z"/><path d="M122.6 10.4h0z"/><path d="M122.6 10.4z"/></g><path d="M116.8 9.2h.5c-.2 0-.4-.1-.5 0h0c-.1-.1-.1-.1 0 0-.1-.1-.1 0 0 0zm-2.4-.1h.2c.3.1.5.1.8.1h1.2s.1 0 .1-.1c0 0 .1 0 .1-.1-.8.1-1.6.1-2.4.1z" fill="#f3ce3a"/><path d="M124.1 11.3c.1 0 .1.1.2.1-.1-.1-.1-.1-.2-.1h0z" fill="#f4d141"/><g fill="#efc229"><path d="M122.6 10.5c0 .1.2.2.3.2-.1-.1-.2-.1-.3-.2z"/><path d="M122.6 10.5h-.2.2z"/><path d="M124.2 11.3h.2l-1.8-.8c.1.1.2.1.3.2l1.3.6z"/><path d="M122.6 10.5h0zm.3.2c-.1 0-.2-.1-.4-.1.5.3 1 .5 1.6.7l-1.2-.6z"/><path d="M122.5 10.5s-.1 0-.1-.1c0 .1.1.1.1.1 0 .1 0 .1 0 0z"/></g><path d="M117.7 9.1c-.1 0-.2 0-.3-.1-.2 0-.4.1-.6 0 .1.1.3.1.5.1h.7c-.2.1-.3 0-.3 0zm2.4.6l-1.3-.3c-.3-.2-.6-.1-.9-.1h0-1.3s-.1 0-.1.1h-1.2c.2 0 .4 0 .7.1.6.1 1.2.1 1.7.1.5.1 1.1.3 1.6.3.4 0 .8.2 1.2.3h.3c-.2-.4-.5-.5-.7-.5zm-2-.3z" fill="#f2ca30"/><g fill="#efc229"><path d="M125.7 11.9s0-.1 0 0c-.5-.1-.9-.6-1.3-.6h-.1c.1 0 .2.1.3.2s.1.2.1.3h.1c.4 0 .7.2 1 .5h.1c.1-.2-.1-.3-.2-.4z"/><path d="M124.3 11.3h0z"/><path d="M124.7 11.5c-.1-.1-.2-.1-.3-.2h-.2l-1.3-.6 1.2.6h.2c.2.1.4.2.5.5 0-.1-.1-.2-.1-.3z"/></g><g fill="#fcf9c1"><path d="M123.6 14.7s0-.1 0 0c0-.1 0-.1 0 0-.8-.8-1.7-1.2-2.6-1.7-.6-.3-1.2-.7-1.9-.8h-.2c.6.2 1.2.6 1.9.8.1.2.4.2.5.4.1 0 .2.1.3.1.7.4 1.3 1 2.1 1.3 0-.1 0-.1-.1-.1zm-4.5-2.6h0z"/><path d="M119 12.2c0-.1 0-.1 0 0h-.1.1zm0-.1h0z"/></g><g fill="#fdef90"><path d="M117.6 10.2c-.5-.2-1.1-.1-1.6-.5h-.7l1.1.3c.6.2 1.2.3 1.7.4-.1-.2-.3-.2-.5-.2z"/><path d="M118.1 10.4c-.6-.2-1.2-.3-1.8-.4l-1.1-.3c-.2 0-.5 0-.7-.1-.1 0-.2-.1-.4-.1h-.3l.1.1h.1c.6 0 1.2.1 1.8.3l2.1.5c.3.1.3.1.2 0z"/></g><path d="M121.7 11.8h0zm2.3 1.6l.2.2-.2-.2z" fill="#fced8c"/><path d="M125.2 14.6c-.1 0-.1-.1-.2-.1-.1-.1-.2-.1-.2-.2 0 0-.1 0-.1-.1-.2-.1-.3-.4-.5-.4h-.1c-.1-.1-.3-.3-.5-.4h-.1v-.1l-.1-.1c-.1-.1-.1-.1-.2-.1s-.1-.1-.2-.1c-.6-.3-1.2-.6-1.7-1-.2 0-.4 0-.5-.2-.4-.2-.9-.3-1.3-.5-.1 0-.1 0-.2-.1h-.2l.2.2c.2.1.3.1.5.2 0 .1.1.1.1.1.1.1.1.1.2.1v.1c.8.3 1.5.7 2.2 1.2.2.2.5.3.8.4.2.1.3.4.6.4.1.1.3.2.4.3.2.1.3.2.5.3.1.2.3.3.5.5l.1.1v.3s.1 0 .1-.1c.1-.4 0-.6-.1-.7z" fill="#fced9e"/><path d="M114.2 9.5h0z" fill="#fbea85"/><path d="M110.3 9.4h-.3c-.3 0-.6 0-.8.1h-.6s-.1 0-.1.1c-.2.1-.4 0-.5.1h.4c.3 0 .6 0 .9-.1.4 0 .7-.1 1-.2h0c0 .1 0 0 0 0z" fill="#fae88c"/><g fill="#fdefa0"><path d="M106.3 10c-.1 0-.1 0 0 0h-.8v.1s0 .1-.1.1h-.3c-.3 0-.6.1-.9.2h-.1c.3 0 .5-.1.8-.1l.1-.1h.3v-.1h.8c.1 0 .2 0 .2-.1h.1c0 0-.1 0-.1 0z"/><path d="M106 10h0zm-.5 0h0z"/></g><path d="M110.7 9.5c.2 0 .5.1.7-.1-.2 0-.4-.1-.7.1z" fill="#fbe98d"/><g fill="#fae88c"><path d="M107.5 9.8h.4s.1 0 .1-.1c-.2 0-.4-.1-.5.1z"/><path d="M108 9.7h0z"/><path d="M108 9.7h0z"/><path d="M108 9.7h0z"/><path d="M108 9.7h0z"/></g><path d="M114.1 9.4c-.2-.1-.4 0-.6 0s-.4.1-.5-.1h-1.7c-.3 0-.7-.1-1 .1h-.1l.1.1h.4c.2-.2.5-.1.7-.1h0c.1.2.3.1.5.1h1.9c.1 0 .2 0 .3-.1 0 .1.1.1.1.1 0-.1-.1-.1-.1-.1z" fill="#fdef90"/><g fill="#fbe45f"><path d="M125.1 13.4c.3.1.6.2 1 .4.2.1.4.2.6 0s-.1-.4-.1-.6v-.1c-.2 0-.3-.1-.3-.3-.2 0-.3-.1-.4-.2h-.2v.1c.3 0 .5.4.7.5.1.1.1.2 0 .3s-.4.1-.5.1c-.3-.2-.6-.2-.9-.4h-.1c.1.1.1.2.2.2zm1.4-.3h0z"/><path d="M126.5 13.2c.1.2.3.3.1.6-.2.2-.4.1-.6 0-.3-.1-.6-.3-1-.4.2.4.7.3.9.5.3.2.6.2.8-.1.3-.3.1-.4-.2-.6h0zm.1 0c0-.1 0-.1 0 0zm-1.5.1s0-.1 0 0c0-.1 0-.1 0 0h-.1.1c-.1 0 0 0 0 0zm1.2-.5c0 .2.1.3.3.3-.2-.1-.3-.1-.3-.3z"/><path d="M126.6 13.1c-.1 0-.1 0 0 0-.1 0-.1 0 0 0-.1 0-.1 0 0 0z"/></g><g fill="#fbe24f"><path d="M124.9 13.7h0c.2 0 .2-.1.2-.3-.1.1-.2.2-.2.3z"/><path d="M125 13.3c-.2-.2-.3-.3-.5-.4-.1-.1-.2-.1-.3 0s-.1.2 0 .2c.3.2.4.6.7.6 0-.1.1-.2.2-.3-.1 0-.1 0-.1-.1z"/><path d="M124.9 13.7s0 .1 0 0zm.2-.3c0-.1 0-.1-.1-.1 0 .1 0 .1.1.1z"/><path d="M125.1 13.4zm-.1-.1z"/></g><path d="M125.7 12.8s0-.1 0 0h0c0-.1-.1-.1 0 0-.1-.1 0 0 0 0z" fill="#fdec6c"/><g fill="#fdea6a"><path d="M125.9 13.4c.1.1.2.1.3 0s0-.2-.1-.3l-.3-.3c0 .1 0 .1-.1.2s-.3.2-.4.1c-.1 0-.1-.1-.2-.1v.2c.3-.1.5.1.8.2z"/><path d="M125.1 13.1c-.1-.1-.1-.1-.2-.1.1.1.1.2.2.3v-.2zm1.3.5c.1-.1.1-.3 0-.3-.3-.1-.4-.5-.7-.5.1.1.1.1.1.2l.3.3c.1.1.2.1.1.3-.1.1-.2 0-.3 0-.3-.2-.5-.3-.8-.2.3.1.6.1.9.4.1-.1.3-.1.4-.2z"/><path d="M125.1 13.2zm.6-.1c.1-.1.1-.1.1-.2h-.1l-.1-.1c0 .4-.2.4-.4.3-.1 0-.1-.1-.2-.1l.1.1c.1 0 .1.1.2.1.1.1.3 0 .4-.1z"/><path d="M125 13h-.1c.1 0 .1.1.2.1 0-.1-.1-.1-.1-.1zm.7-.2c0 .1.1.1 0 0 .1 0 0-.1-.1-.1.1 0 .1.1.1.1z"/></g><g fill="#fde964"><path d="M123.1 11.8c-.4.1-.5.2-.3.5l.3.3c0-.1-.1-.2-.2-.3s-.2-.1-.2-.3c.1-.1.3-.1.4-.2 0 .1 0 .1 0 0z"/><path d="M121.7 11.8c.3.4.8.5 1.2.7 0 0 0-.1-.1-.1 0 0 0-.1-.1-.1-.2-.2-.6-.3-1-.5h0z"/><path d="M122.8 12.4c0 .1.1.1 0 0 .1.1.2.2.3.2-.1-.1-.2-.2-.3-.2zm.2-.7v.1c.1 0 .1 0 0-.1h0zm.1.1c0 .1 0 .1 0 0 0 .1 0 .1 0 0zm.5.4c.1.1.2.1.3.1-.1-.1-.2-.1-.3-.1zm.8.4c-.1-.1-.3-.1-.4-.2.1.2.2.2.4.2zm-.3-.2c.1 0 .1.1.2.1 0 0-.1-.1-.2-.1z"/><path d="M124.9 12.9c-.2-.1-.3-.2-.5-.3h-.1c-.1 0-.1-.1-.2-.1h-.1s-.1 0-.1-.1c-.1 0-.2-.1-.3-.1s-.1 0-.2-.1c.1.2.3.3.6.3h0c.1.1.3.1.4.2s.3.2.5.2c0 0 .1.1 0 0h0z"/></g><path d="M121.7 11.7h-.2v.1c.1 0 .1 0 .2-.1h0c0 .1 0 .1 0 0z" fill="#fde963"/><path d="M119.8 10c-.5-.3-1.1 0-1.6-.2-.6-.2-1.3-.3-1.9-.2v.1c.5.2 1 .3 1.5.3.2 0 .5-.1.6.3 0 .1.1.1.1.1h.2c.1 0 .2-.1.2-.2s.1-.1.1-.2h.2c.2 0 .3.1.5.1h.2c.1 0 0 0-.1-.1z" fill="#fde864"/><path d="M121 10.3c.4.3.9.4 1.4.6h.2c-.5-.4-1.1-.4-1.6-.6 0-.1-.1-.1-.1-.1s.1 0 .1.1z" fill="#f8de55"/><g fill="#f6d64a"><path d="M126.3 12.8c-.1 0-.1-.1-.2-.1 0 0 .1.1.2.1-.1 0-.1 0 0 0zm-.5-.5h-.1c.1.1.1.2.2.2h.1c.1 0 .1.1.2.1-.3 0-.3-.1-.4-.3.1 0 .1.1 0 0h0z"/><path d="M126 12.7h0c.1.1.2.1.2.1h.2c-.2-.2-.5-.2-.6-.5.1.2.1.3.2.4z"/><path d="M126.2 12.8h0zm.1 0h0zm-.5-.5h0zm.3.4c-.1-.1-.1-.1-.2-.1h-.1v.1c.1.1.2.2.4.2 0-.1-.1-.2-.1-.2z"/><path d="M126.1 12.7zm.1.1h.1z"/></g><path d="M124.8 11.8c-.1-.2-.3-.3-.5-.5-.1 0-.1-.1-.2-.1-.5-.2-1.1-.4-1.6-.7 0 0-.1 0-.1-.1-.6 0-1-.5-1.6-.5h-.2c.1.1.1.1.2.1h.1c.5.3 1.1.4 1.6.7.9.3 1.5 1 2.3 1.1z" fill="#f5d445"/><g fill="#f9df59"><path d="M125.7 12.3c-.3-.1-.5-.2-.7-.4l-.1-.1h-.4c.2.1.3.2.5.3.1.1.2.1.2.2.2.1.4.2.5.3h.1c-.1-.1-.2-.1-.1-.3z"/><path d="M125.7 12.6h.2l-.1-.1c0 .1-.1.1-.1.1zm-.9-.8c-.8-.1-1.4-.8-2.2-.9 0 0-.1 0-.1.1h.1l.8.3c.2.1.4.2.5.3.2.1.3.2.5.2.1.1.3.1.4 0z"/><path d="M122.5 11c0-.1.1-.1 0 0 0-.1-.1-.1-.1-.1s.1 0 .1.1zm3.2 1.3c0 .1 0 .2.1.2 0 0-.1-.1-.1-.2zm.1.3h0z"/></g><g fill="#f4cf3d"><path d="M125.7 12.3h0z"/><path d="M125.7 12.3h0z"/><path d="M124.9 11.8s0 .1.1.1c.2.2.5.3.7.4h.2c-.3-.2-.6-.5-1-.5z"/><path d="M125.7 12.3h0z"/></g><g fill="#feed71"><path d="M119.4 10c-.1-.1-.2-.1-.3 0-.1 0-.1.1-.1.2-.1.1-.1.2-.2.2h.1c.2.1.3.2.5.3.1 0 .1.1.2.2h.2c-.6-.3-.7-.4-.4-.9z"/><path d="M119.6 10.9c-.1-.1-.2-.1-.2-.2-.2-.1-.3-.2-.5-.3h-.3c-.1 0-.1-.1-.1-.1-.2-.3-.4-.3-.6-.3-.5 0-1-.1-1.5-.3h-.3c.5.4 1.1.3 1.6.5.2.1.4 0 .5.2v.1h.1c.5 0 .8.3 1.3.4-.1 0 0 0 0 0z"/></g><g fill="#fbea85"><path d="M114.2 9.5h0c.1 0 .2.1.4.1s.5 0 .7.1h.1c-.4-.2-.8-.1-1.2-.2z"/><path d="M114.2 9.5h0z"/><path d="M113 9.3c.1.2.3.1.5.1h.6s.1 0 .1.1h0c.4.1.8 0 1.2.2h.9v-.1a9.26 9.26 0 0 0-3.3-.3z"/><path d="M114.2 9.5h0z"/></g><path d="M124.3 13.7l-.1-.1s.1 0 .1.1c-.2-.6-.9-.6-1.2-1.1-.1 0-.1-.1-.2-.1-.4-.2-.9-.3-1.2-.7h-.2v-.1c-.1-.1-.2-.3-.3-.3-.5 0-.9-.5-1.4-.5h-.2c-.4-.1-.8-.4-1.2-.4h-.1c.3.3.7.2 1 .5h.2c.1 0 .1 0 .2.1.4.2.9.3 1.3.5.1.2.3.2.5.2.5.4 1.1.8 1.7 1 .1 0 .1.1.2.1s.1.1.2.1l.1.1v.1h.1c.2.1.3.2.5.4h.1c.1 0 .2 0 .3.1-.3.1-.3 0-.4 0z" fill="#fced8c"/><g fill="#fdea6a"><path d="M125.7 12.6h-.2c0 .1.1.1.2 0-.1.1 0 .1 0 0h0z"/><path d="M125.7 12.7v-.1c0 .1-.1.1 0 .1-.1 0 0 0 0 0zm-.1 0c-.1 0-.1-.1-.1-.1-.2 0-.4-.3-.6-.4.2.3.4.6.7.5z"/><path d="M125.6 12.7h0z"/></g><path d="M125.1 12.4c-.1-.1-.2-.1-.2-.2-.1-.1-.3-.2-.5-.3-.2 0-.4-.1-.5-.2-.2-.1-.4-.2-.5-.3l-.8-.3h-.1s-.1 0-.1-.1c-.5-.2-1-.3-1.4-.6l-.1-.1c-.1 0-.2-.1-.2-.1h-.8c.1.1.1.1.2.1.2.1.4 0 .6.2.6.1 1.1.4 1.7.6l.1.1c.3.2.6.3.9.4.1 0 .1 0 .2.1.4.3.9.5 1.4.8.2.1.4.4.6.4h.2c-.3-.4-.5-.5-.7-.5z" fill="#fdeb69"/><g fill="#fde658"><path d="M121.8 11.8c-.1 0-.1 0 0 0-.1 0-.1 0 0 0-.1 0-.1 0 0 0h0c-.1 0-.1 0 0 0-.1 0-.1 0 0 0zm1.3 0v-.1c-.3 0-.5-.1-.8-.1-.1.1-.3 0-.4.1.3.2.7.3 1 .5-.3-.1-.3-.3.2-.4z"/><path d="M121.8 11.8c-.1 0-.1 0 0 0-.1 0 0 0 0 0zm-.1 0h0c0-.1 0-.1 0 0zm.5-.2l-.2-.2c-.1-.1-.1-.1-.1-.2h-.1c-.3.2-.2.4 0 .5.1 0 .3 0 .4-.1z"/><path d="M122.1 11.6h0c0-.1 0 0 0 0zm-.4-.4h0z"/></g><g fill="#fde963"><path d="M122.2 11.6h0z"/><path d="M122.2 11.6h0zm-.1-.1l-.1-.1s0 .1.1.1z"/><path d="M125.6 12.7c-.4 0-.6-.2-.8-.5-.5-.3-1-.5-1.4-.8-.1 0-.1 0-.2-.1-.3-.1-.6-.2-.9-.4l-.1-.1c-.5-.2-1.1-.5-1.7-.6-.2-.1-.4-.1-.6-.2h-.2c-.2 0-.3-.1-.5-.1-.3.4-.2.5.4.9.5 0 .9.5 1.4.5.1 0 .2.1.3.3h.2c-.1-.2-.3-.4 0-.5h.1c0 .1.1.1.1.2l.2.2c.3 0 .5.1.8.1h.1v.2c.1.1.2.1.3.2.1 0 .1 0 .2.1.1 0 .2.1.3.1 0 0 .1 0 .1.1h.1c.1 0 .1 0 .2.1h.1c.2.1.3.2.5.3 0 0 .1 0 .1.1.1 0 .2.1.2.1.6.3.8.2.7-.2.1.1 0 0 0 0z"/></g><circle cx="127.2" cy="15.9" r="4" fill="#fff"/><path d="M130.9 16.9c.1-.3.2-.7.2-1.1 0-.2 0-.4-.1-.6l-1.1-.4-.7-1 .1-1.2c-.5-.3-1-.5-1.5-.6l-.8.9-1.2.4-1.1-.4c-.4.4-.8.8-1 1.3l.6 1v1.2l-.7.9c.2.5.5 1 .9 1.4l1.1-.3 1.1.4.6 1c.6 0 1.1-.2 1.6-.4l.1-1.1.7-1 1.2-.4zm-3.1-2.7l1.4-.4.7 1-.9 1.2h-.6l-.8-1.1.1-.2.1-.5zm-.1 3.4l-.1-.5.8-1.2h.6l.8 1.2-.7.9-1.4-.4zM127 13l.8 1.2-.1.3-.1.2-1.4.5-.4-.4.1-1.4 1.1-.4zm-1.3 1.8l.4.4v1.4l-.4.3-1.3-.5v-1.2l1.3-.4zm-.1 3.5l.1-1.4.4-.3 1.4.4.1.5-.9 1.1-1.1-.3z" fill="#1f1a17"/></svg>