<svg xmlns="http://www.w3.org/2000/svg" xmlns:xlink="http://www.w3.org/1999/xlink" width="66.187" height="66.187" viewBox="0 0 66.187 66.187"><defs><filter id="a" x="0" y="0" width="66.187" height="66.187" filterUnits="userSpaceOnUse"><feOffset input="SourceAlpha"/><feGaussianBlur stdDeviation="3" result="b"/><feFlood flood-color="#a5a5a5"/><feComposite operator="in" in2="b"/><feComposite in="SourceGraphic"/></filter></defs><g transform="matrix(1, 0, 0, 1, 0, 0)" filter="url(#a)"><path d="M27.468,3.375A24.093,24.093,0,1,0,51.562,27.468,24.09,24.09,0,0,0,27.468,3.375Zm6.1,32.816-6.1-6.1-6.1,6.1a1.851,1.851,0,1,1-2.618-2.618l6.1-6.1-6.1-6.1a1.851,1.851,0,0,1,2.618-2.618l6.1,6.1,6.1-6.1a1.851,1.851,0,0,1,2.618,2.618l-6.1,6.1,6.1,6.1a1.86,1.86,0,0,1,0,2.618A1.839,1.839,0,0,1,33.573,36.191Z" transform="translate(5.63 5.63)" fill="#fff"/></g></svg>