<svg xmlns="http://www.w3.org/2000/svg" viewBox="0 0 49.22 49.22"><title>Untitled-1</title><g id="Layer_1" data-name="Layer 1"><path d="M43.22,2a4,4,0,0,1,4,4V43.22a4,4,0,0,1-4,4H6a4,4,0,0,1-4-4V6A4,4,0,0,1,6,2H43.22m0-2H6A6,6,0,0,0,0,6V43.22a6,6,0,0,0,6,6H43.22a6,6,0,0,0,6-6V6a6,6,0,0,0-6-6Z" style="fill:#e6e6e6"/><path d="M26.52,0h22.7a0,0,0,0,1,0,0V18.26a9,9,0,0,1-9,9H22a0,0,0,0,1,0,0V4.56A4.56,4.56,0,0,1,26.52,0Z" transform="translate(21.96 49.22) rotate(-90)" style="fill:#e6e6e6"/></g></svg>