<?xml version="1.0" encoding="utf-8"?>
<!-- Generator: Adobe Illustrator 23.1.1, SVG Export Plug-In . SVG Version: 6.00 Build 0)  -->
<svg version="1.1" id="Layer_1" xmlns="http://www.w3.org/2000/svg" xmlns:xlink="http://www.w3.org/1999/xlink" x="0px" y="0px"
	 viewBox="0 0 49.2 49.2" style="enable-background:new 0 0 49.2 49.2;" xml:space="preserve">
<style type="text/css">
	.st0{fill:#E6E6E6;}
</style>
<title>Untitled-1</title>
<g>
	<g id="Layer_3">
		<path class="st0" d="M2,6c0-2.2,1.8-4,4-4h5.4c0.6,0,1-0.4,1-1l0,0c0-0.6-0.4-1-1-1H6C2.7,0,0,2.7,0,6v5.4c0,0.6,0.4,1,1,1l0,0
			c0.6,0,1-0.4,1-1V6z"/>
		<path class="st0" d="M7,47.2c-2.8,0-5-2.2-5-5v-4.4c0-0.6-0.4-1-1-1l0,0c-0.6,0-1,0.4-1,1v4.4c0,3.9,3.1,7,7,7h4.4
			c0.6,0,1-0.4,1-1l0,0c0-0.6-0.4-1-1-1H7z"/>
		<path class="st0" d="M47.2,43.2c0,2.2-1.8,4-4,4h-5.4c-0.6,0-1,0.4-1,1l0,0c0,0.6,0.4,1,1,1h5.4c3.3,0,6-2.7,6-6v-5.4
			c0-0.6-0.4-1-1-1l0,0c-0.6,0-1,0.4-1,1V43.2z"/>
		<path class="st0" d="M43.2,2c2.2,0,4,1.8,4,4v5.4c0,0.6,0.4,1,1,1l0,0c0.6,0,1-0.4,1-1V6c0-3.3-2.7-6-6-6h-5.4c-0.6,0-1,0.4-1,1
			l0,0c0,0.6,0.4,1,1,1H43.2z"/>
	</g>
	<path class="st0" d="M11.2,9.1H38c1.2,0,2.1,0.9,2.1,2.1V38c0,1.2-0.9,2.1-2.1,2.1H11.2c-1.2,0-2.1-0.9-2.1-2.1V11.2
		C9.1,10,10,9.1,11.2,9.1z"/>
</g>
</svg>
