<svg xmlns="http://www.w3.org/2000/svg" xmlns:xlink="http://www.w3.org/1999/xlink" width="214.4" height="135.538" viewBox="0 0 214.4 135.538"><defs><clipPath id="a"><rect width="214.4" height="135.538" fill="none"/></clipPath><clipPath id="c"><rect width="56.798" height="56.8" fill="none"/></clipPath><clipPath id="d"><rect width="70.071" height="56.813" fill="none"/></clipPath><clipPath id="e"><rect width="31.934" height="30.813" fill="none"/></clipPath><clipPath id="f"><rect width="101.037" height="11.154" fill="none"/></clipPath><clipPath id="h"><path d="M102.752,62.068a3.324,3.324,0,1,0,3.015-1.918,3.326,3.326,0,0,0-3.015,1.918" transform="translate(-102.438 -60.15)" fill="none"/></clipPath><clipPath id="j"><path d="M204.825,143.265a3.364,3.364,0,1,0,2.6-1.233,3.363,3.363,0,0,0-2.6,1.233" transform="translate(-204.064 -142.032)" fill="none"/></clipPath><clipPath id="l"><path d="M121.987,190.4l-6.086,15.73h13.814l-6.086-15.73a.88.88,0,0,0-1.642,0" transform="translate(-115.901 -189.835)" fill="none"/></clipPath><clipPath id="n"><path d="M265.345,190.476l-6.087,15.73h13.814l-6.087-15.73a.88.88,0,0,0-1.641,0" transform="translate(-259.258 -189.914)" fill="none"/></clipPath></defs><g transform="translate(-80 -588.315)"><g transform="translate(80 588.315)"><g clip-path="url(#a)"><g clip-path="url(#a)"><path d="M212.361,99.088a45.441,45.441,0,0,0,1.187-22.977c-2.576-11.91-10.874-26.329-34.82-32.551C133.4,31.781,117.655-2.666,75.249,8.3c0,0-22.757,4.135-33.528,41.791S-11.25,88.392,3.28,121.18c2.375,5.359,8.77,11.205,17.952,16.727l171.97-.578c11.884-14.288,15.583-26.649,19.159-38.241" transform="translate(-0.103 -2.369)" fill="#ebebff"/><path d="M232.446,98.841h-6.452V91.783a7.471,7.471,0,0,0-5.777-7.273V75.75h-2.375v8.594a7.472,7.472,0,0,0-6.795,7.439v7.265h-6.418v8.1H204.2v15.047l-11.667-.084V104.124H179.162V117.3h-9.379v12.8H158.448V164h37.659v0H204.2v0h47.222V121.26H232.429Z" transform="translate(-60.766 -29.051)" fill="#d6d7f4"/><path d="M57.52,127.334V110.486h6.316v-9.011H66.21v9.011h5.818v16.848h6.529v10.093h10.4V103.044h21.72v70.819h-61.2V127.334Z" transform="translate(-18.978 -38.917)" fill="#d6d7f4"/><path d="M189.193,214.387l-99,.078a6.79,6.79,0,0,1-6.795-6.784l112.577-.088a6.788,6.788,0,0,1-6.784,6.794" transform="translate(-31.984 -79.613)" fill="#3d5ac4"/><path d="M189.191,212.051l-99,.077a6.785,6.785,0,0,1-6.371-4.447H83.4a6.79,6.79,0,0,0,6.795,6.784l99-.078a6.788,6.788,0,0,0,6.784-6.794h-.422a6.785,6.785,0,0,1-6.363,4.457" transform="translate(-31.984 -79.614)" fill="#5571e9"/><path d="M175.709,209.928l-12.79.01a2.273,2.273,0,0,1-2.275-2.271l17.336-.013a2.273,2.273,0,0,1-2.271,2.274" transform="translate(-61.608 -79.637)" fill="#27429c"/><path d="M193.757,165.745l-100.989.08-.048-60.956a6.332,6.332,0,0,1,6.327-6.336l88.326-.069a6.332,6.332,0,0,1,6.337,6.326Z" transform="translate(-35.559 -37.761)" fill="#5571e9"/><rect width="90.471" height="56.756" transform="translate(62.442 66.002)" fill="#312c76"/><rect width="90.471" height="5.425" transform="translate(62.462 117.332)" fill="#151247"/><rect width="90.471" height="2.693" transform="translate(62.421 66.002)" fill="#151247"/><g transform="translate(62.443 65.993)" opacity="0.16"><g clip-path="url(#c)"><path d="M131.438,107.067l-30.148,30.2.02,26.584h.065l56.711-56.8Z" transform="translate(-101.288 -107.046)" fill="#5571e9"/></g></g><g transform="translate(74.146 65.974)" opacity="0.16"><g clip-path="url(#d)"><path d="M120.27,163.828l13.36-.013,56.711-56.8-13.359.013Z" transform="translate(-120.271 -107.015)" fill="#5571e9"/></g></g><g transform="translate(120.993 91.931)" opacity="0.16"><g clip-path="url(#e)"><path d="M217.561,179.918l10.633-10.65-.015-20.151-31.919,30.814Z" transform="translate(-196.259 -149.118)" fill="#5571e9"/></g></g><rect width="101.037" height="11.154" transform="translate(57.161 90.244)" fill="#f5d100"/></g><g transform="translate(57.162 90.244)"><g clip-path="url(#f)"><path d="M107.759,160.173H99.065l7.483-17.118h8.694Z" transform="translate(-95.154 -145.106)" fill="#fff"/><path d="M137.83,160.173h-8.694l7.484-17.118h8.693Z" transform="translate(-106.686 -145.106)" fill="#fff"/><path d="M167.9,160.173h-8.694l7.483-17.118h8.694Z" transform="translate(-118.219 -145.106)" fill="#fff"/><path d="M197.975,160.173h-8.694l7.483-17.118h8.694Z" transform="translate(-129.752 -145.106)" fill="#fff"/><path d="M228.046,160.173h-8.694l7.484-17.118h8.693Z" transform="translate(-141.285 -145.106)" fill="#fff"/></g></g><g clip-path="url(#a)"><path d="M76.638,114.927,74.663,115l-1.156-.367a1.257,1.257,0,0,0-1.422.5l-.145.216,5.774,3.189,1.117-2.394Z" transform="translate(-27.589 -43.941)" fill="#14103d"/><path d="M77.689,118.806l-5.819-3.214.2-.369a.15.15,0,0,1,.2-.058l5.688,3.141-.276.5" transform="translate(-27.563 -44.159)" fill="#14103d"/><path d="M81.754,113.78l1.525-2.64-1.525-2.725-2.193,4.149Z" transform="translate(-30.512 -41.578)" fill="#eb8175"/><path d="M93.413,91.807s-8.229-2.361-9.021-.139S78.8,103.719,78.8,103.719l3.583,1.869,5.374-9.334,7.231-.629Z" transform="translate(-30.22 -34.79)" fill="#14103d"/><path d="M89.273,120.005l-1.611,1.026-1.189.24a1.255,1.255,0,0,0-1,1.123l-.023.26,6.6-.01-.185-2.635Z" transform="translate(-32.77 -46.023)" fill="#14103d"/><path d="M92.054,124l-6.648.01v-.421a.15.15,0,0,1,.15-.15l6.5-.01V124" transform="translate(-32.753 -47.335)" fill="#14103d"/><path d="M94.24,117.073l.211-4.423-2.628-.3-.17,4.716Z" transform="translate(-35.15 -43.089)" fill="#eb8175"/><path d="M98.832,91.873l-7.755.353s-1.116.061-1.042,2.673.068,13.118.068,13.118l3.725.129.713-11.006,7.764-.1a4.18,4.18,0,0,0,3.807-2.462,3.045,3.045,0,0,0,.213-1.9Z" transform="translate(-34.528 -35.234)" fill="#231c61"/><path d="M90.71,88.509c0,.736-.5.848-1.234.849s-1.43-.107-1.431-.843a1.333,1.333,0,0,1,2.665-.006" transform="translate(-33.766 -33.434)" fill="#e1ad9d"/><path d="M92.473,89.646l-1.541,0a.731.731,0,1,1,0-1.463l1.54,0a.731.731,0,1,1,0,1.463" transform="translate(-34.592 -33.819)" fill="#e1ad9d"/><path d="M93.471,83.318,92.957,80.8l6.332-.69,1.266-7.4a1.921,1.921,0,0,1,1.774-1.378l-.194-.055a1.508,1.508,0,0,1,1.162,1.581l-1.232,8.85a1.24,1.24,0,0,1-.925.973Z" transform="translate(-35.65 -27.334)" fill="#c8c6f2"/><path d="M110.472,71.431a1.34,1.34,0,0,1,.38.088l.063.025a3.125,3.125,0,0,1,1.872,2.684l-.99,10.5c-6.561-.057-7.492-.813-7.492-.813l.522-10.737c.08-1.013.544-1.965,1.7-2.062Z" transform="translate(-40.002 -27.272)" fill="#d8d7fd"/><path d="M100.932,89.9c.051.735-.44.879-1.174.929s-1.435-.012-1.485-.746a1.332,1.332,0,1,1,2.658-.183" transform="translate(-37.687 -34.002)" fill="#eb8175"/><path d="M102.742,90.882l-1.537.105a.731.731,0,1,1-.1-1.459l1.536-.106a.732.732,0,0,1,.1,1.46" transform="translate(-38.513 -34.293)" fill="#eb8175"/><path d="M103.681,84.975,103,82.494l6.9-1.11-.393-6.416a1.6,1.6,0,0,1,1.507-1.36,1.508,1.508,0,0,1,1.266,1.5l.5,7.688a1.24,1.24,0,0,1-.858,1.033Z" transform="translate(-39.502 -28.227)" fill="#d8d7fd"/><path d="M84.379,78.22l7.529.71a.527.527,0,0,1,.473.464l.791,6.785a.528.528,0,0,1-.573.586l-7.654-.721a.528.528,0,0,1-.475-.473L83.805,78.8a.527.527,0,0,1,.574-.576" transform="translate(-32.139 -29.997)" fill="#091218"/><path d="M83.676,78.155l7.529.71a.527.527,0,0,1,.473.464l.79,6.785a.527.527,0,0,1-.573.585l-7.654-.721a.528.528,0,0,1-.475-.473L83.1,78.73a.527.527,0,0,1,.574-.576" transform="translate(-31.869 -29.972)" fill="#1b2934"/><path d="M98.436,91.207l5.144.485a.285.285,0,1,1-.053.568l-5.455-.494Z" transform="translate(-37.611 -34.978)" fill="#091218"/><path d="M90.012,84.271a.824.824,0,1,1-.743-.9.824.824,0,0,1,.743.9" transform="translate(-33.89 -31.973)" fill="#fff"/><path d="M109.27,78.218l.17,4.824L103,84.264l5.673-1.772Z" transform="translate(-39.502 -29.997)" fill="#c8c6f2"/><path d="M107.631,69.684l.43,1.155a1.131,1.131,0,1,0,2.1-.838l-.755-1.774Z" transform="translate(-41.277 -26.165)" fill="#eb8175"/><path d="M107.943,70.269s2.12-.4,1.809-2.255-2.306-.408-2.306-.408l.195,1.851Z" transform="translate(-41.206 -25.722)" fill="#e16c5f"/><path d="M102.751,62.068a3.326,3.326,0,1,0,4.422-1.6,3.325,3.325,0,0,0-4.422,1.6" transform="translate(-39.285 -23.068)" fill="#eb8175"/></g><g transform="translate(63.152 37.082)"><g clip-path="url(#h)"><path d="M106.4,63.254s-.524,2.664,1.435,2.722.892-5,.892-5l-3.1-3.119-4.743,1.167.47,3.066s.755.4,4.831-.271Z" transform="translate(-101.844 -59.272)" fill="#231c61"/><path d="M106.7,63.228l1.557,2.279,1.343-1.484Z" transform="translate(-104.07 -61.331)" fill="#231c61"/></g></g><g clip-path="url(#a)"><path d="M108.93,65.27a.94.94,0,1,0,1.25-.454.94.94,0,0,0-1.25.454" transform="translate(-41.741 -24.823)" fill="#eb8175"/><path d="M101.8,61.418s-.719-2.621.981-4.245a3.41,3.41,0,0,1,4.938.235,5.225,5.225,0,0,1,1.1,3.327Z" transform="translate(-38.984 -21.564)" fill="#f5d100"/><path d="M102.47,63.072l-.02-1.636a.77.77,0,0,1,1.537-.087l.164,1.633" transform="translate(-39.29 -23.262)" fill="none" stroke="#f1ab00" stroke-miterlimit="10" stroke-width="0.28"/><line x1="7.633" y2="0.732" transform="translate(62.202 39.172)" fill="none" stroke="#fff" stroke-linecap="round" stroke-linejoin="round" stroke-width="1.121"/><path d="M224.808,206.994l1.711,1.657-1.95,1.05-1.671-1.637Z" transform="translate(-85.482 -79.383)" fill="#eb8175"/><path d="M206.461,184.731l1.143,5.06a8.052,8.052,0,0,0,1.3,2.879l7.526,6.762,2.976-2.425-6.426-6.8-2.354-8.974Z" transform="translate(-79.179 -69.502)" fill="#14103d"/><path d="M224.548,210.3l-.616,1.967-.705.98a1.251,1.251,0,0,0,.029,1.5l.16.2,4.8-4.475-1.92-1.8Z" transform="translate(-85.518 -80.028)" fill="#14103d"/><rect width="6.615" height="0.568" transform="matrix(0.732, -0.682, 0.682, 0.732, 137.52, 134.551)" fill="#14103d"/><path d="M197.532,211.642l-.642,2.144-2.2-.591.644-2.1Z" transform="translate(-74.663 -80.954)" fill="#eb8175"/><path d="M200.256,177.755l-6.174,20.868,3.9.972,3.475-10.461,4.269-6.845a9.577,9.577,0,0,0,.61-.956,4.042,4.042,0,0,0,.488-1.994l-.015-1.358Z" transform="translate(-74.432 -68.17)" fill="#231c61"/><path d="M192.153,214.17l-1.948.719-1.215.041a1.26,1.26,0,0,0-1.176.946l-.065.253,6.525,1.073.25-2.637Z" transform="translate(-72.003 -82.135)" fill="#14103d"/><rect width="0.573" height="6.664" transform="translate(115.714 134.032) rotate(-80.656)" fill="#14103d"/><path d="M188.567,143.374l-2.495,3.893,1.2.859,2.582-4.119Z" transform="translate(-71.36 -54.985)" fill="#334fbe"/><path d="M182.486,132.909a10.287,10.287,0,0,0,7,6.725.461.461,0,0,1,.32.372,1.768,1.768,0,0,1-1.216,2.124.464.464,0,0,1-.366-.059c-.893-.559-5.288-3.129-9.554-2.388Z" transform="translate(-68.519 -50.971)" fill="#4265d1"/><path d="M182.486,132.909s-1.071,4.814-3.821,6.775a10.4,10.4,0,0,1,3.821-6.775" transform="translate(-68.519 -50.971)" fill="#334fbe"/><path d="M184.736,148.464a1.979,1.979,0,0,0,1.434,2.147,1.636,1.636,0,0,0,1.931-1.276,1.978,1.978,0,0,0-1.434-2.147,1.636,1.636,0,0,0-1.931,1.276" transform="translate(-70.837 -56.435)" fill="#eb8175"/><path d="M190.578,152.371l-1.731-1.808-1.129,1.39,2.86,2.1" transform="translate(-71.991 -57.742)" fill="#eb8175"/><path d="M190.774,150.785l-1.829,2.718,5,4.576a2.626,2.626,0,0,0,.94.091l6.6-.855a1.886,1.886,0,0,0,1.794-1.973c-.049-1.041.15-2.546-.89-2.5l-7.67,1.575Z" transform="translate(-72.462 -57.827)" fill="#c8c6f2"/><path d="M211.132,158.3a3.79,3.79,0,0,0-1.7-3.654,2.432,2.432,0,0,0-1.487-.523,3.741,3.741,0,0,0-3.25,2.6c-.985,3.022-1.267,11.956-1.267,11.956l7.076.241Z" transform="translate(-78.015 -59.102)" fill="#d8d7fd"/><path d="M211.688,161.267l2.128,7.818.43-6.633Z" transform="translate(-81.184 -61.847)" fill="#c8c6f2"/><path d="M224.053,184.356a1.98,1.98,0,0,0,.11-2.581,1.637,1.637,0,0,0-2.312-.109,1.978,1.978,0,0,0-.11,2.579,1.637,1.637,0,0,0,2.312.11" transform="translate(-84.875 -69.506)" fill="#eb8175"/><path d="M220.548,176.854l1.29,3.184,1.732-.455L222.5,176.2" transform="translate(-84.581 -67.574)" fill="#eb8175"/><path d="M216.354,171.335l3.543-.779-2.4-8.218a2.624,2.624,0,0,0-.424-.843L212.659,156c-.6-.854-1.6-.7-2.456-.105a1.887,1.887,0,0,0-.467,2.626l4.249,5.108Z" transform="translate(-80.305 -59.599)" fill="#d8d7fd"/><path d="M208.065,151.769l.134,1.24a1.144,1.144,0,1,0,2.268-.3l-.3-1.927Z" transform="translate(-79.794 -57.826)" fill="#eb8175"/><path d="M208.2,152.266s2.185-.072,2.342-1.966-2.166-.768-2.166-.768l-.27,1.862Z" transform="translate(-79.81 -57.219)" fill="#e16c5f"/><path d="M204.826,143.265a3.364,3.364,0,1,0,4.735-.472,3.364,3.364,0,0,0-4.735.472" transform="translate(-78.26 -54.47)" fill="#eb8175"/></g><g transform="translate(125.804 87.562)"><g clip-path="url(#j)"><path d="M208.321,145.6s-1.177,2.481.729,3.026,2.119-4.677,2.119-4.677l-2.262-3.829-4.94-.037-.3,3.123s.64.581,4.8.937Z" transform="translate(-203.911 -141.283)" fill="#231c61"/><path d="M208.982,144.932l.96,2.622,1.686-1.12Z" transform="translate(-205.95 -143.144)" fill="#231c61"/></g></g><g clip-path="url(#a)"><path d="M210.5,147.618a.951.951,0,1,0,1.338-.133.952.952,0,0,0-1.338.133" transform="translate(-80.646 -56.479)" fill="#eb8175"/><path d="M203.891,142.788s-.165-2.744,1.856-4a3.449,3.449,0,0,1,4.838,1.261,5.285,5.285,0,0,1,.392,3.522Z" transform="translate(-78.192 -53.03)" fill="#f5d100"/><path d="M204.487,144.247l.321-1.624a.78.78,0,0,1,1.54.235l-.179,1.65" transform="translate(-78.422 -54.456)" fill="none" stroke="#f1ab00" stroke-miterlimit="10" stroke-width="0.283"/><line x1="7.707" y1="0.867" transform="translate(125.078 89.68)" fill="none" stroke="#fff" stroke-linecap="round" stroke-linejoin="round" stroke-width="1.133"/><line x1="7.974" y2="7.861" transform="translate(171.849 110.493)" fill="none" stroke="#3d5ac4" stroke-miterlimit="10" stroke-width="2.649"/><line x1="7.974" y2="7.861" transform="translate(171.849 102.092)" fill="none" stroke="#3d5ac4" stroke-miterlimit="10" stroke-width="2.649"/><line x1="7.974" y2="7.861" transform="translate(171.849 93.692)" fill="none" stroke="#3d5ac4" stroke-miterlimit="10" stroke-width="2.649"/><line x1="7.974" y2="7.861" transform="translate(171.849 85.292)" fill="none" stroke="#3d5ac4" stroke-miterlimit="10" stroke-width="2.649"/><line x1="7.974" y2="7.861" transform="translate(171.849 76.891)" fill="none" stroke="#3d5ac4" stroke-miterlimit="10" stroke-width="2.649"/><line x1="7.974" y2="7.861" transform="translate(171.849 68.491)" fill="none" stroke="#3d5ac4" stroke-miterlimit="10" stroke-width="2.649"/><line x1="7.974" y2="7.861" transform="translate(171.849 60.091)" fill="none" stroke="#3d5ac4" stroke-miterlimit="10" stroke-width="2.649"/><line x1="7.974" y2="7.861" transform="translate(171.849 51.69)" fill="none" stroke="#3d5ac4" stroke-miterlimit="10" stroke-width="2.649"/><line x1="7.974" y2="7.861" transform="translate(171.849 43.29)" fill="none" stroke="#3d5ac4" stroke-miterlimit="10" stroke-width="2.649"/><line x1="7.974" y2="7.861" transform="translate(171.849 34.89)" fill="none" stroke="#3d5ac4" stroke-miterlimit="10" stroke-width="2.649"/><line x1="7.974" y2="7.861" transform="translate(171.849 26.489)" fill="none" stroke="#3d5ac4" stroke-miterlimit="10" stroke-width="2.649"/><line x2="7.974" transform="translate(171.849 109.953)" fill="none" stroke="#3d5ac4" stroke-miterlimit="10" stroke-width="2.649"/><line x2="7.974" transform="translate(171.849 101.553)" fill="none" stroke="#3d5ac4" stroke-miterlimit="10" stroke-width="2.649"/><line x2="7.974" transform="translate(171.849 93.152)" fill="none" stroke="#3d5ac4" stroke-miterlimit="10" stroke-width="2.649"/><line x2="7.974" transform="translate(171.849 84.752)" fill="none" stroke="#3d5ac4" stroke-miterlimit="10" stroke-width="2.649"/><line x2="7.974" transform="translate(171.849 76.352)" fill="none" stroke="#3d5ac4" stroke-miterlimit="10" stroke-width="2.649"/><line x2="7.974" transform="translate(171.849 67.951)" fill="none" stroke="#3d5ac4" stroke-miterlimit="10" stroke-width="2.649"/><line x2="7.974" transform="translate(171.849 59.551)" fill="none" stroke="#3d5ac4" stroke-miterlimit="10" stroke-width="2.649"/><line x2="7.974" transform="translate(171.849 51.151)" fill="none" stroke="#3d5ac4" stroke-miterlimit="10" stroke-width="2.649"/><line x2="7.974" transform="translate(171.849 42.75)" fill="none" stroke="#3d5ac4" stroke-miterlimit="10" stroke-width="2.649"/><line x2="7.974" transform="translate(171.849 34.35)" fill="none" stroke="#3d5ac4" stroke-miterlimit="10" stroke-width="2.649"/><line y1="92.797" transform="translate(171.849 27.833)" fill="none" stroke="#5571e9" stroke-miterlimit="10" stroke-width="2.649"/><line y1="92.797" transform="translate(179.823 27.833)" fill="none" stroke="#5571e9" stroke-miterlimit="10" stroke-width="2.649"/><rect width="15.88" height="16.499" transform="translate(167.738 118.353)" fill="#231c61"/><path d="M284.909,35.373h-8.3a2.651,2.651,0,0,1-2.652-2.651V22.311a2.651,2.651,0,0,1,2.652-2.651h8.3a2.651,2.651,0,0,1,2.652,2.651V32.722a2.651,2.651,0,0,1-2.652,2.651" transform="translate(-105.065 -7.54)" fill="#3d5ac4"/><path d="M281.311,33.157h-5.342V25.806h5.342a2.009,2.009,0,0,1,2.009,2.009v3.333a2.009,2.009,0,0,1-2.009,2.009" transform="translate(-105.836 -9.897)" fill="#2f4dab"/><line x2="6.379" y2="18.53" transform="translate(119.241 28.69)" fill="none" stroke="#231c61" stroke-miterlimit="10" stroke-width="2.162"/><line x1="12.439" y2="16.801" transform="translate(102.365 26.489)" fill="none" stroke="#231c61" stroke-miterlimit="10" stroke-width="2.162"/><path d="M177.084,55.309l12.854,16.808a4.216,4.216,0,0,1-.788,5.91L172.342,90.881a4.215,4.215,0,0,1-5.909-.788L153.579,73.285a4.216,4.216,0,0,1,.788-5.91l16.809-12.853a4.215,4.215,0,0,1,5.909.788" transform="translate(-58.566 -20.577)" fill="#f5d100"/><path d="M178.271,60.625l10.517,13.753a3.449,3.449,0,0,1-.645,4.835L174.39,89.729a3.449,3.449,0,0,1-4.835-.644L159.039,75.332a3.449,3.449,0,0,1,.645-4.835l13.752-10.517A3.449,3.449,0,0,1,178.271,60.625Z" transform="translate(-60.72 -22.731)" fill="none" stroke="#fff" stroke-miterlimit="10" stroke-width="1.114"/><path d="M192.481,37.1a5.332,5.332,0,1,1-5.332-5.333,5.332,5.332,0,0,1,5.332,5.333" transform="translate(-69.728 -12.185)" fill="#231c61"/><path d="M191.891,38.076a3.77,3.77,0,1,1-3.77-3.77,3.77,3.77,0,0,1,3.77,3.77" transform="translate(-70.699 -13.157)" fill="#373482"/><line y2="11.303" transform="translate(138.332 0.817)" fill="none" stroke="#3d5ac4" stroke-miterlimit="10" stroke-width="2.649"/><line y2="11.303" transform="translate(128.196 0.817)" fill="none" stroke="#3d5ac4" stroke-miterlimit="10" stroke-width="2.649"/><line y2="11.303" transform="translate(148.435 0.817)" fill="none" stroke="#3d5ac4" stroke-miterlimit="10" stroke-width="2.649"/><line y2="11.303" transform="translate(159.661 0.817)" fill="none" stroke="#3d5ac4" stroke-miterlimit="10" stroke-width="2.649"/><line y2="11.303" transform="translate(170.133 0.817)" fill="none" stroke="#3d5ac4" stroke-miterlimit="10" stroke-width="2.649"/><line y2="11.303" transform="translate(180.99 0.817)" fill="none" stroke="#3d5ac4" stroke-miterlimit="10" stroke-width="2.649"/><line y2="11.303" transform="translate(191.654 0.817)" fill="none" stroke="#3d5ac4" stroke-miterlimit="10" stroke-width="2.649"/><line y1="11.303" x2="10.665" transform="translate(127.668 0.817)" fill="none" stroke="#3d5ac4" stroke-miterlimit="10" stroke-width="2.649"/><line y1="11.303" x2="10.664" transform="translate(138.332 0.817)" fill="none" stroke="#3d5ac4" stroke-miterlimit="10" stroke-width="2.649"/><line y1="11.303" x2="10.665" transform="translate(148.996 0.817)" fill="none" stroke="#3d5ac4" stroke-miterlimit="10" stroke-width="2.649"/><line y1="11.303" x2="10.664" transform="translate(159.661 0.817)" fill="none" stroke="#3d5ac4" stroke-miterlimit="10" stroke-width="2.649"/><line y1="11.303" x2="10.665" transform="translate(170.325 0.817)" fill="none" stroke="#3d5ac4" stroke-miterlimit="10" stroke-width="2.649"/><line y1="11.303" x2="10.665" transform="translate(180.99 0.817)" fill="none" stroke="#3d5ac4" stroke-miterlimit="10" stroke-width="2.649"/><path d="M190.466,12.628h86.949l-11.707-11.3H199.46Z" transform="translate(-73.045 -0.508)" fill="none" stroke="#5571e9" stroke-linecap="round" stroke-linejoin="round" stroke-width="2.649"/><line y2="12.8" transform="translate(117.421 12.12)" fill="none" stroke="#5571e9" stroke-linecap="round" stroke-linejoin="round" stroke-width="2.649"/><path d="M115.9,206.127l6.086-15.73a.881.881,0,0,1,1.642,0l6.086,15.73Z" transform="translate(-44.449 -72.803)" fill="#f5d100"/></g><g transform="translate(71.452 117.032)"><g clip-path="url(#l)"><rect width="10.806" height="3.338" transform="translate(1.411 3.944)" fill="#fafafa"/><rect width="12.223" height="3.339" transform="translate(0.82 10.254)" fill="#fafafa"/></g></g><g clip-path="url(#a)"><rect width="16.109" height="1.325" transform="translate(70.34 133.325)" fill="#e8c400"/><path d="M259.258,206.206l6.087-15.73a.88.88,0,0,1,1.641,0l6.087,15.73Z" transform="translate(-99.427 -72.833)" fill="#f5d100"/></g><g transform="translate(159.831 117.081)"><g clip-path="url(#n)"><rect width="10.807" height="3.338" transform="translate(1.41 3.944)" fill="#fafafa"/><rect width="12.222" height="3.338" transform="translate(0.82 10.254)" fill="#fafafa"/></g></g><g clip-path="url(#a)"><rect width="16.108" height="1.325" transform="translate(158.719 133.374)" fill="#e8c400"/><path d="M67.056,165.752a12.639,12.639,0,1,1-12.639-12.639,12.64,12.64,0,0,1,12.639,12.639" transform="translate(-16.022 -58.72)" fill="#5571e9"/><line y2="32.122" transform="translate(38.395 102.527)" fill="none" stroke="#3d5ac4" stroke-linecap="round" stroke-linejoin="round" stroke-width="1.137"/><line x2="4.915" y2="5.512" transform="translate(33.48 103.182)" fill="none" stroke="#3d5ac4" stroke-linecap="round" stroke-linejoin="round" stroke-width="1.137"/><path d="M66.639,175.818c-.352.351-4.36,4.525-4.36,4.525" transform="translate(-23.884 -67.427)" fill="none" stroke="#3d5ac4" stroke-linecap="round" stroke-linejoin="round" stroke-width="1.137"/><line x2="212.013" transform="translate(0.35 134.96)" fill="none" stroke="#3d5ac4" stroke-linecap="round" stroke-linejoin="round" stroke-width="1.137"/></g></g></g><path d="M16.189,15.447,10.066,9.494l3.881-4a.693.693,0,0,0,.17.015.948.948,0,0,0,.7-.294l.789-.819A.973.973,0,0,0,14.21,3.031l-.789.819a.976.976,0,0,0-.247.9L9.308,8.736,8.18,7.638A2.446,2.446,0,0,0,7.53,5.149L5.582,3.294a2.484,2.484,0,0,0-2.4-.6l2.18,2.1A1.241,1.241,0,0,1,5.4,6.541a1.256,1.256,0,0,1-.881.371,1.2,1.2,0,0,1-.866-.356L1.469,4.469a2.443,2.443,0,0,0,.665,2.366L4.082,8.721a2.461,2.461,0,0,0,1.716.7,2.588,2.588,0,0,0,.758-.124l.7.68L2.366,15.029a1.148,1.148,0,0,0,.015,1.623A1.139,1.139,0,0,0,4,16.622l4.9-5.056,5.69,5.52a1.143,1.143,0,1,0,1.593-1.639Z" transform="translate(185.457 629.405) rotate(7)" fill="#0c186c"/></g></svg>