<svg xmlns="http://www.w3.org/2000/svg" xmlns:xlink="http://www.w3.org/1999/xlink" width="651.745" height="283.654" viewBox="0 0 651.745 283.654"><defs><filter id="a" x="167.645" y="0" width="315.798" height="103.369" filterUnits="userSpaceOnUse"><feOffset input="SourceAlpha"/><feGaussianBlur stdDeviation="10" result="b"/><feFlood flood-color="#0c186c"/><feComposite operator="in" in2="b"/><feComposite in="SourceGraphic"/></filter><linearGradient id="c" x1="0.5" x2="0.5" y2="1" gradientUnits="objectBoundingBox"><stop offset="0" stop-color="#181b36"/><stop offset="0.653" stop-color="#0c186c"/><stop offset="1" stop-color="#737fcf"/></linearGradient><filter id="d" x="0" y="169.162" width="124.291" height="113.56" filterUnits="userSpaceOnUse"><feOffset dy="3" input="SourceAlpha"/><feGaussianBlur stdDeviation="8" result="e"/><feFlood flood-color="#f8f8f8"/><feComposite operator="in" in2="e"/><feComposite in="SourceGraphic"/></filter><filter id="g" x="87.883" y="169.049" width="124.326" height="113.709" filterUnits="userSpaceOnUse"><feOffset dy="3" input="SourceAlpha"/><feGaussianBlur stdDeviation="8" result="h"/><feFlood flood-color="#f8f8f8"/><feComposite operator="in" in2="h"/><feComposite in="SourceGraphic"/></filter><filter id="j" x="176.966" y="169.124" width="118.991" height="113.634" filterUnits="userSpaceOnUse"><feOffset dy="3" input="SourceAlpha"/><feGaussianBlur stdDeviation="8" result="k"/><feFlood flood-color="#f8f8f8"/><feComposite operator="in" in2="k"/><feComposite in="SourceGraphic"/></filter><filter id="m" x="262.483" y="170.542" width="124.703" height="112.105" filterUnits="userSpaceOnUse"><feOffset dy="3" input="SourceAlpha"/><feGaussianBlur stdDeviation="8" result="n"/><feFlood flood-color="#f8f8f8"/><feComposite operator="in" in2="n"/><feComposite in="SourceGraphic"/></filter><filter id="p" x="353.334" y="169.05" width="121.57" height="113.485" filterUnits="userSpaceOnUse"><feOffset dy="3" input="SourceAlpha"/><feGaussianBlur stdDeviation="8" result="q"/><feFlood flood-color="#f8f8f8"/><feComposite operator="in" in2="q"/><feComposite in="SourceGraphic"/></filter><filter id="s" x="438.198" y="170.58" width="124.958" height="113.074" filterUnits="userSpaceOnUse"><feOffset dy="3" input="SourceAlpha"/><feGaussianBlur stdDeviation="8" result="t"/><feFlood flood-color="#f8f8f8"/><feComposite operator="in" in2="t"/><feComposite in="SourceGraphic"/></filter><filter id="v" x="529.002" y="169.162" width="122.743" height="113.597" filterUnits="userSpaceOnUse"><feOffset dy="3" input="SourceAlpha"/><feGaussianBlur stdDeviation="8" result="w"/><feFlood flood-color="#f8f8f8"/><feComposite operator="in" in2="w"/><feComposite in="SourceGraphic"/></filter><filter id="y" x="117.782" y="80.471" width="123.962" height="111.843" filterUnits="userSpaceOnUse"><feOffset dy="3" input="SourceAlpha"/><feGaussianBlur stdDeviation="8" result="z"/><feFlood flood-color="#f8f8f8"/><feComposite operator="in" in2="z"/><feComposite in="SourceGraphic"/></filter><filter id="ab" x="207.278" y="80.135" width="122.949" height="112.217" filterUnits="userSpaceOnUse"><feOffset dy="3" input="SourceAlpha"/><feGaussianBlur stdDeviation="8" result="ac"/><feFlood flood-color="#f8f8f8"/><feComposite operator="in" in2="ac"/><feComposite in="SourceGraphic"/></filter><filter id="ae" x="293.305" y="80.173" width="125.862" height="112.179" filterUnits="userSpaceOnUse"><feOffset dy="3" input="SourceAlpha"/><feGaussianBlur stdDeviation="8" result="af"/><feFlood flood-color="#f8f8f8"/><feComposite operator="in" in2="af"/><feComposite in="SourceGraphic"/></filter><filter id="ah" x="380.794" y="77.298" width="126.428" height="115.277" filterUnits="userSpaceOnUse"><feOffset dy="3" input="SourceAlpha"/><feGaussianBlur stdDeviation="8" result="ai"/><feFlood flood-color="#f8f8f8"/><feComposite operator="in" in2="ai"/><feComposite in="SourceGraphic"/></filter></defs><g transform="translate(-39.855 -221.289)"><g transform="matrix(1, 0, 0, 1, 39.86, 221.29)" filter="url(#a)"><path d="M-87.6,1l-4.872,4.319h-13.193L-110.592,1V-5.665h7.637v3.344h7.716v-9.217h-10.428l-4.924-4.345V-31.708l4.924-4.345h13.193l4.872,4.319v6.425H-95.24v-3.107h-7.716V-19.2h10.481l4.872,4.345Zm22.62,4.319H-83.917V-36.053h7.663V-2.321h11.271ZM-37.281,1l-4.924,4.319h-14.22L-61.3,1V-31.708l4.872-4.345h14.22l4.924,4.345Zm-7.663-3.318v-26.1H-53.66v26.1Zm34.18-26.1h-7.584V5.316h-7.663V-28.417h-7.584v-7.637h22.831ZM29.658,1,24.707,5.316H10.961L6.089,1V-31.708l4.951-4.345H24.707l4.951,4.345v6.478H22.021v-3.186H13.752v26.1h8.269v-9.217H16.807V-19.2H29.658ZM52.831,5.316,50.987-3.9H42.982L41.139,5.316H33.344l8.269-41.369H52.357L60.625,5.316ZM49.46-11.537,46.985-23.914,44.509-11.537ZM92.91,5.316H85.247v-23.3L78.584-3.769l-6.636-14.22v23.3H64.312V-36.053h7.637l6.636,14.22,6.662-14.22H92.91Zm23.621,0H96.6V-36.053h19.776v7.637h-12.14V-19.2h10.454v7.663H104.233v9.217h12.3ZM143.206,1l-4.872,4.319H125.141L120.217,1V-5.665h7.637v3.344h7.716v-9.217H125.141l-4.924-4.345V-31.708l4.924-4.345h13.193l4.872,4.319v6.425h-7.637v-3.107h-7.716V-19.2h10.481l4.872,4.345Z" transform="translate(309.24 67.05)" fill="none" stroke="#fff" stroke-width="2"/></g><g transform="translate(64.126 319.987)"><g transform="matrix(1, 0, 0, 1, -24.27, -98.7)" filter="url(#d)"><path d="M9.537,187.645l6.448,14.437h18.2l-6.56-14.437Zm42.788-9.251-.135,1.679H.448L0,185.631H51.742L50.413,202.12H66.977L68.3,185.631h4.03l.448-5.559h-4.03l.135-1.679Zm-34-10.967H56.752l-.315,3.917H18.013Zm1.051-13.057H24.3l-.688,8.542H18.691Zm16.824,0h4.924l-.688,8.542H35.516Zm16.824,0H57.8l-.689,8.542H52.34Zm-16.151-8.357h4.887l-.268,3.32H36.61Zm14.114-8.952L48.7,140.454H30.61l-1.592-3.394H12.492l1.443,3.394H4.161l-.448,5.559H22.365l-.267,3.32H4.788L2.61,176.38H71.028l2.178-27.047H55.971l.268-3.32H75.3l.448-5.559H65.3l2.064-3.394Z" transform="translate(24.27 53.35)" stroke="#fff" stroke-width="0.5" fill="url(#c)"/></g><g transform="matrix(1, 0, 0, 1, -24.27, -98.7)" filter="url(#g)"><path d="M171.625,180.2l.2-2.5,11.347-4.252h-48.5l.406-5.037h67.97l-.43,5.335-13.376,5.82-.051.634h14.921l-.448,5.559H188.749l-1.316,16.34h-40.4l.406-5.037h22.831l.911-11.3H131.336l.448-5.559Zm7.965-40.065h27.531l-.49,6.081H134.82l.49-6.081h27.754l.262-3.246h16.526Zm-42.747,24.956,1.3-16.19H203.02l-1.3,16.19Zm16.931-5.036H185.6l.492-6.118H154.267Z" transform="translate(-19.18 53.41)" stroke="#fff" stroke-width="0.5" fill="url(#c)"/></g><g transform="matrix(1, 0, 0, 1, -24.27, -98.7)" filter="url(#j)"><path d="M294.315,158.193l8.489,6.23-.8,9.961-8.5-6.118-2.722,33.8H274.255l2.521-31.3L264.5,180.054l.968-12.012,23.585-18.167h-21.9l.529-6.566h11.3L277.3,137h16.414l1.693,6.3h9.438l-.532,6.6-9.93,7.5Zm13.717-21.152h17.085l-4.664,57.9h14.474l-.579,7.2H302.788Z" transform="translate(-63.24 53.37)" stroke="#fff" stroke-width="0.5" fill="url(#c)"/></g><g transform="matrix(1, 0, 0, 1, -24.27, -98.7)" filter="url(#m)"><path d="M440.208,162.849l-.568,7.051h27.009l-.49,6.081H439.151l-1.665,20.667h5.782l7.141-16.862h13.5l-6.767,16.862h7.8l-.489,6.081H392.267l.49-6.081h8.618l-5.021-16.862h13.467l5.282,16.862h5.26l1.665-20.667H394.982l.49-6.081h27.046l.567-7.051h-25.7l.49-6.081h69.163l-.49,6.081Zm-44.3-9.028,8.794-14.7h55.622l7.955,14.7H450.3l-4.344-8.132H418.238l-4.61,8.132Z" transform="translate(-105.51 52.67)" stroke="#fff" stroke-width="0.5" fill="url(#c)"/></g><g transform="matrix(1, 0, 0, 1, -24.27, -98.7)" filter="url(#p)"><path d="M544.985,195.313h52.488l-.529,6.566H528.938l3.243-40.252h-4.141l.532-6.6H548.23Zm-11.246-46.557-2.365-11.863h14.362l2.663,11.863Zm57.62,17.795,4.447,26.3h-14.25l-4-26.3h-4.4l-10.026,26.3H547.72l10.14-26.3h-8.207l.49-6.081h10.034l4.812-12.5H551.782l.49-6.081h6.454l-2.208-5h12.833l2.47,5h10.3l3.164-5h12.5l-2.94,5h6.23l-.49,6.081H580.247l-4.775,12.5H600.28l-.49,6.081Z" transform="translate(-150.43 53.41)" stroke="#fff" stroke-width="0.5" fill="url(#c)"/></g><g transform="matrix(1, 0, 0, 1, -24.27, -98.7)" filter="url(#s)"><path d="M704.334,149.96l6.974,51.444,15.4.037-8.426-51.481Zm-43.487-10.781-.613,7.609h12.647l-17.906,54.652,16.268-.037,16.289-54.951-4.616,57.3h16.6l4.588-56.965h26.6l.614-7.609Z" transform="translate(-192.43 52.65)" stroke="#fff" stroke-width="0.5" fill="url(#c)"/></g><g transform="matrix(1, 0, 0, 1, -24.27, -98.7)" filter="url(#v)"><path d="M808.876,178.17l-.49,6.081h21.786l-.994,12.348H814.143l-.448,5.558h31.6l1.442-17.906h14.512l.49-6.081Zm.746-11.117-.727,9.028h12.385l.238-2.948h28.016l-.213,2.648h12.571l.7-8.729Zm17.151-13.318h20.48l-.436,5.409h-20.48ZM812.7,148.7l-1.247,15.483h49.428l1.247-15.483Zm17.091-11.638-.244,3.021H809l.244-3.021H800.1l-7.822,4.477-.92,11.415,3.3-1.641-4.1,50.846H804l4.511-55.995h55.771l.49-6.081H845.032l.243-3.021Z" transform="translate(-237.29 53.35)" stroke="#fff" stroke-width="0.5" fill="url(#c)"/></g><g transform="matrix(1, 0, 0, 1, -24.27, -98.7)" filter="url(#y)"><path d="M214.183,26.9h37.3l-.532,6.6H237.115l-2.238,27.792h13.691l-.529,6.566H217.263L220.03,33.5h-8.916L195.3,67.673H176.2L192.424,33.5H178.845l.532-6.6h16.191l7.466-15.817H182.442l.529-6.566H251.5l-.529,6.566H221.463Z" transform="translate(-34.03 97.2)" stroke="#fff" stroke-width="0.5" fill="url(#c)"/></g><g transform="matrix(1, 0, 0, 1, -24.27, -98.7)" filter="url(#ab)"><path d="M342.094,4.014l-.553,6.864-5.16,17.757h3.879L333.714,65.9h-9.4l5.563-31.56h-2.835l.316-3.917L332.645,11.1H326.75l-4.561,56.629H309.766L314.9,4.014Zm2.574,0h39.506l-2.632,32.679H356.025l-1.563,19.4,13.784-15.519h13.318l-6.512,6.752,5.369,20.406H368.3l-2.731-10.558-10.14,10.558H339.536Zm11.889,26.077h12.049l.592-7.349H357.149Zm1.572-19.511-.49,6.081h12.049l.49-6.081Z" transform="translate(-78.22 97.37)" stroke="#fff" stroke-width="0.5" fill="url(#c)"/></g><g transform="matrix(1, 0, 0, 1, -24.27, -98.7)" filter="url(#ae)"><path d="M459.4,38.093,452.252,67.6h-13.84l7.972-29.508Zm.758-3.4H446.583l-2.126-14.362h13.094Zm.705-17.085H447.027l-2.5-13.43h13.43Zm54.81-13.541-.529,6.566H477.806l-4.6,57.113h-13.99l5.129-63.679ZM500.322,52.045l-6.671,15.668H476.639l4.279-53.122h33.8l-.49,6.081H492.852l-2.8,34.769,10.956-28.576H512.8l-3.358,8.8L511.07,67.75H501.034Z" transform="translate(-120.78 97.35)" stroke="#fff" stroke-width="0.5" fill="url(#c)"/></g><g transform="matrix(1, 0, 0, 1, -24.27, -98.7)" filter="url(#ah)"><path d="M616.444,54.279,615.5,66.03l27.091-11.676.988-12.273Zm-29.63-29.509-.436,5.41H572.239l-.531,6.6h3.1l-5.678,28.8h10.558l5.3-28.8h1.827l-2.4,29.844h12.945l2.4-29.844h2.089l.814,28.8h10.221l-1-28.8h4.066l.531-6.6H601.374l.435-5.41Zm32.245,7.237-.9,11.191,26.236-11.266.926-11.49ZM575.254,12.2l1.888,10.37h10.445L585.476,12.2Zm13.728,0,1.888,10.37h10.147l-2-10.37Zm-14.3-9.625L574.112,9.7H606.9l-3.651,12.907h11.229L618.17,9.7H620.3l.573-7.126ZM646.967,0,621.343,11.528,620.459,22.5l25.6-11.266Z" transform="translate(-164.03 98.7)" stroke="#fff" stroke-width="0.5" fill="url(#c)"/></g></g></g></svg>