<svg id="customer_service-icon" data-name="customer service-icon" xmlns="http://www.w3.org/2000/svg" xmlns:xlink="http://www.w3.org/1999/xlink" width="47.488" height="57.72" viewBox="0 0 47.488 57.72">
  <defs>
    <clipPath id="clip-path">
      <rect id="Rectangle_1375" data-name="Rectangle 1375" width="47.488" height="57.72" fill="#fff"/>
    </clipPath>
  </defs>
  <g id="Group_1696" data-name="Group 1696" clip-path="url(#clip-path)">
    <path id="Path_10" data-name="Path 10" d="M47.488,290.392a18.935,18.935,0,0,0-7.452-7.969,12.553,12.553,0,0,1-10.161,5.184H24.022a4.677,4.677,0,0,1-4.4-3.081,14.838,14.838,0,0,1-2.364-.935,15.921,15.921,0,0,1-4.416-3.269A18.883,18.883,0,0,0,0,290.392a28.865,28.865,0,0,0,47.488,0" transform="translate(0 -245.123)" fill="#fff"/>
    <path id="Path_11" data-name="Path 11" d="M54.209,29.154a3.338,3.338,0,0,0,2.926-1.73l.045.122.014.037a13.035,13.035,0,0,0,7.35,7.738A4.671,4.671,0,0,1,68.5,33.132h5.854a3.277,3.277,0,0,0,1.6-.431,6.616,6.616,0,0,0,1.891-2.184,16.879,16.879,0,0,0,1.464-3.094,3.356,3.356,0,0,0,.923,1.064v1.435A5.889,5.889,0,0,1,74.357,35.8H68.5a2,2,0,1,0,0,4.008h5.854a9.9,9.9,0,0,0,9.89-9.89V28.487a3.335,3.335,0,0,0,1.336-2.672V17.456A3.334,3.334,0,0,0,84.2,14.747a16.021,16.021,0,0,0-31.941,0,3.334,3.334,0,0,0-1.387,2.708v8.359a3.341,3.341,0,0,0,3.34,3.34M68.226,4.008A12.03,12.03,0,0,1,80.18,14.83a3.352,3.352,0,0,0-.939,1.16c-1.891-4.933-6.112-8.368-11.016-8.368-5.01,0-9.163,3.553-11.008,8.348l-.007.02a3.352,3.352,0,0,0-.939-1.16A12.03,12.03,0,0,1,68.226,4.008" transform="translate(-44.481)" fill="#fff"/>
  </g>
</svg>
