<?xml version="1.0" encoding="utf-8"?>
<!-- Generator: Adobe Illustrator 25.0.0, SVG Export Plug-In . SVG Version: 6.00 Build 0)  -->
<svg version="1.1" id="Layer_1" xmlns="http://www.w3.org/2000/svg" xmlns:xlink="http://www.w3.org/1999/xlink" x="0px" y="0px"
	 viewBox="0 0 283.7 374.5" style="enable-background:new 0 0 283.7 374.5;" xml:space="preserve">
<style type="text/css">
	.st0{fill:#FFFFFF;}
</style>
<g transform="matrix(1, 0, 0, 1, 0, 0)">
	<path id="info-box-2" class="st0" d="M14,365.5c-2.8,0-5-2.2-5-5V66.6c0-2.8,2.2-5,5-5c0,0,0,0,0,0h81.1c0-0.9-0.1-1.8-0.1-2.6
		c0-27.6,22.4-50,50-50s50,22.4,50,50c0,0.9,0,1.8-0.1,2.6h74.8c2.8,0,5,2.2,5,5v293.8c0,2.8-2.2,5-5,5H14z"/>
</g>
</svg>
