<svg id="phone-icon" xmlns="http://www.w3.org/2000/svg" xmlns:xlink="http://www.w3.org/1999/xlink" width="48.478" height="45.907" viewBox="0 0 48.478 45.907">
  <defs>
    <clipPath id="clip-path">
      <rect id="Rectangle_1378" data-name="Rectangle 1378" width="48.478" height="45.907" fill="#fff"/>
    </clipPath>
  </defs>
  <g id="Group_1707" data-name="Group 1707" clip-path="url(#clip-path)">
    <path id="Path_19" data-name="Path 19" d="M46.62,8.19C44.76,5.63,41.5,3.32,37.448,1.685,33.415.059,28.718.008,24.248,0S15.1.032,11.065,1.646C7,3.268,3.738,5.569,1.871,8.122A8.317,8.317,0,0,0,.376,15.767a4.007,4.007,0,0,0,3.84,2.768l6.055.006h.006A4.045,4.045,0,0,0,13.39,17.09a3.979,3.979,0,0,0,.867-3.271q-.009-.051-.022-.1l-.319-1.239c1.764-.842,5.748-1.62,10.314-1.594s8.571.8,10.337,1.643l-.324,1.232q-.014.052-.023.105a3.98,3.98,0,0,0,.858,3.274,4.045,4.045,0,0,0,3.115,1.46l6.055.006h.006A4.006,4.006,0,0,0,48.1,15.846,8.324,8.324,0,0,0,46.62,8.19" transform="translate(0 0)" fill="#fff"/>
    <path id="Path_20" data-name="Path 20" d="M86.3,179.449l-4.515-4.741a1.446,1.446,0,0,0-1.047-.449H77.822v-1.972a1.447,1.447,0,0,0-2.893,0v1.972H70.3v-1.972a1.447,1.447,0,1,0-2.893,0v1.972H64.485a1.447,1.447,0,0,0-1.047.449l-4.515,4.741a19.819,19.819,0,0,0-5.49,13.725v5.951a1.447,1.447,0,0,0,1.447,1.447H90.346a1.447,1.447,0,0,0,1.447-1.447v-5.951a19.818,19.818,0,0,0-5.49-13.725m-13.69,15.835a7.571,7.571,0,1,1,7.571-7.571,7.579,7.579,0,0,1-7.571,7.571" transform="translate(-48.373 -154.665)" fill="#fff"/>
    <path id="Path_21" data-name="Path 21" d="M211.281,299.642a4.678,4.678,0,1,0,4.678,4.678,4.683,4.683,0,0,0-4.678-4.678" transform="translate(-187.041 -271.271)" fill="#fff"/>
  </g>
</svg>
