<svg xmlns="http://www.w3.org/2000/svg" xmlns:xlink="http://www.w3.org/1999/xlink" width="53.287" height="46.023" viewBox="0 0 53.287 46.023">
  <defs>
    <clipPath id="clip-path">
      <rect id="Rectangle_1374" data-name="Rectangle 1374" width="53.287" height="46.023" fill="#fff"/>
    </clipPath>
  </defs>
  <g id="wechat-icon" transform="translate(-1690.445 -1154.666)">
    <g id="Group_1694" data-name="Group 1694" transform="translate(1690.445 1154.666)">
      <g id="Group_1693" data-name="Group 1693" clip-path="url(#clip-path)">
        <path id="Path_8" data-name="Path 8" d="M32.6,4.952A20.221,20.221,0,0,0,19.138,0,20.223,20.223,0,0,0,5.674,4.952,16.174,16.174,0,0,0,0,17.132a16.56,16.56,0,0,0,7.495,13.6l-.952,4.05a1.561,1.561,0,0,0,2.334,1.689l4.779-2.921a21.075,21.075,0,0,0,3.8.645,16.577,16.577,0,0,1,1.17-10.878A17.973,17.973,0,0,1,22.917,17.6a20.584,20.584,0,0,1,13.8-5.155c.283,0,.566.006.847.017A16.752,16.752,0,0,0,32.6,4.952M13.987,12.664a1.561,1.561,0,1,1,.457-1.1,1.577,1.577,0,0,1-.457,1.1m10.253,0a1.561,1.561,0,1,1,.457-1.1,1.578,1.578,0,0,1-.457,1.1" transform="translate(0 0.001)" fill="#fff"/>
        <path id="Path_9" data-name="Path 9" d="M226.673,164.479c0-8.194-7.435-14.861-16.573-14.861s-16.573,6.667-16.573,14.861,7.435,14.861,16.573,14.861a18.2,18.2,0,0,0,5.746-.918l4.1,1.548a1.561,1.561,0,0,0,2.041-1.929l-.792-2.517a14.13,14.13,0,0,0,5.478-11.044m-21.283-2.868a1.561,1.561,0,1,1,.458-1.1,1.573,1.573,0,0,1-.458,1.1m10.82,0a1.562,1.562,0,1,1,.457-1.1,1.572,1.572,0,0,1-.457,1.1" transform="translate(-173.385 -134.046)" fill="#fff"/>
      </g>
    </g>
  </g>
</svg>
