<?xml version="1.0" encoding="utf-8"?>
<!-- Generator: Adobe Illustrator 23.1.0, SVG Export Plug-In . SVG Version: 6.00 Build 0)  -->
<svg version="1.1" id="Layer_1" xmlns="http://www.w3.org/2000/svg" xmlns:xlink="http://www.w3.org/1999/xlink" x="0px" y="0px"
	 viewBox="0 0 435 100" style="enable-background:new 0 0 435 100;" xml:space="preserve">
<style type="text/css">
	.st0{fill-rule:evenodd;clip-rule:evenodd;fill:url(#SVGID_1_);}
	.st1{fill-rule:evenodd;clip-rule:evenodd;fill:url(#SVGID_2_);}
	.st2{fill-rule:evenodd;clip-rule:evenodd;fill:url(#SVGID_3_);}
	.st3{fill-rule:evenodd;clip-rule:evenodd;fill:url(#SVGID_4_);}
	.st4{fill-rule:evenodd;clip-rule:evenodd;fill:url(#SVGID_5_);}
	.st5{fill-rule:evenodd;clip-rule:evenodd;fill:url(#SVGID_6_);}
	.st6{fill-rule:evenodd;clip-rule:evenodd;fill:url(#SVGID_7_);}
	.st7{fill-rule:evenodd;clip-rule:evenodd;fill:url(#SVGID_8_);}
	.st8{fill-rule:evenodd;clip-rule:evenodd;fill:url(#SVGID_9_);}
	.st9{fill-rule:evenodd;clip-rule:evenodd;fill:url(#SVGID_10_);}
	.st10{fill-rule:evenodd;clip-rule:evenodd;fill:url(#SVGID_11_);}
	.st11{fill-rule:evenodd;clip-rule:evenodd;fill:url(#SVGID_12_);}
	.st12{fill-rule:evenodd;clip-rule:evenodd;fill:url(#SVGID_13_);}
	.st13{fill-rule:evenodd;clip-rule:evenodd;fill:url(#SVGID_14_);}
	.st14{fill-rule:evenodd;clip-rule:evenodd;fill:url(#SVGID_15_);}
	.st15{fill-rule:evenodd;clip-rule:evenodd;fill:url(#SVGID_16_);}
	.st16{fill-rule:evenodd;clip-rule:evenodd;fill:url(#SVGID_17_);}
	.st17{fill-rule:evenodd;clip-rule:evenodd;fill:url(#SVGID_18_);}
</style>
<g>
	<linearGradient id="SVGID_1_" gradientUnits="userSpaceOnUse" x1="50.7036" y1="89.8509" x2="92.8148" y2="-14.3779">
		<stop  offset="0" style="stop-color:#886728"/>
		<stop  offset="0.2984" style="stop-color:#A07E38"/>
		<stop  offset="0.7467" style="stop-color:#BE9A4D"/>
		<stop  offset="1" style="stop-color:#C9A555"/>
	</linearGradient>
	<path class="st0" d="M77.7,43.6l-0.1-13.4c-2.5,1.5-5.2,3-8.3,4.5c-5.2,2.6-11.4,5.1-18.5,7.3l10.1,32.5h16.1
		c0.3,0,0.6-0.3,0.6-0.6V60.6c0-0.3-0.3-0.6-0.6-0.6H65.7c-1,0-1.9-0.6-2.2-1.6l-2.1-6.9h20.4h1.4c1.6,0,2.9,1.3,2.9,2.9v1.4v23.1
		v0.3c0,2.2-1.8,4-4,4h-0.3H57.8h-1c-1.3,0-2.3-0.8-2.7-2l-0.3-1L41.4,40.5l-0.8-2.5c-0.1-0.5-0.1-0.9,0.1-1.3
		c0.2-0.4,0.6-0.7,1.1-0.8l2.6-0.7c8.3-2.2,15.4-5.1,21.2-7.9c5.8-2.9,10.4-5.8,13.7-8.3l5.8-4.2c0.2-0.1,0.4-0.1,0.6,0
		c0.2,0.1,0.3,0.3,0.3,0.5l0,7.2l0.1,21.3L77.7,43.6z"/>
	<linearGradient id="SVGID_2_" gradientUnits="userSpaceOnUse" x1="97.3576" y1="4.0283" x2="67.3307" y2="134.0893">
		<stop  offset="0" style="stop-color:#886728"/>
		<stop  offset="0.2984" style="stop-color:#A07E38"/>
		<stop  offset="0.7467" style="stop-color:#BE9A4D"/>
		<stop  offset="1" style="stop-color:#C9A555"/>
	</linearGradient>
	<path class="st1" d="M79.9,51.5h3.4c1.6,0,2.9,1.3,2.9,2.9v1.4v23.1v1.4c0,1.6-1.3,2.9-2.9,2.9h-4.7l1.1-0.3c1.8-0.5,2.9-2,2.9-3.9
		v-0.1V55.7v-1.4c0-1.4-1-2.6-2.4-2.8L79.9,51.5z"/>
	<linearGradient id="SVGID_3_" gradientUnits="userSpaceOnUse" x1="69.0013" y1="16.1927" x2="49.0716" y2="81.3799">
		<stop  offset="0" style="stop-color:#886728"/>
		<stop  offset="0.2984" style="stop-color:#A07E38"/>
		<stop  offset="0.7467" style="stop-color:#BE9A4D"/>
		<stop  offset="1" style="stop-color:#C9A555"/>
	</linearGradient>
	<path class="st2" d="M77.6,30.3c-1.7,1.2-6.5,3.7-8.2,4.5c-5.1,2.5-11.1,5-17.9,7.1c-0.3,0.1-0.5,0.4-0.4,0.7l8.4,27.2
		c0.7,2.2,2.2,3.8,4.4,4.5l0.7,0.2h-3.7c-2,0-3.8-1.3-4.4-3.2l-8.9-28.7c-0.1-0.3,0.1-0.6,0.4-0.7c6.9-2.1,12.8-4.6,17.9-7.1
		c2.7-1.4,8-4.3,10.8-6c0.2-0.1,0.4-0.1,0.6,0c0.2,0.1,0.3,0.3,0.3,0.5L77.6,30.3z"/>
	<linearGradient id="SVGID_4_" gradientUnits="userSpaceOnUse" x1="85.4156" y1="-6.616" x2="79.1653" y2="82.7676">
		<stop  offset="0" style="stop-color:#886728"/>
		<stop  offset="0.2984" style="stop-color:#A07E38"/>
		<stop  offset="0.7467" style="stop-color:#BE9A4D"/>
		<stop  offset="1" style="stop-color:#C9A555"/>
	</linearGradient>
	<path class="st3" d="M77.7,43.6L77.7,43.6l5.1,0l-0.1-21.3l0-5.8l2.5-1.8c0.2-0.1,0.4-0.1,0.6,0c0.2,0.1,0.3,0.3,0.3,0.5l0,7.2
		l0.1,21.3L77.7,43.6z"/>
	<linearGradient id="SVGID_5_" gradientUnits="userSpaceOnUse" x1="82.8919" y1="86.5229" x2="125.5387" y2="-19.0318">
		<stop  offset="0" style="stop-color:#886728"/>
		<stop  offset="0.2984" style="stop-color:#A07E38"/>
		<stop  offset="0.7467" style="stop-color:#BE9A4D"/>
		<stop  offset="1" style="stop-color:#C9A555"/>
	</linearGradient>
	<path class="st4" d="M99.8,23.3v27.9c0,0.6,0.5,1.1,1.1,1.1h14.1l-2.2,6.9c-0.3,1-1.2,1.6-2.2,1.6H95.6h-1.4
		c-1.6,0-2.9-1.3-2.9-2.9v-1.4V18.8c0-0.2,0.1-0.4,0.3-0.5c0.2-0.1,0.4-0.1,0.6,0C94.6,20.1,97.1,21.7,99.8,23.3z"/>
	<linearGradient id="SVGID_6_" gradientUnits="userSpaceOnUse" x1="108.3267" y1="-10.598" x2="74.9046" y2="105.9586">
		<stop  offset="0" style="stop-color:#886728"/>
		<stop  offset="0.2984" style="stop-color:#A07E38"/>
		<stop  offset="0.7467" style="stop-color:#BE9A4D"/>
		<stop  offset="1" style="stop-color:#C9A555"/>
	</linearGradient>
	<path class="st5" d="M96.5,60.8h-2.3c-1.6,0-2.9-1.3-2.9-2.9v-1.4V18.8c0-0.2,0.1-0.4,0.3-0.5c0.2-0.1,0.4-0.1,0.6,0
		c0.8,0.6,1.6,1.2,2.5,1.7v36.5v1.6c0,1.1,0.6,2.1,1.6,2.6L96.5,60.8z"/>
	<linearGradient id="SVGID_7_" gradientUnits="userSpaceOnUse" x1="55.6115" y1="89.8076" x2="121.5429" y2="89.8076">
		<stop  offset="0" style="stop-color:#886728"/>
		<stop  offset="0.5" style="stop-color:#D9B766"/>
		<stop  offset="1" style="stop-color:#886728"/>
	</linearGradient>
	<path class="st6" d="M55.8,87h65.5l-1.1,3.7c-0.4,1.2-1.5,2-2.7,2H59.7c-1.3,0-2.3-0.8-2.7-2L55.8,87z"/>
	<linearGradient id="SVGID_8_" gradientUnits="userSpaceOnUse" x1="61.8884" y1="189.6696" x2="197.9792" y2="-147.1671">
		<stop  offset="0" style="stop-color:#886728"/>
		<stop  offset="0.2984" style="stop-color:#A07E38"/>
		<stop  offset="0.7467" style="stop-color:#BE9A4D"/>
		<stop  offset="1" style="stop-color:#C9A555"/>
	</linearGradient>
	<path class="st7" d="M135.6,39.7c-4.2,13.5-8.4,26.9-12.6,40.4l-0.3,1c-0.4,1.2-1.5,2-2.7,2h-1H91.3v-0.2h0v-8.3h24.5
		c4-13,8.1-26,12.1-39.1c2.2,0.7,4.4,1.4,6.5,2c0.5,0.1,0.8,0.4,1,0.8C135.7,38.8,135.8,39.3,135.6,39.7z"/>
	<linearGradient id="SVGID_9_" gradientUnits="userSpaceOnUse" x1="139.7032" y1="28.53" x2="90.22" y2="94.1965">
		<stop  offset="0" style="stop-color:#886728"/>
		<stop  offset="0.2984" style="stop-color:#A07E38"/>
		<stop  offset="0.7467" style="stop-color:#BE9A4D"/>
		<stop  offset="1" style="stop-color:#C9A555"/>
	</linearGradient>
	<path class="st8" d="M94.7,83.1h-3.4v-0.2h0v-8.3h3.4v8.3h0V83.1L94.7,83.1z M112.2,74.6l1.5-0.1c1.5-0.1,2.6-1.3,3.1-2.7l9.6-30.8
		v0l1.7-5.4c1,0.3,2.1,0.7,3.1,1l-1.4,4.4v0l-9.8,31.7c-0.4,1.2-1.5,2-2.7,2H112.2z"/>
	<linearGradient id="SVGID_10_" gradientUnits="userSpaceOnUse" x1="154.2504" y1="91.0953" x2="392.0087" y2="91.0953">
		<stop  offset="0" style="stop-color:#886728"/>
		<stop  offset="0.5" style="stop-color:#D9B766"/>
		<stop  offset="1" style="stop-color:#886728"/>
	</linearGradient>
	<path class="st9" d="M164,92.6c0.2-1,0.3-1.5,0.6-2.2c-0.8,0.1-1.3,0.1-2.2,0.1h-1c-1.2,0-1.6,0-2.2-0.1l-0.4,2.3
		c0.6-0.1,1-0.1,1.9-0.1h1l-0.6,2.8c-1.1,0.6-2,0.8-3.3,0.8c-1.5,0-2.4-0.4-3-1.2c-0.7-0.9-0.8-2.3-0.5-4.1c0.4-1.8,1.1-3.1,2.2-4
		c0.8-0.7,1.9-1.1,3-1.1c1.9,0,2.7,0.6,3,2.1l2.7-0.6c-0.2-1-0.4-1.5-1-2.1c-0.8-1-2.3-1.5-4-1.5c-1.7,0-3,0.3-4.3,1
		c-2.2,1.2-3.6,3.4-4.2,6.1c-0.4,2.2-0.2,4,0.7,5.3c0.9,1.3,2.5,2,4.9,2c0.9,0,1.9-0.1,2.8-0.3c1-0.2,1.8-0.5,3.2-1.2
		c0-0.8,0.1-1.2,0.3-2.3L164,92.6L164,92.6z M181.5,84.2c0,0.6-0.1,1.3-0.3,2.4l-1.2,6.1c-0.5,2.4-2,3.6-4.5,3.6
		c-2.5,0-3.6-1.2-3.1-3.6l1.2-6.2c0.2-1.1,0.4-1.8,0.6-2.4h-2.8c0,0.6-0.1,1.3-0.3,2.4l-1.2,6.2c-0.3,1.7-0.2,3.1,0.6,4
		c0.8,1,2.4,1.6,4.5,1.6c4,0,6.7-2,7.4-5.6l1.2-6.2c0.2-1.1,0.4-1.7,0.6-2.4H181.5L181.5,84.2z M200.8,98.1
		c-0.2-0.5-0.3-0.9-0.5-2.1l-2.1-10.1c-0.2-1.1-0.3-1.3-0.3-1.8h-3.2c-0.2,0.5-0.4,0.9-0.9,1.8L187.6,96c-0.5,0.8-1,1.6-1.4,2.1h3
		c0.3-0.7,0.4-1,0.9-1.8l1.1-1.9h5.9l0.4,1.9c0.1,0.5,0.2,1.3,0.2,1.8H200.8L200.8,98.1z M197,92.3h-4.6l3-5.2
		c0.1-0.2,0.1-0.2,0.5-1c0.1,0.6,0.1,0.8,0.1,1L197,92.3L197,92.3z M218.1,98.1c0-0.6,0.1-1.3,0.3-2.3l1.8-9.2
		c0.2-1.1,0.4-1.7,0.6-2.4h-2.7c0,0.7-0.1,1.4-0.3,2.4l-1.2,5.9c-0.1,0.7-0.3,1.8-0.4,2.5c-0.3-0.7-0.7-1.6-1-2.2l-3.4-6.6
		c-0.5-0.9-0.7-1.4-0.8-1.8h-2.9c0,0.7-0.1,1.3-0.3,2.3l-1.8,9c-0.2,1.2-0.5,2.1-0.7,2.6h2.7c0-0.6,0.1-1.4,0.4-2.6l1.1-5.7
		c0.1-0.4,0.2-1.2,0.2-1.5c0.1-0.6,0.1-0.6,0.1-0.9c0.3,0.8,0.6,1.6,0.8,2.1l3.4,6.8c0.4,0.8,0.6,1.3,0.8,1.9H218.1L218.1,98.1z
		 M236,98.1c0-0.7,0.1-1.4,0.3-2.3l0.7-3.4l5.5-6.4c0.4-0.5,1.3-1.4,1.6-1.8H241c-0.2,0.5-0.6,1-1.2,1.7l-3.6,4.3l-1.8-4.3
		c-0.3-0.8-0.5-1.2-0.6-1.7h-3.2c0.4,0.8,0.7,1.4,0.9,1.8l3,6.4l-0.7,3.5c-0.2,0.9-0.4,1.6-0.6,2.3H236L236,98.1z M248.9,84.2
		c0,0.7-0.1,1.2-0.3,2.3l-1.9,9.4c-0.2,1-0.4,1.6-0.6,2.3h2.8c0-0.7,0.1-1.2,0.3-2.3l1.9-9.4c0.2-1,0.4-1.6,0.6-2.3H248.9
		L248.9,84.2z M267.4,98.1c0-0.6,0.1-1.3,0.3-2.3l1.8-9.2c0.2-1.1,0.4-1.7,0.6-2.4h-2.7c0,0.7-0.1,1.4-0.3,2.4l-1.2,5.9
		c-0.1,0.7-0.3,1.8-0.4,2.5c-0.3-0.7-0.7-1.6-1-2.2l-3.4-6.6c-0.5-0.9-0.7-1.4-0.8-1.8h-2.9c0,0.7-0.1,1.3-0.3,2.3l-1.8,9
		c-0.2,1.2-0.5,2.1-0.7,2.6h2.7c0-0.6,0.1-1.4,0.4-2.6l1.1-5.7c0.1-0.4,0.2-1.2,0.2-1.5c0.1-0.6,0.1-0.6,0.1-0.9
		c0.3,0.8,0.6,1.6,0.8,2.1l3.4,6.8c0.4,0.8,0.6,1.3,0.8,1.9H267.4L267.4,98.1z M286.4,92.6c0.2-1,0.3-1.5,0.6-2.2
		c-0.8,0.1-1.3,0.1-2.2,0.1h-1c-1.2,0-1.6,0-2.2-0.1l-0.4,2.3c0.6-0.1,1-0.1,1.9-0.1h1l-0.6,2.8c-1.1,0.6-2,0.8-3.3,0.8
		c-1.5,0-2.4-0.4-3-1.2c-0.6-0.9-0.8-2.3-0.5-4.1c0.4-1.8,1.1-3.1,2.2-4c0.8-0.7,1.9-1.1,3-1.1c1.9,0,2.7,0.6,3,2.1l2.7-0.6
		c-0.2-1-0.4-1.5-1-2.1c-0.8-1-2.3-1.5-4-1.5c-1.7,0-3,0.3-4.3,1c-2.2,1.2-3.6,3.4-4.2,6.1c-0.4,2.2-0.2,4,0.7,5.3
		c0.9,1.3,2.5,2,4.9,2c0.9,0,1.9-0.1,2.8-0.3c1-0.2,1.8-0.5,3.2-1.2c0-0.8,0.1-1.2,0.3-2.3L286.4,92.6L286.4,92.6z M296.4,94
		c0,0.7,0,1,0.1,1.4c0.2,0.9,0.6,1.5,1.2,2c0.8,0.6,2.2,0.9,3.7,0.9c2,0,3.5-0.4,4.7-1.3c0.9-0.7,1.5-1.7,1.8-3c0.3-1.3,0-2.3-0.9-3
		c-0.6-0.4-1.4-0.8-2.8-1.1c-2-0.4-2.1-0.5-2.5-0.6c-0.8-0.3-1.1-0.9-0.9-1.6c0.2-1.1,1.5-1.9,3.1-1.9c1,0,1.8,0.3,2.1,0.8
		c0.2,0.3,0.3,0.6,0.3,1.2l2.7-0.3c0-0.9-0.2-1.4-0.5-2c-0.7-1.2-2.2-1.8-4.3-1.8c-3.2,0-5.6,1.6-6.1,4c-0.2,1.2,0.1,2.1,0.9,2.8
		c0.6,0.5,1.3,0.8,2.6,1.1c2.4,0.6,2.6,0.6,3.1,0.9c0.5,0.3,0.8,0.9,0.6,1.6c-0.3,1.3-1.5,2.1-3.4,2.1c-1.2,0-2.1-0.4-2.5-1
		c-0.3-0.4-0.3-0.8-0.2-1.5L296.4,94L296.4,94z M315.3,98.1c0-0.7,0.1-1.3,0.3-2.3l0.6-2.9h3.5c1.8,0,3.1-0.4,4.2-1.3
		c1-0.8,1.6-1.9,1.9-3.2c0.2-1.3,0.1-2.3-0.6-3c-0.7-0.8-1.9-1.2-3.7-1.2h-3.9c-1,0-1.6,0-2.3-0.1c0,0.8-0.1,1.4-0.3,2.3l-1.9,9.4
		c-0.2,0.9-0.3,1.6-0.6,2.3H315.3L315.3,98.1z M316.6,90.9l0.9-4.7h3.5c1,0,1.6,0.2,1.9,0.6c0.3,0.4,0.4,1,0.3,1.7
		c-0.3,1.5-1.4,2.4-3.1,2.4H316.6L316.6,90.9z M338.2,83.9c-2,0-3.6,0.6-5.1,1.7c-1.6,1.3-2.7,3.2-3.2,5.4c-0.9,4.4,1.3,7.3,5.5,7.3
		c4.2,0,7.5-2.9,8.4-7.3c0.4-2.3,0.1-4.2-1-5.4C341.6,84.4,340.2,83.9,338.2,83.9L338.2,83.9z M335.8,96.3c-1.1,0-2-0.4-2.7-1.1
		c-0.8-0.9-1-2.4-0.7-4.1c0.6-3.2,2.7-5.1,5.4-5.1c1.1,0,2,0.4,2.6,1.1c0.8,0.9,1,2.3,0.7,4.1C340.4,94.3,338.4,96.3,335.8,96.3
		L335.8,96.3z M360.2,98.1c-0.2-0.5-0.4-1.4-0.5-1.7c-1-4.1-1.3-4.6-2.4-4.9c1.1-0.3,1.6-0.5,2.3-1c0.8-0.6,1.2-1.5,1.5-2.6
		c0.5-2.3-0.9-3.6-3.7-3.6h-4.4c-1,0-1.6,0-2.4-0.1c-0.1,0.8-0.1,1.3-0.3,2.3l-1.9,9.4c-0.2,1.1-0.3,1.5-0.6,2.3h2.8
		c0-0.7,0.1-1.2,0.3-2.3l0.7-3.6h2.8c1.4,0,1.9,0.6,2.5,3.1c0.3,1.5,0.5,2.4,0.4,2.8H360.2L360.2,98.1z M351.8,90.2l0.8-4.1h3.8
		c1.5,0,2.1,0.6,1.9,1.9c-0.1,0.7-0.4,1.2-0.9,1.5c-0.5,0.4-1.2,0.6-1.9,0.6H351.8L351.8,90.2z M374.1,86.3h2.3c1.3,0,2,0,2.7,0.1
		l0.5-2.3c-0.7,0.1-1.4,0.1-2.7,0.1h-7.3c-1.1,0-1.8,0-2.5-0.1l-0.5,2.3c0.7-0.1,1.5-0.1,2.6-0.1h2.5l-1.9,9.5
		c-0.2,0.9-0.3,1.5-0.6,2.3h2.8c0-0.7,0.1-1.3,0.3-2.3L374.1,86.3L374.1,86.3z M381.9,94c0,0.7,0,1,0.1,1.4c0.2,0.9,0.6,1.5,1.2,2
		c0.8,0.6,2.2,0.9,3.7,0.9c2,0,3.5-0.4,4.7-1.3c0.9-0.7,1.5-1.7,1.8-3c0.3-1.3,0-2.3-0.9-3c-0.6-0.4-1.4-0.8-2.8-1.1
		c-2-0.4-2.1-0.5-2.5-0.6c-0.8-0.3-1.1-0.9-0.9-1.6c0.2-1.1,1.5-1.9,3.1-1.9c1,0,1.8,0.3,2.1,0.8c0.2,0.3,0.3,0.6,0.3,1.2l2.7-0.3
		c0-0.9-0.2-1.4-0.5-2c-0.7-1.2-2.2-1.8-4.3-1.8c-3.2,0-5.6,1.6-6.1,4c-0.2,1.2,0.1,2.1,0.9,2.8c0.6,0.5,1.3,0.8,2.6,1.1
		c2.4,0.6,2.6,0.6,3.1,0.9c0.5,0.3,0.7,0.9,0.6,1.6c-0.3,1.3-1.5,2.1-3.4,2.1c-1.2,0-2.1-0.4-2.5-1c-0.3-0.4-0.3-0.8-0.2-1.5
		L381.9,94z"/>
	<linearGradient id="SVGID_11_" gradientUnits="userSpaceOnUse" x1="115.4712" y1="51.1629" x2="248.6627" y2="51.1629">
		<stop  offset="0" style="stop-color:#886728"/>
		<stop  offset="0.5" style="stop-color:#D9B766"/>
		<stop  offset="1" style="stop-color:#886728"/>
	</linearGradient>
	<path class="st10" d="M179.8,58.4L179.8,58.4L179.8,58.4h-2.3h-1l-1.2,11.9h31.6l-0.6,5.8h-2h0h0h-2.1h-34.8l1.8-17.7H165
		l-4.9,17.7h-7.3l5.2-17.7h-3.6l0.6-5.7h1.8h1.5h24.1l-0.6,5.7H179.8L179.8,58.4z M210.1,38.9h-7.3l0.7-6.9h-39.1l-0.7,6.9h-7.3
		l1.1-10.6l-0.6-2.1h54.5L210.1,38.9L210.1,38.9z M207,41.3h-8.4l0.9,1.7l-0.3,2.5h-11.4h-1.8h-1.8l-0.6,5.7h15L197,66.3l-1.7,2.3
		h8.8l1.8-17.3h0.6h0.3h0h2l0.6-5.7h-2.9L207,41.3L207,41.3z M180.5,47.3L180.5,47.3h-3.6H156l0.6-5.6h1.8h1.9H183l-0.6,5.6H180.5
		L180.5,47.3z M194.2,68.5l-2.1-14.1h-8l0.9,1.7l1.9,12.4H194.2z"/>
	<linearGradient id="SVGID_12_" gradientUnits="userSpaceOnUse" x1="217.0222" y1="51.9202" x2="271.8092" y2="51.9202">
		<stop  offset="0" style="stop-color:#886728"/>
		<stop  offset="0.5" style="stop-color:#D9B766"/>
		<stop  offset="1" style="stop-color:#886728"/>
	</linearGradient>
	<path class="st11" d="M268.2,76.9L268.2,76.9L268.2,76.9h-4h-47.7l0.5-5.1h1.7h0.5h0.5l1-10.3l-0.9-1.6h48.7l-0.5,4.9H268l-0.7,7
		h3.4l-0.5,5.1H268.2L268.2,76.9z M272.4,40l-1.7,16.7h-8.8l1.7-2.3l1-9.4h-6.6l3.8-12.9h-25.7l-7.1,24.6h-7.3l7.3-24.6h-5.7
		l0.5-5.1h1.8h1.4h43.5l-3.7,13H272.4L272.4,40z M244.4,42.6h-7.6l5.2,6.6l-4.7,4.1h-1.3h-1.3H233l-0.4,3.5h9.3l3.6-3.2l2.5,3.2h8.7
		l0.4-3.5h-1.8h-1.4h-1.4l-2.6-3.4l6.5-5.8l0.9-8.5h-15.5h-2.5h-1.8l-0.5,5h13.6l-0.1,1.1l-4,3.6L244.4,42.6L244.4,42.6z
		 M227.1,71.7h6.6l0.7-7h-6.6L227.1,71.7L227.1,71.7z M241,71.7h6.6l0.7-7h-6.6L241,71.7L241,71.7z M254.9,71.7h5.2l0.7-7h-5.2
		L254.9,71.7z"/>
	<linearGradient id="SVGID_13_" gradientUnits="userSpaceOnUse" x1="282.6798" y1="52.0044" x2="337.0718" y2="52.0044">
		<stop  offset="0" style="stop-color:#886728"/>
		<stop  offset="0.5" style="stop-color:#D9B766"/>
		<stop  offset="1" style="stop-color:#886728"/>
	</linearGradient>
	<path class="st12" d="M335,36L335,36L335,36h-6.4h-8.7l-0.6,6h13.1l0.6,35.2h-7.5l-0.1-5.3h-9.1l-0.5,5.3h-7.4l0.5-5.3h-7.6l-1,4.8
		h-7.4l7.2-33.6l-0.9-1.6h8.6l-5.3,24.7h6.9l3-30.1h-14.7l0.6-5.8h1.8h1.4h11.4l0.1-1.3l-0.9-1.6h8.4l-0.3,2.9h17.1L337,36H335
		L335,36z M290.4,76.6l3.7-36.6h-2.3l5.1-13.1h-8.5l0.9,1.7l-7.1,17.5h4L283,76.6H290.4L290.4,76.6z M316.9,66.1h8.4l-0.4-18.4h-6.2
		L316.9,66.1z"/>
	<linearGradient id="SVGID_14_" gradientUnits="userSpaceOnUse" x1="342.1002" y1="51.9201" x2="402.2007" y2="51.9201">
		<stop  offset="0" style="stop-color:#886728"/>
		<stop  offset="0.5" style="stop-color:#D9B766"/>
		<stop  offset="1" style="stop-color:#886728"/>
	</linearGradient>
	<path class="st13" d="M395.4,49.4l-2.8,27.3h-8.8l1.7-2.3l0.2-1.6h-32.8l-0.4,3.9h-7.3l2.6-25.7l-0.9-1.6H395.4L395.4,49.4z
		 M393.8,45.4L393.8,45.4h-3.6h-41.9l0.9-8.8h-3.6l0.6-5.8h1.8h1.8h20.2l0.2-2l-0.9-1.6h8.4l-0.4,3.6h21.9l-0.6,5.8h-2h0h-4.2h-35.7
		l-0.3,3h40.1l-0.6,5.8H393.8L393.8,45.4z M353.5,67h32.8l0.3-3.1h-32.8L353.5,67L353.5,67z M354.4,58.2h32.8l0.3-3.1h-32.8
		L354.4,58.2z"/>
	<g>
		<linearGradient id="SVGID_15_" gradientUnits="userSpaceOnUse" x1="133.6756" y1="32.5021" x2="138.5357" y2="20.4728">
			<stop  offset="0" style="stop-color:#886728"/>
			<stop  offset="0.2984" style="stop-color:#A07E38"/>
			<stop  offset="0.7467" style="stop-color:#BE9A4D"/>
			<stop  offset="1" style="stop-color:#C9A555"/>
		</linearGradient>
		<path class="st14" d="M135.5,22.6c0.9,0,1.7,0.2,2.4,0.6c-0.3,0.1-0.6,0.3-0.8,0.6c-0.3,0.5-0.4,0.9-0.3,1.5
			c0.1,0.6,0.4,1.2,0.8,2.1c0.6,1,1.2,2.4,1.2,3.6c0,0.3,0,0.7-0.1,1c-0.9,0.7-2.1,1.2-3.3,1.2c-1.2,0-2.3-0.4-3.2-1.1
			c-0.1-0.3-0.2-0.7-0.1-1.1c0.1-1.2,0.7-2.6,1.2-3.6c0.4-0.8,0.7-1.5,0.8-2.1c0.1-0.6,0-1.1-0.3-1.5c-0.2-0.3-0.5-0.5-0.9-0.6
			C133.9,22.8,134.7,22.6,135.5,22.6L135.5,22.6z M131.6,31.4c0-0.1,0-0.3,0-0.5c0.1-1.3,0.7-2.8,1.3-3.9c0.4-0.8,0.7-1.4,0.8-1.9
			c0.1-0.4,0-0.8-0.2-1.1c-0.2-0.4-0.8-0.4-1.2-0.4c-1.3,1-2.1,2.5-2.1,4.2C130.3,29.3,130.8,30.5,131.6,31.4L131.6,31.4z
			 M138.7,23.7c-0.4,0-0.9,0-1.1,0.4c-0.2,0.3-0.3,0.7-0.2,1.1c0.1,0.5,0.4,1.1,0.8,1.9c0.6,1.1,1.2,2.6,1.3,3.9c0,0.1,0,0.2,0,0.3
			c0.8-0.9,1.3-2.1,1.3-3.4C140.8,26.2,140,24.7,138.7,23.7z"/>
		<linearGradient id="SVGID_16_" gradientUnits="userSpaceOnUse" x1="39.2727" y1="32.7099" x2="44.1385" y2="20.6666">
			<stop  offset="0" style="stop-color:#886728"/>
			<stop  offset="0.2984" style="stop-color:#A07E38"/>
			<stop  offset="0.7467" style="stop-color:#BE9A4D"/>
			<stop  offset="1" style="stop-color:#C9A555"/>
		</linearGradient>
		<path class="st15" d="M41.4,22.9c1.3,0.1,2.5,0.6,3.4,1.5c-0.1,0.1-0.1,0.1-0.2,0.2l0,0c-0.9,0.9-1.4,2-1.5,3.3h-1.7V22.9
			L41.4,22.9z M43.1,28.4c0.1,1.3,0.6,2.5,1.5,3.3v0c0.1,0.1,0.1,0.1,0.2,0.2c-0.9,0.9-2.1,1.4-3.4,1.5v-5H43.1L43.1,28.4z
			 M40.8,33.4c-1.3-0.1-2.5-0.6-3.4-1.5c0.1-0.1,0.1-0.1,0.2-0.2v0c0.9-0.9,1.4-2,1.5-3.3h1.7V33.4L40.8,33.4z M39.2,27.8
			c-0.1-1.3-0.6-2.5-1.5-3.3c-0.1-0.1-0.1-0.1-0.2-0.2c0.9-0.9,2.1-1.4,3.4-1.5v5H39.2L39.2,27.8z M37.1,31.5
			c0.1-0.1,0.1-0.1,0.2-0.2h0c0.8-0.8,1.2-1.8,1.3-2.9h-2.7C35.9,29.6,36.4,30.6,37.1,31.5L37.1,31.5z M35.9,27.8h2.7
			c-0.1-1.1-0.6-2.2-1.3-2.9c-0.1-0.1-0.1-0.1-0.2-0.2C36.4,25.6,35.9,26.7,35.9,27.8L35.9,27.8z M45.2,24.7
			c-0.1,0.1-0.1,0.1-0.2,0.2l0,0c-0.8,0.8-1.2,1.8-1.3,2.9h2.7C46.3,26.7,45.9,25.6,45.2,24.7L45.2,24.7z M46.4,28.4h-2.7
			c0.1,1.1,0.6,2.2,1.3,2.9c0.1,0.1,0.1,0.1,0.2,0.2C45.9,30.6,46.3,29.6,46.4,28.4z"/>
	</g>
	<g>
		<linearGradient id="SVGID_17_" gradientUnits="userSpaceOnUse" x1="86.7325" y1="11.7004" x2="91.6121" y2="-0.3771">
			<stop  offset="0" style="stop-color:#886728"/>
			<stop  offset="0.2984" style="stop-color:#A07E38"/>
			<stop  offset="0.7467" style="stop-color:#BE9A4D"/>
			<stop  offset="1" style="stop-color:#C9A555"/>
		</linearGradient>
		<path class="st16" d="M86.2,11c-0.4-0.2-1.3-1.1-1.6-1.5c-0.1,0.1-0.3,0.2-0.4,0.3c0.6,1,1.6,1.8,2.8,2.2
			C86.8,11.8,86.4,11.4,86.2,11L86.2,11z M87.8,10.1C87.8,10.1,87.8,10.1,87.8,10.1c-0.3-0.6-0.5-1.3-0.7-1.9
			C87.3,7.7,87.7,7.3,88,7c0.1-0.1,0.3-0.3,0.5-0.4c0.1-0.1,0.1-0.1,0.1-0.1c0.2,0,0.4,0.1,0.6,0.1c0.4,0,0.7,0.1,1.1,0.2
			c0.1,0,0.2,0,0.3,0.1c0,0,0,0.1,0.1,0.1c0.2,0.4,0.7,1.3,0.7,2c-0.5,0.7-1,1.2-1.4,1.6c-0.3,0-0.7,0-1.1,0
			c-0.3-0.1-0.7-0.2-0.8-0.2C87.9,10.1,87.8,10.1,87.8,10.1L87.8,10.1L87.8,10.1z M87.1,12L87.1,12C87.1,12,87.1,12,87.1,12
			C87.1,12,87.1,12,87.1,12L87.1,12L87.1,12z M86,4L86,4c-0.5,0.5-1,1-1.4,1.7c0,0,0,0.1,0,0.2c0,0.1,0.1,0.4,0.1,0.6
			c0.1,0.4,0.2,0.9,0.5,1.3c0.1,0,0.2,0,0.4,0.1c0.2,0,0.4,0.1,0.5,0.1C86.4,8,86.7,8,87,8.1c0.3-0.8,1.2-1.5,1.5-1.7
			c-0.1-0.5-0.3-1-0.4-1.5C88,4.7,88,4.5,88,4.4c-0.3-0.2-0.7-0.3-1.1-0.4l0,0l0,0l0,0l0,0C86.5,3.9,86.2,3.9,86,4L86,4z M90,10.6
			c0.2,0.5,0.4,0.8,0.6,0.9c-0.2,0.2-0.5,0.4-0.8,0.5c-0.1,0-0.1,0.1-0.2,0.1c-0.6,0.1-1.3,0.2-2,0c-0.1,0-0.2,0-0.3-0.1
			c-0.3-0.2-0.8-0.6-1.1-1.1c0.3-0.1,1-0.4,1.4-0.8c0.2,0.1,0.6,0.2,1.1,0.3C89.3,10.6,89.6,10.6,90,10.6L90,10.6L90,10.6z
			 M84.2,9.7L84.2,9.7C84.2,9.7,84.2,9.7,84.2,9.7L84.2,9.7C84.2,9.7,84.2,9.7,84.2,9.7L84.2,9.7z M85.1,7.8c-0.2,0.3-0.5,1-0.5,1.6
			c-0.2,0.1-0.3,0.2-0.4,0.3c-0.6-1-0.9-2.3-0.6-3.5c0-0.3,0.1-0.5,0.2-0.8c0.2,0.1,0.5,0.2,0.7,0.2C84.5,6,84.6,7.1,85.1,7.8
			L85.1,7.8L85.1,7.8z M93,4.6L93,4.6L93,4.6C93,4.6,93,4.6,93,4.6C93,4.6,93,4.6,93,4.6L93,4.6z M89.9,3.5c0-0.4-0.1-0.9-0.2-1.2
			c0.1,0,0.2-0.1,0.4-0.1c1.3,0.4,2.3,1.2,3,2.4c0,0.1,0,0.1,0,0.2c0,0.1,0,0.2,0,0.3c-0.4-0.2-0.9-0.3-1.5-0.3
			C91.3,4.5,90.3,3.6,89.9,3.5L89.9,3.5L89.9,3.5z M86,3.8c-0.1-0.3-0.1-0.7,0-1.1c0.9-0.5,2-0.8,3.1-0.7c0,0,0,0,0,0
			c0.2,0.1,0.3,0.2,0.5,0.3c0.1,0.3,0.2,0.8,0.2,1.2c-0.5,0.1-1.5,0.6-1.7,0.8c-0.3-0.2-0.7-0.3-1.1-0.4C86.5,3.8,86.2,3.8,86,3.8
			L86,3.8L86,3.8z M92.9,9L92.9,9c0,0.5-0.1,0.9-0.4,1.4c0.6-0.7,0.9-1.5,1.1-2.4c0-0.2,0.1-0.4,0.1-0.6C93.6,7.8,93.4,8.5,92.9,9
			L92.9,9z M90.1,12L90.1,12c0.5-0.2,1.1-0.4,1.5-0.8c-0.4,0.2-0.7,0.3-0.9,0.3C90.6,11.7,90.4,11.9,90.1,12L90.1,12z M91.5,4.9
			L91.5,4.9c-0.1,0.6-0.4,1.2-0.8,1.7C90.9,7,91.5,8,91.5,8.8c0,0,0.1,0,0.1,0c0.3,0.1,0.9,0.1,1.1,0.1c0.6-0.6,0.8-1.5,0.8-1.8
			c0,0,0,0,0-0.1c-0.1-0.6-0.4-1.4-0.6-1.8c-0.2-0.1-0.4-0.2-0.7-0.2C92.1,5,91.8,4.9,91.5,4.9z"/>
		<linearGradient id="SVGID_18_" gradientUnits="userSpaceOnUse" x1="86.6505" y1="11.8836" x2="91.7206" y2="-0.6654">
			<stop  offset="0" style="stop-color:#886728"/>
			<stop  offset="0.2984" style="stop-color:#A07E38"/>
			<stop  offset="0.7467" style="stop-color:#BE9A4D"/>
			<stop  offset="1" style="stop-color:#C9A555"/>
		</linearGradient>
		<path class="st17" d="M88.6,1.6c1.5,0,2.9,0.6,3.9,1.6c1,1,1.6,2.4,1.6,3.9c0,1.5-0.6,2.9-1.6,3.9h0c-1,1-2.4,1.6-3.9,1.6
			c-1.5,0-2.9-0.6-3.9-1.6l0,0c-1-1-1.6-2.4-1.6-3.9c0-1.5,0.6-2.9,1.6-3.9v0C85.7,2.2,87.1,1.6,88.6,1.6L88.6,1.6z M92.2,3.5
			c-0.9-0.9-2.2-1.5-3.6-1.5c-1.4,0-2.7,0.6-3.6,1.5c-0.9,0.9-1.5,2.2-1.5,3.6c0,1.4,0.6,2.7,1.5,3.6c0.9,0.9,2.2,1.5,3.6,1.5
			c1.4,0,2.7-0.6,3.6-1.5c0.9-0.9,1.5-2.2,1.5-3.6C93.6,5.7,93.1,4.5,92.2,3.5z"/>
	</g>
</g>
</svg>
