<svg xmlns="http://www.w3.org/2000/svg" xmlns:xlink="http://www.w3.org/1999/xlink" viewBox="0 0 512 512"><defs><style>.cls-1{fill:none;}.cls-2{fill:#252525;}.cls-3{fill:#f1e36a;fill-rule:evenodd;}.cls-4{fill:url(#新增漸層色票_1);}.cls-5{fill:url(#新增漸層色票_1-2);}.cls-6{fill:url(#新增漸層色票_2);}.cls-7{fill:url(#新增漸層色票_2-2);}.cls-8{fill:url(#新增漸層色票_2-3);}.cls-9{fill:url(#新增漸層色票_2-4);}.cls-10{fill:url(#新增漸層色票_2-5);}.cls-11{fill:url(#新增漸層色票_2-6);}.cls-12{clip-path:url(#clip-path);}.cls-13{fill:#f4e76d;}.cls-14{fill:url(#新增漸層色票_2-7);}.cls-15{fill:url(#新增漸層色票_2-8);}.cls-16{fill:url(#新增漸層色票_2-9);}.cls-17{fill:url(#新增漸層色票_2-10);}.cls-18{fill:url(#新增漸層色票_2-11);}</style><linearGradient id="新增漸層色票_1" x1="369.97" y1="303.52" x2="247.48" y2="63.14" gradientUnits="userSpaceOnUse"><stop offset="0" stop-color="#f6ec70"/><stop offset="0.5" stop-color="#ca9a34"/><stop offset="0.51" stop-color="#f6ec70"/><stop offset="1" stop-color="#b7761d"/></linearGradient><linearGradient id="新增漸層色票_1-2" x1="264.52" y1="344.86" x2="142.04" y2="104.47" xlink:href="#新增漸層色票_1"/><linearGradient id="新增漸層色票_2" x1="127.92" y1="448.85" x2="127.92" y2="376.25" gradientUnits="userSpaceOnUse"><stop offset="0" stop-color="#f6ec70"/><stop offset="0.33" stop-color="#c8952f"/><stop offset="0.75" stop-color="#f6ec70"/><stop offset="1" stop-color="#e4be3e"/></linearGradient><linearGradient id="新增漸層色票_2-2" x1="212.25" y1="448.85" x2="212.25" y2="375.23" xlink:href="#新增漸層色票_2"/><linearGradient id="新增漸層色票_2-3" x1="384.08" y1="448.85" x2="384.08" y2="377.52" xlink:href="#新增漸層色票_2"/><linearGradient id="新增漸層色票_2-4" x1="298.65" y1="435.08" x2="298.65" y2="390.11" xlink:href="#新增漸層色票_2"/><linearGradient id="新增漸層色票_2-5" x1="313.76" y1="426.65" x2="313.76" y2="413.77" xlink:href="#新增漸層色票_2"/><linearGradient id="新增漸層色票_2-6" x1="298.79" y1="448.77" x2="298.79" y2="377.36" xlink:href="#新增漸層色票_2"/><clipPath id="clip-path"><path id="韦德国际" class="cls-1" d="M123.19,425H91l6.65-8.41h25.54V406.6H94l6.74-8.5h22.48v-8.84H92l6.65-8.5h24.58v-4.51h9.27v4.51h32.11v8.5H132.46v8.84h29.83v8.5H132.46v9.95h32.37v30.26H139.2l5.16-8.42h11.2V425h-23.1v23.89h-9.27Zm55.86-1.27h-5.59l8.92-23.89h9.45l-7.26,19.47h3.85v29.58h-9.37Zm3.24-47.44h9.36l-8.48,21.42h-9Zm16.8,40.38h52v8.25H192.26Zm-3.15-26.44h21.6v-3h-24L200.4,379h17.14v-3.74h9.19V379h24.32v8.25H226.73v3h22v16.66l-6.3,6.29H195.94Zm-.61,40.13h9.09v11.9l-9.09,6.63Zm15.83-24.91v-7.48h-6.3v7.48Zm-2.45,23.12H218v12h18.9L230,448.85H208.71Zm16.62-23.12v-7.48h-6.12v7.48ZM224.46,427h9.1v6.46l-9.1,6.21Zm15.3-21.59v-7.48h-6.29v7.48Zm.27,24.91h9v11.9l-9,6.63Zm107.14-52.8h27.9l-5.6,27.8h2.8v36.05H358l5.42-8.5V411.36h-4.2l5.16-25.42h-8v62.91h-9.27Zm42.43,63h3.93v-31H375.25l6-8.59H421v8.59H402.89v39.36H384.43Zm-12.51-25.25h8.74v22.36l-8.74,7.82ZM384,378.38h33.85v8.41h-39.8Zm26.85,36.89h8.75v15.81L410.85,439ZM279.76,426.58l-4.2,8.5H321.4v-8.5h-2l.44,2.52-4.93-2.52h-2.1l-4.94,2.52.45-2.52h-4.95v-12h8.77l1.72-3.39,1.72,3.39H320V406H303.38v-7.39h18.37v-8.5h-42l-4.2,8.5h18.55V406H281.86l-4.29,8.59h16.54v12ZM315.92,418l-2.16-4.24L311.61,418l-4.82.68,3.49,3.3-.83,4.66,4.31-2.2,4.31,2.2-.82-4.66,3.48-3.3Zm-53.13-40.65v71.41H327l7.78-7.57V377.36Zm62.81,63.16H272V385.69H325.6Z"/></clipPath><linearGradient id="新增漸層色票_2-7" x1="236.61" y1="405.41" x2="236.61" y2="397.93" xlink:href="#新增漸層色票_2"/><linearGradient id="新增漸層色票_2-8" x1="222.27" y1="405.41" x2="222.27" y2="397.93" xlink:href="#新增漸層色票_2"/><linearGradient id="新增漸層色票_2-9" x1="298.79" y1="440.52" x2="298.79" y2="385.69" xlink:href="#新增漸層色票_2"/><linearGradient id="新增漸層色票_2-10" x1="208.01" y1="405.41" x2="208.01" y2="397.93" xlink:href="#新增漸層色票_2"/><linearGradient id="新增漸層色票_2-11" x1="258.24" y1="454.69" x2="258.24" y2="370.4" xlink:href="#新增漸層色票_2"/></defs><title>app_icon_512x512</title><g id="logo_bg"><rect class="cls-2" width="512" height="512" rx="75"/></g><g id="wd_logo"><g id="wd"><path class="cls-3" d="M264.25,44.52v319l148.5-79.74V124.26ZM379.75,255l-66,31.89V121.07l66,31.9Zm-181.5,31.89-16.5-8V80l-33,17.72V263l-16.5-8V106.54l-33,17.72V283.73l148.5,79.74v-319L198.25,71.1Z"/></g><g id="wd_in"><path class="cls-4" d="M268.16,52.6V355.39L408.4,280.7V127.29ZM384,258.42,308.85,296V112L384,149.57Z"/><path class="cls-5" d="M203.15,296,176.8,280V89.61l-22.42,11.44V270.33L128,258.42V113.83L103.6,127.29V280.7l140.24,74.69V52.6L203.15,74.8Z"/></g></g><g id="wd_logo_txt"><g id="韦德国际-2" data-name="韦德国际"><path class="cls-6" d="M123.19,425H91l6.65-8.41h25.54V406.6H94l6.74-8.5h22.48v-8.84H92l6.65-8.5h24.58v-4.51h9.27v4.51h32.11v8.5H132.46v8.84h29.83v8.5H132.46v9.95h32.37v30.26H139.2l5.16-8.42h11.2V425h-23.1v23.89h-9.27Z"/><path class="cls-7" d="M179.05,423.69h-5.59l8.92-23.89h9.45l-7.26,19.47h3.85v29.58h-9.37Zm3.24-47.44h9.36l-8.48,21.42h-9Zm16.8,40.38h52v8.25H192.26Zm-3.15-26.44h21.6v-3h-24L200.4,379h17.14v-3.74h9.19V379h24.32v8.25H226.73v3h22v16.66l-6.3,6.29H195.94Zm-.61,40.13h9.09v11.9l-9.09,6.63Zm15.83-24.91v-7.48h-6.3v7.48Zm-2.45,23.12H218v12h18.9L230,448.85H208.71Zm16.62-23.12v-7.48h-6.12v7.48ZM224.46,427h9.1v6.46l-9.1,6.21Zm15.3-21.59v-7.48h-6.29v7.48Zm.27,24.91h9v11.9l-9,6.63Z"/><path class="cls-8" d="M347.17,377.52h27.9l-5.6,27.8h2.8v36.05H358l5.42-8.5V411.36h-4.2l5.16-25.42h-8v62.91h-9.27Zm42.43,63h3.93v-31H375.25l6-8.59H421v8.59H402.89v39.36H384.43Zm-12.51-25.25h8.74v22.36l-8.74,7.82ZM384,378.38h33.85v8.41h-39.8Zm26.85,36.89h8.75v15.81L410.85,439Z"/><path class="cls-9" d="M279.76,426.58l-4.2,8.5H321.4v-8.5h-2l.44,2.52-4.93-2.52h-2.1l-4.94,2.52.45-2.52h-4.95v-12h8.77l1.72-3.39,1.72,3.39H320V406H303.38v-7.39h18.37v-8.5h-42l-4.2,8.5h18.55V406H281.86l-4.29,8.59h16.54v12Z"/><path class="cls-10" d="M315.92,418l-2.16-4.24L311.61,418l-4.82.68,3.49,3.3-.83,4.66,4.31-2.2,4.31,2.2-.82-4.66,3.48-3.3Z"/><path class="cls-11" d="M262.79,377.36v71.41H327l7.78-7.57V377.36Zm62.81,63.16H272V385.69H325.6Z"/></g><g class="cls-12"><rect class="cls-13" x="233.47" y="396.21" width="6.3" height="7.48"/><rect class="cls-13" x="219.21" y="396.21" width="6.12" height="7.48"/><path class="cls-13" d="M325.6,384H272v54.84H325.6Zm-3.85,12.93H303.38v7.39H320v8.59h-4.41l-1.72-3.4-1.72,3.4h-8.77v12h4.95l-.45,2.53,4.94-2.53h2.1l4.93,2.53-.44-2.53h2v8.51H275.56l4.2-8.51h14.35v-12H277.57l4.29-8.59h12.25V396.9H275.56l4.2-8.51h42Zm-3.68,28-4.31-2.2-4.31,2.2.83-4.66-3.49-3.3,4.82-.68,2.15-4.24,2.16,4.24,4.81.68-3.48,3.3Z"/><rect class="cls-13" x="204.86" y="396.21" width="6.3" height="7.48"/><path class="cls-13" d="M85.29,368.68V453H431.18v-84.3Zm298.71,8h33.85v8.42h-39.8Zm-201.71-2.12h9.36L183.17,396h-9ZM164.83,445.1H139.2l5.16-8.42h11.2V423.25h-23.1v23.89h-9.27V423.25H91l6.65-8.42h25.54v-9.94H94l6.74-8.5h22.48v-8.85H92l6.65-8.5h24.58v-4.5h9.27V379h32.11v8.5H132.46v8.85h29.83v8.5H132.46v9.94h32.37Zm23.59-27.55v29.59h-9.37V422h-5.59l8.92-23.88h9.45l-7.26,19.46Zm16,23-9.09,6.63V428.6h9.09ZM230,447.14H208.71V426.82H218v12h18.9ZM224.46,438V425.29h9.1v6.46ZM249,440.51l-9,6.63V428.6h9Zm2-17.35H192.26l6.83-8.24h52Zm0-37.66H226.73v3h22v16.66l-6.3,6.29H195.94V388.48h21.6v-3h-24l6.91-8.24h17.14v-3.74h9.19v3.74h24.32Zm83.73,54L327,447.05H262.79V375.64h72Zm37.49-35.88v36.05H358l5.42-8.51v-21.5h-4.2l5.16-25.42h-8v62.91h-9.27V375.81h27.9l-5.6,27.8Zm47.33,25.76-8.75,7.91V413.56h8.75Zm1.4-21.59H402.89v39.36H384.43l5.17-8.33h3.93v-31H375.25l6-8.59H421Zm-43.91,36V413.56h8.74v22.36Z"/><rect class="cls-14" x="233.47" y="397.93" width="6.3" height="7.48"/><rect class="cls-15" x="219.21" y="397.93" width="6.12" height="7.48"/><path class="cls-16" d="M325.6,385.69H272v54.83H325.6Zm-3.85,12.92H303.38V406H320v8.59h-4.41l-1.72-3.39-1.72,3.39h-8.77v12h4.95l-.45,2.52,4.94-2.52h2.1l4.93,2.52-.44-2.52h2v8.5H275.56l4.2-8.5h14.35v-12H277.57l4.29-8.59h12.25v-7.39H275.56l4.2-8.5h42Zm-3.68,28-4.31-2.2-4.31,2.2.83-4.66-3.49-3.3,4.82-.68,2.15-4.24,2.16,4.24,4.81.68-3.48,3.3Z"/><rect class="cls-17" x="204.86" y="397.93" width="6.3" height="7.48"/><path class="cls-18" d="M85.29,370.4v84.29H431.18V370.4Zm298.71,8h33.85v8.41h-39.8Zm-201.71-2.13h9.36l-8.48,21.42h-9Zm-17.46,70.56H139.2l5.16-8.42h11.2V425h-23.1v23.89h-9.27V425H91l6.65-8.41h25.54V406.6H94l6.74-8.5h22.48v-8.84H92l6.65-8.5h24.58v-4.51h9.27v4.51h32.11v8.5H132.46v8.84h29.83v8.5H132.46v9.95h32.37Zm23.59-27.54v29.58h-9.37V423.69h-5.59l8.92-23.89h9.45l-7.26,19.47Zm16,23-9.09,6.63V430.32h9.09ZM230,448.85H208.71V428.53H218v12h18.9Zm-5.51-9.18V427h9.1v6.46ZM249,442.22l-9,6.63V430.32h9Zm2-17.34H192.26l6.83-8.25h52Zm0-37.66H226.73v3h22v16.66l-6.3,6.29H195.94V390.19h21.6v-3h-24L200.4,379h17.14v-3.74h9.19V379h24.32Zm83.73,54L327,448.77H262.79V377.36h72Zm37.49-35.88v36.05H358l5.42-8.5V411.36h-4.2l5.16-25.42h-8v62.91h-9.27V377.52h27.9l-5.6,27.8Zm47.33,25.76L410.85,439V415.27h8.75Zm1.4-21.59H402.89v39.36H384.43l5.17-8.33h3.93v-31H375.25l6-8.59H421Zm-43.91,36V415.27h8.74v22.36Z"/></g></g></svg>