<?xml version="1.0" encoding="utf-8"?>
<!-- Generator: Adobe Illustrator 25.0.0, SVG Export Plug-In . SVG Version: 6.00 Build 0)  -->
<svg version="1.1" id="Layer_1" xmlns="http://www.w3.org/2000/svg" xmlns:xlink="http://www.w3.org/1999/xlink" x="0px" y="0px"
	 viewBox="0 0 24.3 24.3" style="enable-background:new 0 0 24.3 24.3;" xml:space="preserve">
<style type="text/css">
	.st0{fill:#B6B6B6;}
</style>
<path class="st0" d="M15.4,12.2l5.9-5.9c0.8,0.2,1.6,0,2.2-0.6c0.4-0.5,0.7-1,0.7-1.6S24,2.9,23.5,2.4c-0.9-0.9-2.4-0.9-3.3,0v0
	c-0.6,0.6-0.8,1.4-0.6,2.2l-5.9,5.9l-2.4-2.4c0.9-0.9,0.9-2.3,0-3.2l-0.8-0.8L8.9,2.4L7.3,0.8c0,0,0,0,0,0c-0.4-0.4-1-0.7-1.6-0.7
	S4.5,0.4,4.1,0.8l2.4,2.4c0,0,0,0,0,0c0.9,0.9,0.9,2.4,0,3.2c-0.9,0.9-2.4,0.9-3.2,0L0.8,4.1c0,0,0,0,0,0C0.4,4.5,0.2,5,0.2,5.5v0.3
	c0,0.5,0.3,1.1,0.7,1.5l1.6,1.6l1.6,1.6l0.8,0.8c0,0,0,0,0,0c0.9,0.9,2.3,0.9,3.2,0l2.4,2.4l-1.1,1.1c-0.7-0.2-1.5,0-2.1,0.5
	l-4.9,4.9c-0.9,0.9-0.9,2.3,0,3.2c0.9,0.9,2.3,0.9,3.2,0.1l4.9-4.9c0.5-0.6,0.7-1.4,0.5-2.1l1.1-1.1l8.1,8.1c0.9,0.8,2.2,0.8,3,0
	c1-0.8,1.1-2.3,0.2-3.2L15.4,12.2z"/>
</svg>
