<?xml version="1.0" encoding="utf-8"?>
<!-- Generator: Adobe Illustrator 23.0.2, SVG Export Plug-In . SVG Version: 6.00 Build 0)  -->
<svg version="1.1" id="Layer_1" xmlns="http://www.w3.org/2000/svg" xmlns:xlink="http://www.w3.org/1999/xlink" x="0px" y="0px"
	 viewBox="0 0 100 100" style="enable-background:new 0 0 100 100;" xml:space="preserve">
<style type="text/css">
	.st0{fill:#272626;}
	.st1{fill:#FFFFFF;}
	.st2{fill:#F7921E;}
</style>
<rect id="XMLID_1_" class="st0" width="100" height="100"/>
<g id="XMLID_845_">
	<path id="XMLID_1219_" class="st1" d="M13.64,65.41h4.32v18.91h8.18v-25.1h-12.5V65.41z"/>
	<path id="XMLID_865_" class="st1" d="M29.54,59.21v6.2h10.17L30,84.32h8.51l9.46-19.06v-6.05H29.54z"/>
	<path id="XMLID_848_" class="st1" d="M51.62,65.41h4.32v18.91h8.18v-25.1h-12.5V65.41z"/>
	<path id="XMLID_846_" class="st1" d="M68.18,59.21v6.2h10.17l-9.71,18.91h8.51l9.46-19.06v-6.05H68.18z"/>
</g>
<g id="XMLID_218_">
	<polygon id="XMLID_831_" class="st2" points="75.65,55.58 86.33,55.58 86.33,38.3 	"/>
	<g id="XMLID_244_">
		<path id="XMLID_797_" class="st2" d="M45.54,17.49v8.52v29.52h-9.69V40.32H23.32v15.21h-9.69V17.49h9.69v14.35h12.53v-5.83h-5.12
			v-8.52h5.12H45.54z"/>
		<path id="XMLID_795_" class="st2" d="M86.62,33.93L73.84,54.47c-0.98,0.34-2.03,0.6-3.14,0.79c-1.12,0.19-2.27,0.28-3.45,0.28
			c-1.49,0-2.91-0.15-4.26-0.46c-2.2-0.47-4.22-1.28-6.06-2.43c-1.84-1.15-3.44-2.54-4.79-4.18c-1.35-1.64-2.41-3.49-3.17-5.55
			c-0.76-2.06-1.14-4.26-1.14-6.59c0-2.74,0.52-5.26,1.55-7.56c1.03-2.3,2.44-4.29,4.23-5.96c1.79-1.67,3.87-2.97,6.24-3.91
			c2.37-0.93,4.9-1.39,7.61-1.39c1.52,0,3.03,0.18,4.51,0.53c1.49,0.35,2.92,0.87,4.29,1.55c1.37,0.68,2.65,1.5,3.85,2.49
			c1.2,0.98,2.24,2.08,3.12,3.3c1.15,1.59,1.98,3.28,2.49,5.07h-5.93h-4.51c-0.88-1.52-2.01-2.7-3.4-3.52
			c-1.39-0.83-2.94-1.24-4.67-1.24c-1.49,0-2.85,0.29-4.08,0.86c-1.23,0.58-2.29,1.34-3.17,2.31c-0.88,0.96-1.56,2.1-2.05,3.4
			c-0.49,1.3-0.74,2.66-0.74,4.08c0,1.49,0.24,2.9,0.71,4.23c0.47,1.34,1.14,2.5,2,3.5c0.86,1,1.91,1.79,3.14,2.38
			c1.23,0.59,2.63,0.89,4.18,0.89c0.2,0,0.39-0.01,0.56-0.03c0.17-0.02,0.34-0.03,0.51-0.03l4.01-5.83h-7.2v-7.51h12.32H86.62z"/>
	</g>
</g>
</svg>
