<?xml version="1.0" encoding="utf-8"?>
<!-- Generator: Adobe Illustrator 23.1.1, SVG Export Plug-In . SVG Version: 6.00 Build 0)  -->
<svg version="1.1" id="Layer_1" xmlns="http://www.w3.org/2000/svg" xmlns:xlink="http://www.w3.org/1999/xlink" x="0px" y="0px"
	 viewBox="0 0 300 300" style="enable-background:new 0 0 300 300;" xml:space="preserve">
<style type="text/css">
	.st0{fill:#FFFFFF;}
	.st1{fill-rule:evenodd;clip-rule:evenodd;fill:url(#SVGID_1_);}
	.st2{fill-rule:evenodd;clip-rule:evenodd;fill:url(#SVGID_2_);}
	.st3{fill-rule:evenodd;clip-rule:evenodd;fill:url(#SVGID_3_);}
	.st4{fill-rule:evenodd;clip-rule:evenodd;fill:url(#SVGID_4_);}
	.st5{fill-rule:evenodd;clip-rule:evenodd;fill:url(#SVGID_5_);}
	.st6{fill-rule:evenodd;clip-rule:evenodd;fill:url(#SVGID_6_);}
	.st7{fill-rule:evenodd;clip-rule:evenodd;fill:url(#SVGID_7_);}
	.st8{fill-rule:evenodd;clip-rule:evenodd;fill:url(#SVGID_8_);}
	.st9{fill-rule:evenodd;clip-rule:evenodd;fill:url(#SVGID_9_);}
	.st10{fill-rule:evenodd;clip-rule:evenodd;fill:url(#SVGID_10_);}
	.st11{fill-rule:evenodd;clip-rule:evenodd;fill:url(#SVGID_11_);}
	.st12{fill-rule:evenodd;clip-rule:evenodd;fill:url(#SVGID_12_);}
	.st13{fill-rule:evenodd;clip-rule:evenodd;fill:url(#SVGID_13_);}
	.st14{fill-rule:evenodd;clip-rule:evenodd;fill:url(#SVGID_14_);}
	.st15{fill-rule:evenodd;clip-rule:evenodd;fill:url(#SVGID_15_);}
	.st16{fill-rule:evenodd;clip-rule:evenodd;fill:url(#SVGID_16_);}
	.st17{fill-rule:evenodd;clip-rule:evenodd;fill:url(#SVGID_17_);}
	.st18{fill-rule:evenodd;clip-rule:evenodd;fill:url(#SVGID_18_);}
</style>
<path class="st0" d="M265,300H35c-19.3,0-35-15.7-35-35V35C0,15.7,15.7,0,35,0h230c19.3,0,35,15.7,35,35v230
	C300,284.3,284.3,300,265,300z"/>
<g>
	<g>
		
			<linearGradient id="SVGID_1_" gradientUnits="userSpaceOnUse" x1="98.1629" y1="139.6059" x2="156.2653" y2="283.4144" gradientTransform="matrix(1 0 0 -1 0 300)">
			<stop  offset="0" style="stop-color:#886728"/>
			<stop  offset="0.2984" style="stop-color:#A07E38"/>
			<stop  offset="0.7467" style="stop-color:#BE9A4D"/>
			<stop  offset="1" style="stop-color:#C9A555"/>
		</linearGradient>
		<path class="st1" d="M135.3,96.6l-0.1-18.4c-3.4,2.1-7.2,4.2-11.4,6.3c-7.2,3.6-15.7,7.1-25.5,10.1l13.9,44.8h22.2
			c0.4,0,0.8-0.4,0.8-0.8V120c0-0.4-0.4-0.8-0.8-0.8h-15.6c-1.4,0-2.6-0.9-3-2.3l-2.8-9.5h28.2h2c2.2,0,3.9,1.8,3.9,3.9v2v31.9v0.4
			c0,3-2.5,5.5-5.5,5.5h-0.4H108h-1.4c-1.7,0-3.2-1.1-3.8-2.8l-0.4-1.4l-17-54.7l-1.1-3.5c-0.2-0.6-0.1-1.3,0.2-1.8
			c0.3-0.6,0.8-1,1.5-1.1l3.5-1c11.5-3.1,21.2-7,29.2-10.9c8-4,14.3-8,19-11.4l8-5.8c0.2-0.2,0.6-0.2,0.8-0.1
			c0.3,0.1,0.4,0.4,0.4,0.7v9.9l0.1,29.3L135.3,96.6z"/>
		
			<linearGradient id="SVGID_2_" gradientUnits="userSpaceOnUse" x1="162.4568" y1="258.0508" x2="121.0275" y2="78.6007" gradientTransform="matrix(1 0 0 -1 0 300)">
			<stop  offset="0" style="stop-color:#886728"/>
			<stop  offset="0.2984" style="stop-color:#A07E38"/>
			<stop  offset="0.7467" style="stop-color:#BE9A4D"/>
			<stop  offset="1" style="stop-color:#C9A555"/>
		</linearGradient>
		<path class="st2" d="M138.4,107.4h4.7c2.2,0,3.9,1.8,3.9,3.9v2v31.9v2c0,2.2-1.8,3.9-3.9,3.9h-6.4l1.6-0.4
			c2.4-0.7,4.1-2.8,4.1-5.3v-0.1v-31.9v-1.9c0-1.9-1.4-3.5-3.3-3.9L138.4,107.4z"/>
		
			<linearGradient id="SVGID_3_" gradientUnits="userSpaceOnUse" x1="123.2922" y1="241.2787" x2="95.7945" y2="151.3375" gradientTransform="matrix(1 0 0 -1 0 300)">
			<stop  offset="0" style="stop-color:#886728"/>
			<stop  offset="0.2984" style="stop-color:#A07E38"/>
			<stop  offset="0.7467" style="stop-color:#BE9A4D"/>
			<stop  offset="1" style="stop-color:#C9A555"/>
		</linearGradient>
		<path class="st3" d="M135.2,78.1c-2.4,1.6-9,5.1-11.4,6.3c-7,3.5-15.3,6.9-24.8,9.9c-0.4,0.1-0.6,0.6-0.5,1l11.6,37.6
			c0.9,3,3.1,5.2,6.1,6.2l0.9,0.3H112c-2.8,0-5.2-1.7-6-4.4L93.8,95.2c-0.1-0.4,0.1-0.9,0.5-1c9.5-2.9,17.7-6.4,24.8-9.9
			c3.8-1.9,11-6,14.9-8.3c0.3-0.2,0.5-0.2,0.8,0c0.3,0.1,0.4,0.4,0.4,0.7V78.1z"/>
		
			<linearGradient id="SVGID_4_" gradientUnits="userSpaceOnUse" x1="145.9487" y1="272.7404" x2="137.325" y2="149.4145" gradientTransform="matrix(1 0 0 -1 0 300)">
			<stop  offset="0" style="stop-color:#886728"/>
			<stop  offset="0.2984" style="stop-color:#A07E38"/>
			<stop  offset="0.7467" style="stop-color:#BE9A4D"/>
			<stop  offset="1" style="stop-color:#C9A555"/>
		</linearGradient>
		<path class="st4" d="M135.3,96.6L135.3,96.6h7l-0.1-29.3v-8l3.4-2.5c0.2-0.2,0.6-0.2,0.8-0.1c0.3,0.1,0.4,0.4,0.4,0.7v9.9
			l0.1,29.3L135.3,96.6z"/>
		
			<linearGradient id="SVGID_5_" gradientUnits="userSpaceOnUse" x1="142.5291" y1="144.216" x2="201.3705" y2="289.8538" gradientTransform="matrix(1 0 0 -1 0 300)">
			<stop  offset="0" style="stop-color:#886728"/>
			<stop  offset="0.2984" style="stop-color:#A07E38"/>
			<stop  offset="0.7467" style="stop-color:#BE9A4D"/>
			<stop  offset="1" style="stop-color:#C9A555"/>
		</linearGradient>
		<path class="st5" d="M165.9,68.5v38.4c0,0.9,0.7,1.6,1.6,1.6H187l-3,9.6c-0.4,1.3-1.6,2.2-3,2.2h-21h-2c-2.2,0-3.9-1.8-3.9-3.9v-2
			V62.3c0-0.3,0.2-0.6,0.4-0.7c0.3-0.1,0.6-0.1,0.8,0.1C158.6,64.1,162.2,66.4,165.9,68.5z"/>
		
			<linearGradient id="SVGID_6_" gradientUnits="userSpaceOnUse" x1="177.5744" y1="278.2356" x2="131.4606" y2="117.4181" gradientTransform="matrix(1 0 0 -1 0 300)">
			<stop  offset="0" style="stop-color:#886728"/>
			<stop  offset="0.2984" style="stop-color:#A07E38"/>
			<stop  offset="0.7467" style="stop-color:#BE9A4D"/>
			<stop  offset="1" style="stop-color:#C9A555"/>
		</linearGradient>
		<path class="st6" d="M161.2,120.3H158c-2.2,0-3.9-1.8-3.9-3.9v-2V62.3c0-0.3,0.2-0.6,0.4-0.7c0.3-0.1,0.6-0.1,0.8,0.1
			c1.1,0.8,2.3,1.6,3.4,2.4v50.3v2.2c0,1.5,0.8,2.9,2.2,3.5L161.2,120.3z"/>
		
			<linearGradient id="SVGID_7_" gradientUnits="userSpaceOnUse" x1="104.851" y1="139.65" x2="195.8191" y2="139.65" gradientTransform="matrix(1 0 0 -1 0 300)">
			<stop  offset="0" style="stop-color:#886728"/>
			<stop  offset="0.5" style="stop-color:#D9B766"/>
			<stop  offset="1" style="stop-color:#886728"/>
		</linearGradient>
		<path class="st7" d="M105.2,156.4h90.3l-1.6,5.1c-0.5,1.7-2,2.8-3.8,2.8h-79.6c-1.8,0-3.2-1.1-3.8-2.8L105.2,156.4z"/>
		
			<linearGradient id="SVGID_8_" gradientUnits="userSpaceOnUse" x1="113.6098" y1="1.8763" x2="301.3795" y2="466.6226" gradientTransform="matrix(1 0 0 -1 0 300)">
			<stop  offset="0" style="stop-color:#886728"/>
			<stop  offset="0.2984" style="stop-color:#A07E38"/>
			<stop  offset="0.7467" style="stop-color:#BE9A4D"/>
			<stop  offset="1" style="stop-color:#C9A555"/>
		</linearGradient>
		<path class="st8" d="M215.3,91.2c-5.8,18.6-11.6,37.1-17.3,55.7l-0.4,1.4c-0.5,1.7-2,2.8-3.8,2.8h-1.4h-38.2v-0.3h0.1v-11.5H188
			c5.6-18,11.1-35.9,16.8-53.9c3.1,1,6.1,2,8.9,2.8c0.6,0.2,1.1,0.6,1.4,1.2C215.4,90,215.4,90.6,215.3,91.2z"/>
		
			<linearGradient id="SVGID_9_" gradientUnits="userSpaceOnUse" x1="220.8539" y1="224.2628" x2="152.58" y2="133.6603" gradientTransform="matrix(1 0 0 -1 0 300)">
			<stop  offset="0" style="stop-color:#886728"/>
			<stop  offset="0.2984" style="stop-color:#A07E38"/>
			<stop  offset="0.7467" style="stop-color:#BE9A4D"/>
			<stop  offset="1" style="stop-color:#C9A555"/>
		</linearGradient>
		<path class="st9" d="M158.8,151.1h-4.7v-0.3h0.1v-11.5h4.7v11.5h-0.1V151.1L158.8,151.1z M182.9,139.3l2.1-0.2
			c2.1-0.2,3.6-1.8,4.2-3.8l13.2-42.5l0,0l2.3-7.4c1.4,0.5,2.9,0.9,4.3,1.4l-1.9,6l0,0l-13.6,43.7c-0.5,1.7-2,2.8-3.8,2.8H182.9z"/>
		<g>
			
				<linearGradient id="SVGID_10_" gradientUnits="userSpaceOnUse" x1="212.531" y1="218.7773" x2="219.2367" y2="235.3745" gradientTransform="matrix(1 0 0 -1 0 300)">
				<stop  offset="0" style="stop-color:#886728"/>
				<stop  offset="0.2984" style="stop-color:#A07E38"/>
				<stop  offset="0.7467" style="stop-color:#BE9A4D"/>
				<stop  offset="1" style="stop-color:#C9A555"/>
			</linearGradient>
			<path class="st10" d="M215.1,67.6c1.2,0,2.3,0.3,3.4,0.8c-0.4,0.1-0.9,0.4-1.1,0.8c-0.4,0.6-0.5,1.3-0.4,2.1
				c0.1,0.8,0.5,1.7,1.2,2.8c0.8,1.4,1.6,3.3,1.7,5c0,0.5,0,0.9-0.1,1.3c-1.3,1-2.8,1.6-4.6,1.6c-1.7,0-3.2-0.6-4.4-1.5
				c-0.2-0.5-0.2-1-0.2-1.5c0.1-1.7,0.9-3.6,1.7-5c0.6-1.2,1-2.1,1.2-2.8c0.2-0.8,0-1.5-0.4-2.1c-0.3-0.5-0.7-0.7-1.2-0.8
				C212.8,67.9,213.9,67.6,215.1,67.6L215.1,67.6z M209.7,79.8c0-0.2,0-0.4,0-0.6c0.1-1.8,1-3.8,1.8-5.3c0.6-1.1,0.9-1.9,1.1-2.6
				c0.1-0.6,0-1.1-0.3-1.6s-1.1-0.6-1.6-0.5c-1.7,1.3-2.9,3.4-2.9,5.8C207.8,76.8,208.6,78.5,209.7,79.8L209.7,79.8z M219.5,69.1
				c-0.5,0-1.2,0.1-1.5,0.5c-0.3,0.5-0.4,0.9-0.3,1.6c0.1,0.7,0.5,1.5,1.1,2.6c0.8,1.5,1.7,3.5,1.8,5.3c0,0.2,0,0.3,0,0.5
				c1.1-1.3,1.7-2.9,1.7-4.7C222.4,72.5,221.3,70.4,219.5,69.1z"/>
			
				<linearGradient id="SVGID_11_" gradientUnits="userSpaceOnUse" x1="82.2978" y1="218.4832" x2="89.0114" y2="235.0999" gradientTransform="matrix(1 0 0 -1 0 300)">
				<stop  offset="0" style="stop-color:#886728"/>
				<stop  offset="0.2984" style="stop-color:#A07E38"/>
				<stop  offset="0.7467" style="stop-color:#BE9A4D"/>
				<stop  offset="1" style="stop-color:#C9A555"/>
			</linearGradient>
			<path class="st11" d="M85.3,67.9c1.8,0.1,3.4,0.8,4.7,2c-0.1,0.1-0.2,0.2-0.3,0.3l0,0c-1.2,1.2-1.9,2.8-2,4.6h-2.3L85.3,67.9
				L85.3,67.9z M87.6,75.6c0.1,1.8,0.9,3.4,2,4.6l0,0c0.1,0.1,0.2,0.2,0.3,0.3c-1.2,1.2-2.8,1.9-4.7,2v-6.9H87.6L87.6,75.6z
				 M84.5,82.4c-1.8-0.1-3.4-0.8-4.6-2c0.1-0.1,0.2-0.2,0.3-0.3l0,0c1.2-1.2,1.9-2.8,2-4.6h2.3L84.5,82.4L84.5,82.4z M82.2,74.8
				c-0.1-1.8-0.9-3.4-2-4.6c-0.1-0.1-0.2-0.2-0.3-0.3c1.2-1.2,2.8-1.9,4.6-2v6.9H82.2L82.2,74.8z M79.3,79.8
				c0.1-0.1,0.2-0.2,0.3-0.3l0,0c1-1,1.7-2.4,1.8-4h-3.8C77.7,77.2,78.3,78.7,79.3,79.8L79.3,79.8z M77.6,74.8h3.8
				c-0.1-1.6-0.8-3-1.8-4c-0.1-0.1-0.2-0.2-0.3-0.3C78.3,71.7,77.7,73.2,77.6,74.8L77.6,74.8z M90.4,70.5c-0.1,0.1-0.2,0.2-0.3,0.3
				l0,0c-1,1-1.7,2.4-1.8,4h3.8C92,73.2,91.4,71.7,90.4,70.5L90.4,70.5z M92.1,75.6h-3.8c0.1,1.6,0.8,3,1.8,4
				c0.1,0.1,0.2,0.2,0.3,0.3C91.4,78.7,92,77.2,92.1,75.6z"/>
		</g>
		<g>
			
				<linearGradient id="SVGID_12_" gradientUnits="userSpaceOnUse" x1="147.8103" y1="247.4586" x2="154.5429" y2="264.1223" gradientTransform="matrix(1 0 0 -1 0 300)">
				<stop  offset="0" style="stop-color:#886728"/>
				<stop  offset="0.2984" style="stop-color:#A07E38"/>
				<stop  offset="0.7467" style="stop-color:#BE9A4D"/>
				<stop  offset="1" style="stop-color:#C9A555"/>
			</linearGradient>
			<path class="st12" d="M147.1,51.5c-0.6-0.2-1.8-1.5-2.2-2c-0.2,0.2-0.4,0.3-0.6,0.5c0.9,1.4,2.2,2.5,3.9,3
				C147.9,52.6,147.4,52.1,147.1,51.5L147.1,51.5z M149.2,50.3L149.2,50.3c-0.5-0.9-0.7-1.8-1-2.7c0.3-0.6,0.8-1.2,1.2-1.6
				c0.2-0.2,0.4-0.4,0.6-0.6c0.1-0.1,0.2-0.1,0.2-0.2c0.3,0,0.6,0.1,0.9,0.1c0.5,0.1,1,0.1,1.6,0.2c0.1,0,0.3,0,0.4,0.1l0.1,0.1
				c0.3,0.5,1,1.7,1,2.8c-0.7,1-1.3,1.7-1.9,2.2c-0.5,0.1-1,0-1.6-0.1c-0.5-0.1-0.9-0.2-1.2-0.3C149.4,50.4,149.3,50.3,149.2,50.3
				L149.2,50.3L149.2,50.3z M148.3,53L148.3,53L148.3,53L148.3,53L148.3,53L148.3,53z M146.8,41.9L146.8,41.9
				c-0.7,0.7-1.4,1.4-2,2.3c0,0.1,0,0.1,0,0.3s0.1,0.5,0.2,0.8c0.1,0.5,0.3,1.3,0.7,1.8c0.1,0,0.3,0.1,0.5,0.1s0.5,0.1,0.7,0.1
				c0.4,0.1,0.8,0.1,1.2,0.2c0.5-1.1,1.6-2.1,2.1-2.4c-0.2-0.7-0.4-1.4-0.5-2.1c0-0.2-0.1-0.4-0.1-0.6c-0.4-0.2-1-0.4-1.5-0.5l0,0
				l0,0l0,0l0,0C147.5,41.8,147,41.8,146.8,41.9L146.8,41.9z M152.3,51c0.2,0.7,0.5,1.1,0.8,1.3c-0.3,0.3-0.7,0.5-1.1,0.8
				c-0.1,0-0.1,0.1-0.2,0.1c-0.9,0.2-1.8,0.2-2.7,0c-0.1,0-0.2,0-0.4-0.1c-0.4-0.3-1.1-0.8-1.5-1.6c0.4-0.1,1.4-0.6,1.9-1
				c0.3,0.1,0.8,0.3,1.6,0.4C151.3,51,151.8,51,152.3,51L152.3,51L152.3,51z M144.2,49.8L144.2,49.8L144.2,49.8L144.2,49.8
				L144.2,49.8L144.2,49.8z M145.5,47.2c-0.3,0.5-0.8,1.3-0.7,2.2c-0.2,0.2-0.4,0.3-0.6,0.5c-0.8-1.4-1.2-3.1-0.9-4.8
				c0.1-0.4,0.2-0.7,0.3-1c0.3,0.2,0.8,0.3,1,0.3C144.7,44.7,144.9,46.2,145.5,47.2L145.5,47.2L145.5,47.2z M156.5,42.7L156.5,42.7
				L156.5,42.7L156.5,42.7L156.5,42.7L156.5,42.7z M152.2,41.2c0-0.6-0.2-1.2-0.3-1.6c0.2,0,0.3-0.1,0.5-0.1
				c1.8,0.5,3.2,1.7,4.1,3.2c0,0.1,0,0.2,0,0.3s0,0.3,0,0.4c-0.5-0.2-1.2-0.4-2-0.4C154,42.6,152.7,41.4,152.2,41.2L152.2,41.2
				L152.2,41.2z M146.8,41.7c-0.1-0.4-0.1-1,0-1.6c1.3-0.7,2.7-1.1,4.3-1l0,0c0.2,0.1,0.5,0.3,0.7,0.4c0.1,0.3,0.3,1.1,0.3,1.6
				c-0.7,0.1-2,0.8-2.4,1.1c-0.4-0.2-1-0.4-1.6-0.5C147.5,41.6,147.1,41.6,146.8,41.7L146.8,41.7L146.8,41.7z M156.3,48.8
				L156.3,48.8c0,0.6-0.2,1.3-0.5,1.9c0.8-0.9,1.3-2,1.5-3.3c0.1-0.3,0.1-0.6,0.1-0.9C157.3,47.1,157,48.1,156.3,48.8L156.3,48.8z
				 M152.5,53L152.5,53c0.8-0.2,1.5-0.6,2.1-1.1c-0.5,0.3-0.9,0.4-1.3,0.4C153.1,52.5,152.8,52.8,152.5,53L152.5,53z M154.4,43.2
				L154.4,43.2c-0.2,0.9-0.6,1.7-1.1,2.4c0.3,0.5,1.1,1.8,1.1,2.9c0,0,0.1,0,0.2,0c0.4,0.1,1.2,0.1,1.6,0.2c0.8-0.8,1.1-2.1,1.1-2.5
				v-0.1c-0.1-0.8-0.5-1.9-0.9-2.5c-0.3-0.1-0.6-0.3-1-0.3C155.1,43.2,154.8,43.2,154.4,43.2z"/>
			
				<linearGradient id="SVGID_13_" gradientUnits="userSpaceOnUse" x1="147.66" y1="247.2208" x2="154.6554" y2="264.5352" gradientTransform="matrix(1 0 0 -1 0 300)">
				<stop  offset="0" style="stop-color:#886728"/>
				<stop  offset="0.2984" style="stop-color:#A07E38"/>
				<stop  offset="0.7467" style="stop-color:#BE9A4D"/>
				<stop  offset="1" style="stop-color:#C9A555"/>
			</linearGradient>
			<path class="st13" d="M150.3,38.6c2.1,0,4,0.8,5.4,2.2s2.2,3.3,2.2,5.4c0,2.1-0.8,4-2.2,5.4l0,0c-1.4,1.4-3.3,2.2-5.4,2.2
				s-4-0.8-5.4-2.2l0,0c-1.4-1.4-2.2-3.3-2.2-5.4c0-2.1,0.9-4,2.2-5.4l0,0C146.4,39.5,148.2,38.6,150.3,38.6L150.3,38.6z
				 M155.3,41.3c-1.3-1.3-3-2-4.9-2s-3.7,0.8-4.9,2c-1.3,1.3-2,3-2,4.9s0.8,3.7,2,4.9c1.3,1.3,3,2,4.9,2s3.7-0.8,4.9-2
				c1.3-1.3,2-3,2-4.9S156.5,42.5,155.3,41.3z"/>
		</g>
	</g>
	<g>
		
			<linearGradient id="SVGID_14_" gradientUnits="userSpaceOnUse" x1="28.0243" y1="48.65" x2="267.4691" y2="48.65" gradientTransform="matrix(1 0 0 -1 0 300)">
			<stop  offset="0" style="stop-color:#886728"/>
			<stop  offset="0.5" style="stop-color:#D9B766"/>
			<stop  offset="1" style="stop-color:#886728"/>
		</linearGradient>
		<path class="st14" d="M37.9,252.9c0.2-1,0.3-1.5,0.6-2.2c-0.8,0.1-1.4,0.1-2.2,0.1h-1c-1.2,0-1.6,0-2.2-0.1l-0.4,2.3
			c0.6-0.1,1-0.1,1.9-0.1h1l-0.6,2.9c-1.1,0.6-2.1,0.8-3.3,0.8c-1.5,0-2.4-0.4-3-1.2c-0.7-0.9-0.8-2.3-0.5-4.1
			c0.4-1.8,1.1-3.1,2.2-4c0.8-0.7,1.9-1.1,3-1.1c1.9,0,2.7,0.6,3,2.2l2.7-0.7c-0.2-1-0.4-1.5-1-2.1c-0.9-1-2.3-1.5-4-1.5
			s-3,0.3-4.3,1c-2.2,1.2-3.7,3.4-4.2,6.2c-0.4,2.2-0.2,4.1,0.7,5.3c0.9,1.3,2.6,2,4.9,2c0.9,0,1.9-0.1,2.8-0.3
			c1-0.2,1.8-0.5,3.2-1.2c0-0.8,0.1-1.2,0.3-2.3L37.9,252.9L37.9,252.9z M55.5,244.3c0,0.7-0.1,1.3-0.3,2.4l-1.2,6.2
			c-0.5,2.4-2,3.6-4.5,3.6s-3.6-1.2-3.1-3.6l1.2-6.2c0.2-1.1,0.4-1.8,0.6-2.4h-2.8c0,0.6-0.1,1.3-0.3,2.4l-1.2,6.2
			c-0.3,1.8-0.2,3.1,0.6,4c0.8,1.1,2.4,1.7,4.5,1.7c4.1,0,6.8-2,7.5-5.7l1.2-6.2c0.2-1.1,0.4-1.7,0.6-2.4L55.5,244.3L55.5,244.3z
			 M74.9,258.3c-0.2-0.5-0.3-0.9-0.5-2.1l-2.1-10.1c-0.2-1.1-0.3-1.4-0.3-1.8h-3.2c-0.2,0.5-0.4,0.9-0.9,1.8l-6.1,10.1
			c-0.5,0.8-1,1.6-1.4,2.1h3.1c0.3-0.7,0.4-1,0.9-1.8l1.1-1.9h6l0.4,1.9c0.1,0.5,0.2,1.3,0.2,1.8H74.9L74.9,258.3z M71,252.5h-4.6
			l3-5.2c0.1-0.2,0.1-0.2,0.5-1c0.1,0.6,0.1,0.8,0.1,1L71,252.5L71,252.5z M92.3,258.3c0-0.6,0.1-1.3,0.3-2.3l1.8-9.3
			c0.2-1.1,0.4-1.7,0.6-2.4h-2.7c0,0.7-0.1,1.4-0.3,2.4l-1.2,5.9c-0.1,0.7-0.3,1.8-0.4,2.5c-0.3-0.7-0.7-1.6-1-2.2l-3.4-6.7
			c-0.5-0.9-0.7-1.4-0.8-1.9h-2.9c0,0.7-0.1,1.4-0.3,2.3l-1.8,9.1c-0.2,1.2-0.5,2.1-0.7,2.7h2.7c0-0.6,0.1-1.5,0.4-2.6l1.1-5.8
			c0.1-0.4,0.2-1.2,0.2-1.5c0.1-0.7,0.1-0.7,0.1-0.9c0.3,0.8,0.6,1.6,0.9,2.1l3.5,6.8c0.4,0.8,0.6,1.3,0.8,1.9h3.1V258.3z
			 M110.4,258.3c0-0.7,0.1-1.4,0.3-2.3l0.7-3.5l5.6-6.4c0.4-0.5,1.3-1.5,1.6-1.8h-3.2c-0.2,0.5-0.6,1-1.2,1.7l-3.6,4.3l-1.8-4.3
			c-0.4-0.8-0.5-1.2-0.6-1.7h-3.3c0.4,0.8,0.8,1.4,0.9,1.8l3,6.4l-0.7,3.5c-0.2,0.9-0.4,1.6-0.6,2.3H110.4L110.4,258.3z
			 M123.4,244.3c0,0.7-0.1,1.2-0.3,2.3l-1.9,9.5c-0.2,1-0.4,1.6-0.6,2.3h2.8c0-0.7,0.1-1.2,0.3-2.3l1.9-9.5c0.2-1.1,0.4-1.6,0.6-2.3
			H123.4L123.4,244.3z M142,258.3c0-0.6,0.1-1.3,0.3-2.3l1.8-9.3c0.2-1.1,0.4-1.7,0.6-2.4H142c0,0.7-0.1,1.4-0.3,2.4l-1.2,5.9
			c-0.1,0.7-0.3,1.8-0.4,2.5c-0.3-0.7-0.7-1.6-1-2.2l-3.4-6.7c-0.5-0.9-0.7-1.4-0.8-1.9H132c0,0.7-0.1,1.4-0.3,2.3l-1.8,9.1
			c-0.2,1.2-0.5,2.1-0.7,2.7h2.7c0-0.6,0.1-1.5,0.4-2.6l1.1-5.8c0.1-0.4,0.2-1.2,0.2-1.5c0.1-0.7,0.1-0.7,0.1-0.9
			c0.3,0.8,0.6,1.6,0.8,2.1l3.5,6.8c0.4,0.8,0.6,1.3,0.8,1.9h3.2V258.3z M161.1,252.9c0.2-1,0.3-1.5,0.6-2.2
			c-0.8,0.1-1.4,0.1-2.2,0.1h-1c-1.2,0-1.6,0-2.2-0.1l-0.5,2.3c0.6-0.1,1-0.1,1.9-0.1h1l-0.6,2.9c-1.1,0.6-2.1,0.8-3.3,0.8
			c-1.5,0-2.4-0.4-3-1.2c-0.7-0.9-0.8-2.3-0.5-4.1c0.4-1.8,1.1-3.1,2.2-4c0.8-0.7,1.9-1.1,3-1.1c1.9,0,2.7,0.6,3,2.2l2.7-0.7
			c-0.2-1-0.4-1.5-1-2.1c-0.9-1-2.3-1.5-4-1.5s-3,0.3-4.3,1c-2.2,1.2-3.7,3.4-4.2,6.2c-0.4,2.2-0.2,4.1,0.7,5.3c0.9,1.3,2.6,2,4.9,2
			c0.9,0,1.9-0.1,2.8-0.3c1-0.2,1.8-0.5,3.2-1.2c0-0.8,0.1-1.2,0.3-2.3L161.1,252.9L161.1,252.9z M171.2,254.2c0,0.7,0,1.1,0.1,1.5
			c0.2,0.9,0.6,1.5,1.2,2c0.8,0.6,2.2,0.9,3.7,0.9c2,0,3.6-0.4,4.7-1.3c0.9-0.7,1.5-1.7,1.8-3s0-2.3-1-3c-0.6-0.4-1.4-0.8-2.8-1.1
			c-2-0.4-2.1-0.5-2.5-0.6c-0.8-0.4-1.1-0.9-1-1.6c0.2-1.1,1.5-1.9,3.1-1.9c1,0,1.8,0.3,2.2,0.8c0.2,0.4,0.3,0.7,0.3,1.2l2.7-0.3
			c0-0.9-0.2-1.5-0.5-2c-0.7-1.2-2.2-1.8-4.3-1.8c-3.2,0-5.6,1.6-6.1,4c-0.2,1.2,0.1,2.1,0.9,2.8c0.6,0.5,1.3,0.8,2.6,1.1
			c2.5,0.6,2.6,0.6,3.1,0.9c0.5,0.3,0.8,0.9,0.6,1.6c-0.3,1.3-1.5,2.1-3.4,2.1c-1.2,0-2.1-0.4-2.5-1c-0.3-0.4-0.3-0.8-0.2-1.5
			L171.2,254.2L171.2,254.2z M190.2,258.3c0-0.7,0.1-1.3,0.3-2.3l0.6-2.9h3.6c1.8,0,3.1-0.4,4.2-1.3c1-0.8,1.6-1.9,1.9-3.2
			c0.2-1.3,0.1-2.3-0.6-3c-0.7-0.8-1.9-1.2-3.7-1.2h-3.9c-1,0-1.6,0-2.4-0.1c0,0.8-0.1,1.4-0.3,2.3l-1.9,9.5
			c-0.2,0.9-0.3,1.6-0.6,2.3L190.2,258.3L190.2,258.3z M191.5,251.1l0.9-4.7h3.6c1,0,1.6,0.2,1.9,0.6c0.3,0.4,0.4,1,0.3,1.7
			c-0.3,1.5-1.4,2.4-3.1,2.4H191.5L191.5,251.1z M213.2,244.1c-2,0-3.6,0.6-5.2,1.8c-1.6,1.3-2.8,3.2-3.2,5.5
			c-0.9,4.5,1.3,7.3,5.5,7.3s7.5-2.9,8.4-7.3c0.5-2.3,0.1-4.2-1-5.5C216.8,244.6,215.3,244.1,213.2,244.1L213.2,244.1z M210.8,256.5
			c-1.1,0-2.1-0.4-2.7-1.1c-0.8-0.9-1-2.4-0.7-4.1c0.6-3.2,2.7-5.2,5.4-5.2c1.1,0,2,0.4,2.7,1.1c0.8,0.9,1,2.3,0.7,4.1
			C215.5,254.5,213.5,256.5,210.8,256.5L210.8,256.5z M235.4,258.3c-0.2-0.5-0.4-1.4-0.5-1.7c-1-4.1-1.3-4.6-2.4-5
			c1.1-0.3,1.7-0.5,2.3-1c0.8-0.6,1.2-1.5,1.5-2.6c0.5-2.3-0.9-3.7-3.7-3.7H228c-1,0-1.6,0-2.4-0.1c-0.1,0.8-0.1,1.4-0.3,2.3
			l-1.9,9.5c-0.2,1.1-0.3,1.5-0.6,2.3h2.8c0-0.7,0.1-1.2,0.3-2.3l0.7-3.6h2.8c1.4,0,2,0.6,2.5,3.1c0.3,1.5,0.5,2.4,0.4,2.8
			L235.4,258.3L235.4,258.3z M227,250.4l0.8-4.1h3.8c1.5,0,2.2,0.7,1.9,1.9c-0.1,0.7-0.4,1.2-0.9,1.5c-0.5,0.4-1.2,0.6-1.9,0.6H227
			V250.4z M249.4,246.4h2.3c1.3,0,2,0,2.7,0.1l0.5-2.4c-0.7,0.1-1.4,0.1-2.8,0.1h-7.4c-1.1,0-1.9,0-2.5-0.1l-0.5,2.4
			c0.7-0.1,1.5-0.1,2.6-0.1h2.5L245,256c-0.2,0.9-0.3,1.5-0.6,2.3h2.8c0-0.7,0.1-1.3,0.3-2.3L249.4,246.4L249.4,246.4z M257.3,254.2
			c0,0.7,0,1.1,0.1,1.5c0.2,0.9,0.6,1.5,1.2,2c0.8,0.6,2.2,0.9,3.7,0.9c2,0,3.6-0.4,4.7-1.3c0.9-0.7,1.5-1.7,1.8-3s0-2.3-0.9-3
			c-0.6-0.4-1.4-0.8-2.8-1.1c-2-0.4-2.1-0.5-2.5-0.6c-0.8-0.4-1.1-0.9-1-1.6c0.2-1.1,1.5-1.9,3.1-1.9c1,0,1.8,0.3,2.2,0.8
			c0.2,0.4,0.3,0.7,0.3,1.2l2.7-0.3c0-0.9-0.2-1.5-0.5-2c-0.7-1.2-2.2-1.8-4.3-1.8c-3.2,0-5.6,1.6-6.1,4c-0.2,1.2,0.1,2.1,0.9,2.8
			c0.6,0.5,1.3,0.8,2.6,1.1c2.5,0.6,2.6,0.6,3.1,0.9c0.5,0.3,0.8,0.9,0.6,1.6c-0.3,1.3-1.5,2.1-3.4,2.1c-1.2,0-2.1-0.4-2.5-1
			c-0.3-0.4-0.3-0.8-0.2-1.5L257.3,254.2z"/>
		
			<linearGradient id="SVGID_15_" gradientUnits="userSpaceOnUse" x1="-11.03" y1="88.95" x2="123.1063" y2="88.95" gradientTransform="matrix(1 0 0 -1 0 300)">
			<stop  offset="0" style="stop-color:#886728"/>
			<stop  offset="0.5" style="stop-color:#D9B766"/>
			<stop  offset="1" style="stop-color:#886728"/>
		</linearGradient>
		<path class="st15" d="M53.8,218.3L53.8,218.3L53.8,218.3h-2.3h-1l-1.2,12h31.8l-0.6,5.8h-2l0,0l0,0h-2.1H41.2l1.8-17.9h-4.2
			l-5,17.9h-7.4l5.3-17.9h-3.6l0.6-5.8h1.8H32h24.2l-0.6,5.8L53.8,218.3L53.8,218.3z M84.3,198.8h-7.4l0.7-6.9H38.3l-0.7,6.9h-7.4
			l1.1-10.7l-0.6-2.1h54.9L84.3,198.8L84.3,198.8z M81.1,201.1h-8.5l0.9,1.7l-0.3,2.5H61.7h-1.8h-1.8l-0.6,5.8h15.1l-1.5,15.2
			l-1.7,2.3h8.9l1.8-17.4h0.6H81l0,0h2l0.6-5.8h-2.9L81.1,201.1L81.1,201.1z M54.4,207.2L54.4,207.2h-3.6h-21l0.6-5.7h1.8h1.9h23
			l-0.6,5.7H54.4L54.4,207.2z M68.3,228.6l-2.1-14.2h-8.1l0.9,1.7l1.9,12.5H68.3z"/>
		
			<linearGradient id="SVGID_16_" gradientUnits="userSpaceOnUse" x1="91.2414" y1="88.15" x2="146.417" y2="88.15" gradientTransform="matrix(1 0 0 -1 0 300)">
			<stop  offset="0" style="stop-color:#886728"/>
			<stop  offset="0.5" style="stop-color:#D9B766"/>
			<stop  offset="1" style="stop-color:#886728"/>
		</linearGradient>
		<path class="st16" d="M142.7,237L142.7,237L142.7,237h-4h-48l0.5-5.2h1.7h0.5H94l1-10.3l-0.9-1.6h49l-0.5,4.9h-0.1l-0.7,7h3.4
			l-0.5,5.2L142.7,237L142.7,237z M147,199.9l-1.7,16.8h-8.8l1.7-2.3l1-9.5h-6.6l3.8-13h-25.8l-7.2,24.7H96l7.3-24.7h-5.7l0.5-5.2
			h1.8h1.4H145l-3.8,13.1L147,199.9L147,199.9z M118.8,202.5h-7.6l5.2,6.7l-4.7,4.2h-1.3h-1.3h-1.8l-0.4,3.6h9.3l3.6-3.2l2.5,3.2
			h8.8l0.4-3.6h-1.8h-1.4h-1.4l-2.6-3.5l6.5-5.8l0.9-8.6h-15.6h-2.5h-1.8l-0.5,5H125l-0.1,1.1l-4.1,3.6L118.8,202.5L118.8,202.5z
			 M101.4,231.8h6.6l0.7-7h-6.6L101.4,231.8L101.4,231.8z M115.4,231.8h6.6l0.7-7h-6.6L115.4,231.8L115.4,231.8z M129.4,231.8h5.2
			l0.7-7h-5.2L129.4,231.8z"/>
		
			<linearGradient id="SVGID_17_" gradientUnits="userSpaceOnUse" x1="157.3647" y1="88.05" x2="212.1426" y2="88.05" gradientTransform="matrix(1 0 0 -1 0 300)">
			<stop  offset="0" style="stop-color:#886728"/>
			<stop  offset="0.5" style="stop-color:#D9B766"/>
			<stop  offset="1" style="stop-color:#886728"/>
		</linearGradient>
		<path class="st17" d="M210.1,195.8L210.1,195.8L210.1,195.8h-6.4h-8.8l-0.6,6h13.2l0.6,35.4h-7.6l-0.1-5.3h-9.2l-0.5,5.3h-7.4
			l0.5-5.3h-7.7l-1,4.8h-7.4l7.3-33.9l-0.9-1.6h8.7l-5.3,24.9h7l3.1-30.3h-14.8l0.6-5.8h1.8h1.4H188l0.1-1.4l-0.9-1.6h8.5l-0.3,3
			h17.2l-0.6,5.8H210.1L210.1,195.8z M165.2,236.7l3.7-36.8h-2.4l5.1-13.2H163l0.9,1.7l-7.1,17.6h4l-3.1,30.7H165.2L165.2,236.7z
			 M191.8,226.1h8.5l-0.4-18.5h-6.2L191.8,226.1z"/>
		
			<linearGradient id="SVGID_18_" gradientUnits="userSpaceOnUse" x1="217.2066" y1="88.1" x2="277.7335" y2="88.1" gradientTransform="matrix(1 0 0 -1 0 300)">
			<stop  offset="0" style="stop-color:#886728"/>
			<stop  offset="0.5" style="stop-color:#D9B766"/>
			<stop  offset="1" style="stop-color:#886728"/>
		</linearGradient>
		<path class="st18" d="M270.9,209.3l-2.8,27.5h-8.8l1.7-2.3l0.2-1.6h-33l-0.4,3.9h-7.4l2.6-25.9l-0.9-1.6L270.9,209.3L270.9,209.3z
			 M269.3,205.3L269.3,205.3h-3.6h-42.2l0.9-8.9h-3.6l0.6-5.8h1.8h1.8h20.3l0.2-2l-0.9-1.6h8.4l-0.4,3.6h22l-0.6,5.8h-2l0,0h-4.3
			h-36l-0.3,3h40.4l-0.6,5.8L269.3,205.3L269.3,205.3z M228.7,227.1h33l0.3-3.1h-33L228.7,227.1L228.7,227.1z M229.6,218.2h33
			l0.3-3.1h-33.1L229.6,218.2z"/>
	</g>
</g>
</svg>
