<svg xmlns="http://www.w3.org/2000/svg" width="52" height="52" viewBox="0 0 52 52"><g transform="translate(-1136 -572)"><rect width="52" height="52" transform="translate(1136 572)" fill="#fff" opacity="0"/><g transform="translate(1125.467 577.499)"><g transform="translate(17.756)"><path d="M51.351,16.949h-.1V14.462a14.462,14.462,0,1,0-28.925,0v2.487h-.609a4.133,4.133,0,0,0-3.958,4.263v6.343a4.009,4.009,0,0,0,3.906,4.109h3.808a.964.964,0,0,0,.918-1.008c0-.019,0-.038,0-.057V18.167c0-.609-.355-1.218-.913-1.218H24.355V14.462a12.433,12.433,0,1,1,24.865,0v2.487H48.1c-.558,0-.913.609-.913,1.218V30.6a.964.964,0,0,0,.856,1.061l.057,0h1.167l-.1.152a8.018,8.018,0,0,1-6.445,3.2,5.024,5.024,0,0,0-9.946.964A5.074,5.074,0,0,0,37.853,41a5.227,5.227,0,0,0,3.654-1.573,4.466,4.466,0,0,0,1.218-2.436,10.047,10.047,0,0,0,8.069-4.009l.964-1.421a3.455,3.455,0,0,0,3.552-3.5V21.719C55.309,19.537,53.686,16.949,51.351,16.949Zm-27,12.686H21.716a1.979,1.979,0,0,1-1.93-2.027c0-.018,0-.036,0-.054V21.212a2.1,2.1,0,0,1,1.928-2.233h2.639Zm15.68,8.373a2.994,2.994,0,0,1-2.182.964,3.1,3.1,0,0,1-3.045-2.994,2.994,2.994,0,1,1,5.988,0v0A2.69,2.69,0,0,1,40.035,38.008ZM53.28,28.062c0,1.37-1.319,1.573-1.928,1.573H49.22V18.979h2.131c1.116,0,1.928,1.573,1.928,2.74Z" transform="translate(-17.756)" fill="#fff"/></g></g></g></svg>