<?xml version="1.0" encoding="utf-8"?>
<!-- Generator: Adobe Illustrator 23.1.0, SVG Export Plug-In . SVG Version: 6.00 Build 0)  -->
<svg version="1.1" id="Layer_1" xmlns="http://www.w3.org/2000/svg" xmlns:xlink="http://www.w3.org/1999/xlink" x="0px" y="0px"
	 viewBox="0 0 375 20" style="enable-background:new 0 0 375 20;" xml:space="preserve">
<style type="text/css">
	.st0{fill:#C4C4C4;}
</style>
<g>
	<rect x="172.7" y="8.5" class="st0" width="1" height="1"/>
	<rect x="170.7" y="8.5" class="st0" width="1" height="1"/>
	<rect x="166.7" y="8.5" class="st0" width="1" height="1"/>
	<rect x="168.7" y="8.5" class="st0" width="1" height="1"/>
	<rect x="162.7" y="8.5" class="st0" width="1" height="1"/>
	<rect x="164.7" y="8.5" class="st0" width="1" height="1"/>
	<rect x="174.7" y="8.5" class="st0" width="1" height="1"/>
	<rect x="182.7" y="8.5" class="st0" width="1" height="1"/>
	<rect x="180.7" y="8.5" class="st0" width="1" height="1"/>
	<rect x="184.7" y="8.5" class="st0" width="1" height="1"/>
	<rect x="176.7" y="8.5" class="st0" width="1" height="1"/>
	<rect x="160.7" y="8.5" class="st0" width="1" height="1"/>
	<rect x="178.7" y="8.5" class="st0" width="1" height="1"/>
	<rect x="134.7" y="8.5" class="st0" width="1" height="1"/>
	<rect x="140.7" y="8.5" class="st0" width="1" height="1"/>
	<rect x="144.7" y="8.5" class="st0" width="1" height="1"/>
	<rect x="142.7" y="8.5" class="st0" width="1" height="1"/>
	<rect x="158.7" y="8.5" class="st0" width="1" height="1"/>
	<rect x="136.7" y="8.5" class="st0" width="1" height="1"/>
	<rect x="186.7" y="8.5" class="st0" width="1" height="1"/>
	<rect x="138.7" y="8.5" class="st0" width="1" height="1"/>
	<rect x="152.7" y="8.5" class="st0" width="1" height="1"/>
	<rect x="154.7" y="8.5" class="st0" width="1" height="1"/>
	<rect x="156.7" y="8.5" class="st0" width="1" height="1"/>
	<rect x="148.7" y="8.5" class="st0" width="1" height="1"/>
	<rect x="146.7" y="8.5" class="st0" width="1" height="1"/>
	<rect x="150.7" y="8.5" class="st0" width="1" height="1"/>
	<rect x="218.7" y="8.5" class="st0" width="1" height="1"/>
	<rect x="224.7" y="8.5" class="st0" width="1" height="1"/>
	<rect x="228.7" y="8.5" class="st0" width="1" height="1"/>
	<rect x="226.7" y="8.5" class="st0" width="1" height="1"/>
	<rect x="222.7" y="8.5" class="st0" width="1" height="1"/>
	<rect x="216.7" y="8.5" class="st0" width="1" height="1"/>
	<rect x="220.7" y="8.5" class="st0" width="1" height="1"/>
	<rect x="230.7" y="8.5" class="st0" width="1" height="1"/>
	<rect x="236.7" y="8.5" class="st0" width="1" height="1"/>
	<rect x="238.7" y="8.5" class="st0" width="1" height="1"/>
	<rect x="240.7" y="8.5" class="st0" width="1" height="1"/>
	<rect x="234.7" y="8.5" class="st0" width="1" height="1"/>
	<rect x="232.7" y="8.5" class="st0" width="1" height="1"/>
	<rect x="242.7" y="8.5" class="st0" width="1" height="1"/>
	<rect x="204.7" y="8.5" class="st0" width="1" height="1"/>
	<rect x="196.7" y="8.5" class="st0" width="1" height="1"/>
	<rect x="200.7" y="8.5" class="st0" width="1" height="1"/>
	<rect x="198.7" y="8.5" class="st0" width="1" height="1"/>
	<rect x="132.7" y="8.5" class="st0" width="1" height="1"/>
	<rect x="192.7" y="8.5" class="st0" width="1" height="1"/>
	<rect x="190.7" y="8.5" class="st0" width="1" height="1"/>
	<rect x="194.7" y="8.5" class="st0" width="1" height="1"/>
	<rect x="202.7" y="8.5" class="st0" width="1" height="1"/>
	<rect x="208.7" y="8.5" class="st0" width="1" height="1"/>
	<rect x="210.7" y="8.5" class="st0" width="1" height="1"/>
	<rect x="188.7" y="8.5" class="st0" width="1" height="1"/>
	<rect x="206.7" y="8.5" class="st0" width="1" height="1"/>
	<rect x="214.7" y="8.5" class="st0" width="1" height="1"/>
	<rect x="56.7" y="8.5" class="st0" width="1" height="1"/>
	<rect x="58.7" y="8.5" class="st0" width="1" height="1"/>
	<rect x="54.7" y="8.5" class="st0" width="1" height="1"/>
	<rect x="60.7" y="8.5" class="st0" width="1" height="1"/>
	<rect x="52.7" y="8.5" class="st0" width="1" height="1"/>
	<rect x="74.7" y="8.5" class="st0" width="1" height="1"/>
	<rect x="48.7" y="8.5" class="st0" width="1" height="1"/>
	<rect x="70.7" y="8.5" class="st0" width="1" height="1"/>
	<rect x="62.7" y="8.5" class="st0" width="1" height="1"/>
	<rect x="72.7" y="8.5" class="st0" width="1" height="1"/>
	<rect x="68.7" y="8.5" class="st0" width="1" height="1"/>
	<rect x="66.7" y="8.5" class="st0" width="1" height="1"/>
	<rect x="64.7" y="8.5" class="st0" width="1" height="1"/>
	<rect x="50.7" y="8.5" class="st0" width="1" height="1"/>
	<rect x="26.7" y="8.5" class="st0" width="1" height="1"/>
	<rect x="28.7" y="8.5" class="st0" width="1" height="1"/>
	<rect x="32.7" y="8.5" class="st0" width="1" height="1"/>
	<rect x="30.7" y="8.5" class="st0" width="1" height="1"/>
	<rect x="22.7" y="8.5" class="st0" width="1" height="1"/>
	<rect x="24.7" y="8.5" class="st0" width="1" height="1"/>
	<rect x="34.7" y="8.5" class="st0" width="1" height="1"/>
	<rect x="46.7" y="8.5" class="st0" width="1" height="1"/>
	<rect x="42.7" y="8.5" class="st0" width="1" height="1"/>
	<rect x="44.7" y="8.5" class="st0" width="1" height="1"/>
	<rect x="40.7" y="8.5" class="st0" width="1" height="1"/>
	<rect x="36.7" y="8.5" class="st0" width="1" height="1"/>
	<rect x="38.7" y="8.5" class="st0" width="1" height="1"/>
	<rect x="92.7" y="8.5" class="st0" width="1" height="1"/>
	<rect x="112.7" y="8.5" class="st0" width="1" height="1"/>
	<rect x="114.7" y="8.5" class="st0" width="1" height="1"/>
	<rect x="116.7" y="8.5" class="st0" width="1" height="1"/>
	<rect x="110.7" y="8.5" class="st0" width="1" height="1"/>
	<rect x="104.7" y="8.5" class="st0" width="1" height="1"/>
	<rect x="106.7" y="8.5" class="st0" width="1" height="1"/>
	<rect x="108.7" y="8.5" class="st0" width="1" height="1"/>
	<rect x="126.7" y="8.5" class="st0" width="1" height="1"/>
	<rect x="124.7" y="8.5" class="st0" width="1" height="1"/>
	<rect x="128.7" y="8.5" class="st0" width="1" height="1"/>
	<rect x="118.7" y="8.5" class="st0" width="1" height="1"/>
	<rect x="122.7" y="8.5" class="st0" width="1" height="1"/>
	<rect x="76.7" y="8.5" class="st0" width="1" height="1"/>
	<rect x="120.7" y="8.5" class="st0" width="1" height="1"/>
	<rect x="88.7" y="8.5" class="st0" width="1" height="1"/>
	<rect x="82.7" y="8.5" class="st0" width="1" height="1"/>
	<rect x="86.7" y="8.5" class="st0" width="1" height="1"/>
	<rect x="84.7" y="8.5" class="st0" width="1" height="1"/>
	<rect x="78.7" y="8.5" class="st0" width="1" height="1"/>
	<rect x="80.7" y="8.5" class="st0" width="1" height="1"/>
	<rect x="98.7" y="8.5" class="st0" width="1" height="1"/>
	<rect x="102.7" y="8.5" class="st0" width="1" height="1"/>
	<rect x="100.7" y="8.5" class="st0" width="1" height="1"/>
	<rect x="96.7" y="8.5" class="st0" width="1" height="1"/>
	<rect x="94.7" y="8.5" class="st0" width="1" height="1"/>
	<rect x="90.7" y="8.5" class="st0" width="1" height="1"/>
	<rect x="130.7" y="8.5" class="st0" width="1" height="1"/>
	<rect x="212.7" y="8.5" class="st0" width="1" height="1"/>
	<rect x="336.7" y="8.5" class="st0" width="1" height="1"/>
	<rect x="292.7" y="8.5" class="st0" width="1" height="1"/>
	<rect x="268.7" y="8.5" class="st0" width="1" height="1"/>
	<rect x="266.7" y="8.5" class="st0" width="1" height="1"/>
	<rect x="338.7" y="8.5" class="st0" width="1" height="1"/>
	<rect x="334.7" y="8.5" class="st0" width="1" height="1"/>
	<rect x="318.7" y="8.5" class="st0" width="1" height="1"/>
	<rect x="270.7" y="8.5" class="st0" width="1" height="1"/>
	<rect x="262.7" y="8.5" class="st0" width="1" height="1"/>
	<rect x="290.7" y="8.5" class="st0" width="1" height="1"/>
	<rect x="296.7" y="8.5" class="st0" width="1" height="1"/>
	<rect x="260.7" y="8.5" class="st0" width="1" height="1"/>
	<rect x="264.7" y="8.5" class="st0" width="1" height="1"/>
	<rect x="294.7" y="8.5" class="st0" width="1" height="1"/>
	<rect x="316.7" y="8.5" class="st0" width="1" height="1"/>
	<rect x="340.7" y="8.5" class="st0" width="1" height="1"/>
	<rect x="342.7" y="8.5" class="st0" width="1" height="1"/>
	<rect x="286.7" y="8.5" class="st0" width="1" height="1"/>
	<rect x="280.7" y="8.5" class="st0" width="1" height="1"/>
	<rect x="272.7" y="8.5" class="st0" width="1" height="1"/>
	<rect x="326.7" y="8.5" class="st0" width="1" height="1"/>
	<rect x="278.7" y="8.5" class="st0" width="1" height="1"/>
	<rect x="284.7" y="8.5" class="st0" width="1" height="1"/>
	<rect x="282.7" y="8.5" class="st0" width="1" height="1"/>
	<rect x="328.7" y="8.5" class="st0" width="1" height="1"/>
	<rect x="320.7" y="8.5" class="st0" width="1" height="1"/>
	<rect x="274.7" y="8.5" class="st0" width="1" height="1"/>
	<rect x="332.7" y="8.5" class="st0" width="1" height="1"/>
	<rect x="288.7" y="8.5" class="st0" width="1" height="1"/>
	<rect x="276.7" y="8.5" class="st0" width="1" height="1"/>
	<rect x="330.7" y="8.5" class="st0" width="1" height="1"/>
	<rect x="322.7" y="8.5" class="st0" width="1" height="1"/>
	<rect x="314.7" y="8.5" class="st0" width="1" height="1"/>
	<rect x="246.7" y="8.5" class="st0" width="1" height="1"/>
	<rect x="304.7" y="8.5" class="st0" width="1" height="1"/>
	<rect x="252.7" y="8.5" class="st0" width="1" height="1"/>
	<rect x="300.7" y="8.5" class="st0" width="1" height="1"/>
	<rect x="254.7" y="8.5" class="st0" width="1" height="1"/>
	<rect x="346.7" y="8.5" class="st0" width="1" height="1"/>
	<rect x="324.7" y="8.5" class="st0" width="1" height="1"/>
	<rect x="350.7" y="8.5" class="st0" width="1" height="1"/>
	<rect x="310.7" y="8.5" class="st0" width="1" height="1"/>
	<rect x="248.7" y="8.5" class="st0" width="1" height="1"/>
	<rect x="348.7" y="8.5" class="st0" width="1" height="1"/>
	<rect x="250.7" y="8.5" class="st0" width="1" height="1"/>
	<rect x="302.7" y="8.5" class="st0" width="1" height="1"/>
	<rect x="352.7" y="8.5" class="st0" width="1" height="1"/>
	<rect x="344.7" y="8.5" class="st0" width="1" height="1"/>
	<rect x="258.7" y="8.5" class="st0" width="1" height="1"/>
	<rect x="298.7" y="8.5" class="st0" width="1" height="1"/>
	<rect x="306.7" y="8.5" class="st0" width="1" height="1"/>
	<rect x="244.7" y="8.5" class="st0" width="1" height="1"/>
	<rect x="256.7" y="8.5" class="st0" width="1" height="1"/>
	<rect x="308.7" y="8.5" class="st0" width="1" height="1"/>
	<rect x="312.7" y="8.5" class="st0" width="1" height="1"/>
	<rect x="310.7" y="10.5" class="st0" width="1" height="1"/>
	<rect x="82.7" y="10.5" class="st0" width="1" height="1"/>
	<rect x="84.7" y="10.5" class="st0" width="1" height="1"/>
	<rect x="112.7" y="10.5" class="st0" width="1" height="1"/>
	<rect x="86.7" y="10.5" class="st0" width="1" height="1"/>
	<rect x="114.7" y="10.5" class="st0" width="1" height="1"/>
	<rect x="324.7" y="10.5" class="st0" width="1" height="1"/>
	<rect x="110.7" y="10.5" class="st0" width="1" height="1"/>
	<rect x="322.7" y="10.5" class="st0" width="1" height="1"/>
	<rect x="94.7" y="10.5" class="st0" width="1" height="1"/>
	<rect x="98.7" y="10.5" class="st0" width="1" height="1"/>
	<rect x="96.7" y="10.5" class="st0" width="1" height="1"/>
	<rect x="104.7" y="10.5" class="st0" width="1" height="1"/>
	<rect x="314.7" y="10.5" class="st0" width="1" height="1"/>
	<rect x="102.7" y="10.5" class="st0" width="1" height="1"/>
	<rect x="100.7" y="10.5" class="st0" width="1" height="1"/>
	<rect x="88.7" y="10.5" class="st0" width="1" height="1"/>
	<rect x="316.7" y="10.5" class="st0" width="1" height="1"/>
	<rect x="320.7" y="10.5" class="st0" width="1" height="1"/>
	<rect x="318.7" y="10.5" class="st0" width="1" height="1"/>
	<rect x="90.7" y="10.5" class="st0" width="1" height="1"/>
	<rect x="108.7" y="10.5" class="st0" width="1" height="1"/>
	<rect x="106.7" y="10.5" class="st0" width="1" height="1"/>
	<rect x="312.7" y="10.5" class="st0" width="1" height="1"/>
	<rect x="92.7" y="10.5" class="st0" width="1" height="1"/>
	<rect x="28.7" y="10.5" class="st0" width="1" height="1"/>
	<rect x="346.7" y="10.5" class="st0" width="1" height="1"/>
	<rect x="40.7" y="10.5" class="st0" width="1" height="1"/>
	<rect x="42.7" y="10.5" class="st0" width="1" height="1"/>
	<rect x="38.7" y="10.5" class="st0" width="1" height="1"/>
	<rect x="36.7" y="10.5" class="st0" width="1" height="1"/>
	<rect x="44.7" y="10.5" class="st0" width="1" height="1"/>
	<rect x="342.7" y="10.5" class="st0" width="1" height="1"/>
	<rect x="344.7" y="10.5" class="st0" width="1" height="1"/>
	<rect x="48.7" y="10.5" class="st0" width="1" height="1"/>
	<rect x="348.7" y="10.5" class="st0" width="1" height="1"/>
	<rect x="46.7" y="10.5" class="st0" width="1" height="1"/>
	<rect x="50.7" y="10.5" class="st0" width="1" height="1"/>
	<rect x="354.7" y="10.5" class="st0" width="1" height="1"/>
	<rect x="24.7" y="10.5" class="st0" width="1" height="1"/>
	<rect x="22.7" y="10.5" class="st0" width="1" height="1"/>
	<rect x="26.7" y="10.5" class="st0" width="1" height="1"/>
	<polygon class="st0" points="21.7,10.5 20.7,10.5 20.7,11.5 21.2,11.5 21.2,11.9 21.8,11.9 21.8,10.9 21.7,10.9 	"/>
	<rect x="80.7" y="10.5" class="st0" width="1" height="1"/>
	<rect x="350.7" y="10.5" class="st0" width="1" height="1"/>
	<rect x="352.7" y="10.5" class="st0" width="1" height="1"/>
	<rect x="32.7" y="10.5" class="st0" width="1" height="1"/>
	<rect x="308.7" y="10.5" class="st0" width="1" height="1"/>
	<rect x="34.7" y="10.5" class="st0" width="1" height="1"/>
	<rect x="30.7" y="10.5" class="st0" width="1" height="1"/>
	<rect x="66.7" y="10.5" class="st0" width="1" height="1"/>
	<rect x="72.7" y="10.5" class="st0" width="1" height="1"/>
	<rect x="70.7" y="10.5" class="st0" width="1" height="1"/>
	<rect x="332.7" y="10.5" class="st0" width="1" height="1"/>
	<rect x="68.7" y="10.5" class="st0" width="1" height="1"/>
	<rect x="330.7" y="10.5" class="st0" width="1" height="1"/>
	<rect x="326.7" y="10.5" class="st0" width="1" height="1"/>
	<rect x="78.7" y="10.5" class="st0" width="1" height="1"/>
	<rect x="328.7" y="10.5" class="st0" width="1" height="1"/>
	<rect x="76.7" y="10.5" class="st0" width="1" height="1"/>
	<rect x="74.7" y="10.5" class="st0" width="1" height="1"/>
	<rect x="56.7" y="10.5" class="st0" width="1" height="1"/>
	<rect x="340.7" y="10.5" class="st0" width="1" height="1"/>
	<rect x="338.7" y="10.5" class="st0" width="1" height="1"/>
	<rect x="58.7" y="10.5" class="st0" width="1" height="1"/>
	<rect x="54.7" y="10.5" class="st0" width="1" height="1"/>
	<rect x="52.7" y="10.5" class="st0" width="1" height="1"/>
	<rect x="60.7" y="10.5" class="st0" width="1" height="1"/>
	<rect x="334.7" y="10.5" class="st0" width="1" height="1"/>
	<rect x="62.7" y="10.5" class="st0" width="1" height="1"/>
	<rect x="64.7" y="10.5" class="st0" width="1" height="1"/>
	<rect x="336.7" y="10.5" class="st0" width="1" height="1"/>
	<rect x="220.7" y="10.5" class="st0" width="1" height="1"/>
	<rect x="264.7" y="10.5" class="st0" width="1" height="1"/>
	<rect x="196.7" y="10.5" class="st0" width="1" height="1"/>
	<rect x="200.7" y="10.5" class="st0" width="1" height="1"/>
	<rect x="266.7" y="10.5" class="st0" width="1" height="1"/>
	<rect x="260.7" y="10.5" class="st0" width="1" height="1"/>
	<rect x="116.7" y="10.5" class="st0" width="1" height="1"/>
	<rect x="208.7" y="10.5" class="st0" width="1" height="1"/>
	<rect x="204.7" y="10.5" class="st0" width="1" height="1"/>
	<rect x="210.7" y="10.5" class="st0" width="1" height="1"/>
	<rect x="262.7" y="10.5" class="st0" width="1" height="1"/>
	<rect x="206.7" y="10.5" class="st0" width="1" height="1"/>
	<rect x="198.7" y="10.5" class="st0" width="1" height="1"/>
	<rect x="186.7" y="10.5" class="st0" width="1" height="1"/>
	<rect x="184.7" y="10.5" class="st0" width="1" height="1"/>
	<rect x="268.7" y="10.5" class="st0" width="1" height="1"/>
	<rect x="274.7" y="10.5" class="st0" width="1" height="1"/>
	<rect x="272.7" y="10.5" class="st0" width="1" height="1"/>
	<rect x="182.7" y="10.5" class="st0" width="1" height="1"/>
	<rect x="192.7" y="10.5" class="st0" width="1" height="1"/>
	<rect x="194.7" y="10.5" class="st0" width="1" height="1"/>
	<rect x="270.7" y="10.5" class="st0" width="1" height="1"/>
	<rect x="190.7" y="10.5" class="st0" width="1" height="1"/>
	<rect x="188.7" y="10.5" class="st0" width="1" height="1"/>
	<rect x="238.7" y="10.5" class="st0" width="1" height="1"/>
	<rect x="234.7" y="10.5" class="st0" width="1" height="1"/>
	<rect x="232.7" y="10.5" class="st0" width="1" height="1"/>
	<rect x="230.7" y="10.5" class="st0" width="1" height="1"/>
	<rect x="250.7" y="10.5" class="st0" width="1" height="1"/>
	<rect x="248.7" y="10.5" class="st0" width="1" height="1"/>
	<rect x="242.7" y="10.5" class="st0" width="1" height="1"/>
	<rect x="236.7" y="10.5" class="st0" width="1" height="1"/>
	<rect x="228.7" y="10.5" class="st0" width="1" height="1"/>
	<rect x="240.7" y="10.5" class="st0" width="1" height="1"/>
	<rect x="180.7" y="10.5" class="st0" width="1" height="1"/>
	<rect x="246.7" y="10.5" class="st0" width="1" height="1"/>
	<rect x="258.7" y="10.5" class="st0" width="1" height="1"/>
	<rect x="256.7" y="10.5" class="st0" width="1" height="1"/>
	<rect x="218.7" y="10.5" class="st0" width="1" height="1"/>
	<rect x="216.7" y="10.5" class="st0" width="1" height="1"/>
	<rect x="212.7" y="10.5" class="st0" width="1" height="1"/>
	<rect x="214.7" y="10.5" class="st0" width="1" height="1"/>
	<rect x="244.7" y="10.5" class="st0" width="1" height="1"/>
	<rect x="252.7" y="10.5" class="st0" width="1" height="1"/>
	<rect x="224.7" y="10.5" class="st0" width="1" height="1"/>
	<rect x="226.7" y="10.5" class="st0" width="1" height="1"/>
	<rect x="222.7" y="10.5" class="st0" width="1" height="1"/>
	<rect x="254.7" y="10.5" class="st0" width="1" height="1"/>
	<rect x="202.7" y="10.5" class="st0" width="1" height="1"/>
	<rect x="138.7" y="10.5" class="st0" width="1" height="1"/>
	<rect x="136.7" y="10.5" class="st0" width="1" height="1"/>
	<rect x="132.7" y="10.5" class="st0" width="1" height="1"/>
	<rect x="134.7" y="10.5" class="st0" width="1" height="1"/>
	<rect x="298.7" y="10.5" class="st0" width="1" height="1"/>
	<rect x="292.7" y="10.5" class="st0" width="1" height="1"/>
	<rect x="144.7" y="10.5" class="st0" width="1" height="1"/>
	<rect x="146.7" y="10.5" class="st0" width="1" height="1"/>
	<rect x="294.7" y="10.5" class="st0" width="1" height="1"/>
	<rect x="142.7" y="10.5" class="st0" width="1" height="1"/>
	<rect x="140.7" y="10.5" class="st0" width="1" height="1"/>
	<rect x="296.7" y="10.5" class="st0" width="1" height="1"/>
	<rect x="122.7" y="10.5" class="st0" width="1" height="1"/>
	<rect x="120.7" y="10.5" class="st0" width="1" height="1"/>
	<rect x="304.7" y="10.5" class="st0" width="1" height="1"/>
	<rect x="118.7" y="10.5" class="st0" width="1" height="1"/>
	<rect x="306.7" y="10.5" class="st0" width="1" height="1"/>
	<rect x="124.7" y="10.5" class="st0" width="1" height="1"/>
	<rect x="130.7" y="10.5" class="st0" width="1" height="1"/>
	<rect x="128.7" y="10.5" class="st0" width="1" height="1"/>
	<rect x="126.7" y="10.5" class="st0" width="1" height="1"/>
	<rect x="302.7" y="10.5" class="st0" width="1" height="1"/>
	<rect x="300.7" y="10.5" class="st0" width="1" height="1"/>
	<rect x="174.7" y="10.5" class="st0" width="1" height="1"/>
	<rect x="168.7" y="10.5" class="st0" width="1" height="1"/>
	<rect x="170.7" y="10.5" class="st0" width="1" height="1"/>
	<rect x="166.7" y="10.5" class="st0" width="1" height="1"/>
	<rect x="282.7" y="10.5" class="st0" width="1" height="1"/>
	<rect x="280.7" y="10.5" class="st0" width="1" height="1"/>
	<rect x="276.7" y="10.5" class="st0" width="1" height="1"/>
	<rect x="176.7" y="10.5" class="st0" width="1" height="1"/>
	<rect x="178.7" y="10.5" class="st0" width="1" height="1"/>
	<rect x="172.7" y="10.5" class="st0" width="1" height="1"/>
	<rect x="148.7" y="10.5" class="st0" width="1" height="1"/>
	<rect x="164.7" y="10.5" class="st0" width="1" height="1"/>
	<rect x="278.7" y="10.5" class="st0" width="1" height="1"/>
	<rect x="154.7" y="10.5" class="st0" width="1" height="1"/>
	<rect x="152.7" y="10.5" class="st0" width="1" height="1"/>
	<rect x="288.7" y="10.5" class="st0" width="1" height="1"/>
	<rect x="290.7" y="10.5" class="st0" width="1" height="1"/>
	<rect x="150.7" y="10.5" class="st0" width="1" height="1"/>
	<rect x="158.7" y="10.5" class="st0" width="1" height="1"/>
	<rect x="156.7" y="10.5" class="st0" width="1" height="1"/>
	<rect x="160.7" y="10.5" class="st0" width="1" height="1"/>
	<rect x="162.7" y="10.5" class="st0" width="1" height="1"/>
	<rect x="286.7" y="10.5" class="st0" width="1" height="1"/>
	<rect x="284.7" y="10.5" class="st0" width="1" height="1"/>
	<polygon class="st0" points="20.7,9 20.7,9.5 21.7,9.5 21.7,8.5 21.1,8.5 23.2,5.5 10.2,5.5 16.7,14.5 18.9,11.5 19.7,11.5 
		19.7,10.5 19.6,10.5 	"/>
	<polygon class="st0" points="352.2,5.5 354.7,9 354.7,9.5 355.1,9.5 358.7,14.5 365.2,5.5 	"/>
</g>
</svg>
