<?xml version="1.0" encoding="utf-8"?>
<!-- Generator: Adobe Illustrator 24.0.0, SVG Export Plug-In . SVG Version: 6.00 Build 0)  -->
<svg version="1.1" id="Layer_1" xmlns="http://www.w3.org/2000/svg" xmlns:xlink="http://www.w3.org/1999/xlink" x="0px" y="0px"
	 viewBox="0 0 329.2 100" style="enable-background:new 0 0 329.2 100;" xml:space="preserve">
<style type="text/css">
	.st0{fill:#FFFFFF;}
	.st1{fill:#FEE823;}
</style>
<g>
	<path class="st0" d="M2.9,3.3h29.6v35.9h0.3c4.5-6.5,10.7-9.7,18.4-9.6c9.8,0.2,16.8,3.4,21.2,9.5c4.2,6.2,6.4,13.7,6.4,22.6
		c0.1,9.4-2,17.3-6.1,23.8c-4.3,6.7-11.4,10.1-21.3,10.3c-9.5,0.2-16.2-4.2-20.1-13l-0.2,0v11.6H2.9V3.3z M31.7,62.4
		c-0.1,3.1,0.4,6,1.5,8.7c1,2.8,3.2,4.3,6.6,4.4c3.5-0.1,5.8-1.6,6.9-4.5c0.9-2.8,1.4-5.9,1.4-9.3c0-3.4-0.4-6.5-1.3-9.1
		c-1.1-2.6-3.3-4-6.8-4.1c-3.5,0.1-5.8,1.5-6.8,4.2C32.1,55.3,31.6,58.5,31.7,62.4L31.7,62.4z"/>
	<path class="st0" d="M146.1,92.6c-6.2,2.1-13.5,3.2-22,3.2c-25.2-0.3-37.9-11.7-38-34.2c0.1-21.3,12.7-31.9,38-31.9
		c8.6,0,15.8,0.9,21.5,2.7v18.6c-1.8-0.9-3.8-1.7-5.9-2.3c-2.2-0.6-4.7-0.8-7.4-0.8c-4.4,0-8,1.1-10.6,3.4
		c-2.7,2.4-4.1,6.1-4.1,10.9c0.2,10.4,5.1,15.6,14.7,15.7c5.2,0,9.8-1.3,13.7-3.8V92.6z"/>
	<path class="st1" d="M160.4,71.1H186v23.2h-25.6V71.1z"/>
	<path class="st1" d="M258.5,92.6c-6.2,2.1-13.5,3.2-22,3.2c-25.2-0.3-37.9-11.7-38-34.2c0.1-21.3,12.7-31.9,38-31.9
		c8.6,0,15.8,0.9,21.5,2.7v18.6c-1.8-0.9-3.8-1.7-5.9-2.3c-2.2-0.6-4.7-0.8-7.4-0.8c-4.4,0-8,1.1-10.6,3.4
		c-2.7,2.4-4.1,6.1-4.1,10.9c0.2,10.4,5.1,15.6,14.7,15.7c5.2,0,9.8-1.3,13.7-3.8V92.6z"/>
	<path class="st1" d="M326,92.6c-6.2,2.1-13.5,3.2-22,3.2c-25.2-0.3-37.9-11.7-38-34.2c0.1-21.3,12.7-31.9,38-31.9
		c8.6,0,15.8,0.9,21.5,2.7v18.6c-1.8-0.9-3.8-1.7-5.9-2.3c-2.2-0.6-4.7-0.8-7.4-0.8c-4.4,0-8,1.1-10.6,3.4
		c-2.7,2.4-4.1,6.1-4.1,10.9c0.2,10.4,5.1,15.6,14.7,15.7c5.2,0,9.8-1.3,13.7-3.8V92.6z"/>
</g>
</svg>
