<svg xmlns="http://www.w3.org/2000/svg" width="76" height="76" viewBox="0 0 76 76"><g transform="translate(0 0.335)"><rect width="76" height="76" rx="13" transform="translate(0 -0.335)" fill="#0c186c"/><g transform="translate(10.125 44.473)"><path d="M16.408,71.037a4.506,4.506,0,0,1-1.53-1.263,5.747,5.747,0,0,1-.936-1.842,7.74,7.74,0,0,1-.312-2.214,6.543,6.543,0,0,1,.513-2.615,6.128,6.128,0,0,1,1.411-2.05,6.628,6.628,0,0,1,2.11-1.352,6.97,6.97,0,0,1,2.637-.49,7.35,7.35,0,0,1,2.682.475,6.241,6.241,0,0,1,2.132,1.345,6.065,6.065,0,0,1,1.411,2.087,6.922,6.922,0,0,1,.513,2.7,6.523,6.523,0,0,1-.446,2.4,10.629,10.629,0,0,1-1.144,2.169L21.23,76.66H16.141L22.4,66.631a.862.862,0,0,1,.1-.163,2.031,2.031,0,0,0,.1-.186,1.24,1.24,0,0,0,.119-.409,4.516,4.516,0,0,0,.022-.453,2.416,2.416,0,0,0-.639-1.679,2.124,2.124,0,0,0-1.642-.7,2.391,2.391,0,0,0-1.7.654,2.166,2.166,0,0,0-.7,1.657,2.228,2.228,0,0,0,.691,1.7,2.39,2.39,0,0,0,1.716.654,2.429,2.429,0,0,0,.721-.119L18.54,71.512A4.7,4.7,0,0,1,16.408,71.037Z" transform="translate(-13.63 -59.21)" fill="#fff"/><path d="M39.011,76.66a7.587,7.587,0,0,1-1.449-.141,7.786,7.786,0,0,1-1.456-.431,5.981,5.981,0,0,1-1.315-.735,4.192,4.192,0,0,1-1-1.047,5,5,0,0,1-.654-1.449,14.822,14.822,0,0,1-.3-1.538h4.361a2.083,2.083,0,0,0,.654,1.166,1.9,1.9,0,0,0,1.285.423,1.693,1.693,0,0,0,1.352-.535A2.015,2.015,0,0,0,40.95,71a1.435,1.435,0,0,0-.394-1.107,2.187,2.187,0,0,0-.981-.49,5.122,5.122,0,0,0-1.233-.1c-.438.015-.817.022-1.144.022V66.148c.312,0,.631-.007.966-.022a3.029,3.029,0,0,0,.921-.178,1.474,1.474,0,0,0,.691-.505,1.572,1.572,0,0,0,.267-.981,1.971,1.971,0,0,0-.282-1.025.976.976,0,0,0-.906-.468,1.169,1.169,0,0,0-1.018.409,1.755,1.755,0,0,0-.29,1.04H33.3a5.467,5.467,0,0,1,.475-2.206,4.827,4.827,0,0,1,1.233-1.634,5.519,5.519,0,0,1,1.82-1.018,7,7,0,0,1,2.229-.349,6.443,6.443,0,0,1,1.939.3,5.145,5.145,0,0,1,1.694.9,4.608,4.608,0,0,1,1.189,1.449,4,4,0,0,1,.453,1.924,3.711,3.711,0,0,1-.572,2.11,4.456,4.456,0,0,1-1.671,1.434A4.839,4.839,0,0,1,44.4,68.808a3.894,3.894,0,0,1,.854,2.578,4.423,4.423,0,0,1-.55,2.191,5.249,5.249,0,0,1-1.449,1.657,7.35,7.35,0,0,1-4.249,1.426Z" transform="translate(-18.567 -59.21)" fill="#fff"/><path d="M53.468,71.037a4.506,4.506,0,0,1-1.53-1.263A5.747,5.747,0,0,1,51,67.931a7.74,7.74,0,0,1-.312-2.214A6.543,6.543,0,0,1,51.2,63.1a6.128,6.128,0,0,1,1.411-2.05,6.628,6.628,0,0,1,2.11-1.352,6.97,6.97,0,0,1,2.637-.49,7.35,7.35,0,0,1,2.682.475,6.241,6.241,0,0,1,2.132,1.345,6.066,6.066,0,0,1,1.411,2.087,6.922,6.922,0,0,1,.513,2.7,6.523,6.523,0,0,1-.446,2.4,10.628,10.628,0,0,1-1.144,2.169L58.29,76.66H53.2l6.255-10.029a.862.862,0,0,1,.1-.163,2.031,2.031,0,0,0,.1-.186,1.24,1.24,0,0,0,.119-.409,4.514,4.514,0,0,0,.022-.453,2.416,2.416,0,0,0-.639-1.679,2.124,2.124,0,0,0-1.642-.7,2.391,2.391,0,0,0-1.7.654,2.166,2.166,0,0,0-.7,1.657,2.228,2.228,0,0,0,.691,1.7,2.39,2.39,0,0,0,1.716.654,2.429,2.429,0,0,0,.721-.119L55.6,71.512A4.7,4.7,0,0,1,53.468,71.037Z" transform="translate(-23.159 -59.21)" fill="#fff"/><path d="M76.061,76.66a7.586,7.586,0,0,1-1.449-.141,7.786,7.786,0,0,1-1.456-.431,5.982,5.982,0,0,1-1.315-.735,4.192,4.192,0,0,1-1-1.047,5,5,0,0,1-.654-1.449,14.827,14.827,0,0,1-.3-1.538h4.361a2.083,2.083,0,0,0,.654,1.166,1.9,1.9,0,0,0,1.285.423,1.693,1.693,0,0,0,1.352-.535A2.015,2.015,0,0,0,78,71a1.435,1.435,0,0,0-.394-1.107,2.187,2.187,0,0,0-.981-.49,5.123,5.123,0,0,0-1.233-.1c-.438.015-.817.022-1.144.022V66.148c.312,0,.631-.007.966-.022a3.029,3.029,0,0,0,.921-.178,1.474,1.474,0,0,0,.691-.505,1.572,1.572,0,0,0,.267-.981,1.971,1.971,0,0,0-.282-1.025.976.976,0,0,0-.906-.468,1.169,1.169,0,0,0-1.018.409,1.755,1.755,0,0,0-.29,1.04H70.348a5.467,5.467,0,0,1,.475-2.206,4.826,4.826,0,0,1,1.233-1.634,5.519,5.519,0,0,1,1.82-1.018,7,7,0,0,1,2.229-.349,6.443,6.443,0,0,1,1.939.3,5.145,5.145,0,0,1,1.694.9,4.608,4.608,0,0,1,1.189,1.449,4,4,0,0,1,.453,1.924,3.711,3.711,0,0,1-.572,2.11,4.456,4.456,0,0,1-1.671,1.434,4.839,4.839,0,0,1,2.318,1.478,3.894,3.894,0,0,1,.854,2.578,4.423,4.423,0,0,1-.55,2.191,5.249,5.249,0,0,1-1.449,1.657,7.35,7.35,0,0,1-4.249,1.426Z" transform="translate(-28.093 -59.21)" fill="#fff"/></g><g transform="translate(10.125 13.481)"><path d="M75.65,51.137h7.934V38.3Z" transform="translate(-29.577 -22.841)" fill="#fff"/><path d="M37.335,17.49V45.749h-7.2V34.45H20.828v11.3h-7.2V17.49h7.2V28.15h9.308V23.819h-3.8V17.49h11Z" transform="translate(-13.63 -17.49)" fill="#fff"/><path d="M76.646,29.708,67.152,44.967a14.67,14.67,0,0,1-2.333.587,15.3,15.3,0,0,1-2.563.208,14.1,14.1,0,0,1-3.165-.342,13.9,13.9,0,0,1-4.5-1.805,14.572,14.572,0,0,1-3.558-3.105,14.045,14.045,0,0,1-3.2-9.018,13.546,13.546,0,0,1,4.294-10.044,14.619,14.619,0,0,1,4.636-2.9,15.316,15.316,0,0,1,5.653-1.033,14.544,14.544,0,0,1,3.35.394,14.974,14.974,0,0,1,6.047,3,12.906,12.906,0,0,1,2.318,2.451,12.013,12.013,0,0,1,1.85,3.766H68.222A7.067,7.067,0,0,0,65.7,24.508a6.621,6.621,0,0,0-3.469-.921,7.123,7.123,0,0,0-3.031.639,7.38,7.38,0,0,0-2.355,1.716,7.729,7.729,0,0,0-1.523,2.526,8.525,8.525,0,0,0-.55,3.031,9.363,9.363,0,0,0,.527,3.142,8,8,0,0,0,1.486,2.6A7.009,7.009,0,0,0,62.22,39.67a3.608,3.608,0,0,0,.416-.022,3.241,3.241,0,0,1,.379-.022l2.979-4.331H60.645V29.715h16Z" transform="translate(-22.424 -17.495)" fill="#fff"/></g></g></svg>