<svg xmlns="http://www.w3.org/2000/svg" width="45.602" height="56" viewBox="0 0 45.602 56"><path d="M41.135,9.943A12.346,12.346,0,0,0,44.049,1,12.564,12.564,0,0,0,35.8,5.24c-1.811,2.1-3.394,5.446-2.972,8.663C35.969,14.149,39.175,12.309,41.135,9.943Zm7.052,20.818c-.069-7.092,5.783-10.5,6.046-10.669a13.085,13.085,0,0,0-10.24-5.549c-4.36-.446-8.509,2.566-10.72,2.566s-5.623-2.5-9.24-2.44a13.711,13.711,0,0,0-11.589,7.023C7.505,30.258,11.18,42.956,15.991,49.91c2.354,3.4,5.16,7.223,8.84,7.086,3.549-.143,4.886-2.3,9.177-2.3S39.5,57,43.255,56.922c3.817-.069,6.235-3.463,8.566-6.875a31.006,31.006,0,0,0,3.88-7.966,12.366,12.366,0,0,1-7.515-11.32Z" transform="translate(-10.099 -1)" fill="#9fa7b4" fill-rule="evenodd"/></svg>