<?xml version="1.0" encoding="utf-8"?>
<!-- Generator: Adobe Illustrator 23.0.6, SVG Export Plug-In . SVG Version: 6.00 Build 0)  -->
<svg version="1.1" id="Layer_1" xmlns="http://www.w3.org/2000/svg" xmlns:xlink="http://www.w3.org/1999/xlink" x="0px" y="0px"
	 viewBox="0 0 100 100" style="enable-background:new 0 0 100 100;" xml:space="preserve">
<style type="text/css">
	.st0{fill:#1D1D1D;}
</style>
<path id="Shape_5" class="st0" d="M63.08,19.37c3.36-4,5.03-9.16,4.64-14.37c-5.08,0.5-9.78,2.94-13.11,6.81
	c-3.38,3.82-5.08,8.84-4.72,13.93C54.87,26.13,59.97,23.17,63.08,19.37z M74.28,52.83c0.06-6.98,3.69-13.45,9.61-17.14
	c-3.72-5.37-9.75-8.67-16.27-8.91c-6.93-0.71-13.52,4.12-17.04,4.12s-8.93-4.02-14.67-3.92c-7.7,0.23-14.7,4.52-18.4,11.29
	c-7.85,13.77-2,34.17,5.65,45.35c3.74,5.46,8.19,11.61,14.04,11.38c5.63-0.23,7.76-3.69,14.57-3.69s8.73,3.69,14.69,3.57
	c6.06-0.12,9.91-5.56,13.61-11.05c2.65-3.95,4.72-8.27,6.16-12.8C78.97,67.88,74.28,60.72,74.28,52.83L74.28,52.83z"/>
</svg>
