<svg id="Layer_1" data-name="Layer 1" xmlns="http://www.w3.org/2000/svg" xmlns:xlink="http://www.w3.org/1999/xlink"
    viewBox="0 0 100 52">
    <defs>
        <linearGradient id="linear-gradient" x1="8.29079" y1="-910.06817" x2="8.29079" y2="-930.07499"
            gradientTransform="matrix(1, 0, 0, -1, 0, -892)" gradientUnits="userSpaceOnUse">
            <stop offset="0" stop-color="#ffd102" />
            <stop offset="1" stop-color="#ff9401" />
        </linearGradient>
        <linearGradient id="linear-gradient-2" x1="25.25579" y1="-915.8994" x2="25.25579" y2="-930.0682"
            xlink:href="#linear-gradient" />
        <linearGradient id="linear-gradient-3" x1="39.69509" y1="-910.96617" x2="39.69509" y2="-930.06827"
            xlink:href="#linear-gradient" />
    </defs>
    <title>logo_frontend_new2</title>
    <path
        d="M16.56328,30.75551q0,3.9795-2.06718,5.8656a5.76328,5.76328,0,0,1-4.05682,1.44706,4.43372,4.43372,0,0,1-4.28942-2.60984H6.04652v2.29975H0V18.06817H6.51163V25.9493A4.72239,4.72239,0,0,1,10.646,23.908a5.55989,5.55989,0,0,1,4.031,1.52453A7.04088,7.04088,0,0,1,16.56328,30.75551Zm-6.97674.05166a5.30385,5.30385,0,0,0-.2584-1.80879,1.41943,1.41943,0,0,0-2.739-.02582,5.25325,5.25325,0,0,0-.2584,1.83461,5.2926,5.2926,0,0,0,.2584,1.80878,1.41942,1.41942,0,0,0,2.739.02587A5.26088,5.26088,0,0,0,9.58654,30.80717Z"
        style="fill:url(#linear-gradient)" />
    <path
        d="M32.99735,32.56431H23.95343a1.7979,1.7979,0,0,0,.62018,1.42118A4.10645,4.10645,0,0,0,27.261,34.709a11.45382,11.45382,0,0,0,2.248-.20671,19.11017,19.11017,0,0,0,2.50646-.72356V37.293a21.88216,21.88216,0,0,1-3.07491.58139,25.68549,25.68549,0,0,1-3.02323.19381q-4.72869,0-6.84754-2.584a7.19962,7.19962,0,0,1-1.55038-4.72867,6.23559,6.23559,0,0,1,2.17051-4.98711A8.39079,8.39079,0,0,1,25.3488,23.908a8.32271,8.32271,0,0,1,5.06458,1.447q2.5836,1.91256,2.584,6.04653ZM27.3126,29.79944v-.23258a2.863,2.863,0,0,0-.56844-1.938,1.42793,1.42793,0,0,0-1.11114-.49094,1.47648,1.47648,0,0,0-1.00773.36174,2.61964,2.61964,0,0,0-.67186,2.04135v.25839Z"
        style="fill:url(#linear-gradient-2)" />
    <path
        d="M45.57366,37.37048a11.11893,11.11893,0,0,1-1.49874.43929,12.29137,12.29137,0,0,1-2.55811.2584q-3.23047,0-4.49614-1.73573a5.96229,5.96229,0,0,1-.90439-3.54931V28.094H33.81652V24.218h2.29976V20.90651l6.51159-1.94034v5.2519h2.94579v3.876H42.62787v3.84207a2.05669,2.05669,0,0,0,.37477,1.33682,1.37183,1.37183,0,0,0,1.124.45422,3.82965,3.82965,0,0,0,.60722-.05169,6.82285,6.82285,0,0,0,.83979-.20671Z"
        style="fill:url(#linear-gradient-3)" />
    <path
        d="M60.95276,32.74517a4.34355,4.34355,0,0,1-1.55039,3.43673q-2.17052,1.88649-6.925,1.88627a23.44217,23.44217,0,0,1-2.6357-.15506,25.21341,25.21341,0,0,1-3.15242-.59431V33.10692a21.71152,21.71152,0,0,0,2.37722.55558,12.75881,12.75881,0,0,0,2.19638.21962,3.5824,3.5824,0,0,0,2.40314-.646,1.27221,1.27221,0,0,0,.46506-.9819,1.454,1.454,0,0,0-.74928-1.34368,4.1622,4.1622,0,0,0-2.09309-.43928H48.96309v-3.7209h2.29975a3.49264,3.49264,0,0,0,2.00259-.4522,1.30311,1.30311,0,0,0,.63312-1.07236,1.51633,1.51633,0,0,0-.491-1.18862,3.793,3.793,0,0,0-2.4806-.646,10.92225,10.92225,0,0,0-2.01554.1938,18.56719,18.56719,0,0,0-2.04136.50384v-4.031a22.884,22.884,0,0,1,2.88118-.52966,22.54385,22.54385,0,0,1,2.59694-.168q4.599,0,6.74416,1.783a4.15775,4.15775,0,0,1,1.602,3.30748A4.00378,4.00378,0,0,1,59.79,27.00876a4.45085,4.45085,0,0,1-2.584,1.52452,4.7309,4.7309,0,0,1,2.77778,1.4987A4.04688,4.04688,0,0,1,60.95276,32.74517Z"
        style="fill:#fff" class="invert" />
    <path
        d="M76.17882,32.74517a4.34355,4.34355,0,0,1-1.55039,3.43673q-2.17053,1.88649-6.925,1.88627a23.44227,23.44227,0,0,1-2.63569-.15506,25.21341,25.21341,0,0,1-3.15242-.59431V33.10692a21.71152,21.71152,0,0,0,2.37722.55558,12.75782,12.75782,0,0,0,2.19638.21962,3.58236,3.58236,0,0,0,2.40313-.646,1.27216,1.27216,0,0,0,.46506-.9819,1.454,1.454,0,0,0-.74929-1.34368,4.16216,4.16216,0,0,0-2.09308-.43928H64.18916v-3.7209h2.29975a3.49268,3.49268,0,0,0,2.00258-.4522,1.3031,1.3031,0,0,0,.63313-1.07236,1.5163,1.5163,0,0,0-.491-1.18862,3.793,3.793,0,0,0-2.48059-.646,10.92236,10.92236,0,0,0-2.01555.1938,18.567,18.567,0,0,0-2.04135.50384v-4.031a22.88357,22.88357,0,0,1,2.88117-.52966,22.544,22.544,0,0,1,2.59693-.168q4.59906,0,6.74418,1.783a4.15782,4.15782,0,0,1,1.602,3.30748A4.00368,4.00368,0,0,1,75.016,27.0088a4.45085,4.45085,0,0,1-2.584,1.52452,4.731,4.731,0,0,1,2.77778,1.4987A4.04693,4.04693,0,0,1,76.17882,32.74517Z"
        style="fill:#fff" class="invert" />
    <path
        d="M94.25111,32.71932A4.36257,4.36257,0,0,1,92.6749,36.156q-2.19663,1.91256-6.97674,1.91216-4.80622,0-6.97674-1.8863a4.389,4.389,0,0,1-1.57621-3.46255,3.69779,3.69779,0,0,1,1.18861-2.8682,5.27011,5.27011,0,0,1,2.50643-1.21447v-.10338a4.1688,4.1688,0,0,1-2.39018-1.53747,4.28248,4.28248,0,0,1-.86564-2.64857A4.09736,4.09736,0,0,1,79.768,20.69091a11.35042,11.35042,0,0,1,5.9302-1.33076A11.30787,11.30787,0,0,1,91.538,20.6263,4.17959,4.17959,0,0,1,93.812,24.34721a4.261,4.261,0,0,1-.87857,2.63566,4.19988,4.19988,0,0,1-2.37722,1.55039v.10337a4.59211,4.59211,0,0,1,2.6744,1.45994A3.84107,3.84107,0,0,1,94.25111,32.71932Zm-6.51159-.77515a2.49719,2.49719,0,0,0-.55558-1.66668,1.845,1.845,0,0,0-1.48578-.6589,1.87055,1.87055,0,0,0-1.47283.646,2.4485,2.4485,0,0,0-.56853,1.67958,2.49541,2.49541,0,0,0,.55557,1.66666,1.84458,1.84458,0,0,0,1.48579.65892,1.87055,1.87055,0,0,0,1.47283-.646A2.44941,2.44941,0,0,0,87.73952,31.94417Zm-.18093-7.05425a2.00876,2.00876,0,0,0-.56845-1.52457,1.84034,1.84034,0,0,0-2.59693-.01292,2.02437,2.02437,0,0,0-.55549,1.53748,2.00661,2.00661,0,0,0,.56845,1.52453,1.84032,1.84032,0,0,0,2.59694.013,2.0255,2.0255,0,0,0,.55548-1.53755Z"
        style="fill:#fff" class="invert" />
</svg>