<?xml version="1.0" encoding="utf-8"?>
<!-- Generator: Adobe Illustrator 23.0.6, SVG Export Plug-In . SVG Version: 6.00 Build 0)  -->
<svg version="1.1" id="Layer_1" xmlns="http://www.w3.org/2000/svg" xmlns:xlink="http://www.w3.org/1999/xlink" x="0px" y="0px"
	 viewBox="0 0 580 100" style="enable-background:new 0 0 580 100;" xml:space="preserve">
<style type="text/css">
	.st0{fill:url(#路径_425_1_);}
	.st1{fill:url(#路径_426_1_);}
	.st2{fill:url(#路径_427_1_);}
	.st3{fill:url(#路径_428_1_);}
	.st4{fill:url(#路径_429_1_);}
	.st5{fill:url(#路径_430_1_);}
	.st6{fill:url(#路径_431_1_);}
	.st7{fill:url(#路径_432_1_);}
	.st8{fill:url(#路径_433_1_);}
	.st9{fill:url(#路径_434_1_);}
	.st10{fill:url(#路径_435_1_);}
	.st11{fill:url(#路径_436_1_);}
	.st12{fill:url(#路径_437_1_);}
	.st13{fill:url(#路径_438_1_);}
	.st14{fill:url(#路径_439_1_);}
	.st15{fill:url(#路径_440_1_);}
	.st16{fill:url(#路径_441_1_);}
	.st17{fill:url(#路径_442_1_);}
	.st18{fill:url(#路径_443_1_);}
	.st19{fill:url(#路径_444_1_);}
	.st20{fill:url(#路径_445_1_);}
</style>
<g>
	
		<linearGradient id="路径_425_1_" gradientUnits="userSpaceOnUse" x1="191.1403" y1="91.2203" x2="191.1403" y2="90.2203" gradientTransform="matrix(37.2492 0 0 -38.124 -6947.0581 3482.4214)">
		<stop  offset="0" style="stop-color:#FCCB2C"/>
		<stop  offset="1" style="stop-color:#E98707"/>
	</linearGradient>
	<path id="路径_425" class="st0" d="M174.9,37.28l-4.69,2.59l-1.5-2.99c-4.08,1.39-8.08,3.01-11.98,4.86l-2.59-4.09
		c0.93-1.17,1.39-2.64,1.29-4.13V4.74h17.81v21.77h-4.41C170.97,30.06,172.99,33.65,174.9,37.28z M168.06,9.76h-7.37v3.6h7.37V9.76z
		 M168.06,21.5v-3.6h-7.37v3.6H168.06z M164.46,28.54l3.68-2.02h-7.45v8.3l5.91-2.1L164.46,28.54z M175.34,5.71h16.02v25.21
		c0.1,1.5-0.28,3-1.09,4.27c-0.72,0.97-1.86,1.55-3.07,1.57c-1.32,0.07-3.19,0.1-5.63,0.07c-0.24-2.16-0.51-3.97-0.81-5.42
		c1.55,0.16,2.83,0.24,3.85,0.24c1,0,1.5-0.59,1.5-1.78V10.89h-5.5v31.97h-5.27V5.71z"/>
	
		<linearGradient id="路径_426_1_" gradientUnits="userSpaceOnUse" x1="191.0192" y1="91.1975" x2="191.0192" y2="90.1975" gradientTransform="matrix(40.218 0 0 -38.035 -7465.7026 3474.0029)">
		<stop  offset="0" style="stop-color:#FCCB2C"/>
		<stop  offset="1" style="stop-color:#E98707"/>
	</linearGradient>
	<path id="路径_426" class="st1" d="M197.73,38.45l-1.13-5.42c1.66-0.31,3.24-0.63,4.73-0.95v-9.33h-3.6v-4.82h3.6v-7.65h-4.01
		v-4.9h13.35v4.9h-4.09v7.65h3.8v4.82h-3.8v8.13c1.6-0.39,3.09-0.78,4.45-1.17c-0.11,1.72-0.12,3.45-0.04,5.18
		C206.95,35.89,202.53,37.08,197.73,38.45z M211.49,16.64h24.52v5.34h-6.52v13.2c0,1.24,0.45,1.86,1.34,1.86
		c0.46,0.01,0.89-0.24,1.1-0.65c0.25-0.43,0.48-2.64,0.68-6.64c1.81,0.7,3.21,1.19,4.21,1.46c-0.47,5.37-1.19,8.55-2.15,9.53
		c-0.9,0.96-2.16,1.5-3.48,1.48h-2.2c-3.17,0-4.75-1.74-4.76-5.22V21.98h-3.54c0.2,10.4-3.02,17.52-9.65,21.37
		c-1.12-1.65-2.39-3.2-3.8-4.61c5.68-3.09,8.45-8.67,8.32-16.75h-4.07V16.64z M213.52,5.31h20.48v5.34h-20.48L213.52,5.31z"/>
	
		<linearGradient id="路径_427_1_" gradientUnits="userSpaceOnUse" x1="191.1011" y1="91.5993" x2="191.1011" y2="90.5993" gradientTransform="matrix(38.16 0 0 -39.661 -7032.0254 3636.3276)">
		<stop  offset="0" style="stop-color:#FCCB2C"/>
		<stop  offset="1" style="stop-color:#E98707"/>
	</linearGradient>
	<path id="路径_427" class="st2" d="M241.32,9.36h5.83V3.41h4.61v5.95h5.75v20.72c1.8-2.18,3.2-4.66,4.13-7.32h-3.16v-4.82
		l10.12-7.81h-10.12V5.27h18.25v4.65l-9.79,7.97h12.54c0,3.39-0.04,6.62-0.11,9.69s-0.17,5.65-0.27,7.74
		c0.01,1.71-0.48,3.38-1.41,4.82c-0.71,1.05-1.8,1.78-3.04,2.03c-1.84,0.28-3.71,0.42-5.58,0.4c-0.34-1.8-0.8-3.57-1.38-5.3
		c-1.23,2.05-2.67,3.96-4.29,5.71c-1.62-1.32-3.14-2.48-4.57-3.48c4.91-4.43,8.29-10.29,9.67-16.75h-2.45
		c-1.38,5.62-4.32,10.74-8.48,14.77c-0.97-1.29-2.09-2.66-3.36-4.09c0.55-0.49,1.08-0.98,1.58-1.5h-4.05v11.13h-4.61V31.94h-5.83
		L241.32,9.36z M245.12,18.66h2.02V13.4h-2.02V18.66z M245.12,27.89h2.02v-5.34h-2.02V27.89z M253.78,13.4h-2.02v5.26h2.02V13.4z
		 M253.78,27.89v-5.34h-2.02v5.34L253.78,27.89z M274.21,22.75h-1.36c-0.78,5.07-2.5,9.95-5.06,14.39c1.29,0.09,2.25,0.14,2.85,0.14
		c1.55,0,2.52-0.51,2.9-1.54S274.16,30.38,274.21,22.75L274.21,22.75z"/>
	
		<linearGradient id="路径_428_1_" gradientUnits="userSpaceOnUse" x1="191.022" y1="91.6934" x2="191.022" y2="90.6934" gradientTransform="matrix(40.143 0 0 -40.062 -7364.835 3676.7876)">
		<stop  offset="0" style="stop-color:#FCCB2C"/>
		<stop  offset="1" style="stop-color:#E98707"/>
	</linearGradient>
	<path id="路径_428" class="st3" d="M283.29,22.71c0.84-4.1,1.4-7.55,1.7-10.36l3.52,0.36c-0.38,3.24-0.94,6.79-1.7,10.64
		C285.63,23.11,284.45,22.9,283.29,22.71z M295.84,22.55h9.1c0.16-2.04,0.29-4.69,0.39-7.97h-7.28l2,3.24l-3.8,2.06l-2.18-4.77
		v28.17h-5.26V3.37h5.26v8.46l1.7-0.93l2.27,3.64v-5.1h7.41l0.08-5.99h5.26l-0.08,5.99h9.92v13.11h2.83v5.14h-11.39
		c2.25,4.81,6.36,8.49,11.39,10.2c-0.89,1.35-1.98,3.12-3.28,5.3c-5.38-2.16-9.3-6.35-11.76-12.59c-1.43,4.96-4.89,9.24-10.38,12.83
		c-1.21-1.89-2.44-3.63-3.68-5.22c5.04-2.62,8.29-6.12,9.73-10.52h-8.23L295.84,22.55z M315.42,14.57h-4.82
		c0.03,2.13-0.08,4.79-0.32,7.97h5.14L315.42,14.57z"/>
	
		<linearGradient id="路径_429_1_" gradientUnits="userSpaceOnUse" x1="191.0376" y1="91.6856" x2="191.0376" y2="90.6856" gradientTransform="matrix(39.737 0 0 -40.0284 -7243.936 3672.9111)">
		<stop  offset="0" style="stop-color:#FCCB2C"/>
		<stop  offset="1" style="stop-color:#E98707"/>
	</linearGradient>
	<path id="路径_429" class="st4" d="M327.45,31.17h18.45v-0.53l8.09-2.18h-23.63v-4.21h32.78v4.53l-7.61,2.39h11.65v4.37h-15.78
		v1.94c0.12,1.51-0.44,3-1.52,4.07c-1.27,0.97-2.85,1.45-4.44,1.35c-1.95,0.01-4.28,0.01-6.99,0.01c-0.3-1.71-0.71-3.4-1.21-5.06
		c2.04,0.11,3.98,0.16,5.83,0.16c0.79,0.09,1.58-0.11,2.23-0.57c0.45-0.53,0.67-1.21,0.6-1.9h-18.46V31.17z M327.77,6.52h16.47
		c-0.35-0.86-0.73-1.75-1.13-2.67l6.51-0.97c0.51,1.27,0.97,2.48,1.38,3.64h15.86v4.29h-39.09V6.52z M332.1,22.51v-9.96h29.99v9.96
		L332.1,22.51z M356.67,18.62v-2.18h-19.14v2.18H356.67z"/>
	
		<linearGradient id="路径_430_1_" gradientUnits="userSpaceOnUse" x1="191.0407" y1="91.3826" x2="191.0407" y2="90.3826" gradientTransform="matrix(39.657 0 0 -38.767 -7185.0713 3547.0859)">
		<stop  offset="0" style="stop-color:#FCCB2C"/>
		<stop  offset="1" style="stop-color:#E98707"/>
	</linearGradient>
	<path id="路径_430" class="st5" d="M405.52,23.6v4.29c-2.21,3.01-4.97,5.58-8.13,7.57c4.41,1.11,8.93,1.77,13.48,1.94
		c-0.46,1.13-1.19,3.02-2.18,5.66c-6.15-0.46-12.2-1.9-17.89-4.29c-5.48,2.18-11.2,3.67-17.04,4.45c-0.76-1.62-1.61-3.41-2.55-5.38
		c4.5-0.36,8.96-1.14,13.32-2.35c-2.29-1.45-4.43-3.12-6.4-4.98l2.22-2.02h-3.92v-4.9L405.52,23.6z M372.01,22.79v-7.37h5.06
		c-0.87-1.48-1.58-2.64-2.15-3.48l5.99-0.73c0.65,1.35,1.33,2.75,2.06,4.21h5.79c-0.76-1.32-1.52-2.63-2.31-3.93l6.23-0.81
		c0.78,1.78,1.44,3.36,1.98,4.73h3.6c0.86-1.35,1.94-3.02,3.24-5.02l5.75,1.29c-0.7,0.92-1.63,2.16-2.79,3.72h5.06v7.37h-5.46v-2.35
		h-26.59v2.35L372.01,22.79z M407.1,4.46c0,0.03,0.28,1.67,0.85,4.94c-9.82,0.51-21.33,0.95-34.52,1.3
		c-0.19-1.97-0.41-3.67-0.65-5.1C387.43,5.43,398.87,5.05,407.1,4.46L407.1,4.46z M390.91,33.07c2.6-1.21,5.03-2.75,7.24-4.57
		h-14.45C385.89,30.33,388.32,31.87,390.91,33.07L390.91,33.07z"/>
	
		<linearGradient id="路径_431_1_" gradientUnits="userSpaceOnUse" x1="196.8479" y1="67.1271" x2="196.8479" y2="66.1271" gradientTransform="matrix(8.315 0 0 -11.007 -1218.1835 771.1264)">
		<stop  offset="0" style="stop-color:#FCCB2C"/>
		<stop  offset="1" style="stop-color:#E98707"/>
	</linearGradient>
	<path id="路径_431" class="st6" d="M422.77,32.26l-3.26,11.01h-5.06l2.27-11.01H422.77z"/>
	
		<linearGradient id="路径_432_1_" gradientUnits="userSpaceOnUse" x1="191.0711" y1="91.7397" x2="191.0711" y2="90.7397" gradientTransform="matrix(38.888 0 0 -40.262 -7408.4321 3750.4805)">
		<stop  offset="0" style="stop-color:#FCCB2C"/>
		<stop  offset="1" style="stop-color:#E98707"/>
	</linearGradient>
	<path id="路径_432" class="st7" d="M11.48,73.28c2.44,2.59,3.75,6.04,3.64,9.59c0.05,1.33-0.21,2.64-0.75,3.85
		c-0.43,0.93-1.17,1.68-2.1,2.1c-1.41,0.48-2.9,0.68-4.39,0.6c-0.15-1.17-0.35-2.42-0.61-3.72v11.05H2.5v-37.8h12.06v4.45
		L11.48,73.28z M7.48,73.81l2.87-10.24H7.27v20.88c0.58,0.07,1.16,0.11,1.74,0.12c1.4,0,2.1-0.85,2.1-2.55
		C11.12,79.49,9.9,76.75,7.48,73.81z M29.05,90.24h-4.69V74.66c-0.58,0.65-1.19,1.27-1.82,1.86c-0.55-0.8-1.08-1.52-1.58-2.19v13.92
		c0.68,0.95,1.64,1.66,2.75,2.03c1.19,0.47,2.45,0.75,3.73,0.83c1.23,0.08,3.27,0.11,6.1,0.11c2.93,0,5.54-0.05,7.85-0.14
		c-0.57,1.51-1.12,3.22-1.66,5.14c-8.3,0-13.45-0.18-15.48-0.55c-2.23-0.49-4.23-1.74-5.65-3.54c-1.08,1.29-2.43,2.95-4.05,4.98
		l-3.36-4.45c1.78-1.83,3.48-3.49,5.1-4.98V75.43h-2.96v-4.77h7.61v0.93c1.84-2,3.38-4.25,4.59-6.68h-3.13v-4.13h4.76
		c0.4-1.29,0.7-2.6,0.91-3.93l4.74,0.65c-0.24,1.12-0.52,2.21-0.83,3.28h8.72v4.13H30.5c-0.35,0.86-0.74,1.69-1.17,2.51h10.12v17.44
		c0.08,1.22-0.22,2.44-0.86,3.49c-0.58,0.79-1.46,1.32-2.44,1.46c-1.64,0.22-3.3,0.31-4.96,0.27c-0.27-1.54-0.62-3.07-1.05-4.57
		c1.16,0.11,2.14,0.16,2.95,0.16c1.11,0,1.66-0.62,1.66-1.86v-0.53h-5.71L29.05,90.24z M18.97,57.18c1.13,2.72,2.09,5.37,2.87,7.93
		l-4.37,1.5c-0.84-2.89-1.74-5.6-2.71-8.13L18.97,57.18z M34.75,71.46h-5.71v2.35h5.71V71.46z M29.05,79.72h5.71v-2.35h-5.71V79.72z
		"/>
	
		<linearGradient id="路径_433_1_" gradientUnits="userSpaceOnUse" x1="191.096" y1="91.5118" x2="191.096" y2="90.5118" gradientTransform="matrix(38.283 0 0 -39.295 -7250.2939 3653.1348)">
		<stop  offset="0" style="stop-color:#FCCB2C"/>
		<stop  offset="1" style="stop-color:#E98707"/>
	</linearGradient>
	<path id="路径_433" class="st8" d="M46.29,94.65V59.73h15.94v34.68h-5.34v-2.79h-5.26v3.04L46.29,94.65z M56.89,65.07h-5.26v8.01
		h5.26V65.07z M51.63,86.27h5.26v-8.01h-5.26V86.27z M66.97,71.54c1.83,2.29,4.26,5.56,7.28,9.79l-4.9,3.2
		c-2.46-4.07-4.66-7.47-6.6-10.2L66.97,71.54z M63.41,63.98h11.98v-6.8h5.79v6.8h3.4v5.38h-3.4v20.03c0.13,1.84-0.41,3.67-1.52,5.14
		c-1.07,1.19-2.6,1.86-4.2,1.84c-1.79,0.07-4.44,0.1-7.96,0.1c-0.32-2-0.78-3.97-1.38-5.91c3.83,0.11,5.93,0.16,6.31,0.16
		c1.97,0,2.95-1.03,2.95-3.08V69.36H63.41V63.98z"/>
	
		<linearGradient id="路径_434_1_" gradientUnits="userSpaceOnUse" x1="191.0711" y1="91.7397" x2="191.0711" y2="90.7397" gradientTransform="matrix(38.889 0 0 -40.262 -7321.5996 3750.4805)">
		<stop  offset="0" style="stop-color:#FCCB2C"/>
		<stop  offset="1" style="stop-color:#E98707"/>
	</linearGradient>
	<path id="路径_434" class="st9" d="M98.5,73.28c2.44,2.59,3.75,6.04,3.64,9.59c0.05,1.33-0.21,2.64-0.75,3.85
		c-0.43,0.93-1.17,1.68-2.11,2.1c-1.41,0.48-2.9,0.68-4.39,0.6c-0.15-1.17-0.35-2.42-0.61-3.72v11.05h-4.78v-37.8h12.06v4.45
		L98.5,73.28z M94.5,73.81l2.87-10.24h-3.08v20.88c0.58,0.07,1.16,0.11,1.74,0.12c1.4,0,2.1-0.85,2.1-2.55
		C98.14,79.49,96.92,76.75,94.5,73.81z M116.07,90.24h-4.69V74.66c-0.58,0.65-1.19,1.27-1.82,1.86c-0.55-0.8-1.08-1.52-1.58-2.19
		v13.92c0.68,0.95,1.64,1.66,2.75,2.03c1.19,0.47,2.45,0.75,3.73,0.83c1.23,0.08,3.27,0.11,6.1,0.11c2.93,0,5.54-0.05,7.85-0.14
		c-0.57,1.51-1.12,3.22-1.66,5.14c-8.3,0-13.45-0.18-15.48-0.55c-2.23-0.49-4.23-1.74-5.64-3.54c-1.08,1.29-2.43,2.95-4.05,4.98
		l-3.36-4.45c1.78-1.83,3.48-3.49,5.1-4.98V75.43h-2.96v-4.77h7.61v0.93c1.84-2,3.38-4.25,4.59-6.68h-3.14v-4.13h4.75
		c0.4-1.29,0.7-2.6,0.91-3.93l4.74,0.65c-0.24,1.12-0.52,2.21-0.83,3.28h8.72v4.13h-10.2c-0.35,0.86-0.74,1.69-1.17,2.51h10.12
		v17.44c0.08,1.22-0.22,2.44-0.86,3.49c-0.58,0.79-1.46,1.32-2.44,1.46c-1.64,0.22-3.3,0.31-4.96,0.27
		c-0.27-1.54-0.62-3.07-1.05-4.57c1.16,0.11,2.14,0.16,2.95,0.16c1.11,0,1.66-0.62,1.66-1.86v-0.53h-5.71L116.07,90.24z
		 M105.99,57.18c1.13,2.72,2.09,5.37,2.87,7.93l-4.37,1.5c-0.84-2.89-1.74-5.6-2.71-8.13L105.99,57.18z M121.77,71.46h-5.71v2.35
		h5.71V71.46z M116.07,79.72h5.71v-2.35h-5.71V79.72z"/>
	
		<linearGradient id="路径_435_1_" gradientUnits="userSpaceOnUse" x1="191.0175" y1="91.4312" x2="191.0175" y2="90.4312" gradientTransform="matrix(40.262 0 0 -38.9639 -7539.2466 3619.3733)">
		<stop  offset="0" style="stop-color:#FCCB2C"/>
		<stop  offset="1" style="stop-color:#E98707"/>
	</linearGradient>
	<path id="路径_435" class="st10" d="M154.76,56.86h5.38v8.42l9.43-2.18l-0.18,7.63c-0.16,6.22-0.41,9.71-0.76,10.46
		c-0.32,0.72-0.79,1.37-1.37,1.91c-0.57,0.52-2.43,0.92-5.59,1.2c-0.38-1.78-0.82-3.57-1.34-5.38c0.59,0.05,1.13,0.08,1.6,0.08
		c0.55,0.04,1.09-0.03,1.61-0.21c0.24-0.13,0.42-0.35,0.51-0.61c0.15-0.84,0.23-1.69,0.23-2.54c0.07-1.43,0.1-3.49,0.1-6.19
		l-4.25,1.05V88.7h-5.38V71.83L151,72.76v16.02c0,1.51,0.89,2.27,2.67,2.26h7.93c0.84,0.03,1.68-0.11,2.47-0.4
		c0.62-0.24,1.09-0.76,1.28-1.4c0.37-1.58,0.65-3.19,0.83-4.8c2.18,0.94,4.01,1.7,5.46,2.26c-0.37,2.17-1,4.29-1.87,6.31
		c-0.5,0.87-1.24,1.59-2.13,2.06c-0.98,0.5-2.07,0.76-3.17,0.73h-11.94c-4.61,0-6.92-2.09-6.92-6.27V74.07l-2.71,0.67l-0.3-1.34
		h-1.84v12.24l3.52-1.11c-0.08,1.13-0.08,3.03,0,5.71l-11.86,4.17l-1.05-6.03l4.01-1.13V73.41h-3.16v-5.55h3.16V56.94h5.38v10.92
		h2.35v1.36l2.51-0.59v-8.17H151v6.94l3.76-0.87L154.76,56.86z"/>
	
		<linearGradient id="路径_436_1_" gradientUnits="userSpaceOnUse" x1="191.0204" y1="91.6939" x2="191.0204" y2="90.6939" gradientTransform="matrix(40.185 0 0 -40.064 -7481.1475 3730.6006)">
		<stop  offset="0" style="stop-color:#FCCB2C"/>
		<stop  offset="1" style="stop-color:#E98707"/>
	</linearGradient>
	<path id="路径_436" class="st11" d="M175.49,64.1h4.37v-7.12h5.22v7.12h3.89v5.26h-3.89v6.09l3.64-0.79
		c-0.13,2.32-0.19,4.09-0.16,5.3l-3.48,0.83v10.58c0.03,1.31-0.34,2.6-1.06,3.7c-0.71,1.05-3.16,1.6-7.35,1.64
		c-0.27-1.35-0.73-3.18-1.38-5.5c0.88,0.07,1.65,0.1,2.33,0.1c0.64,0.08,1.28-0.06,1.83-0.4c0.33-0.45,0.48-1.01,0.41-1.57v-7.26
		l-4.37,1.11l-0.57-5.79l4.94-0.91v-7.14h-4.37V64.1z M212.67,73.57v4.9c-1.67,3.48-3.96,6.64-6.76,9.31c2.91,1.56,6,2.78,9.19,3.64
		c-1.73,2.16-3.06,3.94-4.01,5.34c-3.49-1.31-6.81-3.07-9.85-5.22c-3.54,2.34-7.39,4.2-11.43,5.5c-0.76-1.21-1.94-2.93-3.56-5.14
		c3.63-0.93,7.13-2.28,10.44-4.05c-2.1-1.98-3.99-4.16-5.66-6.51l4.37-2.67c1.65,2.3,3.63,4.34,5.87,6.07
		c2.08-1.71,3.81-3.79,5.1-6.15h-16.31v-5.02L212.67,73.57z M214.94,66.45c-0.51,2.19-0.85,3.85-1.01,4.98l-5.08,0.04
		c-1.18,0.09-2.35-0.3-3.24-1.09c-0.78-0.91-1.16-2.09-1.07-3.28v-3.85h-6.51c0.22,4.06-1.8,7.91-5.26,10.04
		c-1.29-1.11-2.72-2.27-4.29-3.48c1.49-0.9,2.71-2.19,3.52-3.73c0.66-1.38,0.93-3.97,0.81-7.76h17.04v6.31c0,1,0.35,1.57,1.04,1.71
		C212.23,66.5,213.59,66.54,214.94,66.45L214.94,66.45z"/>
	
		<linearGradient id="路径_437_1_" gradientUnits="userSpaceOnUse" x1="191.0125" y1="91.6468" x2="191.0125" y2="90.6468" gradientTransform="matrix(40.395 0 0 -39.862 -7477.4009 3709.9565)">
		<stop  offset="0" style="stop-color:#FCCB2C"/>
		<stop  offset="1" style="stop-color:#E98707"/>
	</linearGradient>
	<path id="路径_437" class="st12" d="M221.67,68.02c3.02,2.21,5.68,4.28,7.97,6.19l-3.76,4.17c-2.46-2.18-4.96-4.32-7.53-6.39
		L221.67,68.02z M223.49,79.44c1.77,0.72,3.58,1.32,5.42,1.82c-1.43,5.99-2.86,11.1-4.29,15.34c-1.94-0.65-3.8-1.19-5.59-1.62
		C220.5,90.82,221.98,85.64,223.49,79.44L223.49,79.44z M223.17,57.99c2.02,1.51,4.38,3.41,7.08,5.71l-3.72,3.96
		c-2.37-2.24-4.61-4.26-6.72-6.07L223.17,57.99z M228.95,89.67h12.55v-8.9h-9.39v-5.38h9.39v-6.84h-10.6v-5.38h11.37
		c-0.76-1.54-1.58-3.16-2.47-4.85l5.79-1.58c1.24,2.82,2.12,4.96,2.63,6.43h9.07v5.38h-9.96v6.84h8.82v5.38h-8.82v8.9h11.41v5.38
		h-29.79L228.95,89.67z"/>
	
		<linearGradient id="路径_438_1_" gradientUnits="userSpaceOnUse" x1="191.0236" y1="91.0597" x2="191.0236" y2="90.0597" gradientTransform="matrix(40.1 0 0 -37.508 -7378.0181 3474.802)">
		<stop  offset="0" style="stop-color:#FCCB2C"/>
		<stop  offset="1" style="stop-color:#E98707"/>
	</linearGradient>
	<path id="路径_438" class="st13" d="M296.42,83.6c2.51,0.94,4.4,1.62,5.67,2.02c-0.35,2.33-0.91,4.62-1.68,6.85
		c-0.44,1.18-1.31,2.15-2.44,2.71c-1.36,0.58-2.82,0.86-4.3,0.8h-4.94c-4.37,0-6.55-1.97-6.55-5.91v-10.7
		c-2,7.05-7.11,12.88-15.34,17.46c-1.38-1.38-2.99-2.9-4.86-4.57c8.71-4.75,13.71-10.05,14.99-15.9h-14.63v-5.3h15.62
		c0.24-1.91,0.41-4.06,0.51-6.43h-13.54v-5.3h34.24v5.3h-14.65c-0.13,2.28-0.34,4.42-0.61,6.43h17.77v5.3h-18.72
		c-0.2,0.92-0.43,1.79-0.69,2.63h5.77v8.9c0,1.92,0.98,2.87,2.95,2.87h1.25c0.68,0,1.35-0.12,1.99-0.34
		c0.64-0.23,1.1-0.91,1.39-2.04C295.99,86.81,296.25,85.21,296.42,83.6z"/>
	
		<linearGradient id="路径_439_1_" gradientUnits="userSpaceOnUse" x1="191.0859" y1="91.2508" x2="191.0859" y2="90.2508" gradientTransform="matrix(38.526 0 0 -38.243 -7037.061 3548.3386)">
		<stop  offset="0" style="stop-color:#FCCB2C"/>
		<stop  offset="1" style="stop-color:#E98707"/>
	</linearGradient>
	<path id="路径_439" class="st14" d="M309.18,58.64h32.98v12.42h-27.23c-0.01,0.87-0.02,1.7-0.02,2.51h29.08l-0.26,16.21
		c0.08,1.55-0.24,3.09-0.93,4.47c-0.52,0.86-1.27,1.55-2.17,1.98c-0.87,0.4-4.27,0.61-10.19,0.61c-0.26-1.77-0.61-3.53-1.05-5.26
		c2.59,0.11,4.46,0.16,5.6,0.16c0.68,0.04,1.36-0.12,1.94-0.48c0.41-0.27,0.71-0.68,0.85-1.15c0.22-2.42,0.31-4.85,0.28-7.27
		l0.06-4.61h-23.32c-0.01,7.93-1.64,14.15-4.88,18.66c-1.75-2-3.24-3.62-4.45-4.86c1.43-2.38,2.41-5,2.89-7.74
		c0.62-4.19,0.9-8.42,0.83-12.66V58.64z M336.41,66.41v-3.12h-21.49v3.12H336.41z M333.94,80.37v10.11h-11.49v1.94h-5.18V80.36
		L333.94,80.37z M322.45,84.05v2.75h6.31v-2.75H322.45z"/>
	
		<linearGradient id="路径_440_1_" gradientUnits="userSpaceOnUse" x1="191.0777" y1="91.3018" x2="191.0777" y2="90.3018" gradientTransform="matrix(38.727 0 0 -38.444 -7030.04 3568.6401)">
		<stop  offset="0" style="stop-color:#FCCB2C"/>
		<stop  offset="1" style="stop-color:#E98707"/>
	</linearGradient>
	<path id="路径_440" class="st15" d="M360.66,73.45c2.62,2.8,4.05,6.52,3.97,10.36c0,4.29-2.63,6.43-7.89,6.43
		c-0.19-2.11-0.54-4.21-1.05-6.27c0.45,0.09,0.9,0.14,1.36,0.14c1.55,0,2.33-0.63,2.33-1.88c0-2.72-1.2-5.45-3.6-8.17
		c1.13-3.56,2.15-7.14,3.04-10.72h-3.32V97h-5.02V58.64h13.6v3.88C363.09,65.84,361.95,69.48,360.66,73.45z M389.19,90.93
		c-1.11,1.78-2.09,3.65-2.91,5.58c-3.63-1.48-6.82-3.88-9.25-6.96c-0.07,1.89-0.1,3.37-0.1,4.45c-3.61,0.73-7.16,1.76-10.6,3.08
		l-2.27-4.29c1.01-1.18,1.5-2.71,1.37-4.25V58.72h21.24V79.6h-1.03l3.38,4.25l-6.25,3.74C384.68,89.1,386.85,90.24,389.19,90.93
		L389.19,90.93z M381.5,63.57h-10.89v3.32h10.89L381.5,63.57z M381.5,74.74v-3.32h-10.89v3.32H381.5z M372.51,79.6h-1.9v10.48
		c1.87-0.43,3.8-0.9,5.77-1.42C374.56,85.9,373.25,82.83,372.51,79.6L372.51,79.6z M379.76,84.05c1.91-1.36,3.73-2.85,5.44-4.45
		h-7.61C378.16,81.15,378.89,82.64,379.76,84.05L379.76,84.05z"/>
	
		<linearGradient id="路径_441_1_" gradientUnits="userSpaceOnUse" x1="196.8479" y1="67.1271" x2="196.8479" y2="66.1271" gradientTransform="matrix(8.315 0 0 -11.007 -1239.9385 824.8584)">
		<stop  offset="0" style="stop-color:#FCCB2C"/>
		<stop  offset="1" style="stop-color:#E98707"/>
	</linearGradient>
	<path id="路径_441" class="st16" d="M401.01,85.99L397.75,97h-5.06l2.27-11.01H401.01z"/>
	
		<linearGradient id="路径_442_1_" gradientUnits="userSpaceOnUse" x1="191.0408" y1="91.3821" x2="191.0408" y2="90.3821" gradientTransform="matrix(39.654 0 0 -38.765 -7149.0796 3598.96)">
		<stop  offset="0" style="stop-color:#FCCB2C"/>
		<stop  offset="1" style="stop-color:#E98707"/>
	</linearGradient>
	<path id="路径_442" class="st17" d="M406.62,89.88h20.48c3.3-6.55,6.19-13.29,8.66-20.19l5.91,2.02
		c-2.56,6.1-5.32,12.15-8.28,18.17h12.89v5.42h-39.65V89.88z M407.68,63.82h16.67c-0.8-1.48-1.77-3.08-2.91-4.78l5.54-2.51
		c1.37,1.93,2.64,3.93,3.8,5.99l-2.77,1.29h17.38v5.34h-37.71L407.68,63.82z M416.7,69.8c2.81,6.07,5.19,11.81,7.16,17.24
		l-5.83,2.15c-1.93-5.9-4.16-11.69-6.68-17.36L416.7,69.8z"/>
	
		<linearGradient id="路径_443_1_" gradientUnits="userSpaceOnUse" x1="191.1402" y1="91.2203" x2="191.1402" y2="90.2203" gradientTransform="matrix(37.2501 0 0 -38.124 -6650.5005 3536.1533)">
		<stop  offset="0" style="stop-color:#FCCB2C"/>
		<stop  offset="1" style="stop-color:#E98707"/>
	</linearGradient>
	<path id="路径_443" class="st18" d="M471.62,91.01l-4.69,2.59l-1.5-3c-4.08,1.39-8.08,3.01-11.98,4.86l-2.59-4.09
		c0.93-1.17,1.39-2.64,1.3-4.13V58.47h17.81v21.77h-4.41C467.7,83.79,469.72,87.38,471.62,91.01z M464.78,63.49h-7.37v3.6h7.37
		V63.49z M464.78,75.23v-3.6h-7.37v3.6H464.78z M461.18,82.27l3.68-2.02h-7.45v8.3l5.91-2.1L461.18,82.27z M472.07,59.45h16.02
		v25.21c0.1,1.5-0.28,3-1.09,4.27c-0.72,0.97-1.86,1.55-3.07,1.57c-1.32,0.07-3.19,0.1-5.64,0.07c-0.24-2.16-0.51-3.97-0.81-5.42
		c1.28,0.14,2.56,0.23,3.84,0.24c1,0,1.5-0.59,1.5-1.78V64.62h-5.5v31.97h-5.26L472.07,59.45z"/>
	
		<linearGradient id="路径_444_1_" gradientUnits="userSpaceOnUse" x1="191.0251" y1="91.1462" x2="191.0251" y2="90.1462" gradientTransform="matrix(40.063 0 0 -37.837 -7139.481 3507.9775)">
		<stop  offset="0" style="stop-color:#FCCB2C"/>
		<stop  offset="1" style="stop-color:#E98707"/>
	</linearGradient>
	<path id="路径_444" class="st19" d="M493.52,74.46h9.39v-9.91h-7.16v-5.26h36.14v5.26h-6.51v9.91h8.21v5.26h-8.21v16.59h-5.87
		V79.72h-10.85c-0.27,4.91-1.19,8.6-2.76,11.06c-1.82,2.69-4.3,4.87-7.19,6.34c-1.51-1.32-3.21-2.7-5.1-4.13
		c2.34-1.22,4.45-2.84,6.22-4.8c1.65-1.86,2.61-4.69,2.86-8.48h-9.16V74.46z M508.78,74.46h10.72v-9.91h-10.72L508.78,74.46z"/>
	
		<linearGradient id="路径_445_1_" gradientUnits="userSpaceOnUse" x1="190.9977" y1="91.7305" x2="190.9977" y2="90.7305" gradientTransform="matrix(40.795 0 0 -40.222 -7234.6372 3746.3164)">
		<stop  offset="0" style="stop-color:#FCCB2C"/>
		<stop  offset="1" style="stop-color:#E98707"/>
	</linearGradient>
	<path id="路径_445" class="st20" d="M554.8,96.96v-7.83l-3.93,4.19c-1.11-1.15-2.21-2.26-3.32-3.34
		c-1.97,2.71-4.39,5.06-7.16,6.94c-1.24-1.65-2.47-3.14-3.68-4.49c2.63-1.66,4.93-3.79,6.8-6.27c-1.94-1.78-3.87-3.47-5.79-5.06
		c0.93-3.3,1.78-7.11,2.53-11.41h-3.22v-5.02h4.03c0.36-2.47,0.71-5.08,1.03-7.85l5.38,0.57l-1.17,7.29h7.24
		c-0.03,1.75-0.09,3.42-0.2,5c2.48-2.63,5.15-6.94,8.01-12.93l5.99,1.7c-2.36,3.87-4.97,7.59-7.81,11.13
		c3.17-0.19,6.37-0.42,9.59-0.69c-0.98-1.98-1.97-3.87-2.95-5.66l4.37-1.78c2.32,3.83,4.64,8.09,6.96,12.79l-4.9,2.06l-1.44-3.16
		c-8.07,0.57-13.52,1.11-16.37,1.62l-1.54-3.82c-0.23,4.91-1.26,9.76-3.04,14.35l4.57,3.62V77.74h20.19V96.8h-5.42v-2.31h-9.35v2.47
		L554.8,96.96z M543.3,79.8l2.69,2.13c1.44-3.93,2.22-8.06,2.33-12.24h-2.91C544.75,73.22,544.05,76.59,543.3,79.8L543.3,79.8z
		 M569.57,82.83h-9.35v6.55h9.35V82.83z"/>
</g>
</svg>
