<?xml version="1.0" encoding="utf-8"?>
<!-- Generator: Adobe Illustrator 23.1.0, SVG Export Plug-In . SVG Version: 6.00 Build 0)  -->
<svg version="1.1" id="Layer_1" xmlns="http://www.w3.org/2000/svg" xmlns:xlink="http://www.w3.org/1999/xlink" x="0px" y="0px"
		 width="72px" height="50px" viewBox="0 0 72 50" style="enable-background:new 0 0 72 50;" xml:space="preserve">
<style type="text/css">
	.st0{fill:#F69220;}
</style>
<g>
	<path class="st0" d="M34.7,25.4H33h-2h-2v-1.2v-0.7h-1.6h-4.7v0.3V25v0.4h-3.9h-3.4h-0.6v-1.1v-0.9h-1h-2.2h-1.2l-1.8,0.9L7.3,25
		v0.8v2.1v2l0.4-0.1L9,29.3v0.8v3V42v3v2.3v2v0.6h0.6h1.8h2h2.3h3.5h0.5l0.2-1.1l0.2-1.2v-0.3h3v0.5V49v1h1.7h3.6h0.3v-0.2v-1.5
		v-1.1h1.6h1.4v0.4l0.2,1.5l0.1,0.8h0.8h1.8h1.7h0.3v-0.2L36.4,48l-0.3-1.9L35.8,44l-0.4-2.6l-1.5-11l-0.3-2.3h0.2h1.6h1.5V28v-2.1
		v-0.5h-0.4L34.7,25.4L34.7,25.4z M23,28.8v1.3v1.3v1.3V34v1.3v5v1.3v1.3v1.3V45h-2.7l0.1-0.9l0.2-1.3l0.2-1.2l0.2-1.3l0.7-5.1
		l0.2-1.3l0.2-1.3l0.2-1.2l0.2-1.2l0.2-1.2l0.1-0.6H23V28.8z M15.3,46.8L15,48.1l-0.2,1.3v0.1v-0.1v-1.5v-1.6v-1.7v-1.9V40v-5v-2.7
		v-1.9v-1.7V28h1h2.3v0.2l-0.2,1.5l-0.2,1.6l-0.3,1.9l-1.1,7.1L16,42.2l-0.3,1.6l-0.2,1.5L15.3,46.8z M28.7,44.8v-1.2v-2.1v-5v-2.6
		v-1.5v-0.6v-1.7v-1.6v-0.3h0.4l0.1,0.7l0.3,1.9l0.2,1.6l0.1,1l0.4,3.2l0.5,3.4l0.3,2.6l0.3,1.9l0.1,0.5H31h-1h-0.7h-0.1h-0.5
		C28.7,45,28.7,44.8,28.7,44.8z"/>
	<polygon class="st0" points="65.3,24.8 63.4,24.8 61.2,24.8 58.5,24.8 56.8,24.8 56.8,24.2 56.8,23.5 49.6,23.5 49.6,24.3 
		49.6,24.8 48.2,24.8 45.5,24.8 43.3,24.8 41.4,24.8 39.6,24.8 38.5,24.8 38.5,26.1 38.5,27.2 39.2,27.2 40.7,27.2 42.4,27.2 
		42.4,27.2 40.8,29.2 39.6,30.6 39.6,31.3 39.6,32.7 40.4,32.7 41.7,32.7 43.1,32.7 44.5,32.7 45.9,32.7 47.5,32.7 49.2,32.7 
		51.8,32.7 54.9,32.7 57.5,32.7 59.2,32.7 60.8,32.7 62.2,32.7 63.6,32.7 65,32.7 66.3,32.7 67.5,32.7 66,29.3 65.5,28.3 65.2,28.3 
		63.6,28.3 61.8,28.3 59.9,28.3 60,28.4 60.8,30.3 60.3,30.3 58.3,30.3 55.4,30.3 51.3,30.3 48.4,30.3 47.7,30.3 49.1,28.4 50,27.2 
		58,27.2 60.5,27.2 62.5,27.2 64.3,27.2 66,27.2 67.5,27.2 67.9,27.2 67.9,25.7 67.9,24.8 67.1,24.8 	"/>
	<path class="st0" d="M64.1,34h-1.3h-1.3h-1.4h-1.4h-1.6H55h-3.1h-2.1H48h-1.4h-1.4h-1.3h-1.3h-1.3h-0.9v8.4v2.9v2.2v1.9V50h0.5h1.8
		h2h2.4h0.2v-1.3v-1.5v-1.5v-0.4H49h8.8h1.7v0.4v1.5v1.5V50h0.2H62h2h1.8h0.5v-0.6v-1.9v-2.2v-2.9V34h-0.9H64.1z M56.7,43.1H50h-2
		h-0.7v-0.8v-1.4h0.5h1.5h1.8h4.5h1.8h1.5h0.5v1.4v0.8h-0.7H56.7z M48.3,36.5h1.3h1.3h4.9h1.3h1.3h1v2.1h-1h-1.3h-1.3h-5h-1.3h-1.3
		h-1v-2.1H48.3z"/>
</g>
</svg>
