<?xml version="1.0" encoding="utf-8"?>
<!-- Generator: Adobe Illustrator 23.1.0, SVG Export Plug-In . SVG Version: 6.00 Build 0)  -->
<svg version="1.1" id="Layer_1" xmlns="http://www.w3.org/2000/svg" xmlns:xlink="http://www.w3.org/1999/xlink" x="0px" y="0px"
		 width="40px" height="50px"  viewBox="0 0 40 50" style="enable-background:new 0 0 40 50;" xml:space="preserve">
<style type="text/css">
	.st0{fill:#FFFFFF;}
</style>
<g>
	<path class="st0" d="M29.6,23.9c0.1,0,0.1-0.1,0.2-0.1c2.5-2.1,4-4.5,4.3-7.8c0-0.3,0-0.6,0-0.9c0-0.5,0-1-0.1-1.5
		c-0.4-3.9-2.5-6.9-5.5-8.9c-2.4-1.6-5.4-2.5-8.5-2.5l0,0c-3.7,0-7.1,1.2-9.7,3.4c-2.7,2.3-4.4,5.5-4.4,9.6c0,0.3,0,0.5,0,0.7
		c0.2,3.4,1.7,5.8,4.5,7.9c-1.1,0.5-2,1.1-2.8,1.7c-2.9,2.3-4.4,5.9-4.4,9.8c0,0.1,0,0.1,0,0.2c0.1,5.1,2.9,9.1,6.9,11.6
		c2.9,1.8,6.4,2.8,9.9,2.9c0,0,0,0,0.1,0c3.7,0,7.4-1.1,10.4-3.2c3.6-2.5,6.2-6.4,6.2-11.2c0-0.1,0-0.1,0-0.2c0-3.3-0.9-6.2-2.9-8.5
		C32.7,25.7,31.3,24.6,29.6,23.9z M15.7,16L15.7,16c0-1,0.4-2,1-2.7c0.8-0.9,1.9-1.5,3.2-1.6H20c1,0,2,0.5,2.8,1.2
		c0.4,0.3,0.7,0.7,0.9,1.2c0.3,0.6,0.5,1.2,0.5,1.8V16c0,1.4-0.6,2.5-1.6,3.3c-0.5,0.4-1.2,0.7-1.9,0.9c-0.2,0-0.5,0.1-0.7,0.1h-0.1
		C17.5,20.2,15.7,18.4,15.7,16z M23.3,38.4c-0.8,0.8-1.9,1.3-3.2,1.3H20c-1.2,0-2.3-0.4-3.2-1.1c-0.9-0.7-1.5-1.7-1.8-2.9l0,0l0,0
		c-0.1-0.4-0.1-0.8-0.1-1.2c0-1.1,0.3-2.1,0.8-3c0.9-1.4,2.4-2.3,4.2-2.3l0,0l0,0c2.1,0,3.9,1.3,4.6,3.2c0.3,0.6,0.4,1.4,0.4,2.1
		c0,0.4,0,0.8-0.1,1.2C24.6,36.7,24.1,37.7,23.3,38.4z"/>
</g>
</svg>
