<?xml version="1.0" encoding="utf-8"?>
<!-- Generator: Adobe Illustrator 23.1.0, SVG Export Plug-In . SVG Version: 6.00 Build 0)  -->
<svg version="1.1" id="Layer_1" xmlns="http://www.w3.org/2000/svg" xmlns:xlink="http://www.w3.org/1999/xlink" x="0px" y="0px"
	width="40px" height="50px"   viewBox="0 0 40 50" style="enable-background:new 0 0 40 50;" xml:space="preserve">
<style type="text/css">
	.st0{fill:#FFFFFF;}
</style>
<path class="st0" d="M30.8,17.7c-1.7-0.8-3.6-1.3-5.8-1.3l-7.1,10.8c0.7-0.2,1.3-0.3,2-0.3c1.4,0,2.7,0.4,3.8,1.1
	c0.7,0.5,1.3,1,1.8,1.7c0.6,0.9,1,2,1,3.2c0,0.1,0,0.2,0,0.3c0,1.2-0.3,2.3-0.9,3.2c-0.6,1-1.5,1.9-2.5,2.4s-2.1,0.8-3.2,0.8
	c-0.1,0-0.2,0-0.3,0c-1.3-0.1-2.5-0.5-3.4-1.2c-1.1-0.8-2-2-2.4-3.5c-0.2-0.6-0.3-1.3-0.3-2c0-0.4,0-0.8,0.1-1.1
	c0.1-0.4,0.2-0.8,0.3-1.2c0.1-0.3,0.3-0.7,0.5-1l0.8-1.4l3.1-4.9l3.1-4.9l2.7-4.4l3.2-5.1l4.1-6.6H17.8l-1.3,1.9L13.2,9l-3.1,4.5
	l-3.2,4.6l-0.8,1.2c-0.9,1.3-1.6,2.6-2.3,4c-1,2.1-1.7,4.3-1.9,6.6c-0.1,0.6-0.1,1.3-0.1,1.9c0,2.2,0.3,4.3,0.9,6.2
	c1.1,3.5,3.2,6.3,6,8.4c2.5,1.8,5.5,3,8.9,3.4c0.9,0.1,1.8,0.2,2.7,0.2c1.9,0,3.8-0.3,5.5-0.8c3.5-1,6.5-3,8.7-5.7
	c2.1-2.6,3.4-5.7,3.8-9.3c0.1-0.7,0.1-1.3,0.1-2c0-2.5-0.4-4.8-1.2-7C36.1,22,33.9,19.2,30.8,17.7z"/>
</svg>
