<?xml version="1.0" encoding="utf-8"?>
<!-- Generator: Adobe Illustrator 25.0.0, SVG Export Plug-In . SVG Version: 6.00 Build 0)  -->
<svg version="1.1" id="Layer_1" xmlns="http://www.w3.org/2000/svg" xmlns:xlink="http://www.w3.org/1999/xlink" x="0px" y="0px"
	 viewBox="0 0 70.7 70.7" style="enable-background:new 0 0 70.7 70.7;" xml:space="preserve">
<style type="text/css">
	.st0{fill:#3D7EEB;}
</style>
<path id="CSGO" class="st0" d="M0,35.3C0,15.8,15.8,0,35.4,0s35.3,15.8,35.3,35.4c0,19.5-15.8,35.3-35.3,35.3
	C15.8,70.7,0,54.9,0,35.3z M4.3,35.3c0,17.1,13.9,31,31,31s31-13.9,31-31s-13.9-31-31-31c0,0,0,0,0,0C18.2,4.3,4.3,18.2,4.3,35.3z
	 M28.9,58.2c-7.5-1.9-14.7-9-16.4-16.5c-2.6-9.5,0.8-19.6,8.8-25.5c6.4-4.9,16.6-6.2,24-2.5c4.9,2.3,8.9,6.1,11.3,11
	c4,7.6,3.1,18.4-2.4,25.1c-4.5,5.9-11.5,9.3-18.8,9.2C33.2,59.1,31,58.8,28.9,58.2z M15.6,25.2c-3.9,7.1-2.9,17.5,2.3,23.7
	c3.2,4.7,8.2,6.9,13.1,8.1c8,1.6,16.2-1.4,21.5-7.7c5.3-6,6.6-16,3.1-23.3c-1.1-2.3-2.6-4.5-4.3-6.4c-3.9-3.7-8.9-6.1-14.2-6.6
	c-0.5,0-1,0-1.4,0C27.2,13.1,19.5,17.7,15.6,25.2z M39.5,53.1c-1-0.8-0.5-1.9-0.6-3c-0.7-2.1-1.2-4.3-1.7-6.5c-0.6-1-2-1.8-2.4-2.9
	c-1-1.1-1.7-2.7-3.2-3.1c-0.3,0.1-0.1,0.5-0.3,0.6c-1.1,2.1-1.9,4.3-2.5,6.7c-0.8,1.4-1.3,2.9-2,4.4c-0.4,0.1-0.8,0.1-1.3,0.1
	c-0.5,0-1.1,0-1.6,0.2c0.1,0.8,0.7,1.6,0.2,2.5c-0.3,0-0.6,0.1-0.9,0.2c-0.6,0.2-1.2,0.4-1.7-0.4c-1.2-0.5-1-2.1-1.6-3.1
	c0.3-1.4,1.6-2.4,2.4-3.7c0.6-0.4,1.4-0.3,1.7-1.1c0.7-3.2,1.6-6.3,2.6-9.4c0.1-0.9-0.9-1.8-0.2-2.6c-0.1-0.2-0.3-0.1-0.5-0.2
	c0.9-2.9,1.4-6,1.6-9c0.8-1.4,1.9-2.6,3.1-3.7c0.1,0,0.1,0,0.2,0c0.1,0,0.2,0,0.3-0.1c-0.1-1.6,0-3.4,1.6-4.2
	c1.5-0.8,3.3-0.3,4.1,1.2c0,0.1,0.1,0.1,0.1,0.2c0.2,0.7,1,1.5,0.3,2.3c-0.3,0.4-0.4,0.9-0.4,1.4c0.6,0.4,1,0,1.4-0.4
	s0.9-0.8,1.6-0.4c0.3-0.3,0.7-0.5,1.2-0.5c-0.1,0.9,0.6,0.9,1.3,0.9c0.3,0,0.6,0,0.9,0.1c0.2,0,0.5,0,0.7,0c0.6,0,1.2,0.1,1.3-0.7
	c0.1,0.1,0.3,0.1,0.5,0.1c0.1,0.4-0.3,0.8,0.3,0.9c0.2,0,0.4,0,0.7,0c0.4,0.1,0.8,0.1,0.9-0.5c0.2,0,0.3,0,0.5,0.2L48,19.8
	c0.3,0.3,0.7,0.4,1.1,0.3c0.2,0,0.4,0,0.6,0c0.4-0.1-0.1-0.9,0.5-0.7c0.2,0.3,0,0.8,0.4,1.1c-0.1,0.1-0.3,0.1-0.4,0.3
	c0,0.4,0.5,0.4,0.7,0.5h0.5c0,0.1,0,0.1,0.1,0.2c-0.6,0.2-1.2,0.2-1.8,0.2c-1.3,0-2.6,0-2.9,1.6c-0.4-0.1-0.6,0.3-0.7,0.5
	c-0.3-0.1-0.6-0.4-0.9-0.5c0.1,1.5,0.6,3,1.5,4.2c-0.2,0.2-0.4,0.4-0.7,0.5c-0.8-1.3-1.5-2.7-1.9-4.2C43.6,24,44.1,24.5,44,25
	c0.1,0.3-0.1,0.4-0.4,0.5l-1.7-0.4c-0.9,0.5-1.2,2.1-2.5,1.7c-0.2,0.1-0.2,0.4-0.5,0.3L38.9,27c-0.6,0.4-1.3,0.5-2,0.4
	c-0.4,0.1-0.9-0.1-1.1,0.4c-0.2,0.9-0.1,1.8-0.3,2.6c-0.4-0.1-0.8,0.1-0.9,0.5c0,0,0,0.1,0,0.1c0,0.6,0.1,1.2,0.2,1.7l0.7-0.2
	c0.4,0.9,1.4,1.6,1.9,2.5c0.6,0.7,1.5,1.5,1.6,2.6c-0.2,0.1-0.4,0.3-0.5,0.5c0,0.8,0.8,1.2,1.1,1.8c0.8,0.9,1.1,2,2,2.9
	c-0.3,2.3,1,4,0.6,6.3c-0.2,1.7,1.3,2.8,1.7,4.2v1.2c-0.4,0.2-0.8,0.3-1.2,0.3C41.5,54.7,40.5,53.8,39.5,53.1z M37.9,21.8L36.4,23
	c0.2,0.3,0.6,0.4,0.9,0.5c0.5-1.4,2.2-0.4,2.7-1.5c-0.6-0.1-1.2-0.2-1.8-0.2C38.1,21.8,38,21.8,37.9,21.8z"/>
</svg>
