<?xml version="1.0" encoding="utf-8"?>
<!-- Generator: Adobe Illustrator 25.0.0, SVG Export Plug-In . SVG Version: 6.00 Build 0)  -->
<svg version="1.1" id="Layer_1" xmlns="http://www.w3.org/2000/svg" xmlns:xlink="http://www.w3.org/1999/xlink" x="0px" y="0px"
	 viewBox="0 0 70.7 70.7" style="enable-background:new 0 0 70.7 70.7;" xml:space="preserve">
<style type="text/css">
	.st0{fill:#3D7EEB;}
</style>
<path id="DOTA2" class="st0" d="M0,35.3C0,15.8,15.8,0,35.4,0s35.3,15.8,35.3,35.4c0,19.5-15.8,35.3-35.3,35.3
	C15.8,70.7,0,54.9,0,35.3z M4.3,35.3c0,17.1,13.9,31,31,31s31-13.9,31-31s-13.9-31-31-31c0,0,0,0,0,0C18.2,4.3,4.3,18.2,4.3,35.3z
	 M31.2,54.9c-1.3-0.1-2.6-0.2-3.8-0.2c-1.4,0-2.9,0-4.3,0c-1.4,0-2.8,0-4.2,0c-1.1,0-2.1-0.1-3.2-0.3c-0.3-0.1-0.6-0.4-0.7-0.8
	c-0.1-2-0.1-3.9-0.1-5.9c0.1-0.5,0.2-1,0.4-1.5c0.4-1,0.7-2,0.8-3.1c0.1-0.6-0.4-1.3-0.7-1.9c-0.2-0.5-0.4-0.9-0.5-1.5
	c-0.1-1,0-2,0-3c0-0.3,0.2-0.5,0.4-0.6c0.8-0.6,1-1.6,0.4-2.4c0,0,0,0,0,0c-0.2-0.5-0.4-1.1-0.4-1.7c0-1.1-0.1-2.3-0.3-3.4
	c-0.6-2.2-0.6-4.6-0.2-6.8c0.1-1.5,0.1-3,0-4.5c0-0.4,0-0.8,0-1.2c0-0.6,0.3-0.9,1-0.9c1.7,0,3.4,0,5.1,0c1.1,0,2.1,0,3.2,0
	c0.3,0,0.6,0,0.9,0.2c2,0.9,3.9,0.4,5.8-0.4c0.7-0.3,1.5-0.5,2.3-0.6c1.5-0.1,3,0,4.6,0v0.5c0.7,0.4,1.3,0.8,1.8,1.1
	c0.8,0.3,1.7,0,2.2-0.7c0.2-0.4,0.6-0.6,1-0.7c2,0,4.1,0.1,6.1,0.3c0.5,0.1,1,0.4,1.2,0.8c0.4-0.2,0.9-0.7,1.2-0.6
	c0.5,0.1,1,0.1,1.4,0.1c1-0.2,2.1,0.2,2.8,0.9c0.1,0.1,0.2,0.3,0.2,0.5c0.1,3.3,0.2,6.6,0.2,9.9c0,0.9,0.1,1.9-1,2.5
	c-0.4,0.2-0.4,1.2-0.6,2c1.2,2.1,1.5,4.7,0.7,7c0.9-0.2,0.9,0.5,0.9,1.4c0,5.1,0,10.3,0,15.5c-1.2-0.2-2.3-0.5-3.5-0.6
	c-0.3,0-1.2-0.4-0.9,0.6c-0.3,0.2-0.6,0.3-1,0.4c-1.3-0.1-2.6-0.2-4-0.3c-0.3-0.1-0.6-0.1-0.8-0.1c-2,0.1-3.9,0.3-5.9,0.5
	C39,55.4,38,55.8,36.9,56c-0.4,0-0.7,0-1.1-0.1c-1.2-0.4-2.4-0.7-3.4,0.5L31.2,54.9z M20.3,44.4c-0.5,1.1-0.7,2.2,0.7,2.9
	c0.3,0.2,0.6,0.5,0.8,0.8c1,1.2,2.6,1.6,4,1c1.3-0.4,2.6-0.8,3.9-1.2c0.4-0.1,0.7-0.3,1.1-0.5l-8.3-8C21.6,41.2,21,42.8,20.3,44.4z
	 M19.8,22.2c-0.1,0-0.3,0.1-0.6,0.2c0.8,0.9,1.4,1.7,2.1,2.4c6.6,7,13.5,13.6,19.7,20.9c1.9,2.2,3.8,3.4,6.6,3
	c0.6,0,1.2-0.3,1.5-0.8c1.1-2.1,1.8-4.3,2.1-6.6c0-0.3-0.2-0.6-0.4-0.7c-1.9-1.4-3.9-2.8-5.9-4.2c-2-1.3-4-2.6-5.9-3.9
	c-3.9-2.6-7.8-5.1-11.7-7.7c-0.2-0.1-0.4-0.5-0.6-0.6c-1.3-1.1-2.7-2-4.1-2.8c-0.1,0-0.2-0.1-0.4-0.1C21.4,21.6,20.6,21.9,19.8,22.2
	L19.8,22.2z M45.1,21.8c-2,0.4-3.9,0.9-5.8,1.5c2.5,2.3,5.1,4.3,8,6c0.3-1.8,0.7-3.2,0.9-4.7c0.1-0.5,0.1-1.3-0.2-1.5
	c-0.8-0.6-1.8-1.4-2.7-1.4C45.2,21.8,45.2,21.8,45.1,21.8L45.1,21.8z"/>
</svg>
