<?xml version="1.0" encoding="utf-8"?>
<!-- Generator: Adobe Illustrator 25.0.0, SVG Export Plug-In . SVG Version: 6.00 Build 0)  -->
<svg version="1.1" id="Layer_1" xmlns="http://www.w3.org/2000/svg" xmlns:xlink="http://www.w3.org/1999/xlink" x="0px" y="0px"
	 viewBox="0 0 70.7 70.7" style="enable-background:new 0 0 70.7 70.7;" xml:space="preserve">
<style type="text/css">
	.st0{fill:#3D7EEB;}
</style>
<path id="FIFA" class="st0" d="M0,35.3C0,15.8,15.8,0,35.4,0s35.3,15.8,35.3,35.4c0,19.5-15.8,35.3-35.3,35.3
	C15.8,70.7,0,54.9,0,35.3z M4.3,35.3c0,17.1,13.9,31,31,31s31-13.9,31-31s-13.9-31-31-31c0,0,0,0,0,0C18.2,4.3,4.3,18.2,4.3,35.3z
	 M47.3,43.8c-1.2-0.1-2.4,0-3.7,0c0.1-0.5,0.2-0.8,0.3-1.1c1.8-5,3.6-10,5.4-15c0.1-0.6,0.7-1,1.3-0.9c0,0,0,0,0,0
	c1.3,0.1,2.5,0,3.8,0c0.5-0.1,0.9,0.2,1,0.7c1.9,5.3,3.8,10.5,5.7,15.8c0,0.2,0.1,0.3,0.1,0.5c-1.6,0-3.1,0-4.6,0
	c-0.7,0-0.8-0.5-0.8-1c-0.2-1-0.7-1.4-1.7-1.3c-1.2,0.1-2.5,0.1-3.7,0c-0.7,0-1.2,0.1-1.3,0.9c0.1,0.7-0.5,1.3-1.1,1.4
	c-0.1,0-0.2,0-0.3,0C47.5,43.8,47.4,43.8,47.3,43.8z M52.2,31.6l-1.9,6.6h4.1l-2-6.6L52.2,31.6z M10,43.7c-0.2,0-0.5-0.6-0.5-0.9
	c0-4.2,0-8.4,0-12.6V27h13c-0.4,1.1-0.8,2.2-1.2,3.2c-0.1,0.2-0.6,0.4-0.9,0.4c-1.4,0-2.9,0-4.3,0h-1.2V34H20
	c-0.5,1.2-0.8,2.2-1.3,3.2c-0.2,0.3-0.5,0.4-0.8,0.4c-1,0.1-2,0-3,0v6.1c-0.8,0-1.5,0-2.3,0C11.7,43.8,10.8,43.8,10,43.7z
	 M33.2,43.7V27h12.9c-0.4,1.1-0.7,2.2-1.2,3.2c-0.1,0.2-0.6,0.4-1,0.4c-1.8,0-3.6,0-5.4,0V34h5.1c-0.5,1.3-0.9,2.4-1.4,3.4
	c-0.1,0.2-0.5,0.3-0.8,0.3c-1,0-1.9,0-3,0v6L33.2,43.7z M24.2,43.7V27h5.2v16.7H24.2z"/>
</svg>
