<?xml version="1.0" encoding="utf-8"?>
<!-- Generator: Adobe Illustrator 25.0.0, SVG Export Plug-In . SVG Version: 6.00 Build 0)  -->
<svg version="1.1" id="Layer_1" xmlns="http://www.w3.org/2000/svg" xmlns:xlink="http://www.w3.org/1999/xlink" x="0px" y="0px"
	 viewBox="0 0 70.7 70.7" style="enable-background:new 0 0 70.7 70.7;" xml:space="preserve">
<style type="text/css">
	.st0{fill:#3D7EEB;}
</style>
<path id="Heroes_of_Warcraft" class="st0" d="M0,35.3C0,15.8,15.8,0,35.4,0s35.3,15.8,35.3,35.4c0,19.5-15.8,35.3-35.3,35.3
	C15.8,70.7,0,54.9,0,35.3z M4.3,35.3c0,17.1,13.9,31,31,31s31-13.9,31-31s-13.9-31-31-31c0,0,0,0,0,0C18.2,4.3,4.3,18.2,4.3,35.3z
	 M30.2,52.9c1.6,0.5,3.3,0.7,4.9,0.7l0.2,8.1L30.2,52.9z M35.6,53.6c1.6,0,3.3-0.3,4.9-0.7l-5.1,8.8L35.6,53.6z M29.7,51.9
	c-1.9-0.6-3.6-1.6-5.1-2.8v0l0,0l-4.7,1.7l4.9-4.6l-0.1,2.9l0.5-3.2v-0.2h-0.2v-0.2h-0.2l-3,0.4l2.9-0.1L20,50.8l1.7-4.7
	c-1.2-1.5-2.2-3.3-2.8-5.1c-1.2-3.6-1.2-7.5,0-11.1c0.6-1.9,1.6-3.6,2.8-5.1l-1.7-4.8l4.6,4.9l-2.7-0.1l3.1,0.5h0.2v-0.2h0.2v-0.2
	l-0.4-3.2l0.1,3l-5-4.8l4.8,1.7c1.5-1.2,3.3-2.2,5.1-2.8c5.5-1.9,11.6-0.8,16.2,2.8l-0.5,3.2v0.1h0.2v0.2H46l3.2-0.4l-2.9,0.1
	l4.6-4.9l-1.7,4.8c1.2,1.5,2.1,3.3,2.8,5.1l-0.1,0c1.2,3.6,1.2,7.5,0,11.1c-0.6,1.9-1.6,3.6-2.8,5.1v-0.2C49.1,46,49,46,49,46h-0.3
	L48.3,46l-0.8-0.1c-0.5-0.1-1-0.2-1.5-0.3h-0.1v0.2h-0.2v0.2L45.6,46l0.2,0.2c0.1,0.4,0.1,1,0.2,1.3C46,47.7,46,48,46,48.3v0.8
	c0,0,0,0.1-0.2,0.1H46C41.3,52.7,35.3,53.8,29.7,51.9z M39.6,32L39.6,32c0.1,0.7,0.3,4.2,0.3,4.2l-0.5,0.3c-0.4,1.2-1.3,2.2-2.5,2.7
	c-2.1,0.9-8,3.2-8,3.2l0.6,0.9l4.1,1.3l2.3-0.6h2l3-1.4l0.2-0.8l1.3-0.8l1.5-3.2l0.3-3.8l-1-3.2l-2.6-3.4l-4.3-1.6l-1,0.6l-0.7-0.4
	l-0.2-0.4l-3.9,2.3l-1.1,1.5L28,29.6l-0.2,1.5l0.4,3.1l2.6,3.7c1.1,1.3,3,1.5,4.4,0.6H36c0,0,1.8-0.8,1.8-2s-0.6-3.5-1.8-3.8
	s-2.4-0.3-2.4,0.7c0,0.5,0.3,1,0.8,1.2l-1.2,0.8c0,0-2-1-0.8-4.1l2.3-1.4l3.4-0.1C38.1,29.7,39.6,31.2,39.6,32z M46.2,49.2h0.2
	C46.2,49.1,46.2,49.1,46.2,49.2v-2.8c0.6,0.6,1.3,1.1,1.9,1.7c-0.6-0.7-1.3-1.4-1.9-2.1c0.5,0,0.9,0,1.4,0c0.3,0,0.5,0.1,0.8,0.1
	h0.7c0,0,0.1,0,0.1,0.3v-0.2l0.3,0.7l1.4,3.8c0,0-0.1,0-0.1,0c0,0,0.1,0.1,0.1,0.1L46.2,49.2z M46.1,49.2L46.1,49.2L46.1,49.2z
	 M9.1,35.3l8.1,0.3c0,1.6,0.3,3.3,0.7,4.9L9.1,35.3z M53.6,35.5l7.2-0.2l-7.2-0.2c0-1.7-0.3-3.3-0.7-4.9l8.7,5.1h0.1l0,0l0,0h-0.1
	l-8.7,5.1C53.3,38.8,53.6,37.2,53.6,35.5L53.6,35.5z M17.8,30.2c-0.5,1.6-0.7,3.3-0.7,4.9l-8.1,0.2L17.8,30.2z M46.2,21.5L46.2,21.5
	l4.8-1.7l0,0L46,24.4L46.2,21.5z M51,19.7L51,19.7L51,19.7z M19.7,19.7L19.7,19.7L19.7,19.7z M35.3,17.1h0.2l-0.2-8.1l5,8.8
	C38.7,17.4,37,17.1,35.3,17.1L35.3,17.1z M35.3,9.1l-0.2,8.1h0.2c-1.7,0-3.5,0.2-5.1,0.7L35.3,9.1z"/>
</svg>
