<?xml version="1.0" encoding="utf-8"?>
<!-- Generator: Adobe Illustrator 25.0.0, SVG Export Plug-In . SVG Version: 6.00 Build 0)  -->
<svg version="1.1" id="Layer_1" xmlns="http://www.w3.org/2000/svg" xmlns:xlink="http://www.w3.org/1999/xlink" x="0px" y="0px"
	 viewBox="0 0 70.7 70.7" style="enable-background:new 0 0 70.7 70.7;" xml:space="preserve">
<style type="text/css">
	.st0{fill:#3D7EEB;}
</style>
<path id="LOL" class="st0" d="M0,35.3C0,15.8,15.8,0,35.4,0s35.3,15.8,35.3,35.4c0,19.5-15.8,35.3-35.3,35.3
	C15.8,70.7,0,54.9,0,35.3z M4.3,35.3c0,17.1,13.9,31,31,31s31-13.9,31-31s-13.9-31-31-31c0,0,0,0,0,0C18.2,4.3,4.3,18.2,4.3,35.3z
	 M20.8,55c-0.2-0.6,0-1,0.4-1.3c1-1,2-2,3-3c0.2-0.2,0.3-0.5,0.3-0.8c0-10.6,0-21.2,0-31.7c0-0.3-0.1-0.6-0.3-0.9
	c-0.7-1-1.6-2-2.3-3.1c-0.2-0.3-0.3-0.7-0.2-1.1c0.3-0.3,0.6-0.5,1.1-0.6c3.4,0,6.8,0,10.2,0c0.9,0,1.3,0.3,1.3,1.3
	c0,5.9,0,11.8,0,17.7c0,5.6,0,11.2,0,16.8c0,0.2,0,0.3,0,0.5h5c5.1,0,10.1,0,15.2,0c0.5,0,1,0.1,1.2,0.6c0.2,0.5,0,1-0.4,1.2
	c-1.5,1.5-3,3-4.5,4.5c-0.3,0.3-0.7,0.5-1.2,0.5c-9.3,0-18.5,0-27.8,0C21.5,55.6,21.1,55.5,20.8,55z M22.7,22.1c0,1,0,1.8,0,2.7
	c-0.1,0.2-0.2,0.4-0.3,0.6c-4.7,6.2-4.8,14.9-0.1,21.2c0.2,0.4,0.4,0.8,0.4,1.2c0.1,0.7,0,1.4,0,2.2c-7.7-7.5-7.8-19.8-0.3-27.5
	C22.5,22.3,22.6,22.2,22.7,22.1L22.7,22.1z M52.3,46.8c-0.6,0-1.2,0-1.9,0c4.1-5.9,4.9-12.1,1.8-18.5s-8.6-9.5-15.7-9.9v-1.9
	c1.5,0,2.9,0.1,4.4,0.5C49,18.8,55,25.7,55.9,34c0.5,4.3-0.5,8.6-2.8,12.3C52.9,46.6,52.6,46.8,52.3,46.8L52.3,46.8z M36.7,46.8
	c-0.1,0-0.2,0-0.2,0V20.3c1.8,0,3.5,0.3,5.2,0.9c5.9,2.3,9.5,6.7,10.3,13c0.6,4.4-0.8,8.8-3.8,12.1c-0.2,0.2-0.5,0.4-0.8,0.4
	c-1.5,0-3.1,0-4.6,0C40.7,46.8,38.7,46.8,36.7,46.8z M22.7,28.5v14.8C20.6,40.3,19.7,33.8,22.7,28.5z"/>
</svg>
