<?xml version="1.0" encoding="utf-8"?>
<!-- Generator: Adobe Illustrator 25.0.0, SVG Export Plug-In . SVG Version: 6.00 Build 0)  -->
<svg version="1.1" id="Layer_1" xmlns="http://www.w3.org/2000/svg" xmlns:xlink="http://www.w3.org/1999/xlink" x="0px" y="0px"
	 viewBox="0 0 70.7 70.7" style="enable-background:new 0 0 70.7 70.7;" xml:space="preserve">
<style type="text/css">
	.st0{fill:#3D7EEB;}
</style>
<path id="Overwatch" class="st0" d="M0,35.3C0,15.8,15.8,0,35.4,0s35.3,15.8,35.3,35.4c0,19.5-15.8,35.3-35.3,35.3
	C15.8,70.7,0,54.9,0,35.3z M4.3,35.3c0,17.1,13.9,31,31,31s31-13.9,31-31s-13.9-31-31-31c0,0,0,0,0,0C18.2,4.3,4.3,18.2,4.3,35.3z
	 M13.2,39.8c-0.2-1-0.3-1.9-0.4-2.9c0-0.1,0-0.3-0.1-0.4v-2.3c0.1-0.6,0.1-1.2,0.2-1.9c0.6-4.6,2.6-8.8,5.7-12.2
	c0.4-0.5,0.9-0.9,1.3-1.3c1.4,1.6,2.8,3.3,4.2,4.9c-3.2,3-5,7.3-5,11.7c0,2.8,0.7,5.5,2,7.9c0.1-0.1,0.2-0.2,0.3-0.3
	c2.8-2.7,5.5-5.3,8.2-8c0.2-0.2,0.3-0.3,0.4-0.5c1.3-2.9,2.7-5.7,4-8.6c0.1-0.1,0.1-0.2,0.2-0.3v0.4c0,4.5,0,8.9,0,13.4
	c0,0.2-0.1,0.4-0.3,0.6c-2.8,2.7-5.5,5.3-8.3,8c-0.1,0.1-0.2,0.2-0.3,0.3c5,4.2,13.5,4.7,19.6-0.1c-0.1-0.1-0.3-0.1-0.4-0.2
	c-2.7-2.6-5.4-5.2-8.1-7.9c-0.2-0.2-0.4-0.5-0.3-0.8c0-4.4,0-8.8,0-13.2c0-0.1,0-0.3,0.1-0.4c0.1,0.1,0.1,0.2,0.2,0.3
	c1.3,2.9,2.7,5.7,4,8.6c0.1,0.2,0.2,0.3,0.3,0.5c2.8,2.7,5.6,5.4,8.4,8.1c0,0,0.1,0.1,0.1,0.1c3.6-6.4,2.4-14.4-2.9-19.5
	c1.4-1.6,2.8-3.3,4.3-5c0.6,0.6,1.2,1.2,1.7,1.8c2.9,3.3,4.8,7.5,5.4,11.8c1.7,12.4-7,23.8-19.4,25.4C26.6,59.4,15.5,51.5,13.2,39.8
	z M25.4,22.5l-4.2-4.8c0.5-0.4,1-0.8,1.6-1.1c2.7-1.8,5.7-3,8.9-3.5c0.9-0.2,1.8-0.2,2.8-0.3c0.2,0,0.4-0.1,0.6-0.1h0.5
	c0.4,0,0.8,0.1,1.2,0.1c4.6,0.2,9,1.9,12.6,4.7c0,0,0.1,0.1,0.2,0.2l-4.1,4.8C38.7,18.1,32.1,18.1,25.4,22.5z"/>
</svg>
