<?xml version="1.0" encoding="utf-8"?>
<!-- Generator: Adobe Illustrator 25.0.0, SVG Export Plug-In . SVG Version: 6.00 Build 0)  -->
<svg version="1.1" id="Layer_1" xmlns="http://www.w3.org/2000/svg" xmlns:xlink="http://www.w3.org/1999/xlink" x="0px" y="0px"
	 viewBox="0 0 70.7 70.7" style="enable-background:new 0 0 70.7 70.7;" xml:space="preserve">
<style type="text/css">
	.st0{fill:#3D7EEB;}
</style>
<path id="World_of_Warcraft" class="st0" d="M0,35.3C0,15.8,15.8,0,35.4,0s35.3,15.8,35.3,35.4c0,19.5-15.8,35.3-35.3,35.3
	C15.8,70.7,0,54.9,0,35.3z M4.3,35.3c0,17.1,13.9,31,31,31s31-13.9,31-31s-13.9-31-31-31c0,0,0,0,0,0C18.2,4.3,4.3,18.2,4.3,35.3z
	 M22.3,55.1h-6.7v-6.7c-5.3-7.9-5.3-18.2,0-26.2v-6.7h6.7c7.9-5.3,18.2-5.3,26.2,0h6.7v6.7c5.3,7.9,5.3,18.2,0,26.2v6.7h-6.7
	C40.5,60.4,30.2,60.4,22.3,55.1L22.3,55.1z M19.5,23.5L19.2,24c-4.8,6.8-4.8,15.9,0,22.7l0.4,0.5v4h4l0.5,0.4
	c6.8,4.8,15.9,4.8,22.7,0l0.5-0.4h4v-4l0.4-0.5c4.8-6.8,4.8-15.9,0-22.7l-0.4-0.5v-4h-4l-0.5-0.4c-6.8-4.8-15.9-4.8-22.7,0l-0.5,0.4
	h-4V23.5z M37.3,47.2l0.9-1.8l-2.9-8l-2.9,8l0.9,1.8h-7.9l1.2-1.2c0.5-0.5,0.7-1.2,0.5-1.8L23.6,28c-0.1-0.4-0.3-0.7-0.5-1l-1.6-1.6
	h7.9l-0.7,1.3c-0.2,0.4-0.3,0.9-0.2,1.4l2.2,8.9l4.5-11.6l4.5,11.6l2.2-8.9c0.1-0.5,0.1-0.9-0.1-1.4l-0.7-1.3h7.9L47.6,27
	c-0.3,0.3-0.4,0.6-0.5,1l-3.6,16.2c-0.1,0.7,0.1,1.4,0.5,1.8l1.2,1.2H37.3z"/>
</svg>
