<?xml version="1.0" encoding="utf-8"?>
<!-- Generator: Adobe Illustrator 24.0.0, SVG Export Plug-In . SVG Version: 6.00 Build 0)  -->
<svg version="1.1" id="Layer_1" xmlns="http://www.w3.org/2000/svg" xmlns:xlink="http://www.w3.org/1999/xlink" x="0px" y="0px"
	 viewBox="0 0 500 100" style="enable-background:new 0 0 500 100;" xml:space="preserve">
<style type="text/css">
	.st0{fill:#FF9200;}
	.st1{fill:#FFFFFF;}
</style>
<g>
	<g>
		<path class="st0" d="M119.1,6.9h12.8v85.2h-12.8V80.5H93.4v-6.1h25.7V52.9h-24v-6.1h24v-21H94v-6.1h25.1V6.9z M185.2,80.5h-26.1
			v11.5h-12.8V6.9h12.8v12.9l27.2-0.1l-1.7,6.2h-25.6v21l26.1-0.1l-1.7,6.2h-24.4v21.5h27.8L185.2,80.5z"/>
		<g>
			<polygon class="st1" points="363.9,25.6 388.2,25.6 391.2,18.9 363.9,19 363.9,6.2 351,6.2 351,19 325.8,19 325.8,25.6 
				339.1,25.6 323.4,83.2 323.4,29.9 319.4,29.9 329,6.1 314.9,6.1 299.7,43.9 310.6,43.9 310.6,92.9 323.4,92.9 323.4,86.2 
				335.1,86.2 351,26.1 351,77.9 341.2,77.9 341.2,84.5 351,84.5 351,92.6 363.9,92.6 363.9,84.5 371.5,84.5 374.4,77.9 363.9,77.9 
							"/>
			<polygon class="st1" points="377.6,31.4 364.8,31.4 380.1,86.2 392.4,86.2 			"/>
		</g>
		<path class="st1" d="M474.6,36.6l-1.1-2.4h-61.6L417,19h-13V13h42.9v-7h12.6v7l34.5-0.1l-3,6.2h-60.3l-3,9.1h43.1l-2.4-5.3h13.9
			l6.4,13.8H474.6z M484,93.1h-19.9l-0.9-6.6h8V74.8h-43.4l-1.9,18h-12.7l2.8-23.9V40.3h55.2l-5,6.3h-37.4v7.3h42.4V40.3H484V93.1z
			 M471.2,60.5h-42.4v7.9h42.4V60.5z"/>
		<g>
			<polygon class="st0" points="227.3,27.8 239.7,67.3 252.5,67.3 240.2,27.8 			"/>
			<polygon class="st0" points="206,74.4 196.5,92.8 210.4,92.8 218.9,74.8 218.9,12.8 255.2,12.8 260.2,6.2 206,6.2 			"/>
			<polygon class="st0" points="281,86.2 273,86.2 273,6.2 260.2,6.2 260.2,92.8 277.8,92.8 289.4,93 292.7,62.2 			"/>
		</g>
		<g>
			<g>
				<path class="st1" d="M23.4,74.4l-0.6,4.5H11.3L11.1,81h6l-0.6,4.5h-6l-0.9,6.6H5l2.3-17.6H23.4z"/>
				<path class="st1" d="M41.8,74.4l-0.6,4.5H30.5L30.2,81H36l-0.6,4.5h-5.7l-0.9,6.6h-4.9l2.3-17.6H41.8z"/>
				<path class="st1" d="M58.7,78.9h-5.2l-1.7,13.2h-4.2l1.7-13.2h-5.3l0.6-4.5h14.6L58.7,78.9z"/>
				<path class="st1" d="M78.8,74.4l-7.5,10.3l-1,7.3h-4.5l1-7.7l-5.6-9.9H67l2.6,5.1l3.7-5.1H78.8z"/>
			</g>
		</g>
		<path class="st0" d="M64.3,27.9C57.9,21.1,42.3,7.9,42.3,7.9S26.7,21.1,20.2,27.9c-3.5,3.7-5.2,8.5-4.8,13.5
			c0.3,4.6,2.5,8.9,5.7,11.4c3.3,2.6,6.7,3.5,10,3.5c4.5,0,8.6-1.9,11.3-3.7c4.5,3.2,13.3,6.4,21.2,0.2c3.2-2.5,5.3-6.8,5.7-11.4
			C69.5,36.4,67.8,31.6,64.3,27.9z"/>
		<path class="st0" d="M42.3,55.1c-3.7,6.1-10.1,5.2-10.1,5.2v3h10.1h10.1v-3C52.4,60.3,46,61.2,42.3,55.1z"/>
	</g>
	<path class="st1" d="M52.5,47.5H32v-1.8h20.5V47.5z M52.5,44.1H32l-6.8-14.4l7.5,5.6c-0.3,0.3-0.4,0.7-0.4,1.1c0,1,0.8,1.7,1.8,1.7
		c0.9,0,1.6-0.7,1.7-1.6c0.3,0.6,0.9,1,1.6,1c1,0,1.9-0.8,1.9-1.9c0-0.6-0.3-1.2-0.8-1.5l3.7-7.1l3.7,7.1c-0.5,0.3-0.8,0.9-0.8,1.5
		c0,1,0.8,1.9,1.9,1.9c0.7,0,1.3-0.4,1.6-1c0.1,0.9,0.8,1.6,1.7,1.6c1,0,1.8-0.8,1.8-1.7c0-0.4-0.1-0.8-0.4-1.1l7.5-5.6L52.5,44.1z"
		/>
</g>
</svg>
