<?xml version="1.0" encoding="utf-8"?>
<!-- Generator: Adobe Illustrator 23.1.1, SVG Export Plug-In . SVG Version: 6.00 Build 0)  -->
<svg version="1.1" id="Layer_1" xmlns="http://www.w3.org/2000/svg" xmlns:xlink="http://www.w3.org/1999/xlink" x="0px" y="0px"
	 width="100px" height="100px" viewBox="0 0 100 100" style="enable-background:new 0 0 100 100;" xml:space="preserve">
<style type="text/css">
	.st0{fill:#7E7E7E;}
</style>
<path class="st0" d="M95,5H5c-2.76141,0-5,2.23859-5,5v66c0,2.76141,2.23859,5,5,5h35v9H11v5h78v-5H60v-9h35
	c2.76141,0,5-2.23859,5-5V10C100,7.23859,97.76141,5,95,5z M30.94977,56.41418h-9.52179h-5.4411V30.56921h5.4411v20.40393h9.52179
	V56.41418z M40.47162,56.41418h-5.44104V30.56921h5.44104V56.41418z M59.51526,56.41418h-2.72052h-4.08075h-2.72052
	l-5.44104-25.84497h6.80127l3.4007,16.15314l3.40063-16.15314h6.80133L59.51526,56.41418z M84,36.01025h-9.52185v4.08081H84v5.44104
	h-9.52185v5.44104H84v5.44104h-9.52185h-5.44104V30.56921h5.44104H84V36.01025z"/>
</svg>
