<?xml version="1.0" encoding="utf-8"?>
<!-- Generator: Adobe Illustrator 23.0.2, SVG Export Plug-In . SVG Version: 6.00 Build 0)  -->
<svg version="1.1" id="Layer_1" xmlns="http://www.w3.org/2000/svg" xmlns:xlink="http://www.w3.org/1999/xlink" x="0px" y="0px"
	 viewBox="0 0 100 100" style="enable-background:new 0 0 100 100;" xml:space="preserve">
<style type="text/css">
	.st0{fill:#272626;}
	.st1{fill:url(#XMLID_8_);}
	.st2{fill:url(#XMLID_9_);}
	.st3{fill:url(#XMLID_10_);}
	.st4{fill:#FFFFFF;}
</style>
<rect id="XMLID_1_" class="st0" width="100" height="100"/>
<g id="XMLID_464_">
	<linearGradient id="XMLID_8_" gradientUnits="userSpaceOnUse" x1="26.7722" y1="17.4944" x2="26.7722" y2="49.5213">
		<stop  offset="0" style="stop-color:#FFD10A"/>
		<stop  offset="1" style="stop-color:#F7941D"/>
	</linearGradient>
	<path id="XMLID_504_" class="st1" d="M40.03,37.81c0,4.25-1.1,7.38-3.31,9.39c-1.68,1.55-3.85,2.32-6.5,2.32
		c-3.2,0-5.49-1.39-6.87-4.18h-0.17v3.68h-9.68V17.49h10.43v12.62c1.52-2.18,3.72-3.27,6.62-3.27c2.62,0,4.77,0.81,6.45,2.44
		C39.03,31.22,40.03,34.06,40.03,37.81z M28.86,37.89c0-1.19-0.14-2.15-0.41-2.9c-0.41-1.13-1.14-1.7-2.19-1.7
		c-1.05,0-1.78,0.55-2.19,1.66c-0.28,0.72-0.41,1.7-0.41,2.94c0,1.19,0.14,2.15,0.41,2.9c0.41,1.13,1.14,1.7,2.19,1.7
		c1.05,0,1.78-0.55,2.19-1.66C28.72,40.11,28.86,39.14,28.86,37.89z"/>
	<linearGradient id="XMLID_9_" gradientUnits="userSpaceOnUse" x1="53.9578" y1="26.846" x2="53.9578" y2="49.5213">
		<stop  offset="0" style="stop-color:#FFD10A"/>
		<stop  offset="1" style="stop-color:#F7941D"/>
	</linearGradient>
	<path id="XMLID_482_" class="st2" d="M66.35,40.71H51.87c0,0.94,0.33,1.7,0.99,2.28c0.91,0.77,2.34,1.16,4.3,1.16
		c1.3,0,2.5-0.11,3.6-0.33c1.1-0.22,2.44-0.61,4.01-1.16v5.63c-1.55,0.41-3.19,0.72-4.92,0.93c-1.74,0.21-3.35,0.31-4.84,0.31
		c-5.05,0-8.7-1.38-10.97-4.14c-1.66-2.01-2.48-4.54-2.48-7.57c0-3.34,1.16-6,3.48-7.99c2.32-1.99,5.34-2.98,9.06-2.98
		c3.31,0,6.01,0.77,8.11,2.32c2.76,2.04,4.14,5.27,4.14,9.68V40.71z M57.25,36.28v-0.37c0-1.38-0.3-2.41-0.91-3.1
		c-0.47-0.52-1.06-0.79-1.78-0.79c-0.63,0-1.17,0.19-1.61,0.58c-0.72,0.63-1.08,1.72-1.08,3.27v0.41H57.25z"/>
	<linearGradient id="XMLID_10_" gradientUnits="userSpaceOnUse" x1="77.0759" y1="18.9324" x2="77.0759" y2="49.5213">
		<stop  offset="0" style="stop-color:#FFD10A"/>
		<stop  offset="1" style="stop-color:#F7941D"/>
	</linearGradient>
	<path id="XMLID_465_" class="st3" d="M86.49,48.4c-0.83,0.3-1.63,0.54-2.4,0.7c-1.3,0.28-2.66,0.41-4.1,0.41
		c-3.45,0-5.85-0.93-7.2-2.78c-0.97-1.33-1.45-3.22-1.45-5.68v-7.51h-3.68v-6.21h3.68v-5.3l10.43-3.11v8.41h4.72v6.21h-4.72v6.15
		c0,0.94,0.2,1.66,0.6,2.14c0.4,0.48,1,0.73,1.8,0.73c0.3,0,0.63-0.03,0.97-0.08c0.34-0.05,0.79-0.17,1.34-0.33V48.4z"/>
</g>
<g id="XMLID_326_">
	<path id="XMLID_459_" class="st4" d="M35.4,74.99c0,2.14-0.79,3.9-2.38,5.27c-2.22,1.93-5.76,2.89-10.63,2.89
		c-1.3,0-2.64-0.08-4.04-0.24c-1.4-0.16-3.01-0.46-4.84-0.91v-6.46c1.16,0.34,2.38,0.63,3.65,0.85c1.27,0.22,2.39,0.34,3.37,0.34
		c1.72,0,2.95-0.33,3.69-0.99c0.48-0.42,0.71-0.92,0.71-1.51c0-0.92-0.38-1.61-1.15-2.06c-0.77-0.45-1.84-0.67-3.21-0.67H17v-5.71
		h3.53c1.4,0,2.42-0.23,3.07-0.69c0.65-0.46,0.97-1.01,0.97-1.65c0-0.77-0.25-1.37-0.75-1.82c-0.77-0.66-2.04-0.99-3.81-0.99
		c-1,0-2.04,0.1-3.09,0.3c-1.06,0.2-2.1,0.46-3.13,0.77v-6.19c1.48-0.37,2.95-0.64,4.42-0.81c1.47-0.17,2.8-0.26,3.98-0.26
		c4.7,0,8.15,0.91,10.35,2.74c1.64,1.37,2.46,3.07,2.46,5.08c0,1.45-0.46,2.76-1.39,3.93c-0.93,1.16-2.25,1.94-3.96,2.34
		c1.85,0.37,3.27,1.14,4.26,2.3C34.9,71.99,35.4,73.38,35.4,74.99z"/>
	<path id="XMLID_448_" class="st4" d="M58.76,74.99c0,2.14-0.79,3.9-2.38,5.27c-2.22,1.93-5.76,2.89-10.63,2.89
		c-1.3,0-2.64-0.08-4.04-0.24c-1.4-0.16-3.01-0.46-4.84-0.91v-6.46c1.16,0.34,2.38,0.63,3.65,0.85c1.27,0.22,2.39,0.34,3.37,0.34
		c1.72,0,2.95-0.33,3.69-0.99c0.48-0.42,0.71-0.92,0.71-1.51c0-0.92-0.38-1.61-1.15-2.06c-0.77-0.45-1.84-0.67-3.21-0.67h-3.57
		v-5.71h3.53c1.4,0,2.42-0.23,3.07-0.69c0.65-0.46,0.97-1.01,0.97-1.65c0-0.77-0.25-1.37-0.75-1.82c-0.77-0.66-2.04-0.99-3.81-0.99
		c-1,0-2.04,0.1-3.09,0.3c-1.06,0.2-2.1,0.46-3.13,0.77v-6.19c1.48-0.37,2.95-0.64,4.42-0.81c1.47-0.17,2.8-0.26,3.98-0.26
		c4.7,0,8.15,0.91,10.35,2.74c1.64,1.37,2.46,3.07,2.46,5.08c0,1.45-0.46,2.76-1.39,3.93c-0.93,1.16-2.25,1.94-3.96,2.34
		c1.85,0.37,3.27,1.14,4.26,2.3C58.26,71.99,58.76,73.38,58.76,74.99z"/>
	<path id="XMLID_413_" class="st4" d="M86.49,74.95c0,2.11-0.81,3.87-2.42,5.27c-2.25,1.96-5.82,2.93-10.71,2.93
		c-4.92,0-8.48-0.96-10.71-2.89c-1.61-1.4-2.42-3.17-2.42-5.31c0-1.82,0.61-3.29,1.82-4.4c0.98-0.9,2.26-1.52,3.85-1.86v-0.16
		c-1.56-0.4-2.78-1.18-3.67-2.36c-0.89-1.18-1.33-2.53-1.33-4.06c0-2.38,1.12-4.25,3.35-5.61c2.23-1.36,5.27-2.04,9.1-2.04
		c3.83,0,6.82,0.65,8.96,1.94c2.33,1.4,3.49,3.3,3.49,5.71c0,1.51-0.45,2.85-1.35,4.04c-0.9,1.19-2.11,1.98-3.65,2.38v0.16
		c1.69,0.32,3.06,1.06,4.1,2.24C85.97,72.1,86.49,73.44,86.49,74.95z M76.5,73.76c0-1.03-0.28-1.88-0.85-2.56
		c-0.57-0.67-1.33-1.01-2.28-1.01c-0.93,0-1.68,0.33-2.26,0.99c-0.58,0.66-0.87,1.52-0.87,2.58c0,1.03,0.28,1.88,0.85,2.56
		c0.57,0.67,1.33,1.01,2.28,1.01c0.92,0,1.68-0.33,2.26-0.99C76.21,75.68,76.5,74.82,76.5,73.76z M76.22,62.94
		c0-1-0.29-1.78-0.87-2.34c-0.58-0.56-1.24-0.83-1.98-0.83c-0.77,0-1.43,0.27-2,0.81c-0.57,0.54-0.85,1.33-0.85,2.36
		c0,1,0.29,1.78,0.87,2.34c0.58,0.56,1.24,0.83,1.98,0.83c0.77,0,1.43-0.27,2-0.81C75.94,64.76,76.22,63.97,76.22,62.94z"/>
</g>
</svg>
