<svg id="Layer_1" data-name="Layer 1" xmlns="http://www.w3.org/2000/svg" viewBox="0 0 1245 287"><defs><style>.cls-1{fill:#f18f1d;}.cls-2{fill:#fff;}</style></defs><path class="cls-1" d="M101.1,287a114.1,114.1,0,0,1-36.8-6.1,103.7,103.7,0,0,1-32.4-17.6A87.8,87.8,0,0,1,8.8,235.7C2.9,224.8,0,212.7,0,199.2a81.3,81.3,0,0,1,10.7-41.4c7.1-12.3,17.9-21.6,32.4-27.7-8.9-6.8-15.6-14.3-20.2-22.5S16,89.7,16,78.2a73.2,73.2,0,0,1,6.9-32A71.5,71.5,0,0,1,41.4,21.8,85.3,85.3,0,0,1,68.3,6.3,93.4,93.4,0,0,1,100.4.8,93.6,93.6,0,0,1,132,6.1a86.9,86.9,0,0,1,27.1,15.3,70.7,70.7,0,0,1,18.7,24.2,72.5,72.5,0,0,1,6.9,31.9c0,11.7-2.3,21.7-6.9,29.9s-11.2,15.9-19.8,22.7c14.5,6.1,25.2,15.4,32.2,27.7s10.5,26.1,10.5,41.4c0,13.5-2.8,25.6-8.6,36.5a86.6,86.6,0,0,1-22.7,27.6,102.8,102.8,0,0,1-32,17.6A111.5,111.5,0,0,1,101.1,287Zm-.7-125.2c-8.9,0-16.2,3-21.8,9s-8.4,13.4-8.4,22.3,2.9,16.4,8.8,22.5,13.4,9.2,22.5,9.2a25.3,25.3,0,0,0,11.5-2.7,32,32,0,0,0,9.3-7.1,29.8,29.8,0,0,0,6.1-9.9,32.2,32.2,0,0,0,2.1-11.6,31.4,31.4,0,0,0-8.6-22.3A27.8,27.8,0,0,0,100.4,161.8Zm.7-104.6a25.4,25.4,0,0,0-18.7,7.7,24.4,24.4,0,0,0-7.6,17.9c0,7.4,2.3,13.4,7.1,18.1S92.5,108,99.6,108s13.9-2.5,18.9-7.4a25.1,25.1,0,0,0,7.4-18.5,23.5,23.5,0,0,0-7.4-17.4A23.9,23.9,0,0,0,101.1,57.2Z"/><path class="cls-1" d="M316.7,287a114.1,114.1,0,0,1-36.8-6.1,103.7,103.7,0,0,1-32.4-17.6,87.8,87.8,0,0,1-23.1-27.6c-5.9-10.9-8.8-23-8.8-36.5a81.3,81.3,0,0,1,10.7-41.4c7.1-12.3,17.9-21.6,32.4-27.7-8.9-6.8-15.6-14.3-20.2-22.5s-6.9-17.9-6.9-29.4A73.2,73.2,0,0,1,257,21.8,85.3,85.3,0,0,1,283.9,6.3,93.4,93.4,0,0,1,316,.8a94.6,94.6,0,0,1,31.7,5.3,88.1,88.1,0,0,1,27.1,15.3,71.2,71.2,0,0,1,25.5,56.1c0,11.7-2.3,21.7-6.8,29.9a75.3,75.3,0,0,1-19.9,22.7c14.5,6.1,25.3,15.4,32.3,27.7s10.5,26.1,10.5,41.4a77.4,77.4,0,0,1-8.6,36.5,89.3,89.3,0,0,1-22.7,27.6A103.3,103.3,0,0,1,353,280.9,111.1,111.1,0,0,1,316.7,287ZM316,161.8c-8.9,0-16.2,3-21.8,9s-8.4,13.4-8.4,22.3a31.5,31.5,0,0,0,8.8,22.5c5.9,6.1,13.4,9.2,22.5,9.2a25.3,25.3,0,0,0,11.5-2.7,30.7,30.7,0,0,0,9.3-7.1,29.8,29.8,0,0,0,6.1-9.9,32.2,32.2,0,0,0,2.1-11.6,31.4,31.4,0,0,0-8.6-22.3A27.8,27.8,0,0,0,316,161.8Zm.7-104.6A25.6,25.6,0,0,0,298,64.9a24.8,24.8,0,0,0-7.6,17.9c0,7.4,2.4,13.4,7.1,18.1s10.6,7.1,17.7,7.1,13.9-2.5,18.9-7.4a25.2,25.2,0,0,0,7.5-18.5,23.6,23.6,0,0,0-7.5-17.4C329.1,59.7,323.4,57.2,316.7,57.2Z"/><path class="cls-1" d="M603.5,92a74.4,74.4,0,0,1,25.4,20.8,90.6,90.6,0,0,1,15.5,30.5,128.6,128.6,0,0,1,5.1,36.4,108.1,108.1,0,0,1-8.4,43A103,103,0,0,1,618,256.6,104.8,104.8,0,0,1,583.3,279a115.2,115.2,0,0,1-42.9,8,123.5,123.5,0,0,1-44.5-7.8A104.4,104.4,0,0,1,460.6,257a101.7,101.7,0,0,1-23.3-34.3c-5.6-13.4-8.4-28.3-8.4-44.9a108.8,108.8,0,0,1,7.3-39.3,185.2,185.2,0,0,1,18.7-35.8L525.1,0h83.2L505.6,164.5a17.7,17.7,0,0,0-1.5,2.8,19.2,19.2,0,0,1-1.5,2.9c-.8,2.6-1.4,5-1.9,7.3a30.8,30.8,0,0,0-.8,6.8c0,11,3.5,20.3,10.5,28.1S526.6,224,538.1,224a41,41,0,0,0,15.2-2.8,37.4,37.4,0,0,0,12.6-8.1,38,38,0,0,0,8.6-12.2,35.8,35.8,0,0,0,3.3-15.4c0-11.2-3.9-20.4-11.7-27.5a40,40,0,0,0-28-10.7,44.9,44.9,0,0,0-12.2,1.9l42.7-64.9C581.8,84.3,593.5,86.9,603.5,92Z"/><path class="cls-1" d="M766.7,287a113.2,113.2,0,0,1-36.8-6.1,105.3,105.3,0,0,1-32.5-17.6,90.6,90.6,0,0,1-23.1-27.6,76.3,76.3,0,0,1-8.8-36.5,81.3,81.3,0,0,1,10.7-41.4c7.2-12.3,18-21.6,32.5-27.7-8.9-6.8-15.7-14.3-20.3-22.5s-6.8-17.9-6.8-29.4a74.6,74.6,0,0,1,6.8-32A71.7,71.7,0,0,1,707,21.8,84.2,84.2,0,0,1,733.9,6.3a92.4,92.4,0,0,1,32-5.5,94.2,94.2,0,0,1,31.7,5.3,86.9,86.9,0,0,1,27.1,15.3,71.6,71.6,0,0,1,25.6,56.1c0,11.7-2.3,21.7-6.9,29.9a75.3,75.3,0,0,1-19.9,22.7c14.5,6.1,25.3,15.4,32.3,27.7s10.5,26.1,10.5,41.4a77.4,77.4,0,0,1-8.6,36.5A88,88,0,0,1,835,263.3a102.2,102.2,0,0,1-32.1,17.6A110.5,110.5,0,0,1,766.7,287Zm-.8-125.2c-8.9,0-16.1,3-21.7,9s-8.4,13.4-8.4,22.3,2.9,16.4,8.7,22.5,13.4,9.2,22.6,9.2a25.2,25.2,0,0,0,11.4-2.7,31.1,31.1,0,0,0,9.4-7.1,31.5,31.5,0,0,0,6.1-9.9,32.2,32.2,0,0,0,2.1-11.6,31.8,31.8,0,0,0-8.6-22.3A27.8,27.8,0,0,0,765.9,161.8Zm.8-104.6A25.4,25.4,0,0,0,748,64.9a24.5,24.5,0,0,0-7.7,17.9c0,7.4,2.4,13.4,7.1,18.1S758,108,765.2,108s13.9-2.5,18.8-7.4a25.2,25.2,0,0,0,7.5-18.5A23.6,23.6,0,0,0,784,64.7,23.5,23.5,0,0,0,766.7,57.2Z"/><path class="cls-2" d="M943.7,85.3l-8.3,43H941V257.4H904.5V166.3H891.4l15.5-81Zm80.2,0v19.8h39.4v13.8h-10l10,135.2h-26.5l-1.1-15.2h-11.8v18.7H985.6V238.9H974l-1.1,15.2H946.4l9.7-135.2h-9.7V105.1h39.2V85.3Zm-49,139.8h10.7V118.9h-2.9Zm49,0h10.7l-7.8-106.2h-2.9Z"/><path class="cls-2" d="M1180.6,86V98.2H1245v13.6h-97.1l-16,24.2h57a3.2,3.2,0,0,0,3.1-1.9,3,3,0,0,0-.4-3.6l-8.7-11.8h45.2l8.7,11.6a12,12,0,0,1,1.3,12.7,12.1,12.1,0,0,1-10.9,6.7H1077.7l25.2-37.9h-30V98.2h64.5V86Zm7,156.9a5.1,5.1,0,0,0,5.1-5.1v-9.5h-67.5v28.4H1082V158.5h153.7v80.9a17.3,17.3,0,0,1-17.2,17.3h-45.4V242.9Zm-62.4-70.8v13.8h67.5V172.1Zm0,42.4h67.5V199.7h-67.5Z"/></svg>