<svg xmlns="http://www.w3.org/2000/svg" width="310" height="61.233" viewBox="0 0 310 61.233">
  <g id="logo" transform="translate(1003.373 -275.477)">
    <path id="Path_1" data-name="Path 1" d="M-946.707,306.677c.145,0,.289-.008.435-.012s.289.012.435.012c.11,0,.217-.015.328-.018l-3.037-.1A15.877,15.877,0,0,0-946.707,306.677Z" transform="translate(29.103 16.5)" fill="#0c186c" opacity="0.27"/>
    <path id="Path_2" data-name="Path 2" d="M-946.707,306.677c.145,0,.289-.008.435-.012s.289.012.435.012c.11,0,.217-.015.328-.018l-3.037-.1A15.877,15.877,0,0,0-946.707,306.677Z" transform="translate(29.103 16.5)" fill="#0c186c" opacity="0.27"/>
    <path id="Path_3" data-name="Path 3" d="M-946.032,306.653l.034-.047c-.188.011-.375.026-.565.029Z" transform="translate(30.156 16.524)" fill="#0c186c"/>
    <path id="Path_4" data-name="Path 4" d="M-948.594,306.562l.072,0-.063-.011Z" transform="translate(29.078 16.496)" fill="#0c186c"/>
    <path id="Path_5" data-name="Path 5" d="M-938.252,325.113h17.163V297.325Z" transform="translate(34.568 11.597)" fill="#0c186c"/>
    <g id="Group_1" data-name="Group 1" transform="translate(-1003.373 275.477)">
      <path id="Path_6" data-name="Path 6" d="M-952.092,275.477v61.146h-15.573V312.165H-987.8v24.458h-15.571V275.477H-987.8V298.55h20.137v-9.376H-975.9v-13.7h23.807Z" transform="translate(1003.373 -275.477)" fill="#0c186c"/>
      <path id="Path_7" data-name="Path 7" d="M-905.108,301.893l-20.545,33.018a31.234,31.234,0,0,1-5.055,1.264,33.717,33.717,0,0,1-5.545.447,31.048,31.048,0,0,1-6.847-.733,30.3,30.3,0,0,1-9.744-3.913,31.556,31.556,0,0,1-7.7-6.727,30.516,30.516,0,0,1-5.095-8.928,30.374,30.374,0,0,1-1.835-10.6,29.325,29.325,0,0,1,2.487-12.149,29.419,29.419,0,0,1,6.808-9.58,31.34,31.34,0,0,1,10.028-6.278,33.139,33.139,0,0,1,12.228-2.241,31.143,31.143,0,0,1,7.256.856,32.709,32.709,0,0,1,6.889,2.486,32.647,32.647,0,0,1,6.2,4,28.024,28.024,0,0,1,5.013,5.3,25.846,25.846,0,0,1,4,8.153H-923.37a15.455,15.455,0,0,0-5.462-5.667,14.357,14.357,0,0,0-7.5-2,15.358,15.358,0,0,0-6.563,1.385,15.886,15.886,0,0,0-5.1,3.709,16.763,16.763,0,0,0-3.3,5.462,18.47,18.47,0,0,0-1.182,6.564,20.19,20.19,0,0,0,1.142,6.808,17.327,17.327,0,0,0,3.219,5.624,15.366,15.366,0,0,0,5.055,3.833,15.371,15.371,0,0,0,6.726,1.427,8.942,8.942,0,0,0,.9-.041,8.054,8.054,0,0,1,.814-.041l6.442-9.375h-11.578V301.893h34.65Z" transform="translate(1022.427 -275.477)" fill="#0c186c"/>
    </g>
    <g id="Group_2" data-name="Group 2" transform="translate(-882.845 275.639)">
      <path id="Path_8" data-name="Path 8" d="M-914.938,316.918a15.818,15.818,0,0,1-5.34-4.4,19.414,19.414,0,0,1-3.26-6.44,26.774,26.774,0,0,1-1.1-7.746,22.823,22.823,0,0,1,1.792-9.131,21.824,21.824,0,0,1,4.932-7.173,22.909,22.909,0,0,1,7.379-4.729,24.358,24.358,0,0,1,9.212-1.713,25.8,25.8,0,0,1,9.376,1.672,22.186,22.186,0,0,1,7.46,4.687,21.53,21.53,0,0,1,4.932,7.3,24.135,24.135,0,0,1,1.794,9.416,23.036,23.036,0,0,1-1.549,8.4,37.41,37.41,0,0,1-4,7.582l-14.756,21.931h-17.774l21.851-35.057a4.911,4.911,0,0,1,.326-.57,3.8,3.8,0,0,0,.326-.654,4.163,4.163,0,0,0,.407-1.425,15.369,15.369,0,0,0,.081-1.591,8.391,8.391,0,0,0-2.241-5.871,7.452,7.452,0,0,0-5.748-2.445,8.4,8.4,0,0,0-5.952,2.282,7.577,7.577,0,0,0-2.446,5.788,7.829,7.829,0,0,0,2.406,5.952,8.353,8.353,0,0,0,5.992,2.282,9,9,0,0,0,2.527-.407l-9.213,13.7A16.033,16.033,0,0,1-914.938,316.918Z" transform="translate(924.639 -275.583)" fill="#0c186c"/>
      <path id="Path_9" data-name="Path 9" d="M-870.495,336.566a27.424,27.424,0,0,1-5.055-.488,26.058,26.058,0,0,1-5.095-1.508A21.7,21.7,0,0,1-885.25,332a13.965,13.965,0,0,1-3.505-3.669,17.287,17.287,0,0,1-2.284-5.055A49.448,49.448,0,0,1-892.1,317.9h15.246a7.194,7.194,0,0,0,2.284,4.077,6.646,6.646,0,0,0,4.484,1.468,5.928,5.928,0,0,0,4.729-1.875,7.068,7.068,0,0,0,1.63-4.81,5,5,0,0,0-1.385-3.873,7.317,7.317,0,0,0-3.424-1.711,17.257,17.257,0,0,0-4.322-.367q-2.282.083-4,.081V299.8q1.63,0,3.385-.081a10.847,10.847,0,0,0,3.219-.612,5.185,5.185,0,0,0,2.406-1.753,5.527,5.527,0,0,0,.937-3.424,6.844,6.844,0,0,0-.978-3.587,3.424,3.424,0,0,0-3.18-1.63,4.065,4.065,0,0,0-3.547,1.427,6.089,6.089,0,0,0-1.02,3.628h-14.838a18.764,18.764,0,0,1,1.672-7.7,16.716,16.716,0,0,1,4.322-5.707,19.133,19.133,0,0,1,6.359-3.547,24.238,24.238,0,0,1,7.786-1.223,22.31,22.31,0,0,1,6.768,1.061,17.919,17.919,0,0,1,5.911,3.138,16.357,16.357,0,0,1,4.158,5.055,14.062,14.062,0,0,1,1.589,6.726,12.948,12.948,0,0,1-2,7.379,15.7,15.7,0,0,1-5.828,5.013,17.022,17.022,0,0,1,8.112,5.177,13.538,13.538,0,0,1,2.976,9.009,15.424,15.424,0,0,1-1.917,7.663,18.459,18.459,0,0,1-5.055,5.79,24.439,24.439,0,0,1-7.053,3.668A24.579,24.579,0,0,1-870.495,336.566Z" transform="translate(941.912 -275.583)" fill="#0c186c"/>
      <path id="Path_10" data-name="Path 10" d="M-852.094,316.918a15.819,15.819,0,0,1-5.339-4.4,19.417,19.417,0,0,1-3.261-6.44,26.778,26.778,0,0,1-1.1-7.746A22.823,22.823,0,0,1-860,289.2a21.8,21.8,0,0,1,4.934-7.173,22.885,22.885,0,0,1,7.377-4.729,24.365,24.365,0,0,1,9.214-1.713,25.8,25.8,0,0,1,9.375,1.672,22.184,22.184,0,0,1,7.46,4.687,21.55,21.55,0,0,1,4.934,7.3,24.157,24.157,0,0,1,1.793,9.416,23.036,23.036,0,0,1-1.549,8.4,37.489,37.489,0,0,1-3.994,7.582l-14.757,21.931H-852.99l21.849-35.057a4.876,4.876,0,0,1,.326-.57,3.692,3.692,0,0,0,.326-.654,4.166,4.166,0,0,0,.407-1.425A15.437,15.437,0,0,0-830,297.27a8.391,8.391,0,0,0-2.241-5.871,7.452,7.452,0,0,0-5.748-2.445,8.407,8.407,0,0,0-5.952,2.282,7.575,7.575,0,0,0-2.445,5.788,7.828,7.828,0,0,0,2.4,5.952,8.355,8.355,0,0,0,5.992,2.282,9,9,0,0,0,2.527-.407l-9.213,13.7A16.034,16.034,0,0,1-852.094,316.918Z" transform="translate(957.998 -275.583)" fill="#0c186c"/>
      <path id="Path_11" data-name="Path 11" d="M-807.649,336.566a27.42,27.42,0,0,1-5.055-.488,26.031,26.031,0,0,1-5.1-1.508A21.724,21.724,0,0,1-822.406,332a13.966,13.966,0,0,1-3.506-3.669,17.239,17.239,0,0,1-2.282-5.055,49.383,49.383,0,0,1-1.061-5.381h15.247a7.192,7.192,0,0,0,2.282,4.077,6.649,6.649,0,0,0,4.484,1.468,5.928,5.928,0,0,0,4.729-1.875,7.076,7.076,0,0,0,1.63-4.81,5,5,0,0,0-1.385-3.873,7.308,7.308,0,0,0-3.424-1.711,17.257,17.257,0,0,0-4.322-.367q-2.282.083-3.994.081V299.8q1.63,0,3.383-.081a10.863,10.863,0,0,0,3.221-.612A5.18,5.18,0,0,0-805,297.351a5.529,5.529,0,0,0,.937-3.424,6.844,6.844,0,0,0-.978-3.587,3.422,3.422,0,0,0-3.18-1.63,4.067,4.067,0,0,0-3.547,1.427,6.091,6.091,0,0,0-1.02,3.628h-14.838a18.756,18.756,0,0,1,1.672-7.7,16.732,16.732,0,0,1,4.321-5.707,19.134,19.134,0,0,1,6.359-3.547,24.242,24.242,0,0,1,7.785-1.223,22.3,22.3,0,0,1,6.768,1.061,17.917,17.917,0,0,1,5.91,3.138,16.357,16.357,0,0,1,4.158,5.055,14.043,14.043,0,0,1,1.589,6.726,12.946,12.946,0,0,1-2,7.379,15.669,15.669,0,0,1-5.828,5.013,17.014,17.014,0,0,1,8.112,5.177,13.537,13.537,0,0,1,2.976,9.009,15.424,15.424,0,0,1-1.917,7.663,18.491,18.491,0,0,1-5.053,5.79,24.465,24.465,0,0,1-7.054,3.668A24.577,24.577,0,0,1-807.649,336.566Z" transform="translate(975.271 -275.583)" fill="#0c186c"/>
    </g>
  </g>
</svg>
