<svg version="1.1" id="Layer_1" xmlns="http://www.w3.org/2000/svg" x="0" y="0" viewBox="0 0 151 35" xml:space="preserve"><style>.st3{fill:#262626}</style><g id="Group_88" transform="translate(-55.339 -235.743)"><g id="Group_86" transform="translate(55.339 235.743)"><linearGradient id="Path_134_1_" gradientUnits="userSpaceOnUse" x1="37.055" y1="56.111" x2="37.055" y2="55.111" gradientTransform="matrix(25.949 0 0 -31.3437 -946.172 1760.756)"><stop offset="0" stop-color="#fed109"/><stop offset="1" stop-color="#f7931e"/></linearGradient><path id="Path_134" d="M28.35 21.92c0 4.16-1.08 7.22-3.24 9.19a9.048 9.048 0 01-6.36 2.27 6.95 6.95 0 01-6.72-4.09h-.16v3.6H2.4V2.04h10.2v12.35a7.41 7.41 0 016.48-3.2c2.34-.09 4.62.78 6.32 2.39 1.96 1.89 2.95 4.67 2.95 8.34zM17.42 22c.03-.96-.1-1.92-.4-2.83a2.229 2.229 0 00-2.72-1.59c-.76.2-1.36.79-1.58 1.55-.54 1.86-.54 3.84 0 5.71.31 1.19 1.53 1.9 2.72 1.59.76-.2 1.36-.79 1.57-1.55.31-.94.45-1.91.41-2.88z" fill="url(#Path_134_1_)"/><linearGradient id="Path_135_1_" gradientUnits="userSpaceOnUse" x1="37.652" y1="50.799" x2="37.652" y2="49.799" gradientTransform="matrix(24.2561 0 0 -22.1965 -871.332 1138.727)"><stop offset="0" stop-color="#fed109"/><stop offset="1" stop-color="#f7931e"/></linearGradient><path id="Path_135" d="M54.1 24.75H39.93c-.03.85.33 1.67.97 2.23a6.38 6.38 0 004.21 1.13c1.18.01 2.36-.1 3.52-.32 1.33-.29 2.65-.67 3.93-1.13v5.51c-1.58.42-3.19.72-4.82.91-1.57.19-3.15.29-4.74.3-4.94 0-8.51-1.35-10.73-4.05-1.66-2.1-2.53-4.73-2.43-7.41a9.754 9.754 0 013.4-7.81c2.5-2.02 5.65-3.06 8.86-2.91 2.82-.12 5.6.67 7.93 2.27 2.7 2 4.05 5.16 4.05 9.47v1.81zm-8.91-4.34v-.37c.08-1.09-.23-2.17-.89-3.04-.44-.5-1.08-.79-1.74-.77-.58-.02-1.14.19-1.58.57-.79.87-1.18 2.03-1.05 3.2v.4l5.26.01z" fill="url(#Path_135_1_)"/><linearGradient id="Path_136_1_" gradientUnits="userSpaceOnUse" x1="40.555" y1="55.501" x2="40.555" y2="54.501" gradientTransform="matrix(18.415 0 0 -29.9283 -682.236 1664.493)"><stop offset="0" stop-color="#fed109"/><stop offset="1" stop-color="#f7931e"/></linearGradient><path id="Path_136" d="M73.8 32.28c-.77.28-1.55.51-2.35.69-1.32.27-2.66.41-4.01.4-3.37 0-5.72-.91-7.04-2.72a9.386 9.386 0 01-1.42-5.56v-7.35h-3.6v-6.07h3.6V6.48l10.2-3.04v8.23h4.61v6.07h-4.61v6.02c-.05.75.15 1.49.59 2.1.44.5 1.1.76 1.76.71.32 0 .64-.03.95-.08.44-.08.88-.19 1.32-.32v6.11z" fill="url(#Path_136_1_)"/></g><g id="Group_87" transform="translate(128.486 237.767)"><path id="Path_137" class="st3" d="M24.75 23.01c.05 2.07-.84 4.05-2.43 5.38-2.27 1.97-5.88 2.95-10.85 2.95-1.38 0-2.76-.08-4.13-.24-1.66-.2-3.31-.52-4.94-.93v-6.6c1.22.36 2.47.65 3.72.87 1.14.21 2.29.33 3.44.34a5.64 5.64 0 003.76-1.01c.46-.38.73-.94.73-1.54.04-.87-.41-1.69-1.17-2.11a6.538 6.538 0 00-3.28-.69H5.96V13.6h3.6c1.09.08 2.19-.16 3.14-.71.59-.35.97-.99.99-1.68.03-.7-.25-1.39-.77-1.86a5.897 5.897 0 00-3.89-1.01c-1.06 0-2.12.1-3.16.3-1.08.2-2.15.47-3.2.79v-6.3c1.49-.37 3-.65 4.52-.83 1.35-.17 2.71-.25 4.07-.26 4.8 0 8.32.93 10.57 2.79a6.509 6.509 0 012.51 5.18c.01 1.46-.49 2.88-1.42 4.01a6.994 6.994 0 01-4.05 2.39c1.68.26 3.21 1.09 4.35 2.35a6.3 6.3 0 011.53 4.25z"/><path id="Path_138" class="st3" d="M48.6 23.01c.05 2.07-.84 4.05-2.43 5.38-2.27 1.97-5.88 2.95-10.85 2.95-1.38 0-2.76-.08-4.13-.24-1.66-.2-3.31-.52-4.94-.93v-6.6c1.22.36 2.47.65 3.72.87 1.14.21 2.29.33 3.44.34a5.64 5.64 0 003.76-1.01c.46-.38.73-.94.73-1.54.04-.87-.41-1.69-1.17-2.11a6.516 6.516 0 00-3.28-.69h-3.64V13.6h3.6c1.09.08 2.19-.16 3.14-.71.59-.36.97-.99.99-1.68.03-.7-.25-1.39-.77-1.86a5.885 5.885 0 00-3.88-1.01c-1.06 0-2.12.1-3.16.3-1.08.2-2.15.47-3.2.79v-6.3c1.49-.37 2.99-.65 4.51-.83 1.35-.17 2.71-.25 4.07-.26 4.8 0 8.33.93 10.57 2.79a6.509 6.509 0 012.51 5.18c.01 1.46-.49 2.88-1.42 4.01a6.994 6.994 0 01-4.05 2.39c1.68.26 3.21 1.09 4.35 2.35a6.3 6.3 0 011.53 4.25z"/><path id="Path_139" class="st3" d="M76.91 22.97c.04 2.08-.87 4.06-2.47 5.38-2.29 2-5.94 3-10.93 3-5.02 0-8.66-.98-10.93-2.95a6.896 6.896 0 01-2.47-5.42c-.07-1.7.61-3.34 1.86-4.49a8.263 8.263 0 013.93-1.9v-.16a6.49 6.49 0 01-3.74-2.41 6.73 6.73 0 01-1.36-4.15 6.42 6.42 0 013.42-5.73c2.28-1.39 5.38-2.08 9.29-2.08 3.91 0 6.96.66 9.15 1.98a6.54 6.54 0 013.56 5.83c.02 1.49-.47 2.94-1.38 4.13a6.546 6.546 0 01-3.73 2.43v.16c1.62.26 3.09 1.07 4.19 2.29a5.862 5.862 0 011.61 4.09zm-10.2-1.21c.04-.95-.27-1.88-.87-2.61a2.85 2.85 0 00-2.33-1.03c-.88-.03-1.73.34-2.31 1.01-.62.74-.93 1.67-.89 2.63-.04.95.27 1.88.87 2.61a2.85 2.85 0 002.33 1.03c.88.03 1.73-.34 2.31-1.01.62-.74.93-1.68.89-2.63zm-.28-11.06c.05-.89-.27-1.75-.89-2.39a2.894 2.894 0 00-4.07-.02 3.709 3.709 0 00.02 4.8 2.894 2.894 0 004.07.02c.62-.64.93-1.52.87-2.41z"/></g></g></svg>