<svg version="1.1" id="Layer_1" xmlns="http://www.w3.org/2000/svg" x="0" y="0" viewBox="0 0 525 335" xml:space="preserve"><style>.st3{opacity:.15;enable-background:new}.st4{fill:#fff}.st5{fill:#ffc730}.st6{fill:#173058}.st7{fill:#5964ae}.st8{fill:#f26c6e}.st9{fill:#ffd83b}.st10{fill:#5f9ad2}.st12{opacity:.7;fill:#f29620;enable-background:new}.st13{fill:#e8f6fd}</style><g id="XMLID_9_"><g id="Rectangle_8" transform="rotate(7 -3002.617 1524.453)"><path id="XMLID_8_" d="M-151.51-356.75h448c12.15 0 22 9.85 22 22v224c0 12.15-9.85 22-22 22h-448c-12.15 0-22-9.85-22-22v-224c0-12.15 9.85-22 22-22z" fill="#faa943"/><path id="XMLID_7_" d="M-151.51-356.25h448c11.87 0 21.5 9.63 21.5 21.5v224c0 11.87-9.63 21.5-21.5 21.5h-448c-11.87 0-21.5-9.63-21.5-21.5v-224c0-11.87 9.63-21.5 21.5-21.5z" fill="none"/></g><path id="Rectangle_107" d="M26.26 25.92l447.73-15.63c12.14-.42 22.33 9.08 22.75 21.22l8.41 240.85c.42 12.14-9.08 22.33-21.22 22.75L36.2 310.74c-12.14.42-22.33-9.08-22.75-21.22L5.04 48.67c-.43-12.14 9.07-22.33 21.22-22.75z" fill="#f6951e"/><g id="Group_81" transform="translate(33)"><path id="Path_68" class="st3" d="M250.28 312c0 5.22-54.44 9.45-121.6 9.45S7.08 317.22 7.08 312s54.44-9.46 121.6-9.46 121.6 4.24 121.6 9.46z"/><path id="Rectangle_57" class="st4" d="M156.55 160.83h53.36v4.22h-53.36z"/><path id="Rectangle_58" class="st4" d="M156.55 170.02h53.36v4.22h-53.36z"/><path id="Rectangle_59" class="st4" d="M156.55 188.4h53.36v4.22h-53.36z"/><path id="Rectangle_60" class="st4" d="M156.55 197.59h53.36v4.22h-53.36z"/><path id="Rectangle_61" class="st5" d="M230.99 158.72h97.57v2.11h-97.57z"/><path id="Rectangle_62" class="st5" d="M230.99 167.15h84.89v2.11h-84.89z"/><path id="Rectangle_63" class="st4" d="M230.99 176.05h61.15v2.11h-61.15z"/><path id="Rectangle_64" class="st5" d="M230.99 184.48h84.89v2.11h-84.89z"/><path id="Rectangle_65" class="st5" d="M230.99 193.37h113.75v2.11H230.99z"/><path id="Rectangle_66" class="st4" d="M230.99 201.8h84.89v2.11h-84.89z"/><path id="Rectangle_67" class="st5" d="M230.99 219.13h84.89v2.11h-84.89z"/><path id="Rectangle_68" class="st5" d="M230.99 245.05h95.68v2.11h-95.68z"/><g id="Group_61" transform="translate(222.341 431)"><path id="Rectangle_69" class="st6" d="M-125.45-375.24h312.03c1.82 0 3.29 1.47 3.29 3.29v206.87c0 1.82-1.47 3.29-3.29 3.29h-312.03c-1.82 0-3.29-1.47-3.29-3.29v-206.87c0-1.81 1.47-3.29 3.29-3.29z"/><path id="Rectangle_70" class="st4" d="M-116.1-360.95h293.33v184.87H-116.1z"/><path id="Rectangle_71" class="st7" d="M-109.22-353.79h279.58v170.55h-279.58z"/><g id="Group_59" transform="translate(35.075 31.56)"><circle id="Ellipse_12" class="st8" cx="-125.39" cy="-371.88" r="3.35"/><circle id="Ellipse_13" class="st9" cx="-114.06" cy="-371.88" r="3.35"/><path id="Path_69" class="st4" d="M-99.39-371.88a3.35 3.35 0 11-3.35-3.35 3.337 3.337 0 013.35 3.35c0-.01 0 0 0 0z"/></g><path id="Rectangle_72" class="st10" d="M-56.41-343.67h178.6v7.81h-178.6z"/><g id="Group_60" transform="translate(264.366 31.887)"><path id="Rectangle_73" class="st6" d="M-128.74-375.24h13.73v1.11h-13.73z"/><path id="Rectangle_74" class="st6" d="M-128.74-371.88h13.73v1.11h-13.73z"/><path id="Rectangle_75" class="st6" d="M-128.74-368.53h13.73v1.11h-13.73z"/></g><path id="Rectangle_76" class="st10" d="M-95.77-327.86h252.32v132.1H-95.77z"/><path id="Path_70" class="st6" d="M66.45-135.66H14.59l14.46-36.69h22.94l14.46 36.69z"/><path id="Rectangle_77" class="st6" d="M-26.02-136.58h133.74c.74 0 1.35.6 1.35 1.35v5.66c0 .74-.6 1.35-1.35 1.35H-26.02c-.74 0-1.35-.6-1.35-1.35v-5.66c0-.74.6-1.35 1.35-1.35z"/><path id="Rectangle_78" class="st8" d="M-81.16-310.68H.09v35.38h-81.25z"/><path id="Rectangle_79" class="st9" d="M89.12-310.68h58.2v35.38h-58.2z"/><path id="Path_71" d="M44.91-170.63c0 2.13-1.73 3.85-3.86 3.85s-3.85-1.73-3.85-3.86 1.73-3.85 3.86-3.85c2.13.01 3.85 1.74 3.85 3.86z" fill="#123255"/></g><ellipse id="Ellipse_14" class="st3" cx="306.05" cy="304.21" rx="37.34" ry="8.3"/><g id="Group_62" transform="translate(269.924 537.437)"><path id="Rectangle_80" class="st5" d="M-128.74-375.24h65.68v2.08h-65.68z"/><path id="Rectangle_81" class="st4" d="M-128.74-363.54h65.68v2.08h-65.68z"/><path id="Rectangle_82" class="st5" d="M-118.57-352.48h45.35v2.08h-45.35z"/></g><g id="Group_63" transform="translate(437.813 538.943)"><path id="Rectangle_83" class="st5" d="M-128.74-375.24h57.71v1.83h-57.71z"/><path id="Rectangle_84" class="st4" d="M-128.74-364.96h57.71v1.83h-57.71z"/><path id="Rectangle_85" class="st5" d="M-119.8-355.24h39.85v1.83h-39.85z"/></g><g id="Group_68" transform="translate(359.653 632.484)"><ellipse id="Ellipse_15" class="st3" cx="-107.67" cy="-306.74" rx="21.07" ry="4.68"/><g id="Group_67" transform="translate(3.933)"><g id="Group_65" transform="translate(2.277)"><g id="Group_64" transform="translate(10.331 10.055)"><path id="Path_72" class="st9" d="M-123.68-344.85c-.17-1.52-.85-2.5-1.19-3.85-.33-1.65-.17-3.35.46-4.91.75-1.56 1.31-3.21 1.67-4.91.14-1.24-.04-2.51-.52-3.66-.45-1.11-1.31-2.05-1.55-3.26-.09-1.16.01-2.33.31-3.45.22-1.18.24-2.4.04-3.59a8.91 8.91 0 00-.66-1.81c-.1-.29-.27-.56-.49-.78a.661.661 0 00-.41-.1l-.96-.02c-.2 0-.57-.16-.76.06a8.25 8.25 0 00-.06 2.22c.08.67.28 1.32.59 1.93 1.2 3.78-.87 6.77-1.36 10.37-.27 1.88-.16 3.79.3 5.63.23.84.55 1.65.96 2.42.49.79.76 1.7.8 2.63-.03.99-.29 1.95-.77 2.82-.48.83-.78 1.76-.88 2.71-.04 1.2.24 2.38.81 3.43.06.14.14.26.25.37.08.05.18.08.28.07l2.89.01c-.09-1.3.36-2.56.32-3.87-.04-.15-.05-.31-.07-.46zm-.6 4.2l-.04.1.03-.09c.06-.16.1-.34.16-.51-.06.18-.1.35-.15.5z"/><path id="Path_73" class="st9" d="M-127.05-340.31c.44.79.96 1.63 1.54 1.51.5-.11.88-.88 1.17-1.7h-2.81c.03.06.07.13.1.19z"/><path id="Path_74" class="st9" d="M-127.82-340.5h.67c-.26-.47-.48-.96-.67-1.46v1.46z"/></g><path id="Path_75" class="st9" d="M-111.61-337.16c.48-.78 1.03-1.51 1.66-2.17 1.39-1.34 3-2.44 4.77-3.22.37-.21.79-.32 1.21-.32 2.03.18 1.59 2.86.99 4.04-1.77 3.49-5.3 5.52-8.02 8.17-1.17 1.14-2.6 2.97-2.86.08-.2-2.21 1.11-4.78 2.25-6.58z"/><path id="Path_76" class="st9" d="M-119.05-337.24c-.59-.8-1.25-1.54-1.97-2.22-1.27-1.2-6.84-5.72-7.32-1.67-.05.8.14 1.6.54 2.29 1.77 3.49 5.3 5.52 8.02 8.17 1.17 1.14 2.6 2.97 2.86.08.12-2.4-.64-4.77-2.13-6.65z"/><path id="Path_77" class="st9" d="M-113.23-369.62c1.62-2.22 3.76-4.01 6.23-5.21.6-.36 1.31-.46 1.99-.28 1.01.4 1.18 1.78.9 2.83-1.11 4.06-5.6 6.47-8.41 9.22-1.17 1.14-2.6 2.97-2.86.08-.1-2.4.66-4.76 2.15-6.64z"/><path id="Path_78" class="st9" d="M-112.03-358.63c1.48-2.23 3.53-4.02 5.94-5.19.61-.41 1.35-.55 2.07-.41a1.9 1.9 0 011.17 1.6c.04.7-.11 1.4-.43 2.02-1.77 3.93-6 6.06-8.91 9.24-.25.34-.58.6-.97.76-.97.29-1.07-.81-1.12-1.46-.2-2.19 1.11-4.76 2.25-6.56z"/><path id="Path_79" class="st9" d="M-113.03-346.52c.48-.78 1.03-1.51 1.66-2.17 1.16-1.19 4.79-4.3 6.61-3.3.56.35.91.96.92 1.63.01.65-.14 1.3-.44 1.88-1.34 2.94-4.05 4.86-6.43 6.91-1.11.95-4.26 5.13-4.57 1.63-.2-2.21 1.11-4.78 2.25-6.58z"/><path id="Path_80" class="st9" d="M-118.39-369.63a16.409 16.409 0 00-6.59-5.34c-.35-.17-.74-.26-1.13-.26-.92.17-1.59.98-1.57 1.91-.14 4.36 5.9 7.64 8.58 10.25 1.17 1.14 2.6 2.97 2.86.08.1-2.4-.66-4.75-2.15-6.64z"/><path id="Path_81" class="st9" d="M-119.59-358.63a14.85 14.85 0 00-6.15-5.28 2.62 2.62 0 00-1.75-.37c-1.06.27-1.41 1.65-1.18 2.72.88 4.14 5.67 6.69 8.46 9.42 1.17 1.14 2.6 2.97 2.86.08.21-2.2-1.1-4.77-2.24-6.57z"/><path id="Path_82" class="st9" d="M-118.12-346.35a16.905 16.905 0 00-6.01-5.13c-.57-.33-1.22-.48-1.87-.44-1.92.27-1.42 2.8-.83 3.95 1.77 3.49 5.3 5.52 8.02 8.17 1.17 1.14 2.6 2.97 2.86.08.08-2.4-.68-4.75-2.17-6.63z"/></g><g id="Group_66" transform="translate(0 43.843)"><path id="Path_83" class="st6" d="M-98.93-371.68l-.24 1.58-3.32 21.78h-21.68l-3.32-21.78-.24-1.58h28.8z"/><path id="Path_84" class="st12" d="M-98.93-371.68l-.24 1.58h-28.32l-.24-1.58h28.8z"/><path id="Rectangle_86" class="st8" d="M-128.74-375.24h30.82v4.15h-30.82z"/></g></g></g><g id="Group_73" transform="translate(550.265 568.674)"><ellipse id="Ellipse_16" class="st3" cx="-107.73" cy="-298.18" rx="21" ry="4.67"/><g id="Group_72" transform="translate(4.041)"><g id="Group_70" transform="translate(2.47)"><g id="Group_69" transform="translate(11.212 10.91)"><path id="Path_85" class="st9" d="M-123.25-342.26c-.19-1.65-.93-2.71-1.3-4.18-.35-1.79-.18-3.64.51-5.33.65-1.75 1.58-3.39 1.81-5.32.15-1.35-.04-2.72-.56-3.97-.49-1.2-1.42-2.22-1.68-3.54-.1-1.26.01-2.53.33-3.75.24-1.29.26-2.6.04-3.89-.17-.68-.41-1.34-.72-1.96-.11-.32-.29-.61-.53-.84a.774.774 0 00-.45-.11c-.35-.01-.7-.01-1.04-.02-.22 0-.62-.18-.82.07-.13.8-.16 1.61-.07 2.41.09.73.31 1.43.63 2.09 1.31 4.11-.94 7.35-1.48 11.25-.29 2.04-.18 4.11.33 6.11.25.91.6 1.79 1.04 2.63.53.86.83 1.84.86 2.85a6.831 6.831 0 01-.83 3.06c-.52.9-.84 1.91-.96 2.94-.04 1.3.26 2.59.87 3.73.06.15.16.29.27.4.09.06.2.09.31.08l3.13.01c-.09-1.42.39-2.78.34-4.2 0-.18-.01-.35-.03-.52zm-.66 4.57l-.04.11c.02-.04.03-.07.04-.11.05-.17.11-.36.16-.54-.05.18-.1.37-.16.54z"/><path id="Path_86" class="st9" d="M-126.9-337.33c.47.86 1.04 1.77 1.67 1.63.54-.11.95-.96 1.27-1.84h-3.05c.03.06.07.14.11.21z"/><path id="Path_87" class="st9" d="M-127.74-337.55h.73c-.28-.51-.53-1.04-.73-1.59v1.59z"/></g><path id="Path_88" class="st9" d="M-110.15-333.92c.52-.85 1.12-1.64 1.8-2.36 1.51-1.46 3.26-2.64 5.18-3.5.4-.23.85-.35 1.32-.35 2.2.2 1.72 3.1 1.07 4.38-1.92 3.78-5.75 5.99-8.7 8.87-1.27 1.24-2.82 3.22-3.1.09-.22-2.39 1.2-5.17 2.43-7.13z"/><path id="Path_89" class="st9" d="M-118.22-334.01a16.92 16.92 0 00-2.14-2.41c-1.38-1.3-7.42-6.21-7.95-1.81-.05.87.15 1.74.59 2.49 1.93 3.78 5.75 5.99 8.7 8.87 1.27 1.24 2.82 3.22 3.11.09.13-2.61-.69-5.18-2.31-7.23z"/><path id="Path_90" class="st9" d="M-111.9-369.15c1.76-2.41 4.08-4.35 6.76-5.65.65-.39 1.42-.5 2.15-.31 1.09.44 1.29 1.94.98 3.07-1.2 4.41-6.07 7.02-9.13 10-1.27 1.24-2.82 3.23-3.11.09-.11-2.6.73-5.15 2.35-7.2z"/><path id="Path_91" class="st9" d="M-110.61-357.21c1.61-2.42 3.84-4.36 6.45-5.63.66-.44 1.47-.6 2.24-.44.72.29 1.21.97 1.26 1.74.04.76-.12 1.52-.46 2.2-1.93 4.27-6.51 6.57-9.67 10.03-.27.36-.63.65-1.05.82-1.06.32-1.16-.88-1.22-1.58-.21-2.4 1.21-5.19 2.45-7.14z"/><path id="Path_92" class="st9" d="M-111.69-344.07c.52-.84 1.12-1.63 1.8-2.36 1.26-1.3 5.2-4.67 7.17-3.58.61.38.99 1.05 1 1.77.01.71-.16 1.41-.48 2.04-1.45 3.2-4.39 5.27-6.98 7.49-1.21 1.04-4.62 5.56-4.96 1.77-.21-2.39 1.21-5.18 2.45-7.13z"/><path id="Path_93" class="st9" d="M-117.51-369.15c-1.83-2.53-4.3-4.53-7.15-5.8-.38-.19-.8-.28-1.23-.28-1 .18-1.72 1.06-1.7 2.07-.15 4.73 6.41 8.29 9.31 11.13 1.27 1.24 2.82 3.23 3.11.09.11-2.61-.72-5.16-2.34-7.21z"/><path id="Path_94" class="st9" d="M-118.81-357.21a16.143 16.143 0 00-6.68-5.73c-.56-.35-1.23-.49-1.89-.4-1.15.29-1.53 1.8-1.28 2.96.96 4.49 6.16 7.26 9.19 10.22 1.27 1.23 2.82 3.22 3.11.09.2-2.4-1.21-5.19-2.45-7.14z"/><path id="Path_95" class="st9" d="M-117.22-343.9c-1.7-2.35-3.94-4.26-6.52-5.56-.62-.35-1.32-.52-2.03-.48-2.08.3-1.54 3.04-.91 4.28 1.93 3.78 5.75 5.99 8.7 8.87 1.27 1.24 2.82 3.23 3.11.09.1-2.6-.74-5.15-2.35-7.2z"/></g><g id="Group_71" transform="translate(0 48.914)"><path id="Path_96" class="st6" d="M-96.4-371.38l-.26 1.72-3.6 23.64h-23.52l-3.6-23.64-.26-1.72h31.24z"/><path id="Path_97" class="st12" d="M-96.4-371.38l-.26 1.72h-30.72l-.26-1.72h31.24z"/><path id="Rectangle_87" class="st8" d="M-128.74-375.24h33.44v4.5h-33.44z"/></g></g></g><path id="Path_98" class="st9" d="M28.38 198.82c-.74-.51-1.74-.37-2.31.32l-12.21 14.75c-.16.2-.28.43-.34.69-.19.27-.25.61-.18.93l3.29 14.9c.49 2.23 2.7 3.65 4.94 3.15s3.65-2.7 3.15-4.94l-2.65-12.03c-.06-.24-.14-.48-.24-.72l7.98-14.16c.44-.78.21-1.76-.53-2.27l-.9-.62z"/><g id="Group_78" transform="translate(115 602.251)"><path id="Path_99" class="st3" d="M-103.57-328.67c0 1.54-5.63 2.8-12.58 2.8s-12.58-1.25-12.58-2.8 5.63-2.8 12.58-2.8c6.94 0 12.58 1.26 12.58 2.8z"/><g id="Group_77" transform="translate(2.332)"><g id="Group_75" transform="translate(1.494)"><g id="Group_74" transform="translate(6.775 6.594)"><path id="Path_100" class="st9" d="M-125.42-355.31c-.19-.86-.46-1.71-.78-2.53a5.63 5.63 0 01.31-3.22c.49-1.03.86-2.11 1.1-3.22.09-.82-.03-1.64-.34-2.4-.41-.68-.75-1.4-1.02-2.14-.06-.76.01-1.53.2-2.27.15-.78.16-1.57.03-2.35-.1-.41-.25-.81-.43-1.19-.07-.19-.18-.37-.32-.51a.431.431 0 00-.27-.06l-.63-.01c-.13 0-.38-.11-.5.04-.08.48-.09.97-.04 1.46.06.44.19.87.38 1.26.79 2.48-.57 4.44-.89 6.8-.17 1.23-.11 2.49.2 3.69.15.55.36 1.08.63 1.59.32.52.5 1.11.52 1.72-.02.65-.19 1.28-.5 1.85-.31.55-.51 1.15-.58 1.78-.03.78.16 1.56.53 2.25.04.09.09.18.17.24.05.04.12.05.18.05l1.9.01c-.06-.86.23-1.68.2-2.54-.03-.1-.04-.2-.05-.3zm-.4 2.76l-.03.06c.01-.01.02-.03.03-.06.03-.1.06-.21.09-.32-.02.1-.05.22-.09.32z"/><path id="Path_101" class="st9" d="M-127.63-352.33c.29.52.63 1.07 1.01.99.32-.07.57-.58.77-1.12h-1.84c.02.04.04.09.06.13z"/><path id="Path_102" class="st9" d="M-128.14-352.46h.44c-.17-.31-.32-.63-.44-.96v.96z"/></g><path id="Path_103" class="st9" d="M-117.51-350.27c.31-.51.68-.99 1.09-1.42.91-.88 1.97-1.6 3.13-2.11.24-.14.52-.21.8-.21 1.33.12 1.04 1.88.65 2.65-1.16 2.29-3.48 3.62-5.26 5.36-.77.75-1.71 1.95-1.88.05.05-1.56.56-3.06 1.47-4.32z"/><path id="Path_104" class="st9" d="M-122.39-350.32c-.39-.52-.82-1.01-1.29-1.46-.83-.78-4.49-3.75-4.8-1.09-.03.53.09 1.05.36 1.51 1.16 2.29 3.48 3.62 5.26 5.36.76.75 1.71 1.95 1.88.05.07-1.58-.42-3.13-1.41-4.37z"/><path id="Path_105" class="st9" d="M-118.57-371.55c1.06-1.46 2.47-2.63 4.09-3.42.39-.23.86-.3 1.3-.18.66.27.78 1.17.59 1.86-.72 2.66-3.67 4.24-5.51 6.05-.77.75-1.71 1.95-1.88.05-.07-1.59.43-3.13 1.41-4.36z"/><path id="Path_106" class="st9" d="M-117.79-364.34a9.785 9.785 0 013.9-3.4c.4-.27.89-.36 1.36-.27.43.18.73.59.76 1.05.03.46-.07.92-.28 1.33-1.16 2.58-3.94 3.97-5.84 6.06-.16.22-.38.39-.64.5-.64.19-.7-.53-.74-.95a7.88 7.88 0 011.48-4.32z"/><path id="Path_107" class="st9" d="M-118.44-356.4c.31-.51.68-.99 1.09-1.43.76-.78 3.14-2.82 4.34-2.16.37.23.6.63.61 1.07 0 .43-.1.85-.29 1.23-.88 1.93-2.66 3.19-4.21 4.53-.73.63-2.79 3.36-3 1.07.03-1.55.55-3.05 1.46-4.31z"/><path id="Path_108" class="st9" d="M-121.95-371.56a10.84 10.84 0 00-4.32-3.5c-.23-.11-.48-.17-.74-.17-.6.11-1.04.64-1.03 1.26-.09 2.86 3.87 5.01 5.63 6.72.76.75 1.71 1.95 1.88.05.06-1.57-.45-3.12-1.42-4.36z"/><path id="Path_109" class="st9" d="M-122.74-364.34c-1-1.51-2.4-2.7-4.03-3.46a1.7 1.7 0 00-1.14-.24c-.7.18-.93 1.08-.78 1.79.58 2.72 3.72 4.39 5.55 6.18.77.75 1.71 1.95 1.88.05a7.776 7.776 0 00-1.48-4.32z"/><path id="Path_110" class="st9" d="M-121.78-356.3a11.01 11.01 0 00-3.94-3.36c-.37-.21-.8-.31-1.23-.29-1.25.18-.93 1.84-.54 2.59 1.16 2.29 3.47 3.62 5.26 5.36.77.75 1.71 1.95 1.88.06.05-1.57-.45-3.12-1.43-4.36z"/></g><g id="Group_76" transform="translate(0 29.56)"><path id="Path_111" class="st6" d="M-109.19-372.9l-.16 1.04-2.17 14.28h-14.22l-2.17-14.28-.16-1.04h18.88z"/><path id="Path_112" class="st12" d="M-109.19-372.9l-.16 1.04h-18.56l-.16-1.04h18.88z"/><path id="Rectangle_88" class="st8" d="M-128.74-375.24h20.21v2.72h-20.21z"/></g></g></g><g id="Group_79" transform="translate(152.993 543.784)"><path id="Rectangle_89" class="st3" d="M-123.69-375.24H85.16v140.03h-208.85z"/><path id="Rectangle_90" class="st6" d="M-128.74-371.46H80.11v140.03h-208.85z"/><path id="Rectangle_91" class="st10" d="M-85.26-365.8H50.55v8.56H-85.26z"/><circle id="Ellipse_17" class="st5" cx="-116.24" cy="-361.52" r="3.02"/><circle id="Ellipse_18" class="st8" cx="-106.74" cy="-361.52" r="3.02"/><path id="Path_113" class="st4" d="M-94.22-361.52a3.02 3.02 0 01-3.03 3.02 3.02 3.02 0 110-6.04 3.02 3.02 0 013.03 3.02z"/><path id="Rectangle_92" class="st10" d="M57.28-365.8h11.64v1.31H57.28z"/><path id="Rectangle_93" class="st10" d="M57.28-362.17h11.64v1.31H57.28z"/><path id="Rectangle_94" class="st10" d="M57.28-358.55h11.64v1.31H57.28z"/><path id="Rectangle_95" class="st7" d="M-119.27-350.22H71.2v109.56h-190.47z"/><path id="Rectangle_96" class="st10" d="M-108.03-341.02H59.96v91.15h-167.99z"/><path id="Rectangle_97" class="st8" d="M-97.24-333.93H12.59v6.85H-97.24z"/><path id="Rectangle_98" class="st9" d="M-97.24-319.9h82.87v6.85h-82.87z"/><path id="Rectangle_99" class="st4" d="M-97.24-305.62h82.87v6.85h-82.87z"/></g><path id="Rectangle_100" class="st13" d="M24.62 223.16h9.82v8.55h-9.82z"/><path id="Path_114" class="st8" d="M42.31 265.22v-4.23H17.93v6.96c-.01.06-.01.12-.02.18l.02.5v4.27h.17l1.62 41.47a2.215 2.215 0 002.21 2.13h3.19c1.15 0 2.1-.88 2.2-2.02l3.67-41.63c.08-.01.14.7.17 1.05l3.67 40.38a2.445 2.445 0 002.43 2.23h2.39c1.31 0 2.39-1.03 2.44-2.34l2.06-47.21c.04-.93-.68-1.71-1.61-1.75-.08 0-.16 0-.23.01z"/><path id="Path_115" class="st9" d="M16.17 227.43v34.6c0 3.28 2.65 5.93 5.93 5.93h18.23c2.46 0 4.46-1.99 4.46-4.45v-36.08H16.17z"/><path id="Path_116" class="st13" d="M28.65 205.97a9.657 9.657 0 00-8.14 4.88v9.53a9.64 9.64 0 0013.15 3.63 9.64 9.64 0 004.89-8.56c-.16-5.34-4.57-9.55-9.9-9.48z"/><path id="Path_117" class="st9" d="M62.58 210.26l-1.3-.46c-.79-.28-1.65.09-2.01.84l-6.17 13.24c-.39.06-.78.16-1.15.32l-13.55 5.92a3.052 3.052 0 00-1.58 4.02l.87 1.99a3.055 3.055 0 004.02 1.58l16.75-7.31c.04-.02.08-.06.12-.08.35-.15.62-.46.71-.84l4.31-17.3c.22-.81-.23-1.64-1.02-1.92z"/><path id="Path_118" class="st8" d="M32.77 225.27H22.03c-.9.03-1.66-.67-1.69-1.58v-16.54c.03-.9.79-1.61 1.69-1.58h13.89c.87-.06 1.62.6 1.68 1.47.02.3-.05.6-.19.87l-3.71 5.31c-.55.89.77 1.33.77 1.59v8.88c-.04.91-.8 1.61-1.7 1.58z"/><path id="Path_119" class="st8" d="M153.9 251.16c0 1.86-1.51 3.36-3.36 3.36s-3.36-1.51-3.36-3.36 1.51-3.36 3.36-3.36c1.85 0 3.35 1.5 3.36 3.36z"/><path id="Path_120" class="st9" d="M153.9 264.15c0 1.86-1.51 3.36-3.36 3.36s-3.36-1.51-3.36-3.36 1.51-3.36 3.36-3.36c1.85 0 3.35 1.5 3.36 3.36z"/><path id="Path_121" class="st4" d="M153.9 277.13c0 1.86-1.51 3.36-3.36 3.36s-3.36-1.51-3.36-3.36 1.51-3.36 3.36-3.36c1.85 0 3.35 1.51 3.36 3.36z"/><path id="Rectangle_101" class="st8" d="M164.62 248.92h37.96v3.31h-37.96z"/><path id="Rectangle_102" class="st9" d="M164.62 261.54h37.96v3.31h-37.96z"/><path id="Rectangle_103" class="st4" d="M164.62 275.12h37.96v3.31h-37.96z"/><g id="Group_80" transform="translate(372.592 505.688)"><path id="Rectangle_104" class="st13" d="M-86.72-333.21h13.41v11.68h-13.41z"/><path id="Rectangle_105" class="st6" d="M-128.74-375.24h53.71v31.49h-53.71z"/><path id="Path_122" class="st9" d="M-63.69-266.92v-9.71h-33.98v5.86c-1.3-.11-2.45.86-2.56 2.16-.01.1-.01.2-.01.29l2.87 65.81a3.412 3.412 0 003.41 3.26h3.33c1.76 0 3.24-1.34 3.39-3.1l5.71-58.1c.34.01 4.74 58.39 4.74 58.39a3.088 3.088 0 003.07 2.82h4.46c1.66 0 3.02-1.31 3.09-2.96l2.26-57.82h.23v-5.96l.03-.69c-.01-.08-.04-.15-.04-.25z"/><path id="Path_123" class="st8" d="M-57.96-345.88c-.08-.14-.17-.28-.27-.41l-16.46-19.89a3.271 3.271 0 00-4.37-.61l-.1.07c-1.4.96-1.83 2.82-1 4.3l11.04 19.6c-.01.04-.03.07-.04.1l-3.8 17.23a5.921 5.921 0 004.56 7.04c3.18.68 6.31-1.32 7.03-4.49l4.39-19.89c.26-1.11-.12-2.28-.98-3.05z"/><path id="Path_124" class="st8" d="M-101.68-327.18v54.19c0 2.13 1.73 3.85 3.85 3.85h30.85c3.47 0 6.29-2.81 6.29-6.28v-51.76h-40.99z"/><path id="Path_125" class="st13" d="M-78.57-357.93c4.84.13 9.27 2.78 11.66 7v13.64c-3.77 6.64-12.2 8.97-18.84 5.2-4.4-2.5-7.09-7.2-7-12.26.23-7.64 6.54-13.68 14.18-13.58z"/><path id="Path_126" class="st8" d="M-93.98-323.97l-19.78-8.63-8.68-18.63a2.315 2.315 0 00-2.87-1.2l-1.86.65c-1.13.4-1.76 1.59-1.47 2.74l6.03 24.25c.09.33.25.65.47.91.18.43.52.78.95.97l22.47 9.8c3 1.31 6.5-.06 7.81-3.07s-.07-6.48-3.07-7.79z"/><path id="Path_127" class="st9" d="M-84.47-330.29h15.37c1.29.05 2.38-.96 2.43-2.25v-23.68a2.36 2.36 0 00-2.43-2.26h-19.89a2.26 2.26 0 00-2.13 3.34l5.32 7.6c.79 1.28-1.11 1.9-1.11 2.28v12.71c.06 1.3 1.14 2.31 2.44 2.26z"/></g></g></g></svg>