<svg xmlns="http://www.w3.org/2000/svg" width="44" height="44" viewBox="0 0 44 44">
  <g id="cs-icon" transform="translate(-1507 -1302)">
    <rect id="Rectangle_96" data-name="Rectangle 96" width="44" height="44" transform="translate(1507 1302)" fill="#ff840c" opacity="0"/>
    <g id="Group_21" data-name="Group 21" transform="translate(1511.425 1306.333)">
      <path id="Path_34" data-name="Path 34" d="M39.152,18.869h-.989a13.938,13.938,0,0,0-27.567,0H9.607A2.576,2.576,0,0,0,7,21.412V26.5a2.575,2.575,0,0,0,2.607,2.544h1.738a.858.858,0,0,0,.869-.847V20.564h0A12.034,12.034,0,0,1,24.379,8.7,12.034,12.034,0,0,1,36.545,20.562v5.091a12.791,12.791,0,0,1-9.9,12.327,2.607,2.607,0,0,0-2.266-1.308,2.544,2.544,0,1,0,2.561,2.983A14.627,14.627,0,0,0,37.853,29.042h1.3A2.575,2.575,0,0,0,41.759,26.5V21.412A2.576,2.576,0,0,0,39.152,18.869Z" transform="translate(-7 -7)" fill="#ff840c"/>
      <path id="Path_35" data-name="Path 35" d="M17.731,19.025a5.473,5.473,0,0,1-.784.586c-.284.177-.555.351-.807.521-.495.333-.964.659-1.408.981a6.739,6.739,0,0,0-1.161,1.052,4.48,4.48,0,0,0-.782,1.294,4.576,4.576,0,0,0-.289,1.7h8.467V23.2H15.515A5.218,5.218,0,0,1,16.5,22.19q.562-.434,1.153-.811t1.179-.763a6.3,6.3,0,0,0,1.046-.861,3.827,3.827,0,0,0,.741-1.084,3.468,3.468,0,0,0,.281-1.463,3.291,3.291,0,0,0-1.187-2.588,3.929,3.929,0,0,0-1.261-.69,4.678,4.678,0,0,0-1.507-.242,4.585,4.585,0,0,0-1.836.346A3.567,3.567,0,0,0,13.784,15a4.135,4.135,0,0,0-.79,1.447,5.275,5.275,0,0,0-.231,1.792H15a4.58,4.58,0,0,1,.092-.908,2.748,2.748,0,0,1,.3-.836,1.742,1.742,0,0,1,.569-.61,1.525,1.525,0,0,1,.864-.234,1.738,1.738,0,0,1,1.243.458,1.672,1.672,0,0,1,.487,1.278,1.758,1.758,0,0,1-.239.916A3.2,3.2,0,0,1,17.731,19.025Z" transform="translate(-3.81 -3.121)" fill="#ff840c"/>
      <path id="Path_36" data-name="Path 36" d="M23.044,13.831l-5.007,6.557v2.089h4.876v2.6h2.225v-2.6h1.531V20.6H25.137V13.831ZM22.913,20.6H19.881l2.983-3.906h.049Z" transform="translate(-0.599 -3.038)" fill="#ff840c"/>
    </g>
  </g>
</svg>
