<svg xmlns="http://www.w3.org/2000/svg" xmlns:xlink="http://www.w3.org/1999/xlink" width="36.986" height="25.123" viewBox="0 0 36.986 25.123">
  <defs>
    <linearGradient id="linear-gradient" x1="0.953" y1="0.803" x2="0.118" y2="0.079" gradientUnits="objectBoundingBox">
      <stop offset="0.001" stop-color="#f9b87f"/>
      <stop offset="0.475" stop-color="#fac492"/>
      <stop offset="1" stop-color="#fce0c8"/>
    </linearGradient>
  </defs>
  <path id="game-gold" d="M1.789,23.324A6.129,6.129,0,0,1,0,19.056l.112-.745,3.5-11.69A8.2,8.2,0,0,1,11.628,0h.067a9.579,9.579,0,0,1,3.819.789c.515.246.93.471,1.3.669a4.516,4.516,0,0,0,2.31.78c1.233,0,1.233,0,3.29-1.4a9.6,9.6,0,0,1,3.836-.8H26.3c.131-.011.264-.015.4-.015A8.468,8.468,0,0,1,31.25,1.653a6.054,6.054,0,0,1,2.416,2.723l.039.167c1.009,4.252,3.347,14.172,3.279,14.445a6.057,6.057,0,0,1-6.034,6.066c-.157.013-.316.02-.473.02a5.524,5.524,0,0,1-4.1-1.832l-5.258-6.794H16.66l-6.033,6.535L9.11,24.257a5.933,5.933,0,0,1-3.077.867A6.061,6.061,0,0,1,1.789,23.324ZM6.146,7.27,2.6,19.1a3.589,3.589,0,0,0,3.448,3.467,3.427,3.427,0,0,0,2.68-1.309l6.783-7.366h6.9l6.034,7.8c.544.78,1.8.78,3.01.78a3.5,3.5,0,0,0,3-3.345c.087-2.15-2.662-11.716-2.689-11.812a3.7,3.7,0,0,0-.146-.529v.148a3.21,3.21,0,0,0-.6-1.517A5.782,5.782,0,0,0,26.288,2.6c-2.729,0-4.928,1.361-5.6,3.467H17.238c-.674-2.106-2.874-3.467-5.6-3.467A5.6,5.6,0,0,0,6.146,7.27ZM24.67,12.555a1.542,1.542,0,1,1,1.542,1.534A1.537,1.537,0,0,1,24.67,12.555Zm-14.6-.92V10H8.428a1.226,1.226,0,1,1,0-2.452h1.645V5.913a1.233,1.233,0,0,1,2.467,0V7.548h1.645a1.226,1.226,0,1,1,0,2.452H12.54v1.634a1.233,1.233,0,0,1-2.467,0Zm17.68-2.346A1.542,1.542,0,1,1,29.3,10.822,1.538,1.538,0,0,1,27.753,9.289Zm-6.373,0a1.542,1.542,0,1,1,1.543,1.534A1.538,1.538,0,0,1,21.38,9.289Zm3.29-3.069a1.542,1.542,0,1,1,1.542,1.532A1.537,1.537,0,0,1,24.67,6.219Z" fill="url(#linear-gradient)"/>
</svg>
