<svg xmlns="http://www.w3.org/2000/svg" xmlns:xlink="http://www.w3.org/1999/xlink" width="38" height="38" viewBox="0 0 38 38"><defs><clipPath id="b"><rect width="38" height="38"/></clipPath></defs><g id="a" clip-path="url(#b)"><path d="M1.837,23.324A6.049,6.049,0,0,1,0,19.056l.115-.745L3.709,6.621A8.369,8.369,0,0,1,11.942,0h.068a10.066,10.066,0,0,1,3.923.789c.529.246.955.471,1.33.669a4.722,4.722,0,0,0,2.372.78c1.267,0,1.267,0,3.379-1.4a10.086,10.086,0,0,1,3.94-.8h.053c.134-.011.271-.015.409-.015a8.841,8.841,0,0,1,4.679,1.625,6.1,6.1,0,0,1,2.481,2.723l.04.167c1.036,4.252,3.438,14.172,3.368,14.445a6.139,6.139,0,0,1-6.2,6.066c-.161.013-.325.02-.486.02a5.743,5.743,0,0,1-4.213-1.832l-5.4-6.794H17.111l-6.2,6.535L9.356,24.257a6.218,6.218,0,0,1-3.16.867A6.308,6.308,0,0,1,1.837,23.324ZM6.312,7.27,2.673,19.1a3.638,3.638,0,0,0,3.541,3.467,3.554,3.554,0,0,0,2.752-1.309l6.967-7.366h7.082l6.2,7.8c.558.78,1.846.78,3.092.78a3.538,3.538,0,0,0,3.077-3.345c.089-2.15-2.734-11.716-2.762-11.812a3.627,3.627,0,0,0-.15-.529v.148a3.162,3.162,0,0,0-.619-1.517A5.965,5.965,0,0,0,27,2.6c-2.8,0-5.061,1.361-5.754,3.467H17.7C17.012,3.961,14.753,2.6,11.95,2.6A5.712,5.712,0,0,0,6.312,7.27Zm19.025,5.284a1.584,1.584,0,1,1,1.583,1.534A1.558,1.558,0,0,1,25.337,12.555Zm-14.991-.92V10H8.656a1.227,1.227,0,1,1,0-2.452h1.689V5.913a1.267,1.267,0,0,1,2.534,0V7.548h1.689a1.227,1.227,0,1,1,0,2.452H12.879v1.634a1.267,1.267,0,0,1-2.534,0ZM28.5,9.289a1.585,1.585,0,1,1,1.584,1.534A1.559,1.559,0,0,1,28.5,9.289Zm-6.545,0a1.585,1.585,0,1,1,1.584,1.534A1.559,1.559,0,0,1,21.958,9.289Zm3.379-3.069A1.584,1.584,0,1,1,26.92,7.752,1.558,1.558,0,0,1,25.337,6.219Z" transform="translate(0 6)" fill="#fff"/></g></svg>