<svg xmlns="http://www.w3.org/2000/svg" xmlns:xlink="http://www.w3.org/1999/xlink" width="38" height="38" viewBox="0 0 38 38">
  <defs>
    <linearGradient id="linear-gradient" x1="0.953" y1="0.803" x2="0.118" y2="0.079" gradientUnits="objectBoundingBox">
      <stop offset="0.001" stop-color="#f9b87f"/>
      <stop offset="0.475" stop-color="#fac492"/>
      <stop offset="1" stop-color="#fce0c8"/>
    </linearGradient>
  </defs>
  <g id="gold-hover" transform="translate(8 -74)">
    <path id="Combined_Shape" data-name="Combined Shape" d="M28,38a1,1,0,0,1-.116-1.993L28,36h6a2,2,0,0,0,1.994-1.85L36,34V28a1,1,0,0,1,1.993-.116L38,28v6a4,4,0,0,1-3.8,4L34,38ZM4,38l-.2,0A4,4,0,0,1,0,34V28l.006-.116A1,1,0,0,1,2,28v6l.005.149A2,2,0,0,0,4,36h6l.117.006A1,1,0,0,1,10,38ZM36,10V4l-.005-.148A2,2,0,0,0,34,2H28l-.116-.006A1,1,0,0,1,28,0h6l.2,0A4,4,0,0,1,38,4v6l-.006.117A1,1,0,0,1,36,10ZM.006,10.117,0,10V4A4,4,0,0,1,3.8,0L4,0h6a1,1,0,0,1,.117,1.993L10,2H4A2,2,0,0,0,2.005,3.851L2,4v6a1,1,0,0,1-1.994.117Z" transform="translate(-8 74)" fill="url(#linear-gradient)"/>
  </g>
</svg>
