<svg xmlns="http://www.w3.org/2000/svg" width="22.016" height="17.236" viewBox="0 0 22.016 17.236">
  <path id="Shape" d="M5.767,13.618H2a2,2,0,0,1-2-2v-6a2,2,0,0,1,2-2H5.767L13.01,0V17.236ZM11.008,14V3.236l-4,2V12ZM2,11.618H5v-6H2ZM17.115,15.9a9.961,9.961,0,0,0,2.9-7.282,9.962,9.962,0,0,0-2.9-7.283L18.693.075a12.061,12.061,0,0,1,3.323,8.544,12.06,12.06,0,0,1-3.323,8.543Zm-3.108-2.484a6.442,6.442,0,0,0,2-4.8,6.439,6.439,0,0,0-2-4.8l1.579-1.263a8.511,8.511,0,0,1,2.427,6.061,8.511,8.511,0,0,1-2.427,6.06Z" fill="#fff"/>
</svg>
