<?xml version="1.0" encoding="utf-8"?>
<!-- Generator: Adobe Illustrator 23.1.0, SVG Export Plug-In . SVG Version: 6.00 Build 0)  -->
<svg version="1.1" id="Layer_1" xmlns="http://www.w3.org/2000/svg" xmlns:xlink="http://www.w3.org/1999/xlink" x="0px" y="0px"
	 viewBox="0 0 300 300" style="enable-background:new 0 0 300 300;" xml:space="preserve">
<style type="text/css">
	.st0{fill:#373737;}
	.st1{fill:#232323;}
	.st2{fill:#FF9200;}
	.st3{fill:#FFFFFF;}
	.st4{fill:#D65F00;}
</style>
<path class="st0" d="M265,300H35c-19.3,0-35-15.7-35-35V35C0,15.7,15.7,0,35,0h230c19.3,0,35,15.7,35,35v230
	C300,284.3,284.3,300,265,300z"/>
<g>
	<polygon class="st1" points="69.7,211.9 69.7,198.8 84.5,198.8 85.5,195 69.7,195.1 69.7,182.4 85.2,182.4 86.2,178.6 69.7,178.7 
		69.7,170.8 61.9,170.8 61.9,222.5 69.7,222.5 69.7,215.5 85.5,215.5 86.5,211.9 	"/>
	<polygon class="st1" points="45.4,178.7 30.1,178.7 30.1,182.4 45.4,182.4 45.4,195.1 30.8,195.1 30.8,198.8 45.4,198.8 
		45.4,211.9 29.8,211.9 29.8,215.5 45.4,215.5 45.4,222.5 53.2,222.5 53.2,170.8 45.4,170.8 	"/>
	<polygon class="st1" points="161.7,223.1 169.5,223.1 169.5,219 176.5,219 186.2,182.5 186.2,213.9 180.2,213.9 180.2,217.9 
		186.2,217.9 186.2,222.9 194,222.9 194,217.9 198.7,217.9 200.4,213.9 194,213.9 194,182.2 208.8,182.2 210.6,178.1 194,178.2 
		194,170.4 186.2,170.4 186.2,178.2 170.9,178.2 170.9,182.2 179,182.2 169.5,217.2 169.5,184.8 167,184.8 172.8,170.3 164.3,170.3 
		155,193.3 161.7,193.3 	"/>
	<polygon class="st1" points="194.6,185.7 203.9,219 211.3,219 202.4,185.7 	"/>
	<path class="st1" d="M259.2,199.4h-25.7v-4.4h22.7l3-3.8h-33.5v17.4L224,223h7.7l1.2-10.9h26.4v7.1h-4.8l0.5,4H267v-32.1h-7.8
		V199.4z M259.2,208.2h-25.7v-4.8h25.7V208.2z"/>
	<polygon class="st1" points="271.2,178.2 273.1,174.4 252.1,174.5 252.1,170.2 244.5,170.2 244.5,174.5 218.4,174.5 218.4,178.2 
		226.3,178.2 223.1,187.4 260.6,187.4 261.3,188.9 269.7,188.9 265.8,180.5 257.4,180.5 258.9,183.7 232.7,183.7 234.6,178.2 	"/>
	<polygon class="st1" points="118.9,183.5 111.1,183.5 118.6,207.5 126.4,207.5 	"/>
	<polygon class="st1" points="106,212 106,174.4 128,174.4 131.1,170.4 98.2,170.4 98.2,211.8 92.4,223 100.8,223 	"/>
	<polygon class="st1" points="141.7,223 148.8,223.1 150.8,204.4 143.7,219 138.9,219 138.9,170.4 131.1,170.4 131.1,223 	"/>
	<polygon class="st1" points="85.8,272.7 94,272.7 95.6,261 106.2,261 107.3,253 96.6,253 97.1,249.3 117.5,249.3 118.5,241.4 
		89.9,241.4 	"/>
	<polygon class="st1" points="119.4,272.7 128.1,272.7 129.6,261 139.8,261 140.9,253 130.7,253 131.1,249.3 150.2,249.3 
		151.2,241.4 123.5,241.4 	"/>
	<polygon class="st1" points="155.3,249.2 164.8,249.2 161.7,272.7 169.1,272.7 172.1,249.2 181.3,249.2 182.3,241.3 156.4,241.3 	
		"/>
	<polygon class="st1" points="200.6,250.4 196,241.4 185.8,241.4 195.8,259.1 194,272.7 201.9,272.7 203.6,259.7 217,241.4 
		207.2,241.4 	"/>
	<path class="st1" d="M107.6,126c6.8,5.3,13.9,7.3,20.6,7.3c9.4,0,17.9-3.9,23.3-7.7c9.3,6.6,27.5,13.3,43.9,0.4
		c6.6-5.2,11-14,11.7-23.5c0.8-10.4-2.8-20.4-10-28c-13.4-14.1-45.6-41.5-45.6-41.5s-32.2,27.4-45.6,41.5c-7.2,7.6-10.7,17.5-10,28
		C96.6,112.1,100.9,120.9,107.6,126z"/>
	<path class="st1" d="M172.3,141.5c0,0-13.1,1.8-20.8-10.8c-7.7,12.6-20.8,10.8-20.8,10.8v6.2h20.8h20.8V141.5z"/>
</g>
<g>
	<path class="st2" d="M44,169.3h7.8V221H44v-7H28.4v-3.7H44v-13.1H29.4v-3.7H44v-12.7H28.7v-3.7H44V169.3z M84.1,214H68.2v7h-7.8
		v-51.7h7.8v7.9l16.5-0.1l-1,3.8H68.2v12.7l15.9-0.1l-1,3.8H68.2v13.1h16.9L84.1,214z"/>
	<g>
		<polygon class="st3" points="192.6,180.6 207.4,180.6 209.2,176.5 192.6,176.6 192.6,168.8 184.8,168.8 184.8,176.6 169.5,176.6 
			169.5,180.6 177.6,180.6 168,215.6 168,183.2 165.6,183.2 171.4,168.8 162.9,168.8 153.6,191.7 160.3,191.7 160.3,221.5 
			168,221.5 168,217.4 175.1,217.4 184.8,180.9 184.8,212.3 178.8,212.3 178.8,216.4 184.8,216.4 184.8,221.3 192.6,221.3 
			192.6,216.4 197.2,216.4 199,212.3 192.6,212.3 		"/>
		<polygon class="st3" points="201,184.1 193.2,184.1 202.5,217.4 209.9,217.4 		"/>
	</g>
	<path class="st3" d="M259.8,187.3l-0.7-1.5h-37.4l3.1-9.2H217v-3.7h26v-4.3h7.7v4.3l20.9-0.1l-1.8,3.8h-36.6l-1.8,5.6h26.2
		l-1.4-3.2h8.4l3.9,8.4H259.8z M265.6,221.6h-12.1l-0.5-4h4.8v-7.1h-26.4l-1.2,10.9h-7.7l1.7-14.5v-17.4h33.5l-3,3.8H232v4.4h25.7
		v-8.3h7.8V221.6z M257.8,201.8H232v4.8h25.7V201.8z"/>
	<g>
		<polygon class="st2" points="109.7,181.9 117.2,205.9 125,205.9 117.5,181.9 		"/>
		<polygon class="st2" points="96.7,210.3 90.9,221.4 99.4,221.4 104.5,210.5 104.5,172.9 126.6,172.9 129.6,168.8 96.7,168.8 		"/>
		<polygon class="st2" points="142.3,217.4 137.4,217.4 137.4,168.8 129.6,168.8 129.6,221.4 140.3,221.4 147.4,221.5 149.4,202.8 
					"/>
	</g>
</g>
<g>
	<g>
		<path class="st3" d="M117.1,239.8l-1,8H95.6l-0.5,3.7h10.7l-1,8H94.1l-1.5,11.7h-8.2l4.1-31.3H117.1z"/>
		<path class="st3" d="M149.8,239.8l-1,8h-19l-0.5,3.7h10.2l-1,8h-10.2l-1.5,11.7H118l4.1-31.3H149.8z"/>
		<path class="st3" d="M179.9,247.7h-9.2l-3.1,23.5h-7.4l3.1-23.5h-9.4l1-8h26L179.9,247.7z"/>
		<path class="st3" d="M215.6,239.8l-13.4,18.3l-1.7,13.1h-7.9l1.8-13.7l-10-17.7h10.2l4.6,9l6.6-9H215.6z"/>
	</g>
</g>
<g>
	<path class="st4" d="M172.1,114.3h-42.3v-3.8h42.3V114.3z M172,107.3h-42.3l-14.1-29.7l15.6,11.5c-0.5,0.6-0.8,1.4-0.8,2.3
		c0,2,1.7,3.6,3.7,3.6c1.9,0,3.4-1.5,3.5-3.3c0.7,1.2,1.9,2,3.4,2c2.1,0,3.9-1.7,3.9-3.9c0-1.3-0.7-2.5-1.7-3.2l7.7-14.7l7.7,14.7
		c-1,0.7-1.7,1.9-1.7,3.2c0,2.1,1.7,3.9,3.9,3.9c1.5,0,2.7-0.8,3.4-2c0.2,1.8,1.7,3.3,3.5,3.3c2,0,3.6-1.6,3.7-3.6
		c0-0.9-0.3-1.7-0.8-2.3l15.6-11.5L172,107.3z"/>
	<path class="st2" d="M195.6,73C182.2,59,150,31.6,150,31.6S117.8,59,104.4,73c-7.2,7.6-10.7,17.5-10,28c0.7,9.5,5.1,18.3,11.7,23.5
		c6.8,5.3,13.9,7.3,20.6,7.3c9.4,0,17.9-3.9,23.3-7.7c9.3,6.6,27.5,13.3,43.9,0.4c6.6-5.2,11-14,11.7-23.5
		C206.3,90.6,202.8,80.6,195.6,73z"/>
	<path class="st2" d="M150,129.2c-7.7,12.6-20.8,10.8-20.8,10.8v6.2H150h20.8V140C170.8,140,157.7,141.8,150,129.2z"/>
	<path class="st3" d="M171.2,113.6h-42.3v-3.8h42.3V113.6z M171.1,106.6h-42.3l-14.1-29.7l15.6,11.5c-0.5,0.6-0.8,1.4-0.8,2.3
		c0,2,1.7,3.6,3.7,3.6c1.9,0,3.4-1.5,3.5-3.3c0.7,1.2,1.9,2,3.4,2c2.1,0,3.9-1.7,3.9-3.9c0-1.3-0.7-2.5-1.7-3.2l7.7-14.7l7.7,14.7
		c-1,0.7-1.7,1.9-1.7,3.2c0,2.1,1.7,3.9,3.9,3.9c1.5,0,2.7-0.8,3.4-2c0.2,1.8,1.7,3.3,3.5,3.3c2,0,3.6-1.6,3.7-3.6
		c0-0.9-0.3-1.7-0.8-2.3l15.6-11.5L171.1,106.6z"/>
</g>
</svg>
