<svg xmlns="http://www.w3.org/2000/svg" xmlns:xlink="http://www.w3.org/1999/xlink" width="69" height="92" viewBox="0 0 69 92"><defs><linearGradient id="a" x1="0.5" x2="0.5" y2="1" gradientUnits="objectBoundingBox"><stop offset="0" stop-color="#deebff"/><stop offset="1" stop-color="#b1ceff"/></linearGradient><linearGradient id="b" x1="0.5" x2="0.5" y2="1" gradientUnits="objectBoundingBox"><stop offset="0" stop-color="#6191e6"/><stop offset="1" stop-color="#92acdc"/></linearGradient><clipPath id="c"><rect width="19.799" height="1.442" transform="translate(0 19.796) rotate(-88.913)" fill="#9fc6ff"/></clipPath><clipPath id="d"><path d="M600.276,309.121l.016,8.371a.443.443,0,0,0,.435.442l1.956.037a.443.443,0,0,0,.451-.426l.334-8.365a1.159,1.159,0,0,0-1.136-1.205l-.875-.017h-.022a1.159,1.159,0,0,0-1.159,1.161" transform="translate(-600.276 -307.96)" fill="#407bff"/></clipPath><clipPath id="e"><path d="M4.13,0h41.8a4.13,4.13,0,0,1,4.13,4.13v0a4.13,4.13,0,0,1-4.13,4.13H4.13A4.13,4.13,0,0,1,0,4.13v0A4.13,4.13,0,0,1,4.13,0Z" fill="#407bff"/></clipPath><clipPath id="f"><rect width="50.063" height="17.463" rx="4.837" fill="none"/></clipPath><linearGradient id="g" x1="-0.34" y1="3.152" x2="-0.338" y2="3.152" gradientUnits="objectBoundingBox"><stop offset="0" stop-color="#1d299f"/><stop offset="1" stop-color="#4c5abd"/></linearGradient><clipPath id="h"><path d="M28.042,0a1.884,1.884,0,0,0-2.03,1.74l1.914,88.581A1.9,1.9,0,0,0,29.956,92H87.521a1.9,1.9,0,0,0,2.03-1.678L91.466,1.74A1.884,1.884,0,0,0,89.435,0Z" transform="translate(-26.011)" fill="url(#a)"/></clipPath><clipPath id="j"><rect width="59.049" height="38.036" rx="10.923" fill="url(#b)"/></clipPath><clipPath id="l"><path d="M10.923,0H39.8A10.923,10.923,0,0,1,50.722,10.923V21.25A10.922,10.922,0,0,1,39.8,32.172H10.922A10.922,10.922,0,0,1,0,21.25V10.923A10.923,10.923,0,0,1,10.923,0Z" fill="#19437f"/></clipPath><clipPath id="m"><path d="M9.189,0H35.317a9.191,9.191,0,0,1,9.191,9.191v0a9.191,9.191,0,0,1-9.191,9.191H9.189A9.189,9.189,0,0,1,0,9.193v0A9.189,9.189,0,0,1,9.189,0Z" fill="#5592ff"/></clipPath><clipPath id="n"><path d="M6.652,0H31.3a6.651,6.651,0,0,1,6.651,6.651v0A6.651,6.651,0,0,1,31.3,13.3H6.653A6.653,6.653,0,0,1,0,6.652v0A6.652,6.652,0,0,1,6.652,0Z" fill="#19437f"/></clipPath><clipPath id="o"><path d="M3.016,0H9.035A3.016,3.016,0,0,1,12.05,3.016v0A3.015,3.015,0,0,1,9.035,6.032H3.016A3.016,3.016,0,0,1,0,3.016v0A3.016,3.016,0,0,1,3.016,0Z" fill="#5592ff"/></clipPath><clipPath id="p"><path d="M2.182,0H6.8A2.182,2.182,0,0,1,8.981,2.182v0A2.183,2.183,0,0,1,6.8,4.366H2.182A2.182,2.182,0,0,1,0,2.183v0A2.182,2.182,0,0,1,2.182,0Z" fill="none"/></clipPath><linearGradient id="q" x1="-2.038" y1="4.244" x2="-2.026" y2="4.244" gradientUnits="objectBoundingBox"><stop offset="0" stop-color="#4c5abd"/><stop offset="1" stop-color="#1d299f"/></linearGradient><clipPath id="r"><path d="M2.006,0h0A2.006,2.006,0,0,1,4.013,2.006V4.026A2.006,2.006,0,0,1,2.007,6.032h0A2.006,2.006,0,0,1,0,4.025V2.006A2.006,2.006,0,0,1,2.006,0Z" fill="#5592ff"/></clipPath><clipPath id="s"><path d="M.569,0h0a.569.569,0,0,1,.569.569V3.8a.569.569,0,0,1-.569.569h0A.568.568,0,0,1,0,3.8V.569A.569.569,0,0,1,.569,0Z" fill="none"/></clipPath><linearGradient id="t" x1="-44.429" y1="4.244" x2="-44.33" y2="4.244" xlink:href="#q"/><clipPath id="u"><path d="M175.9,652.309a3.429,3.429,0,1,0,3.429-3.429,3.429,3.429,0,0,0-3.429,3.429" transform="translate(-175.905 -648.88)" fill="#fff"/></clipPath><clipPath id="v"><path d="M281,652.309a3.429,3.429,0,1,0,3.429-3.429A3.429,3.429,0,0,0,281,652.309" transform="translate(-281 -648.88)" fill="#fff"/></clipPath><clipPath id="w"><path d="M386.1,652.309a3.429,3.429,0,1,0,3.429-3.429,3.429,3.429,0,0,0-3.429,3.429" transform="translate(-386.095 -648.88)" fill="#fff"/></clipPath><clipPath id="x"><rect width="13.426" height="19.044" fill="#fff"/></clipPath><clipPath id="aa"><path d="M128.624,349.019l-.228,2.513h6.565a14.272,14.272,0,0,0-1.641,1.831,15.062,15.062,0,0,0-1.47,2.5,12.493,12.493,0,0,0-.987,2.7,13.658,13.658,0,0,0-.285,2.615h3.472q-.038-.588-.038-.9a15.238,15.238,0,0,1,.346-2.789,11.973,11.973,0,0,1,1.395-3.6,12.865,12.865,0,0,1,1.931-2.713v-2.165Z" transform="translate(-128.396 -349.019)" fill="#5592ff"/></clipPath><clipPath id="ab"><path d="M269.5,349.019l-.228,2.513h6.565a14.27,14.27,0,0,0-1.641,1.831,15.058,15.058,0,0,0-1.47,2.5,12.492,12.492,0,0,0-.987,2.7,13.648,13.648,0,0,0-.285,2.615h3.472q-.038-.588-.038-.9a15.239,15.239,0,0,1,.346-2.789,11.971,11.971,0,0,1,1.395-3.6,12.864,12.864,0,0,1,1.931-2.713v-2.165Z" transform="translate(-269.274 -349.019)" fill="#5592ff"/></clipPath><clipPath id="ac"><path d="M410.379,349.019l-.228,2.513h6.565a14.265,14.265,0,0,0-1.641,1.831,15.058,15.058,0,0,0-1.47,2.5,12.507,12.507,0,0,0-.987,2.7,13.651,13.651,0,0,0-.285,2.615H415.8q-.038-.588-.038-.9a15.25,15.25,0,0,1,.346-2.789,11.971,11.971,0,0,1,1.395-3.6,12.868,12.868,0,0,1,1.93-2.713v-2.165Z" transform="translate(-410.151 -349.019)" fill="#5592ff"/></clipPath></defs><g transform="translate(-2.917 -16.903)"><g transform="translate(69.194 37.817)"><g transform="translate(0 0)" clip-path="url(#c)"><rect width="19.854" height="2.194" transform="translate(-0.377 19.816) rotate(-88.911)" fill="#9fc6ff"/></g></g><g transform="translate(68.723 34.968)"><g clip-path="url(#d)"><rect width="10.076" height="3.41" transform="matrix(0.019, -1, 1, 0.019, -0.192, 10.013)" fill="#407bff"/></g></g><g transform="translate(21.357 57.452)"><g clip-path="url(#e)"><rect width="50.063" height="8.26" fill="#407bff"/></g></g><g transform="translate(18.443 52.847)"><g clip-path="url(#f)"><rect width="50.063" height="17.463" transform="translate(0 0)" fill="url(#g)"/></g></g><g transform="translate(2.917 16.903)"><g clip-path="url(#h)"><path d="M0,0H65.5V92H0Z" transform="translate(-0.02 0)" fill="url(#a)"/></g></g><g transform="translate(5.828 27.434)"><g clip-path="url(#j)"><rect width="59.049" height="38.036" fill="url(#b)"/></g></g><g transform="translate(8.977 31.344)"><g clip-path="url(#l)"><rect width="50.722" height="32.172" transform="translate(0 0)" fill="#19437f"/></g></g><g transform="translate(12.688 68.299)"><g clip-path="url(#m)"><rect width="44.508" height="18.382" transform="translate(0)" fill="#5592ff"/></g></g><g transform="translate(16.583 70.467)"><g clip-path="url(#n)"><rect width="37.955" height="13.305" fill="#19437f"/></g></g><g transform="translate(17.122 89.654)"><g clip-path="url(#o)"><rect width="12.05" height="6.032" transform="translate(0)" fill="#5592ff"/></g></g><g transform="translate(18.675 90.052)"><g clip-path="url(#p)"><rect width="8.981" height="4.366" transform="translate(0 0)" fill="url(#q)"/></g></g><g transform="translate(50.12 89.654)"><g clip-path="url(#r)"><rect width="4.013" height="6.032" fill="#5592ff"/></g></g><g transform="translate(51.544 90.052)"><g clip-path="url(#s)"><rect width="1.137" height="4.366" transform="translate(0 0)" fill="url(#t)"/></g></g><g transform="translate(20.116 73.061)"><g clip-path="url(#u)"><rect width="6.858" height="6.858" fill="#fff"/></g></g><g transform="translate(32.174 73.061)"><g clip-path="url(#v)"><rect width="6.858" height="6.858" transform="translate(0)" fill="#fff"/></g></g><g transform="translate(44.233 73.061)"><g clip-path="url(#w)"><rect width="6.858" height="6.858" fill="#fff"/></g></g><g transform="translate(12.131 37.778)"><g transform="translate(0 0)"><g clip-path="url(#x)"><rect width="13.426" height="19.044" transform="translate(0 0)" fill="#fff"/></g></g><g transform="translate(15.464 0)"><g transform="translate(0)" clip-path="url(#x)"><rect width="13.426" height="19.044" fill="#fff"/></g></g><g transform="translate(30.928 0)"><g transform="translate(0)" clip-path="url(#x)"><rect width="13.426" height="19.044" transform="translate(0 0)" fill="#fff"/></g></g><g transform="translate(2.069 3.44)"><g transform="translate(0 0)" clip-path="url(#aa)"><rect width="9.287" height="12.163" transform="translate(0 0)" fill="#5592ff"/></g></g><g transform="translate(17.533 3.44)"><g transform="translate(0 0)" clip-path="url(#ab)"><rect width="9.287" height="12.163" transform="translate(0 0)" fill="#5592ff"/></g></g><g transform="translate(32.997 3.44)"><g transform="translate(0 0)" clip-path="url(#ac)"><rect width="9.287" height="12.163" transform="translate(0 0)" fill="#5592ff"/></g></g></g></g></svg>