<?xml version="1.0" encoding="utf-8"?>
<!-- Generator: Adobe Illustrator 24.3.0, SVG Export Plug-In . SVG Version: 6.00 Build 0)  -->
<svg version="1.1" id="Layer_1" xmlns="http://www.w3.org/2000/svg" xmlns:xlink="http://www.w3.org/1999/xlink" x="0px" y="0px"
	 viewBox="0 0 113.1 52" style="enable-background:new 0 0 113.1 52;" xml:space="preserve">
<style type="text/css">
	.st0{fill:url(#SVGID_1_);}
	.st1{fill:url(#SVGID_2_);}
	.st2{fill:url(#SVGID_3_);}
	.st3{fill:#FFFFFF;}
</style>
<g transform="translate(1000.49 -509.899)">
	
		<linearGradient id="SVGID_1_" gradientUnits="userSpaceOnUse" x1="-1607.7867" y1="912.1606" x2="-1607.7867" y2="911.5852" gradientTransform="matrix(34.524 0 0 -41.7063 54516.6523 38566.7148)">
		<stop  offset="0" style="stop-color:#FFD102"/>
		<stop  offset="1" style="stop-color:#FF9401"/>
	</linearGradient>
	<path class="st0" d="M-980.6,539.1c0,3.2-0.8,5.5-2.5,7c-1.3,1.2-3.1,1.8-4.9,1.7c-2.2,0.1-4.2-1.1-5.1-3.1h-0.1v2.8h-7.3v-23.6
		h7.8v9.5c1.1-1.6,3-2.6,5-2.4c1.8-0.1,3.5,0.6,4.8,1.8C-981.4,534.2-980.6,536.3-980.6,539.1z M-989,539.2c0-0.7-0.1-1.5-0.3-2.2
		c-0.2-0.8-0.9-1.3-1.6-1.3c-0.8,0-1.4,0.5-1.6,1.2c-0.2,0.7-0.3,1.5-0.3,2.2c0,0.7,0.1,1.5,0.3,2.2c0.2,0.8,0.9,1.3,1.6,1.3
		c0.8,0,1.4-0.5,1.6-1.2C-989.1,540.7-989,539.9-989,539.2z"/>
	
		<linearGradient id="SVGID_2_" gradientUnits="userSpaceOnUse" x1="-1607.007" y1="908.6662" x2="-1607.007" y2="908.0908" gradientTransform="matrix(32.28 0 0 -29.523 50903.9414 27357.4609)">
		<stop  offset="0" style="stop-color:#FFD102"/>
		<stop  offset="1" style="stop-color:#FF9401"/>
	</linearGradient>
	<path class="st1" d="M-960.9,541.3h-10.8c0,0.7,0.3,1.3,0.7,1.7c0.7,0.6,1.8,0.9,3.2,0.9c0.9,0,1.8-0.1,2.7-0.2c1-0.2,2-0.5,3-0.9
		v4.2c-1.2,0.3-2.4,0.6-3.7,0.7c-1.2,0.1-2.4,0.2-3.6,0.2c-3.8,0-6.5-1-8.2-3.1c-1.3-1.6-1.9-3.6-1.9-5.7c-0.1-2.3,0.9-4.5,2.6-6
		c1.7-1.5,4-2.2,6.8-2.2c2.5,0,4.5,0.6,6.1,1.7c2.1,1.5,3.1,3.9,3.1,7.3L-960.9,541.3z M-967.7,538v-0.3c0.1-0.8-0.2-1.7-0.7-2.3
		c-0.3-0.4-0.8-0.6-1.3-0.6c-0.4,0-0.9,0.1-1.2,0.4c-0.5,0.5-0.8,1.3-0.8,2.4v0.3H-967.7z"/>
	
		<linearGradient id="SVGID_3_" gradientUnits="userSpaceOnUse" x1="-1601.603" y1="911.7588" x2="-1601.603" y2="911.1833" gradientTransform="matrix(24.51 0 0 -39.8173 38302.4297 36828.7422)">
		<stop  offset="0" style="stop-color:#FFD102"/>
		<stop  offset="1" style="stop-color:#FF9401"/>
	</linearGradient>
	<path class="st2" d="M-945.8,547.1c-0.6,0.2-1.2,0.4-1.8,0.5c-1,0.2-2,0.3-3.1,0.3c-2.6,0-4.4-0.7-5.4-2.1c-0.7-1-1.1-2.4-1.1-4.3
		v-5.6h-2.8v-4.6h2.8v-4l7.8-2.3v6.3h3.5v4.6h-3.5v4.6c0,0.6,0.1,1.1,0.4,1.6c0.3,0.4,0.8,0.6,1.3,0.5c0.2,0,0.5,0,0.7-0.1
		c0.3-0.1,0.7-0.1,1-0.2L-945.8,547.1z"/>
	<path class="st3" d="M-927.4,541.5c0,1.6-0.6,3.1-1.9,4.1c-1.7,1.5-4.5,2.3-8.3,2.3c-1.1,0-2.1-0.1-3.2-0.2
		c-1.3-0.2-2.5-0.4-3.8-0.7v-5.1c0.9,0.3,1.9,0.5,2.9,0.7c0.9,0.2,1.8,0.3,2.6,0.3c1.3,0,2.3-0.3,2.9-0.8c0.4-0.3,0.6-0.7,0.6-1.2
		c0-0.7-0.3-1.3-0.9-1.6c-0.8-0.4-1.6-0.6-2.5-0.5h-2.8v-4.5h2.8c0.8,0.1,1.7-0.1,2.4-0.5c0.5-0.3,0.7-0.8,0.8-1.3
		c0-0.5-0.2-1.1-0.6-1.4c-0.6-0.5-1.6-0.8-3-0.8c-0.8,0-1.6,0.1-2.4,0.2c-0.8,0.2-1.6,0.4-2.4,0.6v-4.8c1.1-0.3,2.3-0.5,3.5-0.6
		c1-0.1,2.1-0.2,3.1-0.2c3.7,0,6.4,0.7,8.1,2.1c1.2,1,1.9,2.4,1.9,4c0,1.1-0.4,2.2-1.1,3.1c-0.8,1-1.9,1.6-3.1,1.8
		c1.3,0.2,2.5,0.8,3.3,1.8C-927.8,539.2-927.3,540.3-927.4,541.5z"/>
	<path class="st3" d="M-909.1,541.5c0,1.6-0.6,3.1-1.9,4.1c-1.7,1.5-4.5,2.3-8.3,2.3c-1.1,0-2.1-0.1-3.2-0.2
		c-1.3-0.2-2.5-0.4-3.8-0.7v-5.1c0.9,0.3,1.9,0.5,2.9,0.7c0.9,0.2,1.8,0.3,2.6,0.3c1.3,0,2.3-0.3,2.9-0.8c0.4-0.3,0.6-0.7,0.6-1.2
		c0-0.7-0.3-1.3-0.9-1.6c-0.8-0.4-1.6-0.6-2.5-0.5h-2.8v-4.5h2.8c0.8,0.1,1.7-0.1,2.4-0.5c0.5-0.3,0.7-0.8,0.8-1.3
		c0-0.5-0.2-1.1-0.6-1.4c-0.6-0.5-1.6-0.8-3-0.8c-0.8,0-1.6,0.1-2.4,0.2c-0.8,0.2-1.6,0.4-2.4,0.6v-4.8c1.1-0.3,2.3-0.5,3.5-0.6
		c1-0.1,2.1-0.2,3.1-0.2c3.7,0,6.4,0.7,8.1,2.1c1.2,1,1.9,2.4,1.9,4c0,1.1-0.4,2.2-1.1,3.1c-0.8,1-1.9,1.6-3.1,1.8
		c1.3,0.2,2.5,0.8,3.3,1.8C-909.5,539.2-909.1,540.3-909.1,541.5z"/>
	<path class="st3" d="M-887.4,541.5c0,1.6-0.7,3.1-1.9,4.1c-1.8,1.5-4.5,2.3-8.4,2.3c-3.8,0-6.6-0.8-8.4-2.3c-1.2-1-1.9-2.6-1.9-4.2
		c-0.1-1.3,0.5-2.6,1.4-3.4c0.9-0.7,1.9-1.2,3-1.5v-0.1c-1.1-0.3-2.2-0.9-2.9-1.8c-0.7-0.9-1.1-2-1-3.2c0-1.8,1-3.5,2.6-4.4
		c1.7-1.1,4.1-1.6,7.1-1.6c3,0,5.3,0.5,7,1.5c1.8,1.1,2.7,2.6,2.7,4.5c0,1.1-0.4,2.3-1.1,3.2c-0.7,0.9-1.7,1.6-2.9,1.9v0.1
		c1.2,0.2,2.4,0.8,3.2,1.8C-887.9,539.2-887.4,540.3-887.4,541.5z M-895.2,540.5c0-0.7-0.2-1.4-0.7-2c-0.4-0.5-1.1-0.8-1.8-0.8
		c-0.7,0-1.3,0.3-1.8,0.8c-0.5,0.6-0.7,1.3-0.7,2c0,0.7,0.2,1.4,0.7,2c0.4,0.5,1.1,0.8,1.8,0.8c0.7,0,1.3-0.3,1.8-0.8
		C-895.4,542-895.2,541.3-895.2,540.5z M-895.5,532.1c0-0.7-0.2-1.3-0.7-1.8c-0.4-0.4-1-0.6-1.6-0.7c-0.6,0-1.1,0.2-1.6,0.6
		c-0.5,0.5-0.7,1.2-0.7,1.8c0,0.7,0.2,1.3,0.7,1.8c0.4,0.4,1,0.6,1.5,0.7c0.6,0,1.1-0.2,1.6-0.6
		C-895.7,533.4-895.4,532.8-895.5,532.1z"/>
</g>
</svg>
