<svg xmlns="http://www.w3.org/2000/svg" width="100" height="100" viewBox="0 0 100 100"><g transform="translate(-19625 -1440)"><rect width="100" height="100" transform="translate(19625 1440)" fill="#323232"/><g transform="translate(19630.475 1468.053)"><path d="M10.491,30.514A11.848,11.848,0,0,1,6.67,29.88a10.766,10.766,0,0,1-3.364-1.827,9.117,9.117,0,0,1-2.4-2.866A7.809,7.809,0,0,1-.006,21.4,8.441,8.441,0,0,1,1.1,17.1a6.785,6.785,0,0,1,3.364-2.876,7.717,7.717,0,0,1-2.1-2.336,6.117,6.117,0,0,1-.716-3.052,7.6,7.6,0,0,1,.716-3.322A7.424,7.424,0,0,1,4.292,2.979,8.857,8.857,0,0,1,7.085,1.37,9.7,9.7,0,0,1,10.418.8a9.717,9.717,0,0,1,3.281.55,9.024,9.024,0,0,1,2.814,1.589A7.342,7.342,0,0,1,18.454,5.45a7.527,7.527,0,0,1,.716,3.312,6.267,6.267,0,0,1-.716,3.1A8.045,8.045,0,0,1,16.4,14.223,6.691,6.691,0,0,1,19.741,17.1a8.535,8.535,0,0,1,1.09,4.3,7.914,7.914,0,0,1-.893,3.79,8.993,8.993,0,0,1-2.357,2.866,10.673,10.673,0,0,1-3.322,1.827A11.577,11.577,0,0,1,10.491,30.514Zm-.073-13a2.96,2.96,0,0,0-2.263.934A3.476,3.476,0,0,0,8.2,23.1a3.115,3.115,0,0,0,2.336.955,2.627,2.627,0,0,0,1.194-.28,3.322,3.322,0,0,0,.966-.737,3.092,3.092,0,0,0,.633-1.028,3.342,3.342,0,0,0,.218-1.2,3.26,3.26,0,0,0-.893-2.315A2.886,2.886,0,0,0,10.418,17.515Zm.073-10.86a2.638,2.638,0,0,0-1.942.8A2.533,2.533,0,0,0,7.76,9.312a2.521,2.521,0,0,0,2.575,2.616A2.779,2.779,0,0,0,12.3,11.16a2.606,2.606,0,0,0,.768-1.921A2.44,2.44,0,0,0,12.3,7.433,2.482,2.482,0,0,0,10.491,6.654Z" transform="translate(0 -0.716)" fill="#f18f1d"/><path d="M226.091,30.514a11.848,11.848,0,0,1-3.821-.633,10.766,10.766,0,0,1-3.364-1.827,9.118,9.118,0,0,1-2.4-2.866,7.809,7.809,0,0,1-.914-3.79,8.441,8.441,0,0,1,1.111-4.3,6.785,6.785,0,0,1,3.364-2.876,7.718,7.718,0,0,1-2.1-2.336,6.117,6.117,0,0,1-.716-3.052,7.6,7.6,0,0,1,2.637-5.856,8.857,8.857,0,0,1,2.793-1.609A9.7,9.7,0,0,1,226.018.8a9.822,9.822,0,0,1,3.291.55,9.145,9.145,0,0,1,2.814,1.589,7.393,7.393,0,0,1,2.648,5.825,6.381,6.381,0,0,1-.706,3.1A7.818,7.818,0,0,1,232,14.223a6.716,6.716,0,0,1,3.354,2.876,8.535,8.535,0,0,1,1.09,4.3,8.036,8.036,0,0,1-.893,3.79,9.272,9.272,0,0,1-2.357,2.866,10.726,10.726,0,0,1-3.333,1.827A11.535,11.535,0,0,1,226.091,30.514Zm-.073-13a2.96,2.96,0,0,0-2.263.934A3.476,3.476,0,0,0,223.8,23.1a3.115,3.115,0,0,0,2.336.955,2.627,2.627,0,0,0,1.194-.28,3.188,3.188,0,0,0,.966-.737,3.092,3.092,0,0,0,.633-1.028,3.342,3.342,0,0,0,.218-1.2,3.26,3.26,0,0,0-.893-2.315A2.886,2.886,0,0,0,226.018,17.515Zm.073-10.86a2.658,2.658,0,0,0-1.942.8,2.575,2.575,0,0,0-.789,1.858,2.542,2.542,0,0,0,.737,1.879,2.5,2.5,0,0,0,1.838.737,2.779,2.779,0,0,0,1.962-.768,2.617,2.617,0,0,0,.779-1.921,2.45,2.45,0,0,0-.779-1.807A2.462,2.462,0,0,0,226.091,6.655Z" transform="translate(-193.215 -0.716)" fill="#f18f1d"/><path d="M447.028,9.552a7.725,7.725,0,0,1,2.637,2.16,9.406,9.406,0,0,1,1.609,3.167,13.351,13.351,0,0,1,.53,3.779,11.225,11.225,0,0,1-.872,4.465,10.694,10.694,0,0,1-2.4,3.52,10.88,10.88,0,0,1-3.6,2.326,11.96,11.96,0,0,1-4.454.831,12.824,12.824,0,0,1-4.62-.81,10.839,10.839,0,0,1-3.665-2.3,10.559,10.559,0,0,1-2.419-3.561,11.957,11.957,0,0,1-.872-4.662,11.3,11.3,0,0,1,.758-4.08,19.229,19.229,0,0,1,1.942-3.717L438.888,0h8.638L436.863,17.079a1.837,1.837,0,0,0-.156.291,1.99,1.99,0,0,1-.156.3c-.083.27-.145.519-.2.758a3.194,3.194,0,0,0-.083.706,4.205,4.205,0,0,0,1.09,2.918,3.665,3.665,0,0,0,2.876,1.2,4.256,4.256,0,0,0,1.578-.291,3.884,3.884,0,0,0,1.308-.841,3.945,3.945,0,0,0,.893-1.267,3.943,3.943,0,0,0-.872-4.454,4.153,4.153,0,0,0-2.907-1.111,4.66,4.66,0,0,0-1.267.2L443.4,8.753A7.894,7.894,0,0,1,447.028,9.552Z" transform="translate(-384.375)" fill="#f18f1d"/><path d="M676,30.513a11.753,11.753,0,0,1-3.821-.633,10.933,10.933,0,0,1-3.374-1.827,9.408,9.408,0,0,1-2.4-2.866,7.921,7.921,0,0,1-.914-3.79,8.442,8.442,0,0,1,1.111-4.3,6.855,6.855,0,0,1,3.374-2.876,7.758,7.758,0,0,1-2.108-2.336,6.116,6.116,0,0,1-.706-3.052,7.746,7.746,0,0,1,.706-3.322A7.445,7.445,0,0,1,669.8,2.979,8.743,8.743,0,0,1,672.6,1.369,9.592,9.592,0,0,1,675.918.8a9.781,9.781,0,0,1,3.291.55,9.025,9.025,0,0,1,2.814,1.589,7.434,7.434,0,0,1,2.658,5.825,6.266,6.266,0,0,1-.716,3.1,7.818,7.818,0,0,1-2.066,2.357,6.716,6.716,0,0,1,3.354,2.876,8.535,8.535,0,0,1,1.09,4.3,8.037,8.037,0,0,1-.893,3.79,9.134,9.134,0,0,1-2.357,2.866,10.61,10.61,0,0,1-3.333,1.827A11.473,11.473,0,0,1,676,30.513Zm-.083-13a2.937,2.937,0,0,0-2.253.934A3.491,3.491,0,0,0,673.7,23.1a3.106,3.106,0,0,0,2.346.955,2.616,2.616,0,0,0,1.184-.28,3.228,3.228,0,0,0,.976-.737,3.271,3.271,0,0,0,.633-1.028,3.344,3.344,0,0,0,.218-1.2,3.3,3.3,0,0,0-.893-2.315A2.886,2.886,0,0,0,675.918,17.514ZM676,6.654a2.637,2.637,0,0,0-1.942.8,2.544,2.544,0,0,0-.8,1.858A2.542,2.542,0,0,0,674,11.191a2.5,2.5,0,0,0,1.848.737,2.72,2.72,0,0,0,1.952-.768,2.617,2.617,0,0,0,.779-1.921,2.451,2.451,0,0,0-.779-1.807A2.44,2.44,0,0,0,676,6.654Z" transform="translate(-596.404 -0.715)" fill="#f18f1d"/></g><g transform="translate(18791.863 1415.897)"><path d="M896.895,85.3l-.872,4.518h.588v13.564h-3.835V93.81H891.4l1.629-8.51Zm8.426,0v2.08h4.139v1.45H908.41l1.051,14.2h-2.784l-.116-1.6h-1.24V103.4H901.3v-1.965h-1.219l-.116,1.6h-2.784l1.019-14.2h-1.019V87.38H901.3V85.3Zm-5.148,14.688H901.3V88.83h-.3Zm5.148,0h1.124l-.82-11.158h-.3Z" fill="#fff"/><path d="M1084.215,86v1.282h6.766v1.429h-10.2l-1.681,2.543h5.989a.336.336,0,0,0,.326-.2.315.315,0,0,0-.042-.378l-.914-1.24h4.749l.914,1.219a1.262,1.262,0,0,1-1.009,2.038H1073.4l2.648-3.982H1072.9V87.282h6.777V86Zm.735,16.484a.536.536,0,0,0,.536-.536v-1h-7.092v2.984h-4.539V93.617H1090v8.5a1.818,1.818,0,0,1-1.807,1.818h-4.77v-1.45Zm-6.556-7.438V96.5h7.092v-1.45Zm0,4.455h7.092V97.946h-7.092Z" transform="translate(-162.431 -0.626)" fill="#fff"/></g></g></svg>