<svg id="Layer_1" data-name="Layer 1" xmlns="http://www.w3.org/2000/svg" viewBox="0 0 122.65903 70"><defs><style>.cls-1{fill:#ff9200;}.cls-2{fill:#fff;}</style></defs><polygon class="cls-1" points="47.709 47.5 47.709 36.155 40.701 47.5 47.709 47.5"/><polygon class="cls-1" points="11.217 22.5 11.217 28.092 14.579 28.092 14.579 31.92 6.358 31.92 6.358 22.5 0 22.5 0 47.465 6.358 47.465 6.358 37.479 14.579 37.479 14.579 47.465 20.937 47.465 20.937 28.092 20.937 22.5 14.579 22.5 11.217 22.5"/><path class="cls-1" d="M41.841,33.28479H33.75232v4.9263h4.72677l-2.6298,3.828q-.16673,0-.3327.0165a3.551,3.551,0,0,1-.36615.01672,6.18807,6.18807,0,0,1-4.81-2.147,7.08548,7.08548,0,0,1-1.31472-2.29668,8.24688,8.24688,0,0,1-.4661-2.77951,7.53887,7.53887,0,0,1,.48265-2.67956,6.85068,6.85068,0,0,1,1.34811-2.23019A6.48989,6.48989,0,0,1,32.47088,28.425a6.26878,6.26878,0,0,1,2.67956-.56587,5.85806,5.85806,0,0,1,3.06226.81541,6.30589,6.30589,0,0,1,2.23019,2.31341h6.857a10.56975,10.56975,0,0,0-1.63105-3.32865,11.45506,11.45506,0,0,0-2.047-2.16352,13.28673,13.28673,0,0,0-5.34263-2.64634A12.724,12.724,0,0,0,35.31688,22.5a13.53278,13.53278,0,0,0-4.993.91529,12.78238,12.78238,0,0,0-4.09423,2.56313,11.93934,11.93934,0,0,0-3.79474,8.87075,12.4293,12.4293,0,0,0,2.82945,7.97219,12.85985,12.85985,0,0,0,3.14548,2.74611,12.36088,12.36088,0,0,0,3.97779,1.5976,12.69954,12.69954,0,0,0,2.796.29966,13.7408,13.7408,0,0,0,2.26346-.183,12.705,12.705,0,0,0,2.06375-.516L47.899,33.28479Z"/><path class="cls-2" d="M77.4385,30.84585c-.112,0-.22154.00991-.33251.01429v-.01429H74.77846v-1.995h9.64262V22.53326H68.12839V37.16343h8.6451a1.99668,1.99668,0,1,1,0,3.99h-8.6451v6.31758H77.106v-.01429c.111.00438.22048.01429.33251.01429a8.30847,8.30847,0,0,0,7.20206-4.16024,3.33367,3.33367,0,0,0,.44553-1.66746v-4.9698a3.33364,3.33364,0,0,0-.44553-1.66745A8.30848,8.30848,0,0,0,77.4385,30.84585Z"/><path class="cls-2" d="M60.60041,31.71628l5.20045-5.52548V22.53326H49.17567v6.31757h7.31508L52.1682,33.50589v3.65754h6.23393a2.05042,2.05042,0,0,1,2.07774,1.93366,1.995,1.995,0,0,1-1.9941,2.05638h-9.3101v6.31758h9.64261a7.98094,7.98094,0,0,0,7.42457-5.05382,3.28379,3.28379,0,0,0,.223-1.20484V37.76963a3.28162,3.28162,0,0,0-.22291-1.20449A7.9934,7.9934,0,0,0,60.60041,31.71628Z"/><path class="cls-2" d="M115.01143,30.84585h-2.66v-1.995H121.994V22.53326H105.70132V37.16343h8.64511a1.99668,1.99668,0,1,1,0,3.99h-8.64511v6.31758h9.31011a8.30847,8.30847,0,0,0,7.20207-4.16024,3.33367,3.33367,0,0,0,.44553-1.66746v-4.9698a3.33364,3.33364,0,0,0-.44553-1.66745A8.30848,8.30848,0,0,0,115.01143,30.84585Z"/><path class="cls-2" d="M98.17335,31.71628l5.20045-5.52548V22.53326H86.7486v6.31757h7.31509l-4.32255,4.65506v3.65754h6.23393a2.05043,2.05043,0,0,1,2.07774,1.93366,1.995,1.995,0,0,1-1.9941,2.05638H86.7486v6.31758h9.64262a7.98094,7.98094,0,0,0,7.42457-5.05382,3.28379,3.28379,0,0,0,.223-1.20484V37.76963a3.28162,3.28162,0,0,0-.22291-1.20449A7.99342,7.99342,0,0,0,98.17335,31.71628Z"/></svg>