<?xml version="1.0" encoding="utf-8"?>
<!-- Generator: Adobe Illustrator 23.0.6, SVG Export Plug-In . SVG Version: 6.00 Build 0)  -->
<svg version="1.1" id="Layer_1" xmlns="http://www.w3.org/2000/svg" xmlns:xlink="http://www.w3.org/1999/xlink" x="0px" y="0px"
	 viewBox="0 0 100 100" style="enable-background:new 0 0 100 100;" xml:space="preserve">
<style type="text/css">
	.st0{fill:#1D1D1D;}
</style>
<path id="联合_4" class="st0" d="M57.03,89.4V75H42.97v14.4c0,3.09-2.5,5.6-5.6,5.6c-3.09,0-5.6-2.5-5.6-5.6l0,0V75h-0.27
	c-3.85-0.03-6.96-3.18-6.93-7.05v-0.01V31.56c0-0.21,0.01-0.44,0.03-0.65h50.8c0.01,0.21,0.03,0.42,0.03,0.65v36.38
	c0.04,3.85-3.05,7.02-6.92,7.06h-0.01h-0.27v14.4c0,3.09-2.5,5.6-5.6,5.6C59.53,95,57.03,92.48,57.03,89.4L57.03,89.4L57.03,89.4z
	 M78.83,63.77V39.74c-0.06-3.09,2.4-5.64,5.5-5.7c3.09-0.06,5.64,2.4,5.7,5.5c0,0.07,0,0.13,0,0.2v24.01c0.06,3.09-2.4,5.64-5.5,5.7
	c-3.09,0.06-5.64-2.4-5.7-5.5C78.83,63.89,78.83,63.82,78.83,63.77z M9.97,63.77V39.74c0-3.09,2.5-5.6,5.6-5.6s5.6,2.5,5.6,5.6l0,0
	v24.01c0,3.09-2.5,5.6-5.6,5.6C12.48,69.36,9.97,66.86,9.97,63.77L9.97,63.77z M24.76,28.52c0.13-5.23,2.26-10.21,5.96-13.91
	l-4.78-8.27c-0.27-0.41-0.14-0.96,0.27-1.21c0.41-0.25,0.96-0.14,1.21,0.27c0.01,0.03,0.03,0.04,0.04,0.07l4.57,7.92
	c4.26-3.67,9.55-5.91,15.15-6.4h5.63c5.6,0.49,10.9,2.73,15.15,6.4l4.57-7.92c0.23-0.42,0.76-0.59,1.18-0.35
	c0.42,0.23,0.59,0.76,0.35,1.18c-0.01,0.01-0.01,0.03-0.03,0.06l-4.75,8.26c3.71,3.7,5.85,8.68,5.96,13.91
	C75.23,28.52,24.76,28.52,24.76,28.52z M61.19,15.67c-1.58-0.01-2.87,1.25-2.88,2.83l0,0v0.01c0.06,1.6,1.41,2.84,3,2.78
	c1.52-0.06,2.74-1.28,2.78-2.8v-0.01C64.06,16.92,62.77,15.65,61.19,15.67L61.19,15.67z M39.58,15.67
	c-1.58-0.01-2.87,1.25-2.88,2.84l0,0v0.01c0.04,1.6,1.38,2.85,2.97,2.81c1.55-0.04,2.78-1.29,2.81-2.83v-0.01
	C42.46,16.92,41.17,15.65,39.58,15.67L39.58,15.67z"/>
</svg>
