<?xml version="1.0" encoding="utf-8"?>
<!-- Generator: Adobe Illustrator 23.0.6, SVG Export Plug-In . SVG Version: 6.00 Build 0)  -->
<svg version="1.1" id="Layer_1" xmlns="http://www.w3.org/2000/svg" xmlns:xlink="http://www.w3.org/1999/xlink" x="0px" y="0px"
	 viewBox="0 0 100 100" style="enable-background:new 0 0 100 100;" xml:space="preserve">
<style type="text/css">
	.st0{fill:#FCCB2C;}
	.st1{fill:#1D1D1D;}
</style>
<path id="路径_458" class="st0" d="M7.45,33.23c10.65-10.97,45.72-17.3,74.53,0c28.81,17.3,15.66,32.06,0,39.66
	c-15.66,7.6-44.47,5.91-63.89-5.91S-3.2,44.2,7.45,33.23z"/>
<g>
	<path class="st1" d="M50,9.99C27.9,9.99,9.98,27.9,9.99,50C9.99,72.1,27.9,90.02,50,90.01c22.1,0,40.01-17.92,40.01-40.01
		C89.99,27.91,72.09,10.01,50,9.99z M50,86.77c-20.31,0-36.77-16.47-36.77-36.78c0-20.31,16.47-36.77,36.78-36.77
		c20.31,0,36.77,16.47,36.77,36.77C86.75,70.3,70.3,86.75,50,86.77z"/>
	<path class="st1" d="M63.92,25.43c-9.46-6.77-20.74,0.89-25.7,6.18c-17.98,4.58-16.3,17.97-16.28,18.11
		c0.07,0.46,0.33,0.87,0.72,1.13c0.39,0.26,0.88,0.33,1.33,0.2l4.67-1.32c-0.88,7.7,2.33,15.31,8.45,20.06
		c2.7,1.98,5.85,3.26,9.17,3.72c0.61,0.13,1.37,0.28,1.46,0.3c2.42,1.95,5.41,3.06,8.52,3.17c1.33,0.03,2.65-0.25,3.84-0.82
		c0.51-0.29,0.83-0.83,0.83-1.42V55.19c0-0.89-0.73-1.62-1.62-1.62c-0.37,0-0.73,0.13-1.02,0.36c-1.36,1.31-2.55,2.77-3.56,4.36
		c-1.09,1.8-2.87,3.06-4.93,3.5c-0.92,0.06-1.81-0.33-2.38-1.05c-0.64-0.7-0.87-1.68-0.6-2.59c0.53-2.3,3.41-5.85,9.8-8.33
		c7.19-2.78,12.08-7.93,12.78-13.44C69.93,32.22,67.99,28.32,63.92,25.43z M66.19,35.97c-0.53,4.25-4.75,8.5-10.73,10.81
		c-6.33,2.45-10.85,6.52-11.79,10.63c-0.51,1.96,0.01,4.04,1.39,5.53c1.24,1.42,3.07,2.19,4.96,2.08c3.04-0.47,5.73-2.25,7.35-4.86
		c0.11-0.15,0.22-0.3,0.32-0.44V73.6c-1.34,0.3-4.2,0.42-8.03-2.39c-0.84-0.47-1.77-0.77-2.73-0.86c-2.78-0.37-5.43-1.41-7.72-3.03
		c-10.17-8.6-7.04-18.94-6.9-19.37c0.27-0.85-0.2-1.76-1.05-2.04c-0.16-0.05-0.32-0.08-0.49-0.08c-0.15,0-0.3,0.02-0.44,0.06
		l-5.14,1.46c0.37-3.29,2.62-9.89,14.29-12.7c0.32-0.08,0.6-0.25,0.82-0.49c0.12-0.13,11.98-13.06,21.75-6.09
		C65.13,30.29,66.56,33.01,66.19,35.97z"/>
</g>
</svg>
