<?xml version="1.0" encoding="utf-8"?>
<!-- Generator: Adobe Illustrator 23.0.6, SVG Export Plug-In . SVG Version: 6.00 Build 0)  -->
<svg version="1.1" id="Layer_1" xmlns="http://www.w3.org/2000/svg" xmlns:xlink="http://www.w3.org/1999/xlink" x="0px" y="0px"
	 viewBox="0 0 100 100" style="enable-background:new 0 0 100 100;" xml:space="preserve">
<style type="text/css">
	.st0{fill:#FCCB2C;}
	.st1{fill:#1D1D1D;}
</style>
<path id="路径_458" class="st0" d="M7.45,33.23c10.65-10.97,45.72-17.3,74.53,0c28.81,17.3,15.66,32.06,0,39.66
	c-15.66,7.6-44.47,5.91-63.89-5.91S-3.2,44.2,7.45,33.23z"/>
<path id="路径_464" class="st1" d="M80.65,16.39c-2.45-2.32-5.76-3.49-9.13-3.23H38.78c-2.43-0.07-4.68,1.26-5.79,3.42
	c-1.83-1.31-4.05-1.98-6.3-1.9c-6.22,0-9.78,3.51-9.78,9.62v17.29c-0.14,2.53,0.84,4.99,2.69,6.72c2.26,1.73,5.08,2.54,7.91,2.26
	c6.81,0,9.34-4.71,9.34-7.68v-4.31c0-1.1,0.26-2.37,2.29-2.37h12.5c0.85,0,2.36,0.17,2.83,1.33c0.31,1.18-0.09,2.44-1.03,3.23
	c-3.98,4.39-7.38,9.29-10.09,14.56c-4.06,7.44-4.55,15.42-4.5,22.24c0.07,7.73,6.15,9.31,15.28,9.31c0.34,0,0.63-0.02,0.95-0.03
	c0.17,0,0.31,0.03,0.48,0.03v-0.05c10.98-0.49,11.9-6.54,11.9-8.45V61.45c0.09-9.04,2.98-17.83,8.26-25.16
	c1.03-1.35,2-2.44,2.87-3.42c2.2-2.47,4.1-4.6,4.41-8.46C83.4,21.52,82.54,18.61,80.65,16.39z M42.1,77.53
	c-0.05-6.41,0.39-13.86,4.1-20.66c1.66-3.05,3.48-5.99,5.47-8.83c-0.81,1.81-1.82,3.86-3.1,6.2c-2.91,5.34-4.45,11.32-4.47,17.4
	l-0.04,0.72c-0.16,3.27-0.35,7.25,1.62,10.28C43.36,82.12,41.81,79.91,42.1,77.53z M64.23,61.45v16.92c0,3.18-3.37,5.05-9.22,5.23
	c-2.2,0.14-4.38-0.58-6.06-2.01c-2.01-2.1-1.82-5.79-1.66-9.06l0.04-0.73c0-5.59,1.4-11.09,4.08-15.99
	c6.17-11.22,6.35-16.13,6.35-16.66h-0.03c0.17-0.95,0.09-1.93-0.25-2.83c-1.03-2.24-3.37-3.59-5.83-3.35H39.14
	c-2.88-0.18-5.36,2.01-5.54,4.89c-0.02,0.24-0.01,0.48,0.01,0.72v4.31c0,1.23-1.1,4.44-6.29,4.44c-1.97,0.2-3.95-0.32-5.57-1.46
	c-1.14-1.12-1.73-2.7-1.6-4.29V27.36c0-1.8,1.6-3.9,6.12-3.9c2.65-0.02,5.13,1.26,6.64,3.44c0.33,0.56,0.96,0.87,1.6,0.77
	c0.64-0.08,1.17-0.54,1.35-1.16c0.01-0.05,1.45-4.75,4.57-4.75h31.07c1.28-0.18,2.56,0.27,3.44,1.21c0.39,1.07,0.23,2.26-0.44,3.18
	l-0.38,0.72c-3.52,6.33-6.04,13.16-7.49,20.25c0,0.03,0,0.05,0,0.08C65.07,51.8,64.27,56.61,64.23,61.45z M79.79,24.16
	c-0.22,2.77-1.49,4.19-3.59,6.56c-0.3,0.34-0.64,0.72-0.96,1.09c0.63-1.28,1.23-2.42,1.75-3.41l0.39-0.74
	c1.24-1.91,1.37-4.33,0.34-6.36c-1.43-1.96-3.8-3.02-6.22-2.77H40.43c-2.88,0.17-5.42,1.92-6.61,4.55
	c-2.07-1.86-4.77-2.89-7.56-2.86c-2-0.06-3.98,0.4-5.74,1.33c0.77-2.47,2.78-3.64,6.16-3.64c4.19,0,5.46,2.39,5.5,2.48
	c0.3,0.67,1.02,1.04,1.74,0.91c0.72-0.12,1.27-0.71,1.34-1.44c0.01-0.14,0.38-3.46,3.51-3.46h32.75c2.46-0.24,4.9,0.56,6.75,2.19
	C79.51,20.17,80.06,22.18,79.79,24.16L79.79,24.16z"/>
</svg>
