<?xml version="1.0" encoding="utf-8"?>
<!-- Generator: Adobe Illustrator 23.0.6, SVG Export Plug-In . SVG Version: 6.00 Build 0)  -->
<svg version="1.1" id="Layer_1" xmlns="http://www.w3.org/2000/svg" xmlns:xlink="http://www.w3.org/1999/xlink" x="0px" y="0px"
	 viewBox="0 0 100 100" style="enable-background:new 0 0 100 100;" xml:space="preserve">
<style type="text/css">
	.st0{fill:#FCCB2C;}
	.st1{fill:#1D1D1D;}
</style>
<path id="路径_458" class="st0" d="M7.45,33.23c10.65-10.97,45.72-17.3,74.53,0c28.81,17.3,15.66,32.06,0,39.66
	c-15.66,7.6-44.47,5.91-63.89-5.91S-3.2,44.2,7.45,33.23z"/>
<g id="组_546" transform="translate(8)">
	<path id="路径_452" class="st1" d="M75.54,22.83c-0.4-0.45-1.02-0.64-1.61-0.49l-12.18,3.12l-8.39-14.05
		c-0.45-0.74-1.4-1-2.17-0.59l-12.74,6.9l-9.03-6.77c-0.43-0.32-0.98-0.42-1.49-0.24c-0.51,0.17-0.9,0.58-1.04,1.1l-6.42,22.87
		c-13.5,9.86-16.45,28.79-6.6,42.29c9.86,13.5,28.79,16.45,42.29,6.6c10.97-8.01,15.26-22.35,10.49-35.06l9.19-24
		C76.06,23.92,75.94,23.28,75.54,22.83z M29.38,14.96l7.96,5.98c0.5,0.38,1.19,0.43,1.74,0.13l12.28-6.67l8.2,13.76
		c0.37,0.62,1.1,0.92,1.79,0.74l10.31-2.64l-1.9,4.96l-11.08,1.14l-8.01-10.68c-0.43-0.57-1.17-0.79-1.84-0.55l-13.45,4.79
		l-7.56-5.56L29.38,14.96z M38.32,86.08c-14.93,0-27.03-12.11-27.02-27.04c0-9.35,4.83-18.03,12.78-22.96
		c0.76-0.47,0.99-1.47,0.52-2.23c-0.11-0.16-0.24-0.31-0.4-0.42l2.74-9.75l7.26,5.35c0.44,0.32,1,0.4,1.51,0.22l13.14-4.67
		l7.84,10.46c0.31,0.41,0.79,0.65,1.3,0.65c0.06,0,0.11,0,0.17-0.01l10.36-1.07L64.5,45.08c-0.35-0.09-0.73-0.06-1.06,0.09
		c-0.81,0.39-1.14,1.36-0.76,2.16c0,0,0,0,0,0c1.76,3.65,2.68,7.66,2.66,11.72C65.33,73.98,53.23,86.07,38.32,86.08L38.32,86.08z"/>
	<path id="路径_453" class="st1" d="M34.06,59.2c1.85-1.01,3-2.93,3.01-5.03v-0.61c0.03-1.22-0.28-2.43-0.89-3.49
		c-0.59-1-1.46-1.82-2.51-2.33c-2.39-1.11-5.14-1.11-7.52,0c-1.04,0.52-1.91,1.33-2.51,2.33c-0.61,1.06-0.91,2.27-0.89,3.49v0.61
		c0,1.03,0.28,2.04,0.81,2.92c0.51,0.89,1.25,1.62,2.15,2.12c-1.07,0.58-1.95,1.45-2.54,2.52c-0.62,1.09-0.95,2.32-0.95,3.57v0.42
		c-0.03,1.3,0.3,2.57,0.95,3.7c0.64,1.07,1.58,1.92,2.69,2.47c2.57,1.16,5.51,1.16,8.08,0c1.12-0.54,2.05-1.4,2.69-2.47
		c0.65-1.12,0.98-2.4,0.95-3.7v-0.42c0-1.25-0.33-2.48-0.97-3.56C36.02,60.66,35.13,59.78,34.06,59.2z M26.31,53.92
		c-0.02-0.66,0.14-1.31,0.45-1.9c0.29-0.54,0.73-0.98,1.27-1.26c1.18-0.59,2.58-0.59,3.76,0c0.54,0.29,0.98,0.73,1.27,1.26
		c0.31,0.58,0.47,1.23,0.45,1.88v0.24c0.01,0.68-0.14,1.36-0.45,1.97c-0.28,0.55-0.73,1.01-1.27,1.31c-1.18,0.62-2.58,0.62-3.76,0
		c-0.54-0.3-0.98-0.76-1.27-1.3c-0.31-0.6-0.47-1.27-0.45-1.94V53.92z M34.06,65.45c0.01,0.71-0.16,1.41-0.51,2.03
		c-0.34,0.59-0.85,1.06-1.45,1.37c-0.67,0.34-1.42,0.5-2.17,0.49c-0.75,0.02-1.5-0.15-2.17-0.48c-0.61-0.3-1.11-0.77-1.45-1.35
		c-0.35-0.61-0.53-1.31-0.51-2.02v-0.26c-0.02-0.72,0.16-1.43,0.51-2.05c0.34-0.59,0.84-1.07,1.45-1.38c1.38-0.65,2.97-0.65,4.35,0
		c0.61,0.31,1.11,0.78,1.45,1.37c0.35,0.62,0.53,1.33,0.51,2.04L34.06,65.45z"/>
	<path id="路径_454" class="st1" d="M48,46.87c-1.98-0.14-3.92,0.54-5.38,1.89c-1.3,1.45-1.96,3.36-1.85,5.3v11.51
		c-0.12,1.94,0.54,3.85,1.84,5.3c3.14,2.53,7.62,2.53,10.77,0.01c1.3-1.45,1.96-3.36,1.84-5.3V54.05c0.41-3.56-2.15-6.79-5.71-7.19
		c-0.5-0.06-1.01-0.06-1.51,0L48,46.87z M51.67,65.56c0.07,1.02-0.25,2.03-0.9,2.83c-1.62,1.31-3.94,1.31-5.56,0
		c-0.64-0.8-0.96-1.81-0.89-2.83V54.05c-0.07-1.02,0.25-2.03,0.89-2.83c1.62-1.31,3.95-1.31,5.57,0c0.64,0.8,0.96,1.81,0.89,2.83
		L51.67,65.56z"/>
	<path id="路径_455" class="st1" d="M28.65,33.09c-0.89,0.03-1.59,0.78-1.57,1.67c0.05,0.88,0.79,1.57,1.67,1.57
		c0.2,0,16.26-0.39,29.57,8.79c0.74,0.51,1.75,0.33,2.26-0.41c0.51-0.74,0.33-1.75-0.41-2.26l0,0
		C45.94,32.64,29.36,33.09,28.65,33.09z"/>
</g>
</svg>
