<?xml version="1.0" encoding="utf-8"?>
<!-- Generator: Adobe Illustrator 23.0.6, SVG Export Plug-In . SVG Version: 6.00 Build 0)  -->
<svg version="1.1" id="Layer_1" xmlns="http://www.w3.org/2000/svg" xmlns:xlink="http://www.w3.org/1999/xlink" x="0px" y="0px"
	 viewBox="0 0 100 100" style="enable-background:new 0 0 100 100;" xml:space="preserve">
<style type="text/css">
	.st0{fill:#FCCB2C;}
	.st1{fill:#1D1D1D;}
</style>
<path id="路径_458" class="st0" d="M7.45,33.23c10.65-10.97,45.72-17.3,74.53,0c28.81,17.3,15.66,32.06,0,39.66
	c-15.66,7.6-44.47,5.91-63.89-5.91S-3.2,44.2,7.45,33.23z"/>
<path id="路径_463" class="st1" d="M81.02,69.21c0.82-1.32,1.56-2.69,2.2-4.1c0.06-0.14,0.14-0.27,0.2-0.42
	c0.28-0.63,0.52-1.28,0.77-1.94c0.12-0.33,0.25-0.66,0.36-0.99c0.23-0.66,0.43-1.33,0.62-2c0.08-0.3,0.16-0.61,0.24-0.92
	c0.18-0.73,0.36-1.46,0.49-2.22l0.01-0.05c0.33-1.8,0.52-3.62,0.57-5.45c0-0.07,0.01-0.13,0.01-0.2V50.9
	c0.01-0.31,0.05-0.61,0.05-0.92c0-7.09-2.07-14.03-5.97-19.95c-0.01-0.02-0.01-0.05-0.03-0.07c-0.03-0.05-0.08-0.1-0.11-0.16
	c-0.26-0.38-0.54-0.75-0.81-1.12c-0.37-0.51-0.74-1.03-1.14-1.52c-0.33-0.41-0.67-0.79-1.03-1.19s-0.73-0.83-1.11-1.22
	c-0.4-0.42-0.81-0.83-1.23-1.23c-0.34-0.32-0.68-0.64-1.04-0.95c-0.48-0.42-0.97-0.84-1.48-1.24c-0.3-0.23-0.6-0.45-0.9-0.68
	c-0.58-0.43-1.16-0.85-1.77-1.25c-0.15-0.09-0.3-0.17-0.45-0.27c-2.26-1.43-4.68-2.61-7.2-3.51c-0.19-0.07-0.37-0.16-0.56-0.22
	c-0.01,0-0.03,0-0.04,0c-7.57-2.59-15.78-2.59-23.35,0c-0.01,0-0.03,0-0.04,0c-0.2,0.07-0.4,0.16-0.61,0.23
	c-2.34,0.84-4.58,1.92-6.7,3.22c-0.3,0.19-0.61,0.36-0.91,0.55c-0.51,0.34-1.01,0.7-1.5,1.06c-0.41,0.29-0.81,0.59-1.21,0.9
	s-0.82,0.66-1.22,1.01c-0.47,0.41-0.93,0.83-1.38,1.26c-0.31,0.3-0.62,0.59-0.92,0.9c-0.55,0.57-1.09,1.16-1.61,1.76
	c-0.17,0.21-0.37,0.41-0.54,0.63c-0.73,0.89-1.43,1.81-2.07,2.77c-0.02,0.02-0.01,0.05-0.03,0.08c-4,5.98-6.13,13.02-6.13,20.21
	c0,0.37,0.05,0.72,0.05,1.09v0.01c0,0.07,0.01,0.13,0.02,0.2c0.09,2.61,0.46,5.21,1.11,7.74c0.06,0.26,0.13,0.52,0.2,0.78
	c0.19,0.69,0.41,1.37,0.64,2.05c0.11,0.33,0.23,0.65,0.35,0.97c0.25,0.65,0.49,1.3,0.77,1.92c0.11,0.26,0.25,0.5,0.36,0.76
	c0.61,1.29,1.29,2.54,2.04,3.74c0.14,0.22,0.26,0.44,0.4,0.65c0.37,0.57,0.77,1.12,1.18,1.67c0.15,0.2,0.28,0.41,0.43,0.6
	c0.02,0.02,0.04,0.03,0.06,0.05c5.08,6.62,12.28,11.3,20.39,13.26l0.02,0.01l0.06,0.01c1.35,0.33,2.72,0.57,4.1,0.74
	c0.05,0.01,0.11,0.02,0.16,0.03c1.39,0.17,2.78,0.25,4.18,0.26c1.07,0,2.14-0.07,3.21-0.16c0.41-0.04,0.8-0.08,1.2-0.13
	c0.64-0.08,1.27-0.17,1.9-0.29c0.63-0.12,1.31-0.24,1.95-0.39c0.67-0.16,1.35-0.32,2.02-0.51h0.01c7.44-2.21,13.99-6.72,18.7-12.9
	c0.02-0.02,0.04-0.03,0.06-0.05c0.12-0.16,0.22-0.33,0.34-0.49c0.43-0.58,0.85-1.16,1.24-1.77C80.77,69.63,80.89,69.41,81.02,69.21z
	 M81.44,60.87c-0.04,0.13-0.09,0.25-0.14,0.37c-0.5,1.42-1.1,2.79-1.79,4.13v0.01c-0.72,1.38-1.54,2.7-2.45,3.97l-0.08,0.1
	L65.97,68.7l-6.7-8.87l4.04-12.46l11.3-1.94l8.59,6.25v0.14C83.04,54.91,82.44,57.95,81.44,60.87z M58.23,82.23
	c-0.94,0.24-1.88,0.43-2.83,0.59c-0.37,0.06-0.75,0.12-1.12,0.17c-0.79,0.11-1.59,0.17-2.39,0.21c-0.45,0.03-0.91,0.06-1.37,0.07
	c-1.05,0.01-2.11-0.02-3.18-0.11c-0.12-0.01-0.24,0-0.36-0.02c-1.32-0.13-2.63-0.33-3.93-0.62l-4.85-12.11l5.25-8.66h13.2l6.62,8.76
	l-4.65,11.6L58.23,82.23z M23.01,69.41c-1.78-2.47-3.21-5.17-4.25-8.03l-0.14-0.37c-1.02-2.92-1.63-5.96-1.8-9.05v-0.09l8.83-6.41
	l11.05,1.93l4.08,12.56l-5.32,8.78l-12.35,0.82L23.01,69.41z M20.56,34.54l2.78,8.57l-6.51,4.73
	C17.12,43.19,18.39,38.66,20.56,34.54L20.56,34.54z M23.18,30.37c0.76-1.03,1.57-2.02,2.44-2.95c0.18-0.2,0.36-0.41,0.55-0.61
	c1.05-1.07,2.17-2.08,3.35-3c0.17-0.14,0.36-0.26,0.53-0.4c2.53-1.9,5.31-3.42,8.26-4.54c0.08-0.03,0.17-0.06,0.25-0.09l9.82,7.13
	v10.43l-10.84,7.88L26.49,42.3l-3.7-11.39C22.91,30.72,23.05,30.55,23.18,30.37z M61.9,18.95c0.59,0.23,1.17,0.46,1.74,0.72
	c0.26,0.11,0.5,0.24,0.75,0.36c1.89,0.91,3.7,2,5.39,3.25c0.27,0.21,0.55,0.4,0.82,0.62c0.44,0.34,0.85,0.7,1.28,1.07
	c0.32,0.28,0.64,0.57,0.96,0.87c0.37,0.34,0.73,0.68,1.08,1.05c0.38,0.39,0.75,0.81,1.11,1.23c0.26,0.3,0.53,0.58,0.78,0.89
	c0.56,0.68,1.09,1.39,1.59,2.13l-3.62,11.16l-11.3,1.93l-10.85-7.89V25.91l9.82-7.13C61.59,18.84,61.75,18.89,61.9,18.95L61.9,18.95
	z M83.18,47.65l-6.26-4.55l2.68-8.27C81.66,38.82,82.87,43.18,83.18,47.65z M56.29,58.51H43.72l-3.88-11.95l10.17-7.39l10.17,7.39
	L56.29,58.51z M57.55,17.61l-7.54,5.48l-7.54-5.48C47.43,16.42,52.59,16.42,57.55,17.61L57.55,17.61z M25.65,72.61l9.69-0.64
	l3.79,9.46C33.98,79.64,29.35,76.61,25.65,72.61L25.65,72.61z M62.66,80.78l3.53-8.81l8.27,0.55C71.18,76.1,67.15,78.92,62.66,80.78
	L62.66,80.78z"/>
</svg>
