<svg version="1.1" id="Layer_1" xmlns="http://www.w3.org/2000/svg" x="0" y="0" viewBox="0 0 100 100" xml:space="preserve"><style>.st0{fill:#fff}</style><path class="st0" d="M49.6 1.1c-27.1 0-49 21.9-49 49s21.9 49 49 49 49-21.9 49-49-21.9-49-49-49zm0 91.3c-23.4 0-42.3-18.9-42.3-42.3S26.2 7.8 49.6 7.8 92 26.7 92 50.1 73 92.4 49.6 92.4z"/><path class="st0" d="M37.4 39.6l7.2 7.2 2.2-2.2-7.2-7.2v-5.8l-10.8-7.8-4.9 4.9 7.8 10.8h5.7z"/><path class="st0" d="M60.5 26.5c-4.7 4.7-1.9 10.2-1.8 10.5L37 58.6c-.3 0-5.8-2.9-10.5 1.8-2.8 2.8-3.5 7-1.8 10.5l6.1-6.1 4.3 4.3-6.1 6.1c3.4 1.6 7.7 1 10.5-1.8 4.7-4.7 1.9-10.2 1.8-10.5L63 41.4c.3 0 5.8 2.8 10.5-1.8 2.8-2.8 3.5-7 1.8-10.5l-6.1 6.1-4.3-4.3 6.1-6.1c-3.5-1.7-7.7-1.1-10.5 1.7z"/><path class="st0" d="M51.1 57.6l6.5-6.5 2.2 2.2-6.5 6.5-2.2-2.2zm18.6 18.6L55.4 61.9l6.5-6.5 14.2 14.2-6.4 6.6z"/></svg>