<?xml version="1.0" encoding="utf-8"?>
<!-- Generator: Adobe Illustrator 24.1.0, SVG Export Plug-In . SVG Version: 6.00 Build 0)  -->
<svg version="1.1" id="Layer_1" xmlns="http://www.w3.org/2000/svg" xmlns:xlink="http://www.w3.org/1999/xlink" x="0px" y="0px"
	 width="100px" height="100px" viewBox="0 0 100 100" style="enable-background:new 0 0 100 100;" xml:space="preserve">
<style type="text/css">
	.st0{fill:url(#SVGID_1_);}
	.st1{fill:#F6E51D;}
	.st2{fill:#FFFFFF;}
</style>
<radialGradient id="SVGID_1_" cx="99.5886" cy="0.4913" r="85.9542" gradientUnits="userSpaceOnUse">
	<stop  offset="0" style="stop-color:#37C1A6"/>
	<stop  offset="1" style="stop-color:#107F5F"/>
</radialGradient>
<rect class="st0" width="100" height="100"/>
<g>
	<path class="st1" d="M47.4,17.8l-8.2,1.2c-0.7-3.2-2.5-4.7-5.3-4.6c-4.6-0.1-7,4-7.1,12.5c2.1-2.8,5.4-4.4,8.9-4.3
		c7.7,0.5,11.9,4.6,12.6,12.5c-0.5,8.5-5.3,13-14.4,13.3C23.2,48.8,18,42.1,18.3,28.4c0.3-13.3,5.5-20.1,15.5-20.5
		C41.1,7.9,45.6,11.2,47.4,17.8z M39.9,35.6c0.2-3.4-2.4-6.2-5.8-6.4c-0.2,0-0.4,0-0.6,0c-4,0.1-6.2,2.1-6.4,6
		c0.2,4.4,2.5,6.7,6.8,6.9C37.6,41.8,39.6,39.6,39.9,35.6L39.9,35.6z"/>
	<path class="st1" d="M59.9,27.6c-4.3-0.8-7.4-4.6-7.3-9.1c0.7-6.8,5.4-10.3,14-10.7c8.6,0.3,13.3,3.8,14,10.5
		c0.1,4.7-2.6,7.8-8.2,9.1v0.2c5.9,1.1,9,4.2,9.2,9.4c-0.1,7.6-5.5,11.4-16,11.4c-9.2-0.3-14-3.8-14.4-10.8
		C51.6,32.5,54.4,29.1,59.9,27.6z M72.8,37.2c0.1-3.2-2.1-5.3-6.6-6.4c-4,1.1-6,3.2-6,6.4c0.2,3.3,2.3,5.1,6.2,5.3
		C70.6,42.4,72.7,40.6,72.8,37.2L72.8,37.2z M71.8,18.9c-0.1-3-1.8-4.5-5.1-4.6c-3.3,0.1-5.1,1.7-5.1,4.6c-0.1,2.6,1.6,4.4,5.1,5.3
		C70.2,23.3,71.9,21.5,71.8,18.9L71.8,18.9z"/>
</g>
<g>
	<path class="st2" d="M15,87.5v3.6H6.2V49H15v18c2-3.2,5.6-5,9.4-4.7c7.4,0.4,11.3,5.1,11.5,14c0,10.3-4.1,15.5-12.4,15.5
		C20.1,92,16.8,90.4,15,87.5z M15,76.2v2.3c0.1,4.4,2,6.7,5.8,6.9c4.1,0.1,6.1-2.8,6.1-8.8c-0.3-4.8-2.2-7.3-6-7.6
		C17.1,69.1,15.1,71.5,15,76.2z"/>
	<path class="st2" d="M70.1,77.6v2.2H48c0.4,3.8,2.8,6,7.2,6.3c3.2-0.1,5.3-1.3,6.1-3.6l9.4,1.1c-2.3,5.5-7.4,8.3-15.3,8.3
		c-10.3-0.4-15.7-5.1-16.2-14c0.4-10,5.4-15.1,15.1-15.5C64.7,62.3,70,67.4,70.1,77.6z M47.8,74.2h13.9c-0.4-3.7-2.6-5.8-6.9-6.1
		C50.5,68.3,48.1,70.4,47.8,74.2L47.8,74.2z"/>
	<path class="st2" d="M77.5,83V69.3H73v-6.5h4.5v-9.7l8.7-1.6v11.3H93v6.5h-6.9V81c0,3,1.1,4.4,3.4,4.3c0.9,0,1.8-0.3,2.5-0.7
		l1.8,5.6c-2.2,1.2-4.7,1.8-7.2,1.6C80.4,92,77.4,89,77.5,83z"/>
</g>
</svg>
