<svg id="Layer_1" data-name="Layer 1" xmlns="http://www.w3.org/2000/svg" viewBox="0 0 100 100"><title>soccer-icon</title><path d="M50,52.8V52a29.7,29.7,0,0,1,.3-4.2,26.3,26.3,0,0,1,3.4-9.1,22,22,0,0,1,1.7-2.5,24.8,24.8,0,0,1,7-6.3l2.7-1.5a25.9,25.9,0,0,1,7.2-2.1A22.2,22.2,0,0,1,76,26h1.2a30.8,30.8,0,0,1,5.3.8l3.4.9-.3-3.5A22,22,0,0,0,79.4,9.7C69-.7,54.8-1.6,42.5,7.4S23.9,26.1,23.1,36.5c-.5,6.6-.5,11.6-.5,15.6s-1.1,11.4-4.5,16.4S6.6,83.3,2.7,87.7a5.7,5.7,0,0,0-1.6,4.6,6.5,6.5,0,0,0,2.2,4.5,7,7,0,0,0,4.1,1.4,6.2,6.2,0,0,0,4.7-2.1l4.5-5.3c3.1-3.8,7-8.5,10.4-12.3,6.6-7.3,11.7-8.1,18.8-9.1l5.6-1,3.6-.7-1.7-3A27.2,27.2,0,0,1,50,52.8Zm8-27.2-6.7,6.5-5.7-5.7L52.3,20ZM54.5,18l5.3-5.1,5.5,5.5-5.2,5.1ZM49.2,34.2l-6.7,6.6-5.8-6,6.7-6.4Zm-8.8,8.7L35.1,48l-6-6,5.4-5.1Zm0,14.7-4.1,3.9-5.4-5.1,4.2-4.1Zm-3.1-7.4,5.2-5.1,2.8,2.8A28.3,28.3,0,0,0,45,52v1l-2.5,2.5Zm8.1,6.7.3,1.8-1-1.1ZM46,44.3,44.6,43l2.7-2.7A31,31,0,0,0,46,44.3ZM64.8,23.1l2.6-2.6,1.3,1.4A29.1,29.1,0,0,0,64.8,23.1Zm11-9.9a14.8,14.8,0,0,1,3.7,6l-1.9,1.9H76l-3.7.2-2.7-2.8,5.7-5.6A1,1,0,0,1,75.8,13.2Zm-2.7-2.4-5.7,5.5L62,10.9l4-3.8A23,23,0,0,1,73.1,10.8Zm-13-4.6h2.3L59.9,8.7,57.5,6.4ZM54,7.1l3.7,3.7-5.4,5.1-5.5-5.4A29.3,29.3,0,0,1,54,7.1Zm-9.7,5.2,5.8,5.6-6.6,6.4-6-6A57.1,57.1,0,0,1,44.3,12.3Zm-8.8,8.2,5.8,5.8-6.7,6.4-4.2-4.3A36.5,36.5,0,0,1,35.5,20.5ZM28.1,36.9a26.8,26.8,0,0,1,1.1-5.5l3.2,3.3L28,38.9C28,38.3,28.1,37.6,28.1,36.9Zm-.5,15.2c0-2.1,0-4.5.1-7.2L33,50.1l-4.3,4.3-1.1-1ZM26.1,72.3l-2.9-2.5a37.8,37.8,0,0,0,4.1-12.7l9.5,9A26,26,0,0,0,26.1,72.3Zm19-7.9-4.8.8-1.8-1.6,4-3.9,4.4,4.4Z" style="fill:#7e7e7e"/><path d="M55,47.5,68.2,60.7a7.7,7.7,0,0,0,10.9.1l4.4-4.2A7.8,7.8,0,0,0,84,45.7c-4.4-4.9-10-11-13.3-14.5A21.4,21.4,0,0,0,55,47.5Z" style="fill:#7e7e7e"/><path d="M76,30.5H74.9c3.4,3.6,7.9,8.6,11.7,12.8a11.3,11.3,0,0,1-.7,15.8l-4.4,4.2a11.4,11.4,0,0,1-15.8-.2L54.5,52h0A21.5,21.5,0,1,0,76,30.5Z" fill="#7e7e7e"/></svg>