<svg id="Layer_1" data-name="Layer 1" xmlns="http://www.w3.org/2000/svg" viewBox="0 0 100 100"><title>soccer-icon</title><path d="M26,17.5H8A5.5,5.5,0,0,0,2.5,23V77A5.5,5.5,0,0,0,8,82.5H26A5.5,5.5,0,0,0,31.5,77V23A5.5,5.5,0,0,0,26,17.5ZM27,45s-6.5,5.5-6.5,16.5h-8v-4c0-3,3-8,8-12v-2h-8v4H7V39H27Z" style="fill:#7e7e7e"/><path d="M59,17.5H41A5.5,5.5,0,0,0,35.5,23V77A5.5,5.5,0,0,0,41,82.5H59A5.5,5.5,0,0,0,64.5,77V23A5.5,5.5,0,0,0,59,17.5ZM60,45s-6.5,5.5-6.5,16.5h-8v-4c0-3,3-8,8-12v-2h-8v4H40V39H60Z" style="fill:#7e7e7e"/><path d="M92,17.5H74A5.5,5.5,0,0,0,68.5,23V77A5.5,5.5,0,0,0,74,82.5H92A5.5,5.5,0,0,0,97.5,77V23A5.5,5.5,0,0,0,92,17.5ZM93,45s-6.5,5.5-6.5,16.5h-8v-4c0-3,3-8,8-12v-2h-8v4H73V39H93Z" style="fill:#7e7e7e"/></svg>