<svg id="Layer_1" data-name="Layer 1" xmlns="http://www.w3.org/2000/svg" viewBox="0 0 100 100"><title>soccer-icon</title><path d="M90.3,18.8H53a9,9,0,0,0-9,9V84.3a9,9,0,0,0,9,9H90.3a9,9,0,0,0,9-9V27.8A9,9,0,0,0,90.3,18.8ZM78.7,66.1a8.1,8.1,0,0,1-4.6-1.5v3.5h2.1v3H68.1v-3h2V64.6A7.6,7.6,0,1,1,65.6,51h.5a7.6,7.6,0,1,1,13.6-4.5A7.1,7.1,0,0,1,78.1,51h.6a7.6,7.6,0,0,1,0,15.1Z" fill="#7e7e7e"/><path d="M17.9,31.6a12.6,12.6,0,0,1,.8-9.9,12.9,12.9,0,0,1,7.7-6.4L51.2,7.5a9.1,9.1,0,0,0-9.9-2.1L6.8,19.8A9,9,0,0,0,2,31.6L23.8,83.7a8.9,8.9,0,0,0,11.8,4.8l.5-.2a15.1,15.1,0,0,1-1.3-2.9Z" fill="#7e7e7e"/><path d="M53,14.8H74.8l-.3-1a9,9,0,0,0-8.6-6.3,8.4,8.4,0,0,0-2.7.4L27.6,19.1a8.9,8.9,0,0,0-5.9,11.3L38.6,84.2a10.3,10.3,0,0,0,1.7,3.1,15.3,15.3,0,0,1-.3-3V27.8A13,13,0,0,1,53,14.8Z" fill="#7e7e7e"/></svg>