<?xml version="1.0" encoding="utf-8"?>
<!-- Generator: Adobe Illustrator 23.1.0, SVG Export Plug-In . SVG Version: 6.00 Build 0)  -->
<svg version="1.1" id="Layer_1" xmlns="http://www.w3.org/2000/svg" xmlns:xlink="http://www.w3.org/1999/xlink" x="0px" y="0px"
	 viewBox="0 0 100 100" style="enable-background:new 0 0 100 100;" xml:space="preserve">
<g id="icon_data" transform="translate(0.5 0.5)">
	<path id="Union_27" fill="#999999" d="M78.9,98.5c-4.4-0.7-7.6-4.7-7.1-9.2V9.7c-0.5-4.5,2.6-8.5,7.1-9.2H86c4.4,0.7,7.6,4.7,7,9.2
		v79.6c0.5,4.5-2.6,8.5-7.1,9.2H78.9z M45.9,98.5c-4.3-0.5-7.5-4.3-7.1-8.6V35.4c-0.4-4.3,2.8-8.1,7.1-8.6H53
		c4.3,0.5,7.5,4.3,7.1,8.6v54.5c0.4,4.3-2.8,8.1-7.1,8.6H45.9z M13,98.5c-4-0.1-7.1-3.3-7.1-7.3c0,0,0,0,0,0V62
		C5.9,58,9,54.8,13,54.7c0,0,0,0,0,0h7.1c4,0.1,7.1,3.3,7.1,7.3c0,0,0,0,0,0v29.2c0.1,4-3.1,7.2-7.1,7.3c0,0,0,0,0,0L13,98.5z"/>
</g>
</svg>
