<?xml version="1.0" encoding="utf-8"?>
<!-- Generator: Adobe Illustrator 23.1.0, SVG Export Plug-In . SVG Version: 6.00 Build 0)  -->
<svg version="1.1" id="icon_baseball" xmlns="http://www.w3.org/2000/svg" xmlns:xlink="http://www.w3.org/1999/xlink" x="0px"
	 y="0px" viewBox="0 0 100 100" style="enable-background:new 0 0 100 100;" xml:space="preserve">
<path id="Union_18" fill="#666666" d="M50,99C22.9,99,1,77.1,1,50v-1c0,0,0.1,0,0.1,0c1.4,0.1,2.8,0.3,4.1,0.6c0.5,0.1,0.9,0.6,0.8,1.1
	c0,0,0,0.1,0,0.1L5,53.8c-0.4,1.1,0.2,2.3,1.3,2.6c0,0,0,0,0,0l0.1,0c1.1,0.4,2.3-0.2,2.6-1.3c0,0,0,0,0,0l1.1-3.4
	c0.2-0.5,0.7-0.7,1.2-0.6c1.8,0.5,3.5,1.1,5.2,1.8c1.1,0.4,2.1,0.9,3.1,1.4c0.5,0.2,0.7,0.8,0.4,1.3c0,0,0,0.1-0.1,0.1l-1.8,2.7
	c-0.6,1-0.4,2.2,0.6,2.9c0,0,0,0,0,0l0.1,0c1,0.6,2.3,0.4,2.9-0.6c0,0,0,0,0,0l2.1-3.1c0.3-0.4,0.8-0.5,1.3-0.3
	c2.7,1.7,5.2,3.6,7.5,5.7c0.4,0.3,0.4,0.9,0.1,1.3c0,0,0,0,0,0l-2.3,2.3c-0.8,0.8-0.8,2.1,0,2.9c0,0,0,0,0,0l0.1,0.1
	c0.8,0.8,2.1,0.8,2.9,0c0,0,0,0,0,0l2.3-2.3c0.4-0.4,1-0.4,1.3,0c0,0,0,0,0,0c2.2,2.4,4.1,5,5.8,7.8c0.3,0.4,0.1,1-0.3,1.3l-3.1,2.1
	c-1,0.6-1.2,1.9-0.6,2.9c0,0,0,0,0,0l0,0.1c0.6,1,1.9,1.2,2.9,0.6c0,0,0,0,0,0l2.6-1.7c0.4-0.3,1-0.2,1.3,0.2c0,0,0.1,0.1,0.1,0.1
	c0.4,0.9,0.8,1.8,1.2,2.8c0.7,1.8,1.4,3.6,1.9,5.5c0.1,0.5-0.1,1-0.6,1.2l-3.3,1c-1.1,0.4-1.7,1.5-1.3,2.6l0,0.1
	c0.4,1.1,1.5,1.7,2.6,1.3l2.7-0.9c0.5-0.2,1,0.1,1.2,0.6c0,0,0,0.1,0,0.1c0.2,1.3,0.4,2.6,0.5,3.8c0,0,0,0.1,0,0.1L50,99z
	 M55.2,98.5c-0.2-1.7-0.4-3.3-0.7-5c-0.1-0.5,0.2-0.9,0.7-1.1l3.7-1.2c1.1-0.4,1.7-1.5,1.3-2.6l0-0.1c-0.4-1.1-1.5-1.7-2.6-1.3
	l-3.2,1c-0.5,0.2-1-0.1-1.2-0.6c0,0,0,0,0-0.1c-1-3.3-2.2-6.5-3.7-9.6c-0.2-0.4-0.1-0.9,0.3-1.2l3-2c1-0.6,1.2-1.9,0.6-2.9
	c0,0,0,0,0,0l0-0.1c-0.6-1-1.9-1.2-2.9-0.6c0,0,0,0,0,0L47.8,73c-0.4,0.3-1,0.2-1.3-0.2c0,0,0,0,0-0.1c-1.9-3-4-5.8-6.4-8.4
	c-0.4-0.4-0.3-0.9,0-1.3c0,0,0,0,0,0l2.4-2.5c0.8-0.8,0.8-2.1,0-2.9c0,0,0,0,0,0l-0.1-0.1c-0.8-0.8-2.1-0.8-2.9,0c0,0,0,0,0,0
	l-2.5,2.5c-0.4,0.4-0.9,0.4-1.3,0c-2.5-2.3-5.3-4.4-8.2-6.2c-0.4-0.3-0.6-0.8-0.3-1.3c0,0,0,0,0,0L29,50c0.6-1,0.4-2.3-0.6-2.9
	c0,0,0,0,0,0l-0.1,0c-1-0.6-2.3-0.4-2.9,0.6c0,0,0,0,0,0l-2,2.9c-0.3,0.4-0.8,0.5-1.2,0.3C19.2,49.2,16,48,12.7,47
	c-0.5-0.1-0.8-0.7-0.7-1.2c0,0,0,0,0,0l1-3.1c0.4-1.1-0.2-2.3-1.3-2.6c0,0,0,0,0,0l-0.1,0c-1.1-0.4-2.3,0.2-2.6,1.3c0,0,0,0,0,0
	l-1.1,3.5c-0.1,0.5-0.6,0.7-1.1,0.6C5,45.2,3.3,45,1.5,44.8H1.3C3.7,22.2,21.4,4.2,43.9,1.4c0.2,2.2,0.5,4.4,0.9,6.6
	c0.1,0.5-0.2,0.9-0.6,1.1l-4.1,1.3c-1.1,0.4-1.7,1.5-1.3,2.6l0,0.1c0.4,1.1,1.5,1.7,2.6,1.3l3.7-1.2c0.5-0.1,1,0.1,1.2,0.6
	c1,3.2,2.2,6.3,3.7,9.4c0.2,0.4,0.1,0.9-0.3,1.2l-3.6,2.4c-1,0.6-1.2,1.9-0.6,2.9c0,0,0,0,0,0l0,0.1c0.6,1,1.9,1.2,2.9,0.6
	c0,0,0,0,0,0l3.1-2.1c0.4-0.3,1-0.2,1.3,0.3c0,0,0,0,0,0c1.8,2.8,3.9,5.5,6.1,8c0.4,0.4,0.3,1,0,1.3l-3,3c-0.8,0.8-0.8,2.1,0,2.9
	c0,0,0,0,0,0l0.1,0.1c0.8,0.8,2.1,0.8,2.9,0c0,0,0,0,0,0l3-3c0.4-0.4,0.9-0.4,1.3,0c2.6,2.3,5.3,4.4,8.3,6.3
	c0.4,0.3,0.6,0.9,0.3,1.3c0,0,0,0,0,0l-2.2,3.2c-0.6,1-0.4,2.2,0.6,2.9c0,0,0,0,0,0l0.1,0c1,0.6,2.3,0.4,2.9-0.6c0,0,0,0,0,0
	l2.5-3.6c0.3-0.4,0.8-0.5,1.2-0.3c3,1.5,6.1,2.7,9.4,3.7c0.5,0.2,0.8,0.7,0.6,1.2c0,0,0,0,0,0l-1.3,3.9c-0.4,1.1,0.2,2.3,1.3,2.6
	c0,0,0,0,0,0l0.1,0c1.1,0.4,2.3-0.2,2.6-1.3c0,0,0,0,0,0l1.4-4.3c0.2-0.4,0.6-0.7,1.1-0.7c2.1,0.4,4.2,0.7,6.3,0.8
	c-2.8,22.5-20.8,40.2-43.4,42.6V98.5z M93.9,51.2c-0.5-0.1-0.9-0.6-0.8-1.1c0,0,0-0.1,0-0.1l0.7-2.1c0.4-1.1-0.2-2.3-1.3-2.6
	c0,0,0,0,0,0l-0.1,0c-1.1-0.4-2.3,0.2-2.6,1.3c0,0,0,0,0,0l-0.8,2.5c-0.2,0.5-0.7,0.8-1.2,0.6c-1.7-0.5-3.4-1.1-5.1-1.8
	c-1-0.4-2-0.8-2.9-1.3c-0.5-0.2-0.7-0.8-0.4-1.3c0,0,0-0.1,0.1-0.1l1.3-1.9c0.6-1,0.4-2.3-0.6-2.9l-0.1,0c-1-0.6-2.2-0.4-2.9,0.6
	c0,0,0,0,0,0l-1.6,2.4c-0.3,0.4-0.8,0.5-1.3,0.3c-2.7-1.7-5.3-3.6-7.7-5.7c-0.4-0.3-0.4-0.9-0.1-1.3c0,0,0,0,0,0l1.8-1.8
	c0.8-0.8,0.8-2.1,0-2.9c0,0,0,0,0,0l-0.1-0.1c-0.8-0.8-2.1-0.8-2.9,0c0,0,0,0,0,0l-1.8,1.8c-0.4,0.4-1,0.4-1.3,0c0,0,0,0,0,0
	c-2.1-2.3-3.9-4.8-5.6-7.4c-0.3-0.4-0.1-1,0.3-1.3l2.5-1.7c1-0.6,1.2-1.9,0.6-2.9c0,0,0,0,0,0l0-0.1c-0.6-1-1.9-1.2-2.9-0.6
	c0,0,0,0,0,0l-2,1.4c-0.4,0.3-1,0.2-1.3-0.2c0,0-0.1-0.1-0.1-0.1c-0.5-1.1-1-2.1-1.4-3.2c-0.6-1.6-1.2-3.2-1.7-4.8
	c-0.1-0.5,0.1-1,0.6-1.2l2.7-0.8c1.1-0.4,1.7-1.5,1.3-2.6l0-0.1c-0.4-1.1-1.5-1.7-2.6-1.3l-2.3,0.7c-0.5,0.2-1-0.1-1.2-0.6
	c0,0,0-0.1,0-0.1c-0.3-1.8-0.6-3.6-0.7-5.4c0.6,0,1.3,0,1.9,0c27.1,0,49,21.9,49,49c0,0.6,0,1.2,0,1.9
	C97.3,51.7,95.6,51.5,93.9,51.2z"/>
</svg>
