<?xml version="1.0" encoding="utf-8"?>
<!-- Generator: Adobe Illustrator 23.1.0, SVG Export Plug-In . SVG Version: 6.00 Build 0)  -->
<svg version="1.1" id="icon_fullscreen" xmlns="http://www.w3.org/2000/svg" xmlns:xlink="http://www.w3.org/1999/xlink" x="0px"
	 y="0px" viewBox="0 0 100 100" style="enable-background:new 0 0 100 100;" xml:space="preserve">
<path id="Path_85" fill="#FFFFFF" d="M82.3,10.8H64.7c-2.7,0-4.9-2.2-4.9-4.9C59.8,3.2,62,1,64.7,1h29.4C96.8,1,99,3.2,99,5.9
	c0,0,0,0,0,0v29.4c0,2.7-2.2,4.9-4.9,4.9s-4.9-2.2-4.9-4.9V17.7l-25.9,26c-1.9,1.9-5,1.9-7,0c-1.9-1.9-1.9-5,0-7L82.3,10.8z
	 M10.8,82.3l25.9-26c1.9-1.9,5-1.9,7,0s1.9,5,0,7l-26,25.9h17.6c2.7,0,4.9,2.2,4.9,4.9S38,99,35.3,99H5.9C3.2,99,1,96.8,1,94.1
	c0,0,0,0,0,0V64.7c0-2.7,2.2-4.9,4.9-4.9c2.7,0,4.9,2.2,4.9,4.9V82.3z"/>
<path id="Path_86" class="st0" d="M89.2,82.3V64.7c0-2.7,2.2-4.9,4.9-4.9c2.7,0,4.9,2.2,4.9,4.9v29.4c0,2.7-2.2,4.9-4.9,4.9
	c0,0,0,0,0,0H64.7c-2.7,0-4.9-2.2-4.9-4.9s2.2-4.9,4.9-4.9h17.6l-26-25.9c-1.9-1.9-1.9-5,0-7c1.9-1.9,5-1.9,7,0L89.2,82.3z
	 M17.7,10.8l26,25.9c1.9,1.9,1.9,5,0,7s-5,1.9-7,0l-25.9-26v17.6c0,2.7-2.2,4.9-4.9,4.9S1,38,1,35.3V5.9C1,3.2,3.2,1,5.9,1
	c0,0,0,0,0,0h29.4c2.7,0,4.9,2.2,4.9,4.9c0,2.7-2.2,4.9-4.9,4.9H17.7z"/>
</svg>
