<svg id="Layer_1" data-name="Layer 1" xmlns="http://www.w3.org/2000/svg" viewBox="0 0 100 100"><title>soccer-icon</title><path d="M37.5,73H7.6V18h47V38.6a37.1,37.1,0,0,1,5.5-2.2V10.7A8.7,8.7,0,0,0,51.4,2H10.8a8.7,8.7,0,0,0-8.7,8.7V88.3A8.7,8.7,0,0,0,10.8,97H51.4a8.7,8.7,0,0,0,3.2-.6A32.4,32.4,0,0,1,37.5,73ZM20.1,7h22v5h-22Zm11,84a7,7,0,1,1,7-7A7,7,0,0,1,31.1,91Z" fill="#7e7e7e"/><path d="M69.5,39A28.5,28.5,0,1,0,98,67.5,28.6,28.6,0,0,0,69.5,39Zm-8,22,5.8,5.8V47h4V66.8L77.2,61,80,63.8,69.3,74.5,58.7,63.8ZM86.3,81.5h-34v-12h4v8h26v-8h4Z" fill="#7e7e7e"/></svg>