<?xml version="1.0" encoding="utf-8"?>
<!-- Generator: Adobe Illustrator 23.1.0, SVG Export Plug-In . SVG Version: 6.00 Build 0)  -->
<svg version="1.1" id="icon_search" xmlns="http://www.w3.org/2000/svg" xmlns:xlink="http://www.w3.org/1999/xlink" x="0px"
	 y="0px" viewBox="0 0 100 100" style="enable-background:new 0 0 100 100;" xml:space="preserve">
<g>
	<path id="Path_107" fill="#666666" d="M95.8,81.1c0,0-6.5-8.3-12.2-14.1c4.5-6.9,5.1-13.7,5.1-22.5C88.8,20.5,69.3,1,45.2,1
		C21.1,1,1.6,20.5,1.6,44.6c0,24.1,19.5,43.6,43.6,43.6h0c8.6,0,15.2-0.6,22-4.8c5.8,5.8,12.2,12.8,12.2,12.8
		c4.8,3.8,11.6,3.8,16.4,0C99.2,91.7,99.2,85.5,95.8,81.1L95.8,81.1z M45.3,79.8c-21.2,0-35.2-13.9-35.2-35.2S24,9.4,45.3,9.4
		s35.2,13.9,35.2,35.2S66.5,79.8,45.3,79.8L45.3,79.8z M90.2,91.2c-1.6,1.9-4.1,1.2-5.7-0.7c0,0-8.5-9.6-11.1-12.6
		c0,0-0.1-0.1-0.1-0.1c1.8-1.6,3.5-3.3,5.1-5.1c0,0,0,0.1,0.1,0.1C81,75.8,90.1,85,90.1,85C91.7,86.7,91.8,89.4,90.2,91.2L90.2,91.2
		z M24.1,21.6c-1,0-1.9,0.6-2.3,1.6c-5.1,6-7.9,13.6-7.9,21.5c0,0.7-0.1,1.9,0,2.5c0.1,1.4,1.3,2.5,2.7,2.4c1.4-0.1,2.4-1.2,2.5-2.5
		h0.1c-0.1-0.8-0.1-1.7-0.1-2.5c0-6.8,2.5-13.4,7-18.6C26,26,25.9,26,25.8,26c0.5-0.5,0.8-1.1,0.8-1.8
		C26.6,22.7,25.5,21.6,24.1,21.6C24.1,21.6,24.1,21.6,24.1,21.6z"/>
</g>
</svg>
