<?xml version="1.0" encoding="utf-8"?>
<!-- Generator: Adobe Illustrator 23.1.0, SVG Export Plug-In . SVG Version: 6.00 Build 0)  -->
<svg version="1.1" id="icon_livetxt" xmlns="http://www.w3.org/2000/svg" xmlns:xlink="http://www.w3.org/1999/xlink" x="0px"
	 y="0px" viewBox="0 0 100 100" style="enable-background:new 0 0 100 100;" xml:space="preserve">
<path id="iconmonstr-microphone-4" fill="#999999" d="M66.3,46.1c-0.1,9-7.6,16.2-16.6,16c-8.8-0.1-15.9-7.2-16-16V17.6
	c-0.1-9,7-16.4,16-16.6s16.4,7,16.6,16c0,0.2,0,0.4,0,0.5V46.1z M82.6,37.9v8.1c0,18-14.6,32.6-32.6,32.6S17.4,64.1,17.4,46.1v-8.1
	h8.1v8.1c0,13.5,10.9,24.4,24.4,24.4s24.4-10.9,24.4-24.4v-8.1H82.6z M54.1,90.9v-8.1h-8.1v8.1H29.6V99h40.7v-8.1H54.1z"/>
</svg>
