<?xml version="1.0" encoding="utf-8"?>
<!-- Generator: Adobe Illustrator 23.1.0, SVG Export Plug-In . SVG Version: 6.00 Build 0)  -->
<svg version="1.1" id="Layer_1" xmlns="http://www.w3.org/2000/svg" xmlns:xlink="http://www.w3.org/1999/xlink" x="0px" y="0px"
	 viewBox="0 0 100 100" style="enable-background:new 0 0 100 100;" xml:space="preserve">
<style type="text/css">
	.st0{fill:#FFFFFF;}
</style>
<g id="icon_close" transform="translate(0 0)">
	<path id="Union_4" class="st0" d="M88.2,97.1L50,59L11.8,97.1c-2.5,2.5-6.5,2.5-9,0c-2.5-2.5-2.5-6.5,0-9L41,50L2.9,11.8
		c-2.5-2.5-2.5-6.5,0-9c2.5-2.5,6.5-2.5,9,0L50,41L88.2,2.9c2.5-2.5,6.5-2.5,9,0c2.5,2.5,2.5,6.5,0,9L59,50l38.2,38.2
		c2.5,2.5,2.5,6.5,0,9C96,98.3,94.3,99,92.7,99C91,99,89.4,98.3,88.2,97.1z"/>
</g>
</svg>
