<?xml version="1.0" encoding="utf-8"?>
<!-- Generator: Adobe Illustrator 23.1.0, SVG Export Plug-In . SVG Version: 6.00 Build 0)  -->
<svg version="1.1" id="icon_football" xmlns="http://www.w3.org/2000/svg" xmlns:xlink="http://www.w3.org/1999/xlink" x="0px"
	 y="0px" viewBox="0 0 100 100" style="enable-background:new 0 0 100 100;" xml:space="preserve">
<path id="Exclusion_2" fill="#666666" d="M50,99C22.9,99,1,77.1,1,50S22.9,1,50,1s49,21.9,49,49C99,77,77,99,50,99z M47.5,70.2
	L47.5,70.2l2.5,4.3L32.4,79l-5.7,8.4c7,4.4,15,6.7,23.3,6.7c3.5-0.1,7-0.5,10.5-1.4l4.2-8.4L50,74.5L47.5,70.2l2.5-0.6l8.9-13.3
	L45.1,40.2H30.4l-7.2,18.1l11.3,15.1L47.5,70.2L47.5,70.2z M84.3,74.5l-14.7,9.8l-3.4,6.6c8.3-3.3,15.5-9,20.5-16.4H84.3z
	 M91.9,36.4l-4.4,2.2l-7.3,14.7l4.1,16.4h5c3.1-6.1,4.7-12.8,4.8-19.6C94.1,45.4,93.4,40.8,91.9,36.4z M21.4,23.8L21.4,23.8
	l-7.7,1.2c-7,10-9.4,22.5-6.7,34.5l12.5-4.3l6-15L21.4,23.8z M54.9,20.6L47.7,35l16.1,18.8l12.9-3l6.1-12.6L69.6,20.6H54.9z
	 M37.9,7.8c-7.8,2.2-14.8,6.6-20.4,12.5l6.1-1.2l12.5-6.3L37.9,7.8z M50,5.9c-2.3,0-4.5,0.2-6.7,0.6l-1.7,5.1l8.4,4.1h22.1l1.4-2.9
	C66.4,8.3,58.3,5.9,50,5.9z"/>
</svg>
