<?xml version="1.0" encoding="utf-8"?>
<!-- Generator: Adobe Illustrator 23.1.0, SVG Export Plug-In . SVG Version: 6.00 Build 0)  -->
<svg version="1.1" id="Layer_1" xmlns="http://www.w3.org/2000/svg" xmlns:xlink="http://www.w3.org/1999/xlink" x="0px" y="0px"
	 viewBox="0 0 100 100" style="enable-background:new 0 0 100 100;" xml:space="preserve">
<g id="icon_live2" transform="translate(4 4)">
	<g transform="matrix(1, 0, 0, 1, -4, -4)">
		<path id="Union_25-2" fill="#666666" d="M86.1,85.6H13.9c-3.4,0-6.7-1.3-9.1-3.7C2.4,79.6,1,76.4,1,73V27c0-3.4,1.4-6.6,3.8-8.9
			c2.4-2.4,5.7-3.7,9.1-3.7h72.4c3.4,0,6.6,1.3,9,3.7c2.4,2.4,3.7,5.6,3.7,8.9v46c0,3.4-1.4,6.6-3.8,8.9
			C92.8,84.3,89.5,85.6,86.1,85.6L86.1,85.6z M5.1,29v42c0.1,5.9,5,10.7,10.9,10.7h68.1c5.9,0,10.8-4.8,10.9-10.7h0.1V29
			c0-2.9-1.1-5.6-3.2-7.6c-2.1-2-4.8-3.2-7.7-3.2H16.1C10.1,18.2,5.2,23,5.1,29z M16,78.3c-4,0-7.3-3.2-7.3-7.3v-5.2h7.7
			c3.7,0,6.8-3,6.8-6.7V41c0-3.7-3.1-6.7-6.8-6.7c0,0,0,0,0,0H8.7v-5.1C8.7,25.1,12,22,16,22h32.3v15.9c-6,1-10.5,6.1-10.6,12.2
			c0,6,4.4,11.2,10.3,12.1v16.1H16z M51.7,78.1V62.3c6.1-0.9,10.6-6.1,10.6-12.2c-0.1-6.1-4.6-11.3-10.6-12.2v-16h32.4
			c1.9,0,3.8,0.7,5.2,2c1.4,1.3,2.1,3.2,2.1,5.1v5.3h-7.3c-3.7,0-6.8,3-6.8,6.7v18.2c0,3.7,3.1,6.7,6.8,6.7h7.2V71
			c-0.1,3.9-3.3,7.1-7.2,7.1L51.7,78.1z M8.7,62.5V37.6h7.7c1.8,0,3.3,1.5,3.3,3.3v18.3c0,1.8-1.5,3.3-3.3,3.3L8.7,62.5z M84.1,62.4
			c-1.8,0-3.2-1.4-3.3-3.2V40.9c0-1.8,1.5-3.2,3.3-3.2h7.3v24.7L84.1,62.4z M51.9,41.3c4.1,0.8,7.1,4.4,7.1,8.7
			c-0.1,4.2-3,7.8-7.1,8.7L51.9,41.3z M40.9,50c0-4.2,3-7.8,7.1-8.7v17.3C43.9,57.8,41,54.2,40.9,50z"/>
	</g>
</g>
</svg>
