<?xml version="1.0" encoding="utf-8"?>
<!-- Generator: Adobe Illustrator 23.1.0, SVG Export Plug-In . SVG Version: 6.00 Build 0)  -->
<svg version="1.1" id="icon_tennis" xmlns="http://www.w3.org/2000/svg" xmlns:xlink="http://www.w3.org/1999/xlink" x="0px"
	 y="0px" viewBox="0 0 100 100" style="enable-background:new 0 0 100 100;" xml:space="preserve">
<path id="Union_17" fill="#666666" d="M1.1,48.9c0.3-6.9,2-13.8,5.2-20c6.3-0.1,14,1.8,23.8,8.3C40.3,44,49.7,47.4,58.3,47.4
	c0.9,0,1.8,0,2.7-0.1c7.8-0.7,15.1-4.6,19.8-10.9c3.7-4.7,6.1-10.3,7.2-16.2c7.6,9.3,11.5,21.1,10.9,33.1c-0.2,4.3-1,8.6-2.3,12.8
	c-3.6-4.1-8.9-6.3-14.4-6c-6.3,0.9-12,4.1-16.1,9c-4.6,5-8.6,10.6-12,16.5c-3,5.2-5.6,10.4-7.4,14.5C20.2,98.2-0.1,75.5,1.1,48.9z
	 M61.4,89.7c7.7-13.3,15.4-20.9,21.5-21.3c3.4-0.3,6.8,1.8,10.1,6.1c-7.5,13.9-21.3,23.2-36.9,25.2C57.6,96.6,59.4,93.2,61.4,89.7
	L61.4,89.7z M34.5,30.1c-6.9-4.9-14.8-8.1-23.2-9.4C28-0.5,58.8-4.3,80.1,12.4c0,0,0,0,0,0c0.2,1.7,0.2,3.5-0.1,5.2
	c-0.7,4.9-2.7,9.5-5.7,13.4c-3.9,5-9.8,7.9-16.1,7.9C51.3,38.9,43.4,36,34.5,30.1z"/>
</svg>