<?xml version="1.0" encoding="utf-8"?>
<!-- Generator: Adobe Illustrator 23.1.0, SVG Export Plug-In . SVG Version: 6.00 Build 0)  -->
<svg version="1.1" id="Layer_1" xmlns="http://www.w3.org/2000/svg" xmlns:xlink="http://www.w3.org/1999/xlink" x="0px" y="0px"
	 viewBox="0 0 100 100" style="enable-background:new 0 0 100 100;" xml:space="preserve">
<path id="Path_228" fill="#DDDDDD" d="M81.8,42.1h-7V25.8C74.7,12.1,63.7,1,50,1C36.3,1,25.2,12.1,25.2,25.8v16.4h-7
	c-3.4,0-6.1,2.7-6.1,6.1v44.7c0,3.4,2.7,6.1,6.1,6.1c0,0,0,0,0,0h63.6c3.4,0,6.1-2.7,6.1-6.1c0,0,0,0,0,0V48.2
	C87.9,44.8,85.2,42.1,81.8,42.1L81.8,42.1z M53.4,71.7v9.8c0,0.4-0.4,0.8-0.8,0.8h-5.3c-0.4,0-0.8-0.4-0.8-0.8v-9.8
	c-3.8-1.9-5.3-6.5-3.4-10.2c1.9-3.8,6.5-5.3,10.2-3.4c3.8,1.9,5.3,6.5,3.4,10.2C56,69.8,54.9,71,53.4,71.7L53.4,71.7z M65.3,42.1
	H34.7V26.2c0-8.4,6.8-15.3,15.3-15.3s15.3,6.8,15.3,15.3V42.1z"/>
</svg>
