<?xml version="1.0" encoding="utf-8"?>
<!-- Generator: Adobe Illustrator 23.1.0, SVG Export Plug-In . SVG Version: 6.00 Build 0)  -->
<svg version="1.1" id="icon_team" xmlns="http://www.w3.org/2000/svg" xmlns:xlink="http://www.w3.org/1999/xlink" x="0px" y="0px"
	 viewBox="0 0 100 100" style="enable-background:new 0 0 100 100;" xml:space="preserve">
<style type="text/css">
	.st0{fill-rule:evenodd;clip-rule:evenodd;fill:#999999;}
	.st1{enable-background:new    ;}
	.st2{fill:#FFFFFF;}
</style>
<g>
	<path id="iconmonstr-clothing-2" class="st0" d="M78.6,99H21.4V33.7l-8.2,4.4L1,23.3L25.5,1h49L99,23.5L86.8,38.4l-8.2-4.7V99z
		 M33.7,5.1h32.7c-1.2,8.1-8.1,14.2-16.3,14.3C41.8,19.2,35,13.2,33.7,5.1z"/>
	<g class="st1">
		<path class="st2" d="M42.1,47.9c-1.7-0.7-3-1.7-3.8-3c-0.8-1.3-1.2-2.7-1.2-4.2c0-2.6,0.9-4.8,2.7-6.5c1.8-1.7,4.4-2.6,7.8-2.6
			c3.3,0,5.9,0.9,7.8,2.6c1.8,1.7,2.8,3.9,2.8,6.5c0,1.6-0.4,3.1-1.3,4.3c-0.8,1.3-2,2.2-3.6,2.9c1.9,0.8,3.4,1.9,4.4,3.4
			c1,1.5,1.5,3.2,1.5,5.2c0,3.2-1,5.9-3.1,7.9c-2.1,2-4.8,3-8.2,3c-3.2,0-5.8-0.8-8-2.5c-2.5-2-3.8-4.7-3.8-8.1
			c0-1.9,0.5-3.6,1.4-5.2C38.5,50,40,48.8,42.1,47.9z M42.8,56.2c0,1.9,0.5,3.3,1.4,4.3c0.9,1,2.1,1.6,3.6,1.6
			c1.4,0,2.5-0.5,3.4-1.5c0.9-1,1.4-2.4,1.4-4.3c0-1.6-0.5-3-1.4-4c-0.9-1-2.1-1.5-3.5-1.5c-1.6,0-2.9,0.6-3.7,1.7
			C43.2,53.7,42.8,54.9,42.8,56.2z M43.4,41.2c0,1.3,0.4,2.4,1.1,3.1c0.8,0.8,1.8,1.1,3,1.1c1.3,0,2.3-0.4,3.1-1.1
			c0.8-0.8,1.1-1.8,1.1-3.1c0-1.3-0.4-2.3-1.1-3c-0.8-0.8-1.8-1.1-3-1.1c-1.3,0-2.3,0.4-3.1,1.1S43.4,39.9,43.4,41.2z"/>
	</g>
</g>
</svg>
