<svg id="Layer_1" data-name="Layer 1" xmlns="http://www.w3.org/2000/svg" viewBox="0 0 100 100"><title>soccer-icon</title><path d="M50,1A49,49,0,1,0,99,50,49,49,0,0,0,50,1ZM27.5,13.3,29.6,12a9.2,9.2,0,0,0,.7,4.8h0a8.4,8.4,0,0,0-4.2-2.5Zm15.8-1.9c1.3,1.8.5,3.3-3.2,5.9s-5.6,3.2-6.8,1.6-.7-3,3.6-6.2l.4-.4C40.5,10,42,9.7,43.3,11.4ZM23.4,22c4.4-3.3,6.1-3.6,7.6-1.6s.8,3.7-3.7,7S21,31,19.6,29,19,25.2,23.4,22ZM14.5,77.6A32.9,32.9,0,0,1,11.2,73a6.4,6.4,0,0,0,6.1.8h0a6.1,6.1,0,0,0-.9,5.8Zm5.6-4.1c1.4-1.2,2.8-.3,6.2,3.8s4,5.8,2.6,6.9-2.9.1-6.2-3.9S18.7,74.6,20.1,73.5Zm-1.7-2.1c-1.2,1-2.2.4-5.5-3.6a.8.8,0,0,1-.4-.4c-2.5-3-2.9-4.3-1.8-5.2s2.5-.2,5.3,3.2S19.5,70.5,18.4,71.4ZM36.5,85.9c-1.9,1.6-4.5,2-7.5,1.4l1.6-1c3.6-3,3.4-7.7-.5-12.5-1.9-2.3-4.4-3.7-6.6-3.7a5.9,5.9,0,0,0-2.4.7h0c1.5-2.7,1-5.7-1.7-9S12.1,57.4,9,60a7,7,0,0,0-1.6,1.9c-.2-3.1.6-5.8,2.5-7.4,4.9-4.1,14.7-.4,22.1,8.3S41.3,81.8,36.5,85.9Zm5.3-52.2c-11.2,7.9-23.5,9.7-27.4,4.1-2-2.8-1.5-6.9.8-11.3a13.3,13.3,0,0,0,2.1,4.1c4,5.4,9.5,6.4,14.7,2.6a8.3,8.3,0,0,0,3.4-7.5,7.4,7.4,0,0,0-1-3.2h.1c3.4,2.7,6.8,2.8,10.4.2s4.1-8.1.7-12.8a11.3,11.3,0,0,0-3.4-3.2C48,5.3,52.8,6.2,55,9.3,58.9,14.9,53,25.9,41.8,33.7ZM60.1,88.1C50.3,83.8,48,67.9,54.8,52.5S75,28.1,84.7,32.4c5.6,2.4,8.8,8.8,9.1,16.7a16.5,16.5,0,0,0-7.5-6c-7.7-3.3-14.4-1.6-17,4.3s-.5,9.1,4.4,12.8h0c-6.6-1.7-11.4.3-13.8,5.9s.4,13.8,8.7,17.4a19.1,19.1,0,0,0,7.7,1.8C70.8,89.1,65,90.3,60.1,88.1ZM77.9,73.9c-2.7,6.3-4.6,7.9-7.8,6.5s-3.4-3.9-.7-10.2,4.5-7.8,7.8-6.4S80.7,67.5,77.9,73.9Zm.8-13.2c-2.9-1.3-3-2.9-.4-9.1a2.5,2.5,0,0,1,.2-.7c2-4.6,3.6-5.7,6.3-4.6s2.9,3.4.7,8.6S81.3,61.9,78.7,60.7ZM90,68q-.9,1.9-1.8,3.6a10.4,10.4,0,0,0-2-4.4,12.4,12.4,0,0,0-3.6-3V64c4.1.8,7.3,0,9.6-2.1A49.7,49.7,0,0,1,90,68Z" style="fill:#7e7e7e"/></svg>