<?xml version="1.0" encoding="utf-8"?>
<!-- Generator: Adobe Illustrator 23.1.0, SVG Export Plug-In . SVG Version: 6.00 Build 0)  -->
<svg version="1.1" id="Layer_1" xmlns="http://www.w3.org/2000/svg" xmlns:xlink="http://www.w3.org/1999/xlink" x="0px" y="0px"
	 viewBox="0 0 100 100" style="enable-background:new 0 0 100 100;" xml:space="preserve">
<style type="text/css">
	<!-- .st0{fill:#7E7E7E;}
	.st1{fill:#FFFFFF;}
	.st2{fill:#4699D4;} -->
</style>
<path class="st1" d="M39.6,66.7l23.5-14.5c1.7-1,1.7-3.5,0-4.5L39.6,33.3c-1.8-1.1-4,0.2-4,2.2v29C35.6,66.6,37.9,67.8,39.6,66.7z"
	/>
<path class="st2" d="M89.3,12.8H10.7c-5.4,0-9.7,4.4-9.7,9.7v54.9c0,5.4,4.4,9.7,9.7,9.7h78.5c5.4,0,9.7-4.4,9.7-9.7V22.5
	C99,17.2,94.6,12.8,89.3,12.8z M63.1,52.2L39.6,66.7c-1.8,1.1-4-0.2-4-2.2v-29c0-2.1,2.3-3.3,4-2.2l23.5,14.5
	C64.8,48.8,64.8,51.2,63.1,52.2z"/>
</svg>
