<svg id="Layer_1" data-name="Layer 1" 
    xmlns="http://www.w3.org/2000/svg" viewBox="0 0 100 100">
    <title>soccer-icon</title>
    <path d="M99,49.3l-.5-.4-1.2-1L96,47.1a24.9,24.9,0,0,0-2.8-1.5l-2.9-1.3a52.7,52.7,0,0,0-6-2l.3,1.1a28,28,0,0,0,2.7,6.5,41.2,41.2,0,0,0,3.9,6.3,80.6,80.6,0,0,0,5.9,7.2A48.7,48.7,0,0,0,99,50Z" fill="#7e7e7e"/>
    <path d="M85.6,30.7A12.7,12.7,0,0,0,84,35.8a55.3,55.3,0,0,1,8.6,3.1l3.3,1.6L98.3,42a47.5,47.5,0,0,0-6.4-17.3l-.6.3-1.4.9A14.1,14.1,0,0,0,85.6,30.7Z" fill="#7e7e7e"/>
    <path d="M54.9,45.3v-6h-4c-4.8.2-9.6.6-14.3,1.2v.2a16.3,16.3,0,0,1-.3,3.1,16.5,16.5,0,0,1-.4,3.1,34.9,34.9,0,0,1-4.3,11.8,48.3,48.3,0,0,1-7.7,9.7A84.4,84.4,0,0,1,10.5,79,48.9,48.9,0,0,0,44.9,98.7l.6-1.6a33.8,33.8,0,0,0,1.1-3.4c1.4-4.4,2.7-9,3.7-13.6a162.3,162.3,0,0,0,4.2-27.8C54.7,50,54.8,47.7,54.9,45.3Z" fill="#7e7e7e"/>
    <path d="M86.4,59.9a44.2,44.2,0,0,1-8.1-14.8,28.4,28.4,0,0,1-.9-4.2,110.1,110.1,0,0,0-15.3-1.5v6.1c-.1,2.5-.2,4.9-.4,7.4a156.6,156.6,0,0,1-5.1,28.8c-.6,2.4-1.3,4.7-2,7s-1.6,4.7-2.5,6.9L50.9,99A49,49,0,0,0,95.1,69.1L91.8,66C89.9,64,88.1,62,86.4,59.9Z" fill="#7e7e7e"/>
    <path d="M53.6,5.6l1.9,3.3c.6,1.2,1.2,2.3,1.7,3.5s1,2.4,1.3,3.6.9,2.4,1.2,3.6.7,2.4.9,3.7a75.8,75.8,0,0,1,1.3,9.4l2.9.2c2.3.1,4.7.3,7,.6s3.9.5,5.8.9a17.9,17.9,0,0,1,2.5-7A18.1,18.1,0,0,1,86.6,21l2-1.1A48.7,48.7,0,0,0,50,1l1.3,1.5Z" fill="#7e7e7e"/>
    <path d="M6,41.8l3.3-1.2c4.4-1.6,9-2.9,13.5-4.1L30,35a12.7,12.7,0,0,0-4.3-7.8,19.3,19.3,0,0,0-9.1-3.9,30.7,30.7,0,0,0-5.3-.5h-2a47.8,47.8,0,0,0-7.9,21l1.4-.6Z" fill="#7e7e7e"/>
    <path d="M23.7,19.2a20.3,20.3,0,0,1,5.9,3.3A17.7,17.7,0,0,1,34,27.9,19.4,19.4,0,0,1,36.2,34c4.8-.6,9.6-1,14.5-1.3h3.9a4.5,4.5,0,0,1-.1-1.1L54.1,28l-.6-3.3a56.6,56.6,0,0,0-3.9-12.9c-.4-1-.9-2-1.4-3L46.5,6l-.9-1.4-1-1.3-1-1.2L43,1.5A48.9,48.9,0,0,0,13.5,17.4l4,.3A33,33,0,0,1,23.7,19.2Z" fill="#7e7e7e"/>
    <path d="M29.9,45.8a23,23,0,0,0,.3-2.6c.1-.6.1-1.2.2-1.8-2.1.4-4.2.7-6.2,1.2A120,120,0,0,0,11.1,46L7.9,47,4.8,48.2A25,25,0,0,0,1,49.7V50A48.5,48.5,0,0,0,7.6,74.5,94.2,94.2,0,0,0,19.8,64.3C24.8,59,28.7,52.8,29.9,45.8Z" fill="#7e7e7e"/>
</svg>