<?xml version="1.0" encoding="utf-8"?>
<!-- Generator: Adobe Illustrator 23.1.0, SVG Export Plug-In . SVG Version: 6.00 Build 0)  -->
<svg version="1.1" id="icon_basketball" xmlns="http://www.w3.org/2000/svg" xmlns:xlink="http://www.w3.org/1999/xlink" x="0px"
	 y="0px" viewBox="0 0 100 100" style="enable-background:new 0 0 100 100;" xml:space="preserve">
<path id="Union_16" fill="#666666" d="M30.6,95c1.1-11.3-0.9-22.6-5.6-32.9c-0.4-0.7-0.8-1.4-1.2-2.1c2.3-1.8,4.7-3.6,7.3-5.4
	c1.6,2.9,3.2,5.7,4.9,8.5C44.6,77,54.4,89.6,63.7,97C52.8,100.2,41.1,99.5,30.6,95L30.6,95z M63.7,97L63.7,97L63.7,97z M40.8,60.2
	c-1.7-2.9-3.4-5.8-5.1-8.7c1.8-1.2,3.6-2.3,5.5-3.5c2.1-1.3,4.3-2.6,6.5-3.8c2.1,3.2,4.7,6,7.7,8.4c8.8,7.2,22.3,12.5,40.4,14.8
	C91.2,79.6,81.9,89.4,70,94.7C60.5,88.4,49.9,75.1,40.8,60.2L40.8,60.2z M25.2,92.3c-6.8-4-12.5-9.6-16.7-16.3
	c3.1-4.6,6.9-8.7,11.1-12.3c0.2,0.3,0.4,0.7,0.5,1C24.1,73.3,25.8,82.8,25.2,92.3L25.2,92.3z M1,50c0-0.7,0-1.4,0-2
	c6,2.2,11.4,6,15.4,11c-4,3.4-7.7,7.3-11,11.5C2.5,64.1,1,57.1,1,50z M59,48.3c-2.4-1.9-4.5-4.2-6.3-6.7
	C67.5,33.7,82.5,28,92.8,26.4l0-0.3c6.1,10.9,7.8,23.8,4.8,35.9C80,59.9,67.2,55,59,48.3L59,48.3z M1.6,42.3
	C3.2,32.3,7.8,23.2,14.8,16c3.3,11.7,7.9,23,13.7,33.7c-2.7,1.9-5.3,3.8-7.8,5.8C15.7,49.3,9.1,44.8,1.6,42.3L1.6,42.3z M19.5,11.7
	L19.5,11.7C28.1,4.8,38.9,1,50,1c0.7,0,1.3,0,1.9,0c-5,6.6-8.1,14.3-9.2,22.5l0,0c-0.6,5.4,0.2,10.8,2.4,15.8
	c-2.3,1.3-4.5,2.6-6.7,3.9c-1.8,1.1-3.5,2.2-5.2,3.3C27.1,35.5,22.5,23.8,19.5,11.7L19.5,11.7z M48.2,24.1c1.2-8.3,4.7-16,10.1-22.4
	l0,0c12.6,2.2,23.9,9.2,31.4,19.6C75.8,24.6,62.5,29.8,50,36.7C48.4,32.7,47.8,28.4,48.2,24.1L48.2,24.1z"/>
</svg>
