<?xml version="1.0" encoding="utf-8"?>
<!-- Generator: Adobe Illustrator 23.1.0, SVG Export Plug-In . SVG Version: 6.00 Build 0)  -->
<svg version="1.1" id="Layer_1" xmlns="http://www.w3.org/2000/svg" xmlns:xlink="http://www.w3.org/1999/xlink" x="0px" y="0px"
	 viewBox="0 0 100 100" style="enable-background:new 0 0 100 100;" xml:space="preserve">
<style type="text/css">
	.st0{fill:#7E7E7E;}
	.st1{fill:#FFFFFF;}
	.st2{fill:#4699D4;}
</style>
<path class="st1" d="M93.8,36.6V33h0V16.9H51.9v0h-3.5v0H6.4V33h0v3.5h0v26.3h0v3.5h0V83h41.9v0h3.5v0h41.9V66.4h0v-3.5h0L93.8,36.6
	L93.8,36.6z M9.9,36.6h12.8v26.3H9.9V36.6z M48.4,79.4H9.9v-13h16.3V33H9.9V20.5h38.4v16c-6.7,0.9-11.9,6.5-11.9,13.5
	c0,6.9,5.2,12.6,11.9,13.5V79.4z M50.1,60C44.5,60,40,55.5,40,49.9c0-5.6,4.5-10.1,10.1-10.1c5.6,0,10.1,4.5,10.1,10.1
	C60.2,55.5,55.7,60,50.1,60z M90.3,62.9H77.5V36.6h12.8V62.9z M90.3,33H74v33.4h16.3v13H51.9v-16c6.7-0.9,11.9-6.5,11.9-13.5
	c0-6.9-5.2-12.6-11.9-13.5v-16h38.4V33z"/>
<g>
	<rect x="77.5" y="36.6" class="st0" width="12.8" height="26.3"/>
	<path class="st0" d="M60.2,49.9c0-5.6-4.5-10.1-10.1-10.1c-5.6,0-10.1,4.5-10.1,10.1C40,55.5,44.5,60,50.1,60
		C55.7,60,60.2,55.5,60.2,49.9z"/>
	<path class="st0" d="M36.5,49.9c0-6.9,5.2-12.6,11.9-13.5v-16H9.9V33h16.3v33.4H9.9v13h38.4v-16C41.7,62.5,36.5,56.9,36.5,49.9z"/>
	<path class="st0" d="M51.9,36.5c6.7,0.9,11.9,6.5,11.9,13.5c0,6.9-5.2,12.6-11.9,13.5v16h38.4v-13H74V33h16.3V20.5H51.9V36.5z"/>
	<rect x="9.9" y="36.6" class="st0" width="12.8" height="26.3"/>
	<path class="st0" d="M95.2,11.7H4.8c-2.1,0-3.8,1.7-3.8,3.8v69.1c0,2.1,1.7,3.8,3.8,3.8h90.5c2.1,0,3.8-1.7,3.8-3.8V15.5
		C99,13.4,97.3,11.7,95.2,11.7z M93.8,36.6L93.8,36.6l0,26.3h0v3.5h0V83H51.9v0h-3.5v0H6.4V66.4h0v-3.5h0V36.6h0V33h0V16.9h41.9v0
		h3.5v0h41.9V33h0V36.6z"/>
</g>
</svg>
