<?xml version="1.0" encoding="utf-8"?>
<!-- Generator: Adobe Illustrator 23.1.0, SVG Export Plug-In . SVG Version: 6.00 Build 0)  -->
<svg version="1.1" id="screen_play" xmlns="http://www.w3.org/2000/svg" xmlns:xlink="http://www.w3.org/1999/xlink" x="0px"
	 y="0px" viewBox="0 0 100 100" style="enable-background:new 0 0 100 100;" xml:space="preserve">
<style type="text/css">
	.st0{fill:#FFFFFF;}
	.st1{fill:none;}
</style>
<g>
	<path id="Path_130" class="st0" d="M66.5,46.5L40.3,29c0,0-0.1-0.1-0.1-0.1l0,0L40,28.8c-1.3-0.8-3-0.8-4.4,0
		c-1.3,0.8-2.2,2.2-2.2,3.8v34.9c0.1,2.3,2,4.2,4.4,4.3c0.9,0,1.7-0.2,2.4-0.7l26-17.3c1.3-0.8,2-2.2,2-3.7
		C68.3,48.6,67.7,47.3,66.5,46.5z"/>
	<circle class="st1" cx="50" cy="50" r="49"/>
	<g>
		<path fill="#FFFFFF" d="M50,99C23,99,1,77,1,50C1,23,23,1,50,1s49,22,49,49C99,77,77,99,50,99z M50,6.4C26,6.4,6.4,26,6.4,50
			C6.4,74,26,93.6,50,93.6S93.6,74,93.6,50C93.6,26,74,6.4,50,6.4z"/>
	</g>
</g>
</svg>
