<?xml version="1.0" encoding="utf-8"?>
<!-- Generator: Adobe Illustrator 23.1.0, SVG Export Plug-In . SVG Version: 6.00 Build 0)  -->
<svg version="1.1" id="screen_timer" xmlns="http://www.w3.org/2000/svg" xmlns:xlink="http://www.w3.org/1999/xlink" x="0px"
	 y="0px" viewBox="0 0 100 100" style="enable-background:new 0 0 100 100;" xml:space="preserve">
<style type="text/css">
	.st0{fill:#FFFFFF;}
</style>
<path id="Path_125" fill="#FFFFFF" d="M93.2,44.4H52.8V6.6C73.5,7.9,90.5,23.7,93.2,44.4z M47.3,46.9c0,0,0,0.1,0,0.1c0,0,0,0.1,0,0.1
	c0,1.5,1.2,2.7,2.7,2.7h45.6c0.5,0,1-0.2,1.4-0.5c1.2-0.4,2-1.5,1.9-2.7C97.1,20.9,75.8,1,50,1c-1.5,0-2.7,1.2-2.7,2.7L47.3,46.9
	L47.3,46.9z M96.1,55.5c-1.5-0.3-2.9,0.7-3.2,2.2c0,0,0,0,0,0C88.7,81.4,66.1,97.2,42.4,93C18.6,88.8,2.8,66.1,7.1,42.4
	c2.9-16.1,14.5-29.2,30.1-34c1.4-0.5,2.2-2,1.8-3.4c-0.5-1.4-2-2.2-3.4-1.8C9.7,11.1-4.8,38.6,3.2,64.5c8,25.9,35.5,40.4,61.4,32.3
	c17.5-5.4,30.5-20.1,33.8-38.2C98.6,57.2,97.6,55.8,96.1,55.5C96.1,55.5,96.1,55.5,96.1,55.5"/>
</svg>
