<?xml version="1.0" encoding="utf-8"?>
<!-- Generator: Adobe Illustrator 23.1.0, SVG Export Plug-In . SVG Version: 6.00 Build 0)  -->
<svg version="1.1" id="Layer_1" xmlns="http://www.w3.org/2000/svg" xmlns:xlink="http://www.w3.org/1999/xlink" x="0px" y="0px"
	 viewBox="0 0 200 200" style="enable-background:new 0 0 200 200;" xml:space="preserve">
<style type="text/css">
	.st0{fill:#ff9900;}
	.st1{fill:#151515;}
</style>
<path id="Rectangle_1404" class="st0" d="M17.9,2h164.2c8.8,0,15.9,6.9,15.9,15.5v165.1c0,8.5-7.1,15.5-15.9,15.5H17.9
	C9.1,198,2,191.1,2,182.5V17.5C2,8.9,9.1,2,17.9,2z"/>
<g>
	<path class="st1" d="M53.4,34.6v-3.3h19v3.3c-4.3,7.4-11,13.5-20.1,18.6c-0.6-1.1-1.3-2.2-2-3.4c3.4-1.7,6.1-3.4,8.2-5
		c-2-2.1-4.1-4.1-6.2-6.1l2.3-2.3c2.4,2.2,4.6,4.2,6.6,6.2c2.7-2.3,4.9-5,6.8-8.1H53.4z M51.3,70.8h16.1c-1.2-1.1-2.8-2.7-5-4.7
		l2.3-2.3c2,1.6,3.9,3.3,5.9,5.1l-2,1.8h11.5l-1.6-1.6c2-1.9,3.9-3.7,5.5-5.5l2.9,2.4c-1.5,1.5-3.2,3.1-5,4.7h16.4V74H51.3V70.8z
		 M58.7,50.4h31.6v14.8h-3.6v-1.7H62.4v1.7h-3.6V50.4z M86.7,53.5H62.4v6.7h24.3V53.5z M66.2,43h16.3v3.2H66.2V43z M78.4,28.8
		c0.7,2,1.6,3.8,2.4,5.5c3.5-1.9,6.6-3.8,9.2-5.6l2.4,3c-3,1.8-6.3,3.6-9.7,5.5c0.9,1.3,1.8,2.4,2.8,3.5c3.4-1.9,6.5-3.7,9.4-5.7
		l2.4,3.1c-2.7,1.6-5.6,3.3-9,5.1c3.1,2.4,6.7,4,10.7,4.8c-0.9,1.3-1.8,2.6-2.6,3.9C86.2,48.4,79.1,41.1,75,30.1L78.4,28.8z"/>
	<path class="st1" d="M116.3,57.5c0.9,6.1-0.6,9.5-4.6,10.3c-1.4,0.3-3,0.4-4.8,0.1c-0.3-1.3-0.6-2.6-1.1-3.9v11.6h-3.6V31.4h13.8
		v3.4c-2.2,7.2-3.6,11.6-4.1,13.3C114.5,51.5,115.9,54.6,116.3,57.5z M110.3,64.1c2.2-0.3,2.9-2.6,2.2-6.8c-0.4-2.6-1.9-5.5-4.3-8.6
		c1.4-4.7,2.8-9.4,3.9-14h-6.2v29.1C107.6,64.2,109.1,64.3,110.3,64.1z M141.6,75.2v-2.5h-22V56.2h3.6v13.1h7.2V51.6h-13.6v-3.4
		h13.6v-8.8h-11.9V36h11.9v-7.3h3.7V36h12.2v3.4h-12.2v8.8h13.5v3.4h-13.5v17.7h7.4V56.2h3.6v19H141.6z"/>
	<path class="st1" d="M53.1,141.3c2.3,1.6,5.1,3.8,8.5,6.5c-1.2,1.3-2.1,2.4-2.8,3.1c-3.4-3.1-6-5.4-8.1-6.9L53.1,141.3z
		 M57.5,155.1c1.3,0.6,2.6,1.1,3.8,1.6c-1.8,5.6-3.6,11.8-5.5,18.4l-4.1-1.4C53.6,168.2,55.6,162,57.5,155.1z M55,128.9
		c3.1,2.3,5.9,4.7,8.3,7c-1.1,1.1-2,2.1-2.9,2.9c-1.7-1.8-4.4-4.3-7.9-7.3L55,128.9z M62.6,168.9h16.1v-13.6H66.2v-3.6h12.5V140
		H64.9v-3.6h15.3c-1.5-2.4-3-4.6-4.6-6.5l3.2-2c2.1,2.5,3.8,4.7,5.1,6.6l-3,1.9H97v3.6H82.8v11.6h12.5v3.6H82.8v13.6h15.5v3.6H62.6
		V168.9z"/>
	<path class="st1" d="M126.6,130.7h15.8v17.2h5.1v3.6h-5.1v18.4c0,3.3-1.5,5-4.6,5c-2.2,0-4.3,0-6.1-0.1c-0.1-0.9-0.3-2.1-0.6-3.6
		c2.3,0.2,4.2,0.3,5.6,0.3c1.4,0,2.1-0.7,2.1-2.2v-17.8h-8.5v2.8c0,8.5-1.8,15.7-5.4,21.4c-0.8-0.8-1.7-1.7-2.9-2.7
		c3.1-4.9,4.7-11.1,4.7-18.5v-3h-6.1v16.9c0,3.2-1.6,4.8-4.8,4.8c-1.7,0-3.4,0-5-0.1c-0.1-0.9-0.3-2.1-0.6-3.6
		c1.8,0.2,3.3,0.3,4.7,0.3c1.3,0,2-0.7,2-2.2v-16.2h-8.2v3.5c0,8.6-1.8,15.5-5.5,20.7c-0.8-0.9-1.7-1.8-2.9-2.7
		c3.1-4.8,4.7-10.7,4.7-17.7v-3.8h-4.7v-3.6h4.7v-17.2h15.5v17.2h6.1V130.7z M116.8,134h-8.2v13.8h8.2V134z M138.7,134h-8.5v13.8
		h8.5V134z"/>
	<rect x="46" y="97" class="st1" width="104" height="10"/>
</g>
</svg>
