<svg xmlns="http://www.w3.org/2000/svg" viewBox="0 0 120.2 120.1"><path d="M86.7 65.7l-8 8-55.3-55.3 4.2-4.2L10 0 0 10.1l14.2 17.6 4.2-4.2 55.3 55.3-8 8 11.4 11.4 21-21-11.4-11.5zm16.4 16.4l-21 21 12.6 12.6c5.7 5.8 15.1 5.9 21 .2 5.8-5.7 5.9-15.1.2-21l-.2-.2-12.6-12.6zm-42.4-6.4L44.3 59.3l-12 12C19.2 67.2 5.2 74.5 1.1 87.7s3.2 27.1 16.4 31.2 27.1-3.2 31.2-16.4c1.5-4.8 1.5-10 0-14.8l12-12zm-30.1 25.1c-3.2 3.2-8.3 3.2-11.4 0-3.2-3.2-3.2-8.3 0-11.4 3.2-3.2 8.3-3.2 11.4 0 3.2 3.1 3.2 8.2 0 11.4.1 0 .1 0 0 0zM118.4 15l-1.9-5-12.6 12.6-5.1-1.4-1.4-5.1L110 3.6l-5-2C92.8-3.1 79 2.9 74.3 15c-1.9 4.8-2.2 10.1-.7 15.1L59.3 44.4l16.4 16.4 14.2-14.2c12.6 3.5 25.7-3.8 29.2-16.4 1.4-5.1 1.1-10.4-.7-15.2z" fill-rule="evenodd" clip-rule="evenodd" fill="#fff"/></svg>