<?xml version="1.0" encoding="utf-8"?>
<!-- Generator: Adobe Illustrator 24.3.0, SVG Export Plug-In . SVG Version: 6.00 Build 0)  -->
<svg version="1.1" id="Layer_1" xmlns="http://www.w3.org/2000/svg" xmlns:xlink="http://www.w3.org/1999/xlink" x="0px" y="0px"
	 viewBox="0 0 90.9 52" style="enable-background:new 0 0 90.9 52;" xml:space="preserve">
<style type="text/css">
	.st0{fill:#FFFFFF;}
	.st1{fill:#F2DF36;}
</style>
<g transform="translate(739.15 -584.939)">
	<path class="st0" d="M-739.2,597.9h8.6V608h0.1c1.3-1.9,3.1-2.7,5.4-2.7c5.4,0,7.6,4.2,7.6,9c0,5.2-2.1,9.6-7.8,9.6
		c-2.8,0-4.5-1-5.7-3.7h-0.1v3.2h-8V597.9z M-728.7,618.2c1.9,0,2.2-2,2.2-3.9c0-1.8-0.3-3.7-2.1-3.7c-1.9,0-2.2,1.8-2.2,3.9
		C-730.8,616.2-730.5,618.2-728.7,618.2L-728.7,618.2z"/>
	<path class="st0" d="M-698.8,623c-2.1,0.6-4.2,0.9-6.4,0.9c-7.2,0-11-3.5-11-9.6c0-6,3.8-9,11-9c2.1-0.1,4.2,0.2,6.2,0.8v5.3
		c-1.2-0.6-2.5-0.9-3.9-0.9c-2.6,0-4.3,1.3-4.3,4c0,2.8,1.7,4.4,4.3,4.4c1.4,0,2.8-0.3,4-1.1V623z"/>
	<path class="st1" d="M-695.3,617h7.4v6.5h-7.4V617z"/>
	<path class="st1" d="M-667.2,623c-2.1,0.6-4.2,0.9-6.4,0.9c-7.2,0-11-3.5-11-9.6c0-6,3.8-9,11-9c2.1-0.1,4.2,0.2,6.2,0.8v5.3
		c-1.2-0.6-2.5-0.9-3.9-0.9c-2.6,0-4.3,1.3-4.3,4c0,2.8,1.7,4.4,4.3,4.4c1.4,0,2.8-0.3,4-1.1V623z"/>
	<path class="st1" d="M-648.2,623c-2.1,0.6-4.2,0.9-6.4,0.9c-7.2,0-11-3.5-11-9.6c0-6,3.8-9,11-9c2.1-0.1,4.2,0.2,6.2,0.8v5.3
		c-1.2-0.6-2.5-0.9-3.9-0.9c-2.6,0-4.3,1.3-4.3,4c0,2.8,1.7,4.4,4.3,4.4c1.4,0,2.8-0.3,4-1.1V623z"/>
</g>
</svg>
