<?xml version="1.0" encoding="utf-8"?>
<!-- Generator: Adobe Illustrator 24.3.0, SVG Export Plug-In . SVG Version: 6.00 Build 0)  -->
<svg version="1.1" id="Layer_1" xmlns="http://www.w3.org/2000/svg" xmlns:xlink="http://www.w3.org/1999/xlink" x="0px" y="0px"
	 viewBox="0 0 112.6 52" style="enable-background:new 0 0 112.6 52;" xml:space="preserve">
<style type="text/css">
	.st0{fill-rule:evenodd;clip-rule:evenodd;fill:url(#SVGID_1_);}
	.st1{fill-rule:evenodd;clip-rule:evenodd;fill:url(#SVGID_2_);}
	.st2{fill-rule:evenodd;clip-rule:evenodd;fill:url(#SVGID_3_);}
	.st3{fill-rule:evenodd;clip-rule:evenodd;fill:url(#SVGID_4_);}
	.st4{fill-rule:evenodd;clip-rule:evenodd;fill:url(#SVGID_5_);}
	.st5{fill-rule:evenodd;clip-rule:evenodd;fill:url(#SVGID_6_);}
	.st6{fill-rule:evenodd;clip-rule:evenodd;fill:url(#SVGID_7_);}
	.st7{fill-rule:evenodd;clip-rule:evenodd;fill:url(#SVGID_8_);}
	.st8{fill-rule:evenodd;clip-rule:evenodd;fill:url(#SVGID_9_);}
	.st9{fill-rule:evenodd;clip-rule:evenodd;fill:url(#SVGID_10_);}
	.st10{fill-rule:evenodd;clip-rule:evenodd;fill:url(#SVGID_11_);}
	.st11{fill-rule:evenodd;clip-rule:evenodd;fill:url(#SVGID_12_);}
	.st12{fill-rule:evenodd;clip-rule:evenodd;fill:url(#SVGID_13_);}
	.st13{fill-rule:evenodd;clip-rule:evenodd;fill:url(#SVGID_14_);}
	.st14{fill-rule:evenodd;clip-rule:evenodd;fill:url(#SVGID_15_);}
	.st15{fill-rule:evenodd;clip-rule:evenodd;fill:url(#SVGID_16_);}
	.st16{fill-rule:evenodd;clip-rule:evenodd;fill:url(#SVGID_17_);}
	.st17{fill-rule:evenodd;clip-rule:evenodd;fill:url(#SVGID_18_);}
</style>
<g transform="translate(-35.9 -1.6)">
	
		<linearGradient id="SVGID_1_" gradientUnits="userSpaceOnUse" x1="-575.7319" y1="406.6123" x2="-575.4456" y2="407.084" gradientTransform="matrix(45.5706 0 0 -68.4752 26276.9336 27882.7852)">
		<stop  offset="0" style="stop-color:#886728"/>
		<stop  offset="0.298" style="stop-color:#A07E38"/>
		<stop  offset="0.747" style="stop-color:#BE9A4D"/>
		<stop  offset="1" style="stop-color:#C9A555"/>
	</linearGradient>
	<path class="st0" d="M48.9,25.6l0-4.2c-0.8,0.5-1.6,0.9-2.6,1.4c-1.8,0.9-3.8,1.7-5.7,2.3l3.1,10.1h5c0.1,0,0.2-0.1,0.2-0.2v-4.1
		c0-0.1-0.1-0.2-0.2-0.2h-3.5c-0.3,0-0.6-0.2-0.7-0.5l-0.7-2.1h6.8c0.5,0,0.9,0.4,0.9,0.9c0,0,0,0,0,0v7.7c0,0.7-0.6,1.2-1.2,1.2
		h-7.8c-0.4,0-0.7-0.2-0.8-0.6L41.4,37l-3.8-12.3l-0.2-0.8c0-0.1,0-0.3,0-0.4c0.1-0.1,0.2-0.2,0.3-0.2l0.8-0.2
		c2.3-0.6,4.5-1.4,6.6-2.4c1.5-0.7,2.9-1.6,4.2-2.6l1.8-1.3c0.1,0,0.1,0,0.2,0c0.1,0,0.1,0.1,0.1,0.2v2.2l0,6.6L48.9,25.6z"/>
	
		<linearGradient id="SVGID_2_" gradientUnits="userSpaceOnUse" x1="-510.2821" y1="402.1287" x2="-511.5066" y2="400.8571" gradientTransform="matrix(7.6 0 0 -31.7 3933.0969 12760.8418)">
		<stop  offset="0" style="stop-color:#886728"/>
		<stop  offset="0.298" style="stop-color:#A07E38"/>
		<stop  offset="0.747" style="stop-color:#BE9A4D"/>
		<stop  offset="1" style="stop-color:#C9A555"/>
	</linearGradient>
	<path class="st1" d="M49.5,28.1h1.1c0.5,0,0.9,0.4,0.9,0.9c0,0,0,0,0,0v8c0,0.5-0.4,0.9-0.9,0.9l0,0h-1.5l0.3-0.1
		c0.5-0.1,0.9-0.6,0.9-1.2v-7.7C50.4,28.5,50.1,28.1,49.5,28.1L49.5,28.1z"/>
	
		<linearGradient id="SVGID_3_" gradientUnits="userSpaceOnUse" x1="-568.6699" y1="404.6458" x2="-568.8757" y2="404.2045" gradientTransform="matrix(30.0206 0 0 -45.7751 17117.9629 18539.8086)">
		<stop  offset="0" style="stop-color:#886728"/>
		<stop  offset="0.298" style="stop-color:#A07E38"/>
		<stop  offset="0.747" style="stop-color:#BE9A4D"/>
		<stop  offset="1" style="stop-color:#C9A555"/>
	</linearGradient>
	<path class="st2" d="M48.8,21.5c-0.8,0.5-1.7,1-2.5,1.4c-1.8,0.9-3.6,1.6-5.5,2.2c-0.1,0-0.1,0.1-0.1,0.2c0,0,0,0,0,0l2.6,8.4
		c0.2,0.7,0.7,1.2,1.4,1.4l0.2,0.1h-1.1c-0.6,0-1.2-0.4-1.4-1l-2.8-8.9c0-0.1,0-0.2,0.1-0.2c0,0,0,0,0,0c1.9-0.6,3.8-1.3,5.5-2.2
		c0.8-0.4,2.5-1.3,3.3-1.9c0.1,0,0.1,0,0.2,0c0.1,0,0.1,0.1,0.1,0.2L48.8,21.5z"/>
	
		<linearGradient id="SVGID_4_" gradientUnits="userSpaceOnUse" x1="-518.993" y1="400.0646" x2="-519.2211" y2="399.1116" gradientTransform="matrix(8.5 0 0 -29.0751 4462.7017 11641.9658)">
		<stop  offset="0" style="stop-color:#886728"/>
		<stop  offset="0.298" style="stop-color:#A07E38"/>
		<stop  offset="0.747" style="stop-color:#BE9A4D"/>
		<stop  offset="1" style="stop-color:#C9A555"/>
	</linearGradient>
	<path class="st3" d="M48.9,25.6h1.6l0-6.6v-1.8l0.8-0.6c0.1,0,0.1,0,0.2,0c0.1,0,0.1,0.1,0.1,0.2V19l0,6.6L48.9,25.6z"/>
	
		<linearGradient id="SVGID_5_" gradientUnits="userSpaceOnUse" x1="-564.7911" y1="403.3199" x2="-564.2332" y2="404.0882" gradientTransform="matrix(23.7001 0 0 -42.5755 13436.0566 17210.4609)">
		<stop  offset="0" style="stop-color:#886728"/>
		<stop  offset="0.298" style="stop-color:#A07E38"/>
		<stop  offset="0.747" style="stop-color:#BE9A4D"/>
		<stop  offset="1" style="stop-color:#C9A555"/>
	</linearGradient>
	<path class="st4" d="M55.7,19.3V28c0,0.2,0.2,0.3,0.3,0.3h4.4l-0.7,2.1c-0.1,0.3-0.4,0.5-0.7,0.5H54c-0.5,0-0.9-0.4-0.9-0.9
		c0,0,0,0,0,0V17.9c0-0.1,0-0.1,0.1-0.2c0.1,0,0.1,0,0.2,0C54.1,18.3,54.9,18.9,55.7,19.3z"/>
	
		<linearGradient id="SVGID_6_" gradientUnits="userSpaceOnUse" x1="-475.5327" y1="404.0261" x2="-477.5246" y2="403.1775" gradientTransform="matrix(5.2001 0 0 -42.5751 2531.166 17210.2676)">
		<stop  offset="0" style="stop-color:#886728"/>
		<stop  offset="0.298" style="stop-color:#A07E38"/>
		<stop  offset="0.747" style="stop-color:#BE9A4D"/>
		<stop  offset="1" style="stop-color:#C9A555"/>
	</linearGradient>
	<path class="st5" d="M54.7,30.9H54c-0.5,0-0.9-0.4-0.9-0.9c0,0,0,0,0,0V17.9c0-0.1,0-0.1,0.1-0.2c0.1,0,0.1,0,0.2,0
		c0.2,0.2,0.5,0.4,0.8,0.5v11.8C54.1,30.5,54.3,30.8,54.7,30.9L54.7,30.9z"/>
	
		<linearGradient id="SVGID_7_" gradientUnits="userSpaceOnUse" x1="-580.1168" y1="357.7535" x2="-579.8047" y2="357.7535" gradientTransform="matrix(65.5 0 0 -5.7001 38039.6523 2079.1797)">
		<stop  offset="0" style="stop-color:#886728"/>
		<stop  offset="0.5" style="stop-color:#D9B766"/>
		<stop  offset="1" style="stop-color:#886728"/>
	</linearGradient>
	<path class="st6" d="M42.1,39.1h20.3L62,40.2c-0.1,0.4-0.5,0.6-0.8,0.6H43.3c-0.4,0-0.7-0.2-0.8-0.6L42.1,39.1z"/>
	
		<linearGradient id="SVGID_8_" gradientUnits="userSpaceOnUse" x1="-576.434" y1="403.9483" x2="-575.4844" y2="406.1416" gradientTransform="matrix(44.3946 0 0 -47.6 25634.4961 19298.8223)">
		<stop  offset="0" style="stop-color:#886728"/>
		<stop  offset="0.298" style="stop-color:#A07E38"/>
		<stop  offset="0.747" style="stop-color:#BE9A4D"/>
		<stop  offset="1" style="stop-color:#C9A555"/>
	</linearGradient>
	<path class="st7" d="M66.8,24.4c-1.3,4.2-2.6,8.3-3.9,12.5l-0.1,0.3c-0.1,0.4-0.5,0.6-0.8,0.6h-8.9v-0.1l0,0v-2.6h7.6
		c1.2-4,2.5-8.1,3.8-12.1c0.7,0.2,1.4,0.4,2,0.6c0.1,0,0.3,0.1,0.3,0.2C66.8,24.1,66.9,24.3,66.8,24.4z"/>
	
		<linearGradient id="SVGID_9_" gradientUnits="userSpaceOnUse" x1="-574.3626" y1="404.9842" x2="-574.7469" y2="404.5556" gradientTransform="matrix(39.9 0 0 -47.5 22985.1484 19257.6992)">
		<stop  offset="0" style="stop-color:#886728"/>
		<stop  offset="0.298" style="stop-color:#A07E38"/>
		<stop  offset="0.747" style="stop-color:#BE9A4D"/>
		<stop  offset="1" style="stop-color:#C9A555"/>
	</linearGradient>
	<path class="st8" d="M54.1,37.9h-1.1v-0.1l0,0v-2.6h1.1V37.9L54.1,37.9C54.1,37.8,54.1,37.9,54.1,37.9z M59.5,35.2l0.5,0
		c0.5-0.1,0.8-0.4,1-0.8l3-9.5l0,0l0.5-1.7c0.3,0.1,0.7,0.2,1,0.3L65,24.8l0,0l-3,9.8c-0.1,0.4-0.5,0.6-0.8,0.6L59.5,35.2L59.5,35.2
		z"/>
	
		<linearGradient id="SVGID_10_" gradientUnits="userSpaceOnUse" x1="-587.205" y1="390.8589" x2="-586.9016" y2="390.8589" gradientTransform="matrix(242.9972 0 0 -14.715 142761.7344 5791.8188)">
		<stop  offset="0" style="stop-color:#886728"/>
		<stop  offset="0.5" style="stop-color:#D9B766"/>
		<stop  offset="1" style="stop-color:#886728"/>
	</linearGradient>
	<path class="st9" d="M75.6,40.8c0-0.2,0.1-0.5,0.2-0.7c-0.2,0-0.5,0-0.7,0h-0.3c-0.2,0-0.5,0-0.7,0L74,40.8c0.2,0,0.4,0,0.6,0h0.3
		l-0.2,0.9c-0.3,0.2-0.7,0.3-1,0.2c-0.4,0-0.7-0.1-0.9-0.4c-0.2-0.3-0.2-0.7-0.2-1.3c0.1-0.5,0.3-0.9,0.7-1.2
		c0.3-0.2,0.6-0.3,0.9-0.3c0.6,0,0.8,0.2,0.9,0.7l0.8-0.2c0-0.2-0.1-0.5-0.3-0.7c-0.3-0.3-0.8-0.5-1.2-0.5c-0.5,0-0.9,0.1-1.3,0.3
		c-0.7,0.4-1.2,1.1-1.3,1.9c-0.1,0.7-0.1,1.2,0.2,1.6s0.8,0.6,1.5,0.6c0.3,0,0.6,0,0.9-0.1c0.3-0.1,0.7-0.2,1-0.4
		c0-0.2,0-0.5,0.1-0.7L75.6,40.8L75.6,40.8z M81,38.2c0,0.3,0,0.5-0.1,0.7l-0.4,1.9c-0.1,0.7-0.7,1.2-1.4,1.1c-0.8,0-1.1-0.4-1-1.1
		l0.4-1.9c0-0.3,0.1-0.5,0.2-0.7h-0.9c0,0.3,0,0.5-0.1,0.7l-0.4,1.9c-0.1,0.5-0.1,1,0.2,1.2c0.2,0.3,0.7,0.5,1.4,0.5
		c1.2,0,2.1-0.6,2.3-1.7l0.4-1.9c0-0.3,0.1-0.5,0.2-0.7L81,38.2L81,38.2z M87,42.5c-0.1-0.2-0.1-0.4-0.2-0.7l-0.7-3.1
		c0-0.2-0.1-0.4-0.1-0.6h-1c-0.1,0.2-0.2,0.4-0.3,0.6l-1.9,3.1c-0.2,0.2-0.3,0.5-0.4,0.7h0.9c0.1-0.2,0.2-0.4,0.3-0.6l0.3-0.6h1.8
		l0.1,0.6c0,0.2,0.1,0.4,0.1,0.6H87z M85.8,40.7h-1.4l0.9-1.6l0.2-0.3c0,0.1,0,0.2,0,0.3L85.8,40.7z M92.4,42.5c0-0.2,0-0.5,0.1-0.7
		l0.6-2.9c0-0.3,0.1-0.5,0.2-0.7h-0.8c0,0.3,0,0.5-0.1,0.7l-0.4,1.8c0,0.2-0.1,0.6-0.1,0.8c-0.1-0.2-0.2-0.5-0.3-0.7l-1.1-2
		c-0.1-0.2-0.2-0.4-0.2-0.6h-0.9c0,0.2,0,0.5-0.1,0.7l-0.6,2.8c0,0.3-0.1,0.5-0.2,0.8h0.8c0-0.3,0.1-0.5,0.1-0.8l0.3-1.8
		c0-0.2,0.1-0.3,0.1-0.5c0-0.1,0-0.2,0-0.3c0.1,0.2,0.2,0.5,0.2,0.7l1.1,2.1c0.1,0.2,0.2,0.4,0.2,0.6L92.4,42.5L92.4,42.5z
		 M97.9,42.5c0-0.2,0-0.5,0.1-0.7l0.2-1.1l1.7-2c0.1-0.2,0.4-0.4,0.5-0.6h-1c-0.1,0.2-0.2,0.4-0.4,0.5L98,40.1l-0.6-1.3
		c-0.1-0.2-0.1-0.3-0.2-0.5h-1l0.3,0.6l0.9,2l-0.2,1.1c-0.1,0.3-0.1,0.5-0.2,0.7L97.9,42.5L97.9,42.5z M101.9,38.2
		c0,0.2,0,0.5-0.1,0.7l-0.6,2.9c-0.1,0.3-0.1,0.5-0.2,0.7h0.9c0-0.2,0-0.5,0.1-0.7l0.6-2.9c0.1-0.3,0.1-0.5,0.2-0.7H101.9z
		 M107.6,42.5c0-0.2,0-0.5,0.1-0.7l0.6-2.9c0-0.3,0.1-0.5,0.2-0.7h-0.8c0,0.3,0,0.5-0.1,0.7l-0.4,1.8c0,0.2-0.1,0.6-0.1,0.8
		c-0.1-0.2-0.2-0.5-0.3-0.7l-1.1-2c-0.1-0.2-0.2-0.4-0.2-0.6h-0.9c0,0.2,0,0.5-0.1,0.7l-0.6,2.8c0,0.3-0.1,0.5-0.2,0.8h0.8
		c0-0.3,0.1-0.5,0.1-0.8L105,40c0-0.2,0.1-0.3,0.1-0.5c0-0.1,0-0.2,0-0.3c0.1,0.2,0.2,0.5,0.2,0.7l1.1,2.1c0.1,0.2,0.2,0.4,0.2,0.6
		L107.6,42.5L107.6,42.5z M113.5,40.8c0-0.2,0.1-0.5,0.2-0.7c-0.2,0-0.5,0-0.7,0h-0.3c-0.2,0-0.5,0-0.7,0l-0.1,0.7
		c0.2,0,0.4,0,0.6,0h0.3l-0.2,0.9c-0.3,0.2-0.7,0.3-1,0.2c-0.4,0-0.7-0.1-0.9-0.4c-0.2-0.4-0.3-0.8-0.2-1.3c0.1-0.5,0.3-0.9,0.7-1.2
		c0.3-0.2,0.6-0.3,0.9-0.3c0.6,0,0.8,0.2,0.9,0.7l0.8-0.2c0-0.2-0.1-0.5-0.3-0.7c-0.3-0.3-0.8-0.5-1.2-0.5c-0.5,0-0.9,0.1-1.3,0.3
		c-0.7,0.4-1.2,1.1-1.3,1.9c-0.1,0.7-0.1,1.2,0.2,1.6c0.3,0.4,0.8,0.6,1.5,0.6c0.3,0,0.6,0,0.9-0.1c0.3-0.1,0.7-0.2,1-0.4
		c0-0.2,0-0.5,0.1-0.7L113.5,40.8L113.5,40.8z M116.6,41.2c0,0.1,0,0.3,0,0.4c0,0.2,0.2,0.5,0.4,0.6c0.3,0.2,0.7,0.3,1.1,0.3
		c0.5,0,1-0.1,1.5-0.4c0.3-0.2,0.5-0.6,0.6-0.9c0.1-0.3,0-0.7-0.3-0.9c-0.3-0.2-0.6-0.3-0.9-0.3c-0.3,0-0.5-0.1-0.8-0.2
		c-0.2,0-0.3-0.3-0.3-0.5c0,0,0,0,0,0c0.1-0.3,0.5-0.6,1-0.6c0.2,0,0.5,0.1,0.7,0.2c0.1,0.1,0.1,0.2,0.1,0.4l0.8-0.1
		c0-0.2,0-0.4-0.2-0.6c-0.2-0.4-0.7-0.6-1.3-0.6c-1,0-1.7,0.5-1.9,1.2c-0.1,0.3,0,0.7,0.3,0.9c0.2,0.2,0.5,0.3,0.8,0.3
		c0.7,0.2,0.8,0.2,1,0.3c0.2,0.1,0.2,0.3,0.2,0.5c-0.1,0.4-0.5,0.7-1.1,0.7c-0.3,0-0.6-0.1-0.8-0.3c-0.1-0.1-0.1-0.3-0.1-0.5
		L116.6,41.2L116.6,41.2z M122.5,42.5c0-0.2,0-0.5,0.1-0.7l0.2-0.9h1.1c0.5,0,0.9-0.1,1.3-0.4c0.3-0.3,0.5-0.6,0.6-1
		c0.1-0.3,0-0.7-0.2-0.9c-0.2-0.2-0.6-0.4-1.1-0.4h-1.2c-0.2,0-0.5,0-0.7,0c0,0.2,0,0.5-0.1,0.7l-0.6,2.9c0,0.2-0.1,0.5-0.2,0.7
		C121.6,42.5,122.5,42.5,122.5,42.5z M122.9,40.3l0.3-1.5h1.1c0.3,0,0.5,0.1,0.6,0.2c0.1,0.2,0.1,0.3,0.1,0.5
		c-0.1,0.5-0.5,0.8-1,0.7H122.9z M129.6,38.1c-0.6,0-1.1,0.2-1.6,0.5c-0.5,0.4-0.9,1-1,1.7c-0.3,1.4,0.4,2.3,1.7,2.3
		s2.3-0.9,2.6-2.3c0.1-0.7,0-1.3-0.3-1.7C130.6,38.3,130.1,38.1,129.6,38.1L129.6,38.1z M128.8,41.9c-0.3,0-0.6-0.1-0.8-0.3
		c-0.3-0.4-0.3-0.8-0.2-1.3c0.2-1,0.8-1.6,1.7-1.6c0.3,0,0.6,0.1,0.8,0.3c0.2,0.3,0.3,0.7,0.2,1.3C130.3,41.3,129.6,41.9,128.8,41.9
		z M136.4,42.5c-0.1-0.2-0.1-0.4-0.2-0.5c-0.3-1.3-0.4-1.4-0.7-1.5c0.3-0.1,0.5-0.2,0.7-0.3c0.2-0.2,0.4-0.5,0.5-0.8
		c0.2-0.7-0.3-1.1-1.1-1.1h-1.4c-0.2,0-0.5,0-0.7,0c0,0.2,0,0.4-0.1,0.7l-0.6,2.9c0,0.2-0.1,0.5-0.2,0.7h0.9c0-0.2,0-0.5,0.1-0.7
		l0.2-1.1h0.9c0.4,0,0.6,0.2,0.8,1c0.1,0.3,0.1,0.6,0.1,0.9L136.4,42.5L136.4,42.5z M133.8,40.1l0.2-1.3h1.2c0.5,0,0.7,0.2,0.6,0.6
		c0,0.2-0.1,0.4-0.3,0.5c-0.2,0.1-0.4,0.2-0.6,0.2L133.8,40.1L133.8,40.1z M140.7,38.8h0.7c0.3,0,0.6,0,0.8,0l0.2-0.7
		c-0.3,0-0.6,0-0.8,0h-2.3c-0.3,0-0.5,0-0.8,0l-0.2,0.7c0.3,0,0.5,0,0.8,0h0.8l-0.6,2.9c0,0.2-0.1,0.5-0.2,0.7h0.9
		c0-0.2,0-0.5,0.1-0.7L140.7,38.8z M143.1,41.2c0,0.1,0,0.3,0,0.4c0,0.2,0.2,0.5,0.4,0.6c0.3,0.2,0.7,0.3,1.1,0.3
		c0.5,0,1-0.1,1.5-0.4c0.3-0.2,0.5-0.6,0.6-0.9c0.1-0.3,0-0.7-0.3-0.9c-0.3-0.2-0.6-0.3-0.9-0.3c-0.3,0-0.5-0.1-0.8-0.2
		c-0.2,0-0.3-0.3-0.3-0.5c0,0,0,0,0,0c0.1-0.3,0.5-0.6,1-0.6c0.2,0,0.5,0.1,0.7,0.2c0.1,0.1,0.1,0.2,0.1,0.4l0.8-0.1
		c0-0.2,0-0.4-0.2-0.6c-0.2-0.4-0.7-0.6-1.3-0.6c-1,0-1.7,0.5-1.9,1.2c-0.1,0.3,0,0.7,0.3,0.9c0.2,0.2,0.5,0.3,0.8,0.3
		c0.7,0.2,0.8,0.2,1,0.3c0.2,0.1,0.2,0.3,0.2,0.5c-0.1,0.4-0.5,0.7-1.1,0.7c-0.3,0-0.6-0.1-0.8-0.3c-0.1-0.1-0.1-0.3-0.1-0.5
		L143.1,41.2z"/>
	
		<linearGradient id="SVGID_11_" gradientUnits="userSpaceOnUse" x1="-580.356" y1="405.0025" x2="-579.6516" y2="405.0025" gradientTransform="matrix(58.6 0 0 -49.9 34069.418 20237.582)">
		<stop  offset="0" style="stop-color:#886728"/>
		<stop  offset="0.5" style="stop-color:#D9B766"/>
		<stop  offset="1" style="stop-color:#886728"/>
	</linearGradient>
	<path class="st10" d="M80.5,30.2h-1l-0.4,3.7h9.8l-0.2,1.8H76.7l0.6-5.5h-1.3l-1.5,5.5h-2.3l1.6-5.5h-1.1l0.2-1.8h8.5l-0.2,1.8
		H80.5L80.5,30.2z M89.9,24.2h-2.3l0.2-2.1H75.7l-0.2,2.1h-2.3l0.3-3.3l-0.2-0.7h16.9L89.9,24.2L89.9,24.2z M88.9,24.9h-2.6l0.3,0.5
		l-0.1,0.8h-4.6L81.7,28h4.6l-0.5,4.7l-0.5,0.7H88l0.6-5.4h0.9l0.2-1.8h-0.9L88.9,24.9L88.9,24.9z M80.7,26.8h-7.6l0.2-1.7h8.2
		l-0.2,1.7H80.7z M85,33.3L84.3,29h-2.5l0.3,0.5l0.6,3.8H85z"/>
	
		<linearGradient id="SVGID_12_" gradientUnits="userSpaceOnUse" x1="-580.4932" y1="405.0135" x2="-580.1895" y2="405.0135" gradientTransform="matrix(55.9 0 0 -49.9 32541.5957 20238.3809)">
		<stop  offset="0" style="stop-color:#886728"/>
		<stop  offset="0.5" style="stop-color:#D9B766"/>
		<stop  offset="1" style="stop-color:#886728"/>
	</linearGradient>
	<path class="st11" d="M107.9,35.9h-16l0.2-1.6h0.8l0.3-3.2l-0.3-0.5H108l-0.2,1.5l0,0l-0.2,2.2h1.1l-0.2,1.6H107.9z M109.2,24.5
		l-0.5,5.2h-2.7l0.5-0.7l0.3-2.9h-2l1.2-4h-8l-2.2,7.6h-2.3l2.3-7.6H94l0.2-1.6h14.5l-1.1,4H109.2z M100.5,25.3h-2.4l1.6,2l-1.5,1.3
		H97l-0.1,1.1h2.9l1.1-1l0.8,1h2.7l0.1-1.1H103l-0.8-1.1l2-1.8l0.3-2.6h-6.1l-0.2,1.5h4.2l0,0.3l-1.2,1.1
		C101.2,26.1,100.5,25.3,100.5,25.3z M95.2,34.3h2l0.2-2.2h-2L95.2,34.3z M99.5,34.3h2l0.2-2.2h-2L99.5,34.3z M103.8,34.3h1.6
		l0.2-2.2H104L103.8,34.3z"/>
	
		<linearGradient id="SVGID_13_" gradientUnits="userSpaceOnUse" x1="-581.186" y1="405.0681" x2="-580.8801" y2="405.0681" gradientTransform="matrix(55.1 0 0 -50.3 32135.7402 20403.1582)">
		<stop  offset="0" style="stop-color:#886728"/>
		<stop  offset="0.5" style="stop-color:#D9B766"/>
		<stop  offset="1" style="stop-color:#886728"/>
	</linearGradient>
	<path class="st12" d="M128.6,23.3h-4.7l-0.2,1.9h4.1L128,36h-2.3l0-1.6h-2.8l-0.2,1.6h-2.3l0.2-1.6h-2.4l-0.3,1.5h-2.3l2.2-10.4
		l-0.3-0.5h2.7l-1.6,7.7h2.1l0.9-9.3H117l0.2-1.8h4.5l0-0.4l-0.3-0.5h2.6l-0.1,0.9h5.3l-0.1,1.8H128.6z M114.8,35.8l1.1-11.3h-0.7
		l1.6-4.1h-2.6l0.3,0.5l-2.2,5.4h1.2l-1,9.5H114.8z M123,32.6h2.6l-0.1-5.7h-1.9L123,32.6z"/>
	
		<linearGradient id="SVGID_14_" gradientUnits="userSpaceOnUse" x1="-581.8432" y1="404.9595" x2="-581.4983" y2="404.9595" gradientTransform="matrix(54 0 0 -49.5 31550.3379 20073.6973)">
		<stop  offset="0" style="stop-color:#886728"/>
		<stop  offset="0.5" style="stop-color:#D9B766"/>
		<stop  offset="1" style="stop-color:#886728"/>
	</linearGradient>
	<path class="st13" d="M147.3,27.4l-0.9,8.5h-2.7l0.5-0.7l0.1-0.5h-10.2l-0.1,1.2h-2.3l0.8-8l-0.3-0.5H147.3z M146.8,26.2h-14.1
		l0.3-2.7h-1.1l0.2-1.8h7.4l0.1-0.6l-0.3-0.5h2.6l-0.1,1.1h6.8l-0.2,1.8h-13l-0.1,0.9h12.4l-0.2,1.8H146.8z M134.3,32.9h10.2l0.1-1
		h-10.2L134.3,32.9z M134.6,30.1h10.2l0.1-1h-10.2L134.6,30.1z"/>
	
		<linearGradient id="SVGID_15_" gradientUnits="userSpaceOnUse" x1="-536.4969" y1="378.5261" x2="-536.355" y2="378.8779" gradientTransform="matrix(10.6 0 0 -10.6008 5753.0576 4034.8582)">
		<stop  offset="0" style="stop-color:#886728"/>
		<stop  offset="0.298" style="stop-color:#A07E38"/>
		<stop  offset="0.747" style="stop-color:#BE9A4D"/>
		<stop  offset="1" style="stop-color:#C9A555"/>
	</linearGradient>
	<path class="st14" d="M66.8,19.1c0.3,0,0.5,0.1,0.7,0.2c-0.1,0-0.2,0.1-0.2,0.2c-0.1,0.1-0.1,0.3-0.1,0.5c0.1,0.2,0.1,0.4,0.2,0.7
		c0.2,0.3,0.3,0.7,0.4,1.1c0,0.1,0,0.2,0,0.3c-0.3,0.2-0.7,0.4-1,0.4c-0.4,0-0.7-0.1-1-0.3c0-0.1-0.1-0.2,0-0.3
		c0.1-0.4,0.2-0.8,0.4-1.1c0.1-0.2,0.2-0.4,0.2-0.7c0-0.2,0-0.3-0.1-0.5c-0.1-0.1-0.2-0.2-0.3-0.2C66.2,19.2,66.5,19.1,66.8,19.1
		L66.8,19.1z M65.6,21.8v-0.2c0.1-0.4,0.2-0.8,0.4-1.2c0.1-0.2,0.2-0.4,0.2-0.6c0-0.1,0-0.2-0.1-0.3c-0.1-0.1-0.2-0.1-0.4-0.1
		c-0.4,0.3-0.7,0.8-0.7,1.3C65.1,21.1,65.3,21.5,65.6,21.8z M67.8,19.4c-0.1,0-0.3,0-0.3,0.1c-0.1,0.1-0.1,0.2-0.1,0.3
		c0.1,0.2,0.1,0.4,0.2,0.6c0.2,0.4,0.3,0.8,0.4,1.2v0.1c0.3-0.3,0.4-0.7,0.4-1.1C68.4,20.2,68.2,19.8,67.8,19.4L67.8,19.4z"/>
	
		<linearGradient id="SVGID_16_" gradientUnits="userSpaceOnUse" x1="-529.7966" y1="378.5356" x2="-529.6527" y2="378.8877" gradientTransform="matrix(10.5 0 0 -10.6 5599.811 4034.7202)">
		<stop  offset="0" style="stop-color:#886728"/>
		<stop  offset="0.298" style="stop-color:#A07E38"/>
		<stop  offset="0.747" style="stop-color:#BE9A4D"/>
		<stop  offset="1" style="stop-color:#C9A555"/>
	</linearGradient>
	<path class="st15" d="M37.6,19.2c0.4,0,0.8,0.2,1.1,0.5l-0.1,0.1l0,0c-0.3,0.3-0.4,0.6-0.5,1h-0.5V19.2z M38.1,20.9
		c0,0.4,0.2,0.8,0.5,1l0,0l0.1,0.1c-0.3,0.3-0.7,0.4-1.1,0.5v-1.5C37.6,20.9,38.1,20.9,38.1,20.9z M37.4,22.5
		c-0.4,0-0.8-0.2-1.1-0.5l0.1-0.1l0,0c0.3-0.3,0.4-0.6,0.5-1h0.5V22.5z M36.9,20.7c0-0.4-0.2-0.8-0.5-1l-0.1-0.1
		c0.3-0.3,0.7-0.4,1.1-0.5v1.5H36.9z M36.3,21.9L36.3,21.9L36.3,21.9c0.3-0.3,0.4-0.6,0.5-1h-0.8C35.9,21.3,36,21.6,36.3,21.9z
		 M35.9,20.7h0.8c0-0.3-0.2-0.7-0.4-0.9l-0.1-0.1C36,20,35.9,20.4,35.9,20.7z M38.8,19.8L38.8,19.8L38.8,19.8
		c-0.3,0.3-0.4,0.6-0.5,1h0.8C39.1,20.4,39,20,38.8,19.8z M39.2,20.9h-0.8c0,0.3,0.2,0.7,0.4,0.9l0.1,0.1
		C39,21.6,39.1,21.3,39.2,20.9z"/>
	
		<linearGradient id="SVGID_17_" gradientUnits="userSpaceOnUse" x1="-531.314" y1="375.9093" x2="-531.1659" y2="376.2751" gradientTransform="matrix(10.2085 0 0 -10.227 5475.5767 3860.1609)">
		<stop  offset="0" style="stop-color:#886728"/>
		<stop  offset="0.298" style="stop-color:#A07E38"/>
		<stop  offset="0.747" style="stop-color:#BE9A4D"/>
		<stop  offset="1" style="stop-color:#C9A555"/>
	</linearGradient>
	<path class="st16" d="M51.5,15.5c-0.2-0.1-0.4-0.3-0.5-0.5c0,0-0.1,0.1-0.1,0.1c0.2,0.3,0.5,0.6,0.9,0.7
		C51.6,15.7,51.6,15.6,51.5,15.5z M52,15.2L52,15.2c-0.1-0.2-0.2-0.4-0.2-0.6c0.1-0.1,0.2-0.3,0.3-0.4c0,0,0.1-0.1,0.2-0.1l0,0
		c0.1,0,0.1,0,0.2,0c0.1,0,0.2,0,0.3,0.1c0,0,0.1,0,0.1,0c0,0,0,0,0,0c0.1,0.2,0.2,0.4,0.2,0.6c-0.1,0.2-0.3,0.3-0.4,0.5h-0.3
		C52.2,15.4,52.2,15.3,52,15.2C52,15.2,52,15.2,52,15.2z M51.4,13.3L51.4,13.3c-0.2,0.2-0.3,0.3-0.4,0.5v0.1c0,0,0,0.1,0,0.2
		c0,0.1,0.1,0.3,0.2,0.4c0,0,0.1,0,0.1,0c0.1,0,0.1,0,0.2,0c0.1,0,0.2,0,0.3,0c0.1-0.2,0.3-0.4,0.5-0.5c0-0.2-0.1-0.3-0.1-0.5
		c0,0,0-0.1,0-0.2c-0.1-0.1-0.2-0.1-0.3-0.1l0,0C51.6,13.3,51.5,13.3,51.4,13.3z M52.7,15.4c0,0.1,0.1,0.2,0.2,0.3
		c-0.1,0.1-0.2,0.1-0.2,0.2c0,0,0,0-0.1,0c-0.2,0-0.4,0-0.6,0c0,0-0.1,0-0.1,0c-0.1-0.1-0.3-0.2-0.3-0.3c0.2-0.1,0.3-0.1,0.4-0.2
		c0.1,0,0.2,0.1,0.3,0.1C52.4,15.4,52.5,15.4,52.7,15.4z M51.1,14.5C51.1,14.7,51,14.8,51,15c0,0-0.1,0.1-0.1,0.1
		c-0.2-0.3-0.3-0.7-0.2-1.1c0-0.1,0-0.2,0.1-0.2c0.1,0,0.1,0.1,0.2,0.1C51,14.1,51,14.3,51.1,14.5z M52.6,13.2c0-0.1,0-0.3-0.1-0.4
		c0,0,0.1,0,0.1,0c0.4,0.1,0.7,0.4,0.9,0.7v0.2c-0.1-0.1-0.3-0.1-0.5-0.1C53,13.4,52.8,13.3,52.6,13.2z M51.4,13.3
		c0-0.1,0-0.2,0-0.3c0.3-0.2,0.6-0.2,1-0.2l0,0c0.1,0,0.1,0.1,0.2,0.1c0,0.1,0.1,0.2,0.1,0.4c-0.2,0.1-0.4,0.1-0.5,0.2
		c-0.1-0.1-0.2-0.1-0.3-0.1C51.6,13.3,51.5,13.3,51.4,13.3z M53.6,14.9L53.6,14.9c0,0.2,0,0.3-0.1,0.4c0.2-0.2,0.3-0.5,0.3-0.7
		c0-0.1,0-0.1,0-0.2C53.8,14.6,53.7,14.8,53.6,14.9z M52.7,15.8L52.7,15.8c0.2-0.1,0.3-0.1,0.5-0.2c-0.1,0.1-0.2,0.1-0.3,0.1
		C52.8,15.7,52.8,15.8,52.7,15.8z M53.1,13.6L53.1,13.6c0,0.2-0.1,0.4-0.2,0.5c0.1,0.2,0.2,0.4,0.2,0.7h0c0.1,0,0.2,0,0.3,0
		c0.1-0.2,0.2-0.3,0.2-0.6v0c0-0.2-0.1-0.4-0.2-0.6c-0.1,0-0.1-0.1-0.2-0.1C53.3,13.6,53.2,13.6,53.1,13.6z"/>
	
		<linearGradient id="SVGID_18_" gradientUnits="userSpaceOnUse" x1="-535.4675" y1="378.4194" x2="-535.3246" y2="378.773" gradientTransform="matrix(11.0007 0 0 -11.0001 5942.1714 4178.4277)">
		<stop  offset="0" style="stop-color:#886728"/>
		<stop  offset="0.298" style="stop-color:#A07E38"/>
		<stop  offset="0.747" style="stop-color:#BE9A4D"/>
		<stop  offset="1" style="stop-color:#C9A555"/>
	</linearGradient>
	<path class="st17" d="M52.2,12.6c0.9,0,1.7,0.8,1.7,1.7c0,0.4-0.2,0.9-0.5,1.2l0,0c-0.7,0.7-1.7,0.7-2.4,0l0,0
		c-0.7-0.7-0.7-1.7,0-2.4l0,0C51.3,12.8,51.8,12.6,52.2,12.6z M53.3,13.2c-0.6-0.6-1.6-0.6-2.2,0c-0.3,0.3-0.5,0.7-0.5,1.1
		c0,0.9,0.7,1.6,1.6,1.6c0.9,0,1.6-0.7,1.6-1.6C53.8,13.9,53.6,13.5,53.3,13.2z"/>
</g>
</svg>
