<svg xmlns="http://www.w3.org/2000/svg" width="72" height="24" viewBox="0 0 72 24">
    <defs>
        <linearGradient id="linear-gradient" x1=".5" x2=".5" y2="1" gradientUnits="objectBoundingBox">
            <stop offset="0" stop-color="#4a5cee"/>
            <stop offset="1" stop-color="#0d1ea7"/>
        </linearGradient>
        <style>
            .cls-1{fill:url(#linear-gradient)}
        </style>
    </defs>
    <g id="_9393_icon" transform="translate(-1460 -380)">
        <path id="_9393-popup1" d="M12 24A12 12 0 0 1 3.515 3.515a12 12 0 1 1 16.97 16.97A11.922 11.922 0 0 1 12 24zm-1.865-7.095a.361.361 0 0 0-.38.382v.765a.361.361 0 0 0 .38.382h.379l.683.611a.14.14 0 0 0 .037.1.272.272 0 0 0 .19.05h1.214c.074 0 .151 0 .3-.153l.607-.611h.38a.36.36 0 0 0 .379-.382v-.765a.36.36 0 0 0-.379-.382zM12.108 4.8A5.376 5.376 0 0 0 8.3 6.358a5.3 5.3 0 0 0-1.584 3.8 5.242 5.242 0 0 0 2.656 4.588.908.908 0 0 1 .379.689.763.763 0 0 0 .759.765h3.035a.764.764 0 0 0 .759-.765.8.8 0 0 1 .38-.689 5.682 5.682 0 0 0 1.944-2.007 4.956 4.956 0 0 0 .635-2.81A5.276 5.276 0 0 0 12.108 4.8z" class="cls-1" transform="translate(1460 380)"/>
        <path id="_9393-popup2" d="M12 24A12 12 0 0 1 3.515 3.515a12 12 0 1 1 16.97 16.97A11.921 11.921 0 0 1 12 24zm.054-6.906a1.2 1.2 0 1 0 1.2 1.2 1.205 1.205 0 0 0-1.2-1.2zm0-12.594a1.853 1.853 0 0 0-1.847 2.009l.746 8.917a1.1 1.1 0 0 0 2.2 0l.747-8.917A1.854 1.854 0 0 0 12.054 4.5z" class="cls-1" transform="translate(1484 380)"/>
        <path id="_9393-popup3" d="M12 24A12 12 0 0 1 3.515 3.515a12 12 0 1 1 16.97 16.97A11.921 11.921 0 0 1 12 24zm1.909-6.272V19H17a2 2 0 0 0 2-2v-3.09h-1.272v2.818a1 1 0 0 1-1 1zM5 13.91V17a2 2 0 0 0 2 2h3.091v-1.272H7.273a1 1 0 0 1-1-1V13.91zm8.136-1.273a.5.5 0 0 0-.5.5v2.819a.5.5 0 0 0 .5.5h2.819a.5.5 0 0 0 .5-.5v-2.82a.5.5 0 0 0-.5-.5zm-5.09 0a.5.5 0 0 0-.5.5v2.819a.5.5 0 0 0 .5.5h2.818a.5.5 0 0 0 .5-.5v-2.82a.5.5 0 0 0-.5-.5zm5.09-5.091a.5.5 0 0 0-.5.5v2.818a.5.5 0 0 0 .5.5h2.819a.5.5 0 0 0 .5-.5V8.046a.5.5 0 0 0-.5-.5zm-5.09 0a.5.5 0 0 0-.5.5v2.818a.5.5 0 0 0 .5.5h2.818a.5.5 0 0 0 .5-.5V8.046a.5.5 0 0 0-.5-.5zM17 5h-3.09v1.273h2.818a1 1 0 0 1 1 1v2.819H19V7a2 2 0 0 0-2-2zM7 5a2 2 0 0 0-2 2v3.091h1.272V7.273a1 1 0 0 1 1-1h2.819V5z" class="cls-1" transform="translate(1508 380)"/>
    </g>
</svg>
