<svg xmlns="http://www.w3.org/2000/svg" xmlns:xlink="http://www.w3.org/1999/xlink" width="160" height="32" viewBox="0 0 160 32"><defs><clipPath id="b"><rect width="160" height="32"/></clipPath></defs><g id="a" clip-path="url(#b)"><g transform="translate(-1572 -3608)"><g transform="translate(1398 1699)"><rect width="32" height="32" transform="translate(302 1909)" fill="none"/></g><g transform="translate(1702 3610)"><g transform="translate(-1.2 -1.03)"><path d="M15.23,0a15.23,15.23,0,1,0,15.23,15.23A15.262,15.262,0,0,0,15.23,0Zm0,28.675A13.445,13.445,0,1,1,28.675,15.23,13.46,13.46,0,0,1,15.23,28.675Z" fill="#9196b7"/></g><g transform="translate(12.801 11.49)"><g transform="translate(0 0)"><path d="M237.2,214.33a1.2,1.2,0,0,0-1.2,1.2v7.722a1.2,1.2,0,0,0,2.4,0v-7.722A1.2,1.2,0,0,0,237.2,214.33Z" transform="translate(-236 -214.33)" fill="#9196b7"/></g></g><g transform="translate(12.381 6.766)"><g transform="translate(0 0)"><ellipse cx="1.619" cy="1.619" rx="1.619" ry="1.619" fill="#9196b7"/></g></g></g></g><g transform="translate(-1564 -3608)"><g transform="translate(-3713 1733)" opacity="0"><rect width="32" height="32" transform="translate(5341 1875)" fill="#9196b7"/></g><g transform="translate(1628 3589.348)"><g transform="translate(4.423 19.652)"><g transform="translate(0 0)"><path d="M74.422,19.652a3.64,3.64,0,0,0-3.649,3.618L70.64,42.027l1.99.014.133-18.764a1.646,1.646,0,0,1,1.659-1.63h20v-2Z" transform="translate(-70.64 -19.652)" fill="#9196b7"/></g></g><g transform="translate(0 19.652)"><g transform="translate(0 0)"><path d="M28.216,19.652a3.789,3.789,0,0,0-3.784,3.784V44.449a2.755,2.755,0,0,1-5.51,0V42.025a1,1,0,0,0-1-1H1a1,1,0,0,0-1,1v2.423A4.752,4.752,0,0,0,4.747,49.2V47.2a2.758,2.758,0,0,1-2.755-2.755V43.021H16.929v1.427a4.747,4.747,0,1,0,9.494,0V28.88H31a1,1,0,0,0,1-1V23.436A3.788,3.788,0,0,0,28.216,19.652Zm1.793,7.236H26.423V23.436a1.792,1.792,0,0,1,3.585,0v3.452Z" transform="translate(0 -19.652)" fill="#9196b7"/></g></g><g transform="translate(4.556 47.2)"><g transform="translate(0 0)"><rect width="16.928" height="1.995" fill="#9196b7"/></g></g><g transform="translate(8.659 25.195)"><g transform="translate(0 0)"><path d="M144.775,108.349H139.62a1,1,0,1,0,0,2h5.155a1,1,0,1,0,0-2Z" transform="translate(-138.622 -108.349)" fill="#9196b7"/></g></g><g transform="translate(8.653 29.178)"><g transform="translate(0 0)"><path d="M150.761,172.083H139.62a1,1,0,1,0,0,2h11.141a1,1,0,1,0,0-2Z" transform="translate(-138.622 -172.083)" fill="#9196b7"/></g></g><g transform="translate(8.653 33.16)"><g transform="translate(0 0)"><path d="M150.761,235.817H139.62a1,1,0,1,0,0,2h11.141a1,1,0,1,0,0-2Z" transform="translate(-138.622 -235.817)" fill="#9196b7"/></g></g><g transform="translate(8.653 37.143)"><path d="M150.761,299.552H139.62a1,1,0,1,0,0,2h11.141a1,1,0,1,0,0-2Z" transform="translate(-138.622 -299.552)" fill="#9196b7"/></g></g></g><g transform="translate(1)"><g transform="translate(-0.03 0.97)"><path d="M15.23,0a15.23,15.23,0,1,0,15.23,15.23A15.262,15.262,0,0,0,15.23,0Zm0,28.675A13.445,13.445,0,1,1,28.675,15.23,13.46,13.46,0,0,1,15.23,28.675Zm8.615-17.086-5.4-.785L16.03,5.911a.892.892,0,0,0-1.6,0L12.014,10.8l-5.4.785a.892.892,0,0,0-.495,1.522l3.908,3.809L9.1,22.3a.892.892,0,0,0,1.295.941L15.23,20.7l4.83,2.539a.892.892,0,0,0,1.295-.941l-.922-5.378,3.907-3.809a.892.892,0,0,0-.495-1.522Zm-4.995,4.38a.892.892,0,0,0-.257.79l.7,4.058L15.645,18.9a.892.892,0,0,0-.83,0L11.17,20.818l.7-4.058a.893.893,0,0,0-.257-.79L8.66,13.1l4.075-.592a.892.892,0,0,0,.672-.488L15.23,8.322l1.822,3.693a.892.892,0,0,0,.672.488L21.8,13.1Z" fill="#9196b7"/></g><g transform="translate(-303 -1909)"><rect width="32" height="32" transform="translate(302 1909)" fill="none"/></g></g><g transform="translate(-146 -549)"><rect width="32" height="32" transform="translate(242 549)" fill="none"/><g transform="translate(243 550)"><path d="M15,12.363a3.516,3.516,0,1,0-3.516,3.516A3.52,3.52,0,0,0,15,12.363Zm-3.516,1.758a1.758,1.758,0,1,1,1.758-1.758A1.76,1.76,0,0,1,11.484,14.121ZM25.605,7.09H20.332a.879.879,0,0,0,0,1.758h5.273a.879.879,0,0,0,0-1.758ZM11.484,15.879c-2.712,0-6.152.934-6.152,3.656v2.5a.879.879,0,0,0,.879.879H16.758a.879.879,0,0,0,.879-.879v-2.5C17.637,16.812,14.2,15.879,11.484,15.879Zm4.395,5.273H7.09V19.535c0-1.383,2.7-1.9,4.395-1.9,1.484,0,4.395.438,4.395,1.9Zm13.242-8.789A.879.879,0,0,0,30,11.484V.879A.879.879,0,0,0,29.121,0h-12.3a.879.879,0,0,0-.879.879V5.332H4.395A2.64,2.64,0,0,0,1.758,7.969V24.727H.879A.879.879,0,0,0,0,25.605,4.4,4.4,0,0,0,4.395,30H25.605A4.4,4.4,0,0,0,30,25.605a.879.879,0,0,0-.879-.879h-.879V12.363ZM3.516,7.969a.88.88,0,0,1,.879-.879H15.938v6.152a.88.88,0,0,0,1.366.731l2.415-1.61h6.765V24.727H3.516Zm22.09,20.273H4.395a2.641,2.641,0,0,1-2.486-1.758H28.092A2.641,2.641,0,0,1,25.605,28.242ZM19.453,10.605a.879.879,0,0,0-.488.148L17.7,11.6V1.758H28.242v8.848Zm6.152-7.031H20.332a.879.879,0,0,0,0,1.758h5.273a.879.879,0,0,0,0-1.758Z" fill="#9196b7"/></g></g><g transform="translate(-1384 -3748)"><g transform="translate(1387 3748)"><g transform="translate(31)"><path d="M45.064,0A14.08,14.08,0,0,0,31,14.064v7.626A2.816,2.816,0,0,0,33.813,24.5h1.1a2.812,2.812,0,0,0,5.464-.938V15.939A2.812,2.812,0,0,0,34.912,15h-1.1a2.8,2.8,0,0,0-.938.161v-1.1a12.188,12.188,0,0,1,24.377,0v1.1A2.8,2.8,0,0,0,56.314,15h-1.1a2.812,2.812,0,0,0-5.464.938v7.626a2.812,2.812,0,0,0,3.629,2.692,2.818,2.818,0,0,1-2.692,2H47.715a2.813,2.813,0,1,0,0,1.875h2.974a4.693,4.693,0,0,0,4.688-4.688V24.5h.938a2.816,2.816,0,0,0,2.813-2.813V14.064A14.08,14.08,0,0,0,45.064,0ZM36.625,15.939a.938.938,0,0,1,1.875,0v7.626a.938.938,0,1,1-1.875,0Zm-2.813.938h.938v5.75h-.938a.939.939,0,0,1-.938-.938V17.814A.939.939,0,0,1,33.813,16.876ZM45.064,30.127A.938.938,0,1,1,46,29.19.939.939,0,0,1,45.064,30.127ZM53.5,23.564a.938.938,0,1,1-1.875,0V15.939a.938.938,0,0,1,1.875,0Zm3.75-1.875a.939.939,0,0,1-.938.938h-.938v-5.75h.938a.939.939,0,0,1,.938.938Z" transform="translate(-31 0)" fill="#9196b7"/></g></g><rect width="32" height="32" transform="translate(1416 3748)" fill="none"/></g></g></svg>