<svg xmlns="http://www.w3.org/2000/svg" width="100" height="19.63" viewBox="0 0 100 19.63"><path d="M1240.459-3262.218l5.493-8.473v8.473Zm58.558-.176a8.608,8.608,0,0,1-1.631-.459,6.973,6.973,0,0,1-1.474-.781,4.335,4.335,0,0,1-1.122-1.116,5.093,5.093,0,0,1-.73-1.538,14.193,14.193,0,0,1-.34-1.637h4.88a2.168,2.168,0,0,0,.731,1.24,2.2,2.2,0,0,0,1.435.447,1.949,1.949,0,0,0,1.513-.571,2.084,2.084,0,0,0,.522-1.464,1.481,1.481,0,0,0-.443-1.179,2.392,2.392,0,0,0-1.1-.52,5.753,5.753,0,0,0-1.383-.112q-.73.025-1.278.024v-3.373q.521,0,1.083-.025a3.667,3.667,0,0,0,1.031-.185,1.666,1.666,0,0,0,.77-.534,1.627,1.627,0,0,0,.3-1.042,2,2,0,0,0-.313-1.091,1.111,1.111,0,0,0-1.018-.5,1.334,1.334,0,0,0-1.135.434,1.786,1.786,0,0,0-.327,1.1h-4.748a5.481,5.481,0,0,1,.535-2.344,5.13,5.13,0,0,1,1.383-1.736,6.192,6.192,0,0,1,2.035-1.079,8.11,8.11,0,0,1,2.492-.373,7.474,7.474,0,0,1,2.166.323,5.829,5.829,0,0,1,1.891.955,5.029,5.029,0,0,1,1.331,1.537,4.106,4.106,0,0,1,.509,2.046,3.79,3.79,0,0,1-.64,2.245,4.943,4.943,0,0,1-1.865,1.526,5.48,5.48,0,0,1,2.6,1.575,3.988,3.988,0,0,1,.953,2.741,4.507,4.507,0,0,1-.614,2.331,5.718,5.718,0,0,1-1.617,1.762,7.987,7.987,0,0,1-2.257,1.116,8.255,8.255,0,0,1-2.5.4A9.121,9.121,0,0,1,1299.017-3262.393Zm-18.384.149,6.993-10.665a1.4,1.4,0,0,1,.1-.174,1.167,1.167,0,0,0,.1-.2,1.232,1.232,0,0,0,.13-.434,4.265,4.265,0,0,0,.026-.484,2.483,2.483,0,0,0-.716-1.785,2.446,2.446,0,0,0-1.841-.743,2.77,2.77,0,0,0-1.9.694,2.251,2.251,0,0,0-.782,1.761,2.325,2.325,0,0,0,.77,1.811,2.751,2.751,0,0,0,1.917.694,3.012,3.012,0,0,0,.809-.123l-2.948,4.167a5.354,5.354,0,0,1-2.374-.5,5.007,5.007,0,0,1-1.709-1.339,5.791,5.791,0,0,1-1.043-1.959,7.753,7.753,0,0,1-.353-2.357,6.631,6.631,0,0,1,.574-2.777,6.627,6.627,0,0,1,1.579-2.183,7.384,7.384,0,0,1,2.361-1.439,8.16,8.16,0,0,1,2.949-.521,8.638,8.638,0,0,1,3,.509,7.153,7.153,0,0,1,2.388,1.427,6.535,6.535,0,0,1,1.579,2.22,7.024,7.024,0,0,1,.574,2.865,6.707,6.707,0,0,1-.5,2.555,11.276,11.276,0,0,1-1.278,2.307l-4.723,6.672Zm-12.329-.149a8.614,8.614,0,0,1-1.63-.459,6.974,6.974,0,0,1-1.474-.781,4.335,4.335,0,0,1-1.122-1.116,5.12,5.12,0,0,1-.731-1.538,14.432,14.432,0,0,1-.339-1.637h4.879a2.173,2.173,0,0,0,.731,1.24,2.2,2.2,0,0,0,1.436.447,1.951,1.951,0,0,0,1.513-.571,2.084,2.084,0,0,0,.522-1.464,1.481,1.481,0,0,0-.443-1.179,2.4,2.4,0,0,0-1.1-.52,5.749,5.749,0,0,0-1.383-.112q-.73.025-1.279.024v-3.373q.522,0,1.084-.025a3.667,3.667,0,0,0,1.03-.185,1.66,1.66,0,0,0,.77-.534,1.622,1.622,0,0,0,.3-1.042,2,2,0,0,0-.313-1.091,1.111,1.111,0,0,0-1.018-.5,1.333,1.333,0,0,0-1.135.434,1.786,1.786,0,0,0-.327,1.1h-4.748a5.481,5.481,0,0,1,.535-2.344,5.119,5.119,0,0,1,1.383-1.736,6.193,6.193,0,0,1,2.035-1.079,8.106,8.106,0,0,1,2.492-.373,7.464,7.464,0,0,1,2.165.323,5.825,5.825,0,0,1,1.892.955,5.031,5.031,0,0,1,1.331,1.537,4.116,4.116,0,0,1,.508,2.046,3.79,3.79,0,0,1-.64,2.245,4.949,4.949,0,0,1-1.865,1.526,5.487,5.487,0,0,1,2.6,1.575,3.992,3.992,0,0,1,.952,2.741,4.506,4.506,0,0,1-.614,2.331,5.706,5.706,0,0,1-1.617,1.762,7.988,7.988,0,0,1-2.257,1.116,8.256,8.256,0,0,1-2.5.4A9.138,9.138,0,0,1,1268.3-3262.393Zm-18.285.149,6.992-10.665a1.515,1.515,0,0,1,.105-.174,1.1,1.1,0,0,0,.1-.2,1.211,1.211,0,0,0,.13-.434,4.471,4.471,0,0,0,.026-.484,2.484,2.484,0,0,0-.717-1.785,2.444,2.444,0,0,0-1.84-.743,2.768,2.768,0,0,0-1.9.694,2.251,2.251,0,0,0-.783,1.761,2.325,2.325,0,0,0,.77,1.811,2.752,2.752,0,0,0,1.918.694,3.012,3.012,0,0,0,.809-.123l-2.948,4.167a5.361,5.361,0,0,1-2.375-.5,5,5,0,0,1-1.708-1.339,5.808,5.808,0,0,1-1.044-1.959,7.783,7.783,0,0,1-.352-2.357,6.644,6.644,0,0,1,.573-2.777,6.651,6.651,0,0,1,1.579-2.183,7.387,7.387,0,0,1,2.362-1.439,8.155,8.155,0,0,1,2.948-.521,8.644,8.644,0,0,1,3,.509,7.171,7.171,0,0,1,2.388,1.427,6.55,6.55,0,0,1,1.579,2.22,7.026,7.026,0,0,1,.573,2.865,6.72,6.72,0,0,1-.495,2.555,11.233,11.233,0,0,1-1.279,2.307l-4.722,6.672Zm-16.214-.223a10,10,0,0,1-3.119-1.19,9.979,9.979,0,0,1-2.466-2.047,9.193,9.193,0,0,1-1.63-2.716,8.831,8.831,0,0,1-.588-3.225,8.542,8.542,0,0,1,.8-3.7,8.963,8.963,0,0,1,2.178-2.915,10.123,10.123,0,0,1,3.209-1.91,11.1,11.1,0,0,1,3.914-.682,10.458,10.458,0,0,1,2.322.261,10.824,10.824,0,0,1,2.205.756,10.506,10.506,0,0,1,1.983,1.216,8.745,8.745,0,0,1,1.6,1.612,7.719,7.719,0,0,1,1.279,2.48h-5.376a4.821,4.821,0,0,0-1.748-1.724,4.775,4.775,0,0,0-2.4-.607,5.134,5.134,0,0,0-2.1.421,5.062,5.062,0,0,0-1.631,1.129,5.063,5.063,0,0,0-1.057,1.661,5.361,5.361,0,0,0-.378,2,5.874,5.874,0,0,0,.365,2.072,5.217,5.217,0,0,0,1.03,1.711,4.924,4.924,0,0,0,1.618,1.167,5.14,5.14,0,0,0,2.153.434c.1,0,.2,0,.287-.013s.174-.013.261-.013l.035-.048-.152,0c-.035,0-.069.005-.1.005s-.093,0-.14,0-.092,0-.139,0a5.287,5.287,0,0,1-.59-.035l.972.03c.054,0,.108,0,.161-.008l2.017-2.791h-3.705v-3.671h11.089l-6.575,10.046a10.406,10.406,0,0,1-1.618.384,11.332,11.332,0,0,1-1.774.136A10.4,10.4,0,0,1,1233.8-3262.468Zm-13.749.223v-7.441h-6.445v7.441h-4.983v-18.6h4.983v7.02h6.445v-2.853h-2.636v-4.167h7.619v18.6Zm15.352-4.127,0,0,.02,0Z" transform="translate(-1208.127 3281.347)" fill="#fff" stroke="rgba(0,0,0,0)" stroke-miterlimit="10" stroke-width="1"/></svg>